<?xml version="1.0" encoding="utf-8"?>
<!-- Generator: Adobe Illustrator 21.1.0, SVG Export Plug-In . SVG Version: 6.00 Build 0)  -->
<svg version="1.1" id="Layer_1" xmlns="http://www.w3.org/2000/svg" xmlns:xlink="http://www.w3.org/1999/xlink" x="0px" y="0px"
	 viewBox="0 0 28.7 28.7" style="enable-background:new 0 0 28.7 28.7;" xml:space="preserve">
<style type="text/css">
	.st0{fill:none;stroke:#662F8F;stroke-width:4;stroke-linecap:round;stroke-linejoin:round;stroke-miterlimit:10;}
	.st1{fill:#662F8F;}
	.st2{fill:none;stroke:#662F8F;stroke-width:2;stroke-linecap:round;stroke-linejoin:round;stroke-miterlimit:10;}
	.st3{fill:none;stroke:#FFFFFF;stroke-width:0.488;stroke-linecap:round;stroke-linejoin:round;stroke-miterlimit:10;}
	.st4{fill:none;stroke:#E73E51;stroke-width:1.6927;}
	.st5{fill:none;stroke:#E73E51;stroke-width:1.1285;stroke-linecap:round;stroke-linejoin:round;stroke-miterlimit:10;}
	.st6{fill:#E73E51;}
	
		.st7{clip-path:url(#SVGID_2_);fill:none;stroke:#E73E51;stroke-width:1.1285;stroke-linecap:round;stroke-linejoin:round;stroke-miterlimit:10;}
	.st8{fill:none;stroke:#EE4050;stroke-width:1.1285;stroke-linecap:round;stroke-linejoin:round;stroke-miterlimit:10;}
	.st9{fill:none;stroke:#FFFFFF;stroke-width:0.574;stroke-linecap:round;stroke-linejoin:round;stroke-miterlimit:10;}
	.st10{fill:none;stroke:#A491C4;stroke-width:0.5657;stroke-miterlimit:10;}
	.st11{fill:none;stroke:#F7F8F9;stroke-width:1.2708;stroke-miterlimit:10;}
	.st12{fill:url(#SVGID_3_);}
	.st13{fill:#9289C1;}
	.st14{fill:#F79F7C;}
	.st15{fill:#EF619B;}
	.st16{fill:#F28BB9;}
	.st17{fill:#FABEA9;}
	.st18{fill:#F37B8A;}
	.st19{fill:none;stroke:#633493;stroke-width:5.1599;stroke-linecap:round;stroke-linejoin:round;stroke-miterlimit:10;}
	.st20{fill:none;stroke:#FFFFFF;stroke-width:1.0098;stroke-linecap:round;stroke-linejoin:round;stroke-miterlimit:10;}
	.st21{fill:none;stroke:#662F8F;stroke-width:1.5111;stroke-linecap:round;stroke-linejoin:round;stroke-miterlimit:10;}
	.st22{fill:none;stroke:#662F8F;stroke-width:1.6611;stroke-linecap:round;stroke-linejoin:round;stroke-miterlimit:10;}
	.st23{fill:none;stroke:#662F8F;stroke-width:0.75;stroke-miterlimit:10;}
</style>
<g>
	<path class="st0" d="M-337.8-303.8c9.6-9.6,22.8-15.5,37.3-15.5"/>
	<path class="st0" d="M-323.4-289.4c5.9-5.9,14-9.5,23-9.5"/>
	<path class="st0" d="M-366.6-332.6c17.7-17.7,41.2-27.4,66.1-27.4c25,0,48.4,9.7,66.1,27.4"/>
	<path class="st0" d="M-248.7-318.2c-13.3-13.3-31.6-21.5-51.7-21.5c-20.2,0-38.5,8.2-51.7,21.5"/>
	<path class="st0" d="M-263.1-303.8c-9.6-9.6-22.8-15.5-37.3-15.5"/>
	<path class="st0" d="M-277.5-289.4c-5.9-5.9-14-9.5-23-9.5"/>
	<path class="st0" d="M-291.9-257.9c-2.2,2.2-5.2,3.5-8.6,3.5c-6.7,0-12.1-5.4-12.1-12.1c0-6.7,5.4-12.1,12.1-12.1
		c3.3,0,6.4,1.4,8.6,3.5"/>
	<path class="st0" d="M-248.7-318.2c4,4,4,10.4,0,14.4c-4,4-10.4,4-14.4,0"/>
	<path class="st0" d="M-323.4-289.4c-4,4-10.4,4-14.4,0c-4-4-4-10.4,0-14.4"/>
	<path class="st0" d="M-277.5-289.4c4,4,4,10.4,0,14.4c-4,4-10.4,4-14.4,0"/>
	<path class="st0" d="M-352.2-318.2c-4,4-10.4,4-14.4,0c-4-4-4-10.4,0-14.4"/>
</g>
<g>
	<path class="st1" d="M-154.7-369.7c-28.7,0-52,23.3-52,52s23.3,52,52,52s52-23.3,52-52S-126-369.7-154.7-369.7z M-154.7-269.4
		c-26.6,0-48.3-21.7-48.3-48.3s21.7-48.3,48.3-48.3s48.3,21.7,48.3,48.3S-128.1-269.4-154.7-269.4z"/>
	<path class="st1" d="M-118.1-323.5c-4.8-4.7-10.4-8.3-16.4-10.7c0-0.3,0.1-0.7,0.1-1c0-11.1-9-20.2-20.2-20.2s-20.2,9-20.2,20.2
		c0,0.6,0,1.1,0.1,1.7c-5.5,2.4-10.5,5.8-14.9,10.1c0,0-0.1,0.1-0.1,0.1c-1.2,1.2-1.8,2.8-1.8,4.5c0,1.7,0.7,3.4,1.9,4.6
		c2.6,2.5,6.7,2.5,9.3,0c0,0,0,0,0,0c3.2-3.1,6.8-5.6,10.8-7.4c2.3,2.5,5.2,4.5,8.5,5.5c-5,1.2-9.6,3.7-13.4,7.4
		c0,0-0.1,0.1-0.1,0.1c-1.3,1.2-1.9,2.9-1.9,4.6c0,1.7,0.7,3.4,1.9,4.6c2.6,2.5,6.7,2.5,9.3,0c0,0,0,0,0,0h0c3-2.9,7-4.5,11.3-4.5
		c4.3,0,8.3,1.6,11.3,4.5c0,0,0,0,0,0c0.8,0.8,1.2,1.8,1.2,2.8c0,1.1-0.4,2.1-1.2,2.8c-1.6,1.6-4.3,1.6-5.9,0c0,0-0.1-0.1-0.1-0.1
		c-1.4-1.3-3.3-2.1-5.3-2.1c-4.2,0-7.6,3.3-7.6,7.5c0,4.1,3.4,7.5,7.6,7.5c2,0,3.9-0.8,5.4-2.2c0.5-0.5,0.5-1.3,0-1.7
		c-0.5-0.5-1.3-0.5-1.7,0c-1,1-2.3,1.5-3.7,1.5c-2.8,0-5.2-2.2-5.2-5c0-2.8,2.3-5,5.2-5c1.4,0,2.7,0.5,3.7,1.5c0,0,0.1,0.1,0.1,0.1
		c2.6,2.4,6.7,2.4,9.2-0.1c1.3-1.2,1.9-2.9,1.9-4.6s-0.7-3.4-1.9-4.6c0,0,0,0,0,0c-3.5-3.4-8.1-5.2-13-5.2c-4.9,0-9.5,1.9-13,5.2
		c0,0,0,0,0,0c-1.6,1.6-4.3,1.6-5.9,0c-0.8-0.8-1.2-1.8-1.2-2.8c0-1,0.4-2,1.1-2.7c0,0,0.1-0.1,0.1-0.1c5-4.9,11.7-7.6,18.8-7.6
		c7.1,0,13.8,2.7,18.8,7.6c0,0,0,0,0,0c2.6,2.5,6.7,2.5,9.3,0c1.3-1.2,1.9-2.9,1.9-4.6c0-1.7-0.7-3.4-1.9-4.6c0,0,0,0,0,0
		c-3.6-3.5-7.7-6.2-12.1-8.1c1.5-2.2,2.5-4.8,3-7.5c5.5,2.3,10.6,5.7,15,9.9c0.5,0.5,1.3,0.5,1.7,0
		C-117.7-322.3-117.7-323-118.1-323.5z M-182.1-316.1C-182.1-316.1-182.1-316.1-182.1-316.1c-1.6,1.6-4.3,1.6-5.9,0
		c-0.8-0.8-1.2-1.8-1.2-2.8c0-1.1,0.4-2.1,1.2-2.8c0,0,0.1-0.1,0.1-0.1c4-3.9,8.5-6.9,13.5-9.2c0.6,2.7,1.7,5.2,3.3,7.4
		C-175.1-321.8-178.8-319.3-182.1-316.1z M-127.5-314.3C-127.5-314.3-127.5-314.3-127.5-314.3c0.8,0.8,1.2,1.8,1.2,2.8
		c0,1.1-0.4,2.1-1.2,2.8c-1.6,1.6-4.3,1.6-5.9,0c0,0,0,0,0,0c-4-3.9-9-6.5-14.4-7.7c3.3-1.2,6.1-3.2,8.4-5.8
		C-135-320.4-131-317.7-127.5-314.3z M-154.7-317.6c-9.8,0-17.7-7.9-17.7-17.7c0-9.8,7.9-17.7,17.7-17.7s17.7,7.9,17.7,17.7
		C-137-325.5-144.9-317.6-154.7-317.6z"/>
	<path class="st1" d="M-162.3-336.6h-1.9l0.1-3.7h5.6v-1.5h-7.1l-0.2,6.6h2.9c2.5,0,3.4,1.1,3.4,2.5c0,1.4-1,2.5-2.8,2.5
		c-1.3,0-2.5-0.6-3.4-1.6l-1,1c1.1,1.3,2.6,2,4.4,2c2.4,0,4.5-1.5,4.5-4.2C-157.8-334.8-159.3-336.6-162.3-336.6z"/>
	<path class="st1" d="M-148.4-335.8v1.5h3.9c-0.3,2.5-1.9,4.1-4.5,4.1c-2.8,0-4.9-2.1-4.9-5.1c0-3,2.2-5.1,5-5.1
		c1.6,0,2.9,0.7,3.8,1.7l1.2-1.2c-1.2-1.3-3-2.1-5-2.1c-3.9,0-6.7,2.8-6.7,6.7c0,4.2,3.2,6.7,6.6,6.7c3.9,0,6.3-3,6.3-6.7
		c0-0.1,0-0.3,0-0.4H-148.4z"/>
</g>
<g>
	<line class="st2" x1="-22.8" y1="-284" x2="-22.8" y2="-275.4"/>
	<path class="st2" d="M-36.5-275.4c-2.8,0-5.2-2.3-5.2-5.2v-77.8c0-2.8,2.3-5.2,5.2-5.2h69.9c2.8,0,5.2,2.3,5.2,5.2v77.8
		c0,2.8-2.3,5.2-5.2,5.2h-56.2"/>
	<path class="st2" d="M-22.8-284h-5c-2.8,0-5.2-2.3-5.2-5.2v-60.4c0-2.8,2.3-5.2,5.2-5.2h10.1c2.8,0,5.2,2.3,5.2,5.2v60.4"/>
	<g>
		<g>
			<circle class="st2" cx="-0.8" cy="-334.2" r="3.8"/>
			<circle class="st2" cx="13.1" cy="-334.2" r="3.8"/>
			<circle class="st2" cx="26.9" cy="-334.2" r="3.8"/>
			<circle class="st2" cx="-0.8" cy="-320.3" r="3.8"/>
			<circle class="st2" cx="13.1" cy="-320.3" r="3.8"/>
			<circle class="st2" cx="26.9" cy="-320.3" r="3.8"/>
			<circle class="st2" cx="-0.8" cy="-306.4" r="3.8"/>
			<circle class="st2" cx="13.1" cy="-306.4" r="3.8"/>
			<circle class="st2" cx="26.9" cy="-306.4" r="3.8"/>
			<circle class="st2" cx="-0.8" cy="-292.5" r="3.8"/>
			<circle class="st2" cx="13.1" cy="-292.5" r="3.8"/>
			<circle class="st2" cx="26.9" cy="-292.5" r="3.8"/>
		</g>
		<line class="st2" x1="-4.6" y1="-350.1" x2="30.7" y2="-350.1"/>
	</g>
</g>
<g>
	<path class="st3" d="M-105.5-171.6v-1c0-2.7-2.1-4.9-4.8-5c-2.8-0.1-5.1,2.2-5.1,4.9l0,3.8h10.9c0.7,0,1.3,0.6,1.3,1.3v8.6
		c0,0.7-0.6,1.3-1.3,1.3h-2.7c-0.5,0-1-0.4-1.1-0.9l-0.8-3.2v0c0.6-0.5,0.9-1.2,0.8-2.1c-0.1-1-1-1.7-1.9-1.9
		c-1.3-0.1-2.5,0.9-2.5,2.2c0,0.7,0.3,1.3,0.8,1.7h0c0,0-0.5,2-0.8,3.2c-0.1,0.5-0.6,0.9-1.1,0.9h-2.7c-0.7,0-1.3-0.6-1.3-1.3v-8.6"
		/>
</g>
<g>
	<circle class="st4" cx="12.8" cy="-164.3" r="23"/>
	<path class="st5" d="M-10.4-164.4l23.2-0.1 M12.8-164.5v-23.1V-164.5z M24.4-164.5c0,6.4-5.2,11.6-11.6,11.6
		c-6.4,0-11.7-5.2-11.7-11.6c0-6.4,5.2-11.6,11.7-11.6C19.2-176.1,24.4-170.9,24.4-164.5z M30-164.5c0,9.5-7.7,17.3-17.3,17.3
		c-9.5,0-17.3-7.7-17.3-17.3c0-9.5,7.7-17.3,17.3-17.3C22.3-181.7,30-174,30-164.5z"/>
	<path class="st6" d="M-2.9-169.8c1.2,0,2.2-1,2.2-2.2c0-1.2-1-2.2-2.2-2.2c-1.2,0-2.2,1-2.2,2.2C-5.1-170.7-4.1-169.8-2.9-169.8"/>
</g>
<g>
	<circle class="st4" cx="-45.6" cy="-163.9" r="23"/>
	<path class="st5" d="M-34.9-171.2l7.1,7.2 M-34.9-171.2l-7.1,10.3 M-49-156.8l7.1-4.2 M-49-156.8l-7.1-9.5 M-63.1-161.3l7.1-4.9"/>
	<path class="st6" d="M-58.1-166.3c0-1.2,1-2.1,2.1-2.1s2.1,1,2.1,2.1c0,1.2-1,2.1-2.1,2.1S-58.1-165.1-58.1-166.3"/>
	<path class="st6" d="M-51.1-156.8c0-1.2,1-2.1,2.1-2.1s2.1,1,2.1,2.1c0,1.2-1,2.1-2.1,2.1S-51.1-155.6-51.1-156.8"/>
	<path class="st6" d="M-44-160.9c0-1.2,1-2.1,2.1-2.1s2.1,1,2.1,2.1c0,1.2-1,2.1-2.1,2.1S-44-159.8-44-160.9"/>
	<path class="st6" d="M-37-171.2c0-1.2,1-2.1,2.1-2.1s2.1,1,2.1,2.1c0,1.2-1,2.1-2.1,2.1S-37-170-37-171.2"/>
	<path class="st6" d="M-30.1-164.1c0-1.2,1-2.1,2.1-2.1c1.2,0,2.1,1,2.1,2.1c0,1.2-1,2.1-2.1,2.1C-29.1-162-30.1-163-30.1-164.1"/>
	<path class="st6" d="M-64.9-161.5c0-1.2,1-2.1,2.1-2.1s2.1,1,2.1,2.1c0,1.2-1,2.1-2.1,2.1S-64.9-160.3-64.9-161.5"/>
</g>
<g>
	<circle class="st4" cx="62.5" cy="-204.6" r="23"/>
	<g>
		<defs>
			<path id="SVGID_1_" d="M38.7-204.8c0,12.4,9.6,22.6,21.8,23.5h3.6c11.7-0.9,21.1-10.4,21.8-22.2v-2.7
				c-0.7-12.4-11-22.2-23.6-22.2C49.3-228.4,38.7-217.9,38.7-204.8"/>
		</defs>
		<clipPath id="SVGID_2_">
			<use xlink:href="#SVGID_1_"  style="overflow:visible;"/>
		</clipPath>
		<path class="st7" d="M85.3-173.3H73.2c-0.5,0-0.9-0.4-0.9-0.9v-5.2c0-0.5,0.4-0.9,0.9-0.9h12.1c0.5,0,0.9,0.4,0.9,0.9v5.2
			C86.3-173.7,85.8-173.3,85.3-173.3z M71.3-173.3H59.2c-0.5,0-0.9-0.4-0.9-0.9v-5.2c0-0.5,0.4-0.9,0.9-0.9h12.1
			c0.5,0,0.9,0.4,0.9,0.9v5.2C72.3-173.7,71.8-173.3,71.3-173.3z M57.4-173.3H45.3c-0.5,0-0.9-0.4-0.9-0.9v-5.2
			c0-0.5,0.4-0.9,0.9-0.9h12.1c0.5,0,0.9,0.4,0.9,0.9v5.2C58.4-173.7,58-173.3,57.4-173.3z M43.4-173.3H31.3c-0.5,0-0.9-0.4-0.9-0.9
			v-5.2c0-0.5,0.4-0.9,0.9-0.9h12.1c0.5,0,0.9,0.4,0.9,0.9v5.2C44.4-173.7,44-173.3,43.4-173.3z M92.6-180.3H80.5
			c-0.5,0-0.9-0.4-0.9-0.9v-5.2c0-0.5,0.4-0.9,0.9-0.9h12.1c0.5,0,0.9,0.4,0.9,0.9v5.2C93.5-180.8,93.1-180.3,92.6-180.3z
			 M78.6-180.3H66.5c-0.5,0-0.9-0.4-0.9-0.9v-5.2c0-0.5,0.4-0.9,0.9-0.9h12.1c0.5,0,0.9,0.4,0.9,0.9v5.2
			C79.5-180.8,79.1-180.3,78.6-180.3z M64.7-180.3H52.6c-0.5,0-0.9-0.4-0.9-0.9v-5.2c0-0.5,0.4-0.9,0.9-0.9h12.1
			c0.5,0,0.9,0.4,0.9,0.9v5.2C65.6-180.8,65.2-180.3,64.7-180.3z M50.7-180.3H38.6c-0.5,0-0.9-0.4-0.9-0.9v-5.2
			c0-0.5,0.4-0.9,0.9-0.9h12.1c0.5,0,0.9,0.4,0.9,0.9v5.2C51.6-180.8,51.2-180.3,50.7-180.3z M85.3-187.5H73.2
			c-0.5,0-0.9-0.4-0.9-0.9v-5.2c0-0.5,0.4-0.9,0.9-0.9h12.1c0.5,0,0.9,0.4,0.9,0.9v5.2C86.3-187.9,85.8-187.5,85.3-187.5z
			 M71.3-187.5H59.2c-0.5,0-0.9-0.4-0.9-0.9v-5.2c0-0.5,0.4-0.9,0.9-0.9h12.1c0.5,0,0.9,0.4,0.9,0.9v5.2
			C72.3-187.9,71.8-187.5,71.3-187.5z M57.4-187.5H45.3c-0.5,0-0.9-0.4-0.9-0.9v-5.2c0-0.5,0.4-0.9,0.9-0.9h12.1
			c0.5,0,0.9,0.4,0.9,0.9v5.2C58.4-187.9,58-187.5,57.4-187.5z M43.4-187.5H31.3c-0.5,0-0.9-0.4-0.9-0.9v-5.2c0-0.5,0.4-0.9,0.9-0.9
			h12.1c0.5,0,0.9,0.4,0.9,0.9v5.2C44.4-187.9,44-187.5,43.4-187.5z M92.6-194.5H80.5c-0.5,0-0.9-0.4-0.9-0.9v-5.2
			c0-0.5,0.4-0.9,0.9-0.9h12.1c0.5,0,0.9,0.4,0.9,0.9v5.2C93.5-194.9,93.1-194.5,92.6-194.5z M78.6-194.5H66.5
			c-0.5,0-0.9-0.4-0.9-0.9v-5.2c0-0.5,0.4-0.9,0.9-0.9h12.1c0.5,0,0.9,0.4,0.9,0.9v5.2C79.5-194.9,79.1-194.5,78.6-194.5z
			 M64.7-194.5H52.6c-0.5,0-0.9-0.4-0.9-0.9v-5.2c0-0.5,0.4-0.9,0.9-0.9h12.1c0.5,0,0.9,0.4,0.9,0.9v5.2
			C65.6-194.9,65.2-194.5,64.7-194.5z M50.7-194.5H38.6c-0.5,0-0.9-0.4-0.9-0.9v-5.2c0-0.5,0.4-0.9,0.9-0.9h12.1
			c0.5,0,0.9,0.4,0.9,0.9v5.2C51.6-194.9,51.2-194.5,50.7-194.5z M85.3-201.6H73.2c-0.5,0-0.9-0.4-0.9-0.9v-5.2
			c0-0.5,0.4-0.9,0.9-0.9h12.1c0.5,0,0.9,0.4,0.9,0.9v5.2C86.3-202.1,85.8-201.6,85.3-201.6z M71.3-201.6H59.2
			c-0.5,0-0.9-0.4-0.9-0.9v-5.2c0-0.5,0.4-0.9,0.9-0.9h12.1c0.5,0,0.9,0.4,0.9,0.9v5.2C72.3-202.1,71.8-201.6,71.3-201.6z
			 M57.4-201.6H45.3c-0.5,0-0.9-0.4-0.9-0.9v-5.2c0-0.5,0.4-0.9,0.9-0.9h12.1c0.5,0,0.9,0.4,0.9,0.9v5.2
			C58.4-202.1,58-201.6,57.4-201.6z M43.4-201.6H31.3c-0.5,0-0.9-0.4-0.9-0.9v-5.2c0-0.5,0.4-0.9,0.9-0.9h12.1
			c0.5,0,0.9,0.4,0.9,0.9v5.2C44.4-202.1,44-201.6,43.4-201.6z"/>
	</g>
</g>
<circle class="st4" cx="124.4" cy="-179.2" r="23"/>
<path class="st8" d="M124.5-170c-1.2-0.5-5.6-2.7-5.6-7.1v-6.8c2.6-0.1,4.7-1,5.6-1.5c0.9,0.5,3,1.4,5.6,1.5v6.8
	C130.1-172.7,125.7-170.5,124.5-170z"/>
<path class="st8" d="M126.9-175.1h-4.8v-3.5h4.8V-175.1z M123-178.6v-1.4c0-0.8,0.7-1.5,1.5-1.5c0.8,0,1.5,0.7,1.5,1.5v1.4"/>
<path class="st8" d="M138.2-186.1l0-1.4c0-0.5-0.4-0.9-0.9-0.9l-12.3,0.1l-3.6-3.6l-8.6,0c-1,0-1.9,0.9-1.9,1.9l0.1,22.7h27.2
	V-186.1z"/>
<g>
	<circle class="st4" cx="190.6" cy="-174.8" r="23"/>
	<path class="st8" d="M201.1-166c0,1.8-1.5,3.3-3.3,3.3c-1.8,0-3.3-1.5-3.3-3.3c0-1.8,1.5-3.3,3.3-3.3
		C199.6-169.3,201.1-167.8,201.1-166z M197-166.9l0.8,2l1.5-3.9 M181.9-169.9h9.1 M181.9-172.7h14.7 M181.9-175.5h14.7 M181.9-178.4
		h14.7 M181.9-181.2h9.9 M181.9-184h9.9 M196.5-189.7h6.9v29.8h-25.2v-29.8H196.5z"/>
</g>
<circle class="st4" cx="253.4" cy="-170.3" r="23"/>
<path class="st8" d="M253.2-165.1v1.1 M253.2-175.9v7.2 M253.2-184.5l-13.9,24.2h27.9L253.2-184.5z"/>
<circle class="st4" cx="326.9" cy="-170" r="23"/>
<path class="st8" d="M326.9-152.6c-2.4-1-11.4-5.4-11.4-14.4v-13.7c5.3-0.1,9.6-2,11.4-3c1.8,1,6,2.8,11.4,3v13.7
	C338.3-158,329.4-153.6,326.9-152.6z"/>
<path class="st8" d="M331.8-163h-9.8v-7.1h9.8V-163z M323.9-170v-2.8c0-1.6,1.3-3,3-3c1.6,0,3,1.3,3,3v2.8"/>
<g>
	<path class="st0" d="M452.8-192v-5.9c0-16.5-12.9-30.4-29.4-30.8c-17.1-0.5-31.1,13.2-31.1,30.2l0,23.2h67.2c4.2,0,7.7,3.5,7.7,7.7
		v53.1c0,4.2-3.5,7.7-7.7,7.7c0,0-10.2,0-16.8,0c-3.3,0-6.2-2.3-7-5.5l-4.8-19.9l0,0c3.6-2.9,5.8-7.6,5-12.7
		c-0.9-6-5.8-10.7-11.8-11.4c-8.2-0.9-15.1,5.5-15.1,13.5c0,4.3,2,8.2,5.2,10.6l0,0c0,0-3,12.4-4.8,19.9c-0.8,3.2-3.7,5.5-7,5.5
		h-16.8c-4.2,0-7.7-3.5-7.7-7.7v-53.1"/>
</g>
<g>
	<path class="st9" d="M328.4-102.9c1.7,0.6,3.7,0.2,5-1.1c1.4-1.4,1.7-3.3,1.1-5l-2.4,2.4c-0.3,0.3-0.8,0.3-1.1,0l-1.8-1.8
		c-0.3-0.3-0.3-0.8,0-1.1l2.4-2.4c-1.7-0.6-3.7-0.2-5,1.1c-1.4,1.4-1.7,3.3-1.1,5l-7.4,7.4c-1.7-0.6-3.7-0.2-5,1.1
		c-1.4,1.4-1.7,3.3-1.1,5l2.4-2.4c0.3-0.3,0.8-0.3,1.1,0l1.8,1.8c0.3,0.3,0.3,0.8,0,1.1l-2.4,2.4c1.7,0.6,3.7,0.2,5-1.1
		c1.4-1.4,1.7-3.3,1.1-5l2.2-2.2"/>
	<path class="st9" d="M323.2-97.7l-5.8-6.2c-1-1-2.7-1-3.7,0c-0.9,0.9-1,2.4-0.2,3.4l-2,1.3c0,0-3.2-4.8,0.5-8.5
		c1.3-1.3,2.5-2.5,3.6-3.6c0.3,0.1,0.7,0.1,1,0.2c0.3,0.1,0.6-0.2,0.5-0.5l-0.2-1l1.7-1.7l4.6,4.6l-1.6,1.6c-0.5-0.5-1.3-0.5-1.7,0
		c-0.5,0.5-0.5,1.3,0,1.7l12.8,11.9c0.1,0.1,0.2,0.2,0.2,0.2c0.7,0.8,0.7,2,0.1,2.9c-0.9,1.1-2.5,1.2-3.5,0.3c0,0-0.1-0.1-0.1-0.1
		l-4.2-4.4"/>
</g>
<g>
	<path class="st10" d="M644.1,215.1c-16.8,29.7-59.2,67.7-114.4,99.6c-81.9,47.3-161,63.4-176.8,36c-7.4-12.7,0.3-32.6,18.8-55"/>
	<path class="st10" d="M590.9,168.5c29.3-5.1,50.9-1.9,58.3,11c2.6,4.5,3.3,10,2.3,16.1"/>
	<circle class="st10" cx="648.7" cy="205.7" r="10.5"/>
	<circle class="st10" cx="497.3" cy="237.3" r="132"/>
</g>
<image style="overflow:visible;" width="1600" height="700" xlink:href="../Dropbox (Muuaaa)/Muuaaa Team Folder/Graphic Design_Gabriel/Neptuno/02 Design/images/slide-22.jpg"  transform="matrix(0.4158 0 0 0.4158 207.1359 -277.3877)">
</image>
<image style="overflow:visible;" width="1078" height="516" xlink:href="datacenter-google-1078x516.jpg"  transform="matrix(1 0 0 1 333.4611 -918.3591)">
</image>
<g>
	<g>
		<g>
			<path class="st11" d="M1227.7,184c7.8-13.2,12.3-28.7,12.3-45.2c0-49.1-39.8-88.9-88.9-88.9s-88.9,39.8-88.9,88.9
				c0,16,4.2,30.9,11.6,43.9"/>
			<path class="st11" d="M1084,197c16.3,18.8,40.3,30.7,67.2,30.7c26.8,0,50.9-11.9,67.2-30.7"/>
			<rect x="1078.6" y="193.8" class="st11" width="45.9" height="3.2"/>
			<g>
				<rect x="1073.9" y="178.7" class="st11" width="55.3" height="15.1"/>
				<line class="st11" x1="1078.5" y1="182.9" x2="1078.5" y2="189.5"/>
				<line class="st11" x1="1081.9" y1="182.9" x2="1081.9" y2="189.5"/>
				<line class="st11" x1="1085.4" y1="182.9" x2="1085.4" y2="189.5"/>
				<line class="st11" x1="1088.9" y1="182.9" x2="1088.9" y2="189.5"/>
				<line class="st11" x1="1092.4" y1="182.9" x2="1092.4" y2="189.5"/>
				<line class="st11" x1="1095.8" y1="182.9" x2="1095.8" y2="189.5"/>
				<circle class="st11" cx="1122.6" cy="186.2" r="2.3"/>
				<circle class="st11" cx="1114.5" cy="186.2" r="2.3"/>
				<circle class="st11" cx="1106.5" cy="186.2" r="2.3"/>
			</g>
			<path class="st11" d="M1083.7,178.7v-19.6c0-1.2,1-2.2,2.2-2.2l0,0c1.2,0,2.2,1,2.2,2.2v19.6"/>
			<path class="st11" d="M1077.8,146.7c2.1-2.1,5-3.4,8.1-3.4"/>
			<path class="st11" d="M1080,149.9c1.5-1.5,3.6-2.4,5.9-2.4"/>
			<path class="st11" d="M1082.3,153c0.9-0.9,2.2-1.5,3.6-1.5"/>
			<path class="st11" d="M1094,146.7c-2.1-2.1-5-3.4-8.1-3.4"/>
			<path class="st11" d="M1091.8,149.9c-1.5-1.5-3.6-2.4-5.9-2.4"/>
			<path class="st11" d="M1089.5,153c-0.9-0.9-2.2-1.5-3.6-1.5"/>
			<path class="st11" d="M1115,178.7v-19.6c0-1.2,1-2.2,2.2-2.2l0,0c1.2,0,2.2,1,2.2,2.2v19.6"/>
			<path class="st11" d="M1109.1,146.7c2.1-2.1,5-3.4,8.1-3.4"/>
			<path class="st11" d="M1111.3,149.9c1.5-1.5,3.6-2.4,5.9-2.4"/>
			<path class="st11" d="M1113.6,153c0.9-0.9,2.2-1.5,3.6-1.5"/>
			<path class="st11" d="M1125.3,146.7c-2.1-2.1-5-3.4-8.1-3.4"/>
			<path class="st11" d="M1123.1,149.9c-1.5-1.5-3.6-2.4-5.9-2.4"/>
			<path class="st11" d="M1120.8,153c-0.9-0.9-2.2-1.5-3.6-1.5"/>
			<rect x="1135.5" y="88" class="st11" width="42.5" height="105.8"/>
			<rect x="1141.1" y="93.5" class="st11" width="31.4" height="8.2"/>
			<rect x="1141.1" y="101.7" class="st11" width="31.4" height="8.2"/>
			<rect x="1141.1" y="109.8" class="st11" width="31.4" height="8.2"/>
			<rect x="1141.1" y="118" class="st11" width="31.4" height="8.2"/>
			<rect x="1141.1" y="126.2" class="st11" width="31.4" height="8.2"/>
			<rect x="1141.1" y="134.3" class="st11" width="31.4" height="8.2"/>
			<rect x="1141.1" y="160.6" class="st11" width="31.4" height="23.2"/>
			<circle class="st11" cx="1156.5" cy="172.2" r="2.8"/>
			<g>
				<rect x="1141.1" y="149.5" class="st11" width="18.6" height="4.1"/>
				<rect x="1168.4" y="149.5" class="st11" width="4.1" height="4.1"/>
			</g>
			<line class="st11" x1="1153.7" y1="172.2" x2="1141.1" y2="172.2"/>
			<line class="st11" x1="1159.3" y1="172.2" x2="1172" y2="172.2"/>
			<rect x="1135.5" y="193.8" class="st11" width="42.5" height="3.2"/>
			<circle class="st11" cx="1207.2" cy="166.2" r="11.7"/>
			<circle class="st11" cx="1207.2" cy="166.2" r="6.4"/>
			<circle class="st11" cx="1207.2" cy="166.2" r="2.6"/>
			<line class="st11" x1="1207.2" y1="177.9" x2="1207.2" y2="184"/>
			<g>
				<rect x="1184.4" y="184" class="st11" width="44.1" height="9.8"/>
				<line class="st11" x1="1217.8" y1="188.9" x2="1195.1" y2="188.9"/>
			</g>
			<rect x="1188.1" y="193.8" class="st11" width="36.7" height="3.2"/>
		</g>
	</g>
</g>
<g>
	<linearGradient id="SVGID_3_" gradientUnits="userSpaceOnUse" x1="1289.1799" y1="17.2143" x2="1411.4177" y2="17.2143">
		<stop  offset="0" style="stop-color:#C558A0"/>
		<stop  offset="0.5945" style="stop-color:#7F3E93"/>
		<stop  offset="1" style="stop-color:#532E8B"/>
	</linearGradient>
	<path class="st12" d="M1380.1-4.9l31.3,17.6L1350,47.2l-60.9-34.6L1320-4.8C1338.6-15.4,1361.5-15.5,1380.1-4.9z"/>
	<path class="st13" d="M1289.2,12.7v3.6l59.9,34.7c0.4,0.2,0.8,0.2,1.1,0l61.2-34.7v-3.7L1350,47.2L1289.2,12.7z"/>
	<path class="st14" d="M1375-35.6l36.4,20.5L1350,19.5l-60.9-34.6l36-20.4C1340.6-44.3,1359.5-44.3,1375-35.6z"/>
	<path class="st15" d="M1376.6-60.6l34.8,19.6L1350-6.4L1289.2-41l34.3-19.5C1340-69.8,1360.1-69.8,1376.6-60.6z"/>
	<path class="st16" d="M1289.2-41l0.1,3.6L1349-2.6c0.4,0.2,0.8,0.2,1.2,0l61.2-34.7V-41L1350-6.4L1289.2-41z"/>
	<path class="st17" d="M1289.2-15.1l0.1,3.6l59.7,34.7c0.4,0.2,0.9,0.2,1.3,0l61.1-34.7v-3.6L1350,19.5L1289.2-15.1z"/>
</g>
<g>
	<g>
		<path class="st18" d="M1830.6-79.3l-76.2,129.5c-1.5,2.5,0.3,5.7,3.3,5.7h61.4c0.7,0,1.3,0.6,1.2,1.4l-13.6,101.2
			c-0.4,3.3,4,4.9,5.7,2l94.1-155.8c1.4-2.3-0.3-5.2-2.9-5.2h-74.4c-0.7,0-1.3-0.6-1.2-1.3l8-75.7
			C1836.3-80.7,1832.2-82,1830.6-79.3z"/>
	</g>
	<g>
		<g>
			<path class="st1" d="M1691.1,24c-28.5-17-50.1-44.3-59.4-76.2c-9.1-31-6.3-65.2,7.9-94.2c28.1-57.4,95.2-86.9,156.5-68.2
				c35.2,10.7,64.3,36.3,80.3,69.4c2,4.1,8.2,0.5,6.2-3.6c-14.9-30.8-40.8-55.3-72.4-68.3c-31.7-13-68.2-13.7-100.3-1.8
				c-29.8,11.1-55.3,32.3-71.4,59.7c-17.1,29-22.9,63.8-16.6,96.8c7.4,38.7,31.9,72.6,65.7,92.7C1691.4,32.5,1695,26.4,1691.1,24
				L1691.1,24z"/>
		</g>
	</g>
	<g>
		<g>
			<path class="st1" d="M1880.4-143.7c47.3-13.1,98.5,12.1,115.3,58.7c15.6,43.4-2.9,92.9-43.1,115.3c-25.3,14.1-55.7,15.3-82.5,4.6
				c-4.3-1.7-6.1,5.2-1.9,6.9c49.2,19.8,107.2-2.1,130.2-50.1c21.5-44.9,6.9-99.8-33.9-128.2c-25-17.4-56.8-22.2-86-14.1
				C1874-149.4,1875.9-142.4,1880.4-143.7L1880.4-143.7z"/>
		</g>
	</g>
	<g>
		<g>
			<path class="st1" d="M1872.2,40.1c9.8-16.3,19.7-32.6,29.5-48.9c1.4-2.3-0.4-5.4-3.1-5.4c-27.2,0-54.3,0-81.5,0
				c1.2,1.2,2.4,2.4,3.6,3.6c3.8-28.3,7.6-56.6,11.3-84.9c0.6-4.1,1.1-8.2,1.7-12.3c0.5-3.7-5-4.6-6.7-1.8
				c-10.1,17.3-20.1,34.5-30.2,51.8c-16.1,27.5-32.2,55.1-48.3,82.6c-3.7,6.4-7.5,12.8-11.2,19.2c-1.4,2.3,0.4,5.4,3.1,5.4
				c23,0,46.1,0,69.1,0c-1.2-1.2-2.4-2.4-3.6-3.6c-4.6,34.3-9.2,68.6-13.8,102.9c-0.6,4.8-1.3,9.6-1.9,14.4c-0.5,3.7,5,4.6,6.7,1.8
				c15.8-26.3,31.7-52.5,47.5-78.8c2.3-3.8,4.5-7.5,6.8-11.3c2.4-4-3.8-7.6-6.2-3.6c-15.8,26.3-31.7,52.5-47.5,78.8
				c-2.3,3.8-4.5,7.5-6.8,11.3c2.2,0.6,4.4,1.2,6.7,1.8c4.6-34.3,9.2-68.6,13.8-102.9c0.6-4.8,1.3-9.6,1.9-14.4
				c0.3-1.9-1.8-3.6-3.6-3.6c-23,0-46.1,0-69.1,0c1,1.8,2.1,3.6,3.1,5.4c10.1-17.3,20.1-34.5,30.2-51.8
				c16.1-27.5,32.2-55.1,48.3-82.6c3.7-6.4,7.5-12.8,11.2-19.2c-2.2-0.6-4.4-1.2-6.7-1.8c-3.8,28.3-7.6,56.6-11.3,84.9
				c-0.6,4.1-1.1,8.2-1.7,12.3c-0.3,1.9,1.8,3.6,3.6,3.6c27.2,0,54.3,0,81.5,0c-1-1.8-2.1-3.6-3.1-5.4
				c-9.8,16.3-19.7,32.6-29.5,48.9C1863.6,40.4,1869.8,44,1872.2,40.1L1872.2,40.1z"/>
		</g>
	</g>
</g>
<g>
	<g>
		<path class="st18" d="M2761.6,12.9h-73.2c-5.1,0-9.3,4.2-9.3,9.3v51.7c0,5.1,4.2,9.3,9.3,9.3h73.2c5.1,0,9.3-4.2,9.3-9.3V22.2
			C2770.9,17.1,2766.7,12.9,2761.6,12.9z M2736.8,67.1c0.3,1.2-0.6,2.3-1.8,2.3H2715c-1.2,0-2.1-1.1-1.8-2.3l4.5-18.8
			c-2.8-2.2-4.7-5.6-4.7-9.5c0-7.5,6.8-13.4,14.6-11.8c4.7,1,8.4,4.8,9.2,9.5c0.9,4.8-1.1,9.1-4.5,11.8L2736.8,67.1z"/>
	</g>
</g>
<g>
	<path class="st18" d="M2836.6-138.6L2783-128c-0.6,0.1-1.3-0.1-1.7-0.6l-27.2-30.3c-1-1.1-0.4-2.8,1-3.1l73.9-14.6
		c1-0.2,2,0.5,2.2,1.5l6.9,34.3C2838.2-139.8,2837.6-138.8,2836.6-138.6z"/>
</g>
<g>
	<path class="st18" d="M2602.3-138.6l53.6,10.6c0.6,0.1,1.3-0.1,1.7-0.6l27.2-30.3c1-1.1,0.4-2.8-1-3.1l-73.9-14.6
		c-1-0.2-2,0.5-2.2,1.5l-6.9,34.3C2600.6-139.8,2601.3-138.8,2602.3-138.6z"/>
</g>
<g>
	<g>
		<path class="st18" d="M2809.1-70c-49.5,0-85.9-23.3-85.9-23.3S2686.7-70,2637.2-70h-8.2V40.7c0,83.8,94.1,116.3,94.1,116.3
			s94.1-32.4,94.1-116.3V-70H2809.1z M2804.4,40.7c0,63.9-64.1,95.2-81.3,102.4c-17.2-7.2-81.3-38.5-81.3-102.4v-97.9
			c38.1-1,68.2-14.5,81.3-21.4c13,6.9,43.1,20.3,81.3,21.4V40.7z"/>
	</g>
</g>
<circle class="st19" cx="2626.9" cy="-113.6" r="8.3"/>
<line class="st19" x1="2626.9" y1="-121.9" x2="2626.9" y2="-138.6"/>
<line class="st19" x1="2618.5" y1="-113.6" x2="2547.5" y2="-113.6"/>
<line class="st19" x1="2611.7" y1="-170.5" x2="2635.2" y2="-165.8"/>
<polyline class="st19" points="2675.3,-157.9 2684.3,-156.1 2680.8,-138.9 2661.7,-142.7 "/>
<polygon class="st19" points="2596.8,-144.5 2653.2,-133.3 2683.4,-166.9 2604.4,-182.5 "/>
<circle class="st19" cx="2812" cy="-113.6" r="8.3"/>
<path class="st19" d="M2812-121.9v-16.7V-121.9z"/>
<path class="st19" d="M2820.3-113.6h71H2820.3z"/>
<line class="st19" x1="2827.2" y1="-170.5" x2="2803.7" y2="-165.8"/>
<polygon class="st19" points="2763.6,-157.9 2754.6,-156.1 2758,-138.9 2777.2,-142.7 "/>
<polygon class="st19" points="2842.1,-144.5 2785.6,-133.3 2755.5,-166.9 2834.5,-182.5 "/>
<path class="st19" d="M2791,102.1c63.4-27.6,107.7-90.9,107.7-164.5c0-99-80.3-179.3-179.3-179.3c-99,0-179.3,80.3-179.3,179.3
	c0,73.6,44.3,136.8,107.7,164.5"/>
<path class="st19" d="M2719.4,153.3c0,0,94.1-32.4,94.1-116.3V-73.7h-8.2c-49.5,0-85.9-23.3-85.9-23.3s-36.4,23.3-85.9,23.3h-8.2V37
	C2625.3,120.8,2719.4,153.3,2719.4,153.3z"/>
<path class="st19" d="M2719.4,139.5c-17.2-7.2-81.3-38.5-81.3-102.4v-97.9c38.1-1,68.2-14.5,81.3-21.4c13,6.9,43.1,20.3,81.3,21.4
	V37C2800.7,100.9,2736.7,132.2,2719.4,139.5z"/>
<path class="st19" d="M2756,77.6h-73.2c-5.1,0-9.3-4.2-9.3-9.3V16.6c0-5.1,4.2-9.3,9.3-9.3h73.2c5.1,0,9.3,4.2,9.3,9.3v51.7
	C2765.3,73.5,2761.1,77.6,2756,77.6z"/>
<path class="st19" d="M2731.3,61.5l-4.5-18.8c3.4-2.6,5.4-7,4.5-11.8c-0.9-4.7-4.6-8.5-9.2-9.5c-7.8-1.6-14.6,4.3-14.6,11.8
	c0,3.9,1.9,7.3,4.7,9.5l-4.5,18.8c-0.3,1.2,0.6,2.3,1.8,2.3h20.1C2730.7,63.8,2731.6,62.7,2731.3,61.5z"/>
<path class="st19" d="M2750.5,7.3c0,0,0-23.8,0-23.8c0-17.1-13.9-31-31-31c-17.1,0-31,13.9-31,31V7.3H2750.5z"/>
<path class="st19" d="M3213,102.1c63.4-27.6,107.7-90.9,107.7-164.5c0-99-80.3-179.3-179.3-179.3c-99,0-179.3,80.3-179.3,179.3
	c0,73.6,44.3,136.8,107.7,164.5"/>
<g>
	<path class="st19" d="M3189.8-73.1c15,5.4,32.4,2.1,44.4-9.9c12-12,15.3-29.4,9.9-44.4l-21.3,21.3c-2.7,2.7-7,2.7-9.7,0l-15.9-15.9
		c-2.7-2.7-2.7-7,0-9.7l21.3-21.3c-15-5.4-32.4-2.1-44.4,9.9c-12,12-15.3,29.4-9.9,44.4l-65,65c-15-5.4-32.4-2.1-44.4,9.9
		c-12,12-15.3,29.4-9.9,44.4l21.3-21.3c2.7-2.7,7-2.7,9.7,0l15.9,15.9c2.7,2.7,2.7,7,0,9.7l-21.3,21.3c15,5.4,32.4,2.1,44.4-9.9
		s15.3-29.4,9.9-44.4l19.2-19.2"/>
	<path class="st19" d="M3143.9-27.2L3093-81.8c-8.9-8.9-23.4-8.9-32.4,0c-8.2,8.2-8.9,21.2-1.9,30.2l-17.9,11.2
		c0,0-28.2-42.3,4-74.5c11.2-11.2,22.2-22.2,31.5-31.5c3,0.5,6.3,1.1,9.1,1.5c2.8,0.5,5.2-1.9,4.7-4.7l-1.5-9.1l14.6-14.6l40.7,40.7
		l-14.4,14.4c-4.2-4.2-11.1-4.2-15.4,0c-4.2,4.2-4.2,11.1,0,15.4L3226.9,2.2c0.8,0.7,1.5,1.4,2.2,2.2c6.1,7.1,6.5,17.9,0.8,25.4
		c-7.6,10.1-22.1,10.9-30.7,2.2c-0.3-0.3-0.7-0.7-1-1.1l-36.5-39.2"/>
</g>
<g>
	<path class="st19" d="M3609.9,4.8L3590.7,24c5.4,15,2.1,32.4-9.9,44.4s-29.4,15.3-44.4,9.9l21.3-21.3c2.7-2.7,2.7-7,0-9.7
		l-15.9-15.9c-2.7-2.7-7-2.7-9.7,0l-21.3,21.3c-5.4-15-2.1-32.4,9.9-44.4c12-12,29.4-15.3,44.4-9.9l65-65c-5.4-15-2.1-32.4,9.9-44.4
		s29.4-15.3,44.4-9.9l-21.3,21.3c-2.7,2.7-2.7,7,0,9.7l15.9,15.9c2.7,2.7,7,2.7,9.7,0l21.3-21.3c5.4,15,2.1,32.4-9.9,44.4
		c-12,12-29.4,15.3-44.4,9.9"/>
	<path class="st19" d="M3609.9,4.8L3559-49.8c-8.9-8.9-23.4-8.9-32.4,0c-8.2,8.2-8.9,21.2-1.9,30.2l-17.9,11.2c0,0-28.2-42.3,4-74.5
		c11.2-11.2,22.2-22.2,31.5-31.5c3,0.5,6.3,1.1,9.1,1.5c2.8,0.5,5.2-1.9,4.7-4.7l-1.5-9.1l14.6-14.6l40.7,40.7l-14.4,14.4
		c-4.2-4.2-11.1-4.2-15.4,0c-4.2,4.2-4.2,11.1,0,15.4l112.7,105.1c0.8,0.7,1.5,1.4,2.2,2.2c6.1,7.1,6.5,17.9,0.8,25.4
		c-7.6,10.1-22.1,10.9-30.7,2.2c-0.3-0.3-0.7-0.7-1-1.1l-36.5-39.2l-0.7,81.4c-64.4,25.3-133,9.1-185.1-42.9
		c-70-70-70-183.6,0-253.6s183.6-70,253.6,0c52,52,65.4,128.1,40.1,192.5"/>
</g>
<g>
	<path class="st20" d="M22.9-33.4v-1.3c0-0.5-0.4-0.9-0.9-0.9H10.1l-3.5-3.5h-8.3c-1,0-1.8,0.8-1.8,1.8v21.8l5.5-15
		c0.1-0.4,0.5-0.6,0.9-0.6h21.7c0.6,0,1.1,0.6,0.9,1.2l-5,13.8c-0.1,0.4-0.5,0.6-0.9,0.6H-0.4"/>
</g>
<g>
	<path class="st21" d="M-49.4-20c-5.1-3-8.6-8.6-8.6-15c0-9.6,7.8-17.5,17.5-17.5c7,0,13,4.1,15.8,9.9"/>
	<path class="st21" d="M-24.8-42.5c1.1-0.3,2.3-0.5,3.5-0.5c7,0,12.7,5.7,12.7,12.7s-5.7,12.7-12.7,12.7c-1.7,0-3.4-0.3-4.9-1"/>
	<polyline class="st21" points="-26.1,-18.5 -22.3,-24.9 -32.9,-24.9 -31.2,-37.4 -42.8,-17.6 -33.8,-17.6 -35.9,-2.4 -28.8,-14 	
		"/>
</g>
<g>
	<path class="st22" d="M47.4-27.3c-6.9,0-12.5-5.6-12.5-12.5c0-5,2.9-9.3,7.1-11.3"/>
	<path class="st22" d="M42-51.1c-0.1-0.4-0.1-0.8-0.1-1.2c0-4.5,3.6-8.1,8.1-8.1c1.7,0,3.2,0.5,4.5,1.4"/>
	<path class="st22" d="M54.5-59.1c3-4.6,8.2-7.6,14.1-7.6c9.2,0,16.7,7.4,16.9,16.5"/>
	<path class="st22" d="M85.5-50.2c5.1,1.2,8.9,5.8,8.9,11.3c0,6.4-5.2,11.6-11.6,11.6"/>
	<path class="st22" d="M54.1-27.3c0-5.9,4.7-10.6,10.6-10.6s10.6,4.7,10.6,10.6s-4.7,10.6-10.6,10.6"/>
	<line class="st22" x1="47.4" y1="-27.3" x2="54.1" y2="-27.3"/>
	<path class="st22" d="M56.7-27.3c1.4,0,2.6,1.2,2.6,2.6s-1.2,2.6-2.6,2.6s-2.6-1.2-2.6-2.6"/>
	<line class="st22" x1="54.1" y1="-27.3" x2="54.1" y2="-24.7"/>
	<line class="st22" x1="56.7" y1="-27.3" x2="54.1" y2="-27.3"/>
	<line class="st22" x1="62.7" y1="-16.7" x2="65.1" y2="-13.8"/>
	<line class="st22" x1="62.7" y1="-16.7" x2="65.1" y2="-19.6"/>
</g>
<g>
	<path class="st23" d="M0.4,15.9c-0.2-1.5,0.4-2.3,0.4-2.3c0.7-0.7,2.4-2.4,2.4-2.4l3.9,3.9L5,17.5c0,0,0.8,1.6,2.7,3.5
		s3.5,2.7,3.5,2.7l2.4-2.2l3.9,3.9"/>
	<path class="st23" d="M1.6,8.5c2.2-4.8,7.1-8.2,12.7-8.2c7.7,0,14,6.3,14,14s-6.3,14-14,14c-0.4,0-0.7,0-1.1,0"/>
	<g>
		<line class="st23" x1="21" y1="6.5" x2="16.5" y2="18.8"/>
		<polyline class="st23" points="21.2,13.4 24.7,13.4 22.3,18.8 		"/>
		<g>
			<polyline class="st23" points="15.7,12 15.7,6.5 12.9,10.5 16.6,10.5 			"/>
			<path class="st23" d="M11.6,12H8.3l2.6-2.9c0.3-0.3,0.4-0.6,0.4-1c0-0.8-0.7-1.5-1.5-1.5S8.2,7.2,8.2,8.1"/>
		</g>
	</g>
	<line class="st23" x1="1.6" y1="8.5" x2="0.7" y2="6.4"/>
	<line class="st23" x1="1.6" y1="8.5" x2="3.9" y2="8.1"/>
	<path class="st23" d="M13.2,28.3C6.5,27.8,1.1,22.5,0.4,15.9"/>
</g>
</svg>
