<?xml version="1.0" encoding="utf-8"?>
<!-- Generator: Adobe Illustrator 21.1.0, SVG Export Plug-In . SVG Version: 6.00 Build 0)  -->
<svg version="1.1" id="Layer_1" xmlns="http://www.w3.org/2000/svg" xmlns:xlink="http://www.w3.org/1999/xlink" x="0px" y="0px"
	 viewBox="0 0 33.8 34" style="enable-background:new 0 0 33.8 34;" xml:space="preserve">
<style type="text/css">
	.st0{fill:none;stroke:#662F8F;stroke-width:4;stroke-linecap:round;stroke-linejoin:round;stroke-miterlimit:10;}
	.st1{fill:#662F8F;}
	.st2{fill:none;stroke:#662F8F;stroke-width:2;stroke-linecap:round;stroke-linejoin:round;stroke-miterlimit:10;}
	.st3{fill:none;stroke:#FFFFFF;stroke-width:0.488;stroke-linecap:round;stroke-linejoin:round;stroke-miterlimit:10;}
	.st4{fill:none;stroke:#E73E51;stroke-width:1.6927;}
	.st5{fill:none;stroke:#E73E51;stroke-width:1.1285;stroke-linecap:round;stroke-linejoin:round;stroke-miterlimit:10;}
	.st6{fill:#E73E51;}
	
		.st7{clip-path:url(#SVGID_2_);fill:none;stroke:#E73E51;stroke-width:1.1285;stroke-linecap:round;stroke-linejoin:round;stroke-miterlimit:10;}
	.st8{fill:none;stroke:#EE4050;stroke-width:1.1285;stroke-linecap:round;stroke-linejoin:round;stroke-miterlimit:10;}
	.st9{fill:none;stroke:#FFFFFF;stroke-width:0.574;stroke-linecap:round;stroke-linejoin:round;stroke-miterlimit:10;}
	.st10{fill:none;stroke:#A491C4;stroke-width:0.5657;stroke-miterlimit:10;}
	.st11{fill:none;stroke:#F7F8F9;stroke-width:1.2708;stroke-miterlimit:10;}
	.st12{fill:url(#SVGID_3_);}
	.st13{fill:#9289C1;}
	.st14{fill:#F79F7C;}
	.st15{fill:#EF619B;}
	.st16{fill:#F28BB9;}
	.st17{fill:#FABEA9;}
	.st18{fill:#F37B8A;}
	.st19{fill:none;stroke:#633493;stroke-width:5.1599;stroke-linecap:round;stroke-linejoin:round;stroke-miterlimit:10;}
	.st20{fill:#FFFFFF;}
</style>
<g>
	<path class="st0" d="M-330.4-259.5c9.6-9.6,22.8-15.5,37.3-15.5"/>
	<path class="st0" d="M-316-245.1c5.9-5.9,14-9.5,23-9.5"/>
	<path class="st0" d="M-359.2-288.3c17.7-17.7,41.2-27.4,66.1-27.4c25,0,48.4,9.7,66.1,27.4"/>
	<path class="st0" d="M-241.3-273.9c-13.3-13.3-31.6-21.5-51.7-21.5c-20.2,0-38.5,8.2-51.7,21.5"/>
	<path class="st0" d="M-255.7-259.5c-9.6-9.6-22.8-15.5-37.3-15.5"/>
	<path class="st0" d="M-270.1-245.1c-5.9-5.9-14-9.5-23-9.5"/>
	<path class="st0" d="M-284.5-213.6c-2.2,2.2-5.2,3.5-8.6,3.5c-6.7,0-12.1-5.4-12.1-12.1c0-6.7,5.4-12.1,12.1-12.1
		c3.3,0,6.4,1.4,8.6,3.5"/>
	<path class="st0" d="M-241.3-273.9c4,4,4,10.4,0,14.4c-4,4-10.4,4-14.4,0"/>
	<path class="st0" d="M-316-245.1c-4,4-10.4,4-14.4,0c-4-4-4-10.4,0-14.4"/>
	<path class="st0" d="M-270.1-245.1c4,4,4,10.4,0,14.4s-10.4,4-14.4,0"/>
	<path class="st0" d="M-344.8-273.9c-4,4-10.4,4-14.4,0c-4-4-4-10.4,0-14.4"/>
</g>
<g>
	<path class="st1" d="M-147.3-325.4c-28.7,0-52,23.3-52,52s23.3,52,52,52s52-23.3,52-52S-118.6-325.4-147.3-325.4z M-147.3-225.1
		c-26.6,0-48.3-21.7-48.3-48.3s21.7-48.3,48.3-48.3S-99-300-99-273.4S-120.6-225.1-147.3-225.1z"/>
	<path class="st1" d="M-110.7-279.2c-4.8-4.7-10.4-8.3-16.4-10.7c0-0.3,0.1-0.7,0.1-1c0-11.1-9-20.2-20.2-20.2s-20.2,9-20.2,20.2
		c0,0.6,0,1.1,0.1,1.7c-5.5,2.4-10.5,5.8-14.9,10.1c0,0-0.1,0.1-0.1,0.1c-1.2,1.2-1.8,2.8-1.8,4.5c0,1.7,0.7,3.4,1.9,4.6
		c2.6,2.5,6.7,2.5,9.3,0c0,0,0,0,0,0c3.2-3.1,6.8-5.6,10.8-7.4c2.3,2.5,5.2,4.5,8.5,5.5c-5,1.2-9.6,3.7-13.4,7.4
		c0,0-0.1,0.1-0.1,0.1c-1.3,1.2-1.9,2.9-1.9,4.6c0,1.7,0.7,3.4,1.9,4.6c2.6,2.5,6.7,2.5,9.3,0c0,0,0,0,0,0h0c3-2.9,7-4.5,11.3-4.5
		c4.3,0,8.3,1.6,11.3,4.5c0,0,0,0,0,0c0.8,0.8,1.2,1.8,1.2,2.8c0,1.1-0.4,2.1-1.2,2.8c-1.6,1.6-4.3,1.6-5.9,0c0,0-0.1-0.1-0.1-0.1
		c-1.4-1.3-3.3-2.1-5.3-2.1c-4.2,0-7.6,3.3-7.6,7.5c0,4.1,3.4,7.5,7.6,7.5c2,0,3.9-0.8,5.4-2.2c0.5-0.5,0.5-1.3,0-1.7
		c-0.5-0.5-1.3-0.5-1.7,0c-1,1-2.3,1.5-3.7,1.5c-2.8,0-5.2-2.2-5.2-5c0-2.8,2.3-5,5.2-5c1.4,0,2.7,0.5,3.7,1.5c0,0,0.1,0.1,0.1,0.1
		c2.6,2.4,6.7,2.4,9.2-0.1c1.3-1.2,1.9-2.9,1.9-4.6s-0.7-3.4-1.9-4.6c0,0,0,0,0,0c-3.5-3.4-8.1-5.2-13-5.2c-4.9,0-9.5,1.9-13,5.2
		c0,0,0,0,0,0c-1.6,1.6-4.3,1.6-5.9,0c-0.8-0.8-1.2-1.8-1.2-2.8c0-1,0.4-2,1.1-2.7c0,0,0.1-0.1,0.1-0.1c5-4.9,11.7-7.6,18.8-7.6
		c7.1,0,13.8,2.7,18.8,7.6c0,0,0,0,0,0c2.6,2.5,6.7,2.5,9.3,0c1.3-1.2,1.9-2.9,1.9-4.6c0-1.7-0.7-3.4-1.9-4.6c0,0,0,0,0,0
		c-3.6-3.5-7.7-6.2-12.1-8.1c1.5-2.2,2.5-4.8,3-7.5c5.5,2.3,10.6,5.7,15,9.9c0.5,0.5,1.3,0.5,1.7,0
		C-110.2-278-110.2-278.8-110.7-279.2z M-174.7-271.8C-174.7-271.8-174.7-271.8-174.7-271.8c-1.6,1.6-4.3,1.6-5.9,0
		c-0.8-0.8-1.2-1.8-1.2-2.8c0-1.1,0.4-2.1,1.2-2.8c0,0,0.1-0.1,0.1-0.1c4-3.9,8.5-6.9,13.5-9.2c0.6,2.7,1.7,5.2,3.3,7.4
		C-167.7-277.5-171.4-275-174.7-271.8z M-120-270.1C-120-270.1-120-270.1-120-270.1c0.8,0.8,1.2,1.8,1.2,2.8c0,1.1-0.4,2.1-1.2,2.8
		c-1.6,1.6-4.3,1.6-5.9,0c0,0,0,0,0,0c-4-3.9-9-6.5-14.4-7.7c3.3-1.2,6.1-3.2,8.4-5.8C-127.6-276.1-123.5-273.5-120-270.1z
		 M-147.3-273.3c-9.8,0-17.7-7.9-17.7-17.7c0-9.8,7.9-17.7,17.7-17.7s17.7,7.9,17.7,17.7C-129.6-281.3-137.5-273.3-147.3-273.3z"/>
	<path class="st1" d="M-154.9-292.3h-1.9l0.1-3.7h5.6v-1.5h-7.1l-0.2,6.6h2.9c2.5,0,3.4,1.1,3.4,2.5c0,1.4-1,2.5-2.8,2.5
		c-1.3,0-2.5-0.6-3.4-1.6l-1,1c1.1,1.3,2.6,2,4.4,2c2.4,0,4.5-1.5,4.5-4.2C-150.4-290.6-151.9-292.3-154.9-292.3z"/>
	<path class="st1" d="M-140.9-291.5v1.5h3.9c-0.3,2.5-1.9,4.1-4.5,4.1c-2.8,0-4.9-2.1-4.9-5.1c0-3,2.2-5.1,5-5.1
		c1.6,0,2.9,0.7,3.8,1.7l1.2-1.2c-1.2-1.3-3-2.1-5-2.1c-3.9,0-6.7,2.8-6.7,6.7c0,4.2,3.2,6.7,6.6,6.7c3.9,0,6.3-3,6.3-6.7
		c0-0.1,0-0.3,0-0.4H-140.9z"/>
</g>
<g>
	<line class="st2" x1="-15.4" y1="-239.8" x2="-15.4" y2="-231.1"/>
	<path class="st2" d="M-29.1-231.1c-2.8,0-5.2-2.3-5.2-5.2v-77.8c0-2.8,2.3-5.2,5.2-5.2h69.9c2.8,0,5.2,2.3,5.2,5.2v77.8
		c0,2.8-2.3,5.2-5.2,5.2h-56.2"/>
	<path class="st2" d="M-15.4-239.8h-5c-2.8,0-5.2-2.3-5.2-5.2v-60.4c0-2.8,2.3-5.2,5.2-5.2h10.1c2.8,0,5.2,2.3,5.2,5.2v60.4"/>
	<g>
		<g>
			<circle class="st2" cx="6.6" cy="-289.9" r="3.8"/>
			<circle class="st2" cx="20.5" cy="-289.9" r="3.8"/>
			<circle class="st2" cx="34.4" cy="-289.9" r="3.8"/>
			<circle class="st2" cx="6.6" cy="-276" r="3.8"/>
			<circle class="st2" cx="20.5" cy="-276" r="3.8"/>
			<circle class="st2" cx="34.4" cy="-276" r="3.8"/>
			<circle class="st2" cx="6.6" cy="-262.1" r="3.8"/>
			<circle class="st2" cx="20.5" cy="-262.1" r="3.8"/>
			<circle class="st2" cx="34.4" cy="-262.1" r="3.8"/>
			<circle class="st2" cx="6.6" cy="-248.2" r="3.8"/>
			<circle class="st2" cx="20.5" cy="-248.2" r="3.8"/>
			<circle class="st2" cx="34.4" cy="-248.2" r="3.8"/>
		</g>
		<line class="st2" x1="2.8" y1="-305.9" x2="38.1" y2="-305.9"/>
	</g>
</g>
<g>
	<path class="st3" d="M-98-127.3v-1c0-2.7-2.1-4.9-4.8-5c-2.8-0.1-5.1,2.2-5.1,4.9l0,3.8h10.9c0.7,0,1.3,0.6,1.3,1.3v8.6
		c0,0.7-0.6,1.3-1.3,1.3h-2.7c-0.5,0-1-0.4-1.1-0.9l-0.8-3.2v0c0.6-0.5,0.9-1.2,0.8-2.1c-0.1-1-1-1.7-1.9-1.9
		c-1.3-0.1-2.5,0.9-2.5,2.2c0,0.7,0.3,1.3,0.8,1.7h0c0,0-0.5,2-0.8,3.2c-0.1,0.5-0.6,0.9-1.1,0.9h-2.7c-0.7,0-1.3-0.6-1.3-1.3v-8.6"
		/>
</g>
<g>
	<circle class="st4" cx="20.2" cy="-120" r="23"/>
	<path class="st5" d="M-3-120.1l23.2-0.1 M20.2-120.2v-23.1V-120.2z M31.8-120.2c0,6.4-5.2,11.6-11.6,11.6
		c-6.4,0-11.7-5.2-11.7-11.6c0-6.4,5.2-11.6,11.7-11.6C26.6-131.9,31.8-126.6,31.8-120.2z M37.4-120.2c0,9.5-7.7,17.3-17.3,17.3
		c-9.5,0-17.3-7.7-17.3-17.3c0-9.5,7.7-17.3,17.3-17.3C29.7-137.5,37.4-129.7,37.4-120.2z"/>
	<path class="st6" d="M4.5-125.5c1.2,0,2.2-1,2.2-2.2c0-1.2-1-2.2-2.2-2.2c-1.2,0-2.2,1-2.2,2.2C2.3-126.5,3.3-125.5,4.5-125.5"/>
</g>
<g>
	<circle class="st4" cx="-38.2" cy="-119.6" r="23"/>
	<path class="st5" d="M-27.4-126.9l7.1,7.2 M-27.4-126.9l-7.1,10.3 M-41.5-112.5l7.1-4.2 M-41.5-112.5l-7.1-9.5 M-55.6-117l7.1-4.9"
		/>
	<path class="st6" d="M-50.7-122c0-1.2,1-2.1,2.1-2.1s2.1,1,2.1,2.1c0,1.2-1,2.1-2.1,2.1S-50.7-120.8-50.7-122"/>
	<path class="st6" d="M-43.7-112.5c0-1.2,1-2.1,2.1-2.1c1.2,0,2.1,1,2.1,2.1c0,1.2-1,2.1-2.1,2.1C-42.7-110.3-43.7-111.3-43.7-112.5
		"/>
	<path class="st6" d="M-36.6-116.7c0-1.2,1-2.1,2.1-2.1c1.2,0,2.1,1,2.1,2.1c0,1.2-1,2.1-2.1,2.1C-35.7-114.5-36.6-115.5-36.6-116.7
		"/>
	<path class="st6" d="M-29.6-126.9c0-1.2,1-2.1,2.1-2.1c1.2,0,2.1,1,2.1,2.1c0,1.2-1,2.1-2.1,2.1C-28.6-124.8-29.6-125.8-29.6-126.9
		"/>
	<path class="st6" d="M-22.7-119.9c0-1.2,1-2.1,2.1-2.1c1.2,0,2.1,1,2.1,2.1c0,1.2-1,2.1-2.1,2.1C-21.7-117.7-22.7-118.7-22.7-119.9
		"/>
	<path class="st6" d="M-57.5-117.2c0-1.2,1-2.1,2.1-2.1c1.2,0,2.1,1,2.1,2.1c0,1.2-1,2.1-2.1,2.1C-56.5-115.1-57.5-116.1-57.5-117.2
		"/>
</g>
<g>
	<circle class="st4" cx="70" cy="-160.3" r="23"/>
	<g>
		<defs>
			<path id="SVGID_1_" d="M46.2-160.6c0,12.4,9.6,22.6,21.8,23.5h3.6c11.7-0.9,21.1-10.4,21.8-22.2v-2.7
				c-0.7-12.4-11-22.2-23.6-22.2C56.7-184.1,46.2-173.6,46.2-160.6"/>
		</defs>
		<clipPath id="SVGID_2_">
			<use xlink:href="#SVGID_1_"  style="overflow:visible;"/>
		</clipPath>
		<path class="st7" d="M92.8-129H80.6c-0.5,0-0.9-0.4-0.9-0.9v-5.2c0-0.5,0.4-0.9,0.9-0.9h12.1c0.5,0,0.9,0.4,0.9,0.9v5.2
			C93.7-129.4,93.3-129,92.8-129z M78.8-129H66.6c-0.5,0-0.9-0.4-0.9-0.9v-5.2c0-0.5,0.4-0.9,0.9-0.9h12.1c0.5,0,0.9,0.4,0.9,0.9
			v5.2C79.7-129.4,79.3-129,78.8-129z M64.9-129H52.7c-0.5,0-0.9-0.4-0.9-0.9v-5.2c0-0.5,0.4-0.9,0.9-0.9h12.1
			c0.5,0,0.9,0.4,0.9,0.9v5.2C65.8-129.4,65.4-129,64.9-129z M50.9-129H38.7c-0.5,0-0.9-0.4-0.9-0.9v-5.2c0-0.5,0.4-0.9,0.9-0.9
			h12.1c0.5,0,0.9,0.4,0.9,0.9v5.2C51.8-129.4,51.4-129,50.9-129z M100-136.1H87.9c-0.5,0-0.9-0.4-0.9-0.9v-5.2
			c0-0.5,0.4-0.9,0.9-0.9H100c0.5,0,0.9,0.4,0.9,0.9v5.2C100.9-136.5,100.5-136.1,100-136.1z M86-136.1H73.9c-0.5,0-0.9-0.4-0.9-0.9
			v-5.2c0-0.5,0.4-0.9,0.9-0.9H86c0.5,0,0.9,0.4,0.9,0.9v5.2C87-136.5,86.5-136.1,86-136.1z M72.1-136.1H60c-0.5,0-0.9-0.4-0.9-0.9
			v-5.2c0-0.5,0.4-0.9,0.9-0.9h12.1c0.5,0,0.9,0.4,0.9,0.9v5.2C73.1-136.5,72.6-136.1,72.1-136.1z M58.1-136.1H46
			c-0.5,0-0.9-0.4-0.9-0.9v-5.2c0-0.5,0.4-0.9,0.9-0.9h12.1c0.5,0,0.9,0.4,0.9,0.9v5.2C59.1-136.5,58.6-136.1,58.1-136.1z
			 M92.8-143.2H80.6c-0.5,0-0.9-0.4-0.9-0.9v-5.2c0-0.5,0.4-0.9,0.9-0.9h12.1c0.5,0,0.9,0.4,0.9,0.9v5.2
			C93.7-143.6,93.3-143.2,92.8-143.2z M78.8-143.2H66.6c-0.5,0-0.9-0.4-0.9-0.9v-5.2c0-0.5,0.4-0.9,0.9-0.9h12.1
			c0.5,0,0.9,0.4,0.9,0.9v5.2C79.7-143.6,79.3-143.2,78.8-143.2z M64.9-143.2H52.7c-0.5,0-0.9-0.4-0.9-0.9v-5.2
			c0-0.5,0.4-0.9,0.9-0.9h12.1c0.5,0,0.9,0.4,0.9,0.9v5.2C65.8-143.6,65.4-143.2,64.9-143.2z M50.9-143.2H38.7
			c-0.5,0-0.9-0.4-0.9-0.9v-5.2c0-0.5,0.4-0.9,0.9-0.9h12.1c0.5,0,0.9,0.4,0.9,0.9v5.2C51.8-143.6,51.4-143.2,50.9-143.2z
			 M100-150.2H87.9c-0.5,0-0.9-0.4-0.9-0.9v-5.2c0-0.5,0.4-0.9,0.9-0.9H100c0.5,0,0.9,0.4,0.9,0.9v5.2
			C100.9-150.7,100.5-150.2,100-150.2z M86-150.2H73.9c-0.5,0-0.9-0.4-0.9-0.9v-5.2c0-0.5,0.4-0.9,0.9-0.9H86c0.5,0,0.9,0.4,0.9,0.9
			v5.2C87-150.7,86.5-150.2,86-150.2z M72.1-150.2H60c-0.5,0-0.9-0.4-0.9-0.9v-5.2c0-0.5,0.4-0.9,0.9-0.9h12.1
			c0.5,0,0.9,0.4,0.9,0.9v5.2C73.1-150.7,72.6-150.2,72.1-150.2z M58.1-150.2H46c-0.5,0-0.9-0.4-0.9-0.9v-5.2c0-0.5,0.4-0.9,0.9-0.9
			h12.1c0.5,0,0.9,0.4,0.9,0.9v5.2C59.1-150.7,58.6-150.2,58.1-150.2z M92.8-157.4H80.6c-0.5,0-0.9-0.4-0.9-0.9v-5.2
			c0-0.5,0.4-0.9,0.9-0.9h12.1c0.5,0,0.9,0.4,0.9,0.9v5.2C93.7-157.8,93.3-157.4,92.8-157.4z M78.8-157.4H66.6
			c-0.5,0-0.9-0.4-0.9-0.9v-5.2c0-0.5,0.4-0.9,0.9-0.9h12.1c0.5,0,0.9,0.4,0.9,0.9v5.2C79.7-157.8,79.3-157.4,78.8-157.4z
			 M64.9-157.4H52.7c-0.5,0-0.9-0.4-0.9-0.9v-5.2c0-0.5,0.4-0.9,0.9-0.9h12.1c0.5,0,0.9,0.4,0.9,0.9v5.2
			C65.8-157.8,65.4-157.4,64.9-157.4z M50.9-157.4H38.7c-0.5,0-0.9-0.4-0.9-0.9v-5.2c0-0.5,0.4-0.9,0.9-0.9h12.1
			c0.5,0,0.9,0.4,0.9,0.9v5.2C51.8-157.8,51.4-157.4,50.9-157.4z"/>
	</g>
</g>
<circle class="st4" cx="131.8" cy="-134.9" r="23"/>
<path class="st8" d="M131.9-125.7c-1.2-0.5-5.6-2.7-5.6-7.1v-6.8c2.6-0.1,4.7-1,5.6-1.5c0.9,0.5,3,1.4,5.6,1.5v6.8
	C137.6-128.4,133.1-126.2,131.9-125.7z"/>
<path class="st8" d="M134.4-130.8h-4.8v-3.5h4.8V-130.8z M130.4-134.3v-1.4c0-0.8,0.7-1.5,1.5-1.5c0.8,0,1.5,0.7,1.5,1.5v1.4"/>
<path class="st8" d="M145.6-141.8l0-1.4c0-0.5-0.4-0.9-0.9-0.9l-12.3,0.1l-3.6-3.6l-8.6,0c-1,0-1.9,0.9-1.9,1.9l0.1,22.7h27.2
	V-141.8z"/>
<g>
	<circle class="st4" cx="198.1" cy="-130.5" r="23"/>
	<path class="st8" d="M208.5-121.7c0,1.8-1.5,3.3-3.3,3.3s-3.3-1.5-3.3-3.3c0-1.8,1.5-3.3,3.3-3.3S208.5-123.5,208.5-121.7z
		 M204.4-122.6l0.8,2l1.5-3.9 M189.3-125.6h9.1 M189.3-128.4H204 M189.3-131.3H204 M189.3-134.1H204 M189.3-136.9h9.9 M189.3-139.8
		h9.9 M203.9-145.4h6.9v29.8h-25.2v-29.8H203.9z"/>
</g>
<circle class="st4" cx="260.8" cy="-126" r="23"/>
<path class="st8" d="M260.6-120.9v1.1 M260.6-131.6v7.2 M260.6-140.2L246.7-116h27.9L260.6-140.2z"/>
<circle class="st4" cx="334.4" cy="-125.8" r="23"/>
<path class="st8" d="M334.4-108.3c-2.4-1-11.4-5.4-11.4-14.4v-13.7c5.3-0.1,9.6-2,11.4-3c1.8,1,6,2.8,11.4,3v13.7
	C345.8-113.7,336.8-109.4,334.4-108.3z"/>
<path class="st8" d="M339.3-118.7h-9.8v-7.1h9.8V-118.7z M331.3-125.8v-2.8c0-1.6,1.3-3,3-3c1.6,0,3,1.3,3,3v2.8"/>
<g>
	<path class="st0" d="M460.2-147.8v-5.9c0-16.5-12.9-30.4-29.4-30.8c-17.1-0.5-31.1,13.2-31.1,30.2l0,23.2H467
		c4.2,0,7.7,3.5,7.7,7.7v53.1c0,4.2-3.5,7.7-7.7,7.7c0,0-10.2,0-16.8,0c-3.3,0-6.2-2.3-7-5.5l-4.8-19.9l0,0c3.6-2.9,5.8-7.6,5-12.7
		c-0.9-6-5.8-10.7-11.8-11.4c-8.2-0.9-15.1,5.5-15.1,13.5c0,4.3,2,8.2,5.2,10.6l0,0c0,0-3,12.4-4.8,19.9c-0.8,3.2-3.7,5.5-7,5.5H393
		c-4.2,0-7.7-3.5-7.7-7.7v-53.1"/>
</g>
<g>
	<path class="st9" d="M335.8-58.7c1.7,0.6,3.7,0.2,5-1.1c1.4-1.4,1.7-3.3,1.1-5l-2.4,2.4c-0.3,0.3-0.8,0.3-1.1,0l-1.8-1.8
		c-0.3-0.3-0.3-0.8,0-1.1l2.4-2.4c-1.7-0.6-3.7-0.2-5,1.1c-1.4,1.4-1.7,3.3-1.1,5l-7.4,7.4c-1.7-0.6-3.7-0.2-5,1.1
		c-1.4,1.4-1.7,3.3-1.1,5l2.4-2.4c0.3-0.3,0.8-0.3,1.1,0l1.8,1.8c0.3,0.3,0.3,0.8,0,1.1l-2.4,2.4c1.7,0.6,3.7,0.2,5-1.1
		c1.4-1.4,1.7-3.3,1.1-5l2.2-2.2"/>
	<path class="st9" d="M330.6-53.5l-5.8-6.2c-1-1-2.7-1-3.7,0c-0.9,0.9-1,2.4-0.2,3.4l-2,1.3c0,0-3.2-4.8,0.5-8.5
		c1.3-1.3,2.5-2.5,3.6-3.6c0.3,0.1,0.7,0.1,1,0.2c0.3,0.1,0.6-0.2,0.5-0.5l-0.2-1l1.7-1.7l4.6,4.6l-1.6,1.6c-0.5-0.5-1.3-0.5-1.7,0
		c-0.5,0.5-0.5,1.3,0,1.7l12.8,11.9c0.1,0.1,0.2,0.2,0.2,0.2c0.7,0.8,0.7,2,0.1,2.9c-0.9,1.1-2.5,1.2-3.5,0.3c0,0-0.1-0.1-0.1-0.1
		l-4.2-4.4"/>
</g>
<g>
	<path class="st10" d="M651.5,259.4c-16.8,29.7-59.2,67.7-114.4,99.6c-81.9,47.3-161,63.4-176.8,36c-7.4-12.7,0.3-32.6,18.8-55"/>
	<path class="st10" d="M598.3,212.8c29.3-5.1,50.9-1.9,58.3,11c2.6,4.5,3.3,10,2.3,16.1"/>
	<circle class="st10" cx="656.1" cy="250" r="10.5"/>
	<circle class="st10" cx="504.7" cy="281.5" r="132"/>
</g>
<image style="overflow:visible;" width="1600" height="700" xlink:href="../Dropbox (Muuaaa)/Muuaaa Team Folder/Graphic Design_Gabriel/Neptuno/02 Design/images/slide-22.jpg"  transform="matrix(0.4158 0 0 0.4158 214.5625 -233.1077)">
</image>
<image style="overflow:visible;" width="1078" height="516" xlink:href="datacenter-google-1078x516.jpg"  transform="matrix(1 0 0 1 340.8877 -874.0791)">
</image>
<g>
	<g>
		<g>
			<path class="st11" d="M1235.1,228.3c7.8-13.2,12.3-28.7,12.3-45.2c0-49.1-39.8-88.9-88.9-88.9c-49.1,0-88.9,39.8-88.9,88.9
				c0,16,4.2,30.9,11.6,43.9"/>
			<path class="st11" d="M1091.5,241.3c16.3,18.8,40.3,30.7,67.2,30.7c26.8,0,50.9-11.9,67.2-30.7"/>
			<rect x="1086" y="238" class="st11" width="45.9" height="3.2"/>
			<g>
				<rect x="1081.3" y="222.9" class="st11" width="55.3" height="15.1"/>
				<line class="st11" x1="1085.9" y1="227.2" x2="1085.9" y2="233.8"/>
				<line class="st11" x1="1089.4" y1="227.2" x2="1089.4" y2="233.8"/>
				<line class="st11" x1="1092.8" y1="227.2" x2="1092.8" y2="233.8"/>
				<line class="st11" x1="1096.3" y1="227.2" x2="1096.3" y2="233.8"/>
				<line class="st11" x1="1099.8" y1="227.2" x2="1099.8" y2="233.8"/>
				<line class="st11" x1="1103.3" y1="227.2" x2="1103.3" y2="233.8"/>
				<circle class="st11" cx="1130" cy="230.5" r="2.3"/>
				<circle class="st11" cx="1122" cy="230.5" r="2.3"/>
				<circle class="st11" cx="1113.9" cy="230.5" r="2.3"/>
			</g>
			<path class="st11" d="M1091.1,222.9v-19.6c0-1.2,1-2.2,2.2-2.2l0,0c1.2,0,2.2,1,2.2,2.2v19.6"/>
			<path class="st11" d="M1085.2,191c2.1-2.1,5-3.4,8.1-3.4"/>
			<path class="st11" d="M1087.4,194.2c1.5-1.5,3.6-2.4,5.9-2.4"/>
			<path class="st11" d="M1089.7,197.3c0.9-0.9,2.2-1.5,3.6-1.5"/>
			<path class="st11" d="M1101.5,191c-2.1-2.1-5-3.4-8.1-3.4"/>
			<path class="st11" d="M1099.2,194.2c-1.5-1.5-3.6-2.4-5.9-2.4"/>
			<path class="st11" d="M1097,197.3c-0.9-0.9-2.2-1.5-3.6-1.5"/>
			<path class="st11" d="M1122.4,222.9v-19.6c0-1.2,1-2.2,2.2-2.2h0c1.2,0,2.2,1,2.2,2.2v19.6"/>
			<path class="st11" d="M1116.5,191c2.1-2.1,5-3.4,8.1-3.4"/>
			<path class="st11" d="M1118.7,194.2c1.5-1.5,3.6-2.4,5.9-2.4"/>
			<path class="st11" d="M1121,197.3c0.9-0.9,2.2-1.5,3.6-1.5"/>
			<path class="st11" d="M1132.8,191c-2.1-2.1-5-3.4-8.1-3.4"/>
			<path class="st11" d="M1130.5,194.2c-1.5-1.5-3.6-2.4-5.9-2.4"/>
			<path class="st11" d="M1128.3,197.3c-0.9-0.9-2.2-1.5-3.6-1.5"/>
			<rect x="1143" y="132.3" class="st11" width="42.5" height="105.8"/>
			<rect x="1148.5" y="137.8" class="st11" width="31.4" height="8.2"/>
			<rect x="1148.5" y="146" class="st11" width="31.4" height="8.2"/>
			<rect x="1148.5" y="154.1" class="st11" width="31.4" height="8.2"/>
			<rect x="1148.5" y="162.3" class="st11" width="31.4" height="8.2"/>
			<rect x="1148.5" y="170.4" class="st11" width="31.4" height="8.2"/>
			<rect x="1148.5" y="178.6" class="st11" width="31.4" height="8.2"/>
			<rect x="1148.5" y="204.9" class="st11" width="31.4" height="23.2"/>
			<circle class="st11" cx="1163.9" cy="216.5" r="2.8"/>
			<g>
				<rect x="1148.5" y="193.8" class="st11" width="18.6" height="4.1"/>
				<rect x="1175.8" y="193.8" class="st11" width="4.1" height="4.1"/>
			</g>
			<line class="st11" x1="1161.1" y1="216.5" x2="1148.5" y2="216.5"/>
			<line class="st11" x1="1166.8" y1="216.5" x2="1179.4" y2="216.5"/>
			<rect x="1143" y="238" class="st11" width="42.5" height="3.2"/>
			<circle class="st11" cx="1214.7" cy="210.5" r="11.7"/>
			<circle class="st11" cx="1214.7" cy="210.5" r="6.4"/>
			<circle class="st11" cx="1214.7" cy="210.5" r="2.6"/>
			<line class="st11" x1="1214.7" y1="222.2" x2="1214.7" y2="228.3"/>
			<g>
				<rect x="1191.8" y="228.3" class="st11" width="44.1" height="9.8"/>
				<line class="st11" x1="1225.2" y1="233.2" x2="1202.5" y2="233.2"/>
			</g>
			<rect x="1195.5" y="238" class="st11" width="36.7" height="3.2"/>
		</g>
	</g>
</g>
<g>
	<linearGradient id="SVGID_3_" gradientUnits="userSpaceOnUse" x1="1296.6066" y1="61.4942" x2="1418.8444" y2="61.4942">
		<stop  offset="0" style="stop-color:#C558A0"/>
		<stop  offset="0.5945" style="stop-color:#7F3E93"/>
		<stop  offset="1" style="stop-color:#532E8B"/>
	</linearGradient>
	<path class="st12" d="M1387.6,39.3l31.3,17.6l-61.4,34.6l-60.9-34.6l30.8-17.5C1346.1,28.9,1368.9,28.8,1387.6,39.3z"/>
	<path class="st13" d="M1296.6,56.9v3.6l59.9,34.7c0.4,0.2,0.8,0.2,1.1,0l61.2-34.7v-3.7l-61.4,34.6L1296.6,56.9z"/>
	<path class="st14" d="M1382.4,8.7l36.4,20.5l-61.4,34.6l-60.9-34.6l36-20.4C1348,0,1366.9,0,1382.4,8.7z"/>
	<path class="st15" d="M1384.1-16.3l34.8,19.6l-61.4,34.6l-60.9-34.6l34.3-19.5C1347.4-25.5,1367.6-25.6,1384.1-16.3z"/>
	<path class="st16" d="M1296.6,3.3l0.1,3.6l59.7,34.7c0.4,0.2,0.8,0.2,1.2,0l61.2-34.7V3.3l-61.4,34.6L1296.6,3.3z"/>
	<path class="st17" d="M1296.6,29.2l0.1,3.6l59.7,34.7c0.4,0.2,0.9,0.2,1.3,0l61.1-34.7v-3.6l-61.4,34.6L1296.6,29.2z"/>
</g>
<g>
	<g>
		<path class="st18" d="M1838-35.1l-76.2,129.5c-1.5,2.5,0.3,5.7,3.3,5.7h61.4c0.7,0,1.3,0.6,1.2,1.4l-13.6,101.2
			c-0.4,3.3,4,4.9,5.7,2l94.1-155.8c1.4-2.3-0.3-5.2-2.9-5.2h-74.4c-0.7,0-1.3-0.6-1.2-1.3l8-75.7
			C1843.7-36.4,1839.6-37.7,1838-35.1z"/>
	</g>
	<g>
		<g>
			<path class="st1" d="M1698.5,68.3c-28.5-17-50.1-44.3-59.4-76.2c-9.1-31-6.3-65.2,7.9-94.2c28.1-57.4,95.2-86.9,156.5-68.2
				c35.2,10.7,64.3,36.3,80.3,69.4c2,4.1,8.2,0.5,6.2-3.6c-14.9-30.8-40.8-55.3-72.4-68.3c-31.7-13-68.2-13.7-100.3-1.8
				c-29.8,11.1-55.3,32.3-71.4,59.7c-17.1,29-22.9,63.8-16.6,96.8c7.4,38.7,31.9,72.6,65.7,92.7
				C1698.9,76.8,1702.5,70.6,1698.5,68.3L1698.5,68.3z"/>
		</g>
	</g>
	<g>
		<g>
			<path class="st1" d="M1887.8-99.4c47.3-13.1,98.5,12.1,115.3,58.7c15.6,43.4-2.9,92.9-43.1,115.3c-25.3,14.1-55.7,15.3-82.5,4.6
				c-4.3-1.7-6.1,5.2-1.9,6.9c49.2,19.8,107.2-2.1,130.2-50.1c21.5-44.9,6.9-99.8-33.9-128.2c-25-17.4-56.8-22.2-86-14.1
				C1881.5-105.1,1883.3-98.2,1887.8-99.4L1887.8-99.4z"/>
		</g>
	</g>
	<g>
		<g>
			<path class="st1" d="M1879.6,84.4c9.8-16.3,19.7-32.6,29.5-48.9c1.4-2.3-0.4-5.4-3.1-5.4c-27.2,0-54.3,0-81.5,0
				c1.2,1.2,2.4,2.4,3.6,3.6c3.8-28.3,7.6-56.6,11.3-84.9c0.6-4.1,1.1-8.2,1.7-12.3c0.5-3.7-5-4.6-6.7-1.8
				c-10.1,17.3-20.1,34.5-30.2,51.8c-16.1,27.5-32.2,55.1-48.3,82.6c-3.7,6.4-7.5,12.8-11.2,19.2c-1.4,2.3,0.4,5.4,3.1,5.4
				c23,0,46.1,0,69.1,0c-1.2-1.2-2.4-2.4-3.6-3.6c-4.6,34.3-9.2,68.6-13.8,102.9c-0.6,4.8-1.3,9.6-1.9,14.4c-0.5,3.7,5,4.6,6.7,1.8
				c15.8-26.3,31.7-52.5,47.5-78.8c2.3-3.8,4.5-7.5,6.8-11.3c2.4-4-3.8-7.6-6.2-3.6c-15.8,26.3-31.7,52.5-47.5,78.8
				c-2.3,3.8-4.5,7.5-6.8,11.3c2.2,0.6,4.4,1.2,6.7,1.8c4.6-34.3,9.2-68.6,13.8-102.9c0.6-4.8,1.3-9.6,1.9-14.4
				c0.3-1.9-1.8-3.6-3.6-3.6c-23,0-46.1,0-69.1,0c1,1.8,2.1,3.6,3.1,5.4c10.1-17.3,20.1-34.5,30.2-51.8
				c16.1-27.5,32.2-55.1,48.3-82.6c3.7-6.4,7.5-12.8,11.2-19.2c-2.2-0.6-4.4-1.2-6.7-1.8c-3.8,28.3-7.6,56.6-11.3,84.9
				c-0.6,4.1-1.1,8.2-1.7,12.3c-0.3,1.9,1.8,3.6,3.6,3.6c27.2,0,54.3,0,81.5,0c-1-1.8-2.1-3.6-3.1-5.4
				c-9.8,16.3-19.7,32.6-29.5,48.9C1871.1,84.7,1877.2,88.3,1879.6,84.4L1879.6,84.4z"/>
		</g>
	</g>
</g>
<g>
	<g>
		<path class="st18" d="M2769,57.2h-73.2c-5.1,0-9.3,4.2-9.3,9.3v51.7c0,5.1,4.2,9.3,9.3,9.3h73.2c5.1,0,9.3-4.2,9.3-9.3V66.5
			C2778.3,61.4,2774.1,57.2,2769,57.2z M2744.3,111.4c0.3,1.2-0.6,2.3-1.8,2.3h-20.1c-1.2,0-2.1-1.1-1.8-2.3l4.5-18.8
			c-2.8-2.2-4.7-5.6-4.7-9.5c0-7.5,6.8-13.4,14.6-11.8c4.7,1,8.4,4.8,9.2,9.5c0.9,4.8-1.1,9.1-4.5,11.8L2744.3,111.4z"/>
	</g>
</g>
<g>
	<path class="st18" d="M2844-94.3l-53.6,10.6c-0.6,0.1-1.3-0.1-1.7-0.6l-27.2-30.3c-1-1.1-0.4-2.8,1-3.1l73.9-14.6
		c1-0.2,2,0.5,2.2,1.5l6.9,34.3C2845.7-95.5,2845-94.5,2844-94.3z"/>
</g>
<g>
	<path class="st18" d="M2609.7-94.3l53.6,10.6c0.6,0.1,1.3-0.1,1.7-0.6l27.2-30.3c1-1.1,0.4-2.8-1-3.1l-73.9-14.6
		c-1-0.2-2,0.5-2.2,1.5l-6.9,34.3C2608.1-95.5,2608.7-94.5,2609.7-94.3z"/>
</g>
<g>
	<g>
		<path class="st18" d="M2816.5-25.7c-49.5,0-85.9-23.3-85.9-23.3s-36.4,23.3-85.9,23.3h-8.2V85c0,83.8,94.1,116.3,94.1,116.3
			s94.1-32.4,94.1-116.3V-25.7H2816.5z M2811.8,85c0,63.9-64.1,95.2-81.3,102.4c-17.2-7.2-81.3-38.5-81.3-102.4v-97.9
			c38.1-1,68.2-14.5,81.3-21.4c13,6.9,43.1,20.3,81.3,21.4V85z"/>
	</g>
</g>
<circle class="st19" cx="2634.3" cy="-69.3" r="8.3"/>
<line class="st19" x1="2634.3" y1="-77.6" x2="2634.3" y2="-94.3"/>
<line class="st19" x1="2626" y1="-69.3" x2="2555" y2="-69.3"/>
<line class="st19" x1="2619.1" y1="-126.2" x2="2642.6" y2="-121.6"/>
<polyline class="st19" points="2682.8,-113.6 2691.7,-111.9 2688.3,-94.6 2669.1,-98.4 "/>
<polygon class="st19" points="2604.2,-100.2 2660.7,-89.1 2690.8,-122.6 2611.8,-138.2 "/>
<circle class="st19" cx="2819.4" cy="-69.3" r="8.3"/>
<path class="st19" d="M2819.4-77.6v-16.7V-77.6z"/>
<path class="st19" d="M2827.8-69.3h71H2827.8z"/>
<line class="st19" x1="2834.6" y1="-126.2" x2="2811.1" y2="-121.6"/>
<polygon class="st19" points="2771,-113.6 2762,-111.9 2765.5,-94.6 2784.7,-98.4 "/>
<polygon class="st19" points="2849.6,-100.2 2793.1,-89.1 2762.9,-122.6 2841.9,-138.2 "/>
<path class="st19" d="M2798.4,146.3c63.4-27.6,107.7-90.9,107.7-164.5c0-99-80.3-179.3-179.3-179.3s-179.3,80.3-179.3,179.3
	c0,73.6,44.3,136.8,107.7,164.5"/>
<path class="st19" d="M2726.9,197.5c0,0,94.1-32.4,94.1-116.3V-29.4h-8.2c-49.5,0-85.9-23.3-85.9-23.3s-36.4,23.3-85.9,23.3h-8.2
	V81.3C2632.8,165.1,2726.9,197.5,2726.9,197.5z"/>
<path class="st19" d="M2726.9,183.7c-17.2-7.2-81.3-38.5-81.3-102.4v-97.9c38.1-1,68.2-14.5,81.3-21.4c13,6.9,43.1,20.3,81.3,21.4
	v97.9C2808.1,145.2,2744.1,176.5,2726.9,183.7z"/>
<path class="st19" d="M2763.5,121.9h-73.2c-5.1,0-9.3-4.2-9.3-9.3V60.9c0-5.1,4.2-9.3,9.3-9.3h73.2c5.1,0,9.3,4.2,9.3,9.3v51.7
	C2772.7,117.7,2768.6,121.9,2763.5,121.9z"/>
<path class="st19" d="M2738.7,105.8l-4.5-18.8c3.4-2.6,5.4-7,4.5-11.8c-0.9-4.7-4.6-8.5-9.2-9.5c-7.8-1.6-14.6,4.3-14.6,11.8
	c0,3.9,1.9,7.3,4.7,9.5l-4.5,18.8c-0.3,1.2,0.6,2.3,1.8,2.3h20.1C2738.1,108.1,2739,106.9,2738.7,105.8z"/>
<path class="st19" d="M2757.9,51.6c0,0,0-23.8,0-23.8c0-17.1-13.9-31-31-31c-17.1,0-31,13.9-31,31v23.8H2757.9z"/>
<path class="st19" d="M3220.4,146.3c63.4-27.6,107.7-90.9,107.7-164.5c0-99-80.3-179.3-179.3-179.3s-179.3,80.3-179.3,179.3
	c0,73.6,44.3,136.8,107.7,164.5"/>
<g>
	<path class="st19" d="M3197.2-28.8c15,5.4,32.4,2.1,44.4-9.9s15.3-29.4,9.9-44.4l-21.3,21.3c-2.7,2.7-7,2.7-9.7,0l-15.9-15.9
		c-2.7-2.7-2.7-7,0-9.7l21.3-21.3c-15-5.4-32.4-2.1-44.4,9.9s-15.3,29.4-9.9,44.4l-65,65c-15-5.4-32.4-2.1-44.4,9.9
		S3047,50,3052.4,65l21.3-21.3c2.7-2.7,7-2.7,9.7,0l15.9,15.9c2.7,2.7,2.7,7,0,9.7l-21.3,21.3c15,5.4,32.4,2.1,44.4-9.9
		s15.3-29.4,9.9-44.4l19.2-19.2"/>
	<path class="st19" d="M3151.4,17l-50.9-54.6c-8.9-8.9-23.4-8.9-32.4,0c-8.2,8.2-8.9,21.2-1.9,30.2l-17.9,11.2c0,0-28.2-42.3,4-74.5
		c11.2-11.2,22.2-22.2,31.5-31.5c3,0.5,6.3,1.1,9.1,1.5c2.8,0.5,5.2-1.9,4.7-4.7l-1.5-9.1l14.6-14.6l40.7,40.7L3137-74
		c-4.2-4.2-11.1-4.2-15.4,0c-4.2,4.2-4.2,11.1,0,15.4l112.7,105.1c0.8,0.7,1.5,1.4,2.2,2.2c6.1,7.1,6.5,17.9,0.8,25.4
		c-7.6,10.1-22.1,10.9-30.7,2.2c-0.3-0.3-0.7-0.7-1-1.1L3169.1,36"/>
</g>
<g>
	<path class="st19" d="M3617.4,49.1l-19.2,19.2c5.4,15,2.1,32.4-9.9,44.4s-29.4,15.3-44.4,9.9l21.3-21.3c2.7-2.7,2.7-7,0-9.7
		l-15.9-15.9c-2.7-2.7-7-2.7-9.7,0L3518.4,97c-5.4-15-2.1-32.4,9.9-44.4s29.4-15.3,44.4-9.9l65-65c-5.4-15-2.1-32.4,9.9-44.4
		s29.4-15.3,44.4-9.9l-21.3,21.3c-2.7,2.7-2.7,7,0,9.7l15.9,15.9c2.7,2.7,7,2.7,9.7,0l21.3-21.3c5.4,15,2.1,32.4-9.9,44.4
		s-29.4,15.3-44.4,9.9"/>
	<path class="st19" d="M3617.4,49l-50.9-54.6c-8.9-8.9-23.4-8.9-32.4,0c-8.2,8.2-8.9,21.2-1.9,30.2l-17.9,11.2c0,0-28.2-42.3,4-74.5
		c11.2-11.2,22.2-22.2,31.5-31.5c3,0.5,6.3,1.1,9.1,1.5c2.8,0.5,5.2-1.9,4.7-4.7l-1.5-9.1l14.6-14.6l40.7,40.7L3603-42
		c-4.2-4.2-11.1-4.2-15.4,0s-4.2,11.1,0,15.4l112.7,105.1c0.8,0.7,1.5,1.4,2.2,2.2c6.1,7.1,6.5,17.9,0.8,25.4
		c-7.6,10.1-22.1,10.9-30.7,2.2c-0.3-0.3-0.7-0.7-1-1.1L3635.1,68l-0.7,81.4c-64.4,25.3-133,9.1-185.1-42.9c-70-70-70-183.6,0-253.6
		c70-70,183.6-70,253.6,0c52,52,65.4,128.1,40.1,192.5"/>
</g>
<g>
	<path class="st20" d="M33.6,14.6c-2.2-2.1-4.8-3.8-7.5-4.9c0-0.2,0-0.3,0-0.5C26.1,4.1,22,0,16.9,0S7.7,4.1,7.7,9.2
		c0,0.3,0,0.5,0,0.8c-2.5,1.1-4.8,2.6-6.8,4.6c0,0,0,0,0,0.1c-0.5,0.6-0.8,1.3-0.8,2c0,0.8,0.3,1.5,0.9,2.1C2.1,20,4,20,5.2,18.8
		c0,0,0,0,0,0c1.5-1.4,3.1-2.5,5-3.4c1.1,1.2,2.4,2,3.9,2.5c-2.3,0.6-4.4,1.7-6.1,3.4c0,0,0,0,0,0C7.3,22,7,22.7,7,23.5
		c0,0.8,0.3,1.5,0.9,2.1c1.2,1.1,3.1,1.1,4.3,0c0,0,0,0,0,0c1.4-1.3,3.2-2.1,5.2-2.1c1.9,0,3.8,0.7,5.2,2.1c0,0,0,0,0,0
		c0.4,0.3,0.6,0.8,0.6,1.3c0,0.5-0.2,0.9-0.6,1.3c-0.7,0.7-1.9,0.7-2.7,0c0,0,0,0-0.1,0c-0.7-0.6-1.5-0.9-2.4-0.9
		c-1.9,0-3.5,1.5-3.5,3.4c0,1.9,1.6,3.4,3.5,3.4c0.9,0,1.8-0.4,2.5-1c0.2-0.2,0.2-0.6,0-0.8c-0.2-0.2-0.6-0.2-0.8,0
		c-0.4,0.4-1,0.7-1.7,0.7c-1.3,0-2.4-1-2.4-2.3c0-1.3,1.1-2.3,2.4-2.3c0.6,0,1.2,0.2,1.7,0.7c0,0,0,0,0.1,0c1.2,1.1,3.1,1.1,4.2,0
		c0.6-0.6,0.9-1.3,0.9-2.1c0-0.8-0.3-1.5-0.9-2.1l0,0c-1.6-1.5-3.7-2.4-5.9-2.4c-2.2,0-4.4,0.9-5.9,2.4c-0.7,0.7-2,0.7-2.7,0
		c-0.4-0.3-0.6-0.8-0.6-1.3c0-0.5,0.2-0.9,0.5-1.3c0,0,0,0,0,0c2.3-2.3,5.4-3.5,8.6-3.5s6.3,1.2,8.6,3.5c1.2,1.1,3.1,1.2,4.3,0
		c0.6-0.6,0.9-1.3,0.9-2.1s-0.3-1.5-0.9-2.1c0,0,0,0,0,0c-1.6-1.6-3.5-2.8-5.6-3.7c0.7-1,1.1-2.2,1.4-3.4c2.5,1.1,4.9,2.6,6.9,4.5
		c0.2,0.2,0.6,0.2,0.8,0C33.9,15.2,33.9,14.8,33.6,14.6z M4.4,18C4.4,18,4.4,18,4.4,18c-0.7,0.7-1.9,0.7-2.7,0
		c-0.4-0.3-0.5-0.8-0.5-1.3c0-0.5,0.2-0.9,0.5-1.3c0,0,0,0,0,0c1.8-1.8,3.9-3.2,6.2-4.2c0.3,1.2,0.8,2.4,1.5,3.4
		C7.6,15.4,5.8,16.6,4.4,18z M29.4,18.8C29.4,18.8,29.4,18.8,29.4,18.8c0.4,0.3,0.5,0.8,0.5,1.3s-0.2,0.9-0.5,1.3
		c-0.7,0.7-1.9,0.7-2.7,0c0,0,0,0,0,0c-1.8-1.8-4.1-3-6.6-3.5c1.5-0.5,2.8-1.5,3.8-2.6C25.9,16.1,27.8,17.3,29.4,18.8z M16.9,17.3
		c-4.5,0-8.1-3.6-8.1-8.1c0-4.5,3.6-8.1,8.1-8.1S25,4.8,25,9.2C25,13.7,21.4,17.3,16.9,17.3z"/>
	<path class="st20" d="M13.4,8.6h-0.9l0.1-1.7h2.6V6.3h-3.2l-0.1,3h1.3c1.1,0,1.5,0.5,1.5,1.1c0,0.6-0.5,1.2-1.3,1.2
		c-0.6,0-1.2-0.3-1.5-0.7l-0.5,0.5c0.5,0.6,1.2,0.9,2,0.9c1.1,0,2-0.7,2-1.9C15.5,9.4,14.8,8.6,13.4,8.6z"/>
	<path class="st20" d="M19.8,9v0.7h1.8c-0.1,1.2-0.9,1.9-2.1,1.9c-1.3,0-2.3-0.9-2.3-2.3c0-1.4,1-2.3,2.3-2.3c0.7,0,1.3,0.3,1.8,0.8
		l0.5-0.5c-0.5-0.6-1.4-1-2.3-1c-1.8,0-3.1,1.3-3.1,3.1c0,1.9,1.5,3.1,3,3.1c1.8,0,2.9-1.4,2.9-3.1c0-0.1,0-0.1,0-0.2H19.8z"/>
</g>
</svg>
