<?xml version="1.0" encoding="utf-8"?>
<!-- Generator: Adobe Illustrator 21.1.0, SVG Export Plug-In . SVG Version: 6.00 Build 0)  -->
<svg version="1.1" id="Layer_1" xmlns="http://www.w3.org/2000/svg" xmlns:xlink="http://www.w3.org/1999/xlink" x="0px" y="0px"
	 viewBox="0 0 131.1 109.8" style="enable-background:new 0 0 131.1 109.8;" xml:space="preserve">
<style type="text/css">
	.st0{fill:none;stroke:#FFFFFF;stroke-width:2.8958;stroke-linecap:round;stroke-linejoin:round;stroke-miterlimit:10;}
	.st1{fill:none;stroke:#FFFFFF;stroke-width:4;stroke-linecap:round;stroke-linejoin:round;stroke-miterlimit:10;}
</style>
<g>
	<path class="st0" d="M67.4,93.5c4.9,7.2,9.5,11.1,12.7,10c7-2.3,5.2-26.4-4-53.8S53.9,1.9,47,4.3c-4.2,1.4-5.2,10.5-3.4,23.4
		c5.6-4.4,12.7-7.1,20.4-7.1c18.1,0,32.8,14.7,32.8,32.8S82.1,86.3,63.9,86.3S31.1,71.6,31.1,53.5c0-2.6,0.3-5.1,0.9-7.6l0.1-0.4
		c-12.8,3.8-20.8,8.6-20.4,13c0.8,7.3,24.7,10.7,53.4,7.6c28.7-3.1,51.4-11.5,50.6-18.8c-0.3-3.2-5.2-5.7-12.9-7.2"/>
</g>
<g>
	<path class="st1" d="M631.5,99.5c-23-2.2-41-21.6-41-45.2c0-3.8,0.5-7.4,1.3-11"/>
	<path class="st1" d="M676.7,34.4c3,6,4.6,12.8,4.6,20c0,22.4-16.2,41-37.5,44.7"/>
	<path class="st1" d="M597.2,30.7c8-13,22.3-21.7,38.7-21.7c11.9,0,22.8,4.6,30.9,12.1"/>
	<path class="st1" d="M676.7,34.4c18,1.4,30.1,5.5,30.7,11.6c1.1,10.1-30.2,21.7-69.9,26s-72.7-0.5-73.8-10.5
		c-0.7-6.1,10.5-12.7,28.1-18"/>
	<path class="st1" d="M597.2,30.7c-8.5-16.1-11.5-28.5-6.8-32.3c7.9-6.3,34.5,13.9,59.3,45.1s38.5,61.7,30.6,68
		c-3.7,2.9-11.3,0.2-20.8-6.6"/>
	<path class="st1" d="M631.5,99.5c-10.6,15.2-20.4,23.7-26,21.2c-9.2-4.2-3.4-37,13.1-73.4s37.4-62.4,46.6-58.2
		c5.4,2.5,5.6,14.8,1.5,32"/>
</g>
</svg>
