<?xml version="1.0" encoding="utf-8"?>
<!-- Generator: Adobe Illustrator 21.1.0, SVG Export Plug-In . SVG Version: 6.00 Build 0)  -->
<svg version="1.1" id="Layer_1" xmlns="http://www.w3.org/2000/svg" xmlns:xlink="http://www.w3.org/1999/xlink" x="0px" y="0px"
	 viewBox="0 0 47.6 47.6" style="enable-background:new 0 0 47.6 47.6;" xml:space="preserve">
<style type="text/css">
	.st0{fill:none;stroke:#662F8F;stroke-width:4;stroke-linecap:round;stroke-linejoin:round;stroke-miterlimit:10;}
	.st1{fill:#662F8F;}
	.st2{fill:none;stroke:#662F8F;stroke-width:2;stroke-linecap:round;stroke-linejoin:round;stroke-miterlimit:10;}
	.st3{fill:none;stroke:#FFFFFF;stroke-width:0.488;stroke-linecap:round;stroke-linejoin:round;stroke-miterlimit:10;}
	.st4{fill:none;stroke:#E73E51;stroke-width:1.6927;}
	.st5{fill:none;stroke:#E73E51;stroke-width:1.1285;stroke-linecap:round;stroke-linejoin:round;stroke-miterlimit:10;}
	.st6{fill:#E73E51;}
	
		.st7{clip-path:url(#SVGID_2_);fill:none;stroke:#E73E51;stroke-width:1.1285;stroke-linecap:round;stroke-linejoin:round;stroke-miterlimit:10;}
	.st8{fill:none;stroke:#EE4050;stroke-width:1.1285;stroke-linecap:round;stroke-linejoin:round;stroke-miterlimit:10;}
	.st9{fill:none;stroke:#FFFFFF;stroke-width:0.574;stroke-linecap:round;stroke-linejoin:round;stroke-miterlimit:10;}
	.st10{fill:none;stroke:#A491C4;stroke-width:0.5657;stroke-miterlimit:10;}
	.st11{fill:none;stroke:#F7F8F9;stroke-width:1.2708;stroke-miterlimit:10;}
	.st12{fill:url(#SVGID_3_);}
	.st13{fill:#9289C1;}
	.st14{fill:#F79F7C;}
	.st15{fill:#EF619B;}
	.st16{fill:#F28BB9;}
	.st17{fill:#FABEA9;}
	.st18{fill:#F37B8A;}
	.st19{fill:none;stroke:#633493;stroke-width:5.1599;stroke-linecap:round;stroke-linejoin:round;stroke-miterlimit:10;}
	.st20{fill:none;stroke:#FFFFFF;stroke-width:1.0098;stroke-linecap:round;stroke-linejoin:round;stroke-miterlimit:10;}
	.st21{fill:none;stroke:#662F8F;stroke-width:1.5111;stroke-linecap:round;stroke-linejoin:round;stroke-miterlimit:10;}
	.st22{fill:none;stroke:#662F8F;stroke-width:1.6611;stroke-linecap:round;stroke-linejoin:round;stroke-miterlimit:10;}
	.st23{fill:none;stroke:#662F8F;stroke-width:0.75;stroke-miterlimit:10;}
	.st24{fill:none;stroke:#E73E51;stroke-width:0.9998;stroke-linecap:round;stroke-linejoin:round;stroke-miterlimit:10;}
	.st25{fill:none;}
	.st26{fill:#EE4050;}
</style>
<g>
	<path class="st0" d="M-475.1-262.4c9.6-9.6,22.8-15.5,37.3-15.5"/>
	<path class="st0" d="M-460.7-248c5.9-5.9,14-9.5,23-9.5"/>
	<path class="st0" d="M-503.9-291.2c17.7-17.7,41.2-27.4,66.1-27.4c25,0,48.4,9.7,66.1,27.4"/>
	<path class="st0" d="M-386-276.8c-13.3-13.3-31.6-21.5-51.7-21.5c-20.2,0-38.5,8.2-51.7,21.5"/>
	<path class="st0" d="M-400.4-262.4c-9.6-9.6-22.8-15.5-37.3-15.5"/>
	<path class="st0" d="M-414.8-248c-5.9-5.9-14-9.5-23-9.5"/>
	<path class="st0" d="M-429.2-216.5c-2.2,2.2-5.2,3.5-8.6,3.5c-6.7,0-12.1-5.4-12.1-12.1c0-6.7,5.4-12.1,12.1-12.1
		c3.3,0,6.4,1.4,8.6,3.5"/>
	<path class="st0" d="M-386-276.8c4,4,4,10.4,0,14.4c-4,4-10.4,4-14.4,0"/>
	<path class="st0" d="M-460.7-248c-4,4-10.4,4-14.4,0c-4-4-4-10.4,0-14.4"/>
	<path class="st0" d="M-414.8-248c4,4,4,10.4,0,14.4s-10.4,4-14.4,0"/>
	<path class="st0" d="M-489.5-276.8c-4,4-10.4,4-14.4,0c-4-4-4-10.4,0-14.4"/>
</g>
<g>
	<path class="st1" d="M-292-328.3c-28.7,0-52,23.3-52,52s23.3,52,52,52s52-23.3,52-52S-263.3-328.3-292-328.3z M-292-228
		c-26.6,0-48.3-21.7-48.3-48.3s21.7-48.3,48.3-48.3s48.3,21.7,48.3,48.3S-265.4-228-292-228z"/>
	<path class="st1" d="M-255.4-282.2c-4.8-4.7-10.4-8.3-16.4-10.7c0-0.3,0.1-0.7,0.1-1c0-11.1-9-20.2-20.2-20.2s-20.2,9-20.2,20.2
		c0,0.6,0,1.1,0.1,1.7c-5.5,2.4-10.5,5.8-14.9,10.1c0,0-0.1,0.1-0.1,0.1c-1.2,1.2-1.8,2.8-1.8,4.5c0,1.7,0.7,3.4,1.9,4.6
		c2.6,2.5,6.7,2.5,9.3,0c0,0,0,0,0,0c3.2-3.1,6.8-5.6,10.8-7.4c2.3,2.5,5.2,4.5,8.5,5.5c-5,1.2-9.6,3.7-13.4,7.4
		c0,0-0.1,0.1-0.1,0.1c-1.3,1.2-1.9,2.9-1.9,4.6c0,1.7,0.7,3.4,1.9,4.6c2.6,2.5,6.7,2.5,9.3,0c0,0,0,0,0,0h0c3-2.9,7-4.5,11.3-4.5
		c4.3,0,8.3,1.6,11.3,4.5c0,0,0,0,0,0c0.8,0.8,1.2,1.8,1.2,2.8c0,1.1-0.4,2.1-1.2,2.8c-1.6,1.6-4.3,1.6-5.9,0c0,0-0.1-0.1-0.1-0.1
		c-1.4-1.3-3.3-2.1-5.3-2.1c-4.2,0-7.6,3.3-7.6,7.5c0,4.1,3.4,7.5,7.6,7.5c2,0,3.9-0.8,5.4-2.2c0.5-0.5,0.5-1.3,0-1.7
		c-0.5-0.5-1.3-0.5-1.7,0c-1,1-2.3,1.5-3.7,1.5c-2.8,0-5.2-2.2-5.2-5c0-2.8,2.3-5,5.2-5c1.4,0,2.7,0.5,3.7,1.5c0,0,0.1,0.1,0.1,0.1
		c2.6,2.4,6.7,2.4,9.2-0.1c1.3-1.2,1.9-2.9,1.9-4.6s-0.7-3.4-1.9-4.6c0,0,0,0,0,0c-3.5-3.4-8.1-5.2-13-5.2c-4.9,0-9.5,1.9-13,5.2
		c0,0,0,0,0,0c-1.6,1.6-4.3,1.6-5.9,0c-0.8-0.8-1.2-1.8-1.2-2.8c0-1,0.4-2,1.1-2.7c0,0,0.1-0.1,0.1-0.1c5-4.9,11.7-7.6,18.8-7.6
		c7.1,0,13.8,2.7,18.8,7.6c0,0,0,0,0,0c2.6,2.5,6.7,2.5,9.3,0c1.3-1.2,1.9-2.9,1.9-4.6c0-1.7-0.7-3.4-1.9-4.6c0,0,0,0,0,0
		c-3.6-3.5-7.7-6.2-12.1-8.1c1.5-2.2,2.5-4.8,3-7.5c5.5,2.3,10.6,5.7,15,9.9c0.5,0.5,1.3,0.5,1.7,0
		C-254.9-280.9-255-281.7-255.4-282.2z M-319.4-274.8C-319.4-274.8-319.4-274.8-319.4-274.8c-1.6,1.6-4.3,1.6-5.9,0
		c-0.8-0.8-1.2-1.8-1.2-2.8c0-1.1,0.4-2.1,1.2-2.8c0,0,0.1-0.1,0.1-0.1c4-3.9,8.5-6.9,13.5-9.2c0.6,2.7,1.7,5.2,3.3,7.4
		C-312.4-280.4-316.1-277.9-319.4-274.8z M-264.8-273C-264.8-273-264.8-273-264.8-273c0.8,0.8,1.2,1.8,1.2,2.8
		c0,1.1-0.4,2.1-1.2,2.8c-1.6,1.6-4.3,1.6-5.9,0c0,0,0,0,0,0c-4-3.9-9-6.5-14.4-7.7c3.3-1.2,6.1-3.2,8.4-5.8
		C-272.3-279-268.2-276.4-264.8-273z M-292-276.2c-9.8,0-17.7-7.9-17.7-17.7c0-9.8,7.9-17.7,17.7-17.7s17.7,7.9,17.7,17.7
		C-274.3-284.2-282.2-276.2-292-276.2z"/>
	<path class="st1" d="M-299.6-295.3h-1.9l0.1-3.7h5.6v-1.5h-7.1l-0.2,6.6h2.9c2.5,0,3.4,1.1,3.4,2.5c0,1.4-1,2.5-2.8,2.5
		c-1.3,0-2.5-0.6-3.4-1.6l-1,1c1.1,1.3,2.6,2,4.4,2c2.4,0,4.5-1.5,4.5-4.2C-295.1-293.5-296.6-295.3-299.6-295.3z"/>
	<path class="st1" d="M-285.7-294.4v1.5h3.9c-0.3,2.5-1.9,4.1-4.5,4.1c-2.8,0-4.9-2.1-4.9-5.1c0-3,2.2-5.1,5-5.1
		c1.6,0,2.9,0.7,3.8,1.7l1.2-1.2c-1.2-1.3-3-2.1-5-2.1c-3.9,0-6.7,2.8-6.7,6.7c0,4.2,3.2,6.7,6.6,6.7c3.9,0,6.3-3,6.3-6.7
		c0-0.1,0-0.3,0-0.4H-285.7z"/>
</g>
<g>
	<line class="st2" x1="-160.1" y1="-242.7" x2="-160.1" y2="-234"/>
	<path class="st2" d="M-173.8-234c-2.8,0-5.2-2.3-5.2-5.2V-317c0-2.8,2.3-5.2,5.2-5.2h69.9c2.8,0,5.2,2.3,5.2,5.2v77.8
		c0,2.8-2.3,5.2-5.2,5.2h-56.2"/>
	<path class="st2" d="M-160.1-242.7h-5c-2.8,0-5.2-2.3-5.2-5.2v-60.4c0-2.8,2.3-5.2,5.2-5.2h10.1c2.8,0,5.2,2.3,5.2,5.2v60.4"/>
	<g>
		<g>
			<circle class="st2" cx="-138.1" cy="-292.8" r="3.8"/>
			<circle class="st2" cx="-124.2" cy="-292.8" r="3.8"/>
			<circle class="st2" cx="-110.3" cy="-292.8" r="3.8"/>
			<circle class="st2" cx="-138.1" cy="-278.9" r="3.8"/>
			<circle class="st2" cx="-124.2" cy="-278.9" r="3.8"/>
			<circle class="st2" cx="-110.3" cy="-278.9" r="3.8"/>
			<circle class="st2" cx="-138.1" cy="-265" r="3.8"/>
			<circle class="st2" cx="-124.2" cy="-265" r="3.8"/>
			<circle class="st2" cx="-110.3" cy="-265" r="3.8"/>
			<circle class="st2" cx="-138.1" cy="-251.1" r="3.8"/>
			<circle class="st2" cx="-124.2" cy="-251.1" r="3.8"/>
			<circle class="st2" cx="-110.3" cy="-251.1" r="3.8"/>
		</g>
		<line class="st2" x1="-141.9" y1="-308.8" x2="-106.6" y2="-308.8"/>
	</g>
</g>
<g>
	<path class="st3" d="M-242.7-130.2v-1c0-2.7-2.1-4.9-4.8-5c-2.8-0.1-5.1,2.2-5.1,4.9l0,3.8h10.9c0.7,0,1.3,0.6,1.3,1.3v8.6
		c0,0.7-0.6,1.3-1.3,1.3h-2.7c-0.5,0-1-0.4-1.1-0.9l-0.8-3.2v0c0.6-0.5,0.9-1.2,0.8-2.1c-0.1-1-1-1.7-1.9-1.9
		c-1.3-0.1-2.5,0.9-2.5,2.2c0,0.7,0.3,1.3,0.8,1.7h0c0,0-0.5,2-0.8,3.2c-0.1,0.5-0.6,0.9-1.1,0.9h-2.7c-0.7,0-1.3-0.6-1.3-1.3v-8.6"
		/>
</g>
<g>
	<circle class="st4" cx="-124.5" cy="-123" r="23"/>
	<path class="st5" d="M-147.7-123l23.2-0.1 M-124.5-123.1v-23.1V-123.1z M-112.9-123.1c0,6.4-5.2,11.6-11.6,11.6
		c-6.4,0-11.7-5.2-11.7-11.6c0-6.4,5.2-11.6,11.7-11.6C-118.1-134.8-112.9-129.6-112.9-123.1z M-107.3-123.1
		c0,9.5-7.7,17.3-17.3,17.3c-9.5,0-17.3-7.7-17.3-17.3c0-9.5,7.7-17.3,17.3-17.3C-115-140.4-107.3-132.7-107.3-123.1z"/>
	<path class="st6" d="M-140.2-128.4c1.2,0,2.2-1,2.2-2.2c0-1.2-1-2.2-2.2-2.2c-1.2,0-2.2,1-2.2,2.2
		C-142.4-129.4-141.4-128.4-140.2-128.4"/>
</g>
<g>
	<circle class="st4" cx="-182.9" cy="-122.5" r="23"/>
	<path class="st5" d="M-172.2-129.9l7.1,7.2 M-172.2-129.9l-7.1,10.3 M-186.3-115.4l7.1-4.2 M-186.3-115.4l-7.1-9.5 M-200.4-120
		l7.1-4.9"/>
	<path class="st6" d="M-195.4-124.9c0-1.2,1-2.1,2.1-2.1s2.1,1,2.1,2.1c0,1.2-1,2.1-2.1,2.1S-195.4-123.7-195.4-124.9"/>
	<path class="st6" d="M-188.4-115.4c0-1.2,1-2.1,2.1-2.1s2.1,1,2.1,2.1c0,1.2-1,2.1-2.1,2.1S-188.4-114.2-188.4-115.4"/>
	<path class="st6" d="M-181.3-119.6c0-1.2,1-2.1,2.1-2.1c1.2,0,2.1,1,2.1,2.1c0,1.2-1,2.1-2.1,2.1
		C-180.4-117.5-181.3-118.4-181.3-119.6"/>
	<path class="st6" d="M-174.3-129.9c0-1.2,1-2.1,2.1-2.1c1.2,0,2.1,1,2.1,2.1c0,1.2-1,2.1-2.1,2.1
		C-173.3-127.7-174.3-128.7-174.3-129.9"/>
	<path class="st6" d="M-167.4-122.8c0-1.2,1-2.1,2.1-2.1c1.2,0,2.1,1,2.1,2.1c0,1.2-1,2.1-2.1,2.1
		C-166.4-120.7-167.4-121.6-167.4-122.8"/>
	<path class="st6" d="M-202.2-120.2c0-1.2,1-2.1,2.1-2.1c1.2,0,2.1,1,2.1,2.1c0,1.2-1,2.1-2.1,2.1C-201.3-118-202.2-119-202.2-120.2
		"/>
</g>
<g>
	<circle class="st4" cx="-74.8" cy="-163.3" r="23"/>
	<g>
		<defs>
			<path id="SVGID_1_" d="M-98.6-163.5c0,12.4,9.6,22.6,21.8,23.5h3.6c11.7-0.9,21.1-10.4,21.8-22.2v-2.7
				c-0.7-12.4-11-22.2-23.6-22.2C-88-187.1-98.6-176.5-98.6-163.5"/>
		</defs>
		<clipPath id="SVGID_2_">
			<use xlink:href="#SVGID_1_"  style="overflow:visible;"/>
		</clipPath>
		<path class="st7" d="M-52-131.9h-12.1c-0.5,0-0.9-0.4-0.9-0.9v-5.2c0-0.5,0.4-0.9,0.9-0.9H-52c0.5,0,0.9,0.4,0.9,0.9v5.2
			C-51-132.3-51.5-131.9-52-131.9z M-66-131.9h-12.1c-0.5,0-0.9-0.4-0.9-0.9v-5.2c0-0.5,0.4-0.9,0.9-0.9H-66c0.5,0,0.9,0.4,0.9,0.9
			v5.2C-65-132.3-65.4-131.9-66-131.9z M-79.9-131.9H-92c-0.5,0-0.9-0.4-0.9-0.9v-5.2c0-0.5,0.4-0.9,0.9-0.9h12.1
			c0.5,0,0.9,0.4,0.9,0.9v5.2C-78.9-132.3-79.3-131.9-79.9-131.9z M-93.8-131.9H-106c-0.5,0-0.9-0.4-0.9-0.9v-5.2
			c0-0.5,0.4-0.9,0.9-0.9h12.1c0.5,0,0.9,0.4,0.9,0.9v5.2C-92.9-132.3-93.3-131.9-93.8-131.9z M-44.7-139h-12.1
			c-0.5,0-0.9-0.4-0.9-0.9v-5.2c0-0.5,0.4-0.9,0.9-0.9h12.1c0.5,0,0.9,0.4,0.9,0.9v5.2C-43.8-139.4-44.2-139-44.7-139z M-58.7-139
			h-12.1c-0.5,0-0.9-0.4-0.9-0.9v-5.2c0-0.5,0.4-0.9,0.9-0.9h12.1c0.5,0,0.9,0.4,0.9,0.9v5.2C-57.8-139.4-58.2-139-58.7-139z
			 M-72.6-139h-12.1c-0.5,0-0.9-0.4-0.9-0.9v-5.2c0-0.5,0.4-0.9,0.9-0.9h12.1c0.5,0,0.9,0.4,0.9,0.9v5.2
			C-71.7-139.4-72.1-139-72.6-139z M-86.6-139h-12.1c-0.5,0-0.9-0.4-0.9-0.9v-5.2c0-0.5,0.4-0.9,0.9-0.9h12.1c0.5,0,0.9,0.4,0.9,0.9
			v5.2C-85.7-139.4-86.1-139-86.6-139z M-52-146.1h-12.1c-0.5,0-0.9-0.4-0.9-0.9v-5.2c0-0.5,0.4-0.9,0.9-0.9H-52
			c0.5,0,0.9,0.4,0.9,0.9v5.2C-51-146.5-51.5-146.1-52-146.1z M-66-146.1h-12.1c-0.5,0-0.9-0.4-0.9-0.9v-5.2c0-0.5,0.4-0.9,0.9-0.9
			H-66c0.5,0,0.9,0.4,0.9,0.9v5.2C-65-146.5-65.4-146.1-66-146.1z M-79.9-146.1H-92c-0.5,0-0.9-0.4-0.9-0.9v-5.2
			c0-0.5,0.4-0.9,0.9-0.9h12.1c0.5,0,0.9,0.4,0.9,0.9v5.2C-78.9-146.5-79.3-146.1-79.9-146.1z M-93.8-146.1H-106
			c-0.5,0-0.9-0.4-0.9-0.9v-5.2c0-0.5,0.4-0.9,0.9-0.9h12.1c0.5,0,0.9,0.4,0.9,0.9v5.2C-92.9-146.5-93.3-146.1-93.8-146.1z
			 M-44.7-153.2h-12.1c-0.5,0-0.9-0.4-0.9-0.9v-5.2c0-0.5,0.4-0.9,0.9-0.9h12.1c0.5,0,0.9,0.4,0.9,0.9v5.2
			C-43.8-153.6-44.2-153.2-44.7-153.2z M-58.7-153.2h-12.1c-0.5,0-0.9-0.4-0.9-0.9v-5.2c0-0.5,0.4-0.9,0.9-0.9h12.1
			c0.5,0,0.9,0.4,0.9,0.9v5.2C-57.8-153.6-58.2-153.2-58.7-153.2z M-72.6-153.2h-12.1c-0.5,0-0.9-0.4-0.9-0.9v-5.2
			c0-0.5,0.4-0.9,0.9-0.9h12.1c0.5,0,0.9,0.4,0.9,0.9v5.2C-71.7-153.6-72.1-153.2-72.6-153.2z M-86.6-153.2h-12.1
			c-0.5,0-0.9-0.4-0.9-0.9v-5.2c0-0.5,0.4-0.9,0.9-0.9h12.1c0.5,0,0.9,0.4,0.9,0.9v5.2C-85.7-153.6-86.1-153.2-86.6-153.2z
			 M-52-160.3h-12.1c-0.5,0-0.9-0.4-0.9-0.9v-5.2c0-0.5,0.4-0.9,0.9-0.9H-52c0.5,0,0.9,0.4,0.9,0.9v5.2
			C-51-160.7-51.5-160.3-52-160.3z M-66-160.3h-12.1c-0.5,0-0.9-0.4-0.9-0.9v-5.2c0-0.5,0.4-0.9,0.9-0.9H-66c0.5,0,0.9,0.4,0.9,0.9
			v5.2C-65-160.7-65.4-160.3-66-160.3z M-79.9-160.3H-92c-0.5,0-0.9-0.4-0.9-0.9v-5.2c0-0.5,0.4-0.9,0.9-0.9h12.1
			c0.5,0,0.9,0.4,0.9,0.9v5.2C-78.9-160.7-79.3-160.3-79.9-160.3z M-93.8-160.3H-106c-0.5,0-0.9-0.4-0.9-0.9v-5.2
			c0-0.5,0.4-0.9,0.9-0.9h12.1c0.5,0,0.9,0.4,0.9,0.9v5.2C-92.9-160.7-93.3-160.3-93.8-160.3z"/>
	</g>
</g>
<circle class="st4" cx="-12.9" cy="-137.8" r="23"/>
<path class="st8" d="M-12.8-128.6c-1.2-0.5-5.6-2.7-5.6-7.1v-6.8c2.6-0.1,4.7-1,5.6-1.5c0.9,0.5,3,1.4,5.6,1.5v6.8
	C-7.1-131.3-11.6-129.1-12.8-128.6z"/>
<path class="st8" d="M-10.4-133.8h-4.8v-3.5h4.8V-133.8z M-14.3-137.3v-1.4c0-0.8,0.7-1.5,1.5-1.5c0.8,0,1.5,0.7,1.5,1.5v1.4"/>
<path class="st8" d="M0.9-144.7l0-1.4c0-0.5-0.4-0.9-0.9-0.9l-12.3,0.1l-3.6-3.6l-8.6,0c-1,0-1.9,0.9-1.9,1.9l0.1,22.7H0.9V-144.7z"
	/>
<g>
	<circle class="st4" cx="53.4" cy="-133.4" r="23"/>
	<path class="st8" d="M63.8-124.6c0,1.8-1.5,3.3-3.3,3.3c-1.8,0-3.3-1.5-3.3-3.3c0-1.8,1.5-3.3,3.3-3.3
		C62.3-127.9,63.8-126.5,63.8-124.6z M59.7-125.6l0.8,2l1.5-3.9 M44.6-128.5h9.1 M44.6-131.4h14.7 M44.6-134.2h14.7 M44.6-137h14.7
		 M44.6-139.9h9.9 M44.6-142.7h9.9 M59.2-148.3h6.9v29.8H40.9v-29.8H59.2z"/>
</g>
<circle class="st4" cx="116.1" cy="-129" r="23"/>
<path class="st8" d="M115.9-123.8v1.1 M115.9-134.5v7.2 M115.9-143.1L102-118.9h27.9L115.9-143.1z"/>
<circle class="st4" cx="189.6" cy="-128.7" r="23"/>
<path class="st8" d="M189.6-111.3c-2.4-1-11.4-5.4-11.4-14.4v-13.7c5.3-0.1,9.6-2,11.4-3c1.8,1,6,2.8,11.4,3v13.7
	C201-116.7,192.1-112.3,189.6-111.3z"/>
<path class="st8" d="M194.5-121.6h-9.8v-7.1h9.8V-121.6z M186.6-128.7v-2.8c0-1.6,1.3-3,3-3c1.6,0,3,1.3,3,3v2.8"/>
<g>
	<path class="st0" d="M315.5-150.7v-5.9c0-16.5-12.9-30.4-29.4-30.8c-17.1-0.5-31.1,13.2-31.1,30.2l0,23.2h67.2
		c4.2,0,7.7,3.5,7.7,7.7v53.1c0,4.2-3.5,7.7-7.7,7.7c0,0-10.2,0-16.8,0c-3.3,0-6.2-2.3-7-5.5L293.7-91l0,0c3.6-2.9,5.8-7.6,5-12.7
		c-0.9-6-5.8-10.7-11.8-11.4c-8.2-0.9-15.1,5.5-15.1,13.5c0,4.3,2,8.2,5.2,10.6l0,0c0,0-3,12.4-4.8,19.9c-0.8,3.2-3.7,5.5-7,5.5
		h-16.8c-4.2,0-7.7-3.5-7.7-7.7v-53.1"/>
</g>
<g>
	<path class="st9" d="M191.1-61.6c1.7,0.6,3.7,0.2,5-1.1c1.4-1.4,1.7-3.3,1.1-5l-2.4,2.4c-0.3,0.3-0.8,0.3-1.1,0l-1.8-1.8
		c-0.3-0.3-0.3-0.8,0-1.1l2.4-2.4c-1.7-0.6-3.7-0.2-5,1.1c-1.4,1.4-1.7,3.3-1.1,5l-7.4,7.4c-1.7-0.6-3.7-0.2-5,1.1
		c-1.4,1.4-1.7,3.3-1.1,5l2.4-2.4c0.3-0.3,0.8-0.3,1.1,0l1.8,1.8c0.3,0.3,0.3,0.8,0,1.1l-2.4,2.4c1.7,0.6,3.7,0.2,5-1.1
		c1.4-1.4,1.7-3.3,1.1-5l2.2-2.2"/>
	<path class="st9" d="M185.9-56.4l-5.8-6.2c-1-1-2.7-1-3.7,0c-0.9,0.9-1,2.4-0.2,3.4l-2,1.3c0,0-3.2-4.8,0.5-8.5
		c1.3-1.3,2.5-2.5,3.6-3.6c0.3,0.1,0.7,0.1,1,0.2c0.3,0.1,0.6-0.2,0.5-0.5l-0.2-1l1.7-1.7l4.6,4.6l-1.6,1.6c-0.5-0.5-1.3-0.5-1.7,0
		c-0.5,0.5-0.5,1.3,0,1.7L195.3-53c0.1,0.1,0.2,0.2,0.2,0.2c0.7,0.8,0.7,2,0.1,2.9c-0.9,1.1-2.5,1.2-3.5,0.3c0,0-0.1-0.1-0.1-0.1
		l-4.2-4.4"/>
</g>
<g>
	<path class="st10" d="M506.8,256.5c-16.8,29.7-59.2,67.7-114.4,99.6c-81.9,47.3-161,63.4-176.8,36c-7.4-12.7,0.3-32.6,18.8-55"/>
	<path class="st10" d="M453.6,209.9c29.3-5.1,50.9-1.9,58.3,11c2.6,4.5,3.3,10,2.3,16.1"/>
	<circle class="st10" cx="511.4" cy="247" r="10.5"/>
	<circle class="st10" cx="360" cy="278.6" r="132"/>
</g>
<image style="overflow:visible;" width="1600" height="700" xlink:href="../Dropbox (Muuaaa)/Muuaaa Team Folder/Graphic Design_Gabriel/Neptuno/02 Design/images/slide-22.jpg"  transform="matrix(0.4158 0 0 0.4158 69.8418 -236.0374)">
</image>
<image style="overflow:visible;" width="1078" height="516" xlink:href="datacenter-google-1078x516.jpg"  transform="matrix(1 0 0 1 196.167 -877.0088)">
</image>
<g>
	<g>
		<g>
			<path class="st11" d="M1090.4,225.3c7.8-13.2,12.3-28.7,12.3-45.2c0-49.1-39.8-88.9-88.9-88.9c-49.1,0-88.9,39.8-88.9,88.9
				c0,16,4.2,30.9,11.6,43.9"/>
			<path class="st11" d="M946.7,238.3c16.3,18.8,40.3,30.7,67.2,30.7c26.8,0,50.9-11.9,67.2-30.7"/>
			<rect x="941.3" y="235.1" class="st11" width="45.9" height="3.2"/>
			<g>
				<rect x="936.6" y="220" class="st11" width="55.3" height="15.1"/>
				<line class="st11" x1="941.2" y1="224.3" x2="941.2" y2="230.8"/>
				<line class="st11" x1="944.7" y1="224.3" x2="944.7" y2="230.8"/>
				<line class="st11" x1="948.1" y1="224.3" x2="948.1" y2="230.8"/>
				<line class="st11" x1="951.6" y1="224.3" x2="951.6" y2="230.8"/>
				<line class="st11" x1="955.1" y1="224.3" x2="955.1" y2="230.8"/>
				<line class="st11" x1="958.6" y1="224.3" x2="958.6" y2="230.8"/>
				<circle class="st11" cx="985.3" cy="227.6" r="2.3"/>
				<circle class="st11" cx="977.2" cy="227.6" r="2.3"/>
				<circle class="st11" cx="969.2" cy="227.6" r="2.3"/>
			</g>
			<path class="st11" d="M946.4,220v-19.6c0-1.2,1-2.2,2.2-2.2l0,0c1.2,0,2.2,1,2.2,2.2V220"/>
			<path class="st11" d="M940.5,188.1c2.1-2.1,5-3.4,8.1-3.4"/>
			<path class="st11" d="M942.7,191.2c1.5-1.5,3.6-2.4,5.9-2.4"/>
			<path class="st11" d="M945,194.4c0.9-0.9,2.2-1.5,3.6-1.5"/>
			<path class="st11" d="M956.7,188.1c-2.1-2.1-5-3.4-8.1-3.4"/>
			<path class="st11" d="M954.5,191.2c-1.5-1.5-3.6-2.4-5.9-2.4"/>
			<path class="st11" d="M952.2,194.4c-0.9-0.9-2.2-1.5-3.6-1.5"/>
			<path class="st11" d="M977.7,220v-19.6c0-1.2,1-2.2,2.2-2.2l0,0c1.2,0,2.2,1,2.2,2.2V220"/>
			<path class="st11" d="M971.8,188.1c2.1-2.1,5-3.4,8.1-3.4"/>
			<path class="st11" d="M974,191.2c1.5-1.5,3.6-2.4,5.9-2.4"/>
			<path class="st11" d="M976.3,194.4c0.9-0.9,2.2-1.5,3.6-1.5"/>
			<path class="st11" d="M988,188.1c-2.1-2.1-5-3.4-8.1-3.4"/>
			<path class="st11" d="M985.8,191.2c-1.5-1.5-3.6-2.4-5.9-2.4"/>
			<path class="st11" d="M983.5,194.4c-0.9-0.9-2.2-1.5-3.6-1.5"/>
			<rect x="998.2" y="129.3" class="st11" width="42.5" height="105.8"/>
			<rect x="1003.8" y="134.9" class="st11" width="31.4" height="8.2"/>
			<rect x="1003.8" y="143" class="st11" width="31.4" height="8.2"/>
			<rect x="1003.8" y="151.2" class="st11" width="31.4" height="8.2"/>
			<rect x="1003.8" y="159.3" class="st11" width="31.4" height="8.2"/>
			<rect x="1003.8" y="167.5" class="st11" width="31.4" height="8.2"/>
			<rect x="1003.8" y="175.7" class="st11" width="31.4" height="8.2"/>
			<rect x="1003.8" y="201.9" class="st11" width="31.4" height="23.2"/>
			<circle class="st11" cx="1019.2" cy="213.5" r="2.8"/>
			<g>
				<rect x="1003.8" y="190.8" class="st11" width="18.6" height="4.1"/>
				<rect x="1031.1" y="190.8" class="st11" width="4.1" height="4.1"/>
			</g>
			<line class="st11" x1="1016.4" y1="213.5" x2="1003.8" y2="213.5"/>
			<line class="st11" x1="1022" y1="213.5" x2="1034.7" y2="213.5"/>
			<rect x="998.2" y="235.1" class="st11" width="42.5" height="3.2"/>
			<circle class="st11" cx="1070" cy="207.5" r="11.7"/>
			<circle class="st11" cx="1070" cy="207.5" r="6.4"/>
			<circle class="st11" cx="1070" cy="207.5" r="2.6"/>
			<line class="st11" x1="1070" y1="219.3" x2="1070" y2="225.3"/>
			<g>
				<rect x="1047.1" y="225.3" class="st11" width="44.1" height="9.8"/>
				<line class="st11" x1="1080.5" y1="230.2" x2="1057.8" y2="230.2"/>
			</g>
			<rect x="1050.8" y="235.1" class="st11" width="36.7" height="3.2"/>
		</g>
	</g>
</g>
<g>
	<linearGradient id="SVGID_3_" gradientUnits="userSpaceOnUse" x1="1151.8859" y1="58.5645" x2="1274.1237" y2="58.5645">
		<stop  offset="0" style="stop-color:#C558A0"/>
		<stop  offset="0.5945" style="stop-color:#7F3E93"/>
		<stop  offset="1" style="stop-color:#532E8B"/>
	</linearGradient>
	<path class="st12" d="M1242.9,36.4l31.3,17.6l-61.4,34.6L1151.9,54l30.8-17.5C1201.3,25.9,1224.2,25.9,1242.9,36.4z"/>
	<path class="st13" d="M1151.9,54v3.6l59.9,34.7c0.4,0.2,0.8,0.2,1.1,0l61.2-34.7V54l-61.4,34.6L1151.9,54z"/>
	<path class="st14" d="M1237.7,5.7l36.4,20.5l-61.4,34.6l-60.9-34.6l36-20.4C1203.3-2.9,1222.2-3,1237.7,5.7z"/>
	<path class="st15" d="M1239.3-19.2l34.8,19.6l-61.4,34.6l-60.9-34.6l34.3-19.5C1202.7-28.5,1222.8-28.5,1239.3-19.2z"/>
	<path class="st16" d="M1151.9,0.4L1152,4l59.7,34.7c0.4,0.2,0.8,0.2,1.2,0L1274.1,4V0.4l-61.4,34.6L1151.9,0.4z"/>
	<path class="st17" d="M1151.9,26.3l0.1,3.6l59.7,34.7c0.4,0.2,0.9,0.2,1.3,0l61.1-34.7v-3.6l-61.4,34.6L1151.9,26.3z"/>
</g>
<g>
	<g>
		<path class="st18" d="M1693.3-38l-76.2,129.5c-1.5,2.5,0.3,5.7,3.3,5.7h61.4c0.7,0,1.3,0.6,1.2,1.4l-13.6,101.2
			c-0.4,3.3,4,4.9,5.7,2l94.1-155.8c1.4-2.3-0.3-5.2-2.9-5.2h-74.4c-0.7,0-1.3-0.6-1.2-1.3l8-75.7C1699-39.3,1694.9-40.7,1693.3-38z
			"/>
	</g>
	<g>
		<g>
			<path class="st1" d="M1553.8,65.3c-28.5-17-50.1-44.3-59.4-76.2c-9.1-31-6.3-65.2,7.9-94.2c28.1-57.4,95.2-86.9,156.5-68.2
				c35.2,10.7,64.3,36.3,80.3,69.4c2,4.1,8.2,0.5,6.2-3.6c-14.9-30.8-40.8-55.3-72.4-68.3c-31.7-13-68.2-13.7-100.3-1.8
				c-29.8,11.1-55.3,32.3-71.4,59.7c-17.1,29-22.9,63.8-16.6,96.8c7.4,38.7,31.9,72.6,65.7,92.7
				C1554.1,73.9,1557.7,67.7,1553.8,65.3L1553.8,65.3z"/>
		</g>
	</g>
	<g>
		<g>
			<path class="st1" d="M1743.1-102.3c47.3-13.1,98.5,12.1,115.3,58.7c15.6,43.4-2.9,92.9-43.1,115.3c-25.3,14.1-55.7,15.3-82.5,4.6
				c-4.3-1.7-6.1,5.2-1.9,6.9c49.2,19.8,107.2-2.1,130.2-50.1c21.5-44.9,6.9-99.8-33.9-128.2c-25-17.4-56.8-22.2-86-14.1
				C1736.7-108,1738.6-101.1,1743.1-102.3L1743.1-102.3z"/>
		</g>
	</g>
	<g>
		<g>
			<path class="st1" d="M1734.9,81.4c9.8-16.3,19.7-32.6,29.5-48.9c1.4-2.3-0.4-5.4-3.1-5.4c-27.2,0-54.3,0-81.5,0
				c1.2,1.2,2.4,2.4,3.6,3.6c3.8-28.3,7.6-56.6,11.3-84.9c0.6-4.1,1.1-8.2,1.7-12.3c0.5-3.7-5-4.6-6.7-1.8
				c-10.1,17.3-20.1,34.5-30.2,51.8c-16.1,27.5-32.2,55.1-48.3,82.6c-3.7,6.4-7.5,12.8-11.2,19.2c-1.4,2.3,0.4,5.4,3.1,5.4
				c23,0,46.1,0,69.1,0c-1.2-1.2-2.4-2.4-3.6-3.6c-4.6,34.3-9.2,68.6-13.8,102.9c-0.6,4.8-1.3,9.6-1.9,14.4c-0.5,3.7,5,4.6,6.7,1.8
				c15.8-26.3,31.7-52.5,47.5-78.8c2.3-3.8,4.5-7.5,6.8-11.3c2.4-4-3.8-7.6-6.2-3.6c-15.8,26.3-31.7,52.5-47.5,78.8
				c-2.3,3.8-4.5,7.5-6.8,11.3c2.2,0.6,4.4,1.2,6.7,1.8c4.6-34.3,9.2-68.6,13.8-102.9c0.6-4.8,1.3-9.6,1.9-14.4
				c0.3-1.9-1.8-3.6-3.6-3.6c-23,0-46.1,0-69.1,0c1,1.8,2.1,3.6,3.1,5.4c10.1-17.3,20.1-34.5,30.2-51.8
				c16.1-27.5,32.2-55.1,48.3-82.6c3.7-6.4,7.5-12.8,11.2-19.2c-2.2-0.6-4.4-1.2-6.7-1.8c-3.8,28.3-7.6,56.6-11.3,84.9
				c-0.6,4.1-1.1,8.2-1.7,12.3c-0.3,1.9,1.8,3.6,3.6,3.6c27.2,0,54.3,0,81.5,0c-1-1.8-2.1-3.6-3.1-5.4
				c-9.8,16.3-19.7,32.6-29.5,48.9C1726.3,81.8,1732.5,85.4,1734.9,81.4L1734.9,81.4z"/>
		</g>
	</g>
</g>
<g>
	<g>
		<path class="st18" d="M2624.3,54.3h-73.2c-5.1,0-9.3,4.2-9.3,9.3v51.7c0,5.1,4.2,9.3,9.3,9.3h73.2c5.1,0,9.3-4.2,9.3-9.3V63.5
			C2633.6,58.4,2629.4,54.3,2624.3,54.3z M2599.6,108.4c0.3,1.2-0.6,2.3-1.8,2.3h-20.1c-1.2,0-2.1-1.1-1.8-2.3l4.5-18.8
			c-2.8-2.2-4.7-5.6-4.7-9.5c0-7.5,6.8-13.4,14.6-11.8c4.7,1,8.4,4.8,9.2,9.5c0.9,4.8-1.1,9.1-4.5,11.8L2599.6,108.4z"/>
	</g>
</g>
<g>
	<path class="st18" d="M2699.3-97.2l-53.6,10.6c-0.6,0.1-1.3-0.1-1.7-0.6l-27.2-30.3c-1-1.1-0.4-2.8,1-3.1l73.9-14.6
		c1-0.2,2,0.5,2.2,1.5l6.9,34.3C2701-98.4,2700.3-97.4,2699.3-97.2z"/>
</g>
<g>
	<path class="st18" d="M2465-97.2l53.6,10.6c0.6,0.1,1.3-0.1,1.7-0.6l27.2-30.3c1-1.1,0.4-2.8-1-3.1l-73.9-14.6
		c-1-0.2-2,0.5-2.2,1.5l-6.9,34.3C2463.3-98.4,2464-97.4,2465-97.2z"/>
</g>
<g>
	<g>
		<path class="st18" d="M2671.8-28.6c-49.5,0-85.9-23.3-85.9-23.3s-36.4,23.3-85.9,23.3h-8.2V82.1c0,83.8,94.1,116.3,94.1,116.3
			s94.1-32.4,94.1-116.3V-28.6H2671.8z M2667.1,82.1c0,63.9-64.1,95.2-81.3,102.4c-17.2-7.2-81.3-38.5-81.3-102.4v-97.9
			c38.1-1,68.2-14.5,81.3-21.4c13,6.9,43.1,20.3,81.3,21.4V82.1z"/>
	</g>
</g>
<circle class="st19" cx="2489.6" cy="-72.2" r="8.3"/>
<line class="st19" x1="2489.6" y1="-80.6" x2="2489.6" y2="-97.2"/>
<line class="st19" x1="2481.2" y1="-72.2" x2="2410.3" y2="-72.2"/>
<line class="st19" x1="2474.4" y1="-129.1" x2="2497.9" y2="-124.5"/>
<polyline class="st19" points="2538,-116.6 2547,-114.8 2543.5,-97.6 2524.4,-101.3 "/>
<polygon class="st19" points="2459.5,-103.2 2516,-92 2546.1,-125.5 2467.1,-141.1 "/>
<circle class="st19" cx="2674.7" cy="-72.2" r="8.3"/>
<path class="st19" d="M2674.7-80.6v-16.7V-80.6z"/>
<path class="st19" d="M2683.1-72.2h71H2683.1z"/>
<line class="st19" x1="2689.9" y1="-129.1" x2="2666.4" y2="-124.5"/>
<polygon class="st19" points="2626.3,-116.6 2617.3,-114.8 2620.7,-97.6 2639.9,-101.3 "/>
<polygon class="st19" points="2704.8,-103.2 2648.3,-92 2618.2,-125.5 2697.2,-141.1 "/>
<path class="st19" d="M2653.7,143.4c63.4-27.6,107.7-90.9,107.7-164.5c0-99-80.3-179.3-179.3-179.3S2402.8-120.1,2402.8-21
	c0,73.6,44.3,136.8,107.7,164.5"/>
<path class="st19" d="M2582.1,194.6c0,0,94.1-32.4,94.1-116.3V-32.3h-8.2c-49.5,0-85.9-23.3-85.9-23.3s-36.4,23.3-85.9,23.3h-8.2
	V78.4C2488,162.2,2582.1,194.6,2582.1,194.6z"/>
<path class="st19" d="M2582.1,180.8c-17.2-7.2-81.3-38.5-81.3-102.4v-97.9c38.1-1,68.2-14.5,81.3-21.4c13,6.9,43.1,20.3,81.3,21.4
	v97.9C2663.4,142.3,2599.4,173.6,2582.1,180.8z"/>
<path class="st19" d="M2618.7,119h-73.2c-5.1,0-9.3-4.2-9.3-9.3V58c0-5.1,4.2-9.3,9.3-9.3h73.2c5.1,0,9.3,4.2,9.3,9.3v51.7
	C2628,114.8,2623.8,119,2618.7,119z"/>
<path class="st19" d="M2594,102.8l-4.5-18.8c3.4-2.6,5.4-7,4.5-11.8c-0.9-4.7-4.6-8.5-9.2-9.5c-7.8-1.6-14.6,4.3-14.6,11.8
	c0,3.9,1.9,7.3,4.7,9.5l-4.5,18.8c-0.3,1.2,0.6,2.3,1.8,2.3h20.1C2593.4,105.1,2594.3,104,2594,102.8z"/>
<path class="st19" d="M2613.2,48.7c0,0,0-23.8,0-23.8c0-17.1-13.9-31-31-31c-17.1,0-31,13.9-31,31v23.8H2613.2z"/>
<path class="st19" d="M3075.7,143.4c63.4-27.6,107.7-90.9,107.7-164.5c0-99-80.3-179.3-179.3-179.3S2824.8-120.1,2824.8-21
	c0,73.6,44.3,136.8,107.7,164.5"/>
<g>
	<path class="st19" d="M3052.5-31.7c15,5.4,32.4,2.1,44.4-9.9s15.3-29.4,9.9-44.4l-21.3,21.3c-2.7,2.7-7,2.7-9.7,0l-15.9-15.9
		c-2.7-2.7-2.7-7,0-9.7l21.3-21.3c-15-5.4-32.4-2.1-44.4,9.9s-15.3,29.4-9.9,44.4l-65,65c-15-5.4-32.4-2.1-44.4,9.9
		s-15.3,29.4-9.9,44.4l21.3-21.3c2.7-2.7,7-2.7,9.7,0l15.9,15.9c2.7,2.7,2.7,7,0,9.7l-21.3,21.3c15,5.4,32.4,2.1,44.4-9.9
		s15.3-29.4,9.9-44.4l19.2-19.2"/>
	<path class="st19" d="M3006.6,14.1l-50.9-54.6c-8.9-8.9-23.4-8.9-32.4,0c-8.2,8.2-8.9,21.2-1.9,30.2l-17.9,11.2
		c0,0-28.2-42.3,4-74.5c11.2-11.2,22.2-22.2,31.5-31.5c3,0.5,6.3,1.1,9.1,1.5c2.8,0.5,5.2-1.9,4.7-4.7l-1.5-9.1L2966-132l40.7,40.7
		L2992.3-77c-4.2-4.2-11.1-4.2-15.4,0c-4.2,4.2-4.2,11.1,0,15.4l112.7,105.1c0.8,0.7,1.5,1.4,2.2,2.2c6.1,7.1,6.5,17.9,0.8,25.4
		c-7.6,10.1-22.1,10.9-30.7,2.2c-0.3-0.3-0.7-0.7-1-1.1l-36.5-39.2"/>
</g>
<g>
	<path class="st19" d="M3472.6,46.1l-19.2,19.2c5.4,15,2.1,32.4-9.9,44.4s-29.4,15.3-44.4,9.9l21.3-21.3c2.7-2.7,2.7-7,0-9.7
		l-15.9-15.9c-2.7-2.7-7-2.7-9.7,0l-21.3,21.3c-5.4-15-2.1-32.4,9.9-44.4s29.4-15.3,44.4-9.9l65-65c-5.4-15-2.1-32.4,9.9-44.4
		s29.4-15.3,44.4-9.9l-21.3,21.3c-2.7,2.7-2.7,7,0,9.7l15.9,15.9c2.7,2.7,7,2.7,9.7,0l21.3-21.3c5.4,15,2.1,32.4-9.9,44.4
		s-29.4,15.3-44.4,9.9"/>
	<path class="st19" d="M3472.6,46.1l-50.9-54.6c-8.9-8.9-23.4-8.9-32.4,0c-8.2,8.2-8.9,21.2-1.9,30.2l-17.9,11.2
		c0,0-28.2-42.3,4-74.5c11.2-11.2,22.2-22.2,31.5-31.5c3,0.5,6.3,1.1,9.1,1.5c2.8,0.5,5.2-1.9,4.7-4.7l-1.5-9.1L3432-100l40.7,40.7
		L3458.3-45c-4.2-4.2-11.1-4.2-15.4,0s-4.2,11.1,0,15.4l112.7,105.1c0.8,0.7,1.5,1.4,2.2,2.2c6.1,7.1,6.5,17.9,0.8,25.4
		c-7.6,10.1-22.1,10.9-30.7,2.2c-0.3-0.3-0.7-0.7-1-1.1l-36.5-39.2l-0.7,81.4c-64.4,25.3-133,9.1-185.1-42.9
		c-70-70-70-183.6,0-253.6c70-70,183.6-70,253.6,0c52,52,65.4,128.1,40.1,192.5"/>
</g>
<g>
	<path class="st20" d="M-114.4,7.9V6.6c0-0.5-0.4-0.9-0.9-0.9h-11.8l-3.5-3.5h-8.3c-1,0-1.8,0.8-1.8,1.8v21.8l5.5-15
		c0.1-0.4,0.5-0.6,0.9-0.6h21.7c0.6,0,1.1,0.6,0.9,1.2l-5,13.8c-0.1,0.4-0.5,0.6-0.9,0.6h-19.9"/>
</g>
<g>
	<path class="st21" d="M-186.7,21.4c-5.1-3-8.6-8.6-8.6-15c0-9.6,7.8-17.5,17.5-17.5c7,0,13,4.1,15.8,9.9"/>
	<path class="st21" d="M-162.1-1.2c1.1-0.3,2.3-0.5,3.5-0.5c7,0,12.7,5.7,12.7,12.7s-5.7,12.7-12.7,12.7c-1.7,0-3.4-0.3-4.9-1"/>
	<polyline class="st21" points="-163.4,22.8 -159.6,16.5 -170.1,16.5 -168.5,3.9 -180.1,23.8 -171.1,23.8 -173.1,39 -166.1,27.3 	
		"/>
</g>
<g>
	<path class="st22" d="M-89.9,14.1c-6.9,0-12.5-5.6-12.5-12.5c0-5,2.9-9.3,7.1-11.3"/>
	<path class="st22" d="M-95.3-9.8c-0.1-0.4-0.1-0.8-0.1-1.2c0-4.5,3.6-8.1,8.1-8.1c1.7,0,3.2,0.5,4.5,1.4"/>
	<path class="st22" d="M-82.7-17.8c3-4.6,8.2-7.6,14.1-7.6c9.2,0,16.7,7.4,16.9,16.5"/>
	<path class="st22" d="M-51.8-8.8c5.1,1.2,8.9,5.8,8.9,11.3c0,6.4-5.2,11.6-11.6,11.6"/>
	<path class="st22" d="M-83.2,14.1c0-5.9,4.7-10.6,10.6-10.6S-62,8.2-62,14.1s-4.7,10.6-10.6,10.6"/>
	<line class="st22" x1="-89.9" y1="14.1" x2="-83.2" y2="14.1"/>
	<path class="st22" d="M-80.6,14.1c1.4,0,2.6,1.2,2.6,2.6c0,1.4-1.2,2.6-2.6,2.6c-1.4,0-2.6-1.2-2.6-2.6"/>
	<line class="st22" x1="-83.2" y1="14.1" x2="-83.2" y2="16.7"/>
	<line class="st22" x1="-80.6" y1="14.1" x2="-83.2" y2="14.1"/>
	<line class="st22" x1="-74.6" y1="24.6" x2="-72.2" y2="27.5"/>
	<line class="st22" x1="-74.6" y1="24.6" x2="-72.2" y2="21.8"/>
</g>
<g>
	<path class="st23" d="M-136.9,57.3c-0.2-1.5,0.4-2.3,0.4-2.3c0.7-0.7,2.4-2.4,2.4-2.4l3.9,3.9l-2.2,2.4c0,0,0.8,1.6,2.7,3.5
		c1.9,1.9,3.5,2.7,3.5,2.7l2.4-2.2l3.9,3.9"/>
	<path class="st23" d="M-135.7,49.9c2.2-4.8,7.1-8.2,12.7-8.2c7.7,0,14,6.3,14,14s-6.3,14-14,14c-0.4,0-0.7,0-1.1,0"/>
	<g>
		<line class="st23" x1="-116.3" y1="47.9" x2="-120.8" y2="60.2"/>
		<polyline class="st23" points="-116.1,54.7 -112.6,54.7 -115,60.2 		"/>
		<g>
			<polyline class="st23" points="-121.6,53.3 -121.6,47.9 -124.4,51.8 -120.7,51.8 			"/>
			<path class="st23" d="M-125.7,53.3h-3.3l2.6-2.9c0.3-0.3,0.4-0.6,0.4-1c0-0.8-0.7-1.5-1.5-1.5c-0.8,0-1.5,0.7-1.5,1.5"/>
		</g>
	</g>
	<line class="st23" x1="-135.7" y1="49.9" x2="-136.6" y2="47.7"/>
	<line class="st23" x1="-135.7" y1="49.9" x2="-133.4" y2="49.4"/>
	<path class="st23" d="M-124.1,69.7c-6.7-0.5-12.1-5.8-12.8-12.4"/>
</g>
<circle class="st4" cx="12.4" cy="-50" r="23"/>
<path class="st8" d="M11-37.7h-0.5 M13.3-37.7h-0.5 M24.3-35.1H0.5c-1,0-1.7-0.8-1.7-1.7v-1.6c0-1,0.8-1.7,1.7-1.7h23.7
	c1,0,1.7,0.8,1.7,1.7v1.6C26-35.9,25.2-35.1,24.3-35.1z M11-42.7h-0.5 M13.3-42.7h-0.5 M11-47.8h-0.5 M13.3-47.8h-0.5 M11-52.9h-0.5
	 M13.3-52.9h-0.5 M11-58h-0.5 M13.3-58h-0.5 M24.3-40.2H0.5c-1,0-1.7-0.8-1.7-1.7v-1.6c0-1,0.8-1.7,1.7-1.7h23.7
	c1,0,1.7,0.8,1.7,1.7v1.6C26-41,25.2-40.2,24.3-40.2z M25.3-60.2L20-64.4c-0.3-0.3-0.7-0.4-1.1-0.4H5.9c-0.4,0-0.8,0.1-1.1,0.4
	l-5.3,4.2 M24.3-55.4H0.5c-1,0-1.7-0.8-1.7-1.7v-1.6c0-1,0.8-1.7,1.7-1.7h23.7c1,0,1.7,0.8,1.7,1.7v1.6C26-56.2,25.2-55.4,24.3-55.4
	z M24.3-55.4H0.5c-1,0-1.7,0.8-1.7,1.7v1.6c0,1,0.8,1.7,1.7,1.7h23.7c1,0,1.7-0.8,1.7-1.7v-1.6C26-54.6,25.2-55.4,24.3-55.4z
	 M24.3-45.3H0.5c-1,0-1.7-0.8-1.7-1.7v-1.6c0-1,0.8-1.7,1.7-1.7h23.7c1,0,1.7,0.8,1.7,1.7v1.6C26-46.1,25.2-45.3,24.3-45.3z"/>
<circle class="st4" cx="-61.9" cy="-59.1" r="23"/>
<path class="st24" d="M-51.2-70.8c0-0.4,0.3-0.8,0.8-0.8c0.4,0,0.8,0.3,0.8,0.8c0,0.4-0.3,0.8-0.8,0.8C-50.8-70-51.2-70.3-51.2-70.8
	z M-54.6-73.5c2.2-0.4,3.7-0.1,4.3,0.8c0.2,0.3,0.2,0.7,0.2,1.2 M-50.7-70.1c-1.2,2.2-4.4,5-8.4,7.3c-6,3.5-11.9,4.7-13,2.6
	c-0.5-0.9,0-2.4,1.4-4.1 M-51.9-66.7c0,5.3-4.3,9.6-9.6,9.6c-5.3,0-9.6-4.3-9.6-9.6c0-5.3,4.3-9.6,9.6-9.6
	C-56.2-76.4-51.9-72-51.9-66.7z M-68.7-41.9l-5.4-5.4c-0.2-0.2-0.2-0.4,0-0.6l1.7-1.7c0.2-0.2,0.4-0.2,0.6,0l5.4,5.4
	c0.2,0.2,0.2,0.4,0,0.6l-1.7,1.7C-68.2-41.7-68.5-41.7-68.7-41.9z M-66.6-44.7l8.7-2.1c0.7-0.2,1.4-0.5,1.9-1.1l5.9-5.9
	c0.2-0.2,0.2-0.5,0-0.7c-0.7-0.7-1.9-0.7-2.6,0l-4,4 M-71.2-49.1l2.6-2.6c0.7-0.7,1.8-1.2,2.8-1.2h6.3c0.3,0,0.5,0.2,0.5,0.5
	c0,1-0.8,1.8-1.8,1.8 M-64.3-50.5h7.6 M-56.1-54.4l-0.4-0.4c-0.7-0.7-1.9-0.7-2.6,0l-2,2 M-52.9-54.3l-0.4-0.4
	c-0.7-0.7-1.9-0.7-2.6,0l-4.2,4.2"/>
<g>
	<g>
		<path class="st6" d="M23.8,47.6C10.7,47.6,0,36.9,0,23.8C0,10.7,10.7,0,23.8,0s23.8,10.7,23.8,23.8C47.6,36.9,36.9,47.6,23.8,47.6
			z M23.8,1.7c-12.2,0-22.1,9.9-22.1,22.1c0,12.2,9.9,22.1,22.1,22.1S45.9,36,45.9,23.8C45.9,11.6,36,1.7,23.8,1.7z"/>
	</g>
	<path class="st25" d="M25,30.6c-0.4,0-0.8,0-1.2,0c-3.4,0-6.5-0.3-8.9-0.8c-1.3-0.3-2.3-0.6-3-1l0,5.3c0,0.2,0.6,0.8,3.2,1.4
		c2.3,0.5,5.4,0.8,8.7,0.8c0.6,0,1.1,0,1.7,0c-0.3-0.7-0.5-1.5-0.5-2.4V30.6z"/>
	<path class="st25" d="M30.7,25.5c0.8,0.4,2.7,1.3,5,1.4l0-5.1c-2.5,1.4-8.4,1.9-11.9,1.9c-3.5,0-9.4-0.4-11.9-1.8l0,5.3
		c0,0.2,0.6,0.8,3.2,1.4c2.3,0.5,5.4,0.8,8.7,0.8c0.4,0,0.8,0,1.2,0V27C27.7,26.9,29.8,26,30.7,25.5z"/>
	<path class="st25" d="M15.1,16c2.3,0.5,5.4,0.8,8.7,0.8c3.3,0,6.4-0.3,8.7-0.8c2.6-0.6,3.2-1.2,3.2-1.4v0c0,0,0,0,0,0
		c0-0.2-0.6-0.8-3.2-1.4c-2.3-0.5-5.4-0.8-8.7-0.8c-7.7,0-11.9,1.5-11.9,2.3v0C11.9,14.8,12.5,15.5,15.1,16z"/>
	<path class="st25" d="M32.7,17.1c-2.4,0.5-5.6,0.9-8.9,0.9c-3.3,0-6.5-0.3-8.9-0.8c-1.3-0.3-2.3-0.6-3-1l0,4.4
		c0,0.8,4.2,2.2,11.9,2.2c7.7,0,11.9-1.5,11.9-2.3l0-4.4C35,16.4,34,16.8,32.7,17.1z"/>
	<path class="st26" d="M36.9,34l0-5.9c0-0.1-0.1-0.3-0.1-0.4c0.1-0.2,0.1-0.4,0.1-0.6l0-5.9c0-0.1-0.1-0.3-0.1-0.4
		c0.1-0.2,0.1-0.4,0.1-0.6l0-5.9c0,0,0,0,0,0c0-1.1-1.3-1.9-4.1-2.5c-2.4-0.5-5.5-0.8-8.9-0.8l0,0.6l0-0.6c-4.5,0-13,0.8-13,3.4
		c0,0,0,0,0,0l0,5.9c0,0.2,0.1,0.4,0.1,0.6c-0.1,0.1-0.1,0.2-0.1,0.4l0,5.9c0,0.2,0,0.4,0.1,0.6c-0.1,0.1-0.1,0.2-0.1,0.4l0,5.9
		c0,1.1,1.3,1.9,4.1,2.5c2.3,0.5,5.4,0.8,8.7,0.8c0.1,0,0.2,0,0.3,0c0.7,0,1.5,0,2.3-0.1c-0.2-0.3-0.4-0.7-0.6-1.1
		c-0.5,0-1.1,0-1.7,0c-3.3,0-6.4-0.3-8.7-0.8c-2.6-0.6-3.2-1.2-3.2-1.4l0-5.3c0.7,0.4,1.7,0.7,3,1c2.4,0.5,5.5,0.8,8.9,0.8
		c0.4,0,0.8,0,1.2,0v-1.1c-0.4,0-0.8,0-1.2,0c-3.3,0-6.4-0.3-8.7-0.8c-2.6-0.6-3.2-1.2-3.2-1.4l0-5.3c2.5,1.4,8.4,1.8,11.9,1.8
		c3.5,0,9.4-0.5,11.9-1.9l0,5.1c0.2,0,0.4,0,0.6,0v6.8c0,0.5-0.1,1-0.2,1.4C36.6,34.9,36.9,34.5,36.9,34z M11.9,14.6
		c0-0.8,4.2-2.2,11.9-2.3c3.3,0,6.4,0.3,8.7,0.8c2.6,0.6,3.2,1.2,3.2,1.4c0,0,0,0,0,0v0c0,0.2-0.6,0.8-3.2,1.4
		c-2.3,0.5-5.4,0.8-8.7,0.8c-3.3,0-6.4-0.3-8.7-0.8C12.5,15.5,11.9,14.8,11.9,14.6L11.9,14.6z M23.8,22.7c-7.7,0-11.9-1.4-11.9-2.2
		l0-4.4c0.7,0.4,1.7,0.7,3,1c2.4,0.5,5.6,0.8,8.9,0.8c3.4,0,6.5-0.3,8.9-0.9c1.3-0.3,2.3-0.6,3-1l0,4.4
		C35.7,21.1,31.5,22.6,23.8,22.7z"/>
	<path class="st8" d="M30.7,40.9c-1.2-0.5-5.6-2.7-5.6-7.1V27c2.6-0.1,4.7-1,5.6-1.5c0.9,0.5,3,1.4,5.6,1.5v6.8
		C36.3,38.2,31.9,40.4,30.7,40.9z"/>
	<path class="st8" d="M33.1,35.8h-4.8v-3.5h4.8V35.8z M29.2,32.3v-1.4c0-0.8,0.7-1.5,1.5-1.5c0.8,0,1.5,0.7,1.5,1.5v1.4"/>
</g>
</svg>
