<?xml version="1.0" encoding="utf-8"?>
<!-- Generator: Adobe Illustrator 21.1.0, SVG Export Plug-In . SVG Version: 6.00 Build 0)  -->
<svg version="1.1" id="Layer_1" xmlns="http://www.w3.org/2000/svg" xmlns:xlink="http://www.w3.org/1999/xlink" x="0px" y="0px"
	 viewBox="0 0 47.6 47.6" style="enable-background:new 0 0 47.6 47.6;" xml:space="preserve">
<style type="text/css">
	.st0{fill:none;stroke:#662F8F;stroke-width:4;stroke-linecap:round;stroke-linejoin:round;stroke-miterlimit:10;}
	.st1{fill:#662F8F;}
	.st2{fill:none;stroke:#662F8F;stroke-width:2;stroke-linecap:round;stroke-linejoin:round;stroke-miterlimit:10;}
	.st3{fill:none;stroke:#FFFFFF;stroke-width:0.488;stroke-linecap:round;stroke-linejoin:round;stroke-miterlimit:10;}
	.st4{fill:none;stroke:#E73E51;stroke-width:1.6927;}
	.st5{fill:none;stroke:#E73E51;stroke-width:1.1285;stroke-linecap:round;stroke-linejoin:round;stroke-miterlimit:10;}
	.st6{fill:#E73E51;}
	
		.st7{clip-path:url(#SVGID_2_);fill:none;stroke:#E73E51;stroke-width:1.1285;stroke-linecap:round;stroke-linejoin:round;stroke-miterlimit:10;}
	.st8{fill:none;stroke:#EE4050;stroke-width:1.1285;stroke-linecap:round;stroke-linejoin:round;stroke-miterlimit:10;}
	.st9{fill:none;stroke:#FFFFFF;stroke-width:0.574;stroke-linecap:round;stroke-linejoin:round;stroke-miterlimit:10;}
	.st10{fill:none;stroke:#A491C4;stroke-width:0.5657;stroke-miterlimit:10;}
	.st11{fill:none;stroke:#F7F8F9;stroke-width:1.2708;stroke-miterlimit:10;}
	.st12{fill:url(#SVGID_3_);}
	.st13{fill:#9289C1;}
	.st14{fill:#F79F7C;}
	.st15{fill:#EF619B;}
	.st16{fill:#F28BB9;}
	.st17{fill:#FABEA9;}
	.st18{fill:#F37B8A;}
	.st19{fill:none;stroke:#633493;stroke-width:5.1599;stroke-linecap:round;stroke-linejoin:round;stroke-miterlimit:10;}
	.st20{fill:none;stroke:#FFFFFF;stroke-width:1.0098;stroke-linecap:round;stroke-linejoin:round;stroke-miterlimit:10;}
	.st21{fill:none;stroke:#662F8F;stroke-width:1.5111;stroke-linecap:round;stroke-linejoin:round;stroke-miterlimit:10;}
	.st22{fill:none;stroke:#662F8F;stroke-width:1.6611;stroke-linecap:round;stroke-linejoin:round;stroke-miterlimit:10;}
	.st23{fill:none;stroke:#662F8F;stroke-width:0.75;stroke-miterlimit:10;}
	.st24{fill:none;stroke:#E73E51;stroke-width:0.9998;stroke-linecap:round;stroke-linejoin:round;stroke-miterlimit:10;}
	.st25{fill:none;}
	.st26{fill:#EE4050;}
</style>
<g>
	<path class="st0" d="M-432.5-335.1c9.6-9.6,22.8-15.5,37.3-15.5"/>
	<path class="st0" d="M-418.1-320.7c5.9-5.9,14-9.5,23-9.5"/>
	<path class="st0" d="M-461.3-363.9c17.7-17.7,41.2-27.4,66.1-27.4c25,0,48.4,9.7,66.1,27.4"/>
	<path class="st0" d="M-343.4-349.5c-13.3-13.3-31.6-21.5-51.7-21.5c-20.2,0-38.5,8.2-51.7,21.5"/>
	<path class="st0" d="M-357.8-335.1c-9.6-9.6-22.8-15.5-37.3-15.5"/>
	<path class="st0" d="M-372.2-320.7c-5.9-5.9-14-9.5-23-9.5"/>
	<path class="st0" d="M-386.6-289.2c-2.2,2.2-5.2,3.5-8.6,3.5c-6.7,0-12.1-5.4-12.1-12.1s5.4-12.1,12.1-12.1c3.3,0,6.4,1.4,8.6,3.5"
		/>
	<path class="st0" d="M-343.4-349.5c4,4,4,10.4,0,14.4c-4,4-10.4,4-14.4,0"/>
	<path class="st0" d="M-418.1-320.7c-4,4-10.4,4-14.4,0c-4-4-4-10.4,0-14.4"/>
	<path class="st0" d="M-372.2-320.7c4,4,4,10.4,0,14.4c-4,4-10.4,4-14.4,0"/>
	<path class="st0" d="M-446.9-349.5c-4,4-10.4,4-14.4,0c-4-4-4-10.4,0-14.4"/>
</g>
<g>
	<path class="st1" d="M-249.4-401c-28.7,0-52,23.3-52,52s23.3,52,52,52s52-23.3,52-52S-220.7-401-249.4-401z M-249.4-300.7
		c-26.6,0-48.3-21.7-48.3-48.3s21.7-48.3,48.3-48.3s48.3,21.7,48.3,48.3S-222.7-300.7-249.4-300.7z"/>
	<path class="st1" d="M-212.8-354.8c-4.8-4.7-10.4-8.3-16.4-10.7c0-0.3,0.1-0.7,0.1-1c0-11.1-9-20.2-20.2-20.2s-20.2,9-20.2,20.2
		c0,0.6,0,1.1,0.1,1.7c-5.5,2.4-10.5,5.8-14.9,10.1c0,0-0.1,0.1-0.1,0.1c-1.2,1.2-1.8,2.8-1.8,4.5c0,1.7,0.7,3.4,1.9,4.6
		c2.6,2.5,6.7,2.5,9.3,0c0,0,0,0,0,0c3.2-3.1,6.8-5.6,10.8-7.4c2.3,2.5,5.2,4.5,8.5,5.5c-5,1.2-9.6,3.7-13.4,7.4
		c0,0-0.1,0.1-0.1,0.1c-1.3,1.2-1.9,2.9-1.9,4.6c0,1.7,0.7,3.4,1.9,4.6c2.6,2.5,6.7,2.5,9.3,0c0,0,0,0,0,0h0c3-2.9,7-4.5,11.3-4.5
		c4.3,0,8.3,1.6,11.3,4.5c0,0,0,0,0,0c0.8,0.8,1.2,1.8,1.2,2.8c0,1.1-0.4,2.1-1.2,2.8c-1.6,1.6-4.3,1.6-5.9,0c0,0-0.1-0.1-0.1-0.1
		c-1.4-1.3-3.3-2.1-5.3-2.1c-4.2,0-7.6,3.3-7.6,7.5c0,4.1,3.4,7.5,7.6,7.5c2,0,3.9-0.8,5.4-2.2c0.5-0.5,0.5-1.3,0-1.7
		c-0.5-0.5-1.3-0.5-1.7,0c-1,1-2.3,1.5-3.7,1.5c-2.8,0-5.2-2.2-5.2-5c0-2.8,2.3-5,5.2-5c1.4,0,2.7,0.5,3.7,1.5c0,0,0.1,0.1,0.1,0.1
		c2.6,2.4,6.7,2.4,9.2-0.1c1.3-1.2,1.9-2.9,1.9-4.6s-0.7-3.4-1.9-4.6c0,0,0,0,0,0c-3.5-3.4-8.1-5.2-13-5.2c-4.9,0-9.5,1.9-13,5.2
		c0,0,0,0,0,0c-1.6,1.6-4.3,1.6-5.9,0c-0.8-0.8-1.2-1.8-1.2-2.8c0-1,0.4-2,1.1-2.7c0,0,0.1-0.1,0.1-0.1c5-4.9,11.7-7.6,18.8-7.6
		c7.1,0,13.8,2.7,18.8,7.6c0,0,0,0,0,0c2.6,2.5,6.7,2.5,9.3,0c1.3-1.2,1.9-2.9,1.9-4.6c0-1.7-0.7-3.4-1.9-4.6c0,0,0,0,0,0
		c-3.6-3.5-7.7-6.2-12.1-8.1c1.5-2.2,2.5-4.8,3-7.5c5.5,2.3,10.6,5.7,15,9.9c0.5,0.5,1.3,0.5,1.7,0
		C-212.3-353.6-212.3-354.3-212.8-354.8z M-276.8-347.4C-276.8-347.4-276.8-347.4-276.8-347.4c-1.6,1.6-4.3,1.6-5.9,0
		c-0.8-0.8-1.2-1.8-1.2-2.8c0-1.1,0.4-2.1,1.2-2.8c0,0,0.1-0.1,0.1-0.1c4-3.9,8.5-6.9,13.5-9.2c0.6,2.7,1.7,5.2,3.3,7.4
		C-269.8-353.1-273.5-350.6-276.8-347.4z M-222.1-345.6C-222.1-345.6-222.1-345.6-222.1-345.6c0.8,0.8,1.2,1.8,1.2,2.8
		c0,1.1-0.4,2.1-1.2,2.8c-1.6,1.6-4.3,1.6-5.9,0c0,0,0,0,0,0c-4-3.9-9-6.5-14.4-7.7c3.3-1.2,6.1-3.2,8.4-5.8
		C-229.7-351.7-225.6-349-222.1-345.6z M-249.4-348.9c-9.8,0-17.7-7.9-17.7-17.7c0-9.8,7.9-17.7,17.7-17.7s17.7,7.9,17.7,17.7
		C-231.7-356.8-239.6-348.9-249.4-348.9z"/>
	<path class="st1" d="M-257-367.9h-1.9l0.1-3.7h5.6v-1.5h-7.1l-0.2,6.6h2.9c2.5,0,3.4,1.1,3.4,2.5c0,1.4-1,2.5-2.8,2.5
		c-1.3,0-2.5-0.6-3.4-1.6l-1,1c1.1,1.3,2.6,2,4.4,2c2.4,0,4.5-1.5,4.5-4.2C-252.5-366.1-254-367.9-257-367.9z"/>
	<path class="st1" d="M-243-367.1v1.5h3.9c-0.3,2.5-1.9,4.1-4.5,4.1c-2.8,0-4.9-2.1-4.9-5.1c0-3,2.2-5.1,5-5.1
		c1.6,0,2.9,0.7,3.8,1.7l1.2-1.2c-1.2-1.3-3-2.1-5-2.1c-3.9,0-6.7,2.8-6.7,6.7c0,4.2,3.2,6.7,6.6,6.7c3.9,0,6.3-3,6.3-6.7
		c0-0.1,0-0.3,0-0.4H-243z"/>
</g>
<g>
	<line class="st2" x1="-117.5" y1="-315.3" x2="-117.5" y2="-306.7"/>
	<path class="st2" d="M-131.2-306.7c-2.8,0-5.2-2.3-5.2-5.2v-77.8c0-2.8,2.3-5.2,5.2-5.2h69.9c2.8,0,5.2,2.3,5.2,5.2v77.8
		c0,2.8-2.3,5.2-5.2,5.2h-56.2"/>
	<path class="st2" d="M-117.5-315.3h-5c-2.8,0-5.2-2.3-5.2-5.2v-60.4c0-2.8,2.3-5.2,5.2-5.2h10.1c2.8,0,5.2,2.3,5.2,5.2v60.4"/>
	<g>
		<g>
			<circle class="st2" cx="-95.5" cy="-365.5" r="3.8"/>
			<circle class="st2" cx="-81.6" cy="-365.5" r="3.8"/>
			<circle class="st2" cx="-67.7" cy="-365.5" r="3.8"/>
			<circle class="st2" cx="-95.5" cy="-351.6" r="3.8"/>
			<circle class="st2" cx="-81.6" cy="-351.6" r="3.8"/>
			<circle class="st2" cx="-67.7" cy="-351.6" r="3.8"/>
			<circle class="st2" cx="-95.5" cy="-337.7" r="3.8"/>
			<circle class="st2" cx="-81.6" cy="-337.7" r="3.8"/>
			<circle class="st2" cx="-67.7" cy="-337.7" r="3.8"/>
			<circle class="st2" cx="-95.5" cy="-323.8" r="3.8"/>
			<circle class="st2" cx="-81.6" cy="-323.8" r="3.8"/>
			<circle class="st2" cx="-67.7" cy="-323.8" r="3.8"/>
		</g>
		<line class="st2" x1="-99.3" y1="-381.4" x2="-64" y2="-381.4"/>
	</g>
</g>
<g>
	<path class="st3" d="M-200.1-202.9v-1c0-2.7-2.1-4.9-4.8-5c-2.8-0.1-5.1,2.2-5.1,4.9l0,3.8h10.9c0.7,0,1.3,0.6,1.3,1.3v8.6
		c0,0.7-0.6,1.3-1.3,1.3h-2.7c-0.5,0-1-0.4-1.1-0.9l-0.8-3.2v0c0.6-0.5,0.9-1.2,0.8-2.1c-0.1-1-1-1.7-1.9-1.9
		c-1.3-0.1-2.5,0.9-2.5,2.2c0,0.7,0.3,1.3,0.8,1.7h0c0,0-0.5,2-0.8,3.2c-0.1,0.5-0.6,0.9-1.1,0.9h-2.7c-0.7,0-1.3-0.6-1.3-1.3v-8.6"
		/>
</g>
<g>
	<circle class="st4" cx="-81.9" cy="-195.6" r="23"/>
	<path class="st5" d="M-105.1-195.7l23.2-0.1 M-81.9-195.8v-23.1V-195.8z M-70.3-195.8c0,6.4-5.2,11.6-11.6,11.6
		c-6.4,0-11.7-5.2-11.7-11.6c0-6.4,5.2-11.6,11.7-11.6C-75.5-207.4-70.3-202.2-70.3-195.8z M-64.7-195.8c0,9.5-7.7,17.3-17.3,17.3
		c-9.5,0-17.3-7.7-17.3-17.3c0-9.5,7.7-17.3,17.3-17.3C-72.4-213-64.7-205.3-64.7-195.8z"/>
	<path class="st6" d="M-97.6-201.1c1.2,0,2.2-1,2.2-2.2c0-1.2-1-2.2-2.2-2.2c-1.2,0-2.2,1-2.2,2.2C-99.8-202-98.8-201.1-97.6-201.1"
		/>
</g>
<g>
	<circle class="st4" cx="-140.3" cy="-195.2" r="23"/>
	<path class="st5" d="M-129.5-202.5l7.1,7.2 M-129.5-202.5l-7.1,10.3 M-143.6-188.1l7.1-4.2 M-143.6-188.1l-7.1-9.5 M-157.7-192.6
		l7.1-4.9"/>
	<path class="st6" d="M-152.8-197.6c0-1.2,1-2.1,2.1-2.1s2.1,1,2.1,2.1c0,1.2-1,2.1-2.1,2.1S-152.8-196.4-152.8-197.6"/>
	<path class="st6" d="M-145.8-188.1c0-1.2,1-2.1,2.1-2.1s2.1,1,2.1,2.1c0,1.2-1,2.1-2.1,2.1S-145.8-186.9-145.8-188.1"/>
	<path class="st6" d="M-138.7-192.2c0-1.2,1-2.1,2.1-2.1c1.2,0,2.1,1,2.1,2.1c0,1.2-1,2.1-2.1,2.1
		C-137.8-190.1-138.7-191.1-138.7-192.2"/>
	<path class="st6" d="M-131.7-202.5c0-1.2,1-2.1,2.1-2.1c1.2,0,2.1,1,2.1,2.1c0,1.2-1,2.1-2.1,2.1
		C-130.7-200.4-131.7-201.3-131.7-202.5"/>
	<path class="st6" d="M-124.8-195.4c0-1.2,1-2.1,2.1-2.1c1.2,0,2.1,1,2.1,2.1c0,1.2-1,2.1-2.1,2.1
		C-123.8-193.3-124.8-194.3-124.8-195.4"/>
	<path class="st6" d="M-159.6-192.8c0-1.2,1-2.1,2.1-2.1c1.2,0,2.1,1,2.1,2.1c0,1.2-1,2.1-2.1,2.1
		C-158.6-190.7-159.6-191.6-159.6-192.8"/>
</g>
<g>
	<circle class="st4" cx="-32.1" cy="-235.9" r="23"/>
	<g>
		<defs>
			<path id="SVGID_1_" d="M-55.9-236.1c0,12.4,9.6,22.6,21.8,23.5h3.6c11.7-0.9,21.1-10.4,21.8-22.2v-2.7
				c-0.7-12.4-11-22.2-23.6-22.2C-45.4-259.7-55.9-249.2-55.9-236.1"/>
		</defs>
		<clipPath id="SVGID_2_">
			<use xlink:href="#SVGID_1_"  style="overflow:visible;"/>
		</clipPath>
		<path class="st7" d="M-9.4-204.6h-12.1c-0.5,0-0.9-0.4-0.9-0.9v-5.2c0-0.5,0.4-0.9,0.9-0.9h12.1c0.5,0,0.9,0.4,0.9,0.9v5.2
			C-8.4-205-8.8-204.6-9.4-204.6z M-23.3-204.6h-12.1c-0.5,0-0.9-0.4-0.9-0.9v-5.2c0-0.5,0.4-0.9,0.9-0.9h12.1
			c0.5,0,0.9,0.4,0.9,0.9v5.2C-22.4-205-22.8-204.6-23.3-204.6z M-37.2-204.6h-12.1c-0.5,0-0.9-0.4-0.9-0.9v-5.2
			c0-0.5,0.4-0.9,0.9-0.9h12.1c0.5,0,0.9,0.4,0.9,0.9v5.2C-36.3-205-36.7-204.6-37.2-204.6z M-51.2-204.6h-12.1
			c-0.5,0-0.9-0.4-0.9-0.9v-5.2c0-0.5,0.4-0.9,0.9-0.9h12.1c0.5,0,0.9,0.4,0.9,0.9v5.2C-50.3-205-50.7-204.6-51.2-204.6z
			 M-2.1-211.6h-12.1c-0.5,0-0.9-0.4-0.9-0.9v-5.2c0-0.5,0.4-0.9,0.9-0.9h12.1c0.5,0,0.9,0.4,0.9,0.9v5.2
			C-1.2-212.1-1.6-211.6-2.1-211.6z M-16.1-211.6h-12.1c-0.5,0-0.9-0.4-0.9-0.9v-5.2c0-0.5,0.4-0.9,0.9-0.9h12.1
			c0.5,0,0.9,0.4,0.9,0.9v5.2C-15.2-212.1-15.6-211.6-16.1-211.6z M-30-211.6h-12.1c-0.5,0-0.9-0.4-0.9-0.9v-5.2
			c0-0.5,0.4-0.9,0.9-0.9H-30c0.5,0,0.9,0.4,0.9,0.9v5.2C-29-212.1-29.5-211.6-30-211.6z M-44-211.6h-12.1c-0.5,0-0.9-0.4-0.9-0.9
			v-5.2c0-0.5,0.4-0.9,0.9-0.9H-44c0.5,0,0.9,0.4,0.9,0.9v5.2C-43-212.1-43.5-211.6-44-211.6z M-9.4-218.8h-12.1
			c-0.5,0-0.9-0.4-0.9-0.9v-5.2c0-0.5,0.4-0.9,0.9-0.9h12.1c0.5,0,0.9,0.4,0.9,0.9v5.2C-8.4-219.2-8.8-218.8-9.4-218.8z
			 M-23.3-218.8h-12.1c-0.5,0-0.9-0.4-0.9-0.9v-5.2c0-0.5,0.4-0.9,0.9-0.9h12.1c0.5,0,0.9,0.4,0.9,0.9v5.2
			C-22.4-219.2-22.8-218.8-23.3-218.8z M-37.2-218.8h-12.1c-0.5,0-0.9-0.4-0.9-0.9v-5.2c0-0.5,0.4-0.9,0.9-0.9h12.1
			c0.5,0,0.9,0.4,0.9,0.9v5.2C-36.3-219.2-36.7-218.8-37.2-218.8z M-51.2-218.8h-12.1c-0.5,0-0.9-0.4-0.9-0.9v-5.2
			c0-0.5,0.4-0.9,0.9-0.9h12.1c0.5,0,0.9,0.4,0.9,0.9v5.2C-50.3-219.2-50.7-218.8-51.2-218.8z M-2.1-225.8h-12.1
			c-0.5,0-0.9-0.4-0.9-0.9v-5.2c0-0.5,0.4-0.9,0.9-0.9h12.1c0.5,0,0.9,0.4,0.9,0.9v5.2C-1.2-226.2-1.6-225.8-2.1-225.8z
			 M-16.1-225.8h-12.1c-0.5,0-0.9-0.4-0.9-0.9v-5.2c0-0.5,0.4-0.9,0.9-0.9h12.1c0.5,0,0.9,0.4,0.9,0.9v5.2
			C-15.2-226.2-15.6-225.8-16.1-225.8z M-30-225.8h-12.1c-0.5,0-0.9-0.4-0.9-0.9v-5.2c0-0.5,0.4-0.9,0.9-0.9H-30
			c0.5,0,0.9,0.4,0.9,0.9v5.2C-29-226.2-29.5-225.8-30-225.8z M-44-225.8h-12.1c-0.5,0-0.9-0.4-0.9-0.9v-5.2c0-0.5,0.4-0.9,0.9-0.9
			H-44c0.5,0,0.9,0.4,0.9,0.9v5.2C-43-226.2-43.5-225.8-44-225.8z M-9.4-232.9h-12.1c-0.5,0-0.9-0.4-0.9-0.9v-5.2
			c0-0.5,0.4-0.9,0.9-0.9h12.1c0.5,0,0.9,0.4,0.9,0.9v5.2C-8.4-233.4-8.8-232.9-9.4-232.9z M-23.3-232.9h-12.1
			c-0.5,0-0.9-0.4-0.9-0.9v-5.2c0-0.5,0.4-0.9,0.9-0.9h12.1c0.5,0,0.9,0.4,0.9,0.9v5.2C-22.4-233.4-22.8-232.9-23.3-232.9z
			 M-37.2-232.9h-12.1c-0.5,0-0.9-0.4-0.9-0.9v-5.2c0-0.5,0.4-0.9,0.9-0.9h12.1c0.5,0,0.9,0.4,0.9,0.9v5.2
			C-36.3-233.4-36.7-232.9-37.2-232.9z M-51.2-232.9h-12.1c-0.5,0-0.9-0.4-0.9-0.9v-5.2c0-0.5,0.4-0.9,0.9-0.9h12.1
			c0.5,0,0.9,0.4,0.9,0.9v5.2C-50.3-233.4-50.7-232.9-51.2-232.9z"/>
	</g>
</g>
<circle class="st4" cx="29.7" cy="-210.5" r="23"/>
<path class="st8" d="M29.8-201.3c-1.2-0.5-5.6-2.7-5.6-7.1v-6.8c2.6-0.1,4.7-1,5.6-1.5c0.9,0.5,3,1.4,5.6,1.5v6.8
	C35.5-204,31-201.8,29.8-201.3z"/>
<path class="st8" d="M32.2-206.4h-4.8v-3.5h4.8V-206.4z M28.3-209.9v-1.4c0-0.8,0.7-1.5,1.5-1.5c0.8,0,1.5,0.7,1.5,1.5v1.4"/>
<path class="st8" d="M43.5-217.4l0-1.4c0-0.5-0.4-0.9-0.9-0.9l-12.3,0.1l-3.6-3.6l-8.6,0c-1,0-1.9,0.9-1.9,1.9l0.1,22.7h27.2V-217.4
	z"/>
<g>
	<circle class="st4" cx="96" cy="-206.1" r="23"/>
	<path class="st8" d="M106.4-197.3c0,1.8-1.5,3.3-3.3,3.3c-1.8,0-3.3-1.5-3.3-3.3c0-1.8,1.5-3.3,3.3-3.3
		C104.9-200.6,106.4-199.1,106.4-197.3z M102.3-198.2l0.8,2l1.5-3.9 M87.2-201.2h9.1 M87.2-204h14.7 M87.2-206.8h14.7 M87.2-209.7
		h14.7 M87.2-212.5h9.9 M87.2-215.3h9.9 M101.8-221h6.9v29.8H83.5V-221H101.8z"/>
</g>
<circle class="st4" cx="158.7" cy="-201.6" r="23"/>
<path class="st8" d="M158.5-196.4v1.1 M158.5-207.2v7.2 M158.5-215.8l-13.9,24.2h27.9L158.5-215.8z"/>
<circle class="st4" cx="232.3" cy="-201.3" r="23"/>
<path class="st8" d="M232.3-183.9c-2.4-1-11.4-5.4-11.4-14.4V-212c5.3-0.1,9.6-2,11.4-3c1.8,1,6,2.8,11.4,3v13.7
	C243.7-189.3,234.7-184.9,232.3-183.9z"/>
<path class="st8" d="M237.1-194.3h-9.8v-7.1h9.8V-194.3z M229.2-201.3v-2.8c0-1.6,1.3-3,3-3c1.6,0,3,1.3,3,3v2.8"/>
<g>
	<path class="st0" d="M358.1-223.3v-5.9c0-16.5-12.9-30.4-29.4-30.8c-17.1-0.5-31.1,13.2-31.1,30.2l0,23.2h67.2
		c4.2,0,7.7,3.5,7.7,7.7v53.1c0,4.2-3.5,7.7-7.7,7.7c0,0-10.2,0-16.8,0c-3.3,0-6.2-2.3-7-5.5l-4.8-19.9l0,0c3.6-2.9,5.8-7.6,5-12.7
		c-0.9-6-5.8-10.7-11.8-11.4c-8.2-0.9-15.1,5.5-15.1,13.5c0,4.3,2,8.2,5.2,10.6l0,0c0,0-3,12.4-4.8,19.9c-0.8,3.2-3.7,5.5-7,5.5
		h-16.8c-4.2,0-7.7-3.5-7.7-7.7V-199"/>
</g>
<g>
	<path class="st9" d="M233.7-134.2c1.7,0.6,3.7,0.2,5-1.1c1.4-1.4,1.7-3.3,1.1-5l-2.4,2.4c-0.3,0.3-0.8,0.3-1.1,0l-1.8-1.8
		c-0.3-0.3-0.3-0.8,0-1.1l2.4-2.4c-1.7-0.6-3.7-0.2-5,1.1c-1.4,1.4-1.7,3.3-1.1,5l-7.4,7.4c-1.7-0.6-3.7-0.2-5,1.1
		c-1.4,1.4-1.7,3.3-1.1,5l2.4-2.4c0.3-0.3,0.8-0.3,1.1,0l1.8,1.8c0.3,0.3,0.3,0.8,0,1.1l-2.4,2.4c1.7,0.6,3.7,0.2,5-1.1
		c1.4-1.4,1.7-3.3,1.1-5l2.2-2.2"/>
	<path class="st9" d="M228.5-129l-5.8-6.2c-1-1-2.7-1-3.7,0c-0.9,0.9-1,2.4-0.2,3.4l-2,1.3c0,0-3.2-4.8,0.5-8.5
		c1.3-1.3,2.5-2.5,3.6-3.6c0.3,0.1,0.7,0.1,1,0.2c0.3,0.1,0.6-0.2,0.5-0.5l-0.2-1l1.7-1.7l4.6,4.6l-1.6,1.6c-0.5-0.5-1.3-0.5-1.7,0
		c-0.5,0.5-0.5,1.3,0,1.7l12.8,11.9c0.1,0.1,0.2,0.2,0.2,0.2c0.7,0.8,0.7,2,0.1,2.9c-0.9,1.1-2.5,1.2-3.5,0.3c0,0-0.1-0.1-0.1-0.1
		l-4.2-4.4"/>
</g>
<g>
	<path class="st10" d="M549.4,183.8c-16.8,29.7-59.2,67.7-114.4,99.6c-81.9,47.3-161,63.4-176.8,36c-7.4-12.7,0.3-32.6,18.8-55"/>
	<path class="st10" d="M496.2,137.2c29.3-5.1,50.9-1.9,58.3,11c2.6,4.5,3.3,10,2.3,16.1"/>
	<circle class="st10" cx="554" cy="174.4" r="10.5"/>
	<circle class="st10" cx="402.6" cy="206" r="132"/>
</g>
<image style="overflow:visible;" width="1600" height="700" xlink:href="../Dropbox (Muuaaa)/Muuaaa Team Folder/Graphic Design_Gabriel/Neptuno/02 Design/images/slide-22.jpg"  transform="matrix(0.4158 0 0 0.4158 112.457 -308.6868)">
</image>
<image style="overflow:visible;" width="1078" height="516" xlink:href="datacenter-google-1078x516.jpg"  transform="matrix(1 0 0 1 238.7822 -949.6582)">
</image>
<g>
	<g>
		<g>
			<path class="st11" d="M1133,152.7c7.8-13.2,12.3-28.7,12.3-45.2c0-49.1-39.8-88.9-88.9-88.9c-49.1,0-88.9,39.8-88.9,88.9
				c0,16,4.2,30.9,11.6,43.9"/>
			<path class="st11" d="M989.4,165.7c16.3,18.8,40.3,30.7,67.2,30.7c26.8,0,50.9-11.9,67.2-30.7"/>
			<rect x="983.9" y="162.5" class="st11" width="45.9" height="3.2"/>
			<g>
				<rect x="979.2" y="147.4" class="st11" width="55.3" height="15.1"/>
				<line class="st11" x1="983.8" y1="151.6" x2="983.8" y2="158.2"/>
				<line class="st11" x1="987.3" y1="151.6" x2="987.3" y2="158.2"/>
				<line class="st11" x1="990.7" y1="151.6" x2="990.7" y2="158.2"/>
				<line class="st11" x1="994.2" y1="151.6" x2="994.2" y2="158.2"/>
				<line class="st11" x1="997.7" y1="151.6" x2="997.7" y2="158.2"/>
				<line class="st11" x1="1001.2" y1="151.6" x2="1001.2" y2="158.2"/>
				<circle class="st11" cx="1027.9" cy="154.9" r="2.3"/>
				<circle class="st11" cx="1019.9" cy="154.9" r="2.3"/>
				<circle class="st11" cx="1011.8" cy="154.9" r="2.3"/>
			</g>
			<path class="st11" d="M989,147.4v-19.6c0-1.2,1-2.2,2.2-2.2l0,0c1.2,0,2.2,1,2.2,2.2v19.6"/>
			<path class="st11" d="M983.1,115.4c2.1-2.1,5-3.4,8.1-3.4"/>
			<path class="st11" d="M985.3,118.6c1.5-1.5,3.6-2.4,5.9-2.4"/>
			<path class="st11" d="M987.6,121.7c0.9-0.9,2.2-1.5,3.6-1.5"/>
			<path class="st11" d="M999.4,115.4c-2.1-2.1-5-3.4-8.1-3.4"/>
			<path class="st11" d="M997.1,118.6c-1.5-1.5-3.6-2.4-5.9-2.4"/>
			<path class="st11" d="M994.9,121.7c-0.9-0.9-2.2-1.5-3.6-1.5"/>
			<path class="st11" d="M1020.3,147.4v-19.6c0-1.2,1-2.2,2.2-2.2l0,0c1.2,0,2.2,1,2.2,2.2v19.6"/>
			<path class="st11" d="M1014.4,115.4c2.1-2.1,5-3.4,8.1-3.4"/>
			<path class="st11" d="M1016.6,118.6c1.5-1.5,3.6-2.4,5.9-2.4"/>
			<path class="st11" d="M1018.9,121.7c0.9-0.9,2.2-1.5,3.6-1.5"/>
			<path class="st11" d="M1030.7,115.4c-2.1-2.1-5-3.4-8.1-3.4"/>
			<path class="st11" d="M1028.4,118.6c-1.5-1.5-3.6-2.4-5.9-2.4"/>
			<path class="st11" d="M1026.2,121.7c-0.9-0.9-2.2-1.5-3.6-1.5"/>
			<rect x="1040.9" y="56.7" class="st11" width="42.5" height="105.8"/>
			<rect x="1046.4" y="62.2" class="st11" width="31.4" height="8.2"/>
			<rect x="1046.4" y="70.4" class="st11" width="31.4" height="8.2"/>
			<rect x="1046.4" y="78.5" class="st11" width="31.4" height="8.2"/>
			<rect x="1046.4" y="86.7" class="st11" width="31.4" height="8.2"/>
			<rect x="1046.4" y="94.9" class="st11" width="31.4" height="8.2"/>
			<rect x="1046.4" y="103" class="st11" width="31.4" height="8.2"/>
			<rect x="1046.4" y="129.3" class="st11" width="31.4" height="23.2"/>
			<circle class="st11" cx="1061.8" cy="140.9" r="2.8"/>
			<g>
				<rect x="1046.4" y="118.2" class="st11" width="18.6" height="4.1"/>
				<rect x="1073.7" y="118.2" class="st11" width="4.1" height="4.1"/>
			</g>
			<line class="st11" x1="1059" y1="140.9" x2="1046.4" y2="140.9"/>
			<line class="st11" x1="1064.7" y1="140.9" x2="1077.3" y2="140.9"/>
			<rect x="1040.9" y="162.5" class="st11" width="42.5" height="3.2"/>
			<circle class="st11" cx="1112.6" cy="134.9" r="11.7"/>
			<circle class="st11" cx="1112.6" cy="134.9" r="6.4"/>
			<circle class="st11" cx="1112.6" cy="134.9" r="2.6"/>
			<line class="st11" x1="1112.6" y1="146.6" x2="1112.6" y2="152.7"/>
			<g>
				<rect x="1089.7" y="152.7" class="st11" width="44.1" height="9.8"/>
				<line class="st11" x1="1123.1" y1="157.6" x2="1100.4" y2="157.6"/>
			</g>
			<rect x="1093.4" y="162.5" class="st11" width="36.7" height="3.2"/>
		</g>
	</g>
</g>
<g>
	<linearGradient id="SVGID_3_" gradientUnits="userSpaceOnUse" x1="1194.5011" y1="-14.0849" x2="1316.7389" y2="-14.0849">
		<stop  offset="0" style="stop-color:#C558A0"/>
		<stop  offset="0.5945" style="stop-color:#7F3E93"/>
		<stop  offset="1" style="stop-color:#532E8B"/>
	</linearGradient>
	<path class="st12" d="M1285.5-36.2l31.3,17.6l-61.4,34.6l-60.9-34.6l30.8-17.5C1244-46.7,1266.8-46.8,1285.5-36.2z"/>
	<path class="st13" d="M1194.5-18.6v3.6l59.9,34.7c0.4,0.2,0.8,0.2,1.1,0l61.2-34.7v-3.7l-61.4,34.6L1194.5-18.6z"/>
	<path class="st14" d="M1280.3-66.9l36.4,20.5l-61.4,34.6l-60.9-34.6l36-20.4C1245.9-75.6,1264.8-75.6,1280.3-66.9z"/>
	<path class="st15" d="M1282-91.9l34.8,19.6l-61.4,34.6l-60.9-34.6l34.3-19.5C1245.3-101.1,1265.5-101.1,1282-91.9z"/>
	<path class="st16" d="M1194.5-72.3l0.1,3.6l59.7,34.7c0.4,0.2,0.8,0.2,1.2,0l61.2-34.7v-3.6l-61.4,34.6L1194.5-72.3z"/>
	<path class="st17" d="M1194.5-46.4l0.1,3.6l59.7,34.7c0.4,0.2,0.9,0.2,1.3,0l61.1-34.7v-3.6l-61.4,34.6L1194.5-46.4z"/>
</g>
<g>
	<g>
		<path class="st18" d="M1735.9-110.6l-76.2,129.5c-1.5,2.5,0.3,5.7,3.3,5.7h61.4c0.7,0,1.3,0.6,1.2,1.4L1712,127.1
			c-0.4,3.3,4,4.9,5.7,2l94.1-155.8c1.4-2.3-0.3-5.2-2.9-5.2h-74.4c-0.7,0-1.3-0.6-1.2-1.3l8-75.7
			C1741.6-112,1737.5-113.3,1735.9-110.6z"/>
	</g>
	<g>
		<g>
			<path class="st1" d="M1596.4-7.3c-28.5-17-50.1-44.3-59.4-76.2c-9.1-31-6.3-65.2,7.9-94.2c28.1-57.4,95.2-86.9,156.5-68.2
				c35.2,10.7,64.3,36.3,80.3,69.4c2,4.1,8.2,0.5,6.2-3.6c-14.9-30.8-40.8-55.3-72.4-68.3c-31.7-13-68.2-13.7-100.3-1.8
				c-29.8,11.1-55.3,32.3-71.4,59.7c-17.1,29-22.9,63.8-16.6,96.8c7.4,38.7,31.9,72.6,65.7,92.7C1596.8,1.2,1600.4-4.9,1596.4-7.3
				L1596.4-7.3z"/>
		</g>
	</g>
	<g>
		<g>
			<path class="st1" d="M1785.7-175c47.3-13.1,98.5,12.1,115.3,58.7c15.6,43.4-2.9,92.9-43.1,115.3c-25.3,14.1-55.7,15.3-82.5,4.6
				c-4.3-1.7-6.1,5.2-1.9,6.9c49.2,19.8,107.2-2.1,130.2-50.1c21.5-44.9,6.9-99.8-33.9-128.2c-25-17.4-56.8-22.2-86-14.1
				C1779.3-180.6,1781.2-173.7,1785.7-175L1785.7-175z"/>
		</g>
	</g>
	<g>
		<g>
			<path class="st1" d="M1777.5,8.8c9.8-16.3,19.7-32.6,29.5-48.9c1.4-2.3-0.4-5.4-3.1-5.4c-27.2,0-54.3,0-81.5,0
				c1.2,1.2,2.4,2.4,3.6,3.6c3.8-28.3,7.6-56.6,11.3-84.9c0.6-4.1,1.1-8.2,1.7-12.3c0.5-3.7-5-4.6-6.7-1.8
				c-10.1,17.3-20.1,34.5-30.2,51.8c-16.1,27.5-32.2,55.1-48.3,82.6c-3.7,6.4-7.5,12.8-11.2,19.2c-1.4,2.3,0.4,5.4,3.1,5.4
				c23,0,46.1,0,69.1,0c-1.2-1.2-2.4-2.4-3.6-3.6c-4.6,34.3-9.2,68.6-13.8,102.9c-0.6,4.8-1.3,9.6-1.9,14.4c-0.5,3.7,5,4.6,6.7,1.8
				c15.8-26.3,31.7-52.5,47.5-78.8c2.3-3.8,4.5-7.5,6.8-11.3c2.4-4-3.8-7.6-6.2-3.6c-15.8,26.3-31.7,52.5-47.5,78.8
				c-2.3,3.8-4.5,7.5-6.8,11.3c2.2,0.6,4.4,1.2,6.7,1.8c4.6-34.3,9.2-68.6,13.8-102.9c0.6-4.8,1.3-9.6,1.9-14.4
				c0.3-1.9-1.8-3.6-3.6-3.6c-23,0-46.1,0-69.1,0c1,1.8,2.1,3.6,3.1,5.4c10.1-17.3,20.1-34.5,30.2-51.8
				c16.1-27.5,32.2-55.1,48.3-82.6c3.7-6.4,7.5-12.8,11.2-19.2c-2.2-0.6-4.4-1.2-6.7-1.8c-3.8,28.3-7.6,56.6-11.3,84.9
				c-0.6,4.1-1.1,8.2-1.7,12.3c-0.3,1.9,1.8,3.6,3.6,3.6c27.2,0,54.3,0,81.5,0c-1-1.8-2.1-3.6-3.1-5.4
				c-9.8,16.3-19.7,32.6-29.5,48.9C1769,9.1,1775.1,12.7,1777.5,8.8L1777.5,8.8z"/>
		</g>
	</g>
</g>
<g>
	<g>
		<path class="st18" d="M2666.9-18.4h-73.2c-5.1,0-9.3,4.2-9.3,9.3v51.7c0,5.1,4.2,9.3,9.3,9.3h73.2c5.1,0,9.3-4.2,9.3-9.3V-9.1
			C2676.2-14.2,2672-18.4,2666.9-18.4z M2642.2,35.8c0.3,1.2-0.6,2.3-1.8,2.3h-20.1c-1.2,0-2.1-1.1-1.8-2.3L2623,17
			c-2.8-2.2-4.7-5.6-4.7-9.5c0-7.5,6.8-13.4,14.6-11.8c4.7,1,8.4,4.8,9.2,9.5c0.9,4.8-1.1,9.1-4.5,11.8L2642.2,35.8z"/>
	</g>
</g>
<g>
	<path class="st18" d="M2741.9-169.9l-53.6,10.6c-0.6,0.1-1.3-0.1-1.7-0.6l-27.2-30.3c-1-1.1-0.4-2.8,1-3.1l73.9-14.6
		c1-0.2,2,0.5,2.2,1.5l6.9,34.3C2743.6-171.1,2742.9-170.1,2741.9-169.9z"/>
</g>
<g>
	<path class="st18" d="M2507.6-169.9l53.6,10.6c0.6,0.1,1.3-0.1,1.7-0.6l27.2-30.3c1-1.1,0.4-2.8-1-3.1l-73.9-14.6
		c-1-0.2-2,0.5-2.2,1.5l-6.9,34.3C2506-171.1,2506.6-170.1,2507.6-169.9z"/>
</g>
<g>
	<g>
		<path class="st18" d="M2714.4-101.3c-49.5,0-85.9-23.3-85.9-23.3s-36.4,23.3-85.9,23.3h-8.2V9.4c0,83.8,94.1,116.3,94.1,116.3
			s94.1-32.4,94.1-116.3v-110.7H2714.4z M2709.7,9.4c0,63.9-64.1,95.2-81.3,102.4c-17.2-7.2-81.3-38.5-81.3-102.4v-97.9
			c38.1-1,68.2-14.5,81.3-21.4c13,6.9,43.1,20.3,81.3,21.4V9.4z"/>
	</g>
</g>
<circle class="st19" cx="2532.2" cy="-144.9" r="8.3"/>
<line class="st19" x1="2532.2" y1="-153.2" x2="2532.2" y2="-169.9"/>
<line class="st19" x1="2523.9" y1="-144.9" x2="2452.9" y2="-144.9"/>
<line class="st19" x1="2517" y1="-201.8" x2="2540.5" y2="-197.1"/>
<polyline class="st19" points="2580.7,-189.2 2589.6,-187.4 2586.2,-170.2 2567,-174 "/>
<polygon class="st19" points="2502.1,-175.8 2558.6,-164.6 2588.7,-198.2 2509.7,-213.8 "/>
<circle class="st19" cx="2717.3" cy="-144.9" r="8.3"/>
<path class="st19" d="M2717.3-153.2v-16.7V-153.2z"/>
<path class="st19" d="M2725.7-144.9h71H2725.7z"/>
<line class="st19" x1="2732.5" y1="-201.8" x2="2709" y2="-197.1"/>
<polygon class="st19" points="2668.9,-189.2 2659.9,-187.4 2663.4,-170.2 2682.6,-174 "/>
<polygon class="st19" points="2747.4,-175.8 2691,-164.6 2660.8,-198.2 2739.8,-213.8 "/>
<path class="st19" d="M2696.3,70.8c63.4-27.6,107.7-90.9,107.7-164.5c0-99-80.3-179.3-179.3-179.3s-179.3,80.3-179.3,179.3
	c0,73.6,44.3,136.8,107.7,164.5"/>
<path class="st19" d="M2624.8,122c0,0,94.1-32.4,94.1-116.3V-105h-8.2c-49.5,0-85.9-23.3-85.9-23.3s-36.4,23.3-85.9,23.3h-8.2V5.7
	C2530.6,89.5,2624.8,122,2624.8,122z"/>
<path class="st19" d="M2624.8,108.2c-17.2-7.2-81.3-38.5-81.3-102.4v-97.9c38.1-1,68.2-14.5,81.3-21.4c13,6.9,43.1,20.3,81.3,21.4
	V5.7C2706,69.6,2642,100.9,2624.8,108.2z"/>
<path class="st19" d="M2661.4,46.3h-73.2c-5.1,0-9.3-4.2-9.3-9.3v-51.7c0-5.1,4.2-9.3,9.3-9.3h73.2c5.1,0,9.3,4.2,9.3,9.3V37
	C2670.6,42.2,2666.5,46.3,2661.4,46.3z"/>
<path class="st19" d="M2636.6,30.2l-4.5-18.8c3.4-2.6,5.4-7,4.5-11.8c-0.9-4.7-4.6-8.5-9.2-9.5c-7.8-1.6-14.6,4.3-14.6,11.8
	c0,3.9,1.9,7.3,4.7,9.5l-4.5,18.8c-0.3,1.2,0.6,2.3,1.8,2.3h20.1C2636,32.5,2636.9,31.4,2636.6,30.2z"/>
<path class="st19" d="M2655.8-24c0,0,0-23.8,0-23.8c0-17.1-13.9-31-31-31c-17.1,0-31,13.9-31,31V-24H2655.8z"/>
<path class="st19" d="M3118.3,70.8c63.4-27.6,107.7-90.9,107.7-164.5c0-99-80.3-179.3-179.3-179.3s-179.3,80.3-179.3,179.3
	c0,73.6,44.3,136.8,107.7,164.5"/>
<g>
	<path class="st19" d="M3095.1-104.4c15,5.4,32.4,2.1,44.4-9.9s15.3-29.4,9.9-44.4l-21.3,21.3c-2.7,2.7-7,2.7-9.7,0l-15.9-15.9
		c-2.7-2.7-2.7-7,0-9.7l21.3-21.3c-15-5.4-32.4-2.1-44.4,9.9s-15.3,29.4-9.9,44.4l-65,65c-15-5.4-32.4-2.1-44.4,9.9
		s-15.3,29.4-9.9,44.4l21.3-21.3c2.7-2.7,7-2.7,9.7,0L2997-16c2.7,2.7,2.7,7,0,9.7L2975.8,15c15,5.4,32.4,2.1,44.4-9.9
		s15.3-29.4,9.9-44.4l19.2-19.2"/>
	<path class="st19" d="M3049.2-58.5l-50.9-54.6c-8.9-8.9-23.4-8.9-32.4,0c-8.2,8.2-8.9,21.2-1.9,30.2l-17.9,11.2
		c0,0-28.2-42.3,4-74.5c11.2-11.2,22.2-22.2,31.5-31.5c3,0.5,6.3,1.1,9.1,1.5c2.8,0.5,5.2-1.9,4.7-4.7l-1.5-9.1l14.6-14.6l40.7,40.7
		l-14.4,14.4c-4.2-4.2-11.1-4.2-15.4,0s-4.2,11.1,0,15.4l112.7,105.1c0.8,0.7,1.5,1.4,2.2,2.2c6.1,7.1,6.5,17.9,0.8,25.4
		c-7.6,10.1-22.1,10.9-30.7,2.2c-0.3-0.3-0.7-0.7-1-1.1L3067-39.5"/>
</g>
<g>
	<path class="st19" d="M3515.3-26.5l-19.2,19.2c5.4,15,2.1,32.4-9.9,44.4s-29.4,15.3-44.4,9.9l21.3-21.3c2.7-2.7,2.7-7,0-9.7
		l-15.9-15.9c-2.7-2.7-7-2.7-9.7,0l-21.3,21.3c-5.4-15-2.1-32.4,9.9-44.4s29.4-15.3,44.4-9.9l65-65c-5.4-15-2.1-32.4,9.9-44.4
		s29.4-15.3,44.4-9.9l-21.3,21.3c-2.7,2.7-2.7,7,0,9.7l15.9,15.9c2.7,2.7,7,2.7,9.7,0l21.3-21.3c5.4,15,2.1,32.4-9.9,44.4
		s-29.4,15.3-44.4,9.9"/>
	<path class="st19" d="M3515.2-26.5l-50.9-54.6c-8.9-8.9-23.4-8.9-32.4,0c-8.2,8.2-8.9,21.2-1.9,30.2l-17.9,11.2
		c0,0-28.2-42.3,4-74.5c11.2-11.2,22.2-22.2,31.5-31.5c3,0.5,6.3,1.1,9.1,1.5c2.8,0.5,5.2-1.9,4.7-4.7l-1.5-9.1l14.6-14.6l40.7,40.7
		l-14.4,14.4c-4.2-4.2-11.1-4.2-15.4,0c-4.2,4.2-4.2,11.1,0,15.4L3598.2,2.9c0.8,0.7,1.5,1.4,2.2,2.2c6.1,7.1,6.5,17.9,0.8,25.4
		c-7.6,10.1-22.1,10.9-30.7,2.2c-0.3-0.3-0.7-0.7-1-1.1L3533-7.5l-0.7,81.4c-64.4,25.3-133,9.1-185.1-42.9c-70-70-70-183.6,0-253.6
		c70-70,183.6-70,253.6,0c52,52,65.4,128.1,40.1,192.5"/>
</g>
<g>
	<path class="st20" d="M-71.8-64.7v-1.3c0-0.5-0.4-0.9-0.9-0.9h-11.8l-3.5-3.5h-8.3c-1,0-1.8,0.8-1.8,1.8v21.8l5.5-15
		c0.1-0.4,0.5-0.6,0.9-0.6h21.7c0.6,0,1.1,0.6,0.9,1.2l-5,13.8c-0.1,0.4-0.5,0.6-0.9,0.6h-19.9"/>
</g>
<g>
	<path class="st21" d="M-144.1-51.3c-5.1-3-8.6-8.6-8.6-15c0-9.6,7.8-17.5,17.5-17.5c7,0,13,4.1,15.8,9.9"/>
	<path class="st21" d="M-119.5-73.8c1.1-0.3,2.3-0.5,3.5-0.5c7,0,12.7,5.7,12.7,12.7s-5.7,12.7-12.7,12.7c-1.7,0-3.4-0.3-4.9-1"/>
	<polyline class="st21" points="-120.8,-49.8 -117,-56.2 -127.5,-56.2 -125.8,-68.7 -137.5,-48.9 -128.5,-48.9 -130.5,-33.7 
		-123.5,-45.3 	"/>
</g>
<g>
	<path class="st22" d="M-47.3-58.6c-6.9,0-12.5-5.6-12.5-12.5c0-5,2.9-9.3,7.1-11.3"/>
	<path class="st22" d="M-52.7-82.4c-0.1-0.4-0.1-0.8-0.1-1.2c0-4.5,3.6-8.1,8.1-8.1c1.7,0,3.2,0.5,4.5,1.4"/>
	<path class="st22" d="M-40.1-90.4c3-4.6,8.2-7.6,14.1-7.6c9.2,0,16.7,7.4,16.9,16.5"/>
	<path class="st22" d="M-9.1-81.5c5.1,1.2,8.9,5.8,8.9,11.3c0,6.4-5.2,11.6-11.6,11.6"/>
	<path class="st22" d="M-40.6-58.6c0-5.9,4.7-10.6,10.6-10.6s10.6,4.7,10.6,10.6S-24.2-48-30-48"/>
	<line class="st22" x1="-47.3" y1="-58.6" x2="-40.6" y2="-58.6"/>
	<path class="st22" d="M-38-58.6c1.4,0,2.6,1.2,2.6,2.6s-1.2,2.6-2.6,2.6s-2.6-1.2-2.6-2.6"/>
	<line class="st22" x1="-40.6" y1="-58.6" x2="-40.6" y2="-56"/>
	<line class="st22" x1="-38" y1="-58.6" x2="-40.6" y2="-58.6"/>
	<line class="st22" x1="-32" y1="-48" x2="-29.6" y2="-45.1"/>
	<line class="st22" x1="-32" y1="-48" x2="-29.6" y2="-50.9"/>
</g>
<g>
	<path class="st23" d="M-94.3-15.4c-0.2-1.5,0.4-2.3,0.4-2.3c0.7-0.7,2.4-2.4,2.4-2.4l3.9,3.9l-2.2,2.4c0,0,0.8,1.6,2.7,3.5
		c1.9,1.9,3.5,2.7,3.5,2.7l2.4-2.2l3.9,3.9"/>
	<path class="st23" d="M-93.1-22.8c2.2-4.8,7.1-8.2,12.7-8.2c7.7,0,14,6.3,14,14s-6.3,14-14,14c-0.4,0-0.7,0-1.1,0"/>
	<g>
		<line class="st23" x1="-73.7" y1="-24.8" x2="-78.2" y2="-12.5"/>
		<polyline class="st23" points="-73.5,-17.9 -70,-17.9 -72.4,-12.5 		"/>
		<g>
			<polyline class="st23" points="-79,-19.3 -79,-24.8 -81.8,-20.8 -78.1,-20.8 			"/>
			<path class="st23" d="M-83.1-19.3h-3.3l2.6-2.9c0.3-0.3,0.4-0.6,0.4-1c0-0.8-0.7-1.5-1.5-1.5c-0.8,0-1.5,0.7-1.5,1.5"/>
		</g>
	</g>
	<line class="st23" x1="-93.1" y1="-22.8" x2="-93.9" y2="-24.9"/>
	<line class="st23" x1="-93.1" y1="-22.8" x2="-90.8" y2="-23.2"/>
	<path class="st23" d="M-81.5-3c-6.7-0.5-12.1-5.8-12.8-12.4"/>
</g>
<circle class="st4" cx="55" cy="-122.6" r="23"/>
<path class="st8" d="M53.6-110.3h-0.5 M55.9-110.3h-0.5 M66.9-107.8H43.1c-1,0-1.7-0.8-1.7-1.7v-1.6c0-1,0.8-1.7,1.7-1.7h23.7
	c1,0,1.7,0.8,1.7,1.7v1.6C68.6-108.5,67.8-107.8,66.9-107.8z M53.6-115.4h-0.5 M55.9-115.4h-0.5 M53.6-120.5h-0.5 M55.9-120.5h-0.5
	 M53.6-125.5h-0.5 M55.9-125.5h-0.5 M53.6-130.6h-0.5 M55.9-130.6h-0.5 M66.9-112.8H43.1c-1,0-1.7-0.8-1.7-1.7v-1.6
	c0-1,0.8-1.7,1.7-1.7h23.7c1,0,1.7,0.8,1.7,1.7v1.6C68.6-113.6,67.8-112.8,66.9-112.8z M67.9-132.8l-5.3-4.2
	c-0.3-0.3-0.7-0.4-1.1-0.4H48.5c-0.4,0-0.8,0.1-1.1,0.4l-5.3,4.2 M66.9-128.1H43.1c-1,0-1.7-0.8-1.7-1.7v-1.6c0-1,0.8-1.7,1.7-1.7
	h23.7c1,0,1.7,0.8,1.7,1.7v1.6C68.6-128.9,67.8-128.1,66.9-128.1z M66.9-128.1H43.1c-1,0-1.7,0.8-1.7,1.7v1.6c0,1,0.8,1.7,1.7,1.7
	h23.7c1,0,1.7-0.8,1.7-1.7v-1.6C68.6-127.3,67.8-128.1,66.9-128.1z M66.9-117.9H43.1c-1,0-1.7-0.8-1.7-1.7v-1.6c0-1,0.8-1.7,1.7-1.7
	h23.7c1,0,1.7,0.8,1.7,1.7v1.6C68.6-118.7,67.8-117.9,66.9-117.9z"/>
<circle class="st4" cx="-19.3" cy="-131.7" r="23"/>
<path class="st24" d="M-8.5-143.4c0-0.4,0.3-0.8,0.8-0.8c0.4,0,0.8,0.3,0.8,0.8s-0.3,0.8-0.8,0.8C-8.2-142.6-8.5-143-8.5-143.4z
	 M-12-146.1c2.2-0.4,3.7-0.1,4.3,0.8c0.2,0.3,0.2,0.7,0.2,1.2 M-8.1-142.7c-1.2,2.2-4.4,5-8.4,7.3c-6,3.5-11.9,4.7-13,2.6
	c-0.5-0.9,0-2.4,1.4-4.1 M-9.2-139.4c0,5.3-4.3,9.6-9.6,9.6c-5.3,0-9.6-4.3-9.6-9.6c0-5.3,4.3-9.6,9.6-9.6
	C-13.6-149-9.2-144.7-9.2-139.4z M-26-114.6l-5.4-5.4c-0.2-0.2-0.2-0.4,0-0.6l1.7-1.7c0.2-0.2,0.4-0.2,0.6,0l5.4,5.4
	c0.2,0.2,0.2,0.4,0,0.6l-1.7,1.7C-25.6-114.4-25.9-114.4-26-114.6z M-24-117.4l8.7-2.1c0.7-0.2,1.4-0.5,1.9-1.1l5.9-5.9
	c0.2-0.2,0.2-0.5,0-0.7c-0.7-0.7-1.9-0.7-2.6,0l-4,4 M-28.6-121.7l2.6-2.6c0.7-0.7,1.8-1.2,2.8-1.2h6.3c0.3,0,0.5,0.2,0.5,0.5
	c0,1-0.8,1.8-1.8,1.8 M-21.7-123.1h7.6 M-13.5-127.1l-0.4-0.4c-0.7-0.7-1.9-0.7-2.6,0l-2,2 M-10.3-126.9l-0.4-0.4
	c-0.7-0.7-1.9-0.7-2.6,0l-4.2,4.2"/>
<g>
	<g>
		<path class="st6" d="M66.4-25c-13.1,0-23.8-10.7-23.8-23.8c0-13.1,10.7-23.8,23.8-23.8S90.2-62,90.2-48.8
			C90.2-35.7,79.6-25,66.4-25z M66.4-71C54.2-71,44.3-61,44.3-48.8c0,12.2,9.9,22.1,22.1,22.1s22.1-9.9,22.1-22.1
			C88.5-61,78.6-71,66.4-71z"/>
	</g>
	<path class="st25" d="M67.7-42.1c-0.4,0-0.8,0-1.2,0c-3.4,0-6.5-0.3-8.9-0.8c-1.3-0.3-2.3-0.6-3-1l0,5.3c0,0.2,0.6,0.8,3.2,1.4
		c2.3,0.5,5.4,0.8,8.7,0.8c0.6,0,1.1,0,1.7,0c-0.3-0.7-0.5-1.5-0.5-2.4V-42.1z"/>
	<path class="st25" d="M73.3-47.1c0.8,0.4,2.7,1.3,5,1.4l0-5.1c-2.5,1.4-8.4,1.9-11.9,1.9c-3.5,0-9.4-0.4-11.9-1.8l0,5.3
		c0,0.2,0.6,0.8,3.2,1.4c2.3,0.5,5.4,0.8,8.7,0.8c0.4,0,0.8,0,1.2,0v-2.4C70.3-45.7,72.4-46.6,73.3-47.1z"/>
	<path class="st25" d="M57.7-56.6c2.3,0.5,5.4,0.8,8.7,0.8c3.3,0,6.4-0.3,8.7-0.8c2.6-0.6,3.2-1.2,3.2-1.4v0c0,0,0,0,0,0
		c0-0.2-0.6-0.8-3.2-1.4c-2.3-0.5-5.4-0.8-8.7-0.8c-7.7,0-11.9,1.5-11.9,2.3v0C54.5-57.8,55.1-57.2,57.7-56.6z"/>
	<path class="st25" d="M75.3-55.6c-2.4,0.5-5.6,0.9-8.9,0.9c-3.3,0-6.5-0.3-8.9-0.8c-1.3-0.3-2.3-0.6-3-1l0,4.4
		c0,0.8,4.2,2.2,11.9,2.2c7.7,0,11.9-1.5,11.9-2.3l0-4.4C77.6-56.2,76.6-55.9,75.3-55.6z"/>
	<path class="st26" d="M79.5-38.6l0-5.9c0-0.1-0.1-0.3-0.1-0.4c0.1-0.2,0.1-0.4,0.1-0.6l0-5.9c0-0.1-0.1-0.3-0.1-0.4
		c0.1-0.2,0.1-0.4,0.1-0.6l0-5.9c0,0,0,0,0,0c0-1.1-1.3-1.9-4.1-2.5c-2.4-0.5-5.5-0.8-8.9-0.8l0,0.6l0-0.6c-4.5,0-13,0.8-13,3.4
		c0,0,0,0,0,0l0,5.9c0,0.2,0.1,0.4,0.1,0.6c-0.1,0.1-0.1,0.2-0.1,0.4l0,5.9c0,0.2,0,0.4,0.1,0.6c-0.1,0.1-0.1,0.2-0.1,0.4l0,5.9
		c0,1.1,1.3,1.9,4.1,2.5c2.3,0.5,5.4,0.8,8.7,0.8c0.1,0,0.2,0,0.3,0c0.7,0,1.5,0,2.3-0.1c-0.2-0.3-0.4-0.7-0.6-1.1
		c-0.5,0-1.1,0-1.7,0c-3.3,0-6.4-0.3-8.7-0.8c-2.6-0.6-3.2-1.2-3.2-1.4l0-5.3c0.7,0.4,1.7,0.7,3,1c2.4,0.5,5.5,0.8,8.9,0.8
		c0.4,0,0.8,0,1.2,0v-1.1c-0.4,0-0.8,0-1.2,0c-3.3,0-6.4-0.3-8.7-0.8c-2.6-0.6-3.2-1.2-3.2-1.4l0-5.3c2.5,1.4,8.4,1.8,11.9,1.8
		c3.5,0,9.4-0.5,11.9-1.9l0,5.1c0.2,0,0.4,0,0.6,0v6.8c0,0.5-0.1,1-0.2,1.4C79.2-37.8,79.5-38.2,79.5-38.6z M54.5-58
		c0-0.8,4.2-2.2,11.9-2.3c3.3,0,6.4,0.3,8.7,0.8c2.6,0.6,3.2,1.2,3.2,1.4c0,0,0,0,0,0v0c0,0.2-0.6,0.8-3.2,1.4
		c-2.3,0.5-5.4,0.8-8.7,0.8c-3.3,0-6.4-0.3-8.7-0.8C55.1-57.2,54.5-57.8,54.5-58L54.5-58z M66.4-50c-7.7,0-11.9-1.4-11.9-2.2l0-4.4
		c0.7,0.4,1.7,0.7,3,1c2.4,0.5,5.6,0.8,8.9,0.8c3.4,0,6.5-0.3,8.9-0.9c1.3-0.3,2.3-0.6,3-1l0,4.4C78.3-51.5,74.1-50,66.4-50z"/>
	<path class="st8" d="M73.3-31.7c-1.2-0.5-5.6-2.7-5.6-7.1v-6.8c2.6-0.1,4.7-1,5.6-1.5c0.9,0.5,3,1.4,5.6,1.5v6.8
		C78.9-34.4,74.5-32.2,73.3-31.7z"/>
	<path class="st8" d="M75.7-36.9h-4.8v-3.5h4.8V-36.9z M71.8-40.4v-1.4c0-0.8,0.7-1.5,1.5-1.5c0.8,0,1.5,0.7,1.5,1.5v1.4"/>
</g>
<g>
	<path class="st1" d="M-39.8,1.1c-13.1,0-23.8,10.7-23.8,23.8s10.7,23.8,23.8,23.8c13.1,0,23.8-10.7,23.8-23.8S-26.6,1.1-39.8,1.1z
		 M-39.8,47c-12.2,0-22.1-9.9-22.1-22.1s9.9-22.1,22.1-22.1c12.2,0,22.1,9.9,22.1,22.1S-27.6,47-39.8,47z"/>
	<path class="st1" d="M-49.2,28.9c-0.3-0.1-0.6,0.1-0.7,0.4l-0.9,4.1c-1.7-2-2.8-4.3-3.2-6.9c-0.6-3.7,0.3-7.3,2.5-10.3
		c2.2-3,5.4-4.9,9.1-5.5c1.8-0.3,3.7-0.2,5.5,0.2c0.3,0.1,0.6-0.1,0.7-0.4c0.1-0.3-0.1-0.6-0.4-0.7c-2-0.5-4-0.6-5.9-0.3
		c-4,0.6-7.4,2.7-9.8,6s-3.3,7.2-2.7,11.1c0.4,2.7,1.6,5.2,3.3,7.3l-3.8-0.8c-0.3-0.1-0.6,0.1-0.7,0.4c-0.1,0.3,0.1,0.6,0.4,0.7
		l5.1,1.1c0,0,0.1,0,0.1,0c0.2,0,0.4-0.1,0.5-0.3c0.1-0.1,0.2-0.2,0.2-0.3l1.1-5.1C-48.7,29.3-48.9,29-49.2,28.9z"/>
	<path class="st1" d="M-24,15.1l-5.1-0.9c-0.3,0-0.5,0.1-0.6,0.3c-0.1,0.1-0.2,0.2-0.2,0.3l-1,5.1c-0.1,0.3,0.1,0.6,0.5,0.7
		c0.3,0.1,0.6-0.1,0.7-0.5l0.8-4.1c1.8,1.9,2.9,4.2,3.4,6.8c0.7,3.6-0.1,7.3-2.1,10.4c-2.1,3.1-5.2,5.1-8.9,5.8
		c-1.6,0.3-3.2,0.3-4.7,0.1l9.2-15.5c0.1-0.2,0.1-0.4,0-0.6c-0.1-0.2-0.3-0.3-0.5-0.3h-6.9l1.1-8.3c0-0.3-0.1-0.5-0.4-0.6
		c-0.3-0.1-0.5,0-0.7,0.2l-8.3,14.2c-0.1,0.2-0.1,0.4,0,0.6c0.1,0.2,0.3,0.3,0.5,0.3h5.8l-0.8,6.4c0,0.3,0.2,0.6,0.5,0.6
		c0.3,0,0.6-0.2,0.6-0.5l0.9-7c0-0.2,0-0.3-0.1-0.4c-0.1-0.1-0.3-0.2-0.4-0.2h-5.4l6.4-10.9l-0.8,6.2c0,0.2,0,0.3,0.1,0.4
		c0.1,0.1,0.3,0.2,0.4,0.2h6.5l-9.1,15.3c0,0.1,0,0.1-0.1,0.2c0,0,0,0.1-0.1,0.1c-0.1,0.3,0.1,0.6,0.4,0.7c1,0.2,2.1,0.3,3.1,0.3
		c0.9,0,1.9-0.1,2.8-0.3c8.1-1.5,13.5-9.4,11.9-17.5c-0.5-2.7-1.7-5.2-3.5-7.2l3.8,0.7c0.3,0.1,0.6-0.1,0.7-0.5
		C-23.5,15.4-23.7,15.1-24,15.1z"/>
</g>
<g>
	<path class="st1" d="M23.8,47.6C10.7,47.6,0,36.9,0,23.8C0,10.7,10.7,0,23.8,0s23.8,10.7,23.8,23.8C47.6,36.9,36.9,47.6,23.8,47.6z
		 M23.8,1.7c-12.2,0-22.1,9.9-22.1,22.1c0,12.2,9.9,22.1,22.1,22.1S45.9,36,45.9,23.8C45.9,11.6,36,1.7,23.8,1.7z"/>
</g>
<g>
	<path class="st1" d="M22.5,36c-1.1,0-2-0.9-2-1.9c0,0,0,0,0,0v-0.7h-6.2c-4.1,0-7.5-3.2-7.5-7.1c0-2.6,1.5-5,3.9-6.2
		c0-0.1,0-0.2,0-0.3c0-2.7,2.3-4.8,5.1-4.8c0.8,0,1.6,0.2,2.3,0.5c1.9-2.4,4.8-3.8,7.9-3.8c5.2,0,9.5,3.9,9.9,8.8
		c2.9,0.8,4.9,3.4,4.9,6.4c0,3.7-3.1,6.6-7,6.6l-6.5,0c-0.3,0-0.6-0.3-0.6-0.6v-6.6c0-0.3,0.3-0.6,0.6-0.6H30l-5.9-5.4l-5.8,5.4h2.8
		c0.3,0,0.6,0.3,0.6,0.6v6.1h0.9c0,0,0.1,0,0.1,0c1,0.1,1.8,0.9,1.8,1.9C24.5,35.2,23.6,36,22.5,36z M21.7,34.2
		c0,0.4,0.4,0.8,0.9,0.8c0.5,0,0.9-0.4,0.9-0.8c0-0.4-0.4-0.8-0.9-0.8h-0.9L21.7,34.2C21.7,34.1,21.7,34.1,21.7,34.2z M27.9,32.2
		l6,0c3.2,0,5.8-2.5,5.8-5.5c0-2.5-1.8-4.7-4.4-5.3c-0.3,0-0.5-0.3-0.5-0.5c0,0,0,0,0,0c-0.1-4.5-4-8.1-8.8-8.1
		c-2.9,0-5.7,1.4-7.3,3.7c0,0.1-0.1,0.1-0.1,0.1c0,0,0,0,0,0s0,0,0,0h0c0,0,0,0,0,0c-0.1,0-0.1,0.1-0.2,0.1l0,0c0,0,0,0,0,0
		c-0.1,0-0.2,0-0.3,0c0,0,0,0,0,0l0,0c-0.1,0-0.1,0-0.2-0.1c-0.7-0.4-1.4-0.6-2.2-0.6c-2.2,0-3.9,1.7-3.9,3.7c0,0.2,0,0.4,0,0.6
		c0,0,0,0.1,0,0.1c0,0.1,0,0.2-0.1,0.2c0,0.1-0.1,0.1-0.2,0.2c0,0-0.1,0-0.1,0.1c-2.2,1-3.6,3.1-3.6,5.4c0,3.3,2.8,6,6.4,6h6.2v-5.5
		h-3.7c-0.2,0-0.4-0.1-0.5-0.4c-0.1-0.2,0-0.5,0.1-0.6l7.3-6.7c0.2-0.2,0.6-0.2,0.8,0l7.3,6.8c0.2,0.2,0.2,0.4,0.1,0.6
		c-0.1,0.2-0.3,0.4-0.5,0.4h-3.6V32.2z"/>
</g>
</svg>
