<?xml version="1.0" encoding="utf-8"?>
<!-- Generator: Adobe Illustrator 21.1.0, SVG Export Plug-In . SVG Version: 6.00 Build 0)  -->
<svg version="1.1" id="Layer_1" xmlns="http://www.w3.org/2000/svg" xmlns:xlink="http://www.w3.org/1999/xlink" x="0px" y="0px"
	 viewBox="0 0 47.6 47.6" style="enable-background:new 0 0 47.6 47.6;" xml:space="preserve">
<style type="text/css">
	.st0{fill:none;stroke:#E73E51;stroke-width:1.6927;}
	.st1{fill:none;stroke:#E73E51;stroke-width:1.1285;stroke-linecap:round;stroke-linejoin:round;stroke-miterlimit:10;}
	.st2{fill:none;stroke:#EE4050;stroke-width:1.1285;stroke-linecap:round;stroke-linejoin:round;stroke-miterlimit:10;}
	.st3{fill:#FFFFFF;}
</style>
<g>
	<circle class="st0" cx="-136.3" cy="20.8" r="23"/>
	<path class="st1" d="M-121.4,29.8c0,1.5-1.2,2.7-2.8,2.7c-1.5,0-2.8-1.2-2.8-2.7c0-1.5,1.2-2.7,2.8-2.7
		C-122.7,27.1-121.4,28.3-121.4,29.8z M-133.3,29.8c0,1.5-1.2,2.7-2.8,2.7c-1.5,0-2.8-1.2-2.8-2.7c0-1.5,1.3-2.7,2.8-2.7
		C-134.6,27.1-133.3,28.3-133.3,29.8z M-145.3,29.8c0,1.5-1.3,2.7-2.8,2.7c-1.5,0-2.8-1.2-2.8-2.7c0-1.5,1.3-2.7,2.8-2.7
		C-146.6,27.1-145.3,28.3-145.3,29.8z M-136.2,27.1v-5.5 M-148.1,27.1v-3.5h12h12v3.5 M-133.7,12.5c0,1.3-1.1,2.4-2.5,2.4
		s-2.5-1.1-2.5-2.4c0-1.3,1.1-2.4,2.5-2.4S-133.7,11.2-133.7,12.5z M-131.8,12.3c0,2.4-4.4,9.3-4.4,9.3s-4.4-6.9-4.4-9.3
		c0-2.4,2-4.3,4.4-4.3C-133.7,8.1-131.8,10-131.8,12.3z"/>
</g>
<g>
	<circle class="st0" cx="-80.8" cy="21.5" r="23"/>
	<path class="st2" d="M-78.9,15.2l9.9,10.9 M-82.6,15.2l-9.9,10.9 M-80.8,15.9v9.4 M-69.9,28.1c0-1.5,1.2-2.8,2.7-2.8
		c1.5,0,2.7,1.2,2.7,2.8c0,1.5-1.2,2.8-2.7,2.8C-68.7,30.9-69.9,29.6-69.9,28.1z M-97.1,28.1c0-1.5,1.2-2.8,2.7-2.8
		c1.5,0,2.7,1.2,2.7,2.8c0,1.5-1.2,2.8-2.7,2.8C-95.8,30.9-97.1,29.6-97.1,28.1z M-83.5,28.1c0-1.5,1.2-2.8,2.7-2.8
		c1.5,0,2.7,1.2,2.7,2.8c0,1.5-1.2,2.8-2.7,2.8C-82.2,30.9-83.5,29.6-83.5,28.1z M-83.5,13.2c0-1.5,1.2-2.8,2.7-2.8
		c1.5,0,2.7,1.2,2.7,2.8c0,1.5-1.2,2.8-2.7,2.8C-82.2,15.9-83.5,14.7-83.5,13.2z"/>
</g>
<g>
	<path class="st3" d="M23.8,0C10.7,0,0,10.7,0,23.8s10.7,23.8,23.8,23.8c13.1,0,23.8-10.7,23.8-23.8S36.9,0,23.8,0z M23.8,45.9
		C11.6,45.9,1.7,36,1.7,23.8S11.6,1.7,23.8,1.7c12.2,0,22.1,9.9,22.1,22.1S36,45.9,23.8,45.9z"/>
	<path class="st3" d="M40.5,21.7c-2.2-2.1-4.8-3.8-7.5-4.9c0-0.2,0-0.3,0-0.5c0-5.1-4.1-9.2-9.2-9.2s-9.2,4.1-9.2,9.2
		c0,0.3,0,0.5,0,0.8c-2.5,1.1-4.8,2.6-6.8,4.6c0,0,0,0,0,0c-0.5,0.6-0.8,1.3-0.8,2.1c0,0.8,0.3,1.5,0.9,2.1c1.2,1.1,3.1,1.1,4.3,0
		c0,0,0,0,0,0c1.5-1.4,3.1-2.5,5-3.4c1.1,1.2,2.4,2,3.9,2.5c-2.3,0.6-4.4,1.7-6.1,3.4c0,0,0,0,0,0c-0.6,0.6-0.9,1.3-0.9,2.1
		c0,0.8,0.3,1.5,0.9,2.1c1.2,1.1,3.1,1.1,4.3,0c0,0,0,0,0,0c1.4-1.3,3.2-2.1,5.2-2.1s3.8,0.7,5.2,2.1c0,0,0,0,0,0
		c0.4,0.3,0.6,0.8,0.6,1.3c0,0.5-0.2,0.9-0.6,1.3c-0.7,0.7-1.9,0.7-2.7,0c0,0,0,0-0.1,0c-0.7-0.6-1.5-0.9-2.4-0.9
		c-1.9,0-3.5,1.5-3.5,3.4c0,1.9,1.6,3.4,3.5,3.4c0.9,0,1.8-0.4,2.5-1c0.2-0.2,0.2-0.6,0-0.8c-0.2-0.2-0.6-0.2-0.8,0
		c-0.4,0.4-1,0.7-1.7,0.7c-1.3,0-2.4-1-2.4-2.3c0-1.3,1.1-2.3,2.4-2.3c0.6,0,1.2,0.2,1.7,0.7c0,0,0,0,0.1,0c1.2,1.1,3.1,1.1,4.2,0
		c0.6-0.6,0.9-1.3,0.9-2.1c0-0.8-0.3-1.5-0.9-2.1v0c-1.6-1.5-3.7-2.4-5.9-2.4s-4.4,0.9-5.9,2.4c0,0,0,0,0,0c-0.7,0.7-2,0.7-2.7,0
		c-0.4-0.3-0.6-0.8-0.6-1.3c0-0.5,0.2-0.9,0.5-1.3c0,0,0,0,0,0c2.3-2.3,5.4-3.5,8.6-3.5s6.3,1.2,8.6,3.5c0,0,0,0,0,0
		c1.2,1.1,3.1,1.2,4.3,0c0.6-0.6,0.9-1.3,0.9-2.1c0-0.8-0.3-1.5-0.9-2.1c0,0,0,0,0,0c-1.6-1.6-3.5-2.8-5.6-3.7
		c0.7-1,1.1-2.2,1.4-3.4c2.5,1.1,4.9,2.6,6.9,4.5c0.2,0.2,0.6,0.2,0.8,0C40.8,22.3,40.8,21.9,40.5,21.7z M11.3,25.1
		C11.3,25.1,11.3,25.1,11.3,25.1c-0.7,0.7-1.9,0.7-2.7,0C8.2,24.7,8,24.3,8,23.8c0-0.5,0.2-0.9,0.5-1.3c0,0,0,0,0,0
		c1.8-1.8,3.9-3.2,6.2-4.2c0.3,1.2,0.8,2.4,1.5,3.4C14.5,22.5,12.8,23.6,11.3,25.1z M36.3,25.9C36.3,25.9,36.3,25.9,36.3,25.9
		c0.4,0.3,0.6,0.8,0.6,1.3c0,0.5-0.2,0.9-0.5,1.3c-0.7,0.7-1.9,0.7-2.7,0c0,0,0,0,0,0c-1.8-1.8-4.1-3-6.6-3.5
		c1.5-0.5,2.8-1.5,3.8-2.6C32.8,23.2,34.7,24.3,36.3,25.9z M23.8,24.4c-4.5,0-8.1-3.6-8.1-8.1c0-4.5,3.6-8.1,8.1-8.1
		s8.1,3.6,8.1,8.1C31.9,20.8,28.3,24.4,23.8,24.4z"/>
	<path class="st3" d="M24.3,11.8c-0.3-0.3-0.7-0.3-1,0l-4,4c-0.3,0.3-0.3,0.7,0,1c0.3,0.3,0.7,0.3,1,0l2.8-2.8v6.2
		c0,0.4,0.3,0.7,0.7,0.7c0.4,0,0.7-0.3,0.7-0.7V14l2.8,2.8c0.1,0.1,0.3,0.2,0.5,0.2c0.2,0,0.4-0.1,0.5-0.2c0.3-0.3,0.3-0.7,0-1
		L24.3,11.8z"/>
</g>
</svg>
