<?xml version="1.0" encoding="utf-8"?>
<!-- Generator: Adobe Illustrator 21.1.0, SVG Export Plug-In . SVG Version: 6.00 Build 0)  -->
<svg version="1.1" id="Layer_1" xmlns="http://www.w3.org/2000/svg" xmlns:xlink="http://www.w3.org/1999/xlink" x="0px" y="0px"
	 viewBox="0 0 1366 768" style="enable-background:new 0 0 1366 768;" xml:space="preserve">
<style type="text/css">
	.st0{fill:#F37B8A;}
	.st1{fill:none;stroke:#633493;stroke-width:2.1492;stroke-linecap:round;stroke-linejoin:round;stroke-miterlimit:10;}
	.st2{fill:#FFFFFF;}
	.st3{fill:#633493;}
	.st4{fill:#633493;stroke:#633493;stroke-width:2.1492;stroke-linecap:round;stroke-linejoin:round;stroke-miterlimit:10;}
</style>
<g>
	<path class="st0" d="M920.6,524.8c2.8-3.3,4.4-7.4,4.4-11.7c0-9.9-8.1-18-18-18c-9.9,0-18,8.1-18,18c0,9.9,8.1,18,18,18
		c3.3,0,6.5-0.9,9.4-2.6l7.2,4.4c0.1,0.1,0.3,0.1,0.4,0.1c0.2,0,0.4-0.1,0.6-0.2c0.3-0.3,0.3-0.7,0.1-1L920.6,524.8z"/>
</g>
<g>
	<path class="st0" d="M941.7,540l-1.6-1.1c-1.1-0.8-2.7-0.5-3.5,0.6l-17.2,24c-0.8,1.1-0.6,2.6,0.5,3.5l10.6,8.2
		c1.1,0.8,2.6,0.7,3.5-0.4l7.6-9.4V540z"/>
</g>
<g>
	
		<ellipse transform="matrix(0.8648 -0.5022 0.5022 0.8648 -203.1717 532.5916)" class="st0" cx="887.3" cy="643.5" rx="9.3" ry="9.3"/>
</g>
<path class="st1" d="M942.3,541.9l-1.6-1.1c-1.1-0.8-2.7-0.5-3.5,0.6l-17.2,24c-0.8,1.1-0.6,2.6,0.5,3.5l10.6,8.2
	c1.1,0.8,2.6,0.7,3.5-0.4l3.9-4.8"/>
<g>
	<path class="st0" d="M1065.6,225.1c-0.1-0.1-0.3-0.2-0.4-0.1l-14.4,4.6l11.7-30.9c0-0.1,0-0.3,0-0.4c-0.1-0.1-0.2-0.2-0.3-0.2
		h-15.7c-0.2,0-0.3,0.1-0.4,0.3l-11.6,48.3c0,0.2,0,0.3,0.1,0.4c0.1,0.1,0.3,0.1,0.4,0.1l9.8-4.6l-7.1,27.8c0,0.2,0.1,0.4,0.2,0.5
		c0.1,0,0.1,0,0.2,0c0.1,0,0.3-0.1,0.3-0.2l27.1-45.1C1065.8,225.4,1065.8,225.2,1065.6,225.1z"/>
</g>
<g>
	<path class="st0" d="M992,202.8c-0.1-0.2-0.3-0.2-0.5-0.1c-0.2,0.1-0.3,0.3-0.2,0.5l9.8,26.3h-12.7c-0.2,0-0.3,0.1-0.4,0.2
		c-0.1,0.1-0.1,0.3,0,0.4L1015,266c0.1,0.1,0.2,0.2,0.3,0.2c0.1,0,0.1,0,0.2,0c0.2-0.1,0.3-0.3,0.2-0.5l-9.2-26.2h11.7
		c0.2,0,0.3-0.1,0.4-0.2c0.1-0.1,0.1-0.3,0-0.4L992,202.8z"/>
</g>
<g>
	<ellipse transform="matrix(0.5219 -0.853 0.853 0.5219 282.8124 752.5231)" class="st0" cx="812.7" cy="124" rx="10.8" ry="10.8"/>
</g>
<g>
	<ellipse class="st0" cx="913.3" cy="154.6" rx="4.5" ry="4.5"/>
</g>
<g>
	<path class="st0" d="M941.6,68.5H886c-1.4,0-2.5,1.1-2.5,2.5v36.3h60.6V71C944.1,69.6,942.9,68.5,941.6,68.5z"/>
</g>
<g>
	<ellipse class="st0" cx="691.4" cy="393.1" rx="220" ry="220"/>
</g>
<g>
	<path class="st0" d="M624.2,111.8h-71.3c-4.1,0-7.5-3.4-7.5-7.5v-1.1c0-4.1,3.4-7.5,7.5-7.5h71.3c4.1,0,7.5,3.4,7.5,7.5v1.1
		C631.7,108.4,628.3,111.8,624.2,111.8z"/>
</g>
<g>
	<path class="st0" d="M624.2,79.6h-71.3c-4.1,0-7.5-3.4-7.5-7.5V71c0-4.1,3.4-7.5,7.5-7.5h71.3c4.1,0,7.5,3.4,7.5,7.5v1.1
		C631.7,76.2,628.3,79.6,624.2,79.6z"/>
</g>
<g>
	<path class="st0" d="M624.2,144h-71.3c-4.1,0-7.5-3.4-7.5-7.5v-1.1c0-4.1,3.4-7.5,7.5-7.5h71.3c4.1,0,7.5,3.4,7.5,7.5v1.1
		C631.7,140.6,628.3,144,624.2,144z"/>
</g>
<g>
	<rect x="408.6" y="128.2" class="st0" width="6.2" height="4.6"/>
</g>
<g>
	<rect x="418.6" y="128.2" class="st0" width="6.2" height="4.6"/>
</g>
<g>
	<rect x="428.6" y="128.2" class="st0" width="6.2" height="4.6"/>
</g>
<g>
	<rect x="408.6" y="136.8" class="st0" width="6.2" height="4.6"/>
</g>
<g>
	<rect x="418.6" y="136.8" class="st0" width="6.2" height="4.6"/>
</g>
<g>
	<rect x="428.6" y="136.8" class="st0" width="6.2" height="4.6"/>
</g>
<g>
	<rect x="408.6" y="145.5" class="st0" width="6.2" height="4.6"/>
</g>
<g>
	<rect x="418.6" y="145.5" class="st0" width="6.2" height="4.6"/>
</g>
<g>
	<rect x="428.6" y="145.5" class="st0" width="6.2" height="4.6"/>
</g>
<g>
	<path class="st0" d="M442.4,191.1l-1.9,3c-0.3,0.4-0.4,0.8-0.4,1.4c0,1.3,1,2.3,2.3,2.3c1.3,0,2.3-1,2.3-2.3c0-0.5-0.2-1-0.4-1.4
		L442.4,191.1z"/>
</g>
<g>
	<path class="st0" d="M445.3,177.5l-0.8,0.8c-1.6,1.6-2,3.9-1.1,5.9l-1.2,1.2c-0.7,0.7-0.8,1.9-0.2,2.7c0.7,0.9,2.1,1,2.9,0.1
		l1.3-1.3c1.9,0.8,4.3,0.5,5.9-1.1l7.8-7.8c0.2-0.2,0.1-0.6-0.2-0.6L445.3,177.5z"/>
</g>
<g>
	<circle class="st0" cx="386.6" cy="191.6" r="3.6"/>
</g>
<g>
	<circle class="st0" cx="412.4" cy="193.4" r="3.8"/>
</g>
<g>
	<path class="st0" d="M464.5,236.9l5,5c2.1,2.1,2.1,5.5,0,7.6v0c-2.1,2.1-5.5,2.1-7.6,0l-5-5L464.5,236.9z"/>
</g>
<g>
	<path class="st0" d="M431.4,231.3c-3.2-1.7-7.1-0.9-9.7,1.6l0,0c0,0-0.1-0.1-0.1-0.1c-3.3-3.3-8.6-3.3-11.9,0
		c-3.3,3.3-3.3,8.6,0,11.9c0,0,0.1,0.1,0.1,0.1l0,0l10.4,10.3c0.9,0.9,2.2,0.9,3.1,0l10.4-10.3C437.5,240.9,436.8,234.1,431.4,231.3
		z"/>
</g>
<g>
	<ellipse class="st0" cx="363.8" cy="392" rx="15" ry="15"/>
</g>
<g>
	<ellipse class="st0" cx="376.2" cy="460" rx="15" ry="15"/>
</g>
<g>
	<ellipse class="st0" cx="343.2" cy="520.1" rx="15" ry="15"/>
</g>
<path class="st2" d="M814.7,704.1c26.4-11.5,44.9-37.8,44.9-68.5c0-41.2-33.4-74.7-74.7-74.7s-74.7,33.4-74.7,74.7
	c0,30.6,18.5,57,44.9,68.5"/>
<path class="st1" d="M980.2,339.8C919.9,393,842,449.4,753.1,502.1c-80.7,47.8-159.8,86.3-230.3,113.5"/>
<path class="st1" d="M629.9,140.3c11.2,8.3,22.6,17.2,34,26.5"/>
<path class="st1" d="M392.9,133.3c-4.6-29.6-0.3-52.5,14.2-66c23.9-22.3,71.3-15.2,130.3,14.6"/>
<path class="st1" d="M730.2,581.6c-45.8-34.9-94.1-78.6-141.1-128.9c-57.5-61.6-105-124.5-138.9-181.5"/>
<path class="st1" d="M975.9,598c3.8,28-0.7,49.8-14.6,62.8c-20.6,19.2-58.8,16.6-106.9-3.7"/>
<path class="st1" d="M900.2,428c13.5,20.8,25.5,40.9,35.7,60.2"/>
<path class="st1" d="M715.1,603.7c-10.1,1.4-20.4,2.2-30.9,2.2c-121.5,0-220-98.5-220-220s98.5-220,220-220s220,98.5,220,220
	c0,73.9-36.5,139.3-92.4,179.2"/>
<path class="st1" d="M515.7,342.5c9.4-36.6,30.5-68.6,59-91.8"/>
<path class="st1" d="M394.1,426.5c20.4-17.5,46.8-38.7,70.7-56.6"/>
<path class="st1" d="M374,658.1c-57.2,8.7-97.6,2.2-112-22c-16.7-28.1,8.7-81.3,57.2-137.2"/>
<path class="st1" d="M966.8,118.7c71.8-15.4,122.9-11,139.5,16.9c12.9,21.8,3.2,55.1-24.4,95.1"/>
<path class="st1" d="M775.5,185.7c29.1-13.2,57.2-24.8,84-34.7"/>
<path class="st1" d="M991.4,312.2c6.4,0,12.6,1.1,18.4,3.1c5.7-2,11.9-3.1,18.4-3.1c6.4,0,12.6,1.1,18.4,3.1
	c5.7-2,11.9-3.1,18.4-3.1c5.6,0,11,0.8,16.2,2.4c-6.8-22.8-27.9-39.4-52.9-39.4c-25,0-46.1,16.6-52.9,39.4
	C980.4,313,985.8,312.2,991.4,312.2z"/>
<line class="st1" x1="1028.2" y1="312.2" x2="1028.2" y2="357.2"/>
<line class="st1" x1="1028.2" y1="275.1" x2="1028.2" y2="268.4"/>
<path class="st1" d="M1009.8,315.3c0,0,2.7-24.8,18.4-40.2"/>
<path class="st1" d="M1046.5,315.3c0,0-2.7-24.8-18.4-40.2"/>
<path class="st1" d="M1041.2,209c-4.2-0.7-8.6-1.1-13.1-1.1c-9.2,0-17.9,1.6-26,4.7"/>
<path class="st1" d="M998.6,213.9c-26.6,11.4-45.2,37.9-45.2,68.6c0,41.2,33.4,74.7,74.7,74.7c41.3,0,74.7-33.4,74.7-74.7
	c0-32.2-20.4-59.6-48.9-70.1"/>
<polygon class="st1" points="994,201.5 1020.6,237.5 1008.3,237.5 1017.7,264.2 990.7,228.4 1004,228.4 "/>
<polygon class="st1" points="1044.1,196.9 1032.6,245.2 1043.2,240.3 1035.9,268.9 1063,223.8 1047.8,228.6 1059.8,196.9 "/>
<path class="st1" d="M356.8,321.2c0,3-2.4,5.4-5.4,5.4"/>
<path class="st1" d="M356.8,321.2c0,3,2.4,5.4,5.4,5.4"/>
<path class="st1" d="M356.8,331.9c0-3-2.4-5.4-5.4-5.4"/>
<path class="st1" d="M356.8,331.9c0-3,2.4-5.4,5.4-5.4"/>
<path class="st1" d="M319.2,498.9c-15.1,0-27.4-12.2-27.4-27.4c0-10.8,6.3-20.2,15.5-24.6"/>
<path class="st1" d="M307.3,446.9c-0.1-0.9-0.2-1.8-0.2-2.7c0-9.8,8-17.8,17.8-17.8c3.5,0,6.8,1,9.6,2.8"/>
<path class="st1" d="M331.7,440.9c-1.3-2.6-3.9-4.3-6.8-4.3"/>
<path class="st1" d="M334.8,429.4c6.6-9.9,17.9-16.5,30.7-16.5c20.1,0,36.4,16.1,36.9,36"/>
<path class="st1" d="M402.4,449c11.2,2.6,19.5,12.7,19.5,24.6c0,14-11.3,25.3-25.3,25.3"/>
<line class="st1" x1="319.2" y1="498.9" x2="396.5" y2="498.9"/>
<path class="st1" d="M375.6,443.7c1-17.2-0.3-32-3.5-41.6"/>
<path class="st1" d="M356.3,514.8c6.1-8,11.8-23.1,15.5-41.5"/>
<path class="st1" d="M334.6,498.9c0.3,2.2,0.7,4.2,1.2,6.2"/>
<path class="st1" d="M358.3,387.8c-0.3-0.6-0.4-1.2-0.4-1.9c0-2.5,2.1-4.6,4.6-4.6"/>
<path class="st1" d="M366.6,387.8c0.3-0.6,0.4-1.2,0.4-1.9c0-2.5-2.1-4.6-4.6-4.6"/>
<line class="st1" x1="358.3" y1="387.8" x2="362.4" y2="397.3"/>
<line class="st1" x1="366.6" y1="387.8" x2="362.4" y2="397.3"/>
<path class="st1" d="M363.5,395c2.6,0.2,4.6,1.2,4.6,2.4c0,1.4-2.5,2.4-5.6,2.4c-3.1,0-5.6-1.1-5.6-2.4c0-1.2,2-2.2,4.6-2.4"/>
<circle class="st1" cx="362.4" cy="386.4" r="1.6"/>
<ellipse class="st1" cx="362.4" cy="390.6" rx="15" ry="15"/>
<ellipse class="st1" cx="374.8" cy="458.6" rx="15" ry="15"/>
<ellipse class="st1" cx="341.9" cy="518.7" rx="15" ry="15"/>
<path class="st1" d="M371.1,457.8v-3.4c0-2,1.6-3.7,3.7-3.7l0,0c2,0,3.7,1.6,3.7,3.7v3.4"/>
<rect x="368.8" y="457.8" class="st1" width="12" height="8.7"/>
<circle class="st1" cx="336.3" cy="523.2" r="1.9"/>
<line class="st1" x1="338.1" y1="523.7" x2="340.5" y2="513.7"/>
<circle class="st1" cx="345.2" cy="521.9" r="1.9"/>
<line class="st1" x1="347" y1="522.3" x2="349.3" y2="512.3"/>
<line class="st1" x1="349.3" y1="512.3" x2="340.5" y2="513.7"/>
<path class="st1" d="M350.7,399.9c-3.4,5.4-6.6,12.9-9.3,21.9"/>
<path class="st1" d="M438.7,408.5c0,4.9-4,8.9-8.9,8.9"/>
<path class="st1" d="M438.7,408.5c0,4.9,4,8.9,8.9,8.9"/>
<path class="st1" d="M438.7,426.3c0-4.9-4-8.9-8.9-8.9"/>
<path class="st1" d="M438.7,426.3c0-4.9,4-8.9,8.9-8.9"/>
<path class="st1" d="M371.1,597.6c-1,2.5-1.8,5.1-2.5,7.7"/>
<path class="st1" d="M480.8,561.6c-11.6-7.3-25.3-11.6-40-11.6c-14.6,0-28.2,4.2-39.7,11.4"/>
<path class="st1" d="M512.9,605.3c-0.7-2.6-1.6-5.2-2.5-7.7"/>
<line class="st1" x1="358.7" y1="565.4" x2="408.3" y2="565.4"/>
<line class="st1" x1="416" y1="565.4" x2="465.6" y2="565.4"/>
<line class="st1" x1="473.3" y1="565.4" x2="522.9" y2="565.4"/>
<line class="st1" x1="358.7" y1="593.7" x2="408.3" y2="593.7"/>
<line class="st1" x1="416" y1="593.7" x2="465.6" y2="593.7"/>
<line class="st1" x1="473.3" y1="593.7" x2="522.9" y2="593.7"/>
<line class="st1" x1="358.7" y1="609.2" x2="408.3" y2="609.2"/>
<line class="st1" x1="416" y1="609.2" x2="465.6" y2="609.2"/>
<line class="st1" x1="473.3" y1="609.2" x2="522.9" y2="609.2"/>
<line class="st1" x1="358.7" y1="637.4" x2="408.3" y2="637.4"/>
<line class="st1" x1="456.7" y1="637.4" x2="465.6" y2="637.4"/>
<line class="st1" x1="416" y1="637.4" x2="424.9" y2="637.4"/>
<line class="st1" x1="473.3" y1="637.4" x2="522.9" y2="637.4"/>
<g>
	<line class="st1" x1="365.6" y1="582.3" x2="372.7" y2="577.2"/>
	<line class="st1" x1="379.9" y1="586.9" x2="372.7" y2="577.2"/>
	<line class="st1" x1="379.9" y1="586.9" x2="387.1" y2="582.7"/>
	<line class="st1" x1="394.2" y1="572.2" x2="387.1" y2="582.7"/>
	<line class="st1" x1="394.2" y1="572.2" x2="401.4" y2="579.6"/>
</g>
<circle class="st3" cx="372.7" cy="577.2" r="2.2"/>
<circle class="st3" cx="379.9" cy="586.9" r="2.2"/>
<circle class="st3" cx="387.1" cy="582.7" r="2.2"/>
<circle class="st3" cx="394.2" cy="572.2" r="2.2"/>
<circle class="st3" cx="401.2" cy="579.4" r="2.2"/>
<circle class="st3" cx="365.8" cy="582.1" r="2.2"/>
<g>
	<rect x="426.8" y="572.2" class="st1" width="4.7" height="15.6"/>
	<rect x="434.6" y="577.2" class="st1" width="4.7" height="10.6"/>
	<rect x="442.3" y="574.4" class="st1" width="4.7" height="13.4"/>
	<rect x="450.1" y="580.5" class="st1" width="4.7" height="7.3"/>
</g>
<line class="st1" x1="423" y1="587.8" x2="458.6" y2="587.8"/>
<ellipse class="st1" cx="383.5" cy="623.3" rx="9" ry="9"/>
<line class="st1" x1="383.5" y1="623.3" x2="389.8" y2="617"/>
<line class="st1" x1="383.5" y1="623.3" x2="383.5" y2="614.3"/>
<line class="st1" x1="383.5" y1="623.3" x2="387.2" y2="631.4"/>
<line class="st1" x1="383.5" y1="623.3" x2="374.5" y2="623.3"/>
<g>
	<circle class="st1" cx="498.1" cy="617.5" r="2.1"/>
	<circle class="st1" cx="498.1" cy="629.1" r="2.1"/>
	<circle class="st1" cx="487.2" cy="629.1" r="2.1"/>
	<circle class="st1" cx="508.9" cy="629.1" r="2.1"/>
	<line class="st1" x1="498.1" y1="619.6" x2="498.1" y2="626.9"/>
	<line class="st1" x1="496.6" y1="619" x2="488.7" y2="627.5"/>
	<line class="st1" x1="499.5" y1="619" x2="507.4" y2="627.5"/>
</g>
<g>
	<g>
		<rect x="480.2" y="570" class="st1" width="3.7" height="3.7"/>
		<line class="st1" x1="488.5" y1="573.7" x2="515.9" y2="573.7"/>
	</g>
	<g>
		<rect x="480.2" y="577.7" class="st1" width="3.7" height="3.7"/>
		<line class="st1" x1="488.5" y1="581.4" x2="515.9" y2="581.4"/>
	</g>
	<g>
		<rect x="480.2" y="585.5" class="st1" width="3.7" height="3.7"/>
		<line class="st1" x1="488.5" y1="589.1" x2="515.9" y2="589.1"/>
	</g>
</g>
<g>
	<rect x="360.2" y="563.1" class="st0" width="49.6" height="3.9"/>
</g>
<g>
	<rect x="417.5" y="563.1" class="st0" width="49.6" height="3.9"/>
</g>
<g>
	<rect x="474.8" y="563.1" class="st0" width="49.6" height="3.9"/>
</g>
<g>
	<rect x="360.2" y="595.2" class="st0" width="49.6" height="3.9"/>
</g>
<g>
	<rect x="417.5" y="595.2" class="st0" width="49.6" height="3.9"/>
</g>
<g>
	<rect x="474.8" y="595.2" class="st0" width="49.6" height="3.9"/>
</g>
<g>
	<rect x="360.2" y="606.8" class="st0" width="49.6" height="3.9"/>
</g>
<g>
	<rect x="417.5" y="606.8" class="st0" width="49.6" height="3.9"/>
</g>
<g>
	<rect x="474.8" y="606.8" class="st0" width="49.6" height="3.9"/>
</g>
<g>
	<rect x="360.2" y="639" class="st0" width="49.6" height="3.9"/>
</g>
<g>
	<rect x="474.8" y="639" class="st0" width="49.6" height="3.9"/>
</g>
<g>
	<path class="st0" d="M424.3,639h-6.8v3.9h6C423.7,641.5,423.9,640.2,424.3,639z"/>
</g>
<g>
	<path class="st0" d="M457.3,639c0.4,1.2,0.6,2.5,0.7,3.9h9.1V639H457.3z"/>
</g>
<g>
	<path class="st0" d="M425.1,647.6c-3.8,0-6.9,3.1-6.9,6.9s3.1,6.9,6.9,6.9V647.6z"/>
</g>
<g>
	<path class="st0" d="M459.6,647.6c3.8,0,6.9,3.1,6.9,6.9s-3.1,6.9-6.9,6.9V647.6z"/>
</g>
<path class="st1" d="M897.4,525.3c-2,5.9-3.1,12.3-3.1,18.9c0,32.3,26.2,58.5,58.5,58.5s58.5-26.2,58.5-58.5
	c0-32.3-26.2-58.5-58.5-58.5c-13.4,0-25.8,4.5-35.6,12.1"/>
<line class="st1" x1="955.1" y1="540.7" x2="945.6" y2="540.7"/>
<line class="st1" x1="972.7" y1="540.7" x2="961.5" y2="540.7"/>
<g>
	<path class="st3" d="M949.8,543.9c-1.5,0-2.8,1.2-2.8,2.8c0,1.5,1.2,2.8,2.8,2.8c1.5,0,2.8-1.2,2.8-2.8
		C952.6,545.1,951.3,543.9,949.8,543.9z"/>
	<path class="st3" d="M964.4,543.9c-1.5,0-2.8,1.2-2.8,2.8c0,1.5,1.2,2.8,2.8,2.8c1.5,0,2.8-1.2,2.8-2.8
		C967.2,545.1,965.9,543.9,964.4,543.9z"/>
</g>
<path class="st1" d="M989.9,548.2c14.7-26.7-2.9-37.1-2.9-37.1c0.1-3.4-0.4-8.2-5.5-8.8c-5.1-0.6-44.4-4.7-44.4-4.7
	s-9.7,14.9,1.1,28.4s40.8,1.9,40.8,1.9c-2.2,13,2.7,22.3,2.7,22.3"/>
<line class="st1" x1="955.1" y1="556.3" x2="959.4" y2="556.3"/>
<path class="st1" d="M967.1,563.7c0,5.4-4,9.7-8.8,9.7s-8.8-4.3-8.8-9.7H967.1z"/>
<path class="st1" d="M929.2,585c0,0,3.5,0.8,6.2-2.2c1.9-2.2,5.8-7.3,7.9-10c0.8-1,0.7-2.5-0.2-3.4l-4.1-4.1c-1-1-2.7-1-3.7,0l0,0
	c-0.9,0.9-0.9,2.4,0,3.3l3.3,3.3"/>
<path class="st1" d="M962.7,583.4c-11.3,0-20.5-9.2-20.5-20.5v-33.4"/>
<path class="st1" d="M962.7,583.4c5.2,0,10.1-2,13.7-5.3"/>
<path class="st1" d="M981.6,550.2v-1.4c0-2.2,1.8-4.1,4.1-4.1l0,0c2.2,0,4.1,1.8,4.1,4.1v40.8"/>
<path class="st1" d="M920.2,585v-5.1c0-3.5,0.6-6.9,1.6-10.1"/>
<path class="st1" d="M921.9,524.7c2.8-3.1,4.6-7.1,4.6-11.6c0-9.5-7.7-17.1-17.1-17.1c-9.5,0-17.1,7.7-17.1,17.1
	c0,9.5,7.7,17.1,17.1,17.1c3.5,0,6.7-1,9.4-2.8l7.6,4.6C926.3,532,924.1,528.3,921.9,524.7z"/>
<line class="st1" x1="969.6" y1="582.3" x2="969.6" y2="590.2"/>
<line class="st1" x1="617.1" y1="142.4" x2="617.1" y2="152"/>
<line class="st1" x1="556.6" y1="142.4" x2="556.6" y2="152"/>
<path class="st1" d="M622.5,110.1h-71.3c-4.1,0-7.5-3.4-7.5-7.5v-1.1c0-4.1,3.4-7.5,7.5-7.5h71.3c4.1,0,7.5,3.4,7.5,7.5v1.1
	C630,106.7,626.6,110.1,622.5,110.1z"/>
<path class="st1" d="M622.5,77.9h-71.3c-4.1,0-7.5,3.4-7.5,7.5v1.1c0,4.1,3.4,7.5,7.5,7.5h71.3c4.1,0,7.5-3.4,7.5-7.5v-1.1
	C630,81.3,626.6,77.9,622.5,77.9z"/>
<path class="st1" d="M622.5,77.9h-71.3c-4.1,0-7.5-3.4-7.5-7.5v-1.1c0-4.1,3.4-7.5,7.5-7.5h71.3c4.1,0,7.5,3.4,7.5,7.5v1.1
	C630,74.5,626.6,77.9,622.5,77.9z"/>
<path class="st1" d="M627.3,63.5l-16.3-14.1c-1-0.8-2.3-1.2-3.6-1.2h-41c-1.3,0-2.5,0.4-3.6,1.2l-16.3,14.1"/>
<line class="st1" x1="622" y1="69.8" x2="608.5" y2="69.8"/>
<line class="st1" x1="622" y1="85.9" x2="608.5" y2="85.9"/>
<line class="st1" x1="622" y1="102" x2="608.5" y2="102"/>
<path class="st1" d="M622.5,126.2h-71.3c-4.1,0-7.5-3.4-7.5-7.5v-1.1c0-4.1,3.4-7.5,7.5-7.5h71.3c4.1,0,7.5,3.4,7.5,7.5v1.1
	C630,122.8,626.6,126.2,622.5,126.2z"/>
<line class="st1" x1="622" y1="118.1" x2="608.5" y2="118.1"/>
<line class="st1" x1="589.8" y1="69.8" x2="588" y2="69.8"/>
<line class="st1" x1="582.3" y1="69.8" x2="580.6" y2="69.8"/>
<line class="st1" x1="574.9" y1="69.8" x2="573.2" y2="69.8"/>
<line class="st1" x1="567.5" y1="69.8" x2="565.8" y2="69.8"/>
<line class="st1" x1="560.1" y1="69.8" x2="558.4" y2="69.8"/>
<line class="st1" x1="589.8" y1="85.9" x2="588" y2="85.9"/>
<line class="st1" x1="582.3" y1="85.9" x2="580.6" y2="85.9"/>
<line class="st1" x1="574.9" y1="85.9" x2="573.2" y2="85.9"/>
<line class="st1" x1="567.5" y1="85.9" x2="565.8" y2="85.9"/>
<line class="st1" x1="560.1" y1="85.9" x2="558.4" y2="85.9"/>
<line class="st1" x1="589.8" y1="102" x2="588" y2="102"/>
<line class="st1" x1="582.3" y1="102" x2="580.6" y2="102"/>
<line class="st1" x1="574.9" y1="102" x2="573.2" y2="102"/>
<line class="st1" x1="567.5" y1="102" x2="565.8" y2="102"/>
<line class="st1" x1="560.1" y1="102" x2="558.4" y2="102"/>
<line class="st1" x1="589.8" y1="118.1" x2="588" y2="118.1"/>
<line class="st1" x1="582.3" y1="118.1" x2="580.6" y2="118.1"/>
<line class="st1" x1="574.9" y1="118.1" x2="573.2" y2="118.1"/>
<line class="st1" x1="567.5" y1="118.1" x2="565.8" y2="118.1"/>
<line class="st1" x1="560.1" y1="118.1" x2="558.4" y2="118.1"/>
<path class="st1" d="M630.2,72.2c7.3,9.3,11.7,21.1,11.7,33.9c0,30.4-24.6,55-55,55s-55-24.6-55-55c0-12.8,4.4-24.5,11.7-33.9"/>
<path class="st1" d="M622.5,142.3h-71.3c-4.1,0-7.5-3.4-7.5-7.5v-1.1c0-4.1,3.4-7.5,7.5-7.5h71.3c4.1,0,7.5,3.4,7.5,7.5v1.1
	C630,138.9,626.6,142.3,622.5,142.3z"/>
<line class="st1" x1="622" y1="134.2" x2="608.5" y2="134.2"/>
<line class="st1" x1="589.8" y1="134.2" x2="588" y2="134.2"/>
<line class="st1" x1="582.3" y1="134.2" x2="580.6" y2="134.2"/>
<line class="st1" x1="574.9" y1="134.2" x2="573.2" y2="134.2"/>
<line class="st1" x1="567.5" y1="134.2" x2="565.8" y2="134.2"/>
<line class="st1" x1="560.1" y1="134.2" x2="558.4" y2="134.2"/>
<path class="st1" d="M569.8,158.4"/>
<path class="st1" d="M603.8,158.4"/>
<circle class="st1" cx="744.8" cy="612.8" r="3.5"/>
<line class="st1" x1="744.8" y1="609.3" x2="744.8" y2="602.4"/>
<line class="st1" x1="741.3" y1="612.8" x2="711.7" y2="612.8"/>
<line class="st1" x1="735.4" y1="584.1" x2="768.3" y2="590.6"/>
<line class="st1" x1="765" y1="594.3" x2="768.7" y2="595"/>
<line class="st1" x1="738.5" y1="589.1" x2="748.3" y2="591"/>
<line class="st1" x1="759.3" y1="600.6" x2="767.3" y2="602.2"/>
<g>
	<path class="st0" d="M734.5,602.4l22.3,4.4c0.3,0.1,0.5,0,0.7-0.2l11.4-12.6c0.4-0.4,0.2-1.2-0.4-1.3l-30.8-6.1
		c-0.4-0.1-0.8,0.2-0.9,0.6l-2.9,14.3C733.9,601.9,734.1,602.3,734.5,602.4z"/>
</g>
<line class="st1" x1="732.2" y1="599.9" x2="755.8" y2="604.5"/>
<line class="st1" x1="735.4" y1="584.1" x2="732.2" y2="599.9"/>
<line class="st1" x1="768.7" y1="595" x2="767.3" y2="602.2"/>
<line class="st1" x1="768.3" y1="590.6" x2="755.8" y2="604.5"/>
<circle class="st1" cx="821.9" cy="612.8" r="3.5"/>
<line class="st1" x1="821.9" y1="609.3" x2="821.9" y2="602.4"/>
<line class="st1" x1="825.4" y1="612.8" x2="855" y2="612.8"/>
<line class="st1" x1="831.3" y1="584.1" x2="798.4" y2="590.6"/>
<line class="st1" x1="801.7" y1="594.3" x2="798" y2="595"/>
<line class="st1" x1="828.2" y1="589.1" x2="818.4" y2="591"/>
<line class="st1" x1="807.4" y1="600.6" x2="799.4" y2="602.2"/>
<g>
	<path class="st0" d="M832.2,602.4l-22.3,4.4c-0.3,0.1-0.5,0-0.7-0.2l-11.4-12.6c-0.4-0.4-0.2-1.2,0.4-1.3l30.8-6.1
		c0.4-0.1,0.8,0.2,0.9,0.6l2.9,14.3C832.8,601.9,832.6,602.3,832.2,602.4z"/>
</g>
<line class="st1" x1="834.5" y1="599.9" x2="810.9" y2="604.5"/>
<line class="st1" x1="798" y1="595" x2="799.4" y2="602.2"/>
<line class="st1" x1="798.4" y1="590.6" x2="810.9" y2="604.5"/>
<path class="st1" d="M813.2,702.6c26.4-11.5,44.9-37.8,44.9-68.5c0-41.2-33.4-74.7-74.7-74.7c-41.3,0-74.7,33.4-74.7,74.7
	c0,30.6,18.5,57,44.9,68.5"/>
<path class="st1" d="M788.3,685.7l-1.9-7.8c1.4-1.1,2.2-2.9,1.9-4.9c-0.4-1.9-1.9-3.5-3.8-3.9c-3.2-0.7-6.1,1.8-6.1,4.9
	c0,1.6,0.8,3,2,3.9l-1.9,7.8c-0.1,0.5,0.3,1,0.8,1h8.4C788,686.6,788.4,686.2,788.3,685.7z"/>
<g>
	<g>
		<path class="st0" d="M800.9,665.4h-30.5c-2.1,0-3.9,1.7-3.9,3.9v21.5c0,2.1,1.7,3.9,3.9,3.9h30.5c2.1,0,3.9-1.7,3.9-3.9v-21.5
			C804.8,667.2,803,665.4,800.9,665.4z M790.6,688c0.1,0.5-0.3,1-0.8,1h-8.4c-0.5,0-0.9-0.5-0.8-1l1.9-7.8c-1.2-0.9-2-2.3-2-3.9
			c0-3.1,2.8-5.6,6.1-4.9c1.9,0.4,3.5,2,3.8,3.9c0.4,2-0.5,3.8-1.9,4.9L790.6,688z"/>
	</g>
</g>
<g>
	<g>
		<path class="st0" d="M820.7,630.9c-20.6,0-35.8-9.7-35.8-9.7s-15.2,9.7-35.8,9.7h-3.4V677c0,34.9,39.2,48.4,39.2,48.4
			s39.2-13.5,39.2-48.4v-46.1H820.7z M818.8,677c0,26.6-26.7,39.6-33.9,42.7c-7.2-3-33.9-16-33.9-42.7v-40.8
			c15.9-0.4,28.4-6,33.9-8.9c5.4,2.9,18,8.5,33.9,8.9V677z"/>
	</g>
</g>
<circle class="st1" cx="883.8" cy="687.8" r="2.3"/>
<ellipse transform="matrix(0.5219 -0.853 0.853 0.5219 281.7317 755.5457)" class="st1" cx="814.8" cy="126.5" rx="10.8" ry="10.8"/>
<line class="st1" x1="817.4" y1="137" x2="793.9" y2="142.6"/>
<line class="st1" x1="813.5" y1="121" x2="790.1" y2="126.7"/>
<line class="st1" x1="787.3" y1="127.3" x2="783.6" y2="128.2"/>
<line class="st1" x1="815.7" y1="126.2" x2="810.7" y2="127.5"/>
<line class="st1" x1="804.3" y1="129" x2="794.9" y2="131.3"/>
<path class="st1" d="M572,642.6c-0.2,0.1-0.4,0.3-0.7,0.4c-3.7,1.9-8.2,0.4-10.1-3.2c-1.9-3.7-0.4-8.2,3.2-10.1
	c0.2-0.1,0.5-0.2,0.7-0.3"/>
<line class="st1" x1="584.6" y1="627.8" x2="604.7" y2="617.5"/>
<line class="st1" x1="598.2" y1="616" x2="565.2" y2="629.4"/>
<line class="st1" x1="594.1" y1="628.6" x2="572" y2="642.6"/>
<line class="st1" x1="605.2" y1="621.7" x2="600.7" y2="624.5"/>
<g>
	
		<ellipse transform="matrix(0.7178 -0.6962 0.6962 0.7178 -284.3998 575.4498)" class="st0" cx="567.7" cy="638.6" rx="7.4" ry="7.4"/>
</g>
<ellipse transform="matrix(0.8648 -0.5022 0.5022 0.8648 -203.1112 533.7283)" class="st1" cx="889.4" cy="644" rx="9.3" ry="9.3"/>
<line class="st1" x1="912.3" y1="642.8" x2="915" y2="643.3"/>
<line class="st1" x1="895.1" y1="639.5" x2="906.5" y2="641.7"/>
<line class="st1" x1="891.2" y1="638.8" x2="891.8" y2="638.9"/>
<line class="st1" x1="895.7" y1="650.7" x2="902.4" y2="653.2"/>
<line class="st1" x1="894.1" y1="636" x2="909.8" y2="636.2"/>
<line class="st1" x1="887.3" y1="653" x2="903.5" y2="660"/>
<path class="st1" d="M721.9,118.7c0,2.9-2.4,5.3-5.3,5.3"/>
<path class="st1" d="M721.9,118.7c0,2.9,2.4,5.3,5.3,5.3"/>
<path class="st1" d="M721.9,129.3c0-2.9-2.4-5.3-5.3-5.3"/>
<path class="st1" d="M721.9,129.3c0-2.9,2.4-5.3,5.3-5.3"/>
<path class="st1" d="M976.4,386.7c0,2.9-2.4,5.3-5.3,5.3"/>
<path class="st1" d="M976.4,386.7c0,2.9,2.4,5.3,5.3,5.3"/>
<path class="st1" d="M976.4,397.2c0-2.9-2.4-5.3-5.3-5.3"/>
<path class="st1" d="M976.4,397.2c0-2.9,2.4-5.3,5.3-5.3"/>
<path class="st1" d="M679.1,634.8c0,2.9-2.4,5.3-5.3,5.3"/>
<path class="st1" d="M679.1,634.8c0,2.9,2.4,5.3,5.3,5.3"/>
<path class="st1" d="M679.1,645.4c0-2.9-2.4-5.3-5.3-5.3"/>
<path class="st1" d="M679.1,645.4c0-2.9,2.4-5.3,5.3-5.3"/>
<path class="st1" d="M314,621.7c0,2.9-2.4,5.3-5.3,5.3"/>
<path class="st1" d="M314,621.7c0,2.9,2.4,5.3,5.3,5.3"/>
<path class="st1" d="M314,632.2c0-2.9-2.4-5.3-5.3-5.3"/>
<path class="st1" d="M314,632.2c0-2.9,2.4-5.3,5.3-5.3"/>
<path class="st1" d="M1092.2,157.7c0,1.8-1.5,3.3-3.3,3.3"/>
<path class="st1" d="M1092.2,157.7c0,1.8,1.5,3.3,3.3,3.3"/>
<path class="st1" d="M1092.2,164.4c0-1.8-1.5-3.3-3.3-3.3"/>
<path class="st1" d="M1092.2,164.4c0-1.8,1.5-3.3,3.3-3.3"/>
<path class="st1" d="M504.1,44.5c0,1.8-1.5,3.3-3.3,3.3"/>
<path class="st1" d="M504.1,44.5c0,1.8,1.5,3.3,3.3,3.3"/>
<path class="st1" d="M504.1,51.1c0-1.8-1.5-3.3-3.3-3.3"/>
<path class="st1" d="M504.1,51.1c0-1.8,1.5-3.3,3.3-3.3"/>
<path class="st1" d="M496.3,539.6c0,1.8-1.5,3.3-3.3,3.3"/>
<path class="st1" d="M496.3,539.6c0,1.8,1.5,3.3,3.3,3.3"/>
<path class="st1" d="M496.3,546.2c0-1.8-1.5-3.3-3.3-3.3"/>
<path class="st1" d="M496.3,546.2c0-1.8,1.5-3.3,3.3-3.3"/>
<path class="st1" d="M860.1,52.2c0,1.8-1.5,3.3-3.3,3.3"/>
<path class="st1" d="M860.1,52.2c0,1.8,1.5,3.3,3.3,3.3"/>
<path class="st1" d="M860.1,58.9c0-1.8-1.5-3.3-3.3-3.3"/>
<path class="st1" d="M860.1,58.9c0-1.8,1.5-3.3,3.3-3.3"/>
<ellipse class="st1" cx="1061.5" cy="85.3" rx="4.8" ry="4.8"/>
<ellipse class="st1" cx="928.3" cy="339" rx="4.8" ry="4.8"/>
<ellipse class="st1" cx="365" cy="100.8" rx="4.8" ry="4.8"/>
<ellipse class="st1" cx="372.7" cy="696.4" rx="8.7" ry="8.7"/>
<circle class="st1" cx="411" cy="191.9" r="3.8"/>
<path class="st1" d="M428.7,209.4c-2.3,3.2-6,5.3-10.3,5.3c-7,0-12.6-5.6-12.6-12.6c0-2.8,0.9-5.4,2.5-7.5"/>
<line class="st1" x1="407.6" y1="214.7" x2="429.3" y2="214.7"/>
<line class="st1" x1="431.2" y1="209.4" x2="425.6" y2="209.4"/>
<polyline class="st1" points="408.3,189.3 405.9,186.9 410.5,182.3 424.1,195.9 419.5,200.5 413.6,194.6 "/>
<rect x="405.4" y="182.1" transform="matrix(0.7073 -0.7069 0.7069 0.7073 -10.5776 341.5603)" class="st1" width="3.5" height="2.9"/>
<line class="st1" x1="403.8" y1="184.8" x2="408.4" y2="180.2"/>
<line class="st1" x1="417.3" y1="198.3" x2="421.8" y2="193.7"/>
<rect x="420.8" y="197.9" transform="matrix(0.7073 -0.7069 0.7069 0.7073 -16.9963 357.0612)" class="st1" width="3.7" height="2.3"/>
<rect x="401.7" y="121.9" class="st1" width="37" height="46.6"/>
<rect x="414.7" y="111.6" class="st1" width="11.1" height="10.3"/>
<rect x="407.1" y="164.3" class="st1" width="26.3" height="4.2"/>
<rect x="411.1" y="152.2" class="st1" width="18.4" height="3.2"/>
<rect x="407.1" y="126.7" class="st1" width="6.2" height="4.6"/>
<rect x="417.1" y="126.7" class="st1" width="6.2" height="4.6"/>
<rect x="427.1" y="126.7" class="st1" width="6.2" height="4.6"/>
<rect x="407.1" y="135.4" class="st1" width="6.2" height="4.6"/>
<rect x="417.1" y="135.4" class="st1" width="6.2" height="4.6"/>
<rect x="427.1" y="135.4" class="st1" width="6.2" height="4.6"/>
<rect x="407.1" y="144" class="st1" width="6.2" height="4.6"/>
<rect x="417.1" y="144" class="st1" width="6.2" height="4.6"/>
<rect x="427.1" y="144" class="st1" width="6.2" height="4.6"/>
<line class="st1" x1="420.2" y1="118.9" x2="420.2" y2="114.7"/>
<line class="st1" x1="422.3" y1="116.8" x2="418.1" y2="116.8"/>
<rect x="413.9" y="155.4" class="st1" width="12.7" height="8.9"/>
<line class="st1" x1="420.2" y1="164.3" x2="420.2" y2="155.4"/>
<circle class="st1" cx="385.2" cy="190.2" r="3.6"/>
<path class="st1" d="M375.1,181.6c-5.8,0-10.4-4.7-10.4-10.4v-7.3c0-1,0.8-1.8,1.8-1.8h1.4"/>
<path class="st1" d="M375.1,181.6c5.8,0,10.4-4.7,10.4-10.4v-7.3c0-1-0.8-1.8-1.8-1.8h-1.4"/>
<path class="st1" d="M375.1,195.3c0,2.9-2.3,5.2-5.2,5.2s-5.2-2.3-5.2-5.2s2.3-5.2,5.2-5.2"/>
<line class="st1" x1="375.1" y1="195.3" x2="375.1" y2="181.6"/>
<line class="st1" x1="369.9" y1="190.2" x2="381.6" y2="190.2"/>
<path class="st1" d="M367.8,160.7c0.7,0,1.3,0.6,1.3,1.3s-0.6,1.3-1.3,1.3V160.7z"/>
<path class="st1" d="M382.4,160.7c-0.7,0-1.3,0.6-1.3,1.3s0.6,1.3,1.3,1.3V160.7z"/>
<rect x="358.4" y="209" class="st1" width="34.8" height="26.3"/>
<polyline class="st1" points="358.4,226.3 365.2,226.3 368.7,221.2 372.2,232.1 375.8,218.7 378.2,225.8 381.4,214 384,229.9 
	387.9,223.5 393.2,223.5 "/>
<path class="st4" d="M366.8,213.6c-0.5-0.5-1.4-0.5-1.9,0l0,0c0,0,0,0,0,0c-0.5-0.5-1.4-0.5-1.9,0c-0.5,0.5-0.5,1.4,0,1.9
	c0,0,0,0,0,0l0,0l1.9,1.9l1.9-1.9C367.4,215,367.4,214.2,366.8,213.6z"/>
<path class="st1" d="M458.1,230.4l9.9,9.9c2.1,2.1,2.1,5.5,0,7.6v0c-2.1,2.1-5.5,2.1-7.6,0l-9.9-9.9c-2.1-2.1-2.1-5.5,0-7.6l0,0
	C452.6,228.3,456,228.3,458.1,230.4z"/>
<path class="st1" d="M464.8,245.9c-0.9,0-1.7-0.3-2.4-1l-0.8-0.8"/>
<line class="st1" x1="455.5" y1="243" x2="463" y2="235.4"/>
<polyline class="st1" points="475.6,193.7 483.6,193.7 483.6,223.1 456.9,223.1 456.9,193.7 464.9,193.7 "/>
<g>
	<polyline class="st1" points="479.8,215.5 475.9,215.5 475.9,219.3 	"/>
	<line class="st1" x1="479.8" y1="193.7" x2="479.8" y2="215.5"/>
	<polyline class="st1" points="475.9,219.3 460.7,219.3 460.7,193.7 	"/>
	<line class="st1" x1="479.8" y1="215.5" x2="475.9" y2="219.3"/>
</g>
<path class="st1" d="M472.1,192.4c0-1-0.8-1.9-1.9-1.9c-1,0-1.9,0.8-1.9,1.9h-3.4v3.1h10.6v-3.1H472.1z"/>
<line class="st1" x1="464.9" y1="199.8" x2="472.6" y2="199.8"/>
<line class="st1" x1="464.9" y1="203.2" x2="472.6" y2="203.2"/>
<line class="st1" x1="464.9" y1="206.6" x2="475.6" y2="206.6"/>
<line class="st1" x1="464.9" y1="210.1" x2="475.6" y2="210.1"/>
<line class="st1" x1="464.9" y1="213.5" x2="471.8" y2="213.5"/>
<path class="st1" d="M438.7,275.2c32.3-8.2,56.2-37.5,56.2-72.3c0-34.8-23.9-64.1-56.1-72.3"/>
<path class="st1" d="M401.7,130.6c-32.3,8.2-56.1,37.5-56.1,72.3c0,34.8,23.9,64.1,56.2,72.3"/>
<g>
	<path class="st1" d="M398.6,245.3h0.8c1.6,0,2.9,1.3,2.9,2.9v9.5"/>
	<path class="st1" d="M402.4,248.7h0.8c1.6,0,2.9,1.3,2.9,2.9v4.5"/>
	<line class="st1" x1="407.2" y1="262.6" x2="398.6" y2="254"/>
	<path class="st1" d="M413.5,272.2v-6c0-1.7-0.7-3.3-1.9-4.6l-7.2-7.2c-0.3-0.3-0.9-0.3-1.2,0l0,0c-1.2,1.2-1.2,3,0,4.2"/>
	<path class="st1" d="M403.3,271.9l-7.6-12.3c-0.6-1-1-2.2-1-3.4v-13.6c0-0.5,0.4-0.8,0.8-0.8l0,0c1.6,0,2.9,1.3,2.9,2.9v9.2"/>
	<path class="st1" d="M402.4,277.5h12.3c0.4,0,0.7-0.3,0.7-0.7v-3.9c0-0.4-0.3-0.7-0.7-0.7h-12.3c-0.4,0-0.7,0.3-0.7,0.7v3.9
		C401.8,277.2,402.1,277.5,402.4,277.5z"/>
</g>
<g>
	<path class="st1" d="M441.9,245.3H441c-1.6,0-2.9,1.3-2.9,2.9v9.5"/>
	<path class="st1" d="M438.1,248.7h-0.8c-1.6,0-2.9,1.3-2.9,2.9v4.5"/>
	<line class="st1" x1="433.2" y1="262.6" x2="441.9" y2="254"/>
	<path class="st1" d="M426.9,272.2v-6c0-1.7,0.7-3.3,1.9-4.6l7.2-7.2c0.3-0.3,0.9-0.3,1.2,0l0,0c1.2,1.2,1.2,3,0,4.2"/>
	<path class="st1" d="M437.1,271.9l7.6-12.3c0.6-1,1-2.2,1-3.4v-13.6c0-0.5-0.4-0.8-0.8-0.8l0,0c-1.6,0-2.9,1.3-2.9,2.9v9.2"/>
	<path class="st1" d="M438,277.5h-12.3c-0.4,0-0.7-0.3-0.7-0.7v-3.9c0-0.4,0.3-0.7,0.7-0.7H438c0.4,0,0.7,0.3,0.7,0.7v3.9
		C438.7,277.2,438.4,277.5,438,277.5z"/>
</g>
<path class="st1" d="M430,229.8c-3.2-1.7-7.1-0.9-9.7,1.6l0,0c0,0-0.1-0.1-0.1-0.1c-3.3-3.3-8.6-3.3-11.9,0c-3.3,3.3-3.3,8.6,0,11.9
	c0,0,0.1,0.1,0.1,0.1l0,0l10.4,10.3c0.9,0.9,2.2,0.9,3.1,0l10.4-10.3C436.1,239.4,435.3,232.6,430,229.8z"/>
<path class="st1" d="M469,158.4L469,158.4c-2.1-2.1-5.5-2.1-7.5,0L443,176.9c-1.6,1.6-2,3.9-1.1,5.9l-1.3,1.3c-0.8,0.8-0.8,2,0,2.8
	c0.8,0.8,2,0.8,2.8,0l1.3-1.3c1.9,0.8,4.3,0.5,5.9-1.1l18.5-18.5C471.1,163.8,471.1,160.4,469,158.4z"/>
<line class="st1" x1="455.1" y1="161.7" x2="465.7" y2="172.3"/>
<line class="st1" x1="458.9" y1="176" x2="443.8" y2="176"/>
<path class="st1" d="M441,189.7l-1.9,3c-0.3,0.4-0.4,0.8-0.4,1.4c0,1.3,1,2.3,2.3,2.3c1.3,0,2.3-1,2.3-2.3c0-0.5-0.2-1-0.4-1.4
	L441,189.7z"/>
<path class="st1" d="M881.5,82.7c-15.6,10-25.9,27.4-25.9,47.3c0,26.7,18.6,49,43.5,54.7"/>
<path class="st1" d="M924.4,184.7c24.9-5.7,43.5-28.1,43.5-54.7c0-19.9-10.3-37.3-25.9-47.3"/>
<line class="st1" x1="911.8" y1="164.7" x2="911.8" y2="157.6"/>
<line class="st1" x1="911.8" y1="191.9" x2="911.8" y2="167.9"/>
<line class="st1" x1="899.1" y1="184.7" x2="905.6" y2="164.8"/>
<line class="st1" x1="924.4" y1="184.7" x2="917.9" y2="164.8"/>
<line class="st1" x1="905.6" y1="164.8" x2="911.8" y2="161.8"/>
<line class="st1" x1="917.9" y1="164.8" x2="911.8" y2="161.8"/>
<line class="st1" x1="905.6" y1="164.8" x2="911.8" y2="167.9"/>
<line class="st1" x1="917.9" y1="164.8" x2="911.8" y2="167.9"/>
<line class="st1" x1="903.4" y1="171.5" x2="911.8" y2="175.7"/>
<line class="st1" x1="901.2" y1="178.2" x2="911.8" y2="183.5"/>
<line class="st1" x1="920.1" y1="171.5" x2="911.8" y2="175.7"/>
<line class="st1" x1="922.3" y1="178.2" x2="911.8" y2="183.5"/>
<path class="st1" d="M893.1,134.5c4.8-4.8,11.4-7.7,18.6-7.7"/>
<path class="st1" d="M898.3,139.6c3.5-3.4,8.2-5.6,13.5-5.6"/>
<path class="st1" d="M903.4,144.8c2.1-2.1,5.1-3.5,8.3-3.5"/>
<path class="st1" d="M930.4,134.5c-4.8-4.8-11.4-7.7-18.6-7.7"/>
<path class="st1" d="M925.2,139.6c-3.5-3.4-8.2-5.6-13.5-5.6"/>
<path class="st1" d="M920.1,144.8c-2.1-2.1-5.1-3.5-8.3-3.5"/>
<ellipse class="st1" cx="911.8" cy="153.1" rx="4.5" ry="4.5"/>
<path class="st1" d="M939.6,66.5H884c-1.4,0-2.5,1.1-2.5,2.5v36.3H942V69C942,67.6,940.9,66.5,939.6,66.5z"/>
<line class="st1" x1="870.6" y1="111.7" x2="881.5" y2="105.3"/>
<line class="st1" x1="952.9" y1="111.7" x2="942" y2="105.3"/>
<line class="st1" x1="914.2" y1="111.7" x2="952.9" y2="111.7"/>
<line class="st1" x1="870.6" y1="111.7" x2="909.3" y2="111.7"/>
<path class="st1" d="M875.8,116.9c-2.9,0-5.2-2.4-5.2-5.2"/>
<path class="st1" d="M947.7,116.9c2.9,0,5.2-2.4,5.2-5.2"/>
<line class="st1" x1="875.8" y1="116.9" x2="947.7" y2="116.9"/>
<path class="st1" d="M914.2,111.7c-0.3,1.1-1.3,1.8-2.4,1.8c-1.2,0-2.1-0.8-2.4-1.8"/>
<path class="st1" d="M367.9,641.3c7.6,33.2,37.3,58,72.8,58s65.3-24.8,72.8-58"/>
<g>
	<path class="st1" d="M427.4,658.6c0,7.4,6,13.4,13.4,13.4c7.4,0,13.4-6,13.4-13.4v-13.8c0-7.4-6-13.4-13.4-13.4
		c-7.4,0-13.4,6-13.4,13.4V658.6z"/>
	<path class="st1" d="M423.5,644.1c0-9.5,7.7-17.2,17.3-17.2s17.3,7.7,17.3,17.2"/>
	<line class="st1" x1="423.5" y1="644.1" x2="423.5" y2="660.6"/>
	<path class="st1" d="M423.5,646.8c-3.8,0-6.9,3.1-6.9,6.9c0,3.8,3.1,6.9,6.9,6.9"/>
	<path class="st1" d="M458,646.8c3.8,0,6.9,3.1,6.9,6.9c0,3.8-3.1,6.9-6.9,6.9"/>
	<line class="st1" x1="458" y1="644.1" x2="458" y2="660.6"/>
	<line class="st1" x1="435.4" y1="670.9" x2="435.4" y2="676.5"/>
	<line class="st1" x1="446.1" y1="670.9" x2="446.1" y2="676.5"/>
</g>
<path class="st1" d="M469.7,693.5c-2.3-5.1-6.2-9.5-11.1-12.4h0c-5.5-3.3-11.7-5-17.9-5c-6.2,0-12.4,1.7-17.9,5h0
	c-4.9,3-8.7,7.3-11.1,12.4"/>
<rect x="473.3" y="605.3" class="st1" width="49.6" height="36"/>
<polyline class="st1" points="423.7,641.3 416,641.3 416,605.3 465.6,605.3 465.6,641.3 457.8,641.3 "/>
<rect x="358.7" y="605.3" class="st1" width="49.6" height="36"/>
<rect x="358.7" y="561.6" class="st1" width="49.6" height="36"/>
<rect x="416" y="561.6" transform="matrix(-1 -4.477808e-11 4.477808e-11 -1 881.5477 1159.1116)" class="st1" width="49.6" height="36"/>
<rect x="473.3" y="561.6" class="st1" width="49.6" height="36"/>
<path class="st1" d="M783.3,718.1c-7.2-3-33.9-16-33.9-42.7v-40.8c15.9-0.4,28.4-6,33.9-8.9c5.4,2.9,18,8.5,33.9,8.9v40.8
	C817.2,702.1,790.5,715.1,783.3,718.1z"/>
<path class="st1" d="M798.6,692.4h-30.5c-2.1,0-3.9-1.7-3.9-3.9V667c0-2.1,1.7-3.9,3.9-3.9h30.5c2.1,0,3.9,1.7,3.9,3.9v21.5
	C802.5,690.7,800.7,692.4,798.6,692.4z"/>
<line class="st1" x1="796.3" y1="653.2" x2="796.3" y2="663.1"/>
<line class="st1" x1="770.4" y1="653.2" x2="770.4" y2="663.1"/>
<path class="st1" d="M770.4,653.2c0-7.1,5.8-12.9,12.9-12.9c7.1,0,12.9,5.8,12.9,12.9"/>
<path class="st1" d="M783.3,723.9c0,0,39.2-13.5,39.2-48.4v-46.1h-3.4c-20.6,0-35.8-9.7-35.8-9.7s-15.2,9.7-35.8,9.7h-3.4v46.1
	C744.1,710.4,783.3,723.9,783.3,723.9z"/>
<line class="st1" x1="831.3" y1="584.1" x2="834.5" y2="599.9"/>
</svg>
