<?xml version="1.0" encoding="utf-8"?>
<!-- Generator: Adobe Illustrator 21.1.0, SVG Export Plug-In . SVG Version: 6.00 Build 0)  -->
<svg version="1.1" id="Layer_1" xmlns="http://www.w3.org/2000/svg" xmlns:xlink="http://www.w3.org/1999/xlink" x="0px" y="0px"
	 viewBox="0 0 47.6 47.6" style="enable-background:new 0 0 47.6 47.6;" xml:space="preserve">
<style type="text/css">
	.st0{fill:none;stroke:#662F8F;stroke-width:4;stroke-linecap:round;stroke-linejoin:round;stroke-miterlimit:10;}
	.st1{fill:#662F8F;}
	.st2{fill:none;stroke:#662F8F;stroke-width:2;stroke-linecap:round;stroke-linejoin:round;stroke-miterlimit:10;}
	.st3{fill:none;stroke:#FFFFFF;stroke-width:0.488;stroke-linecap:round;stroke-linejoin:round;stroke-miterlimit:10;}
	.st4{fill:none;stroke:#E73E51;stroke-width:1.6927;}
	.st5{fill:none;stroke:#E73E51;stroke-width:1.1285;stroke-linecap:round;stroke-linejoin:round;stroke-miterlimit:10;}
	.st6{fill:#E73E51;}
	
		.st7{clip-path:url(#SVGID_2_);fill:none;stroke:#E73E51;stroke-width:1.1285;stroke-linecap:round;stroke-linejoin:round;stroke-miterlimit:10;}
	.st8{fill:none;stroke:#EE4050;stroke-width:1.1285;stroke-linecap:round;stroke-linejoin:round;stroke-miterlimit:10;}
	.st9{fill:none;stroke:#FFFFFF;stroke-width:0.574;stroke-linecap:round;stroke-linejoin:round;stroke-miterlimit:10;}
	.st10{fill:none;stroke:#A491C4;stroke-width:0.5657;stroke-miterlimit:10;}
	.st11{fill:none;stroke:#F7F8F9;stroke-width:1.2708;stroke-miterlimit:10;}
	.st12{fill:url(#SVGID_3_);}
	.st13{fill:#9289C1;}
	.st14{fill:#F79F7C;}
	.st15{fill:#EF619B;}
	.st16{fill:#F28BB9;}
	.st17{fill:#FABEA9;}
	.st18{fill:#F37B8A;}
	.st19{fill:none;stroke:#633493;stroke-width:5.1599;stroke-linecap:round;stroke-linejoin:round;stroke-miterlimit:10;}
	.st20{fill:none;stroke:#FFFFFF;stroke-width:1.0098;stroke-linecap:round;stroke-linejoin:round;stroke-miterlimit:10;}
	.st21{fill:none;stroke:#662F8F;stroke-width:1.5111;stroke-linecap:round;stroke-linejoin:round;stroke-miterlimit:10;}
	.st22{fill:none;stroke:#662F8F;stroke-width:1.6611;stroke-linecap:round;stroke-linejoin:round;stroke-miterlimit:10;}
	.st23{fill:none;stroke:#662F8F;stroke-width:0.75;stroke-miterlimit:10;}
	.st24{fill:none;stroke:#E73E51;stroke-width:0.9998;stroke-linecap:round;stroke-linejoin:round;stroke-miterlimit:10;}
	.st25{fill:none;}
	.st26{fill:#EE4050;}
</style>
<g>
	<path class="st0" d="M-424.8-306.3c9.6-9.6,22.8-15.5,37.3-15.5"/>
	<path class="st0" d="M-410.5-291.9c5.9-5.9,14-9.5,23-9.5"/>
	<path class="st0" d="M-453.6-335.1c17.7-17.7,41.2-27.4,66.1-27.4c25,0,48.4,9.7,66.1,27.4"/>
	<path class="st0" d="M-335.8-320.7c-13.3-13.3-31.6-21.5-51.7-21.5c-20.2,0-38.5,8.2-51.7,21.5"/>
	<path class="st0" d="M-350.2-306.3c-9.6-9.6-22.8-15.5-37.3-15.5"/>
	<path class="st0" d="M-364.5-291.9c-5.9-5.9-14-9.5-23-9.5"/>
	<path class="st0" d="M-379-260.4c-2.2,2.2-5.2,3.5-8.6,3.5c-6.7,0-12.1-5.4-12.1-12.1c0-6.7,5.4-12.1,12.1-12.1
		c3.3,0,6.4,1.4,8.6,3.5"/>
	<path class="st0" d="M-335.8-320.7c4,4,4,10.4,0,14.4c-4,4-10.4,4-14.4,0"/>
	<path class="st0" d="M-410.5-291.9c-4,4-10.4,4-14.4,0c-4-4-4-10.4,0-14.4"/>
	<path class="st0" d="M-364.5-291.9c4,4,4,10.4,0,14.4c-4,4-10.4,4-14.4,0"/>
	<path class="st0" d="M-439.2-320.7c-4,4-10.4,4-14.4,0c-4-4-4-10.4,0-14.4"/>
</g>
<g>
	<path class="st1" d="M-241.7-372.2c-28.7,0-52,23.3-52,52s23.3,52,52,52s52-23.3,52-52S-213.1-372.2-241.7-372.2z M-241.7-271.9
		c-26.6,0-48.3-21.7-48.3-48.3s21.7-48.3,48.3-48.3s48.3,21.7,48.3,48.3S-215.1-271.9-241.7-271.9z"/>
	<path class="st1" d="M-205.2-326.1c-4.8-4.7-10.4-8.3-16.4-10.7c0-0.3,0.1-0.7,0.1-1c0-11.1-9-20.2-20.2-20.2s-20.2,9-20.2,20.2
		c0,0.6,0,1.1,0.1,1.7c-5.5,2.4-10.5,5.8-14.9,10.1c0,0-0.1,0.1-0.1,0.1c-1.2,1.2-1.8,2.8-1.8,4.5c0,1.7,0.7,3.4,1.9,4.6
		c2.6,2.5,6.7,2.5,9.3,0c0,0,0,0,0,0c3.2-3.1,6.8-5.6,10.8-7.4c2.3,2.5,5.2,4.5,8.5,5.5c-5,1.2-9.6,3.7-13.4,7.4
		c0,0-0.1,0.1-0.1,0.1c-1.3,1.2-1.9,2.9-1.9,4.6c0,1.7,0.7,3.4,1.9,4.6c2.6,2.5,6.7,2.5,9.3,0c0,0,0,0,0,0h0c3-2.9,7-4.5,11.3-4.5
		c4.3,0,8.3,1.6,11.3,4.5c0,0,0,0,0,0c0.8,0.8,1.2,1.8,1.2,2.8c0,1.1-0.4,2.1-1.2,2.8c-1.6,1.6-4.3,1.6-5.9,0c0,0-0.1-0.1-0.1-0.1
		c-1.4-1.3-3.3-2.1-5.3-2.1c-4.2,0-7.6,3.3-7.6,7.5c0,4.1,3.4,7.5,7.6,7.5c2,0,3.9-0.8,5.4-2.2c0.5-0.5,0.5-1.3,0-1.7
		c-0.5-0.5-1.3-0.5-1.7,0c-1,1-2.3,1.5-3.7,1.5c-2.8,0-5.2-2.2-5.2-5c0-2.8,2.3-5,5.2-5c1.4,0,2.7,0.5,3.7,1.5c0,0,0.1,0.1,0.1,0.1
		c2.6,2.4,6.7,2.4,9.2-0.1c1.3-1.2,1.9-2.9,1.9-4.6s-0.7-3.4-1.9-4.6c0,0,0,0,0,0c-3.5-3.4-8.1-5.2-13-5.2c-4.9,0-9.5,1.9-13,5.2
		c0,0,0,0,0,0c-1.6,1.6-4.3,1.6-5.9,0c-0.8-0.8-1.2-1.8-1.2-2.8c0-1,0.4-2,1.1-2.7c0,0,0.1-0.1,0.1-0.1c5-4.9,11.7-7.6,18.8-7.6
		c7.1,0,13.8,2.7,18.8,7.6c0,0,0,0,0,0c2.6,2.5,6.7,2.5,9.3,0c1.3-1.2,1.9-2.9,1.9-4.6c0-1.7-0.7-3.4-1.9-4.6c0,0,0,0,0,0
		c-3.6-3.5-7.7-6.2-12.1-8.1c1.5-2.2,2.5-4.8,3-7.5c5.5,2.3,10.6,5.7,15,9.9c0.5,0.5,1.3,0.5,1.7,0
		C-204.7-324.8-204.7-325.6-205.2-326.1z M-269.1-318.6C-269.1-318.6-269.1-318.6-269.1-318.6c-1.6,1.6-4.3,1.6-5.9,0
		c-0.8-0.8-1.2-1.8-1.2-2.8c0-1.1,0.4-2.1,1.2-2.8c0,0,0.1-0.1,0.1-0.1c4-3.9,8.5-6.9,13.5-9.2c0.6,2.7,1.7,5.2,3.3,7.4
		C-262.2-324.3-265.9-321.8-269.1-318.6z M-214.5-316.9C-214.5-316.9-214.5-316.9-214.5-316.9c0.8,0.8,1.2,1.8,1.2,2.8
		c0,1.1-0.4,2.1-1.2,2.8c-1.6,1.6-4.3,1.6-5.9,0c0,0,0,0,0,0c-4-3.9-9-6.5-14.4-7.7c3.3-1.2,6.1-3.2,8.4-5.8
		C-222.1-322.9-218-320.3-214.5-316.9z M-241.7-320.1c-9.8,0-17.7-7.9-17.7-17.7c0-9.8,7.9-17.7,17.7-17.7s17.7,7.9,17.7,17.7
		C-224.1-328.1-232-320.1-241.7-320.1z"/>
	<path class="st1" d="M-249.4-339.1h-1.9l0.1-3.7h5.6v-1.5h-7.1l-0.2,6.6h2.9c2.5,0,3.4,1.1,3.4,2.5c0,1.4-1,2.5-2.8,2.5
		c-1.3,0-2.5-0.6-3.4-1.6l-1,1c1.1,1.3,2.6,2,4.4,2c2.4,0,4.5-1.5,4.5-4.2C-244.9-337.4-246.3-339.1-249.4-339.1z"/>
	<path class="st1" d="M-235.4-338.3v1.5h3.9c-0.3,2.5-1.9,4.1-4.5,4.1c-2.8,0-4.9-2.1-4.9-5.1c0-3,2.2-5.1,5-5.1
		c1.6,0,2.9,0.7,3.8,1.7l1.2-1.2c-1.2-1.3-3-2.1-5-2.1c-3.9,0-6.7,2.8-6.7,6.7c0,4.2,3.2,6.7,6.6,6.7c3.9,0,6.3-3,6.3-6.7
		c0-0.1,0-0.3,0-0.4H-235.4z"/>
</g>
<g>
	<line class="st2" x1="-109.9" y1="-286.6" x2="-109.9" y2="-277.9"/>
	<path class="st2" d="M-123.6-277.9c-2.8,0-5.2-2.3-5.2-5.2v-77.8c0-2.8,2.3-5.2,5.2-5.2h69.9c2.8,0,5.2,2.3,5.2,5.2v77.8
		c0,2.8-2.3,5.2-5.2,5.2h-56.2"/>
	<path class="st2" d="M-109.9-286.6h-5c-2.8,0-5.2-2.3-5.2-5.2v-60.4c0-2.8,2.3-5.2,5.2-5.2h10.1c2.8,0,5.2,2.3,5.2,5.2v60.4"/>
	<g>
		<g>
			<circle class="st2" cx="-87.9" cy="-336.7" r="3.8"/>
			<circle class="st2" cx="-74" cy="-336.7" r="3.8"/>
			<circle class="st2" cx="-60.1" cy="-336.7" r="3.8"/>
			<circle class="st2" cx="-87.9" cy="-322.8" r="3.8"/>
			<circle class="st2" cx="-74" cy="-322.8" r="3.8"/>
			<circle class="st2" cx="-60.1" cy="-322.8" r="3.8"/>
			<circle class="st2" cx="-87.9" cy="-308.9" r="3.8"/>
			<circle class="st2" cx="-74" cy="-308.9" r="3.8"/>
			<circle class="st2" cx="-60.1" cy="-308.9" r="3.8"/>
			<circle class="st2" cx="-87.9" cy="-295" r="3.8"/>
			<circle class="st2" cx="-74" cy="-295" r="3.8"/>
			<circle class="st2" cx="-60.1" cy="-295" r="3.8"/>
		</g>
		<line class="st2" x1="-91.7" y1="-352.7" x2="-56.3" y2="-352.7"/>
	</g>
</g>
<g>
	<path class="st3" d="M-192.5-174.1v-1c0-2.7-2.1-4.9-4.8-5c-2.8-0.1-5.1,2.2-5.1,4.9l0,3.8h10.9c0.7,0,1.3,0.6,1.3,1.3v8.6
		c0,0.7-0.6,1.3-1.3,1.3h-2.7c-0.5,0-1-0.4-1.1-0.9l-0.8-3.2v0c0.6-0.5,0.9-1.2,0.8-2.1c-0.1-1-1-1.7-1.9-1.9
		c-1.3-0.1-2.5,0.9-2.5,2.2c0,0.7,0.3,1.3,0.8,1.7h0c0,0-0.5,2-0.8,3.2c-0.1,0.5-0.6,0.9-1.1,0.9h-2.7c-0.7,0-1.3-0.6-1.3-1.3v-8.6"
		/>
</g>
<g>
	<circle class="st4" cx="-74.3" cy="-166.9" r="23"/>
	<path class="st5" d="M-97.5-166.9l23.2-0.1 M-74.3-167v-23.1V-167z M-62.6-167c0,6.4-5.2,11.6-11.6,11.6c-6.4,0-11.7-5.2-11.7-11.6
		c0-6.4,5.2-11.6,11.7-11.6C-67.9-178.7-62.6-173.5-62.6-167z M-57-167c0,9.5-7.7,17.3-17.3,17.3c-9.5,0-17.3-7.7-17.3-17.3
		c0-9.5,7.7-17.3,17.3-17.3C-64.8-184.3-57-176.5-57-167z"/>
	<path class="st6" d="M-90-172.3c1.2,0,2.2-1,2.2-2.2c0-1.2-1-2.2-2.2-2.2c-1.2,0-2.2,1-2.2,2.2C-92.2-173.3-91.2-172.3-90-172.3"/>
</g>
<g>
	<circle class="st4" cx="-132.7" cy="-166.4" r="23"/>
	<path class="st5" d="M-121.9-173.8l7.1,7.2 M-121.9-173.8l-7.1,10.3 M-136-159.3l7.1-4.2 M-136-159.3l-7.1-9.5 M-150.1-163.9
		l7.1-4.9"/>
	<path class="st6" d="M-145.2-168.8c0-1.2,1-2.1,2.1-2.1s2.1,1,2.1,2.1c0,1.2-1,2.1-2.1,2.1S-145.2-167.6-145.2-168.8"/>
	<path class="st6" d="M-138.1-159.3c0-1.2,1-2.1,2.1-2.1s2.1,1,2.1,2.1c0,1.2-1,2.1-2.1,2.1S-138.1-158.1-138.1-159.3"/>
	<path class="st6" d="M-131.1-163.5c0-1.2,1-2.1,2.1-2.1c1.2,0,2.1,1,2.1,2.1c0,1.2-1,2.1-2.1,2.1
		C-130.1-161.3-131.1-162.3-131.1-163.5"/>
	<path class="st6" d="M-124-173.8c0-1.2,1-2.1,2.1-2.1c1.2,0,2.1,1,2.1,2.1c0,1.2-1,2.1-2.1,2.1C-123.1-171.6-124-172.6-124-173.8"
		/>
	<path class="st6" d="M-117.1-166.7c0-1.2,1-2.1,2.1-2.1c1.2,0,2.1,1,2.1,2.1c0,1.2-1,2.1-2.1,2.1
		C-116.2-164.6-117.1-165.5-117.1-166.7"/>
	<path class="st6" d="M-152-164c0-1.2,1-2.1,2.1-2.1c1.2,0,2.1,1,2.1,2.1c0,1.2-1,2.1-2.1,2.1C-151-161.9-152-162.9-152-164"/>
</g>
<g>
	<circle class="st4" cx="-24.5" cy="-207.1" r="23"/>
	<g>
		<defs>
			<path id="SVGID_1_" d="M-48.3-207.4c0,12.4,9.6,22.6,21.8,23.5h3.6c11.7-0.9,21.1-10.4,21.8-22.2v-2.7
				c-0.7-12.4-11-22.2-23.6-22.2C-37.8-231-48.3-220.4-48.3-207.4"/>
		</defs>
		<clipPath id="SVGID_2_">
			<use xlink:href="#SVGID_1_"  style="overflow:visible;"/>
		</clipPath>
		<path class="st7" d="M-1.7-175.8h-12.1c-0.5,0-0.9-0.4-0.9-0.9v-5.2c0-0.5,0.4-0.9,0.9-0.9h12.1c0.5,0,0.9,0.4,0.9,0.9v5.2
			C-0.8-176.2-1.2-175.8-1.7-175.8z M-15.7-175.8h-12.1c-0.5,0-0.9-0.4-0.9-0.9v-5.2c0-0.5,0.4-0.9,0.9-0.9h12.1
			c0.5,0,0.9,0.4,0.9,0.9v5.2C-14.8-176.2-15.2-175.8-15.7-175.8z M-29.6-175.8h-12.1c-0.5,0-0.9-0.4-0.9-0.9v-5.2
			c0-0.5,0.4-0.9,0.9-0.9h12.1c0.5,0,0.9,0.4,0.9,0.9v5.2C-28.7-176.2-29.1-175.8-29.6-175.8z M-43.6-175.8h-12.1
			c-0.5,0-0.9-0.4-0.9-0.9v-5.2c0-0.5,0.4-0.9,0.9-0.9h12.1c0.5,0,0.9,0.4,0.9,0.9v5.2C-42.7-176.2-43.1-175.8-43.6-175.8z
			 M5.5-182.9H-6.6c-0.5,0-0.9-0.4-0.9-0.9v-5.2c0-0.5,0.4-0.9,0.9-0.9H5.5c0.5,0,0.9,0.4,0.9,0.9v5.2C6.5-183.3,6-182.9,5.5-182.9z
			 M-8.5-182.9h-12.1c-0.5,0-0.9-0.4-0.9-0.9v-5.2c0-0.5,0.4-0.9,0.9-0.9h12.1c0.5,0,0.9,0.4,0.9,0.9v5.2
			C-7.5-183.3-7.9-182.9-8.5-182.9z M-22.4-182.9h-12.1c-0.5,0-0.9-0.4-0.9-0.9v-5.2c0-0.5,0.4-0.9,0.9-0.9h12.1
			c0.5,0,0.9,0.4,0.9,0.9v5.2C-21.4-183.3-21.8-182.9-22.4-182.9z M-36.3-182.9h-12.1c-0.5,0-0.9-0.4-0.9-0.9v-5.2
			c0-0.5,0.4-0.9,0.9-0.9h12.1c0.5,0,0.9,0.4,0.9,0.9v5.2C-35.4-183.3-35.8-182.9-36.3-182.9z M-1.7-190h-12.1
			c-0.5,0-0.9-0.4-0.9-0.9v-5.2c0-0.5,0.4-0.9,0.9-0.9h12.1c0.5,0,0.9,0.4,0.9,0.9v5.2C-0.8-190.4-1.2-190-1.7-190z M-15.7-190
			h-12.1c-0.5,0-0.9-0.4-0.9-0.9v-5.2c0-0.5,0.4-0.9,0.9-0.9h12.1c0.5,0,0.9,0.4,0.9,0.9v5.2C-14.8-190.4-15.2-190-15.7-190z
			 M-29.6-190h-12.1c-0.5,0-0.9-0.4-0.9-0.9v-5.2c0-0.5,0.4-0.9,0.9-0.9h12.1c0.5,0,0.9,0.4,0.9,0.9v5.2
			C-28.7-190.4-29.1-190-29.6-190z M-43.6-190h-12.1c-0.5,0-0.9-0.4-0.9-0.9v-5.2c0-0.5,0.4-0.9,0.9-0.9h12.1c0.5,0,0.9,0.4,0.9,0.9
			v5.2C-42.7-190.4-43.1-190-43.6-190z M5.5-197.1H-6.6c-0.5,0-0.9-0.4-0.9-0.9v-5.2c0-0.5,0.4-0.9,0.9-0.9H5.5
			c0.5,0,0.9,0.4,0.9,0.9v5.2C6.5-197.5,6-197.1,5.5-197.1z M-8.5-197.1h-12.1c-0.5,0-0.9-0.4-0.9-0.9v-5.2c0-0.5,0.4-0.9,0.9-0.9
			h12.1c0.5,0,0.9,0.4,0.9,0.9v5.2C-7.5-197.5-7.9-197.1-8.5-197.1z M-22.4-197.1h-12.1c-0.5,0-0.9-0.4-0.9-0.9v-5.2
			c0-0.5,0.4-0.9,0.9-0.9h12.1c0.5,0,0.9,0.4,0.9,0.9v5.2C-21.4-197.5-21.8-197.1-22.4-197.1z M-36.3-197.1h-12.1
			c-0.5,0-0.9-0.4-0.9-0.9v-5.2c0-0.5,0.4-0.9,0.9-0.9h12.1c0.5,0,0.9,0.4,0.9,0.9v5.2C-35.4-197.5-35.8-197.1-36.3-197.1z
			 M-1.7-204.2h-12.1c-0.5,0-0.9-0.4-0.9-0.9v-5.2c0-0.5,0.4-0.9,0.9-0.9h12.1c0.5,0,0.9,0.4,0.9,0.9v5.2
			C-0.8-204.6-1.2-204.2-1.7-204.2z M-15.7-204.2h-12.1c-0.5,0-0.9-0.4-0.9-0.9v-5.2c0-0.5,0.4-0.9,0.9-0.9h12.1
			c0.5,0,0.9,0.4,0.9,0.9v5.2C-14.8-204.6-15.2-204.2-15.7-204.2z M-29.6-204.2h-12.1c-0.5,0-0.9-0.4-0.9-0.9v-5.2
			c0-0.5,0.4-0.9,0.9-0.9h12.1c0.5,0,0.9,0.4,0.9,0.9v5.2C-28.7-204.6-29.1-204.2-29.6-204.2z M-43.6-204.2h-12.1
			c-0.5,0-0.9-0.4-0.9-0.9v-5.2c0-0.5,0.4-0.9,0.9-0.9h12.1c0.5,0,0.9,0.4,0.9,0.9v5.2C-42.7-204.6-43.1-204.2-43.6-204.2z"/>
	</g>
</g>
<circle class="st4" cx="37.3" cy="-181.7" r="23"/>
<path class="st8" d="M37.5-172.5c-1.2-0.5-5.6-2.7-5.6-7.1v-6.8c2.6-0.1,4.7-1,5.6-1.5c0.9,0.5,3,1.4,5.6,1.5v6.8
	C43.1-175.2,38.7-173,37.5-172.5z"/>
<path class="st8" d="M39.9-177.6H35v-3.5h4.8V-177.6z M36-181.1v-1.4c0-0.8,0.7-1.5,1.5-1.5c0.8,0,1.5,0.7,1.5,1.5v1.4"/>
<path class="st8" d="M51.1-188.6l0-1.4c0-0.5-0.4-0.9-0.9-0.9l-12.3,0.1l-3.6-3.6l-8.6,0c-1,0-1.9,0.9-1.9,1.9l0.1,22.7h27.2V-188.6
	z"/>
<g>
	<circle class="st4" cx="103.6" cy="-177.3" r="23"/>
	<path class="st8" d="M114-168.5c0,1.8-1.5,3.3-3.3,3.3s-3.3-1.5-3.3-3.3c0-1.8,1.5-3.3,3.3-3.3S114-170.3,114-168.5z M110-169.4
		l0.8,2l1.5-3.9 M94.8-172.4h9.1 M94.8-175.3h14.7 M94.8-178.1h14.7 M94.8-180.9h14.7 M94.8-183.7h9.9 M94.8-186.6h9.9 M109.4-192.2
		h6.9v29.8H91.2v-29.8H109.4z"/>
</g>
<circle class="st4" cx="166.3" cy="-172.9" r="23"/>
<path class="st8" d="M166.1-167.7v1.1 M166.1-178.4v7.2 M166.1-187l-13.9,24.2h27.9L166.1-187z"/>
<circle class="st4" cx="239.9" cy="-172.6" r="23"/>
<path class="st8" d="M239.9-155.2c-2.4-1-11.4-5.4-11.4-14.4v-13.7c5.3-0.1,9.6-2,11.4-3c1.8,1,6,2.8,11.4,3v13.7
	C251.3-160.6,242.3-156.2,239.9-155.2z"/>
<path class="st8" d="M244.8-165.5H235v-7.1h9.8V-165.5z M236.9-172.6v-2.8c0-1.6,1.3-3,3-3c1.6,0,3,1.3,3,3v2.8"/>
<g>
	<path class="st0" d="M365.7-194.6v-5.9c0-16.5-12.9-30.4-29.4-30.8c-17.1-0.5-31.1,13.2-31.1,30.2l0,23.2h67.2
		c4.2,0,7.7,3.5,7.7,7.7v53.1c0,4.2-3.5,7.7-7.7,7.7c0,0-10.2,0-16.8,0c-3.3,0-6.2-2.3-7-5.5l-4.8-19.9l0,0c3.6-2.9,5.8-7.6,5-12.7
		c-0.9-6-5.8-10.7-11.8-11.4c-8.2-0.9-15.1,5.5-15.1,13.5c0,4.3,2,8.2,5.2,10.6l0,0c0,0-3,12.4-4.8,19.9c-0.8,3.2-3.7,5.5-7,5.5
		h-16.8c-4.2,0-7.7-3.5-7.7-7.7v-53.1"/>
</g>
<g>
	<path class="st9" d="M241.4-105.5c1.7,0.6,3.7,0.2,5-1.1c1.4-1.4,1.7-3.3,1.1-5l-2.4,2.4c-0.3,0.3-0.8,0.3-1.1,0l-1.8-1.8
		c-0.3-0.3-0.3-0.8,0-1.1l2.4-2.4c-1.7-0.6-3.7-0.2-5,1.1c-1.4,1.4-1.7,3.3-1.1,5l-7.4,7.4c-1.7-0.6-3.7-0.2-5,1.1
		c-1.4,1.4-1.7,3.3-1.1,5l2.4-2.4c0.3-0.3,0.8-0.3,1.1,0l1.8,1.8c0.3,0.3,0.3,0.8,0,1.1l-2.4,2.4c1.7,0.6,3.7,0.2,5-1.1
		c1.4-1.4,1.7-3.3,1.1-5l2.2-2.2"/>
	<path class="st9" d="M236.2-100.3l-5.8-6.2c-1-1-2.7-1-3.7,0c-0.9,0.9-1,2.4-0.2,3.4l-2,1.3c0,0-3.2-4.8,0.5-8.5
		c1.3-1.3,2.5-2.5,3.6-3.6c0.3,0.1,0.7,0.1,1,0.2c0.3,0.1,0.6-0.2,0.5-0.5l-0.2-1l1.7-1.7l4.6,4.6l-1.6,1.6c-0.5-0.5-1.3-0.5-1.7,0
		c-0.5,0.5-0.5,1.3,0,1.7l12.8,11.9c0.1,0.1,0.2,0.2,0.2,0.2c0.7,0.8,0.7,2,0.1,2.9c-0.9,1.1-2.5,1.2-3.5,0.3c0,0-0.1-0.1-0.1-0.1
		l-4.2-4.4"/>
</g>
<g>
	<path class="st10" d="M557,212.6c-16.8,29.7-59.2,67.7-114.4,99.6c-81.9,47.3-161,63.4-176.8,36c-7.4-12.7,0.3-32.6,18.8-55"/>
	<path class="st10" d="M503.8,166c29.3-5.1,50.9-1.9,58.3,11c2.6,4.5,3.3,10,2.3,16.1"/>
	<circle class="st10" cx="561.6" cy="203.2" r="10.5"/>
	<circle class="st10" cx="410.2" cy="234.7" r="132"/>
</g>
<image style="overflow:visible;" width="1600" height="700" xlink:href="../Dropbox (Muuaaa)/Muuaaa Team Folder/Graphic Design_Gabriel/Neptuno/02 Design/images/slide-22.jpg"  transform="matrix(0.4158 0 0 0.4158 120.0833 -279.9207)">
</image>
<image style="overflow:visible;" width="1078" height="516" xlink:href="datacenter-google-1078x516.jpg"  transform="matrix(1 0 0 1 246.4085 -920.8921)">
</image>
<g>
	<g>
		<g>
			<path class="st11" d="M1140.7,181.5c7.8-13.2,12.3-28.7,12.3-45.2c0-49.1-39.8-88.9-88.9-88.9c-49.1,0-88.9,39.8-88.9,88.9
				c0,16,4.2,30.9,11.6,43.9"/>
			<path class="st11" d="M997,194.4c16.3,18.8,40.3,30.7,67.2,30.7c26.8,0,50.9-11.9,67.2-30.7"/>
			<rect x="991.5" y="191.2" class="st11" width="45.9" height="3.2"/>
			<g>
				<rect x="986.8" y="176.1" class="st11" width="55.3" height="15.1"/>
				<line class="st11" x1="991.4" y1="180.4" x2="991.4" y2="187"/>
				<line class="st11" x1="994.9" y1="180.4" x2="994.9" y2="187"/>
				<line class="st11" x1="998.4" y1="180.4" x2="998.4" y2="187"/>
				<line class="st11" x1="1001.8" y1="180.4" x2="1001.8" y2="187"/>
				<line class="st11" x1="1005.3" y1="180.4" x2="1005.3" y2="187"/>
				<line class="st11" x1="1008.8" y1="180.4" x2="1008.8" y2="187"/>
				<circle class="st11" cx="1035.5" cy="183.7" r="2.3"/>
				<circle class="st11" cx="1027.5" cy="183.7" r="2.3"/>
				<circle class="st11" cx="1019.5" cy="183.7" r="2.3"/>
			</g>
			<path class="st11" d="M996.6,176.1v-19.6c0-1.2,1-2.2,2.2-2.2l0,0c1.2,0,2.2,1,2.2,2.2v19.6"/>
			<path class="st11" d="M990.7,144.2c2.1-2.1,5-3.4,8.1-3.4"/>
			<path class="st11" d="M993,147.3c1.5-1.5,3.6-2.4,5.9-2.4"/>
			<path class="st11" d="M995.2,150.5c0.9-0.9,2.2-1.5,3.6-1.5"/>
			<path class="st11" d="M1007,144.2c-2.1-2.1-5-3.4-8.1-3.4"/>
			<path class="st11" d="M1004.7,147.3c-1.5-1.5-3.6-2.4-5.9-2.4"/>
			<path class="st11" d="M1002.5,150.5c-0.9-0.9-2.2-1.5-3.6-1.5"/>
			<path class="st11" d="M1027.9,176.1v-19.6c0-1.2,1-2.2,2.2-2.2l0,0c1.2,0,2.2,1,2.2,2.2v19.6"/>
			<path class="st11" d="M1022,144.2c2.1-2.1,5-3.4,8.1-3.4"/>
			<path class="st11" d="M1024.3,147.3c1.5-1.5,3.6-2.4,5.9-2.4"/>
			<path class="st11" d="M1026.5,150.5c0.9-0.9,2.2-1.5,3.6-1.5"/>
			<path class="st11" d="M1038.3,144.2c-2.1-2.1-5-3.4-8.1-3.4"/>
			<path class="st11" d="M1036,147.3c-1.5-1.5-3.6-2.4-5.9-2.4"/>
			<path class="st11" d="M1033.8,150.5c-0.9-0.9-2.2-1.5-3.6-1.5"/>
			<rect x="1048.5" y="85.4" class="st11" width="42.5" height="105.8"/>
			<rect x="1054" y="91" class="st11" width="31.4" height="8.2"/>
			<rect x="1054" y="99.2" class="st11" width="31.4" height="8.2"/>
			<rect x="1054" y="107.3" class="st11" width="31.4" height="8.2"/>
			<rect x="1054" y="115.5" class="st11" width="31.4" height="8.2"/>
			<rect x="1054" y="123.6" class="st11" width="31.4" height="8.2"/>
			<rect x="1054" y="131.8" class="st11" width="31.4" height="8.2"/>
			<rect x="1054" y="158.1" class="st11" width="31.4" height="23.2"/>
			<circle class="st11" cx="1069.5" cy="169.6" r="2.8"/>
			<g>
				<rect x="1054" y="147" class="st11" width="18.6" height="4.1"/>
				<rect x="1081.3" y="147" class="st11" width="4.1" height="4.1"/>
			</g>
			<line class="st11" x1="1066.6" y1="169.6" x2="1054" y2="169.6"/>
			<line class="st11" x1="1072.3" y1="169.6" x2="1084.9" y2="169.6"/>
			<rect x="1048.5" y="191.2" class="st11" width="42.5" height="3.2"/>
			<circle class="st11" cx="1120.2" cy="163.6" r="11.7"/>
			<circle class="st11" cx="1120.2" cy="163.6" r="6.4"/>
			<circle class="st11" cx="1120.2" cy="163.6" r="2.6"/>
			<line class="st11" x1="1120.2" y1="175.4" x2="1120.2" y2="181.5"/>
			<g>
				<rect x="1097.4" y="181.5" class="st11" width="44.1" height="9.8"/>
				<line class="st11" x1="1130.7" y1="186.3" x2="1108.1" y2="186.3"/>
			</g>
			<rect x="1101" y="191.2" class="st11" width="36.7" height="3.2"/>
		</g>
	</g>
</g>
<g>
	<linearGradient id="SVGID_3_" gradientUnits="userSpaceOnUse" x1="1202.1273" y1="14.6812" x2="1324.3651" y2="14.6812">
		<stop  offset="0" style="stop-color:#C558A0"/>
		<stop  offset="0.5945" style="stop-color:#7F3E93"/>
		<stop  offset="1" style="stop-color:#532E8B"/>
	</linearGradient>
	<path class="st12" d="M1293.1-7.5l31.3,17.6L1263,44.7l-60.9-34.6l30.8-17.5C1251.6-17.9,1274.4-18,1293.1-7.5z"/>
	<path class="st13" d="M1202.1,10.1v3.6l59.9,34.7c0.4,0.2,0.8,0.2,1.1,0l61.2-34.7v-3.7L1263,44.7L1202.1,10.1z"/>
	<path class="st14" d="M1287.9-38.1l36.4,20.5L1263,16.9l-60.9-34.6l36-20.4C1253.5-46.8,1272.5-46.9,1287.9-38.1z"/>
	<path class="st15" d="M1289.6-63.1l34.8,19.6L1263-8.9l-60.9-34.6l34.3-19.5C1252.9-72.3,1273.1-72.4,1289.6-63.1z"/>
	<path class="st16" d="M1202.1-43.5l0.1,3.6L1262-5.1c0.4,0.2,0.8,0.2,1.2,0l61.2-34.7v-3.6L1263-8.9L1202.1-43.5z"/>
	<path class="st17" d="M1202.1-17.6l0.1,3.6l59.7,34.7c0.4,0.2,0.9,0.2,1.3,0l61.1-34.7v-3.6L1263,16.9L1202.1-17.6z"/>
</g>
<g>
	<g>
		<path class="st18" d="M1743.6-81.9l-76.2,129.5c-1.5,2.5,0.3,5.7,3.3,5.7h61.4c0.7,0,1.3,0.6,1.2,1.4l-13.6,101.2
			c-0.4,3.3,4,4.9,5.7,2L1819.4,2c1.4-2.3-0.3-5.2-2.9-5.2h-74.4c-0.7,0-1.3-0.6-1.2-1.3l8-75.7
			C1749.3-83.2,1745.1-84.5,1743.6-81.9z"/>
	</g>
	<g>
		<g>
			<path class="st1" d="M1604,21.5c-28.5-17-50.1-44.3-59.4-76.2c-9.1-31-6.3-65.2,7.9-94.2c28.1-57.4,95.2-86.9,156.5-68.2
				c35.2,10.7,64.3,36.3,80.3,69.4c2,4.1,8.2,0.5,6.2-3.6c-14.9-30.8-40.8-55.3-72.4-68.3c-31.7-13-68.2-13.7-100.3-1.8
				c-29.8,11.1-55.3,32.3-71.4,59.7c-17.1,29-22.9,63.8-16.6,96.8c7.4,38.7,31.9,72.6,65.7,92.7C1604.4,30,1608,23.8,1604,21.5
				L1604,21.5z"/>
		</g>
	</g>
	<g>
		<g>
			<path class="st1" d="M1793.3-146.2c47.3-13.1,98.5,12.1,115.3,58.7c15.6,43.4-2.9,92.9-43.1,115.3c-25.3,14.1-55.7,15.3-82.5,4.6
				c-4.3-1.7-6.1,5.2-1.9,6.9c49.2,19.8,107.2-2.1,130.2-50.1c21.5-44.9,6.9-99.8-33.9-128.2c-25-17.4-56.8-22.2-86-14.1
				C1787-151.9,1788.9-145,1793.3-146.2L1793.3-146.2z"/>
		</g>
	</g>
	<g>
		<g>
			<path class="st1" d="M1785.1,37.6c9.8-16.3,19.7-32.6,29.5-48.9c1.4-2.3-0.4-5.4-3.1-5.4c-27.2,0-54.3,0-81.5,0
				c1.2,1.2,2.4,2.4,3.6,3.6c3.8-28.3,7.6-56.6,11.3-84.9c0.6-4.1,1.1-8.2,1.7-12.3c0.5-3.7-5-4.6-6.7-1.8
				c-10.1,17.3-20.1,34.5-30.2,51.8c-16.1,27.5-32.2,55.1-48.3,82.6c-3.7,6.4-7.5,12.8-11.2,19.2c-1.4,2.3,0.4,5.4,3.1,5.4
				c23,0,46.1,0,69.1,0c-1.2-1.2-2.4-2.4-3.6-3.6c-4.6,34.3-9.2,68.6-13.8,102.9c-0.6,4.8-1.3,9.6-1.9,14.4c-0.5,3.7,5,4.6,6.7,1.8
				c15.8-26.3,31.7-52.5,47.5-78.8c2.3-3.8,4.5-7.5,6.8-11.3c2.4-4-3.8-7.6-6.2-3.6c-15.8,26.3-31.7,52.5-47.5,78.8
				c-2.3,3.8-4.5,7.5-6.8,11.3c2.2,0.6,4.4,1.2,6.7,1.8c4.6-34.3,9.2-68.6,13.8-102.9c0.6-4.8,1.3-9.6,1.9-14.4
				c0.3-1.9-1.8-3.6-3.6-3.6c-23,0-46.1,0-69.1,0c1,1.8,2.1,3.6,3.1,5.4c10.1-17.3,20.1-34.5,30.2-51.8
				c16.1-27.5,32.2-55.1,48.3-82.6c3.7-6.4,7.5-12.8,11.2-19.2c-2.2-0.6-4.4-1.2-6.7-1.8c-3.8,28.3-7.6,56.6-11.3,84.9
				c-0.6,4.1-1.1,8.2-1.7,12.3c-0.3,1.9,1.8,3.6,3.6,3.6c27.2,0,54.3,0,81.5,0c-1-1.8-2.1-3.6-3.1-5.4
				c-9.8,16.3-19.7,32.6-29.5,48.9C1776.6,37.9,1782.8,41.5,1785.1,37.6L1785.1,37.6z"/>
		</g>
	</g>
</g>
<g>
	<g>
		<path class="st18" d="M2674.5,10.4h-73.2c-5.1,0-9.3,4.2-9.3,9.3v51.7c0,5.1,4.2,9.3,9.3,9.3h73.2c5.1,0,9.3-4.2,9.3-9.3V19.7
			C2683.8,14.6,2679.7,10.4,2674.5,10.4z M2649.8,64.5c0.3,1.2-0.6,2.3-1.8,2.3h-20.1c-1.2,0-2.1-1.1-1.8-2.3l4.5-18.8
			c-2.8-2.2-4.7-5.6-4.7-9.5c0-7.5,6.8-13.4,14.6-11.8c4.7,1,8.4,4.8,9.2,9.5c0.9,4.8-1.1,9.1-4.5,11.8L2649.8,64.5z"/>
	</g>
</g>
<g>
	<path class="st18" d="M2749.5-141.1l-53.6,10.6c-0.6,0.1-1.3-0.1-1.7-0.6l-27.2-30.3c-1-1.1-0.4-2.8,1-3.1l73.9-14.6
		c1-0.2,2,0.5,2.2,1.5l6.9,34.3C2751.2-142.3,2750.5-141.3,2749.5-141.1z"/>
</g>
<g>
	<path class="st18" d="M2515.2-141.1l53.6,10.6c0.6,0.1,1.3-0.1,1.7-0.6l27.2-30.3c1-1.1,0.4-2.8-1-3.1l-73.9-14.6
		c-1-0.2-2,0.5-2.2,1.5l-6.9,34.3C2513.6-142.3,2514.2-141.3,2515.2-141.1z"/>
</g>
<g>
	<g>
		<path class="st18" d="M2722-72.5c-49.5,0-85.9-23.3-85.9-23.3s-36.4,23.3-85.9,23.3h-8.2V38.2c0,83.8,94.1,116.3,94.1,116.3
			s94.1-32.4,94.1-116.3V-72.5H2722z M2717.4,38.2c0,63.9-64.1,95.2-81.3,102.4c-17.2-7.2-81.3-38.5-81.3-102.4v-97.9
			c38.1-1,68.2-14.5,81.3-21.4c13,6.9,43.1,20.3,81.3,21.4V38.2z"/>
	</g>
</g>
<circle class="st19" cx="2539.8" cy="-116.1" r="8.3"/>
<line class="st19" x1="2539.8" y1="-124.4" x2="2539.8" y2="-141.1"/>
<line class="st19" x1="2531.5" y1="-116.1" x2="2460.5" y2="-116.1"/>
<line class="st19" x1="2524.7" y1="-173" x2="2548.2" y2="-168.4"/>
<polyline class="st19" points="2588.3,-160.4 2597.3,-158.7 2593.8,-141.4 2574.6,-145.2 "/>
<polygon class="st19" points="2509.7,-147 2566.2,-135.9 2596.3,-169.4 2517.4,-185 "/>
<circle class="st19" cx="2725" cy="-116.1" r="8.3"/>
<path class="st19" d="M2725-124.4v-16.7V-124.4z"/>
<path class="st19" d="M2733.3-116.1h71H2733.3z"/>
<line class="st19" x1="2740.1" y1="-173" x2="2716.6" y2="-168.4"/>
<polygon class="st19" points="2676.5,-160.4 2667.5,-158.7 2671,-141.4 2690.2,-145.2 "/>
<polygon class="st19" points="2755.1,-147 2698.6,-135.9 2668.4,-169.4 2747.4,-185 "/>
<path class="st19" d="M2704,99.5c63.4-27.6,107.7-90.9,107.7-164.5c0-99-80.3-179.3-179.3-179.3s-179.3,80.3-179.3,179.3
	c0,73.6,44.3,136.8,107.7,164.5"/>
<path class="st19" d="M2632.4,150.7c0,0,94.1-32.4,94.1-116.3V-76.2h-8.2c-49.5,0-85.9-23.3-85.9-23.3s-36.4,23.3-85.9,23.3h-8.2
	V34.5C2538.3,118.3,2632.4,150.7,2632.4,150.7z"/>
<path class="st19" d="M2632.4,136.9c-17.2-7.2-81.3-38.5-81.3-102.4v-97.9c38.1-1,68.2-14.5,81.3-21.4c13,6.9,43.1,20.3,81.3,21.4
	v97.9C2713.7,98.4,2649.6,129.7,2632.4,136.9z"/>
<path class="st19" d="M2669,75.1h-73.2c-5.1,0-9.3-4.2-9.3-9.3V14.1c0-5.1,4.2-9.3,9.3-9.3h73.2c5.1,0,9.3,4.2,9.3,9.3v51.7
	C2678.3,70.9,2674.1,75.1,2669,75.1z"/>
<path class="st19" d="M2644.2,59l-4.5-18.8c3.4-2.6,5.4-7,4.5-11.8c-0.9-4.7-4.6-8.5-9.2-9.5c-7.8-1.6-14.6,4.3-14.6,11.8
	c0,3.9,1.9,7.3,4.7,9.5l-4.5,18.8c-0.3,1.2,0.6,2.3,1.8,2.3h20.1C2643.6,61.3,2644.5,60.1,2644.2,59z"/>
<path class="st19" d="M2663.4,4.8c0,0,0-23.8,0-23.8c0-17.1-13.9-31-31-31c-17.1,0-31,13.9-31,31V4.8H2663.4z"/>
<path class="st19" d="M3126,99.5c63.4-27.6,107.7-90.9,107.7-164.5c0-99-80.3-179.3-179.3-179.3s-179.3,80.3-179.3,179.3
	c0,73.6,44.3,136.8,107.7,164.5"/>
<g>
	<path class="st19" d="M3102.7-75.6c15,5.4,32.4,2.1,44.4-9.9s15.3-29.4,9.9-44.4l-21.3,21.3c-2.7,2.7-7,2.7-9.7,0l-15.9-15.9
		c-2.7-2.7-2.7-7,0-9.7l21.3-21.3c-15-5.4-32.4-2.1-44.4,9.9c-12,12-15.3,29.4-9.9,44.4l-65,65c-15-5.4-32.4-2.1-44.4,9.9
		s-15.3,29.4-9.9,44.4l21.3-21.3c2.7-2.7,7-2.7,9.7,0l15.9,15.9c2.7,2.7,2.7,7,0,9.7l-21.3,21.3c15,5.4,32.4,2.1,44.4-9.9
		s15.3-29.4,9.9-44.4l19.2-19.2"/>
	<path class="st19" d="M3056.9-29.8L3006-84.3c-8.9-8.9-23.4-8.9-32.4,0c-8.2,8.2-8.9,21.2-1.9,30.2L2953.8-43c0,0-28.2-42.3,4-74.5
		c11.2-11.2,22.2-22.2,31.5-31.5c3,0.5,6.3,1.1,9.1,1.5c2.8,0.5,5.2-1.9,4.7-4.7l-1.5-9.1l14.6-14.6l40.7,40.7l-14.4,14.4
		c-4.2-4.2-11.1-4.2-15.4,0c-4.2,4.2-4.2,11.1,0,15.4L3139.8-0.3c0.8,0.7,1.5,1.4,2.2,2.2c6.1,7.1,6.5,17.9,0.8,25.4
		c-7.6,10.1-22.1,10.9-30.7,2.2c-0.3-0.3-0.7-0.7-1-1.1l-36.5-39.2"/>
</g>
<g>
	<path class="st19" d="M3522.9,2.2l-19.2,19.2c5.4,15,2.1,32.4-9.9,44.4s-29.4,15.3-44.4,9.9l21.3-21.3c2.7-2.7,2.7-7,0-9.7
		l-15.9-15.9c-2.7-2.7-7-2.7-9.7,0l-21.3,21.3c-5.4-15-2.1-32.4,9.9-44.4s29.4-15.3,44.4-9.9l65-65c-5.4-15-2.1-32.4,9.9-44.4
		s29.4-15.3,44.4-9.9l-21.3,21.3c-2.7,2.7-2.7,7,0,9.7l15.9,15.9c2.7,2.7,7,2.7,9.7,0l21.3-21.3c5.4,15,2.1,32.4-9.9,44.4
		s-29.4,15.3-44.4,9.9"/>
	<path class="st19" d="M3522.9,2.2L3472-52.3c-8.9-8.9-23.4-8.9-32.4,0c-8.2,8.2-8.9,21.2-1.9,30.2L3419.8-11c0,0-28.2-42.3,4-74.5
		c11.2-11.2,22.2-22.2,31.5-31.5c3,0.5,6.3,1.1,9.1,1.5c2.8,0.5,5.2-1.9,4.7-4.7l-1.5-9.1l14.6-14.6l40.7,40.7l-14.4,14.4
		c-4.2-4.2-11.1-4.2-15.4,0c-4.2,4.2-4.2,11.1,0,15.4l112.7,105.1c0.8,0.7,1.5,1.4,2.2,2.2c6.1,7.1,6.5,17.9,0.8,25.4
		c-7.6,10.1-22.1,10.9-30.7,2.2c-0.3-0.3-0.7-0.7-1-1.1l-36.5-39.2l-0.7,81.4c-64.4,25.3-133,9.1-185.1-42.9
		c-70-70-70-183.6,0-253.6c70-70,183.6-70,253.6,0c52,52,65.4,128.1,40.1,192.5"/>
</g>
<g>
	<path class="st20" d="M-64.2-36v-1.3c0-0.5-0.4-0.9-0.9-0.9h-11.8l-3.5-3.5h-8.3c-1,0-1.8,0.8-1.8,1.8V-18l5.5-15
		c0.1-0.4,0.5-0.6,0.9-0.6h21.7c0.6,0,1.1,0.6,0.9,1.2l-5,13.8c-0.1,0.4-0.5,0.6-0.9,0.6h-19.9"/>
</g>
<g>
	<path class="st21" d="M-136.5-22.5c-5.1-3-8.6-8.6-8.6-15c0-9.6,7.8-17.5,17.5-17.5c7,0,13,4.1,15.8,9.9"/>
	<path class="st21" d="M-111.8-45.1c1.1-0.3,2.3-0.5,3.5-0.5c7,0,12.7,5.7,12.7,12.7s-5.7,12.7-12.7,12.7c-1.7,0-3.4-0.3-4.9-1"/>
	<polyline class="st21" points="-113.2,-21.1 -109.4,-27.4 -119.9,-27.4 -118.2,-40 -129.8,-20.1 -120.9,-20.1 -122.9,-4.9 
		-115.9,-16.6 	"/>
</g>
<g>
	<path class="st22" d="M-39.6-29.8c-6.9,0-12.5-5.6-12.5-12.5c0-5,2.9-9.3,7.1-11.3"/>
	<path class="st22" d="M-45.1-53.6c-0.1-0.4-0.1-0.8-0.1-1.2c0-4.5,3.6-8.1,8.1-8.1c1.7,0,3.2,0.5,4.5,1.4"/>
	<path class="st22" d="M-32.5-61.7c3-4.6,8.2-7.6,14.1-7.6c9.2,0,16.7,7.4,16.9,16.5"/>
	<path class="st22" d="M-1.5-52.7c5.1,1.2,8.9,5.8,8.9,11.3c0,6.4-5.2,11.6-11.6,11.6"/>
	<path class="st22" d="M-33-29.8c0-5.9,4.7-10.6,10.6-10.6s10.6,4.7,10.6,10.6s-4.7,10.6-10.6,10.6"/>
	<line class="st22" x1="-39.6" y1="-29.8" x2="-33" y2="-29.8"/>
	<path class="st22" d="M-30.4-29.8c1.4,0,2.6,1.2,2.6,2.6s-1.2,2.6-2.6,2.6s-2.6-1.2-2.6-2.6"/>
	<line class="st22" x1="-33" y1="-29.8" x2="-33" y2="-27.2"/>
	<line class="st22" x1="-30.4" y1="-29.8" x2="-33" y2="-29.8"/>
	<line class="st22" x1="-24.4" y1="-19.2" x2="-21.9" y2="-16.4"/>
	<line class="st22" x1="-24.4" y1="-19.2" x2="-21.9" y2="-22.1"/>
</g>
<g>
	<path class="st23" d="M-86.6,13.4c-0.2-1.5,0.4-2.3,0.4-2.3c0.7-0.7,2.4-2.4,2.4-2.4l3.9,3.9l-2.2,2.4c0,0,0.8,1.6,2.7,3.5
		s3.5,2.7,3.5,2.7l2.4-2.2l3.9,3.9"/>
	<path class="st23" d="M-85.5,6c2.2-4.8,7.1-8.2,12.7-8.2c7.7,0,14,6.3,14,14s-6.3,14-14,14c-0.4,0-0.7,0-1.1,0"/>
	<g>
		<line class="st23" x1="-66.1" y1="4" x2="-70.6" y2="16.3"/>
		<polyline class="st23" points="-65.9,10.9 -62.3,10.9 -64.8,16.3 		"/>
		<g>
			<polyline class="st23" points="-71.4,9.4 -71.4,4 -74.1,8 -70.4,8 			"/>
			<path class="st23" d="M-75.4,9.4h-3.3l2.6-2.9c0.3-0.3,0.4-0.6,0.4-1c0-0.8-0.7-1.5-1.5-1.5c-0.8,0-1.5,0.7-1.5,1.5"/>
		</g>
	</g>
	<line class="st23" x1="-85.5" y1="6" x2="-86.3" y2="3.8"/>
	<line class="st23" x1="-85.5" y1="6" x2="-83.2" y2="5.5"/>
	<path class="st23" d="M-73.8,25.8c-6.7-0.5-12.1-5.8-12.8-12.4"/>
</g>
<circle class="st4" cx="62.6" cy="-93.8" r="23"/>
<path class="st8" d="M61.2-81.5h-0.5 M63.6-81.5H63 M74.5-79H50.8c-1,0-1.7-0.8-1.7-1.7v-1.6c0-1,0.8-1.7,1.7-1.7h23.7
	c1,0,1.7,0.8,1.7,1.7v1.6C76.3-79.8,75.5-79,74.5-79z M61.2-86.6h-0.5 M63.6-86.6H63 M61.2-91.7h-0.5 M63.6-91.7H63 M61.2-96.8h-0.5
	 M63.6-96.8H63 M61.2-101.9h-0.5 M63.6-101.9H63 M74.5-84.1H50.8c-1,0-1.7-0.8-1.7-1.7v-1.6c0-1,0.8-1.7,1.7-1.7h23.7
	c1,0,1.7,0.8,1.7,1.7v1.6C76.3-84.9,75.5-84.1,74.5-84.1z M75.5-104l-5.3-4.2c-0.3-0.3-0.7-0.4-1.1-0.4H56.2c-0.4,0-0.8,0.1-1.1,0.4
	l-5.3,4.2 M74.5-99.3H50.8c-1,0-1.7-0.8-1.7-1.7v-1.6c0-1,0.8-1.7,1.7-1.7h23.7c1,0,1.7,0.8,1.7,1.7v1.6
	C76.3-100.1,75.5-99.3,74.5-99.3z M74.5-99.3H50.8c-1,0-1.7,0.8-1.7,1.7v1.6c0,1,0.8,1.7,1.7,1.7h23.7c1,0,1.7-0.8,1.7-1.7v-1.6
	C76.3-98.5,75.5-99.3,74.5-99.3z M74.5-89.2H50.8c-1,0-1.7-0.8-1.7-1.7v-1.6c0-1,0.8-1.7,1.7-1.7h23.7c1,0,1.7,0.8,1.7,1.7v1.6
	C76.3-89.9,75.5-89.2,74.5-89.2z"/>
<circle class="st4" cx="-11.6" cy="-103" r="23"/>
<path class="st24" d="M-0.9-114.6c0-0.4,0.3-0.8,0.8-0.8c0.4,0,0.8,0.3,0.8,0.8s-0.3,0.8-0.8,0.8C-0.6-113.9-0.9-114.2-0.9-114.6z
	 M-4.4-117.4c2.2-0.4,3.7-0.1,4.3,0.8c0.2,0.3,0.2,0.7,0.2,1.2 M-0.5-113.9c-1.2,2.2-4.4,5-8.4,7.3c-6,3.5-11.9,4.7-13,2.6
	c-0.5-0.9,0-2.4,1.4-4.1 M-1.6-110.6c0,5.3-4.3,9.6-9.6,9.6c-5.3,0-9.6-4.3-9.6-9.6c0-5.3,4.3-9.6,9.6-9.6
	C-5.9-120.2-1.6-115.9-1.6-110.6z M-18.4-85.8l-5.4-5.4c-0.2-0.2-0.2-0.4,0-0.6l1.7-1.7c0.2-0.2,0.4-0.2,0.6,0l5.4,5.4
	c0.2,0.2,0.2,0.4,0,0.6l-1.7,1.7C-18-85.6-18.3-85.6-18.4-85.8z M-16.4-88.6l8.7-2.1c0.7-0.2,1.4-0.5,1.9-1.1l5.9-5.9
	c0.2-0.2,0.2-0.5,0-0.7c-0.7-0.7-1.9-0.7-2.6,0l-4,4 M-21-92.9l2.6-2.6c0.7-0.7,1.8-1.2,2.8-1.2h6.3c0.3,0,0.5,0.2,0.5,0.5
	c0,1-0.8,1.8-1.8,1.8 M-14-94.4h7.6 M-5.8-98.3l-0.4-0.4c-0.7-0.7-1.9-0.7-2.6,0l-2,2 M-2.7-98.2L-3-98.5c-0.7-0.7-1.9-0.7-2.6,0
	l-4.2,4.2"/>
<g>
	<g>
		<path class="st6" d="M74.1,3.7c-13.1,0-23.8-10.7-23.8-23.8c0-13.1,10.7-23.8,23.8-23.8s23.8,10.7,23.8,23.8
			C97.9-6.9,87.2,3.7,74.1,3.7z M74.1-42.2c-12.2,0-22.1,9.9-22.1,22.1C51.9-7.9,61.9,2,74.1,2s22.1-9.9,22.1-22.1
			C96.2-32.3,86.2-42.2,74.1-42.2z"/>
	</g>
	<path class="st25" d="M75.3-13.3c-0.4,0-0.8,0-1.2,0c-3.4,0-6.5-0.3-8.9-0.8c-1.3-0.3-2.3-0.6-3-1l0,5.3c0,0.2,0.6,0.8,3.2,1.4
		c2.3,0.5,5.4,0.8,8.7,0.8c0.6,0,1.1,0,1.7,0c-0.3-0.7-0.5-1.5-0.5-2.4V-13.3z"/>
	<path class="st25" d="M80.9-18.4c0.8,0.4,2.7,1.3,5,1.4l0-5.1c-2.5,1.4-8.4,1.9-11.9,1.9c-3.5,0-9.4-0.4-11.9-1.8l0,5.3
		c0,0.2,0.6,0.8,3.2,1.4c2.3,0.5,5.4,0.8,8.7,0.8c0.4,0,0.8,0,1.2,0v-2.4C77.9-16.9,80-17.9,80.9-18.4z"/>
	<path class="st25" d="M65.3-27.9c2.3,0.5,5.4,0.8,8.7,0.8c3.3,0,6.4-0.3,8.7-0.8c2.6-0.6,3.2-1.2,3.2-1.4v0c0,0,0,0,0,0
		c0-0.2-0.6-0.8-3.2-1.4c-2.3-0.5-5.4-0.8-8.7-0.8c-7.7,0-11.9,1.5-11.9,2.3v0C62.1-29.1,62.7-28.4,65.3-27.9z"/>
	<path class="st25" d="M82.9-26.8C80.6-26.3,77.4-26,74-26c-3.3,0-6.5-0.3-8.9-0.8c-1.3-0.3-2.3-0.6-3-1l0,4.4
		c0,0.8,4.2,2.2,11.9,2.2c7.7,0,11.9-1.5,11.9-2.3l0-4.4C85.2-27.5,84.2-27.1,82.9-26.8z"/>
	<path class="st26" d="M87.1-9.9l0-5.9c0-0.1-0.1-0.3-0.1-0.4c0.1-0.2,0.1-0.4,0.1-0.6l0-5.9c0-0.1-0.1-0.3-0.1-0.4
		c0.1-0.2,0.1-0.4,0.1-0.6l0-5.9c0,0,0,0,0,0c0-1.1-1.3-1.9-4.1-2.5c-2.4-0.5-5.5-0.8-8.9-0.8l0,0.6l0-0.6c-4.5,0-13,0.8-13,3.4
		c0,0,0,0,0,0l0,5.9c0,0.2,0.1,0.4,0.1,0.6c-0.1,0.1-0.1,0.2-0.1,0.4l0,5.9c0,0.2,0,0.4,0.1,0.6c-0.1,0.1-0.1,0.2-0.1,0.4l0,5.9
		c0,1.1,1.3,1.9,4.1,2.5c2.3,0.5,5.4,0.8,8.7,0.8c0.1,0,0.2,0,0.3,0c0.7,0,1.5,0,2.3-0.1c-0.2-0.3-0.4-0.7-0.6-1.1
		c-0.5,0-1.1,0-1.7,0c-3.3,0-6.4-0.3-8.7-0.8c-2.6-0.6-3.2-1.2-3.2-1.4l0-5.3c0.7,0.4,1.7,0.7,3,1c2.4,0.5,5.5,0.8,8.9,0.8
		c0.4,0,0.8,0,1.2,0v-1.1c-0.4,0-0.8,0-1.2,0c-3.3,0-6.4-0.3-8.7-0.8c-2.6-0.6-3.2-1.2-3.2-1.4l0-5.3c2.5,1.4,8.4,1.8,11.9,1.8
		c3.5,0,9.4-0.5,11.9-1.9l0,5.1c0.2,0,0.4,0,0.6,0v6.8c0,0.5-0.1,1-0.2,1.4C86.8-9,87.1-9.4,87.1-9.9z M62.1-29.3
		c0-0.8,4.2-2.2,11.9-2.3c3.3,0,6.4,0.3,8.7,0.8c2.6,0.6,3.2,1.2,3.2,1.4c0,0,0,0,0,0v0c0,0.2-0.6,0.8-3.2,1.4
		c-2.3,0.5-5.4,0.8-8.7,0.8c-3.3,0-6.4-0.3-8.7-0.8C62.7-28.4,62.1-29.1,62.1-29.3L62.1-29.3z M74-21.2c-7.7,0-11.9-1.4-11.9-2.2
		l0-4.4c0.7,0.4,1.7,0.7,3,1c2.4,0.5,5.6,0.8,8.9,0.8c3.4,0,6.5-0.3,8.9-0.9c1.3-0.3,2.3-0.6,3-1l0,4.4C85.9-22.7,81.7-21.3,74-21.2
		z"/>
	<path class="st8" d="M80.9-3c-1.2-0.5-5.6-2.7-5.6-7.1v-6.8c2.6-0.1,4.7-1,5.6-1.5c0.9,0.5,3,1.4,5.6,1.5v6.8
		C86.6-5.6,82.1-3.5,80.9-3z"/>
	<path class="st8" d="M83.3-8.1h-4.8v-3.5h4.8V-8.1z M79.4-11.6V-13c0-0.8,0.7-1.5,1.5-1.5c0.8,0,1.5,0.7,1.5,1.5v1.4"/>
</g>
<g>
	<path class="st1" d="M23.8,0C10.7,0,0,10.7,0,23.8c0,13.1,10.7,23.8,23.8,23.8c13.1,0,23.8-10.7,23.8-23.8C47.6,10.7,36.9,0,23.8,0
		z M23.8,45.9C11.6,45.9,1.7,36,1.7,23.8c0-12.2,9.9-22.1,22.1-22.1c12.2,0,22.1,9.9,22.1,22.1C45.9,36,36,45.9,23.8,45.9z"/>
	<path class="st1" d="M36.4,21.5c-0.3-5.4-4.9-9.7-10.3-9.7c-3.3,0-6.4,1.6-8.3,4.2c-0.8-0.4-1.6-0.6-2.5-0.6
		c-2.9,0-5.3,2.4-5.3,5.3c0,0.1,0,0.3,0,0.4c-2.5,1.4-4.1,4-4.1,6.8c0,4.3,3.5,7.8,7.8,7.8h8.7c0,0,0.1,0,0.1,0
		c1.2,0,2.3-0.2,3.4-0.6c4.6-1.7,6.9-6.9,5.1-11.4c-0.5-1.3-1.3-2.5-2.3-3.4h1.6c0.3,0,0.6-0.3,0.6-0.6s-0.3-0.6-0.6-0.6h-3
		c-0.2,0-0.5,0.2-0.5,0.4c-0.1,0.1-0.1,0.2-0.1,0.3l0,3c0,0.3,0.2,0.6,0.6,0.6c0,0,0,0,0,0c0.3,0,0.6-0.2,0.6-0.6l0-1.9
		c1,0.8,1.7,1.9,2.2,3.1c1.5,4-0.5,8.5-4.5,10c-1,0.4-2,0.5-3,0.5c0,0-0.1,0-0.1,0h-8.7c-3.7,0-6.7-3-6.7-6.7c0-2.6,1.4-4.9,3.8-6
		c0,0,0.1,0,0.1-0.1c0.1-0.1,0.1-0.1,0.2-0.2c0-0.1,0.1-0.2,0.1-0.2c0,0,0-0.1,0-0.1c0-0.2,0-0.4,0-0.6c0-2.3,1.9-4.1,4.1-4.1
		c0.8,0,1.6,0.2,2.3,0.7c0,0,0,0,0,0c0,0,0,0,0.1,0c0,0,0,0,0,0h0v0c0,0,0,0,0,0h0c0,0,0,0,0,0s0,0,0,0l0,0c0,0,0,0,0,0s0,0,0,0h0
		c0,0,0,0,0,0c0,0,0,0,0,0c0,0,0.1,0,0.2,0c0,0,0,0,0,0c0,0,0,0,0,0h0c0,0,0,0,0,0h0c0,0,0,0,0,0c0,0,0,0,0,0c0,0,0,0,0,0h0
		c0,0,0,0,0,0h0c0,0,0,0,0,0h0c0,0,0,0,0,0s0,0,0,0c0,0,0,0,0,0h0h0c0,0,0,0,0,0s0,0,0,0s0,0,0,0h0c0,0,0,0,0,0h0c0,0,0,0,0,0
		c0,0,0,0,0,0c0,0,0,0,0,0s0,0,0,0s0,0,0,0s0,0,0,0s0,0,0,0s0,0,0,0h0c0,0,0,0,0,0h0c0,0,0,0,0,0h0c0,0,0,0,0,0c0,0,0,0,0,0s0,0,0,0
		h0h0c0,0,0,0,0,0h0c0,0,0,0,0,0h0c0,0,0,0,0,0h0c0,0,0,0,0,0s0,0,0,0s0,0,0,0s0,0,0,0h0c0,0,0,0,0,0h0c0,0,0,0,0,0h0c0,0,0,0,0,0
		s0,0,0,0s0,0,0,0s0,0,0,0h0c0,0,0,0,0,0s0,0,0,0c0,0,0,0,0,0c0,0,0,0,0,0c0.1,0,0.2,0,0.3-0.1c0,0,0,0,0,0c0,0,0,0,0,0c0,0,0,0,0,0
		c0,0,0,0,0,0c0,0,0,0,0,0c0,0,0,0,0,0c0,0,0,0,0,0c0,0,0,0,0,0c0,0,0,0,0,0c0,0,0,0,0,0c0,0,0,0,0,0h0c0,0,0,0,0,0h0l0,0h0l0,0h0
		c0,0,0,0,0,0h0c0,0,0,0,0,0c0,0,0,0,0,0c0,0,0,0,0,0c0,0,0,0,0,0c0,0,0,0,0,0c0,0,0,0,0,0c0,0,0,0,0,0s0,0,0,0c0,0,0,0,0,0
		c0,0,0,0,0,0c0,0,0,0,0,0c0,0,0,0,0,0c0,0,0,0,0,0h0c0,0,0,0,0,0h0l0,0h0c0,0,0,0,0,0c0,0,0,0,0,0c0,0,0,0,0,0v0c0,0,0,0,0,0
		c0,0,0,0,0,0l0,0c0,0,0,0,0,0l0,0c0,0,0,0,0,0c0,0,0,0,0,0c0,0,0,0,0,0c0,0,0,0,0,0c0.1,0,0.1-0.1,0.1-0.1c0,0,0,0,0,0c0,0,0,0,0,0
		c1.7-2.6,4.6-4.1,7.7-4.1c5,0,9.1,4,9.2,9c0,0,0,0.1,0,0.1c0,0.1,0.1,0.2,0.1,0.2c0.1,0.1,0.1,0.1,0.2,0.1c0,0,0.1,0,0.1,0
		c2.8,0.7,4.7,3.1,4.7,6c0,3.4-2.8,6.1-6.1,6.1l-3.4,0c0,0,0,0,0,0c-0.3,0-0.6,0.2-0.6,0.6c0,0.3,0.2,0.6,0.6,0.6l3.4,0
		c4,0,7.3-3.3,7.3-7.3C41.6,25.3,39.5,22.4,36.4,21.5z"/>
	<path class="st1" d="M21.6,20.3c0.8-0.2,1.6-0.3,2.4-0.3c0.3,0,0.6-0.2,0.6-0.5c0-0.3-0.2-0.6-0.5-0.6c-0.9-0.1-1.9,0-2.8,0.3
		c-3.7,1.2-5.8,5.2-4.6,8.9c0.3,1,0.8,1.9,1.6,2.7h-1.6c-0.3,0-0.6,0.3-0.6,0.6s0.3,0.6,0.6,0.6h2.8c0.2,0,0.4-0.1,0.5-0.3
		c0.1-0.1,0.2-0.2,0.2-0.4l0-2.7c0-0.3-0.2-0.6-0.6-0.6c0,0,0,0,0,0c-0.3,0-0.6,0.2-0.6,0.6l0,1.5c-0.6-0.6-1-1.4-1.3-2.2
		C16.7,24.6,18.5,21.3,21.6,20.3z"/>
</g>
</svg>
