<svg xmlns="http://www.w3.org/2000/svg" viewBox="0 0 205.71 202.15"><defs><style>.a,.b{fill:none;stroke:#662d91;}.a{stroke-linecap:round;stroke-linejoin:round;}.b{stroke-miterlimit:10;}</style></defs><title>call</title><path class="a" d="M35.88,110.55a100.63,100.63,0,1,0,34-47.28" transform="translate(-26.45 -42.01)"/><line class="a" x1="108.53" y1="95.03" x2="92.27" y2="95.03"/><line class="a" x1="138.88" y1="95.03" x2="119.61" y2="95.03"/><path class="b" d="M125.87,142.82a4.38,4.38,0,1,0,4.38,4.38A4.39,4.39,0,0,0,125.87,142.82Zm25.15,0a4.38,4.38,0,1,0,4.38,4.38A4.39,4.39,0,0,0,151,142.82Z" transform="translate(-26.45 -42.01)"/><path class="a" d="M194.84,149.89c25.29-46-5-63.84-5-63.84.2-5.82-.6-14.05-9.44-15.06s-76.28-8-76.28-8-16.66,25.7,1.81,48.78S176,115,176,115c-3.81,22.28,4.62,38.35,4.62,38.35" transform="translate(-26.45 -42.01)"/><line class="a" x1="108.53" y1="121.73" x2="115.95" y2="121.73"/><path class="a" d="M155.7,176.59c0,9.2-6.79,16.66-15.18,16.66s-15.18-7.46-15.18-16.66Z" transform="translate(-26.45 -42.01)"/><path class="a" d="M113,139l-2.67-1.82a4.34,4.34,0,0,0-6,1.06L74.75,179.55a4.34,4.34,0,0,0,.88,6l18.27,14a4.34,4.34,0,0,0,6-.68l6.74-8.19" transform="translate(-26.45 -42.01)"/><path class="a" d="M90.5,213.19a11.45,11.45,0,0,0,10.65-3.81c3.32-3.74,10-12.53,13.55-17.23a4.45,4.45,0,0,0-.41-5.83l-7-7a4.46,4.46,0,0,0-6.31,0h0a4,4,0,0,0,0,5.69l5.69,5.69" transform="translate(-26.45 -42.01)"/><path class="a" d="M148.14,210.46A35.28,35.28,0,0,1,113,175.28V117.79" transform="translate(-26.45 -42.01)"/><path class="a" d="M148.14,210.46a35,35,0,0,0,23.52-9.07" transform="translate(-26.45 -42.01)"/><path class="a" d="M180.62,153.31v-2.4a7,7,0,0,1,7-7h0a7,7,0,0,1,7,7v69.34" transform="translate(-26.45 -42.01)"/><path class="a" d="M75,213.19v-8.76A55.91,55.91,0,0,1,77.7,187.1" transform="translate(-26.45 -42.01)"/><path class="a" d="M77.94,109.45a29.31,29.31,0,1,0-5.45,4.62l13.12,8Z" transform="translate(-26.45 -42.01)"/><line class="a" x1="133.44" y1="166.41" x2="133.44" y2="180.08"/></svg>