<?xml version="1.0" encoding="utf-8"?>
<!-- Generator: Adobe Illustrator 21.1.0, SVG Export Plug-In . SVG Version: 6.00 Build 0)  -->
<svg version="1.1" id="Layer_1" xmlns="http://www.w3.org/2000/svg" xmlns:xlink="http://www.w3.org/1999/xlink" x="0px" y="0px"
	 viewBox="0 0 257.9 284" style="enable-background:new 0 0 257.9 284;" xml:space="preserve">
<style type="text/css">
	.st0{fill:none;stroke:#662D91;stroke-linecap:round;stroke-linejoin:round;stroke-miterlimit:10;}
</style>
<g>
	<circle class="st0" cx="68.9" cy="97" r="5.4"/>
	<line class="st0" x1="63.5" y1="97" x2="17.5" y2="97"/>
	<line class="st0" x1="59.1" y1="60.1" x2="74.3" y2="63.1"/>
	<polyline class="st0" points="100.4,68.2 106.2,69.4 103.9,80.6 91.5,78.1 	"/>
	<polyline class="st0" points="49.4,76.9 54.4,52.3 105.6,62.4 86,84.2 49.4,76.9 68.9,80.8 68.9,91.6 	"/>
	<circle class="st0" cx="189" cy="97" r="5.4"/>
	<path class="st0" d="M194.4,97h46H194.4z"/>
	<line class="st0" x1="198.8" y1="60.1" x2="183.6" y2="63.1"/>
	<polyline class="st0" points="157.6,68.2 151.7,69.4 154,80.6 166.5,78.1 	"/>
	<polyline class="st0" points="208.5,76.9 203.6,52.3 152.4,62.4 171.9,84.2 208.5,76.9 189,80.8 189,91.6 	"/>
	<path class="st0" d="M175.4,236.9c41.1-17.9,69.9-58.9,69.9-106.7C245.3,66,193.2,13.9,129,13.9S12.7,66,12.7,130.2
		c0,47.7,28.8,88.7,69.9,106.7"/>
	<path class="st0" d="M129,270.1c0,0,61-21,61-75.4v-71.8h-5.3c-32.1,0-55.7-15.1-55.7-15.1s-23.6,15.1-55.7,15.1h-5.3v71.8
		C67.9,249,129,270.1,129,270.1z"/>
	<path class="st0" d="M129,261.1c-11.2-4.7-52.7-25-52.7-66.4v-63.5c24.7-0.7,44.3-9.4,52.7-13.8c8.4,4.5,28,13.2,52.7,13.8v63.5
		C181.7,236.1,140.1,256.4,129,261.1z"/>
	<path class="st0" d="M152.7,221h-47.5c-3.3,0-6-2.7-6-6v-33.5c0-3.3,2.7-6,6-6h47.5c3.3,0,6,2.7,6,6V215
		C158.7,218.3,156,221,152.7,221z"/>
	<path class="st0" d="M136.6,210.5l-2.9-12.2c2.2-1.7,3.5-4.5,2.9-7.6c-0.6-3-3-5.5-6-6.1c-5-1-9.5,2.8-9.5,7.6
		c0,2.5,1.2,4.7,3.1,6.1l-2.9,12.2c-0.2,0.8,0.4,1.5,1.2,1.5h13C136.3,212,136.8,211.3,136.6,210.5z"/>
	<line class="st0" x1="108.8" y1="160" x2="108.8" y2="175.4"/>
	<path class="st0" d="M149.1,175.4c0,0,0-15.4,0-15.4c0-11.1-9-20.1-20.1-20.1s-20.1,9-20.1,20.1"/>
</g>
</svg>
