<?xml version="1.0" encoding="utf-8"?>
<!-- Generator: Adobe Illustrator 21.1.0, SVG Export Plug-In . SVG Version: 6.00 Build 0)  -->
<svg version="1.1" id="Layer_1" xmlns="http://www.w3.org/2000/svg" xmlns:xlink="http://www.w3.org/1999/xlink" x="0px" y="0px"
	 viewBox="0 0 179 179" style="enable-background:new 0 0 179 179;" xml:space="preserve">
<style type="text/css">
	.st0{fill:none;stroke:#662F8F;stroke-width:4;stroke-linecap:round;stroke-linejoin:round;stroke-miterlimit:10;}
	.st1{fill:#662F8F;}
	.st2{fill:none;stroke:#662F8F;stroke-width:2;stroke-linecap:round;stroke-linejoin:round;stroke-miterlimit:10;}
	.st3{fill:none;stroke:#FFFFFF;stroke-width:0.488;stroke-linecap:round;stroke-linejoin:round;stroke-miterlimit:10;}
	.st4{fill:none;stroke:#E73E51;stroke-width:1.6927;}
	.st5{fill:none;stroke:#E73E51;stroke-width:1.1285;stroke-linecap:round;stroke-linejoin:round;stroke-miterlimit:10;}
	.st6{fill:#E73E51;}
	
		.st7{clip-path:url(#SVGID_2_);fill:none;stroke:#E73E51;stroke-width:1.1285;stroke-linecap:round;stroke-linejoin:round;stroke-miterlimit:10;}
	.st8{fill:none;stroke:#EE4050;stroke-width:1.1285;stroke-linecap:round;stroke-linejoin:round;stroke-miterlimit:10;}
	.st9{fill:none;stroke:#FFFFFF;stroke-width:0.574;stroke-linecap:round;stroke-linejoin:round;stroke-miterlimit:10;}
	.st10{fill:none;stroke:#A491C4;stroke-width:0.5657;stroke-miterlimit:10;}
	.st11{fill:none;stroke:#F7F8F9;stroke-width:1.2708;stroke-miterlimit:10;}
</style>
<g>
	<path class="st0" d="M-1399.5-353.1c9.6-9.6,22.8-15.5,37.3-15.5"/>
	<path class="st0" d="M-1385.1-338.7c5.9-5.9,14-9.5,23-9.5"/>
	<path class="st0" d="M-1428.3-381.9c17.7-17.7,41.2-27.4,66.1-27.4s48.4,9.7,66.1,27.4"/>
	<path class="st0" d="M-1310.4-367.5c-13.3-13.3-31.6-21.5-51.7-21.5c-20.2,0-38.5,8.2-51.7,21.5"/>
	<path class="st0" d="M-1324.8-353.1c-9.6-9.6-22.8-15.5-37.3-15.5"/>
	<path class="st0" d="M-1339.2-338.7c-5.9-5.9-14-9.5-23-9.5"/>
	<path class="st0" d="M-1353.6-307.2c-2.2,2.2-5.2,3.5-8.6,3.5c-6.7,0-12.1-5.4-12.1-12.1c0-6.7,5.4-12.1,12.1-12.1
		c3.3,0,6.4,1.4,8.6,3.5"/>
	<path class="st0" d="M-1310.4-367.5c4,4,4,10.4,0,14.4c-4,4-10.4,4-14.4,0"/>
	<path class="st0" d="M-1385.1-338.7c-4,4-10.4,4-14.4,0c-4-4-4-10.4,0-14.4"/>
	<path class="st0" d="M-1339.2-338.7c4,4,4,10.4,0,14.4c-4,4-10.4,4-14.4,0"/>
	<path class="st0" d="M-1413.9-367.5c-4,4-10.4,4-14.4,0c-4-4-4-10.4,0-14.4"/>
</g>
<g>
	<path class="st1" d="M-1216.4-419c-28.7,0-52,23.3-52,52s23.3,52,52,52s52-23.3,52-52S-1187.7-419-1216.4-419z M-1216.4-318.6
		c-26.6,0-48.3-21.7-48.3-48.3s21.7-48.3,48.3-48.3s48.3,21.7,48.3,48.3S-1189.8-318.6-1216.4-318.6z"/>
	<path class="st1" d="M-1179.8-372.8c-4.8-4.7-10.4-8.3-16.4-10.7c0-0.3,0.1-0.7,0.1-1c0-11.1-9-20.2-20.2-20.2s-20.2,9-20.2,20.2
		c0,0.6,0,1.1,0.1,1.7c-5.5,2.4-10.5,5.8-14.9,10.1c0,0-0.1,0.1-0.1,0.1c-1.2,1.2-1.8,2.8-1.8,4.5c0,1.7,0.7,3.4,1.9,4.6
		c2.6,2.5,6.7,2.5,9.3,0c0,0,0,0,0,0c3.2-3.1,6.8-5.6,10.8-7.4c2.3,2.5,5.2,4.5,8.5,5.5c-5,1.2-9.6,3.7-13.4,7.4
		c0,0-0.1,0.1-0.1,0.1c-1.3,1.2-1.9,2.9-1.9,4.6c0,1.7,0.7,3.4,1.9,4.6c2.6,2.5,6.7,2.5,9.3,0c0,0,0,0,0,0h0c3-2.9,7-4.5,11.3-4.5
		c4.3,0,8.3,1.6,11.3,4.5c0,0,0,0,0,0c0.8,0.8,1.2,1.8,1.2,2.8c0,1.1-0.4,2.1-1.2,2.8c-1.6,1.6-4.3,1.6-5.9,0c0,0-0.1-0.1-0.1-0.1
		c-1.4-1.3-3.3-2.1-5.3-2.1c-4.2,0-7.6,3.3-7.6,7.5c0,4.1,3.4,7.5,7.6,7.5c2,0,3.9-0.8,5.4-2.2c0.5-0.5,0.5-1.3,0-1.7
		c-0.5-0.5-1.3-0.5-1.7,0c-1,1-2.3,1.5-3.7,1.5c-2.8,0-5.2-2.2-5.2-5c0-2.8,2.3-5,5.2-5c1.4,0,2.7,0.5,3.7,1.5c0,0,0.1,0.1,0.1,0.1
		c2.6,2.4,6.7,2.4,9.2-0.1c1.3-1.2,1.9-2.9,1.9-4.6s-0.7-3.4-1.9-4.6c0,0,0,0,0,0c-3.5-3.4-8.1-5.2-13-5.2c-4.9,0-9.5,1.9-13,5.2
		c0,0,0,0,0,0c-1.6,1.6-4.3,1.6-5.9,0c-0.8-0.8-1.2-1.8-1.2-2.8c0-1,0.4-2,1.1-2.7c0,0,0.1-0.1,0.1-0.1c5-4.9,11.7-7.6,18.8-7.6
		c7.1,0,13.8,2.7,18.8,7.6c0,0,0,0,0,0c2.6,2.5,6.7,2.5,9.3,0c1.3-1.2,1.9-2.9,1.9-4.6c0-1.7-0.7-3.4-1.9-4.6c0,0,0,0,0,0
		c-3.6-3.5-7.7-6.2-12.1-8.1c1.5-2.2,2.5-4.8,3-7.5c5.5,2.3,10.6,5.7,15,9.9c0.5,0.5,1.3,0.5,1.7,0
		C-1179.3-371.6-1179.4-372.3-1179.8-372.8z M-1243.8-365.4C-1243.8-365.4-1243.8-365.4-1243.8-365.4c-1.6,1.6-4.3,1.6-5.9,0
		c-0.8-0.8-1.2-1.8-1.2-2.8c0-1.1,0.4-2.1,1.2-2.8c0,0,0.1-0.1,0.1-0.1c4-3.9,8.5-6.9,13.5-9.2c0.6,2.7,1.7,5.2,3.3,7.4
		C-1236.8-371.1-1240.5-368.6-1243.8-365.4z M-1189.2-363.6C-1189.2-363.6-1189.2-363.6-1189.2-363.6c0.8,0.8,1.2,1.8,1.2,2.8
		c0,1.1-0.4,2.1-1.2,2.8c-1.6,1.6-4.3,1.6-5.9,0c0,0,0,0,0,0c-4-3.9-9-6.5-14.4-7.7c3.3-1.2,6.1-3.2,8.4-5.8
		C-1196.7-369.7-1192.6-367-1189.2-363.6z M-1216.4-366.9c-9.8,0-17.7-7.9-17.7-17.7c0-9.8,7.9-17.7,17.7-17.7s17.7,7.9,17.7,17.7
		C-1198.7-374.8-1206.6-366.9-1216.4-366.9z"/>
	<path class="st1" d="M-1224-385.9h-1.9l0.1-3.7h5.6v-1.5h-7.1l-0.2,6.6h2.9c2.5,0,3.4,1.1,3.4,2.5c0,1.4-1,2.5-2.8,2.5
		c-1.3,0-2.5-0.6-3.4-1.6l-1,1c1.1,1.3,2.6,2,4.4,2c2.4,0,4.5-1.5,4.5-4.2C-1219.5-384.1-1221-385.9-1224-385.9z"/>
	<path class="st1" d="M-1210.1-385.1v1.5h3.9c-0.3,2.5-1.9,4.1-4.5,4.1c-2.8,0-4.9-2.1-4.9-5.1c0-3,2.2-5.1,5-5.1
		c1.6,0,2.9,0.7,3.8,1.7l1.2-1.2c-1.2-1.3-3-2.1-5-2.1c-3.9,0-6.7,2.8-6.7,6.7c0,4.2,3.2,6.7,6.6,6.7c3.9,0,6.3-3,6.3-6.7
		c0-0.1,0-0.3,0-0.4H-1210.1z"/>
</g>
<g>
	<line class="st2" x1="-1084.5" y1="-333.3" x2="-1084.5" y2="-324.7"/>
	<path class="st2" d="M-1098.2-324.7c-2.8,0-5.2-2.3-5.2-5.2v-77.8c0-2.8,2.3-5.2,5.2-5.2h69.9c2.8,0,5.2,2.3,5.2,5.2v77.8
		c0,2.8-2.3,5.2-5.2,5.2h-56.2"/>
	<path class="st2" d="M-1084.5-333.3h-5c-2.8,0-5.2-2.3-5.2-5.2v-60.4c0-2.8,2.3-5.2,5.2-5.2h10.1c2.8,0,5.2,2.3,5.2,5.2v60.4"/>
	<g>
		<g>
			<circle class="st2" cx="-1062.5" cy="-383.5" r="3.8"/>
			<circle class="st2" cx="-1048.6" cy="-383.5" r="3.8"/>
			<circle class="st2" cx="-1034.7" cy="-383.5" r="3.8"/>
			<circle class="st2" cx="-1062.5" cy="-369.6" r="3.8"/>
			<circle class="st2" cx="-1048.6" cy="-369.6" r="3.8"/>
			<circle class="st2" cx="-1034.7" cy="-369.6" r="3.8"/>
			<circle class="st2" cx="-1062.5" cy="-355.7" r="3.8"/>
			<circle class="st2" cx="-1048.6" cy="-355.7" r="3.8"/>
			<circle class="st2" cx="-1034.7" cy="-355.7" r="3.8"/>
			<circle class="st2" cx="-1062.5" cy="-341.8" r="3.8"/>
			<circle class="st2" cx="-1048.6" cy="-341.8" r="3.8"/>
			<circle class="st2" cx="-1034.7" cy="-341.8" r="3.8"/>
		</g>
		<line class="st2" x1="-1066.3" y1="-399.4" x2="-1031" y2="-399.4"/>
	</g>
</g>
<g>
	<path class="st3" d="M-1167.1-220.9v-1c0-2.7-2.1-4.9-4.8-5c-2.8-0.1-5.1,2.2-5.1,4.9l0,3.8h10.9c0.7,0,1.3,0.6,1.3,1.3v8.6
		c0,0.7-0.6,1.3-1.3,1.3h-2.7c-0.5,0-1-0.4-1.1-0.9l-0.8-3.2v0c0.6-0.5,0.9-1.2,0.8-2.1c-0.1-1-1-1.7-1.9-1.9
		c-1.3-0.1-2.5,0.9-2.5,2.2c0,0.7,0.3,1.3,0.8,1.7h0c0,0-0.5,2-0.8,3.2c-0.1,0.5-0.6,0.9-1.1,0.9h-2.7c-0.7,0-1.3-0.6-1.3-1.3v-8.6"
		/>
</g>
<g>
	<circle class="st4" cx="-1048.9" cy="-213.6" r="23"/>
	<path class="st5" d="M-1072.1-213.7l23.2-0.1 M-1048.9-213.8v-23.1V-213.8z M-1037.3-213.8c0,6.4-5.2,11.6-11.6,11.6
		c-6.4,0-11.7-5.2-11.7-11.6c0-6.4,5.2-11.6,11.7-11.6C-1042.5-225.4-1037.3-220.2-1037.3-213.8z M-1031.7-213.8
		c0,9.5-7.7,17.3-17.3,17.3c-9.5,0-17.3-7.7-17.3-17.3c0-9.5,7.7-17.3,17.3-17.3C-1039.4-231-1031.7-223.3-1031.7-213.8z"/>
	<path class="st6" d="M-1064.6-219c1.2,0,2.2-1,2.2-2.2c0-1.2-1-2.2-2.2-2.2s-2.2,1-2.2,2.2C-1066.8-220-1065.8-219-1064.6-219"/>
</g>
<g>
	<circle class="st4" cx="-1107.3" cy="-213.2" r="23"/>
	<path class="st5" d="M-1096.5-220.5l7.1,7.2 M-1096.5-220.5l-7.1,10.3 M-1110.7-206l7.1-4.2 M-1110.7-206l-7.1-9.5 M-1124.8-210.6
		l7.1-4.9"/>
	<path class="st6" d="M-1119.8-215.6c0-1.2,1-2.1,2.1-2.1c1.2,0,2.1,1,2.1,2.1c0,1.2-1,2.1-2.1,2.1
		C-1118.9-213.4-1119.8-214.4-1119.8-215.6"/>
	<path class="st6" d="M-1112.8-206c0-1.2,1-2.1,2.1-2.1s2.1,1,2.1,2.1c0,1.2-1,2.1-2.1,2.1S-1112.8-204.9-1112.8-206"/>
	<path class="st6" d="M-1105.7-210.2c0-1.2,1-2.1,2.1-2.1c1.2,0,2.1,1,2.1,2.1c0,1.2-1,2.1-2.1,2.1
		C-1104.8-208.1-1105.7-209.1-1105.7-210.2"/>
	<path class="st6" d="M-1098.7-220.5c0-1.2,1-2.1,2.1-2.1s2.1,1,2.1,2.1c0,1.2-1,2.1-2.1,2.1S-1098.7-219.3-1098.7-220.5"/>
	<path class="st6" d="M-1091.8-213.4c0-1.2,1-2.1,2.1-2.1c1.2,0,2.1,1,2.1,2.1c0,1.2-1,2.1-2.1,2.1
		C-1090.8-211.3-1091.8-212.3-1091.8-213.4"/>
	<path class="st6" d="M-1126.6-210.8c0-1.2,1-2.1,2.1-2.1c1.2,0,2.1,1,2.1,2.1c0,1.2-1,2.1-2.1,2.1
		C-1125.7-208.7-1126.6-209.6-1126.6-210.8"/>
</g>
<g>
	<circle class="st4" cx="-999.2" cy="-253.9" r="23"/>
	<g>
		<defs>
			<path id="SVGID_1_" d="M-1023-254.1c0,12.4,9.6,22.6,21.8,23.5h3.6c11.7-0.9,21.1-10.4,21.8-22.2v-2.7
				c-0.7-12.4-11-22.2-23.6-22.2C-1012.4-277.7-1023-267.2-1023-254.1"/>
		</defs>
		<clipPath id="SVGID_2_">
			<use xlink:href="#SVGID_1_"  style="overflow:visible;"/>
		</clipPath>
		<path class="st7" d="M-976.4-222.6h-12.1c-0.5,0-0.9-0.4-0.9-0.9v-5.2c0-0.5,0.4-0.9,0.9-0.9h12.1c0.5,0,0.9,0.4,0.9,0.9v5.2
			C-975.4-223-975.9-222.6-976.4-222.6z M-990.4-222.6h-12.1c-0.5,0-0.9-0.4-0.9-0.9v-5.2c0-0.5,0.4-0.9,0.9-0.9h12.1
			c0.5,0,0.9,0.4,0.9,0.9v5.2C-989.4-223-989.8-222.6-990.4-222.6z M-1004.3-222.6h-12.1c-0.5,0-0.9-0.4-0.9-0.9v-5.2
			c0-0.5,0.4-0.9,0.9-0.9h12.1c0.5,0,0.9,0.4,0.9,0.9v5.2C-1003.3-223-1003.7-222.6-1004.3-222.6z M-1018.2-222.6h-12.1
			c-0.5,0-0.9-0.4-0.9-0.9v-5.2c0-0.5,0.4-0.9,0.9-0.9h12.1c0.5,0,0.9,0.4,0.9,0.9v5.2C-1017.3-223-1017.7-222.6-1018.2-222.6z
			 M-969.1-229.6h-12.1c-0.5,0-0.9-0.4-0.9-0.9v-5.2c0-0.5,0.4-0.9,0.9-0.9h12.1c0.5,0,0.9,0.4,0.9,0.9v5.2
			C-968.2-230-968.6-229.6-969.1-229.6z M-983.1-229.6h-12.1c-0.5,0-0.9-0.4-0.9-0.9v-5.2c0-0.5,0.4-0.9,0.9-0.9h12.1
			c0.5,0,0.9,0.4,0.9,0.9v5.2C-982.2-230-982.6-229.6-983.1-229.6z M-997-229.6h-12.1c-0.5,0-0.9-0.4-0.9-0.9v-5.2
			c0-0.5,0.4-0.9,0.9-0.9h12.1c0.5,0,0.9,0.4,0.9,0.9v5.2C-996.1-230-996.5-229.6-997-229.6z M-1011-229.6h-12.1
			c-0.5,0-0.9-0.4-0.9-0.9v-5.2c0-0.5,0.4-0.9,0.9-0.9h12.1c0.5,0,0.9,0.4,0.9,0.9v5.2C-1010.1-230-1010.5-229.6-1011-229.6z
			 M-976.4-236.8h-12.1c-0.5,0-0.9-0.4-0.9-0.9v-5.2c0-0.5,0.4-0.9,0.9-0.9h12.1c0.5,0,0.9,0.4,0.9,0.9v5.2
			C-975.4-237.2-975.9-236.8-976.4-236.8z M-990.4-236.8h-12.1c-0.5,0-0.9-0.4-0.9-0.9v-5.2c0-0.5,0.4-0.9,0.9-0.9h12.1
			c0.5,0,0.9,0.4,0.9,0.9v5.2C-989.4-237.2-989.8-236.8-990.4-236.8z M-1004.3-236.8h-12.1c-0.5,0-0.9-0.4-0.9-0.9v-5.2
			c0-0.5,0.4-0.9,0.9-0.9h12.1c0.5,0,0.9,0.4,0.9,0.9v5.2C-1003.3-237.2-1003.7-236.8-1004.3-236.8z M-1018.2-236.8h-12.1
			c-0.5,0-0.9-0.4-0.9-0.9v-5.2c0-0.5,0.4-0.9,0.9-0.9h12.1c0.5,0,0.9,0.4,0.9,0.9v5.2C-1017.3-237.2-1017.7-236.8-1018.2-236.8z
			 M-969.1-243.8h-12.1c-0.5,0-0.9-0.4-0.9-0.9v-5.2c0-0.5,0.4-0.9,0.9-0.9h12.1c0.5,0,0.9,0.4,0.9,0.9v5.2
			C-968.2-244.2-968.6-243.8-969.1-243.8z M-983.1-243.8h-12.1c-0.5,0-0.9-0.4-0.9-0.9v-5.2c0-0.5,0.4-0.9,0.9-0.9h12.1
			c0.5,0,0.9,0.4,0.9,0.9v5.2C-982.2-244.2-982.6-243.8-983.1-243.8z M-997-243.8h-12.1c-0.5,0-0.9-0.4-0.9-0.9v-5.2
			c0-0.5,0.4-0.9,0.9-0.9h12.1c0.5,0,0.9,0.4,0.9,0.9v5.2C-996.1-244.2-996.5-243.8-997-243.8z M-1011-243.8h-12.1
			c-0.5,0-0.9-0.4-0.9-0.9v-5.2c0-0.5,0.4-0.9,0.9-0.9h12.1c0.5,0,0.9,0.4,0.9,0.9v5.2C-1010.1-244.2-1010.5-243.8-1011-243.8z
			 M-976.4-250.9h-12.1c-0.5,0-0.9-0.4-0.9-0.9v-5.2c0-0.5,0.4-0.9,0.9-0.9h12.1c0.5,0,0.9,0.4,0.9,0.9v5.2
			C-975.4-251.4-975.9-250.9-976.4-250.9z M-990.4-250.9h-12.1c-0.5,0-0.9-0.4-0.9-0.9v-5.2c0-0.5,0.4-0.9,0.9-0.9h12.1
			c0.5,0,0.9,0.4,0.9,0.9v5.2C-989.4-251.4-989.8-250.9-990.4-250.9z M-1004.3-250.9h-12.1c-0.5,0-0.9-0.4-0.9-0.9v-5.2
			c0-0.5,0.4-0.9,0.9-0.9h12.1c0.5,0,0.9,0.4,0.9,0.9v5.2C-1003.3-251.4-1003.7-250.9-1004.3-250.9z M-1018.2-250.9h-12.1
			c-0.5,0-0.9-0.4-0.9-0.9v-5.2c0-0.5,0.4-0.9,0.9-0.9h12.1c0.5,0,0.9,0.4,0.9,0.9v5.2C-1017.3-251.4-1017.7-250.9-1018.2-250.9z"/>
	</g>
</g>
<circle class="st4" cx="-937.3" cy="-228.5" r="23"/>
<path class="st8" d="M-937.2-219.3c-1.2-0.5-5.6-2.7-5.6-7.1v-6.8c2.6-0.1,4.7-1,5.6-1.5c0.9,0.5,3,1.4,5.6,1.5v6.8
	C-931.5-222-936-219.8-937.2-219.3z"/>
<path class="st8" d="M-934.8-224.4h-4.8v-3.5h4.8V-224.4z M-938.7-227.9v-1.4c0-0.8,0.7-1.5,1.5-1.5c0.8,0,1.5,0.7,1.5,1.5v1.4"/>
<path class="st8" d="M-923.5-235.4l0-1.4c0-0.5-0.4-0.9-0.9-0.9l-12.3,0.1l-3.6-3.6l-8.6,0c-1,0-1.9,0.9-1.9,1.9l0.1,22.7h27.2
	V-235.4z"/>
<g>
	<circle class="st4" cx="-871" cy="-224" r="23"/>
	<path class="st8" d="M-860.6-215.3c0,1.8-1.5,3.3-3.3,3.3s-3.3-1.5-3.3-3.3c0-1.8,1.5-3.3,3.3-3.3S-860.6-217.1-860.6-215.3z
		 M-864.7-216.2l0.8,2l1.5-3.9 M-879.8-219.2h9.1 M-879.8-222h14.7 M-879.8-224.8h14.7 M-879.8-227.7h14.7 M-879.8-230.5h9.9
		 M-879.8-233.3h9.9 M-865.2-239h6.9v29.8h-25.2V-239H-865.2z"/>
</g>
<circle class="st4" cx="-808.3" cy="-219.6" r="23"/>
<path class="st8" d="M-808.5-214.4v1.1 M-808.5-225.2v7.2 M-808.5-233.7l-13.9,24.2h27.9L-808.5-233.7z"/>
<circle class="st4" cx="-734.8" cy="-219.3" r="23"/>
<path class="st8" d="M-734.8-201.9c-2.4-1-11.4-5.4-11.4-14.4V-230c5.3-0.1,9.6-2,11.4-3c1.8,1,6,2.8,11.4,3v13.7
	C-723.4-207.3-732.3-202.9-734.8-201.9z"/>
<path class="st8" d="M-729.9-212.3h-9.8v-7.1h9.8V-212.3z M-737.8-219.3v-2.8c0-1.6,1.3-3,3-3c1.6,0,3,1.3,3,3v2.8"/>
<g>
	<path class="st0" d="M-608.9-241.3v-5.9c0-16.5-12.9-30.4-29.4-30.8c-17.1-0.5-31.1,13.2-31.1,30.2l0,23.2h67.2
		c4.2,0,7.7,3.5,7.7,7.7v53.1c0,4.2-3.5,7.7-7.7,7.7c0,0-10.2,0-16.8,0c-3.3,0-6.2-2.3-7-5.5l-4.8-19.9l0,0c3.6-2.9,5.8-7.6,5-12.7
		c-0.9-6-5.8-10.7-11.8-11.4c-8.2-0.9-15.1,5.5-15.1,13.5c0,4.3,2,8.2,5.2,10.6l0,0c0,0-3,12.4-4.8,19.9c-0.8,3.2-3.7,5.5-7,5.5
		h-16.8c-4.2,0-7.7-3.5-7.7-7.7V-217"/>
</g>
<g>
	<path class="st9" d="M-733.3-152.2c1.7,0.6,3.7,0.2,5-1.1c1.4-1.4,1.7-3.3,1.1-5l-2.4,2.4c-0.3,0.3-0.8,0.3-1.1,0l-1.8-1.8
		c-0.3-0.3-0.3-0.8,0-1.1l2.4-2.4c-1.7-0.6-3.7-0.2-5,1.1c-1.4,1.4-1.7,3.3-1.1,5l-7.4,7.4c-1.7-0.6-3.7-0.2-5,1.1
		c-1.4,1.4-1.7,3.3-1.1,5l2.4-2.4c0.3-0.3,0.8-0.3,1.1,0l1.8,1.8c0.3,0.3,0.3,0.8,0,1.1l-2.4,2.4c1.7,0.6,3.7,0.2,5-1.1
		c1.4-1.4,1.7-3.3,1.1-5l2.2-2.2"/>
	<path class="st9" d="M-738.5-147l-5.8-6.2c-1-1-2.7-1-3.7,0c-0.9,0.9-1,2.4-0.2,3.4l-2,1.3c0,0-3.2-4.8,0.5-8.5
		c1.3-1.3,2.5-2.5,3.6-3.6c0.3,0.1,0.7,0.1,1,0.2c0.3,0.1,0.6-0.2,0.5-0.5l-0.2-1l1.7-1.7l4.6,4.6l-1.6,1.6c-0.5-0.5-1.3-0.5-1.7,0
		c-0.5,0.5-0.5,1.3,0,1.7l12.8,11.9c0.1,0.1,0.2,0.2,0.2,0.2c0.7,0.8,0.7,2,0.1,2.9c-0.9,1.1-2.5,1.2-3.5,0.3c0,0-0.1-0.1-0.1-0.1
		l-4.2-4.4"/>
</g>
<g>
	<path class="st10" d="M-417.6,165.8c-16.8,29.7-59.2,67.7-114.4,99.6c-81.9,47.3-161,63.4-176.8,36c-7.4-12.7,0.3-32.6,18.8-55"/>
	<path class="st10" d="M-470.8,119.2c29.3-5.1,50.9-1.9,58.3,11c2.6,4.5,3.3,10,2.3,16.1"/>
	<circle class="st10" cx="-413" cy="156.4" r="10.5"/>
	<circle class="st10" cx="-564.4" cy="188" r="132"/>
</g>
<image style="overflow:visible;" width="1600" height="700" xlink:href="../Dropbox (Muuaaa)/Muuaaa Team Folder/Graphic Design_Gabriel/Neptuno/02 Design/images/slide-22.jpg"  transform="matrix(0.4158 0 0 0.4158 -854.5573 -326.6792)">
</image>
<image style="overflow:visible;" width="1078" height="516" xlink:href="datacenter-google-1078x516.jpg"  transform="matrix(1 0 0 1 -728.2321 -967.6506)">
</image>
<g>
	<g>
		<g>
			<path class="st11" d="M166,134.7c7.8-13.2,12.3-28.7,12.3-45.2c0-49.1-39.8-88.9-88.9-88.9C40.4,0.6,0.6,40.4,0.6,89.5
				c0,16,4.2,30.9,11.6,43.9"/>
			<path class="st11" d="M22.3,147.7c16.3,18.8,40.3,30.7,67.2,30.7c26.8,0,50.9-11.9,67.2-30.7"/>
			<rect x="16.9" y="144.5" class="st11" width="45.9" height="3.2"/>
			<g>
				<rect x="12.2" y="129.4" class="st11" width="55.3" height="15.1"/>
				<line class="st11" x1="16.8" y1="133.6" x2="16.8" y2="140.2"/>
				<line class="st11" x1="20.3" y1="133.6" x2="20.3" y2="140.2"/>
				<line class="st11" x1="23.7" y1="133.6" x2="23.7" y2="140.2"/>
				<line class="st11" x1="27.2" y1="133.6" x2="27.2" y2="140.2"/>
				<line class="st11" x1="30.7" y1="133.6" x2="30.7" y2="140.2"/>
				<line class="st11" x1="34.2" y1="133.6" x2="34.2" y2="140.2"/>
				<circle class="st11" cx="60.9" cy="136.9" r="2.3"/>
				<circle class="st11" cx="52.8" cy="136.9" r="2.3"/>
				<circle class="st11" cx="44.8" cy="136.9" r="2.3"/>
			</g>
			<path class="st11" d="M22,129.4v-19.6c0-1.2,1-2.2,2.2-2.2h0c1.2,0,2.2,1,2.2,2.2v19.6"/>
			<path class="st11" d="M16.1,97.4c2.1-2.1,5-3.4,8.1-3.4"/>
			<path class="st11" d="M18.3,100.6c1.5-1.5,3.6-2.4,5.9-2.4"/>
			<path class="st11" d="M20.6,103.8c0.9-0.9,2.2-1.5,3.6-1.5"/>
			<path class="st11" d="M32.3,97.4c-2.1-2.1-5-3.4-8.1-3.4"/>
			<path class="st11" d="M30.1,100.6c-1.5-1.5-3.6-2.4-5.9-2.4"/>
			<path class="st11" d="M27.8,103.8c-0.9-0.9-2.2-1.5-3.6-1.5"/>
			<path class="st11" d="M53.3,129.4v-19.6c0-1.2,1-2.2,2.2-2.2h0c1.2,0,2.2,1,2.2,2.2v19.6"/>
			<path class="st11" d="M47.4,97.4c2.1-2.1,5-3.4,8.1-3.4"/>
			<path class="st11" d="M49.6,100.6c1.5-1.5,3.6-2.4,5.9-2.4"/>
			<path class="st11" d="M51.9,103.8c0.9-0.9,2.2-1.5,3.6-1.5"/>
			<path class="st11" d="M63.6,97.4c-2.1-2.1-5-3.4-8.1-3.4"/>
			<path class="st11" d="M61.4,100.6c-1.5-1.5-3.6-2.4-5.9-2.4"/>
			<path class="st11" d="M59.1,103.8c-0.9-0.9-2.2-1.5-3.6-1.5"/>
			<rect x="73.8" y="38.7" class="st11" width="42.5" height="105.8"/>
			<rect x="79.4" y="44.2" class="st11" width="31.4" height="8.2"/>
			<rect x="79.4" y="52.4" class="st11" width="31.4" height="8.2"/>
			<rect x="79.4" y="60.5" class="st11" width="31.4" height="8.2"/>
			<rect x="79.4" y="68.7" class="st11" width="31.4" height="8.2"/>
			<rect x="79.4" y="76.9" class="st11" width="31.4" height="8.2"/>
			<rect x="79.4" y="85" class="st11" width="31.4" height="8.2"/>
			<rect x="79.4" y="111.3" class="st11" width="31.4" height="23.2"/>
			<circle class="st11" cx="94.8" cy="122.9" r="2.8"/>
			<g>
				<rect x="79.4" y="100.2" class="st11" width="18.6" height="4.1"/>
				<rect x="106.7" y="100.2" class="st11" width="4.1" height="4.1"/>
			</g>
			<line class="st11" x1="92" y1="122.9" x2="79.4" y2="122.9"/>
			<line class="st11" x1="97.6" y1="122.9" x2="110.3" y2="122.9"/>
			<rect x="73.8" y="144.5" class="st11" width="42.5" height="3.2"/>
			<circle class="st11" cx="145.6" cy="116.9" r="11.7"/>
			<circle class="st11" cx="145.6" cy="116.9" r="6.4"/>
			<circle class="st11" cx="145.6" cy="116.9" r="2.6"/>
			<line class="st11" x1="145.6" y1="128.6" x2="145.6" y2="134.7"/>
			<g>
				<rect x="122.7" y="134.7" class="st11" width="44.1" height="9.8"/>
				<line class="st11" x1="156.1" y1="139.6" x2="133.4" y2="139.6"/>
			</g>
			<rect x="126.4" y="144.5" class="st11" width="36.7" height="3.2"/>
		</g>
	</g>
</g>
</svg>
