<?xml version="1.0" encoding="utf-8"?>
<!-- Generator: Adobe Illustrator 21.1.0, SVG Export Plug-In . SVG Version: 6.00 Build 0)  -->
<svg version="1.1" id="Layer_1" xmlns="http://www.w3.org/2000/svg" xmlns:xlink="http://www.w3.org/1999/xlink" x="0px" y="0px"
	 viewBox="0 0 26.2 15.1" style="enable-background:new 0 0 26.2 15.1;" xml:space="preserve">
<style type="text/css">
	.st0{fill:#FFFFFF;}
</style>
<g id="b5r0dH.tif_3_">
	<g>
		<path class="st0" d="M-12.2,30.9c0,2.4,0,4.9,0,7.3c0,0.1,0,0.2,0,0.3c-2.6,0-5.1,0-7.6,0c0-2.5,0-5.1,0-7.6
			C-17.3,30.9-14.7,30.9-12.2,30.9z"/>
		<path class="st0" d="M-3.8,30.9c0,2.4,0,4.9,0,7.3c0,0.1,0,0.2,0,0.3c-2.5,0-5.1,0-7.6,0c0-2.5,0-5.1,0-7.6
			C-8.9,30.9-6.3,30.9-3.8,30.9z"/>
		<path class="st0" d="M-19.8,39.3c2.5,0,5.1,0,7.6,0c0,2.5,0,5.1,0,7.6c-2.5,0-5.1,0-7.6,0C-19.8,44.4-19.8,41.8-19.8,39.3z"/>
		<path class="st0" d="M-3.8,46.9c-2.5,0-5.1,0-7.6,0c0-2.5,0-5.1,0-7.6c2.5,0,5,0,7.6,0C-3.8,41.8-3.8,44.4-3.8,46.9z"/>
		<path class="st0" d="M2.5,36.1c0,2.5,0,5.1,0,7.6c-0.5,0-1,0-1.4,0c0,0-0.1-0.1-0.1-0.1c0,0,0-0.1,0-0.2c0-3,0-6,0-9.1
			c0-0.1,0-0.2,0-0.3c0.2,0,0.4,0,0.5,0c0.5,0,1.1,0,1.6,0c0.1,0,0.2,0,0.3,0.2c0.9,2.3,1.8,4.7,2.7,7c0,0,0,0.1,0,0.1
			c0.3-0.7,0.6-1.4,0.8-2.2c0.7-1.6,1.3-3.2,2-4.8c0.1-0.2,0.1-0.2,0.3-0.2c0.7,0,1.3,0,2,0c0,3.2,0,6.4,0,9.6c-0.5,0-1,0-1.5,0
			c0,0-0.1-0.1-0.1-0.1c0-0.1,0-0.1,0-0.2c0-1.9,0-3.9,0-5.8c0-0.5,0-1.1,0.1-1.5c-1,2.4-2,4.9-3,7.4c-0.1,0.1-0.1,0.2-0.3,0.2
			c-0.2,0-0.5,0-0.7,0c-0.1,0-0.2-0.1-0.2-0.1c-0.9-2.3-1.9-4.5-2.8-6.8C2.7,36.5,2.6,36.3,2.5,36.1z"/>
		<path class="st0" d="M53.5,34.7c0,0.7,0,1.4,0,2.1c0.5,0,1.1,0,1.6,0c0,0.5,0,0.9,0,1.3c-0.5,0-1.1,0-1.6,0c0,0.1,0,0.1,0,0.2
			c0,1.1,0,2.1,0,3.2c0,0.9,0.6,1.3,1.5,0.8c0,0,0.1,0,0.1-0.1c0,0.1,0,0.1,0,0.2c0,0.3,0,0.5,0,0.8c0,0.4,0,0.5-0.4,0.5
			c-0.4,0.1-0.8,0.1-1.2,0.1c-1-0.1-1.6-0.8-1.6-1.8c0-1.2,0-2.4,0-3.6c0-0.1,0-0.2,0-0.3c-0.8,0-1.6,0-2.4,0c0,1.8,0,3.7,0,5.5
			c-0.6,0-1.1,0-1.7,0c0-1.8,0-3.7,0-5.5c-0.4,0-0.7,0-1.1,0c0-0.5,0-0.9,0-1.3c0.4,0,0.7,0,1.1,0c0-0.1,0-0.2,0-0.3
			c0-0.4,0-0.9,0.1-1.3c0.3-1.1,1.3-1.9,2.5-1.8c0.2,0,0.5,0.1,0.7,0.1c0.1,0,0.1,0.1,0.1,0.1c0,0.4,0,0.9,0,1.3
			c-0.2-0.1-0.4-0.1-0.7-0.1c-0.6-0.1-1.1,0.3-1.1,1c0,0.3,0,0.7,0,1c0.1,0,0.1,0,0.2,0c0.7,0,1.3,0,2,0c0.2,0,0.2,0,0.2-0.2
			c0-0.4,0-0.8,0-1.1c0-0.1,0-0.2,0.2-0.3C52.5,35.1,53,34.9,53.5,34.7z"/>
		<path class="st0" d="M42.9,43.9c-0.9,0-1.8-0.2-2.4-0.9c-0.6-0.6-0.9-1.3-1-2.1c-0.1-0.8,0-1.5,0.3-2.2c0.5-1.2,1.4-1.8,2.6-2
			c0.6-0.1,1.2-0.1,1.8,0.1c1.1,0.3,1.8,0.9,2.2,2c0.3,1,0.3,1.9,0,2.9c-0.4,1.3-1.6,2.1-3,2.2C43.2,43.9,43.1,43.9,42.9,43.9z
			 M41.1,40.3C41.1,40.3,41.1,40.3,41.1,40.3c0.1,0.1,0.1,0.2,0.1,0.3c0.1,1.2,0.7,2.1,2.1,1.9c0.7-0.1,1.2-0.4,1.4-1.1
			c0.2-0.7,0.2-1.4,0-2.1c-0.2-0.7-0.8-1.2-1.5-1.2c-0.9,0-1.6,0.3-1.8,1.1C41.2,39.4,41.2,39.9,41.1,40.3z"/>
		<path class="st0" d="M29.8,43.9c-0.7,0-1.3-0.1-1.9-0.5c-0.9-0.6-1.4-1.4-1.5-2.5c-0.1-0.7,0-1.4,0.2-2.1c0.5-1.2,1.4-1.9,2.7-2.1
			c0.6-0.1,1.2-0.1,1.8,0.1c1.1,0.3,1.8,1,2.1,2c0.3,1.1,0.3,2.2-0.2,3.3c-0.5,1-1.3,1.5-2.4,1.7C30.3,43.8,30.1,43.8,29.8,43.9z
			 M31.7,40.2c0-0.2,0-0.5-0.1-0.7c-0.1-0.9-0.8-1.5-1.6-1.5c-1,0-1.7,0.4-2,1.4c-0.1,0.4-0.1,0.9-0.1,1.3c0.1,1.3,1.1,2.1,2.4,1.8
			c0.4-0.1,0.8-0.4,1-0.8C31.7,41.2,31.7,40.7,31.7,40.2z"/>
		<path class="st0" d="M34.2,41.9c0.5,0.3,0.9,0.6,1.5,0.6c0.3,0,0.7,0,1,0c0.2,0,0.4-0.2,0.5-0.5c0-0.3,0-0.5-0.2-0.7
			c-0.3-0.2-0.6-0.3-0.9-0.5c-0.2-0.1-0.5-0.2-0.7-0.4c-1.3-0.7-1.3-2.6-0.1-3.4c0.7-0.4,1.4-0.5,2.2-0.5c0.3,0,0.7,0.1,1,0.2
			c0.1,0,0.2,0.1,0.2,0.3c0,0.4,0,0.8,0,1.3c-0.1,0-0.1-0.1-0.2-0.1c-0.5-0.3-1-0.4-1.6-0.4c-0.4,0-0.7,0.2-0.8,0.5
			c-0.1,0.4,0.1,0.6,0.4,0.8c0.3,0.2,0.7,0.3,1.1,0.5c0.5,0.2,1,0.5,1.3,1.1c0.4,0.9,0.1,2-0.8,2.5c-0.7,0.4-1.5,0.5-2.3,0.4
			c-0.4,0-0.8-0.2-1.2-0.3c-0.1,0-0.2-0.1-0.2-0.3C34.2,42.8,34.2,42.4,34.2,41.9z"/>
		<path class="st0" d="M21.1,41.9c0,0.4,0,0.9,0,1.4c0,0.1-0.1,0.1-0.1,0.2c-0.4,0.1-0.8,0.3-1.2,0.4c-1.1,0.1-2.1,0-3-0.8
			c-0.6-0.5-0.9-1.2-1-1.9c-0.1-0.9,0-1.8,0.4-2.6c0.5-1,1.4-1.6,2.6-1.8c0.7-0.1,1.4,0,2.1,0.2c0.2,0.1,0.3,0.2,0.3,0.4
			c0,0.4,0,0.9,0,1.3c-0.1-0.1-0.2-0.1-0.2-0.1c-0.5-0.4-1.1-0.5-1.8-0.4c-1,0.2-1.7,0.9-1.7,1.9c0,0.5,0,0.9,0.2,1.3
			c0.4,1,1.4,1.4,2.5,1.1C20.3,42.3,20.7,42.1,21.1,41.9z"/>
		<path class="st0" d="M23.9,43.7c-0.6,0-1.1,0-1.6,0c0-2.3,0-4.6,0-6.9c0.5,0,1.1,0,1.6,0c0,0.3,0,0.7,0,1.1
			c0.1-0.2,0.2-0.4,0.4-0.6c0.4-0.6,1.2-0.8,1.9-0.6c0.1,0,0.1,0.1,0.1,0.2c0,0.5,0,1,0,1.5c-0.2-0.1-0.5-0.2-0.7-0.2
			c-0.6-0.1-1.1,0.1-1.4,0.7c-0.2,0.4-0.3,0.8-0.3,1.2c0,1.1,0,2.2,0,3.3C23.9,43.5,23.9,43.6,23.9,43.7z"/>
		<path class="st0" d="M12.9,36.8c0.5,0,1.1,0,1.6,0c0,0.1,0,0.2,0,0.2c0,2.1,0,4.3,0,6.4c0,0.2,0,0.3-0.2,0.3c-0.5,0-0.9,0-1.4,0
			C12.9,41.4,12.9,39.1,12.9,36.8z"/>
		<path class="st0" d="M13.8,35.8c-0.6,0-1-0.4-1-0.9c0-0.5,0.4-0.9,1-1c0.6,0,1,0.4,1,0.9C14.8,35.4,14.3,35.8,13.8,35.8z"/>
	</g>
</g>
<g id="yJhEgH.tif_1_">
	<g>
		<path class="st0" d="M74.2,40c0.1-0.4,0.2-0.8,0.3-1.1c0.3-1.1,1.2-2.4,2.1-3.1c0.1,0.3,0,0.6-0.2,0.8c-0.7,0.9-1.1,1.9-1.2,3
			c-0.2,2,0.8,3.5,2.8,4.3c1.2,0.5,2.4,0.6,3.7,0.7c3.7,0.1,7.3-0.6,10.6-2.3c0,0,0.1,0,0.2-0.1c0,0.5,0,1,0,1.5
			c0,0.1-0.1,0.2-0.2,0.3c-2,1-4.2,1.6-6.4,1.9c-1.7,0.2-3.5,0.3-5.2,0.1c-1.8-0.2-3.5-0.7-4.9-1.9c-0.8-0.8-1.3-1.7-1.5-2.9
			c0-0.1,0-0.2-0.1-0.2C74.2,40.5,74.2,40.2,74.2,40z"/>
		<path class="st0" d="M92.9,41.2c0-0.4,0-0.7,0-1c0-0.1,0.1-0.2,0.2-0.3c0.4-0.4,0.9-0.7,1.2-1.2c1.3-1.8,0.8-4-1.1-5.2
			c-1.1-0.7-2.3-0.9-3.5-1.1c-3.6-0.3-7,0.5-10.2,1.9c-0.1,0.1-0.2,0.1-0.4,0.2c0,0-0.1,0-0.1,0c-0.1-0.3,0-0.4,0.2-0.5
			c2.1-1.2,4.4-1.9,6.7-2.3c2.1-0.3,4.2-0.3,6.2,0.4c1.1,0.3,2.2,0.9,3,1.8c1.4,1.7,1.3,4.2-0.4,6c-0.4,0.5-1,0.8-1.5,1.2
			C93.3,41.1,93.1,41.1,92.9,41.2z"/>
		<path class="st0" d="M90.4,39.4c-1,0-1.9,0-2.9,0c0,0.4,0.1,0.7,0.5,0.8c0.5,0.3,1.1,0.1,1.5-0.3c0.2,0.2,0.5,0.4,0.7,0.7
			c-0.7,0.7-1.5,0.8-2.3,0.7c-0.8-0.2-1.3-0.7-1.5-1.5c-0.1-0.6-0.1-1.2,0.1-1.8c0.3-0.9,1.2-1.4,2.2-1.2c0.8,0.1,1.5,0.8,1.6,1.7
			C90.3,38.7,90.3,39,90.4,39.4z M89.1,38.5c0-0.5-0.3-0.8-0.7-0.8c-0.5,0-0.8,0.3-0.9,0.8C88.1,38.5,88.6,38.5,89.1,38.5z"/>
		<path class="st0" d="M80.7,37.7c0,1.2,0,2.3,0,3.5c-0.4,0-0.7,0-1.1,0c0-1.5,0-2.9,0-4.4c0.9,0,1.8,0,2.7,0c0.5,0,0.9,0.5,0.9,1.1
			c0,1.1,0,2.2,0,3.3c-0.4,0-0.7,0-1.1,0c0-0.2,0-0.3,0-0.5c0-0.8,0-1.7,0-2.5c0-0.3-0.1-0.5-0.5-0.5C81.3,37.7,81.1,37.7,80.7,37.7
			z"/>
		<path class="st0" d="M86.1,40.3c0,0.3,0,0.6,0,0.9c-0.4,0-0.8,0-1.2-0.1c-0.4-0.1-0.7-0.4-0.7-0.8c0-1.6,0-3.1,0-4.7
			c0.3,0,0.7,0,1.1,0c0,0.4,0,0.8,0,1.2c0.3,0,0.5,0,0.8,0c0,0.3,0,0.6,0,0.9c-0.3,0-0.5,0-0.8,0c0,0.7,0,1.4,0,2.1
			c0,0.1,0.2,0.3,0.4,0.4C85.7,40.3,85.9,40.3,86.1,40.3z"/>
		<path class="st0" d="M92.1,41.1c-0.6,0-1-0.4-1.1-0.9c0-1.8,0-3.5,0-5.3c0.4,0,0.7,0,1.1,0C92.1,37,92.1,39,92.1,41.1z"/>
		<path class="st0" d="M77.5,36.8c0.4,0,0.7,0,1.1,0c0,1.5,0,2.9,0,4.4c-0.6,0-1.1-0.3-1.1-0.8c0-1.1,0-2.3-0.1-3.4
			C77.5,36.9,77.5,36.9,77.5,36.8z"/>
		<path class="st0" d="M77.5,35.1c0.4,0,0.7,0,1.1,0c0,0.4,0,0.7,0,1.1c-0.4,0-0.7,0-1.1,0C77.5,35.8,77.5,35.5,77.5,35.1z"/>
		<path class="st0" d="M93.2,35.9c-0.1-0.2-0.3-0.4-0.3-0.5c0-0.2,0.3-0.3,0.4-0.4c0.2,0.2,0.4,0.3,0.4,0.5c0,0.2-0.2,0.3-0.3,0.5
			C93.4,35.9,93.3,35.9,93.2,35.9z"/>
	</g>
</g>
<g id="_x31_NoHuo.tif_3_">
	<g>
		<path class="st0" d="M124,33.5c0,0.3,0,0.5,0,0.8c-0.1,0-0.2,0-0.4,0c0,0.1,0,0.2,0,0.4c-0.1,0-0.2,0-0.4,0
			c1.2,1.5,1.6,3.2,1.1,5.1c-0.4,1.4-1.1,2.5-2.3,3.3c-2.3,1.6-5.6,1.3-7.5-0.8c-2-2.1-2-5.4-0.2-7.6c1.8-2.2,5.3-2.9,8-0.8
			c0,0,0,0,0,0c0-0.3,0.1-0.3,0.4-0.3c0.1,0,0.3,0,0.4,0c0-0.1,0-0.2,0-0.4c-0.1,0-0.2,0-0.4,0c0-0.1,0-0.2,0-0.4c0.1,0,0.2,0,0.4,0
			c0,0.1,0,0.2,0,0.4c0.1,0,0.3,0,0.4,0l0,0c0,0.1,0,0.3,0,0.4c-0.1,0-0.3,0-0.4,0c0,0.1,0,0.3,0,0.4c0.1,0,0.2,0,0.4,0
			c0-0.1,0-0.2,0-0.4C123.7,33.5,123.8,33.5,124,33.5L124,33.5z M120.8,35c-1.4-0.9-3.7-0.8-5,0.8c-1.3,1.5-1.2,3.8,0.3,5.3
			c1.4,1.4,3.7,1.5,5.3,0.2c1.5-1.3,1.8-3.6,0.8-5.1c-0.2,0-0.3,0-0.5,0.1c0,0.1,0,0.2,0,0.4c-0.1,0-0.3,0-0.4,0
			c0.1,0.3-0.1,0.5-0.3,0.7c-0.5,0.6-0.9,1.2-1.1,2c-0.1,0.3-0.1,0.6-0.2,0.9c-0.1,0.3-0.3,0.5-0.6,0.5c-0.2,0-0.5-0.1-0.6-0.4
			c-0.1-0.2-0.2-0.5-0.3-0.7c-0.4-0.9-0.9-1.7-1.5-2.5c-0.1-0.1-0.2-0.2-0.2-0.3c-0.1-0.2-0.2-0.3,0-0.5c0.1-0.2,0.3-0.1,0.5,0
			c0.5,0.2,0.9,0.5,1.3,1c0.2,0.3,0.4,0.6,0.7,1c0-0.1,0.1-0.1,0.1-0.2c0.3-0.8,0.8-1.6,1.3-2.3c0.2-0.2,0.3-0.5,0.7-0.4
			C120.8,35.3,120.8,35.1,120.8,35z"/>
		<path class="st0" d="M139.4,41.3c0-0.5,0-0.9,0-1.4c0-0.4,0-0.9,0-1.3c0-0.5-0.3-0.6-0.7-0.4c-0.2,0.1-0.4,0.3-0.3,0.5
			c0,0.8,0,1.5,0,2.3c0,0.1,0,0.2,0,0.3c-0.4,0-0.8,0-1.2,0c0-0.1,0-0.2,0-0.3c0-0.8,0-1.6,0-2.4c0-0.2,0-0.5-0.3-0.5
			c-0.2-0.1-0.7,0.1-0.8,0.3c0,0.1,0,0.1,0,0.2c0,0.8,0,1.6,0,2.4c0,0.1,0,0.2,0,0.3c-0.4,0-0.8,0-1.2,0c0-1.4,0-2.7,0-4.1
			c0.2,0,0.4,0,0.6,0c0.1,0,0.1,0.1,0.1,0.1c0.1,0.1,0.1,0.3,0.2,0.5c0.3-0.4,0.7-0.7,1.2-0.7c0.5-0.1,0.9,0.1,1.2,0.6
			c0.1-0.1,0.2-0.2,0.3-0.3c0.2-0.1,0.4-0.3,0.6-0.3c0.8-0.2,1.4,0.2,1.5,1.1c0.1,0.8,0,1.6,0,2.5c0,0.2,0,0.4,0,0.6
			C140.2,41.3,139.8,41.3,139.4,41.3z"/>
		<path class="st0" d="M125.7,40.8c0.2-0.3,0.4-0.6,0.5-0.8c0.4,0.1,0.7,0.3,1.1,0.4c0.3,0.1,0.6,0,0.9,0c0.2,0,0.4-0.2,0.4-0.4
			c0-0.3-0.1-0.5-0.3-0.6c-0.3-0.1-0.6-0.2-0.9-0.4c-0.3-0.1-0.7-0.3-1-0.5c-0.8-0.6-0.8-1.9,0-2.5c0.4-0.3,0.9-0.4,1.4-0.4
			c0.6,0,1.1,0.1,1.6,0.4c-0.1,0.3-0.3,0.6-0.4,0.8c-0.5-0.1-0.9-0.1-1.3-0.2c-0.1,0-0.2,0-0.3,0c-0.2,0-0.4,0.2-0.4,0.4
			c0,0.2,0.1,0.4,0.3,0.5c0.3,0.1,0.6,0.2,0.9,0.3c0.3,0.1,0.5,0.2,0.8,0.3c0.7,0.4,0.9,1.1,0.8,1.7c-0.1,0.7-0.5,1.2-1.2,1.4
			C127.6,41.5,126.7,41.4,125.7,40.8z"/>
		<path class="st0" d="M157.2,39.6c-0.9,0-1.7,0-2.5,0c0,0.5,0.3,0.8,0.7,0.8c0.3,0,0.6-0.1,0.9-0.2c0.1,0,0.2-0.1,0.3-0.1
			c0.2,0.3,0.3,0.5,0.5,0.8c-0.2,0.2-0.5,0.4-0.8,0.5c-0.5,0.1-0.9,0.2-1.4,0.1c-0.8-0.2-1.4-0.8-1.5-1.7c0-0.5,0-0.9,0.2-1.3
			c0.3-0.8,1-1.3,1.9-1.2c0.9,0.1,1.4,0.6,1.6,1.5C157.1,38.8,157.1,39.2,157.2,39.6z M154.7,38.8c0.4,0,0.8,0,1.2,0
			c0-0.6-0.2-0.9-0.6-0.9C154.9,37.9,154.7,38.2,154.7,38.8z"/>
		<path class="st0" d="M143.9,40.8c-0.5,0.4-1,0.6-1.6,0.5c-0.5-0.1-0.9-0.5-1-1c-0.1-0.5,0.1-1,0.6-1.2c0.4-0.2,0.9-0.3,1.3-0.4
			c0.1,0,0.2,0,0.3-0.1c0.1-0.4-0.1-0.6-0.5-0.6c-0.4,0-0.8,0.2-1.2,0.2c-0.1-0.2-0.2-0.5-0.4-0.7c0.6-0.4,1.3-0.5,2-0.4
			c0.7,0.1,1.1,0.5,1.3,1.1c0,0.1,0,0.3,0,0.4c0,0.8,0,1.7,0,2.5c0,0,0,0.1,0,0.2c-0.2,0-0.4,0-0.7,0c-0.1,0-0.1-0.1-0.1-0.1
			C144,41.1,144,41,143.9,40.8z M143.6,39.4c-0.3,0.1-0.6,0.2-0.8,0.3c-0.2,0.1-0.3,0.3-0.2,0.6c0.1,0.2,0.2,0.3,0.5,0.2
			c0.1,0,0.3-0.1,0.4-0.2c0.1,0,0.1-0.1,0.1-0.2C143.6,39.9,143.6,39.6,143.6,39.4z"/>
		<path class="st0" d="M130.3,37.1c0.4,0,0.8,0,1.2,0c0.1,0,0.1,0.1,0.2,0.2c0.2,0.8,0.4,1.7,0.7,2.5c0,0.1,0,0.1,0.1,0.2
			c0.2-1,0.4-1.8,0.6-2.7c0-0.2,0.1-0.2,0.3-0.2c0.3,0,0.6,0,0.9,0c0,0.1,0,0.1,0,0.2c-0.4,1.4-0.8,2.7-1.2,4.1
			c-0.2,0.6-0.6,1.1-1.2,1.3c-0.4,0.1-0.8,0-1.2,0c0-0.3,0.1-0.5,0.1-0.8c0,0,0.1-0.1,0.2-0.1c0.2,0,0.5,0,0.7-0.1
			c0.3-0.1,0.4-0.3,0.3-0.6c-0.4-1.3-0.9-2.5-1.3-3.8C130.4,37.3,130.4,37.2,130.3,37.1z"/>
		<path class="st0" d="M147,41.3c-0.4,0-0.8,0-1.2,0c0-1.4,0-2.7,0-4.1c0.2,0,0.4,0,0.7,0c0,0,0.1,0.1,0.1,0.1
			c0.1,0.1,0.1,0.3,0.2,0.5c0.1-0.1,0.2-0.2,0.2-0.3c0.4-0.4,0.8-0.5,1.4-0.5c0.5,0.1,0.9,0.4,0.9,1.1c0,1,0,2.1,0,3.1
			c-0.4,0-0.8,0-1.2,0c0-0.1,0-0.2,0-0.3c0-0.8,0-1.6,0-2.4c0-0.2,0-0.5-0.3-0.6c-0.2-0.1-0.7,0.1-0.8,0.3c0,0.1,0,0.2,0,0.2
			c0,0.8,0,1.6,0,2.4C147,41.1,147,41.1,147,41.3z"/>
		<path class="st0" d="M150,38c0-0.3,0-0.6,0-0.8c0.2,0,0.4,0,0.6,0c0.1-0.4,0.1-0.8,0.2-1.2c0.3,0,0.6,0,1,0c0,0.4,0,0.8,0,1.2
			c0.3,0,0.6,0,0.9,0c0,0.3,0,0.5,0,0.8c-0.3,0-0.6,0-0.9,0c0,0.5,0,0.9,0,1.3c0,0.2,0,0.4,0,0.6c0,0.4,0.1,0.5,0.5,0.5
			c0.1,0,0.2,0,0.3,0c0,0.3,0.1,0.5,0.1,0.8c-0.6,0.2-1.2,0.3-1.7,0c-0.4-0.2-0.5-0.6-0.5-1c0-0.6,0-1.3,0-1.9c0-0.1,0-0.2,0-0.3
			C150.4,38,150.3,38,150,38z"/>
		<path class="st0" d="M161.1,37.5c-0.2,0.3-0.4,0.5-0.5,0.7c-0.3-0.1-0.6-0.2-0.8-0.2c-0.3,0-0.5,0.1-0.6,0.4
			c-0.2,0.5-0.2,0.9,0,1.4c0.1,0.4,0.5,0.6,1,0.4c0.2-0.1,0.3-0.2,0.5-0.2c0.2,0.2,0.4,0.5,0.6,0.7c-0.5,0.5-1.1,0.6-1.7,0.6
			c-1.2-0.1-1.9-1.1-1.7-2.4c0-0.2,0.1-0.4,0.1-0.6C158.3,37,160.1,36.6,161.1,37.5z"/>
		<path class="st0" d="M125.2,31.4c0,0.2,0,0.3,0,0.5l0,0c-0.1,0-0.2,0-0.4,0c0,0.1,0,0.3,0,0.4c-0.1,0-0.3,0-0.4,0
			c0,0.1,0,0.3,0,0.4l0,0c-0.1,0-0.3,0-0.4,0c0,0.1,0,0.3,0,0.4l0,0c-0.1,0-0.3,0-0.4,0l0,0c0-0.3,0-0.5,0-0.8c0.1,0,0.2,0,0.4,0
			c0-0.1,0-0.2,0-0.4c0.3,0,0.5,0,0.8,0c0-0.2,0-0.3,0-0.4C124.9,31.5,125.1,31.4,125.2,31.4L125.2,31.4z"/>
		<path class="st0" d="M124.4,33c0,0.1,0,0.3,0,0.4c-0.2,0-0.3,0-0.4,0l0,0c0-0.1,0-0.3,0-0.4l0,0C124.1,33.1,124.3,33.1,124.4,33
			L124.4,33z"/>
		<path class="st0" d="M124.4,32.7c0.1,0,0.3,0,0.4,0c0,0.1,0,0.3,0,0.4c-0.1,0-0.3,0-0.4,0l0,0C124.4,32.9,124.4,32.8,124.4,32.7
			L124.4,32.7z"/>
		<path class="st0" d="M125.2,31.9c0.1,0,0.3,0,0.4,0c0,0.1,0,0.3,0,0.4c-0.1,0-0.2,0-0.4,0C125.2,32.1,125.2,32,125.2,31.9
			C125.2,31.9,125.2,31.9,125.2,31.9z"/>
		<path class="st0" d="M125.2,31.4c0-0.1,0-0.2,0-0.3c0.1,0,0.2,0,0.4,0c0,0.1,0,0.2,0,0.4C125.4,31.5,125.3,31.4,125.2,31.4
			C125.2,31.4,125.2,31.4,125.2,31.4z"/>
	</g>
</g>
<g id="_x34_GiLUf.tif_3_">
	<g>
		<path class="st0" d="M8.7,3.3C9,3.4,9,3.6,9,3.8c0,1.3,0,2.7,0,4c0,0.4-0.2,0.6-0.5,0.5C8.3,8.3,8.2,8.1,8.2,7.9
			c0-0.8,0-1.6,0-2.4c0-0.5,0-1.1,0-1.6c0-0.2,0.1-0.4,0.2-0.6C8.5,3.3,8.6,3.3,8.7,3.3z"/>
		<path class="st0" d="M17.6,3.3c0.2,0.1,0.2,0.3,0.2,0.6c0,1.3,0,2.7,0,4c0,0.3-0.2,0.5-0.5,0.4C17.1,8.3,17,8.1,17,7.9
			c0-0.6,0-1.2,0-1.8c0-0.8,0-1.6,0-2.3c0-0.2,0.1-0.4,0.3-0.5C17.4,3.3,17.5,3.3,17.6,3.3z"/>
		<path class="st0" d="M3.8,6.2C3.9,6.1,4,5.9,4.1,5.9C4.4,5.8,4.6,6,4.6,6.3c0,0.3,0,0.5,0,0.8c0,0.2-0.1,0.4-0.3,0.4
			C4.2,7.6,4,7.5,3.9,7.3c0,0,0,0,0,0C3.8,6.9,3.8,6.5,3.8,6.2z"/>
		<path class="st0" d="M18.9,9.7c1,0,1.7,0.8,1.7,1.7c0,0.8-0.7,1.6-1.8,1.6c-0.9,0-1.6-0.8-1.6-1.7C17.2,10.4,17.9,9.7,18.9,9.7z
			 M18,11.3c0,0.5,0.4,0.8,0.8,0.8c0.5,0,0.8-0.4,0.8-0.8c0-0.5-0.4-0.8-0.8-0.8C18.4,10.5,18,10.9,18,11.3z"/>
		<path class="st0" d="M12.9,10.4c-0.2,0-0.5-0.1-0.7-0.1c-0.2,0-0.4,0.1-0.4,0.2c0,0.2,0.2,0.2,0.3,0.3c0.2,0.1,0.3,0.1,0.5,0.2
			c0.3,0.2,0.5,0.4,0.5,0.8c0,0.4-0.2,0.7-0.5,0.9C12.2,13,11.8,13,11.3,13c-0.1,0-0.3,0-0.4-0.1c0-0.2,0-0.5,0-0.7
			c0.2,0,0.4,0.1,0.7,0.1c0.2,0,0.3,0,0.5-0.1c0.1,0,0.2-0.1,0.2-0.2c0-0.1-0.1-0.2-0.1-0.2c-0.1-0.1-0.3-0.1-0.5-0.2
			c-0.4-0.1-0.7-0.3-0.7-0.7c-0.1-0.6,0.3-1.1,0.9-1.2c0.3,0,0.6,0,0.9,0c0.1,0,0.2,0.1,0.2,0.2C12.9,10.1,12.9,10.3,12.9,10.4z"/>
		<path class="st0" d="M7.9,12c0,0.3,0,0.5,0,0.7c0,0,0,0.1-0.1,0.1C7,13.1,6.1,13,5.7,12.1c-0.5-1,0-2.4,1.4-2.4
			c0.3,0,0.5,0,0.8,0.1c0,0,0.1,0.1,0.1,0.1c0,0.2,0,0.5,0,0.8c-0.2,0-0.3-0.1-0.5-0.1c-0.7-0.1-1.2,0.4-1.1,1.1
			c0.1,0.4,0.5,0.7,1,0.6C7.6,12.1,7.7,12.1,7.9,12z"/>
		<path class="st0" d="M16.3,10.6c-0.2,0-0.4-0.1-0.6-0.1c-0.4,0-0.7,0.1-0.8,0.4c-0.2,0.3-0.1,0.6,0,0.9c0.2,0.3,0.5,0.4,0.9,0.3
			c0.2,0,0.3-0.1,0.5-0.1c0,0.3,0,0.5,0,0.8c0,0,0,0.1-0.1,0.1c-0.8,0.2-1.8,0.1-2.2-0.8c-0.5-1,0-2.3,1.4-2.4c0.3,0,0.5,0,0.8,0.1
			c0,0,0.1,0.1,0.1,0.1C16.3,10.1,16.3,10.4,16.3,10.6z"/>
		<path class="st0" d="M9,12.9c0-1.1,0-2.1,0-3.2c0.3,0,0.5,0,0.8,0c0,0.1,0,0.1,0,0.2c0,0.9,0,1.9,0,2.8c0,0.2,0,0.2-0.2,0.2
			C9.4,12.9,9.2,12.9,9,12.9z"/>
		<path class="st0" d="M19.2,6.2c0-0.3,0-0.6,0-0.9c0-0.3,0.2-0.5,0.4-0.5C19.8,4.8,20,5,20,5.3c0,0.6,0,1.2,0,1.8
			c0,0.3-0.2,0.5-0.4,0.5c-0.2,0-0.4-0.2-0.4-0.5C19.2,6.8,19.2,6.5,19.2,6.2z"/>
		<path class="st0" d="M14.8,6.2c0-0.3,0-0.6,0-0.9c0-0.3,0.2-0.5,0.4-0.5c0.3,0,0.4,0.2,0.4,0.5c0,0.6,0,1.2,0,1.9
			c0,0.2-0.1,0.4-0.3,0.4c-0.2,0-0.4-0.1-0.4-0.3c0-0.1,0-0.2,0-0.2C14.8,6.8,14.8,6.5,14.8,6.2z"/>
		<path class="st0" d="M11.2,6.2c0,0.3,0,0.6,0,0.9c0,0.3-0.2,0.4-0.4,0.4c-0.2,0-0.4-0.2-0.4-0.4c0-0.6,0-1.3,0-1.9
			c0-0.3,0.2-0.4,0.4-0.4c0.2,0,0.4,0.2,0.4,0.4C11.2,5.5,11.2,5.9,11.2,6.2z"/>
		<path class="st0" d="M6.8,6.2c0,0.3,0,0.6,0,0.9c0,0.3-0.2,0.5-0.4,0.5C6.2,7.5,6,7.4,6,7.1c0-0.6,0-1.2,0-1.9
			C6,5,6.2,4.8,6.4,4.8c0.2,0,0.4,0.2,0.4,0.4C6.8,5.5,6.8,5.9,6.8,6.2z"/>
		<path class="st0" d="M13.4,6.7c0,0.1,0,0.3,0,0.4c0,0.2-0.2,0.4-0.4,0.4c-0.2,0-0.4-0.2-0.4-0.4c0-0.3,0-0.6,0-0.8
			c0-0.2,0.2-0.4,0.4-0.4c0.2,0,0.4,0.2,0.4,0.4C13.4,6.4,13.4,6.6,13.4,6.7z"/>
		<path class="st0" d="M22.2,6.7c0,0.1,0,0.3,0,0.4c0,0.2-0.2,0.4-0.4,0.4c-0.2,0-0.4-0.2-0.4-0.4c0-0.3,0-0.6,0-0.9
			c0-0.2,0.2-0.4,0.4-0.3c0.2,0,0.4,0.2,0.4,0.4c0,0,0,0,0,0C22.2,6.4,22.2,6.6,22.2,6.7z"/>
	</g>
</g>
</svg>
