<?xml version="1.0" encoding="utf-8"?>
<!-- Generator: Adobe Illustrator 21.1.0, SVG Export Plug-In . SVG Version: 6.00 Build 0)  -->
<svg version="1.1" id="Layer_1" xmlns="http://www.w3.org/2000/svg" xmlns:xlink="http://www.w3.org/1999/xlink" x="0px" y="0px"
	 viewBox="0 0 462 440" style="enable-background:new 0 0 462 440;" xml:space="preserve">
<style type="text/css">
	.st0{fill:none;stroke:#FFFFFF;stroke-width:1.4387;stroke-linecap:round;stroke-linejoin:round;stroke-miterlimit:10;}
</style>
<g>
	<line class="st0" x1="196.3" y1="318.3" x2="196.3" y2="327.5"/>
	<polyline class="st0" points="130.7,297.7 130.7,84.8 196.3,84.8 196.3,301.4 	"/>
	<line class="st0" x1="130.7" y1="327.5" x2="130.7" y2="318.4"/>
	<rect x="140" y="65" class="st0" width="47" height="19.8"/>
	<g>
		<rect x="145.7" y="71" class="st0" width="8.4" height="13.7"/>
		<rect x="159.3" y="71" class="st0" width="8.4" height="13.7"/>
		<rect x="172.8" y="71" class="st0" width="8.4" height="13.7"/>
	</g>
	<line class="st0" x1="163.5" y1="46.9" x2="163.5" y2="65"/>
	<rect x="150.6" y="175.5" class="st0" width="25.8" height="9.5"/>
	<rect x="150.6" y="189.8" class="st0" width="25.8" height="9.5"/>
	<rect x="150.6" y="204.1" class="st0" width="25.8" height="9.5"/>
	<rect x="150.6" y="218.5" class="st0" width="25.8" height="9.5"/>
	<rect x="150.6" y="232.8" class="st0" width="25.8" height="9.5"/>
	<rect x="150.6" y="247.1" class="st0" width="25.8" height="9.5"/>
	<rect x="150.6" y="261.5" class="st0" width="25.8" height="9.5"/>
	<rect x="150.6" y="275.8" class="st0" width="25.8" height="9.5"/>
	<rect x="150.6" y="290.1" class="st0" width="25.8" height="9.5"/>
	<g>
		<polyline class="st0" points="151.3,327.8 151.3,310.5 163.5,310.5 		"/>
		<polyline class="st0" points="175.7,327.8 175.7,310.5 163.5,310.5 163.5,327.8 		"/>
	</g>
	<polyline class="st0" points="82.7,327.8 82.7,213.7 130.7,213.7 	"/>
	<g>
		<rect x="90.1" y="221.8" class="st0" width="7.2" height="7.2"/>
		<rect x="103.1" y="221.8" class="st0" width="7.2" height="7.2"/>
		<rect x="116" y="221.8" class="st0" width="7.2" height="7.2"/>
	</g>
	<g>
		<rect x="90.1" y="240.3" class="st0" width="7.2" height="7.2"/>
		<rect x="103.1" y="240.3" class="st0" width="7.2" height="7.2"/>
		<rect x="116" y="240.3" class="st0" width="7.2" height="7.2"/>
	</g>
	<g>
		<rect x="90.1" y="258.8" class="st0" width="7.2" height="7.2"/>
		<rect x="103.1" y="258.8" class="st0" width="7.2" height="7.2"/>
		<rect x="116" y="258.8" class="st0" width="7.2" height="7.2"/>
	</g>
	<g>
		<rect x="90.1" y="277.4" class="st0" width="7.2" height="7.2"/>
		<rect x="103.1" y="277.4" class="st0" width="7.2" height="7.2"/>
		<rect x="116" y="277.4" class="st0" width="7.2" height="7.2"/>
	</g>
	<polyline class="st0" points="244.3,327.5 244.3,213.7 196.3,213.7 	"/>
	<g>
		
			<rect x="229.6" y="221.8" transform="matrix(-1 -4.724011e-11 4.724011e-11 -1 466.4572 450.7736)" class="st0" width="7.2" height="7.2"/>
		
			<rect x="216.6" y="221.8" transform="matrix(-1 -4.472745e-11 4.472745e-11 -1 440.5127 450.7736)" class="st0" width="7.2" height="7.2"/>
		
			<rect x="203.7" y="221.8" transform="matrix(-1 -4.523016e-11 4.523016e-11 -1 414.5682 450.7736)" class="st0" width="7.2" height="7.2"/>
	</g>
	<g>
		
			<rect x="229.6" y="240.3" transform="matrix(-1 -4.799417e-11 4.799417e-11 -1 466.4572 487.8372)" class="st0" width="7.2" height="7.2"/>
		
			<rect x="216.6" y="240.3" transform="matrix(-1 -4.523016e-11 4.523016e-11 -1 440.5127 487.8372)" class="st0" width="7.2" height="7.2"/>
		
			<rect x="203.7" y="240.3" transform="matrix(-1 -4.221480e-11 4.221480e-11 -1 414.5682 487.8372)" class="st0" width="7.2" height="7.2"/>
	</g>
	<g>
		
			<rect x="229.6" y="258.8" transform="matrix(-1 -4.422475e-11 4.422475e-11 -1 466.4572 524.9008)" class="st0" width="7.2" height="7.2"/>
		
			<rect x="216.6" y="258.8" transform="matrix(-1 -4.774282e-11 4.774282e-11 -1 440.5127 524.9008)" class="st0" width="7.2" height="7.2"/>
		
			<rect x="203.7" y="258.8" transform="matrix(-1 -4.749147e-11 4.749147e-11 -1 414.5682 524.9008)" class="st0" width="7.2" height="7.2"/>
	</g>
	<g>
		
			<rect x="229.6" y="277.4" transform="matrix(-1 -4.523016e-11 4.523016e-11 -1 466.4572 561.9643)" class="st0" width="7.2" height="7.2"/>
		
			<rect x="216.6" y="277.4" transform="matrix(-1 -4.171209e-11 4.171209e-11 -1 440.5127 561.9643)" class="st0" width="7.2" height="7.2"/>
		
			<rect x="203.7" y="277.4" transform="matrix(-1 -4.523016e-11 4.523016e-11 -1 414.5682 561.9643)" class="st0" width="7.2" height="7.2"/>
	</g>
	<line class="st0" x1="41" y1="327.8" x2="421.9" y2="327.8"/>
	<g>
		<circle class="st0" cx="201.5" cy="309.8" r="9.9"/>
		<line class="st0" x1="201.5" y1="308.6" x2="201.5" y2="327.8"/>
	</g>
	<polyline class="st0" points="236.8,327.8 236.8,310.5 224.7,310.5 224.7,327.8 	"/>
	<polyline class="st0" points="90.1,327.8 90.1,310.5 102.3,310.5 102.3,327.8 	"/>
	<g>
		
			<rect x="229.6" y="295.9" transform="matrix(-1 -4.523016e-11 4.523016e-11 -1 466.4572 599.0278)" class="st0" width="7.2" height="7.2"/>
		
			<rect x="216.6" y="295.9" transform="matrix(-1 -4.523016e-11 4.523016e-11 -1 440.5127 599.0278)" class="st0" width="7.2" height="7.2"/>
		<polyline class="st0" points="208.8,303.1 210.9,303.1 210.9,295.9 203.7,295.9 203.7,300.2 		"/>
	</g>
	<g>
		<path class="st0" d="M132,300.6c1.1-0.4,2.4-0.7,3.6-0.7c5.5,0,9.9,4.4,9.9,9.9c0,5.5-4.4,9.9-9.9,9.9c-3.6,0-6.8-1.9-8.5-4.8"/>
		<line class="st0" x1="135.7" y1="308.6" x2="135.7" y2="327.8"/>
	</g>
	<g>
		<circle class="st0" cx="119.7" cy="304.4" r="12.9"/>
		<line class="st0" x1="119.7" y1="302.8" x2="119.7" y2="327.8"/>
	</g>
	<circle class="st0" cx="257.3" cy="313.5" r="7.9"/>
	<line class="st0" x1="257.3" y1="312.5" x2="257.3" y2="327.8"/>
	<line class="st0" x1="307.8" y1="240.4" x2="272" y2="265.3"/>
	<line class="st0" x1="307.8" y1="240.4" x2="338" y2="261.5"/>
	<g>
		<line class="st0" x1="277.6" y1="261.5" x2="277.6" y2="327.8"/>
		<line class="st0" x1="338" y1="261.5" x2="338" y2="327.8"/>
	</g>
	<circle class="st0" cx="307.8" cy="263.1" r="7.6"/>
	<polyline class="st0" points="338,265.1 371,265.1 381.5,287.6 338,287.6 	"/>
	<line class="st0" x1="376.9" y1="287.6" x2="376.9" y2="327.8"/>
	<rect x="345.4" y="296.7" class="st0" width="24" height="14.5"/>
	<rect x="300.8" y="286.7" class="st0" width="14" height="30.4"/>
	<rect x="294.8" y="317" class="st0" width="26" height="5.4"/>
	<rect x="291.6" y="322.4" class="st0" width="32.4" height="5.4"/>
	<rect x="282.5" y="286.7" class="st0" width="13" height="22.2"/>
	<line class="st0" x1="289" y1="308.8" x2="289" y2="286.7"/>
	<line class="st0" x1="282.5" y1="297.7" x2="295.5" y2="297.7"/>
	
		<rect x="320" y="286.7" transform="matrix(-1 -4.560364e-11 4.560364e-11 -1 653.1105 595.4789)" class="st0" width="13" height="22.2"/>
	<line class="st0" x1="326.6" y1="308.8" x2="326.6" y2="286.7"/>
	<line class="st0" x1="333.1" y1="297.7" x2="320" y2="297.7"/>
	<line class="st0" x1="357.4" y1="311.1" x2="357.4" y2="296.7"/>
	<line class="st0" x1="369.4" y1="303.9" x2="345.4" y2="303.9"/>
	<path class="st0" d="M258.3,305.7c-0.4-1.3-0.5-2.6-0.5-3.9c0-7.9,6.4-14.4,14.4-14.4c1.9,0,3.8,0.4,5.5,1.1"/>
	<path class="st0" d="M277.6,315.1c-1.7,0.7-3.5,1.1-5.5,1.1c-2.5,0-4.9-0.7-7-1.8"/>
	<line class="st0" x1="272.1" y1="299.9" x2="272.1" y2="327.8"/>
	<circle class="st0" cx="390" cy="309.8" r="9.9"/>
	<line class="st0" x1="390" y1="308.6" x2="390" y2="327.8"/>
	<line class="st0" x1="307.8" y1="255.5" x2="307.8" y2="270.7"/>
	<line class="st0" x1="315.4" y1="263.1" x2="300.2" y2="263.1"/>
	<g>
		<path class="st0" d="M85.5,133.3c0-6.4,5.2-11.6,11.6-11.6c4.5,0,8.3,2.5,10.3,6.2"/>
		<path class="st0" d="M103.8,130.2c1.6-1.7,3.9-2.8,6.4-2.8c4.8,0,8.7,3.9,8.7,8.7"/>
		<line class="st0" x1="85.5" y1="133.3" x2="76.2" y2="133.3"/>
		<line class="st0" x1="118.9" y1="136.1" x2="130.7" y2="136.1"/>
	</g>
	<g>
		<path class="st0" d="M335.9,188.8c0-6,4.9-10.8,10.8-10.8c2,0,3.9,0.5,5.5,1.5"/>
		<path class="st0" d="M352.2,179.4c2.1-5.6,7.6-9.6,13.9-9.6c7.6,0,13.8,5.7,14.8,13"/>
		<path class="st0" d="M381,182.8c1.2-0.5,2.5-0.8,3.8-0.8c5.3,0,9.6,4.3,9.6,9.6"/>
		<line class="st0" x1="335.9" y1="188.8" x2="319.2" y2="188.8"/>
		<line class="st0" x1="394.4" y1="191.6" x2="400.3" y2="191.6"/>
	</g>
	<g>
		<path class="st0" d="M61.2,175.2c0-3.8,3.1-6.9,6.9-6.9c3.2,0,5.9,2.2,6.7,5.1"/>
		<path class="st0" d="M74.8,173.4c0.8-0.5,1.8-0.8,2.9-0.8c2.9,0,5.3,2.4,5.3,5.3"/>
		<line class="st0" x1="83" y1="177.9" x2="91.2" y2="177.9"/>
	</g>
	<circle class="st0" cx="231.4" cy="220.5" r="207.5"/>
	<rect x="150.6" y="161.1" class="st0" width="25.8" height="9.5"/>
	<rect x="150.6" y="146.8" class="st0" width="25.8" height="9.5"/>
	<rect x="150.6" y="132.5" class="st0" width="25.8" height="9.5"/>
	<rect x="150.6" y="118.1" class="st0" width="25.8" height="9.5"/>
	<rect x="150.6" y="103.8" class="st0" width="25.8" height="9.5"/>
	<circle class="st0" cx="356.1" cy="121.1" r="10.7"/>
	<line class="st0" x1="356.1" y1="104.9" x2="356.1" y2="98.2"/>
	<line class="st0" x1="344.6" y1="109.6" x2="339.9" y2="104.9"/>
	<line class="st0" x1="339.9" y1="121.1" x2="333.2" y2="121.1"/>
	<line class="st0" x1="344.6" y1="132.6" x2="339.9" y2="137.2"/>
	<line class="st0" x1="356.1" y1="137.3" x2="356.1" y2="143.9"/>
	<line class="st0" x1="367.5" y1="132.6" x2="372.2" y2="137.2"/>
	<line class="st0" x1="372.3" y1="121.1" x2="378.9" y2="121.1"/>
	<line class="st0" x1="367.5" y1="109.6" x2="372.2" y2="104.9"/>
	<g>
		<path class="st0" d="M184.6,401.2c3.1,0,5.6-2.5,5.6-5.6c0-2.2-1.3-4.1-3.1-5c0-0.1,0-0.2,0-0.3c0-6-4.9-10.9-10.9-10.9
			c-6,0-10.9,4.9-10.9,10.9s4.9,10.9,10.9,10.9"/>
		<line class="st0" x1="176.2" y1="401.2" x2="176.2" y2="389"/>
		<line class="st0" x1="181.9" y1="393.9" x2="176.2" y2="401.2"/>
		<line class="st0" x1="161.6" y1="401.2" x2="200.9" y2="401.2"/>
	</g>
	<line class="st0" x1="119.7" y1="310.5" x2="113.9" y2="306.5"/>
	<line class="st0" x1="390" y1="314.3" x2="393.8" y2="311.1"/>
	<line class="st0" x1="272.1" y1="307.7" x2="264.3" y2="297.7"/>
	<g>
		<line class="st0" x1="278.8" y1="405.6" x2="278.8" y2="393.4"/>
		<line class="st0" x1="284.5" y1="398.3" x2="278.8" y2="405.6"/>
		<line class="st0" x1="242.9" y1="405.6" x2="303.4" y2="405.6"/>
		<path class="st0" d="M287.2,405.6c3.1,0,5.6-2.5,5.6-5.6c0-2.2-1.3-4.1-3.1-5c0-0.1,0-0.2,0-0.3c0-6-4.9-10.9-10.9-10.9
			c-5.3,0-9.7,3.7-10.7,8.7c-1.4-1.5-3.4-2.4-5.6-2.4c-4.3,0-7.8,3.5-7.8,7.8s3.5,7.8,7.8,7.8"/>
		<line class="st0" x1="262.5" y1="405.6" x2="262.5" y2="398.2"/>
	</g>
	<polyline class="st0" points="232.7,213.7 232.7,71.2 295.3,71.2 295.3,249.1 	"/>
	<rect x="239.9" y="57.5" class="st0" width="48.2" height="13.7"/>
	<line class="st0" x1="264" y1="37.6" x2="264" y2="57.5"/>
	<g>
		<rect x="242.8" y="81.8" class="st0" width="7.9" height="22.2"/>
		<rect x="260.1" y="81.8" class="st0" width="7.9" height="22.2"/>
		<rect x="277.3" y="81.8" class="st0" width="7.9" height="22.2"/>
	</g>
	<g>
		<rect x="242.8" y="116.3" class="st0" width="7.9" height="22.2"/>
		<rect x="260.1" y="116.3" class="st0" width="7.9" height="22.2"/>
		<rect x="277.3" y="116.3" class="st0" width="7.9" height="22.2"/>
	</g>
	<g>
		<rect x="242.8" y="150.9" class="st0" width="7.9" height="22.2"/>
		<rect x="260.1" y="150.9" class="st0" width="7.9" height="22.2"/>
		<rect x="277.3" y="150.9" class="st0" width="7.9" height="22.2"/>
	</g>
	<g>
		<rect x="242.8" y="185.4" class="st0" width="7.9" height="22.2"/>
		<rect x="260.1" y="185.4" class="st0" width="7.9" height="22.2"/>
		<rect x="277.3" y="185.4" class="st0" width="7.9" height="22.2"/>
	</g>
	<polyline class="st0" points="244.3,242.2 250.7,242.2 250.7,220 244.3,220 	"/>
	<rect x="260.1" y="220" class="st0" width="7.9" height="22.2"/>
	<rect x="277.3" y="220" class="st0" width="7.9" height="22.2"/>
	<rect x="260.1" y="254.5" class="st0" width="7.9" height="22.2"/>
	<line class="st0" x1="105.8" y1="372.3" x2="357" y2="372.3"/>
	<circle class="st0" cx="245.8" cy="365.4" r="6.9"/>
	<circle class="st0" cx="284" cy="365.4" r="6.9"/>
	<line class="st0" x1="277.1" y1="365.4" x2="252.7" y2="365.4"/>
	<path class="st0" d="M238.9,365.4h-5.1v-3.3c0-4.6,3.4-8.5,7.9-9.2l48.4-7.2l1.4,10l0,0c2,0,3.6,1.6,3.6,3.6v6h-4.1"/>
	<path class="st0" d="M290.1,345.8l-1.1-8h-16.1c-6.2,0-12.1,2-17,5.8l-11.5,8.9"/>
</g>
</svg>
