<?xml version="1.0" encoding="utf-8"?>
<!-- Generator: Adobe Illustrator 21.1.0, SVG Export Plug-In . SVG Version: 6.00 Build 0)  -->
<svg version="1.1" id="Layer_1" xmlns="http://www.w3.org/2000/svg" xmlns:xlink="http://www.w3.org/1999/xlink" x="0px" y="0px"
	 viewBox="0 0 47.6 47.6" style="enable-background:new 0 0 47.6 47.6;" xml:space="preserve">
<style type="text/css">
	.st0{fill:none;stroke:#E73E51;stroke-width:1.6927;}
	.st1{fill:none;stroke:#E73E51;stroke-width:1.1285;stroke-linecap:round;stroke-linejoin:round;stroke-miterlimit:10;}
	.st2{fill:none;stroke:#EE4050;stroke-width:1.1285;stroke-linecap:round;stroke-linejoin:round;stroke-miterlimit:10;}
	.st3{fill:#E73E51;}
	.st4{fill:none;stroke:#E73E51;stroke-width:0.2257;stroke-miterlimit:10;}
</style>
<g>
	<circle class="st0" cx="-85.4" cy="21.5" r="23"/>
	<path class="st1" d="M-70.5,30.5c0,1.5-1.2,2.7-2.8,2.7c-1.5,0-2.8-1.2-2.8-2.7c0-1.5,1.2-2.7,2.8-2.7
		C-71.8,27.8-70.5,29-70.5,30.5z M-82.4,30.5c0,1.5-1.2,2.7-2.8,2.7c-1.5,0-2.8-1.2-2.8-2.7c0-1.5,1.3-2.7,2.8-2.7
		C-83.7,27.8-82.4,29-82.4,30.5z M-94.4,30.5c0,1.5-1.3,2.7-2.8,2.7c-1.5,0-2.8-1.2-2.8-2.7c0-1.5,1.3-2.7,2.8-2.7
		C-95.7,27.8-94.4,29-94.4,30.5z M-85.3,27.8v-5.5 M-97.2,27.8v-3.5h12h12v3.5 M-82.8,13.2c0,1.3-1.1,2.4-2.5,2.4s-2.5-1.1-2.5-2.4
		c0-1.3,1.1-2.4,2.5-2.4S-82.8,11.9-82.8,13.2z M-80.9,13c0,2.4-4.4,9.3-4.4,9.3s-4.4-6.9-4.4-9.3c0-2.4,2-4.3,4.4-4.3
		S-80.9,10.6-80.9,13z"/>
</g>
<g>
	<circle class="st0" cx="-29.9" cy="22.2" r="23"/>
	<path class="st2" d="M-28,15.8l9.9,10.9 M-31.7,15.8l-9.9,10.9 M-29.9,16.6V26 M-19,28.8c0-1.5,1.2-2.8,2.7-2.8
		c1.5,0,2.7,1.2,2.7,2.8c0,1.5-1.2,2.8-2.7,2.8C-17.8,31.5-19,30.3-19,28.8z M-46.2,28.8c0-1.5,1.2-2.8,2.7-2.8
		c1.5,0,2.7,1.2,2.7,2.8c0,1.5-1.2,2.8-2.7,2.8C-45,31.5-46.2,30.3-46.2,28.8z M-32.6,28.8c0-1.5,1.2-2.8,2.7-2.8s2.7,1.2,2.7,2.8
		c0,1.5-1.2,2.8-2.7,2.8S-32.6,30.3-32.6,28.8z M-32.6,13.8c0-1.5,1.2-2.8,2.7-2.8s2.7,1.2,2.7,2.8c0,1.5-1.2,2.8-2.7,2.8
		S-32.6,15.3-32.6,13.8z"/>
</g>
<g>
	<circle class="st0" cx="23.8" cy="23.8" r="23"/>
	<path class="st1" d="M13.7,33.2h12 M34.5,19.6c3.8,0,6.8,3,6.8,6.8c0,3.8-3,6.8-6.8,6.8 M17.9,14.5c1.8-2.7,4.8-4.4,8.2-4.4
		c5.4,0,9.8,4.3,9.9,9.7 M10.5,19.2c0-0.2-0.1-0.5-0.1-0.7c0-2.6,2.1-4.8,4.8-4.8c1.9,0,3.5,1.1,4.3,2.7 M13.7,33.2
		c-4.1,0-7.3-3.3-7.3-7.3c0-2.9,1.7-5.4,4.1-6.6"/>
	<path class="st3" d="M23,28.1c0.5,0.6,1.1,1.1,1.9,1.2c0.8,0.1,1.6-0.1,2.4-0.9c0.2-0.2,0.3-0.3,0.4-0.3c0.1,0,0.2,0,0.5,0.2l2.2,2
		c0.2,0.3,0.2,0.3,0.1,0.5c-0.1,0.2-0.3,0.4-0.5,0.6c-1.6,1.4-2.8,1.7-4.1,1.4c-1.3-0.3-2.6-1.4-4.2-3.2c-0.6-0.7-1.3-1.5-1.9-2.2
		c-1.5-1.8-2.4-3.3-2.5-4.6c-0.1-1.3,0.4-2.5,2-3.9c0.2-0.2,0.5-0.4,0.7-0.4c0.2,0,0.3,0,0.5,0.2l1.6,2.5c0.1,0.3,0.1,0.5,0.1,0.5
		c0,0.1-0.2,0.2-0.4,0.4c-0.9,0.7-1.3,1.5-1.2,2.3c0,0.8,0.4,1.5,0.9,2.1L23,28.1z M22.3,26.1c-0.4-0.5-0.7-1-0.7-1.5
		c0-0.5,0.2-1.1,0.9-1.6c0.2-0.2,0.5-0.4,0.6-0.7c0.1-0.3,0.1-0.8-0.1-1.2c-0.6-0.9-1.2-1.8-1.8-2.7c-0.4-0.4-0.9-0.6-1.3-0.5
		c-0.4,0.1-0.7,0.3-1,0.6c-1.6,1.3-2.4,2.9-2.3,4.6c0.2,1.6,1.2,3.2,2.7,5c0.7,0.8,1.2,1.4,1.9,2.2c1.6,1.8,3,3,4.6,3.4
		c1.9,0.5,3.6-0.5,4.8-1.6c0.3-0.2,0.6-0.5,0.7-0.9c0.2-0.4,0.1-0.9-0.3-1.3c-0.8-0.7-1.6-1.4-2.4-2.1c-0.4-0.3-0.8-0.4-1.2-0.3
		c-0.4,0.1-0.6,0.3-0.8,0.5c-0.7,0.6-1.2,0.8-1.7,0.7c-0.5-0.1-1-0.4-1.4-0.9L22.3,26.1z"/>
	<path class="st4" d="M23,28.1c0.5,0.6,1.1,1.1,1.9,1.2c0.8,0.1,1.6-0.1,2.4-0.9c0.2-0.2,0.3-0.3,0.4-0.3c0.1,0,0.2,0,0.5,0.2l2.2,2
		c0.2,0.3,0.2,0.3,0.1,0.5c-0.1,0.2-0.3,0.4-0.5,0.6c-1.6,1.4-2.8,1.7-4.1,1.4c-1.3-0.3-2.6-1.4-4.2-3.2c-0.6-0.7-1.3-1.5-1.9-2.2
		c-1.5-1.8-2.4-3.3-2.5-4.6c-0.1-1.3,0.4-2.5,2-3.9c0.2-0.2,0.5-0.4,0.7-0.4c0.2,0,0.3,0,0.5,0.2l1.6,2.5c0.1,0.3,0.1,0.5,0.1,0.5
		c0,0.1-0.2,0.2-0.4,0.4c-0.9,0.7-1.3,1.5-1.2,2.3c0,0.8,0.4,1.5,0.9,2.1L23,28.1z M22.3,26.1c-0.4-0.5-0.7-1-0.7-1.5
		c0-0.5,0.2-1.1,0.9-1.6c0.2-0.2,0.5-0.4,0.6-0.7c0.1-0.3,0.1-0.8-0.1-1.2c-0.6-0.9-1.2-1.8-1.8-2.7c-0.4-0.4-0.9-0.6-1.3-0.5
		c-0.4,0.1-0.7,0.3-1,0.6c-1.6,1.3-2.4,2.9-2.3,4.6c0.2,1.6,1.2,3.2,2.7,5c0.7,0.8,1.2,1.4,1.9,2.2c1.6,1.8,3,3,4.6,3.4
		c1.9,0.5,3.6-0.5,4.8-1.6c0.3-0.2,0.6-0.5,0.7-0.9c0.2-0.4,0.1-0.9-0.3-1.3c-0.8-0.7-1.6-1.4-2.4-2.1c-0.4-0.3-0.8-0.4-1.2-0.3
		c-0.4,0.1-0.6,0.3-0.8,0.5c-0.7,0.6-1.2,0.8-1.7,0.7c-0.5-0.1-1-0.4-1.4-0.9L22.3,26.1z"/>
</g>
</svg>
