<?xml version="1.0" encoding="utf-8"?>
<!-- Generator: Adobe Illustrator 21.1.0, SVG Export Plug-In . SVG Version: 6.00 Build 0)  -->
<svg version="1.1" id="Layer_1" xmlns="http://www.w3.org/2000/svg" xmlns:xlink="http://www.w3.org/1999/xlink" x="0px" y="0px"
	 viewBox="0 0 47.6 47.6" style="enable-background:new 0 0 47.6 47.6;" xml:space="preserve">
<style type="text/css">
	.st0{fill:none;stroke:#662F8F;stroke-width:4;stroke-linecap:round;stroke-linejoin:round;stroke-miterlimit:10;}
	.st1{fill:#662F8F;}
	.st2{fill:none;stroke:#662F8F;stroke-width:2;stroke-linecap:round;stroke-linejoin:round;stroke-miterlimit:10;}
	.st3{fill:none;stroke:#FFFFFF;stroke-width:0.488;stroke-linecap:round;stroke-linejoin:round;stroke-miterlimit:10;}
	.st4{fill:none;stroke:#E73E51;stroke-width:1.6927;}
	.st5{fill:none;stroke:#E73E51;stroke-width:1.1285;stroke-linecap:round;stroke-linejoin:round;stroke-miterlimit:10;}
	.st6{fill:#E73E51;}
	
		.st7{clip-path:url(#SVGID_2_);fill:none;stroke:#E73E51;stroke-width:1.1285;stroke-linecap:round;stroke-linejoin:round;stroke-miterlimit:10;}
	.st8{fill:none;stroke:#EE4050;stroke-width:1.1285;stroke-linecap:round;stroke-linejoin:round;stroke-miterlimit:10;}
	.st9{fill:none;stroke:#FFFFFF;stroke-width:0.574;stroke-linecap:round;stroke-linejoin:round;stroke-miterlimit:10;}
	.st10{fill:none;stroke:#A491C4;stroke-width:0.5657;stroke-miterlimit:10;}
	.st11{fill:none;stroke:#F7F8F9;stroke-width:1.2708;stroke-miterlimit:10;}
	.st12{fill:url(#SVGID_3_);}
	.st13{fill:#9289C1;}
	.st14{fill:#F79F7C;}
	.st15{fill:#EF619B;}
	.st16{fill:#F28BB9;}
	.st17{fill:#FABEA9;}
	.st18{fill:#F37B8A;}
	.st19{fill:none;stroke:#633493;stroke-width:5.1599;stroke-linecap:round;stroke-linejoin:round;stroke-miterlimit:10;}
	.st20{fill:none;stroke:#FFFFFF;stroke-width:1.0098;stroke-linecap:round;stroke-linejoin:round;stroke-miterlimit:10;}
	.st21{fill:none;stroke:#662F8F;stroke-width:1.5111;stroke-linecap:round;stroke-linejoin:round;stroke-miterlimit:10;}
	.st22{fill:none;stroke:#662F8F;stroke-width:1.6611;stroke-linecap:round;stroke-linejoin:round;stroke-miterlimit:10;}
	.st23{fill:none;stroke:#662F8F;stroke-width:0.75;stroke-miterlimit:10;}
</style>
<g>
	<path class="st0" d="M-463.7-188.7c9.6-9.6,22.8-15.5,37.3-15.5"/>
	<path class="st0" d="M-449.3-174.3c5.9-5.9,14-9.5,23-9.5"/>
	<path class="st0" d="M-492.5-217.4c17.7-17.7,41.2-27.4,66.1-27.4c25,0,48.4,9.7,66.1,27.4"/>
	<path class="st0" d="M-374.6-203c-13.3-13.3-31.6-21.5-51.7-21.5c-20.2,0-38.5,8.2-51.7,21.5"/>
	<path class="st0" d="M-389-188.7c-9.6-9.6-22.8-15.5-37.3-15.5"/>
	<path class="st0" d="M-403.4-174.3c-5.9-5.9-14-9.5-23-9.5"/>
	<path class="st0" d="M-417.8-142.8c-2.2,2.2-5.2,3.5-8.6,3.5c-6.7,0-12.1-5.4-12.1-12.1c0-6.7,5.4-12.1,12.1-12.1
		c3.3,0,6.4,1.4,8.6,3.5"/>
	<path class="st0" d="M-374.6-203c4,4,4,10.4,0,14.4c-4,4-10.4,4-14.4,0"/>
	<path class="st0" d="M-449.3-174.3c-4,4-10.4,4-14.4,0c-4-4-4-10.4,0-14.4"/>
	<path class="st0" d="M-403.4-174.3c4,4,4,10.4,0,14.4s-10.4,4-14.4,0"/>
	<path class="st0" d="M-478.1-203c-4,4-10.4,4-14.4,0c-4-4-4-10.4,0-14.4"/>
</g>
<g>
	<path class="st1" d="M-280.6-254.6c-28.7,0-52,23.3-52,52s23.3,52,52,52s52-23.3,52-52S-251.9-254.6-280.6-254.6z M-280.6-154.2
		c-26.6,0-48.3-21.7-48.3-48.3s21.7-48.3,48.3-48.3s48.3,21.7,48.3,48.3S-253.9-154.2-280.6-154.2z"/>
	<path class="st1" d="M-244-208.4c-4.8-4.7-10.4-8.3-16.4-10.7c0-0.3,0.1-0.7,0.1-1c0-11.1-9-20.2-20.2-20.2s-20.2,9-20.2,20.2
		c0,0.6,0,1.1,0.1,1.7c-5.5,2.4-10.5,5.8-14.9,10.1c0,0-0.1,0.1-0.1,0.1c-1.2,1.2-1.8,2.8-1.8,4.5c0,1.7,0.7,3.4,1.9,4.6
		c2.6,2.5,6.7,2.5,9.3,0c0,0,0,0,0,0c3.2-3.1,6.8-5.6,10.8-7.4c2.3,2.5,5.2,4.5,8.5,5.5c-5,1.2-9.6,3.7-13.4,7.4
		c0,0-0.1,0.1-0.1,0.1c-1.3,1.2-1.9,2.9-1.9,4.6c0,1.7,0.7,3.4,1.9,4.6c2.6,2.5,6.7,2.5,9.3,0c0,0,0,0,0,0h0c3-2.9,7-4.5,11.3-4.5
		c4.3,0,8.3,1.6,11.3,4.5c0,0,0,0,0,0c0.8,0.8,1.2,1.8,1.2,2.8c0,1.1-0.4,2.1-1.2,2.8c-1.6,1.6-4.3,1.6-5.9,0c0,0-0.1-0.1-0.1-0.1
		c-1.4-1.3-3.3-2.1-5.3-2.1c-4.2,0-7.6,3.3-7.6,7.5c0,4.1,3.4,7.5,7.6,7.5c2,0,3.9-0.8,5.4-2.2c0.5-0.5,0.5-1.3,0-1.7
		c-0.5-0.5-1.3-0.5-1.7,0c-1,1-2.3,1.5-3.7,1.5c-2.8,0-5.2-2.2-5.2-5c0-2.8,2.3-5,5.2-5c1.4,0,2.7,0.5,3.7,1.5c0,0,0.1,0.1,0.1,0.1
		c2.6,2.4,6.7,2.4,9.2-0.1c1.3-1.2,1.9-2.9,1.9-4.6s-0.7-3.4-1.9-4.6c0,0,0,0,0,0c-3.5-3.4-8.1-5.2-13-5.2c-4.9,0-9.5,1.9-13,5.2
		c0,0,0,0,0,0c-1.6,1.6-4.3,1.6-5.9,0c-0.8-0.8-1.2-1.8-1.2-2.8c0-1,0.4-2,1.1-2.7c0,0,0.1-0.1,0.1-0.1c5-4.9,11.7-7.6,18.8-7.6
		c7.1,0,13.8,2.7,18.8,7.6c0,0,0,0,0,0c2.6,2.5,6.7,2.5,9.3,0c1.3-1.2,1.9-2.9,1.9-4.6c0-1.7-0.7-3.4-1.9-4.6c0,0,0,0,0,0
		c-3.6-3.5-7.7-6.2-12.1-8.1c1.5-2.2,2.5-4.8,3-7.5c5.5,2.3,10.6,5.7,15,9.9c0.5,0.5,1.3,0.5,1.7,0
		C-243.5-207.2-243.5-207.9-244-208.4z M-308-201C-308-201-308-201-308-201c-1.6,1.6-4.3,1.6-5.9,0c-0.8-0.8-1.2-1.8-1.2-2.8
		c0-1.1,0.4-2.1,1.2-2.8c0,0,0.1-0.1,0.1-0.1c4-3.9,8.5-6.9,13.5-9.2c0.6,2.7,1.7,5.2,3.3,7.4C-301-206.7-304.7-204.1-308-201z
		 M-253.4-199.2C-253.4-199.2-253.4-199.2-253.4-199.2c0.8,0.8,1.2,1.8,1.2,2.8c0,1.1-0.4,2.1-1.2,2.8c-1.6,1.6-4.3,1.6-5.9,0
		c0,0,0,0,0,0c-4-3.9-9-6.5-14.4-7.7c3.3-1.2,6.1-3.2,8.4-5.8C-260.9-205.3-256.8-202.6-253.4-199.2z M-280.6-202.5
		c-9.8,0-17.7-7.9-17.7-17.7c0-9.8,7.9-17.7,17.7-17.7s17.7,7.9,17.7,17.7C-262.9-210.4-270.8-202.5-280.6-202.5z"/>
	<path class="st1" d="M-288.2-221.5h-1.9l0.1-3.7h5.6v-1.5h-7.1l-0.2,6.6h2.9c2.5,0,3.4,1.1,3.4,2.5c0,1.4-1,2.5-2.8,2.5
		c-1.3,0-2.5-0.6-3.4-1.6l-1,1c1.1,1.3,2.6,2,4.4,2c2.4,0,4.5-1.5,4.5-4.2C-283.7-219.7-285.2-221.5-288.2-221.5z"/>
	<path class="st1" d="M-274.2-220.6v1.5h3.9c-0.3,2.5-1.9,4.1-4.5,4.1c-2.8,0-4.9-2.1-4.9-5.1c0-3,2.2-5.1,5-5.1
		c1.6,0,2.9,0.7,3.8,1.7l1.2-1.2c-1.2-1.3-3-2.1-5-2.1c-3.9,0-6.7,2.8-6.7,6.7c0,4.2,3.2,6.7,6.6,6.7c3.9,0,6.3-3,6.3-6.7
		c0-0.1,0-0.3,0-0.4H-274.2z"/>
</g>
<g>
	<line class="st2" x1="-148.7" y1="-168.9" x2="-148.7" y2="-160.2"/>
	<path class="st2" d="M-162.4-160.2c-2.8,0-5.2-2.3-5.2-5.2v-77.8c0-2.8,2.3-5.2,5.2-5.2h69.9c2.8,0,5.2,2.3,5.2,5.2v77.8
		c0,2.8-2.3,5.2-5.2,5.2h-56.2"/>
	<path class="st2" d="M-148.7-168.9h-5c-2.8,0-5.2-2.3-5.2-5.2v-60.4c0-2.8,2.3-5.2,5.2-5.2h10.1c2.8,0,5.2,2.3,5.2,5.2v60.4"/>
	<g>
		<g>
			<circle class="st2" cx="-126.7" cy="-219.1" r="3.8"/>
			<circle class="st2" cx="-112.8" cy="-219.1" r="3.8"/>
			<circle class="st2" cx="-98.9" cy="-219.1" r="3.8"/>
			<circle class="st2" cx="-126.7" cy="-205.2" r="3.8"/>
			<circle class="st2" cx="-112.8" cy="-205.2" r="3.8"/>
			<circle class="st2" cx="-98.9" cy="-205.2" r="3.8"/>
			<circle class="st2" cx="-126.7" cy="-191.3" r="3.8"/>
			<circle class="st2" cx="-112.8" cy="-191.3" r="3.8"/>
			<circle class="st2" cx="-98.9" cy="-191.3" r="3.8"/>
			<circle class="st2" cx="-126.7" cy="-177.4" r="3.8"/>
			<circle class="st2" cx="-112.8" cy="-177.4" r="3.8"/>
			<circle class="st2" cx="-98.9" cy="-177.4" r="3.8"/>
		</g>
		<line class="st2" x1="-130.5" y1="-235" x2="-95.2" y2="-235"/>
	</g>
</g>
<g>
	<path class="st3" d="M-231.3-56.5v-1c0-2.7-2.1-4.9-4.8-5c-2.8-0.1-5.1,2.2-5.1,4.9l0,3.8h10.9c0.7,0,1.3,0.6,1.3,1.3v8.6
		c0,0.7-0.6,1.3-1.3,1.3h-2.7c-0.5,0-1-0.4-1.1-0.9l-0.8-3.2v0c0.6-0.5,0.9-1.2,0.8-2.1c-0.1-1-1-1.7-1.9-1.9
		c-1.3-0.1-2.5,0.9-2.5,2.2c0,0.7,0.3,1.3,0.8,1.7h0c0,0-0.5,2-0.8,3.2c-0.1,0.5-0.6,0.9-1.1,0.9h-2.7c-0.7,0-1.3-0.6-1.3-1.3v-8.6"
		/>
</g>
<g>
	<circle class="st4" cx="-113.1" cy="-49.2" r="23"/>
	<path class="st5" d="M-136.3-49.2l23.2-0.1 M-113.1-49.4v-23.1V-49.4z M-101.5-49.4c0,6.4-5.2,11.6-11.6,11.6
		c-6.4,0-11.7-5.2-11.7-11.6c0-6.4,5.2-11.6,11.7-11.6C-106.7-61-101.5-55.8-101.5-49.4z M-95.9-49.4c0,9.5-7.7,17.3-17.3,17.3
		c-9.5,0-17.3-7.7-17.3-17.3c0-9.5,7.7-17.3,17.3-17.3C-103.6-66.6-95.9-58.9-95.9-49.4z"/>
	<path class="st6" d="M-128.8-54.6c1.2,0,2.2-1,2.2-2.2c0-1.2-1-2.2-2.2-2.2c-1.2,0-2.2,1-2.2,2.2C-131-55.6-130-54.6-128.8-54.6"/>
</g>
<g>
	<circle class="st4" cx="-171.5" cy="-48.8" r="23"/>
	<path class="st5" d="M-160.7-56.1l7.1,7.2 M-160.7-56.1l-7.1,10.3 M-174.8-41.6l7.1-4.2 M-174.8-41.6l-7.1-9.5 M-188.9-46.2
		l7.1-4.9"/>
	<path class="st6" d="M-184-51.1c0-1.2,1-2.1,2.1-2.1c1.2,0,2.1,1,2.1,2.1c0,1.2-1,2.1-2.1,2.1C-183.1-49-184-50-184-51.1"/>
	<path class="st6" d="M-177-41.6c0-1.2,1-2.1,2.1-2.1c1.2,0,2.1,1,2.1,2.1c0,1.2-1,2.1-2.1,2.1C-176-39.5-177-40.5-177-41.6"/>
	<path class="st6" d="M-169.9-45.8c0-1.2,1-2.1,2.1-2.1c1.2,0,2.1,1,2.1,2.1c0,1.2-1,2.1-2.1,2.1C-169-43.7-169.9-44.6-169.9-45.8"
		/>
	<path class="st6" d="M-162.9-56.1c0-1.2,1-2.1,2.1-2.1s2.1,1,2.1,2.1c0,1.2-1,2.1-2.1,2.1S-162.9-54.9-162.9-56.1"/>
	<path class="st6" d="M-156-49c0-1.2,1-2.1,2.1-2.1s2.1,1,2.1,2.1c0,1.2-1,2.1-2.1,2.1S-156-47.9-156-49"/>
	<path class="st6" d="M-190.8-46.4c0-1.2,1-2.1,2.1-2.1s2.1,1,2.1,2.1c0,1.2-1,2.1-2.1,2.1S-190.8-45.2-190.8-46.4"/>
</g>
<g>
	<circle class="st4" cx="-63.3" cy="-89.5" r="23"/>
	<g>
		<defs>
			<path id="SVGID_1_" d="M-87.2-89.7c0,12.4,9.6,22.6,21.8,23.5h3.6C-50-67.1-40.7-76.6-40-88.4v-2.7c-0.7-12.4-11-22.2-23.6-22.2
				C-76.6-113.3-87.2-102.7-87.2-89.7"/>
		</defs>
		<clipPath id="SVGID_2_">
			<use xlink:href="#SVGID_1_"  style="overflow:visible;"/>
		</clipPath>
		<path class="st7" d="M-40.6-58.2h-12.1c-0.5,0-0.9-0.4-0.9-0.9v-5.2c0-0.5,0.4-0.9,0.9-0.9h12.1c0.5,0,0.9,0.4,0.9,0.9v5.2
			C-39.6-58.6-40-58.2-40.6-58.2z M-54.6-58.2h-12.1c-0.5,0-0.9-0.4-0.9-0.9v-5.2c0-0.5,0.4-0.9,0.9-0.9h12.1c0.5,0,0.9,0.4,0.9,0.9
			v5.2C-53.6-58.6-54-58.2-54.6-58.2z M-68.4-58.2h-12.1c-0.5,0-0.9-0.4-0.9-0.9v-5.2c0-0.5,0.4-0.9,0.9-0.9h12.1
			c0.5,0,0.9,0.4,0.9,0.9v5.2C-67.5-58.6-67.9-58.2-68.4-58.2z M-82.4-58.2h-12.1c-0.5,0-0.9-0.4-0.9-0.9v-5.2
			c0-0.5,0.4-0.9,0.9-0.9h12.1c0.5,0,0.9,0.4,0.9,0.9v5.2C-81.5-58.6-81.9-58.2-82.4-58.2z M-33.3-65.2h-12.1
			c-0.5,0-0.9-0.4-0.9-0.9v-5.2c0-0.5,0.4-0.9,0.9-0.9h12.1c0.5,0,0.9,0.4,0.9,0.9v5.2C-32.4-65.6-32.8-65.2-33.3-65.2z M-47.3-65.2
			h-12.1c-0.5,0-0.9-0.4-0.9-0.9v-5.2c0-0.5,0.4-0.9,0.9-0.9h12.1c0.5,0,0.9,0.4,0.9,0.9v5.2C-46.4-65.6-46.8-65.2-47.3-65.2z
			 M-61.2-65.2h-12.1c-0.5,0-0.9-0.4-0.9-0.9v-5.2c0-0.5,0.4-0.9,0.9-0.9h12.1c0.5,0,0.9,0.4,0.9,0.9v5.2
			C-60.2-65.6-60.7-65.2-61.2-65.2z M-75.2-65.2h-12.1c-0.5,0-0.9-0.4-0.9-0.9v-5.2c0-0.5,0.4-0.9,0.9-0.9h12.1
			c0.5,0,0.9,0.4,0.9,0.9v5.2C-74.2-65.6-74.7-65.2-75.2-65.2z M-40.6-72.3h-12.1c-0.5,0-0.9-0.4-0.9-0.9v-5.2
			c0-0.5,0.4-0.9,0.9-0.9h12.1c0.5,0,0.9,0.4,0.9,0.9v5.2C-39.6-72.8-40-72.3-40.6-72.3z M-54.6-72.3h-12.1c-0.5,0-0.9-0.4-0.9-0.9
			v-5.2c0-0.5,0.4-0.9,0.9-0.9h12.1c0.5,0,0.9,0.4,0.9,0.9v5.2C-53.6-72.8-54-72.3-54.6-72.3z M-68.4-72.3h-12.1
			c-0.5,0-0.9-0.4-0.9-0.9v-5.2c0-0.5,0.4-0.9,0.9-0.9h12.1c0.5,0,0.9,0.4,0.9,0.9v5.2C-67.5-72.8-67.9-72.3-68.4-72.3z M-82.4-72.3
			h-12.1c-0.5,0-0.9-0.4-0.9-0.9v-5.2c0-0.5,0.4-0.9,0.9-0.9h12.1c0.5,0,0.9,0.4,0.9,0.9v5.2C-81.5-72.8-81.9-72.3-82.4-72.3z
			 M-33.3-79.4h-12.1c-0.5,0-0.9-0.4-0.9-0.9v-5.2c0-0.5,0.4-0.9,0.9-0.9h12.1c0.5,0,0.9,0.4,0.9,0.9v5.2
			C-32.4-79.8-32.8-79.4-33.3-79.4z M-47.3-79.4h-12.1c-0.5,0-0.9-0.4-0.9-0.9v-5.2c0-0.5,0.4-0.9,0.9-0.9h12.1
			c0.5,0,0.9,0.4,0.9,0.9v5.2C-46.4-79.8-46.8-79.4-47.3-79.4z M-61.2-79.4h-12.1c-0.5,0-0.9-0.4-0.9-0.9v-5.2
			c0-0.5,0.4-0.9,0.9-0.9h12.1c0.5,0,0.9,0.4,0.9,0.9v5.2C-60.2-79.8-60.7-79.4-61.2-79.4z M-75.2-79.4h-12.1
			c-0.5,0-0.9-0.4-0.9-0.9v-5.2c0-0.5,0.4-0.9,0.9-0.9h12.1c0.5,0,0.9,0.4,0.9,0.9v5.2C-74.2-79.8-74.7-79.4-75.2-79.4z M-40.6-86.5
			h-12.1c-0.5,0-0.9-0.4-0.9-0.9v-5.2c0-0.5,0.4-0.9,0.9-0.9h12.1c0.5,0,0.9,0.4,0.9,0.9v5.2C-39.6-86.9-40-86.5-40.6-86.5z
			 M-54.6-86.5h-12.1c-0.5,0-0.9-0.4-0.9-0.9v-5.2c0-0.5,0.4-0.9,0.9-0.9h12.1c0.5,0,0.9,0.4,0.9,0.9v5.2
			C-53.6-86.9-54-86.5-54.6-86.5z M-68.4-86.5h-12.1c-0.5,0-0.9-0.4-0.9-0.9v-5.2c0-0.5,0.4-0.9,0.9-0.9h12.1c0.5,0,0.9,0.4,0.9,0.9
			v5.2C-67.5-86.9-67.9-86.5-68.4-86.5z M-82.4-86.5h-12.1c-0.5,0-0.9-0.4-0.9-0.9v-5.2c0-0.5,0.4-0.9,0.9-0.9h12.1
			c0.5,0,0.9,0.4,0.9,0.9v5.2C-81.5-86.9-81.9-86.5-82.4-86.5z"/>
	</g>
</g>
<circle class="st4" cx="-1.5" cy="-64.1" r="23"/>
<path class="st8" d="M-1.4-54.9C-2.6-55.4-7-57.5-7-62v-6.8c2.6-0.1,4.7-1,5.6-1.5c0.9,0.5,3,1.4,5.6,1.5v6.8
	C4.3-57.5-0.2-55.4-1.4-54.9z"/>
<path class="st8" d="M1-60h-4.8v-3.5H1V-60z M-2.9-63.5v-1.4c0-0.8,0.7-1.5,1.5-1.5c0.8,0,1.5,0.7,1.5,1.5v1.4"/>
<path class="st8" d="M12.3-71l0-1.4c0-0.5-0.4-0.9-0.9-0.9l-12.3,0.1l-3.6-3.6l-8.6,0c-1,0-1.9,0.9-1.9,1.9l0.1,22.7h27.2V-71z"/>
<g>
	<circle class="st4" cx="64.8" cy="-59.6" r="23"/>
	<path class="st8" d="M75.2-50.9c0,1.8-1.5,3.3-3.3,3.3c-1.8,0-3.3-1.5-3.3-3.3c0-1.8,1.5-3.3,3.3-3.3
		C73.7-54.2,75.2-52.7,75.2-50.9z M71.1-51.8l0.8,2l1.5-3.9 M56-54.8h9.1 M56-57.6h14.7 M56-60.4h14.7 M56-63.3h14.7 M56-66.1h9.9
		 M56-68.9h9.9 M70.6-74.6h6.9v29.8H52.3v-29.8H70.6z"/>
</g>
<circle class="st4" cx="127.5" cy="-55.2" r="23"/>
<path class="st8" d="M127.3-50v1.1 M127.3-60.8v7.2 M127.3-69.3l-13.9,24.2h27.9L127.3-69.3z"/>
<circle class="st4" cx="201.1" cy="-54.9" r="23"/>
<path class="st8" d="M201.1-37.5c-2.4-1-11.4-5.4-11.4-14.4v-13.7c5.3-0.1,9.6-2,11.4-3c1.8,1,6,2.8,11.4,3v13.7
	C212.5-42.9,203.5-38.5,201.1-37.5z"/>
<path class="st8" d="M205.9-47.8h-9.8v-7.1h9.8V-47.8z M198-54.9v-2.8c0-1.6,1.3-3,3-3c1.6,0,3,1.3,3,3v2.8"/>
<g>
	<path class="st0" d="M326.9-76.9v-5.9c0-16.5-12.9-30.4-29.4-30.8c-17.1-0.5-31.1,13.2-31.1,30.2l0,23.2h67.2
		c4.2,0,7.7,3.5,7.7,7.7V0.5c0,4.2-3.5,7.7-7.7,7.7c0,0-10.2,0-16.8,0c-3.3,0-6.2-2.3-7-5.5l-4.8-19.9l0,0c3.6-2.9,5.8-7.6,5-12.7
		c-0.9-6-5.8-10.7-11.8-11.4c-8.2-0.9-15.1,5.5-15.1,13.5c0,4.3,2,8.2,5.2,10.6l0,0c0,0-3,12.4-4.8,19.9c-0.8,3.2-3.7,5.5-7,5.5
		h-16.8c-4.2,0-7.7-3.5-7.7-7.7v-53.1"/>
</g>
<g>
	<path class="st9" d="M202.5,12.2c1.7,0.6,3.7,0.2,5-1.1c1.4-1.4,1.7-3.3,1.1-5l-2.4,2.4c-0.3,0.3-0.8,0.3-1.1,0l-1.8-1.8
		c-0.3-0.3-0.3-0.8,0-1.1l2.4-2.4c-1.7-0.6-3.7-0.2-5,1.1c-1.4,1.4-1.7,3.3-1.1,5l-7.4,7.4c-1.7-0.6-3.7-0.2-5,1.1
		c-1.4,1.4-1.7,3.3-1.1,5l2.4-2.4c0.3-0.3,0.8-0.3,1.1,0l1.8,1.8c0.3,0.3,0.3,0.8,0,1.1l-2.4,2.4c1.7,0.6,3.7,0.2,5-1.1
		c1.4-1.4,1.7-3.3,1.1-5l2.2-2.2"/>
	<path class="st9" d="M197.3,17.4l-5.8-6.2c-1-1-2.7-1-3.7,0c-0.9,0.9-1,2.4-0.2,3.4l-2,1.3c0,0-3.2-4.8,0.5-8.5
		c1.3-1.3,2.5-2.5,3.6-3.6c0.3,0.1,0.7,0.1,1,0.2c0.3,0.1,0.6-0.2,0.5-0.5l-0.2-1l1.7-1.7l4.6,4.6L195.7,7c-0.5-0.5-1.3-0.5-1.7,0
		c-0.5,0.5-0.5,1.3,0,1.7l12.8,11.9c0.1,0.1,0.2,0.2,0.2,0.2c0.7,0.8,0.7,2,0.1,2.9c-0.9,1.1-2.5,1.2-3.5,0.3c0,0-0.1-0.1-0.1-0.1
		l-4.2-4.4"/>
</g>
<g>
	<path class="st10" d="M518.2,330.2c-16.8,29.7-59.2,67.7-114.4,99.6c-81.9,47.3-161,63.4-176.8,36c-7.4-12.7,0.3-32.6,18.8-55"/>
	<path class="st10" d="M465,283.6c29.3-5.1,50.9-1.9,58.3,11c2.6,4.5,3.3,10,2.3,16.1"/>
	<circle class="st10" cx="522.8" cy="320.8" r="10.5"/>
	<circle class="st10" cx="371.4" cy="352.4" r="132"/>
</g>
<image style="overflow:visible;" width="1600" height="700" xlink:href="../Dropbox (Muuaaa)/Muuaaa Team Folder/Graphic Design_Gabriel/Neptuno/02 Design/images/slide-22.jpg"  transform="matrix(0.4158 0 0 0.4158 81.2528 -162.2709)">
</image>
<image style="overflow:visible;" width="1078" height="516" xlink:href="datacenter-google-1078x516.jpg"  transform="matrix(1 0 0 1 207.578 -803.2423)">
</image>
<g>
	<g>
		<g>
			<path class="st11" d="M1101.8,299.1c7.8-13.2,12.3-28.7,12.3-45.2c0-49.1-39.8-88.9-88.9-88.9c-49.1,0-88.9,39.8-88.9,88.9
				c0,16,4.2,30.9,11.6,43.9"/>
			<path class="st11" d="M958.1,312.1c16.3,18.8,40.3,30.7,67.2,30.7c26.8,0,50.9-11.9,67.2-30.7"/>
			<rect x="952.7" y="308.9" class="st11" width="45.9" height="3.2"/>
			<g>
				<rect x="948" y="293.8" class="st11" width="55.3" height="15.1"/>
				<line class="st11" x1="952.6" y1="298" x2="952.6" y2="304.6"/>
				<line class="st11" x1="956.1" y1="298" x2="956.1" y2="304.6"/>
				<line class="st11" x1="959.5" y1="298" x2="959.5" y2="304.6"/>
				<line class="st11" x1="963" y1="298" x2="963" y2="304.6"/>
				<line class="st11" x1="966.5" y1="298" x2="966.5" y2="304.6"/>
				<line class="st11" x1="970" y1="298" x2="970" y2="304.6"/>
				<circle class="st11" cx="996.7" cy="301.3" r="2.3"/>
				<circle class="st11" cx="988.7" cy="301.3" r="2.3"/>
				<circle class="st11" cx="980.6" cy="301.3" r="2.3"/>
			</g>
			<path class="st11" d="M957.8,293.8v-19.6c0-1.2,1-2.2,2.2-2.2l0,0c1.2,0,2.2,1,2.2,2.2v19.6"/>
			<path class="st11" d="M951.9,261.8c2.1-2.1,5-3.4,8.1-3.4"/>
			<path class="st11" d="M954.1,265c1.5-1.5,3.6-2.4,5.9-2.4"/>
			<path class="st11" d="M956.4,268.2c0.9-0.9,2.2-1.5,3.6-1.5"/>
			<path class="st11" d="M968.2,261.8c-2.1-2.1-5-3.4-8.1-3.4"/>
			<path class="st11" d="M965.9,265c-1.5-1.5-3.6-2.4-5.9-2.4"/>
			<path class="st11" d="M963.7,268.2c-0.9-0.9-2.2-1.5-3.6-1.5"/>
			<path class="st11" d="M989.1,293.8v-19.6c0-1.2,1-2.2,2.2-2.2h0c1.2,0,2.2,1,2.2,2.2v19.6"/>
			<path class="st11" d="M983.2,261.8c2.1-2.1,5-3.4,8.1-3.4"/>
			<path class="st11" d="M985.4,265c1.5-1.5,3.6-2.4,5.9-2.4"/>
			<path class="st11" d="M987.7,268.2c0.9-0.9,2.2-1.5,3.6-1.5"/>
			<path class="st11" d="M999.4,261.8c-2.1-2.1-5-3.4-8.1-3.4"/>
			<path class="st11" d="M997.2,265c-1.5-1.5-3.6-2.4-5.9-2.4"/>
			<path class="st11" d="M995,268.2c-0.9-0.9-2.2-1.5-3.6-1.5"/>
			<rect x="1009.7" y="203.1" class="st11" width="42.5" height="105.8"/>
			<rect x="1015.2" y="208.6" class="st11" width="31.4" height="8.2"/>
			<rect x="1015.2" y="216.8" class="st11" width="31.4" height="8.2"/>
			<rect x="1015.2" y="225" class="st11" width="31.4" height="8.2"/>
			<rect x="1015.2" y="233.1" class="st11" width="31.4" height="8.2"/>
			<rect x="1015.2" y="241.3" class="st11" width="31.4" height="8.2"/>
			<rect x="1015.2" y="249.4" class="st11" width="31.4" height="8.2"/>
			<rect x="1015.2" y="275.7" class="st11" width="31.4" height="23.2"/>
			<circle class="st11" cx="1030.6" cy="287.3" r="2.8"/>
			<g>
				<rect x="1015.2" y="264.6" class="st11" width="18.6" height="4.1"/>
				<rect x="1042.5" y="264.6" class="st11" width="4.1" height="4.1"/>
			</g>
			<line class="st11" x1="1027.8" y1="287.3" x2="1015.2" y2="287.3"/>
			<line class="st11" x1="1033.5" y1="287.3" x2="1046.1" y2="287.3"/>
			<rect x="1009.7" y="308.9" class="st11" width="42.5" height="3.2"/>
			<circle class="st11" cx="1081.4" cy="281.3" r="11.7"/>
			<circle class="st11" cx="1081.4" cy="281.3" r="6.4"/>
			<circle class="st11" cx="1081.4" cy="281.3" r="2.6"/>
			<line class="st11" x1="1081.4" y1="293" x2="1081.4" y2="299.1"/>
			<g>
				<rect x="1058.5" y="299.1" class="st11" width="44.1" height="9.8"/>
				<line class="st11" x1="1091.9" y1="304" x2="1069.2" y2="304"/>
			</g>
			<rect x="1062.2" y="308.9" class="st11" width="36.7" height="3.2"/>
		</g>
	</g>
</g>
<g>
	<linearGradient id="SVGID_3_" gradientUnits="userSpaceOnUse" x1="1163.2969" y1="132.331" x2="1285.5347" y2="132.331">
		<stop  offset="0" style="stop-color:#C558A0"/>
		<stop  offset="0.5945" style="stop-color:#7F3E93"/>
		<stop  offset="1" style="stop-color:#532E8B"/>
	</linearGradient>
	<path class="st12" d="M1254.3,110.2l31.3,17.6l-61.4,34.6l-60.9-34.6l30.8-17.5C1212.8,99.7,1235.6,99.7,1254.3,110.2z"/>
	<path class="st13" d="M1163.3,127.8v3.6l59.9,34.7c0.4,0.2,0.8,0.2,1.1,0l61.2-34.7v-3.7l-61.4,34.6L1163.3,127.8z"/>
	<path class="st14" d="M1249.1,79.5l36.4,20.5l-61.4,34.6l-60.9-34.6l36-20.4C1214.7,70.8,1233.6,70.8,1249.1,79.5z"/>
	<path class="st15" d="M1250.8,54.6l34.8,19.6l-61.4,34.6l-60.9-34.6l34.3-19.5C1214.1,45.3,1234.2,45.3,1250.8,54.6z"/>
	<path class="st16" d="M1163.3,74.1l0.1,3.6l59.7,34.7c0.4,0.2,0.8,0.2,1.2,0l61.2-34.7v-3.6l-61.4,34.6L1163.3,74.1z"/>
	<path class="st17" d="M1163.3,100l0.1,3.6l59.7,34.7c0.4,0.2,0.9,0.2,1.3,0l61.1-34.7V100l-61.4,34.6L1163.3,100z"/>
</g>
<g>
	<g>
		<path class="st18" d="M1704.7,35.8l-76.2,129.5c-1.5,2.5,0.3,5.7,3.3,5.7h61.4c0.7,0,1.3,0.6,1.2,1.4l-13.6,101.2
			c-0.4,3.3,4,4.9,5.7,2l94.1-155.8c1.4-2.3-0.3-5.2-2.9-5.2h-74.4c-0.7,0-1.3-0.6-1.2-1.3l8-75.7
			C1710.4,34.5,1706.3,33.1,1704.7,35.8z"/>
	</g>
	<g>
		<g>
			<path class="st1" d="M1565.2,139.1c-28.5-17-50.1-44.3-59.4-76.2c-9.1-31-6.3-65.2,7.9-94.2c28.1-57.4,95.2-86.9,156.5-68.2
				c35.2,10.7,64.3,36.3,80.3,69.4c2,4.1,8.2,0.5,6.2-3.6c-14.9-30.8-40.8-55.3-72.4-68.3c-31.7-13-68.2-13.7-100.3-1.8
				c-29.8,11.1-55.3,32.3-71.4,59.7c-17.1,29-22.9,63.8-16.6,96.8c7.4,38.7,31.9,72.6,65.7,92.7
				C1565.5,147.7,1569.2,141.5,1565.2,139.1L1565.2,139.1z"/>
		</g>
	</g>
	<g>
		<g>
			<path class="st1" d="M1754.5-28.6c47.3-13.1,98.5,12.1,115.3,58.7c15.6,43.4-2.9,92.9-43.1,115.3c-25.3,14.1-55.7,15.3-82.5,4.6
				c-4.3-1.7-6.1,5.2-1.9,6.9c49.2,19.8,107.2-2.1,130.2-50.1c21.5-44.9,6.9-99.8-33.9-128.2c-25-17.4-56.8-22.2-86-14.1
				C1748.1-34.2,1750-27.3,1754.5-28.6L1754.5-28.6z"/>
		</g>
	</g>
	<g>
		<g>
			<path class="st1" d="M1746.3,155.2c9.8-16.3,19.7-32.6,29.5-48.9c1.4-2.3-0.4-5.4-3.1-5.4c-27.2,0-54.3,0-81.5,0
				c1.2,1.2,2.4,2.4,3.6,3.6c3.8-28.3,7.6-56.6,11.3-84.9c0.6-4.1,1.1-8.2,1.7-12.3c0.5-3.7-5-4.6-6.7-1.8
				c-10.1,17.3-20.1,34.5-30.2,51.8c-16.1,27.5-32.2,55.1-48.3,82.6c-3.7,6.4-7.5,12.8-11.2,19.2c-1.4,2.3,0.4,5.4,3.1,5.4
				c23,0,46.1,0,69.1,0c-1.2-1.2-2.4-2.4-3.6-3.6c-4.6,34.3-9.2,68.6-13.8,102.9c-0.6,4.8-1.3,9.6-1.9,14.4c-0.5,3.7,5,4.6,6.7,1.8
				c15.8-26.3,31.7-52.5,47.5-78.8c2.3-3.8,4.5-7.5,6.8-11.3c2.4-4-3.8-7.6-6.2-3.6c-15.8,26.3-31.7,52.5-47.5,78.8
				c-2.3,3.8-4.5,7.5-6.8,11.3c2.2,0.6,4.4,1.2,6.7,1.8c4.6-34.3,9.2-68.6,13.8-102.9c0.6-4.8,1.3-9.6,1.9-14.4
				c0.3-1.9-1.8-3.6-3.6-3.6c-23,0-46.1,0-69.1,0c1,1.8,2.1,3.6,3.1,5.4c10.1-17.3,20.1-34.5,30.2-51.8
				c16.1-27.5,32.2-55.1,48.3-82.6c3.7-6.4,7.5-12.8,11.2-19.2c-2.2-0.6-4.4-1.2-6.7-1.8c-3.8,28.3-7.6,56.6-11.3,84.9
				c-0.6,4.1-1.1,8.2-1.7,12.3c-0.3,1.9,1.8,3.6,3.6,3.6c27.2,0,54.3,0,81.5,0c-1-1.8-2.1-3.6-3.1-5.4
				c-9.8,16.3-19.7,32.6-29.5,48.9C1737.7,155.5,1743.9,159.1,1746.3,155.2L1746.3,155.2z"/>
		</g>
	</g>
</g>
<g>
	<g>
		<path class="st18" d="M2635.7,128h-73.2c-5.1,0-9.3,4.2-9.3,9.3V189c0,5.1,4.2,9.3,9.3,9.3h73.2c5.1,0,9.3-4.2,9.3-9.3v-51.7
			C2645,132.2,2640.8,128,2635.7,128z M2611,182.2c0.3,1.2-0.6,2.3-1.8,2.3h-20.1c-1.2,0-2.1-1.1-1.8-2.3l4.5-18.8
			c-2.8-2.2-4.7-5.6-4.7-9.5c0-7.5,6.8-13.4,14.6-11.8c4.7,1,8.4,4.8,9.2,9.5c0.9,4.8-1.1,9.1-4.5,11.8L2611,182.2z"/>
	</g>
</g>
<g>
	<path class="st18" d="M2710.7-23.5l-53.6,10.6c-0.6,0.1-1.3-0.1-1.7-0.6l-27.2-30.3c-1-1.1-0.4-2.8,1-3.1l73.9-14.6
		c1-0.2,2,0.5,2.2,1.5l6.9,34.3C2712.4-24.6,2711.7-23.7,2710.7-23.5z"/>
</g>
<g>
	<path class="st18" d="M2476.4-23.5l53.6,10.6c0.6,0.1,1.3-0.1,1.7-0.6l27.2-30.3c1-1.1,0.4-2.8-1-3.1l-73.9-14.6
		c-1-0.2-2,0.5-2.2,1.5l-6.9,34.3C2474.8-24.6,2475.4-23.7,2476.4-23.5z"/>
</g>
<g>
	<g>
		<path class="st18" d="M2683.2,45.2c-49.5,0-85.9-23.3-85.9-23.3s-36.4,23.3-85.9,23.3h-8.2v110.7c0,83.8,94.1,116.3,94.1,116.3
			s94.1-32.4,94.1-116.3V45.2H2683.2z M2678.5,155.8c0,63.9-64.1,95.2-81.3,102.4c-17.2-7.2-81.3-38.5-81.3-102.4V58
			c38.1-1,68.2-14.5,81.3-21.4c13,6.9,43.1,20.3,81.3,21.4V155.8z"/>
	</g>
</g>
<circle class="st19" cx="2501" cy="1.6" r="8.3"/>
<line class="st19" x1="2501" y1="-6.8" x2="2501" y2="-23.4"/>
<line class="st19" x1="2492.7" y1="1.6" x2="2421.7" y2="1.6"/>
<line class="st19" x1="2485.8" y1="-55.4" x2="2509.3" y2="-50.7"/>
<polyline class="st19" points="2549.4,-42.8 2558.4,-41 2555,-23.8 2535.8,-27.6 "/>
<polygon class="st19" points="2470.9,-29.4 2527.4,-18.2 2557.5,-51.8 2478.5,-67.4 "/>
<circle class="st19" cx="2686.1" cy="1.6" r="8.3"/>
<path class="st19" d="M2686.1-6.8v-16.7V-6.8z"/>
<path class="st19" d="M2694.5,1.6h71H2694.5z"/>
<line class="st19" x1="2701.3" y1="-55.4" x2="2677.8" y2="-50.7"/>
<polygon class="st19" points="2637.7,-42.8 2628.7,-41 2632.2,-23.8 2651.3,-27.6 "/>
<polygon class="st19" points="2716.2,-29.4 2659.8,-18.2 2629.6,-51.8 2708.6,-67.4 "/>
<path class="st19" d="M2665.1,217.2c63.4-27.6,107.7-90.9,107.7-164.5c0-99-80.3-179.3-179.3-179.3c-99,0-179.3,80.3-179.3,179.3
	c0,73.6,44.3,136.8,107.7,164.5"/>
<path class="st19" d="M2593.6,268.4c0,0,94.1-32.4,94.1-116.3V41.5h-8.2c-49.5,0-85.9-23.3-85.9-23.3s-36.4,23.3-85.9,23.3h-8.2
	v110.7C2499.4,236,2593.6,268.4,2593.6,268.4z"/>
<path class="st19" d="M2593.6,254.6c-17.2-7.2-81.3-38.5-81.3-102.4V54.2c38.1-1,68.2-14.5,81.3-21.4c13,6.9,43.1,20.3,81.3,21.4
	v97.9C2674.8,216.1,2610.8,247.3,2593.6,254.6z"/>
<path class="st19" d="M2630.1,192.7H2557c-5.1,0-9.3-4.2-9.3-9.3v-51.7c0-5.1,4.2-9.3,9.3-9.3h73.2c5.1,0,9.3,4.2,9.3,9.3v51.7
	C2639.4,188.6,2635.3,192.7,2630.1,192.7z"/>
<path class="st19" d="M2605.4,176.6l-4.5-18.8c3.4-2.6,5.4-7,4.5-11.8c-0.9-4.7-4.6-8.5-9.2-9.5c-7.8-1.6-14.6,4.3-14.6,11.8
	c0,3.9,1.9,7.3,4.7,9.5l-4.5,18.8c-0.3,1.2,0.6,2.3,1.8,2.3h20.1C2604.8,178.9,2605.7,177.8,2605.4,176.6z"/>
<path class="st19" d="M2624.6,122.4c0,0,0-23.8,0-23.8c0-17.1-13.9-31-31-31c-17.1,0-31,13.9-31,31v23.8H2624.6z"/>
<path class="st19" d="M3087.1,217.2c63.4-27.6,107.7-90.9,107.7-164.5c0-99-80.3-179.3-179.3-179.3c-99,0-179.3,80.3-179.3,179.3
	c0,73.6,44.3,136.8,107.7,164.5"/>
<g>
	<path class="st19" d="M3063.9,42.1c15,5.4,32.4,2.1,44.4-9.9s15.3-29.4,9.9-44.4l-21.3,21.3c-2.7,2.7-7,2.7-9.7,0l-15.9-15.9
		c-2.7-2.7-2.7-7,0-9.7l21.3-21.3c-15-5.4-32.4-2.1-44.4,9.9s-15.3,29.4-9.9,44.4l-65,65c-15-5.4-32.4-2.1-44.4,9.9
		s-15.3,29.4-9.9,44.4l21.3-21.3c2.7-2.7,7-2.7,9.7,0l15.9,15.9c2.7,2.7,2.7,7,0,9.7l-21.3,21.3c15,5.4,32.4,2.1,44.4-9.9
		c12-12,15.3-29.4,9.9-44.4l19.2-19.2"/>
	<path class="st19" d="M3018,87.9l-50.9-54.6c-8.9-8.9-23.4-8.9-32.4,0c-8.2,8.2-8.9,21.2-1.9,30.2L2915,74.7c0,0-28.2-42.3,4-74.5
		c11.2-11.2,22.2-22.2,31.5-31.5c3,0.5,6.3,1.1,9.1,1.5c2.8,0.5,5.2-1.9,4.7-4.7l-1.5-9.1l14.6-14.6l40.7,40.7l-14.4,14.4
		c-4.2-4.2-11.1-4.2-15.4,0c-4.2,4.2-4.2,11.1,0,15.4L3101,117.3c0.8,0.7,1.5,1.4,2.2,2.2c6.1,7.1,6.5,17.9,0.8,25.4
		c-7.6,10.1-22.1,10.9-30.7,2.2c-0.3-0.3-0.7-0.7-1-1.1l-36.5-39.2"/>
</g>
<g>
	<path class="st19" d="M3484,119.9l-19.2,19.2c5.4,15,2.1,32.4-9.9,44.4c-12,12-29.4,15.3-44.4,9.9l21.3-21.3c2.7-2.7,2.7-7,0-9.7
		l-15.9-15.9c-2.7-2.7-7-2.7-9.7,0l-21.3,21.3c-5.4-15-2.1-32.4,9.9-44.4s29.4-15.3,44.4-9.9l65-65c-5.4-15-2.1-32.4,9.9-44.4
		s29.4-15.3,44.4-9.9l-21.3,21.3c-2.7,2.7-2.7,7,0,9.7l15.9,15.9c2.7,2.7,7,2.7,9.7,0l21.3-21.3c5.4,15,2.1,32.4-9.9,44.4
		s-29.4,15.3-44.4,9.9"/>
	<path class="st19" d="M3484,119.9l-50.9-54.6c-8.9-8.9-23.4-8.9-32.4,0c-8.2,8.2-8.9,21.2-1.9,30.2l-17.9,11.2
		c0,0-28.2-42.3,4-74.5c11.2-11.2,22.2-22.2,31.5-31.5c3,0.5,6.3,1.1,9.1,1.5c2.8,0.5,5.2-1.9,4.7-4.7l-1.5-9.1l14.6-14.6l40.7,40.7
		l-14.4,14.4c-4.2-4.2-11.1-4.2-15.4,0c-4.2,4.2-4.2,11.1,0,15.4L3567,149.3c0.8,0.7,1.5,1.4,2.2,2.2c6.1,7.1,6.5,17.9,0.8,25.4
		c-7.6,10.1-22.1,10.9-30.7,2.2c-0.3-0.3-0.7-0.7-1-1.1l-36.5-39.2l-0.7,81.4c-64.4,25.3-133,9.1-185.1-42.9
		c-70-70-70-183.6,0-253.6s183.6-70,253.6,0c52,52,65.4,128.1,40.1,192.5"/>
</g>
<g>
	<path class="st20" d="M-103,81.7v-1.3c0-0.5-0.4-0.9-0.9-0.9h-11.8l-3.5-3.5h-8.3c-1,0-1.8,0.8-1.8,1.8v21.8l5.5-15
		c0.1-0.4,0.5-0.6,0.9-0.6h21.7c0.6,0,1.1,0.6,0.9,1.2l-5,13.8c-0.1,0.4-0.5,0.6-0.9,0.6h-19.9"/>
</g>
<g>
	<path class="st21" d="M-175.3,95.1c-5.1-3-8.6-8.6-8.6-15c0-9.6,7.8-17.5,17.5-17.5c7,0,13,4.1,15.8,9.9"/>
	<path class="st21" d="M-150.7,72.6c1.1-0.3,2.3-0.5,3.5-0.5c7,0,12.7,5.7,12.7,12.7s-5.7,12.7-12.7,12.7c-1.7,0-3.4-0.3-4.9-1"/>
	<polyline class="st21" points="-152,96.6 -148.2,90.3 -158.7,90.3 -157.1,77.7 -168.7,97.6 -159.7,97.6 -161.7,112.7 -154.7,101.1 
			"/>
</g>
<g>
	<path class="st22" d="M-78.5,87.8c-6.9,0-12.5-5.6-12.5-12.5c0-5,2.9-9.3,7.1-11.3"/>
	<path class="st22" d="M-83.9,64c-0.1-0.4-0.1-0.8-0.1-1.2c0-4.5,3.6-8.1,8.1-8.1c1.7,0,3.2,0.5,4.5,1.4"/>
	<path class="st22" d="M-71.3,56c3-4.6,8.2-7.6,14.1-7.6c9.2,0,16.7,7.4,16.9,16.5"/>
	<path class="st22" d="M-40.3,64.9c5.1,1.2,8.9,5.8,8.9,11.3c0,6.4-5.2,11.6-11.6,11.6"/>
	<path class="st22" d="M-71.8,87.9c0-5.9,4.7-10.6,10.6-10.6s10.6,4.7,10.6,10.6s-4.7,10.6-10.6,10.6"/>
	<line class="st22" x1="-78.5" y1="87.8" x2="-71.8" y2="87.8"/>
	<path class="st22" d="M-69.2,87.8c1.4,0,2.6,1.2,2.6,2.6s-1.2,2.6-2.6,2.6s-2.6-1.2-2.6-2.6"/>
	<line class="st22" x1="-71.8" y1="87.9" x2="-71.8" y2="90.4"/>
	<line class="st22" x1="-69.2" y1="87.8" x2="-71.8" y2="87.8"/>
	<line class="st22" x1="-63.2" y1="98.4" x2="-60.8" y2="101.3"/>
	<line class="st22" x1="-63.2" y1="98.4" x2="-60.8" y2="95.5"/>
</g>
<g>
	<path class="st23" d="M-125.5,131c-0.2-1.5,0.4-2.3,0.4-2.3c0.7-0.7,2.4-2.4,2.4-2.4l3.9,3.9l-2.2,2.4c0,0,0.8,1.6,2.7,3.5
		c1.9,1.9,3.5,2.7,3.5,2.7l2.4-2.2l3.9,3.9"/>
	<path class="st23" d="M-124.3,123.7c2.2-4.8,7.1-8.2,12.7-8.2c7.7,0,14,6.3,14,14c0,7.7-6.3,14-14,14c-0.4,0-0.7,0-1.1,0"/>
	<g>
		<line class="st23" x1="-104.9" y1="121.7" x2="-109.4" y2="133.9"/>
		<polyline class="st23" points="-104.7,128.5 -101.2,128.5 -103.6,133.9 		"/>
		<g>
			<polyline class="st23" points="-110.2,127.1 -110.2,121.7 -113,125.6 -109.3,125.6 			"/>
			<path class="st23" d="M-114.3,127.1h-3.3l2.6-2.9c0.3-0.3,0.4-0.6,0.4-1c0-0.8-0.7-1.5-1.5-1.5c-0.8,0-1.5,0.7-1.5,1.5"/>
		</g>
	</g>
	<line class="st23" x1="-124.3" y1="123.7" x2="-125.1" y2="121.5"/>
	<line class="st23" x1="-124.3" y1="123.7" x2="-122" y2="123.2"/>
	<path class="st23" d="M-112.7,143.4c-6.7-0.5-12.1-5.8-12.8-12.4"/>
</g>
<circle class="st4" cx="23.8" cy="23.8" r="23"/>
<path class="st8" d="M22.4,36.1h-0.5 M24.7,36.1h-0.5 M35.7,38.7H11.9c-1,0-1.7-0.8-1.7-1.7v-1.6c0-1,0.8-1.7,1.7-1.7h23.7
	c1,0,1.7,0.8,1.7,1.7v1.6C37.4,37.9,36.6,38.7,35.7,38.7z M22.4,31h-0.5 M24.7,31h-0.5 M22.4,26h-0.5 M24.7,26h-0.5 M22.4,20.9h-0.5
	 M24.7,20.9h-0.5 M22.4,15.8h-0.5 M24.7,15.8h-0.5 M35.7,33.6H11.9c-1,0-1.7-0.8-1.7-1.7v-1.6c0-1,0.8-1.7,1.7-1.7h23.7
	c1,0,1.7,0.8,1.7,1.7v1.6C37.4,32.8,36.6,33.6,35.7,33.6z M36.7,13.6l-5.3-4.2C31.1,9.1,30.7,9,30.3,9H17.3c-0.4,0-0.8,0.1-1.1,0.4
	l-5.3,4.2 M35.7,18.3H11.9c-1,0-1.7-0.8-1.7-1.7V15c0-1,0.8-1.7,1.7-1.7h23.7c1,0,1.7,0.8,1.7,1.7v1.6
	C37.4,17.5,36.6,18.3,35.7,18.3z M35.7,18.3H11.9c-1,0-1.7,0.8-1.7,1.7v1.6c0,1,0.8,1.7,1.7,1.7h23.7c1,0,1.7-0.8,1.7-1.7v-1.6
	C37.4,19.1,36.6,18.3,35.7,18.3z M35.7,28.5H11.9c-1,0-1.7-0.8-1.7-1.7v-1.6c0-1,0.8-1.7,1.7-1.7h23.7c1,0,1.7,0.8,1.7,1.7v1.6
	C37.4,27.7,36.6,28.5,35.7,28.5z"/>
</svg>
