<?xml version="1.0" encoding="utf-8"?>
<!-- Generator: Adobe Illustrator 21.1.0, SVG Export Plug-In . SVG Version: 6.00 Build 0)  -->
<svg version="1.1" id="Layer_1" xmlns="http://www.w3.org/2000/svg" xmlns:xlink="http://www.w3.org/1999/xlink" x="0px" y="0px"
	 viewBox="0 0 93.4 125.9" style="enable-background:new 0 0 93.4 125.9;" xml:space="preserve">
<style type="text/css">
	.st0{fill:none;stroke:#662F8F;stroke-width:4;stroke-linecap:round;stroke-linejoin:round;stroke-miterlimit:10;}
	.st1{fill:#662F8F;}
	.st2{fill:none;stroke:#662F8F;stroke-width:2;stroke-linecap:round;stroke-linejoin:round;stroke-miterlimit:10;}
	.st3{fill:none;stroke:#FFFFFF;stroke-width:0.488;stroke-linecap:round;stroke-linejoin:round;stroke-miterlimit:10;}
	.st4{fill:none;stroke:#E73E51;stroke-width:1.6927;}
	.st5{fill:none;stroke:#E73E51;stroke-width:1.1285;stroke-linecap:round;stroke-linejoin:round;stroke-miterlimit:10;}
	.st6{fill:#E73E51;}
	
		.st7{clip-path:url(#SVGID_2_);fill:none;stroke:#E73E51;stroke-width:1.1285;stroke-linecap:round;stroke-linejoin:round;stroke-miterlimit:10;}
	.st8{fill:none;stroke:#EE4050;stroke-width:1.1285;stroke-linecap:round;stroke-linejoin:round;stroke-miterlimit:10;}
</style>
<g>
	<path class="st0" d="M-713.7-73c9.6-9.6,22.8-15.5,37.3-15.5"/>
	<path class="st0" d="M-699.3-58.6c5.9-5.9,14-9.5,23-9.5"/>
	<path class="st0" d="M-742.4-101.8c17.7-17.7,41.2-27.4,66.1-27.4c25,0,48.4,9.7,66.1,27.4"/>
	<path class="st0" d="M-624.6-87.4c-13.3-13.3-31.6-21.5-51.7-21.5c-20.2,0-38.5,8.2-51.7,21.5"/>
	<path class="st0" d="M-639-73c-9.6-9.6-22.8-15.5-37.3-15.5"/>
	<path class="st0" d="M-653.4-58.6c-5.9-5.9-14-9.5-23-9.5"/>
	<path class="st0" d="M-667.8-27.1c-2.2,2.2-5.2,3.5-8.6,3.5c-6.7,0-12.1-5.4-12.1-12.1s5.4-12.1,12.1-12.1c3.3,0,6.4,1.4,8.6,3.5"
		/>
	<path class="st0" d="M-624.6-87.4c4,4,4,10.4,0,14.4c-4,4-10.4,4-14.4,0"/>
	<path class="st0" d="M-699.3-58.6c-4,4-10.4,4-14.4,0s-4-10.4,0-14.4"/>
	<path class="st0" d="M-653.4-58.6c4,4,4,10.4,0,14.4s-10.4,4-14.4,0"/>
	<path class="st0" d="M-728-87.4c-4,4-10.4,4-14.4,0s-4-10.4,0-14.4"/>
</g>
<g>
	<path class="st1" d="M-530.6-138.9c-28.7,0-52,23.3-52,52s23.3,52,52,52s52-23.3,52-52S-501.9-138.9-530.6-138.9z M-530.6-38.6
		c-26.6,0-48.3-21.7-48.3-48.3s21.7-48.3,48.3-48.3s48.3,21.7,48.3,48.3S-503.9-38.6-530.6-38.6z"/>
	<path class="st1" d="M-494-92.7c-4.8-4.7-10.4-8.3-16.4-10.7c0-0.3,0.1-0.7,0.1-1c0-11.1-9-20.2-20.2-20.2s-20.2,9-20.2,20.2
		c0,0.6,0,1.1,0.1,1.7c-5.5,2.4-10.5,5.8-14.9,10.1c0,0-0.1,0.1-0.1,0.1c-1.2,1.2-1.8,2.8-1.8,4.5c0,1.7,0.7,3.4,1.9,4.6
		c2.6,2.5,6.7,2.5,9.3,0c0,0,0,0,0,0c3.2-3.1,6.8-5.6,10.8-7.4c2.3,2.5,5.2,4.5,8.5,5.5c-5,1.2-9.6,3.7-13.4,7.4
		c0,0-0.1,0.1-0.1,0.1c-1.3,1.2-1.9,2.9-1.9,4.6c0,1.7,0.7,3.4,1.9,4.6c2.6,2.5,6.7,2.5,9.3,0c0,0,0,0,0,0h0c3-2.9,7-4.5,11.3-4.5
		c4.3,0,8.3,1.6,11.3,4.5c0,0,0,0,0,0c0.8,0.8,1.2,1.8,1.2,2.8c0,1.1-0.4,2.1-1.2,2.8c-1.6,1.6-4.3,1.6-5.9,0c0,0-0.1-0.1-0.1-0.1
		c-1.4-1.3-3.3-2.1-5.3-2.1c-4.2,0-7.6,3.3-7.6,7.5c0,4.1,3.4,7.5,7.6,7.5c2,0,3.9-0.8,5.4-2.2c0.5-0.5,0.5-1.3,0-1.7
		c-0.5-0.5-1.3-0.5-1.7,0c-1,1-2.3,1.5-3.7,1.5c-2.8,0-5.2-2.2-5.2-5c0-2.8,2.3-5,5.2-5c1.4,0,2.7,0.5,3.7,1.5c0,0,0.1,0.1,0.1,0.1
		c2.6,2.4,6.7,2.4,9.2-0.1c1.3-1.2,1.9-2.9,1.9-4.6s-0.7-3.4-1.9-4.6c0,0,0,0,0,0c-3.5-3.4-8.1-5.2-13-5.2c-4.9,0-9.5,1.9-13,5.2
		c0,0,0,0,0,0c-1.6,1.6-4.3,1.6-5.9,0c-0.8-0.8-1.2-1.8-1.2-2.8c0-1,0.4-2,1.1-2.7c0,0,0.1-0.1,0.1-0.1c5-4.9,11.7-7.6,18.8-7.6
		c7.1,0,13.8,2.7,18.8,7.6c0,0,0,0,0,0c2.6,2.5,6.7,2.5,9.3,0c1.3-1.2,1.9-2.9,1.9-4.6c0-1.7-0.7-3.4-1.9-4.6c0,0,0,0,0,0
		c-3.6-3.5-7.7-6.2-12.1-8.1c1.5-2.2,2.5-4.8,3-7.5c5.5,2.3,10.6,5.7,15,9.9c0.5,0.5,1.3,0.5,1.7,0C-493.5-91.5-493.5-92.2-494-92.7
		z M-557.9-85.3C-557.9-85.3-557.9-85.3-557.9-85.3c-1.6,1.6-4.3,1.6-5.9,0c-0.8-0.8-1.2-1.8-1.2-2.8c0-1.1,0.4-2.1,1.2-2.8
		c0,0,0.1-0.1,0.1-0.1c4-3.9,8.5-6.9,13.5-9.2c0.6,2.7,1.7,5.2,3.3,7.4C-551-91-554.7-88.5-557.9-85.3z M-503.3-83.5
		C-503.3-83.5-503.3-83.5-503.3-83.5c0.8,0.8,1.2,1.8,1.2,2.8c0,1.1-0.4,2.1-1.2,2.8c-1.6,1.6-4.3,1.6-5.9,0c0,0,0,0,0,0
		c-4-3.9-9-6.5-14.4-7.7c3.3-1.2,6.1-3.2,8.4-5.8C-510.9-89.6-506.8-86.9-503.3-83.5z M-530.6-86.8c-9.8,0-17.7-7.9-17.7-17.7
		c0-9.8,7.9-17.7,17.7-17.7s17.7,7.9,17.7,17.7C-512.9-94.7-520.8-86.8-530.6-86.8z"/>
	<path class="st1" d="M-538.2-105.8h-1.9l0.1-3.7h5.6v-1.5h-7.1l-0.2,6.6h2.9c2.5,0,3.4,1.1,3.4,2.5c0,1.4-1,2.5-2.8,2.5
		c-1.3,0-2.5-0.6-3.4-1.6l-1,1c1.1,1.3,2.6,2,4.4,2c2.4,0,4.5-1.5,4.5-4.2C-533.7-104-535.2-105.8-538.2-105.8z"/>
	<path class="st1" d="M-524.2-105v1.5h3.9c-0.3,2.5-1.9,4.1-4.5,4.1c-2.8,0-4.9-2.1-4.9-5.1c0-3,2.2-5.1,5-5.1
		c1.6,0,2.9,0.7,3.8,1.7l1.2-1.2c-1.2-1.3-3-2.1-5-2.1c-3.9,0-6.7,2.8-6.7,6.7c0,4.2,3.2,6.7,6.6,6.7c3.9,0,6.3-3,6.3-6.7
		c0-0.1,0-0.3,0-0.4H-524.2z"/>
</g>
<g>
	<line class="st2" x1="-398.7" y1="-53.2" x2="-398.7" y2="-44.6"/>
	<path class="st2" d="M-412.4-44.6c-2.8,0-5.2-2.3-5.2-5.2v-77.8c0-2.8,2.3-5.2,5.2-5.2h69.9c2.8,0,5.2,2.3,5.2,5.2v77.8
		c0,2.8-2.3,5.2-5.2,5.2h-56.2"/>
	<path class="st2" d="M-398.7-53.2h-5c-2.8,0-5.2-2.3-5.2-5.2v-60.4c0-2.8,2.3-5.2,5.2-5.2h10.1c2.8,0,5.2,2.3,5.2,5.2v60.4"/>
	<g>
		<g>
			<circle class="st2" cx="-376.7" cy="-103.4" r="3.8"/>
			<circle class="st2" cx="-362.8" cy="-103.4" r="3.8"/>
			<circle class="st2" cx="-348.9" cy="-103.4" r="3.8"/>
			<circle class="st2" cx="-376.7" cy="-89.5" r="3.8"/>
			<circle class="st2" cx="-362.8" cy="-89.5" r="3.8"/>
			<circle class="st2" cx="-348.9" cy="-89.5" r="3.8"/>
			<circle class="st2" cx="-376.7" cy="-75.6" r="3.8"/>
			<circle class="st2" cx="-362.8" cy="-75.6" r="3.8"/>
			<circle class="st2" cx="-348.9" cy="-75.6" r="3.8"/>
			<circle class="st2" cx="-376.7" cy="-61.7" r="3.8"/>
			<circle class="st2" cx="-362.8" cy="-61.7" r="3.8"/>
			<circle class="st2" cx="-348.9" cy="-61.7" r="3.8"/>
		</g>
		<line class="st2" x1="-380.5" y1="-119.3" x2="-345.1" y2="-119.3"/>
	</g>
</g>
<g>
	<path class="st3" d="M-481.3,59.2v-1c0-2.7-2.1-4.9-4.8-5c-2.8-0.1-5.1,2.2-5.1,4.9l0,3.8h10.9c0.7,0,1.3,0.6,1.3,1.3v8.6
		c0,0.7-0.6,1.3-1.3,1.3h-2.7c-0.5,0-1-0.4-1.1-0.9l-0.8-3.2v0c0.6-0.5,0.9-1.2,0.8-2.1c-0.1-1-1-1.7-1.9-1.9
		c-1.3-0.1-2.5,0.9-2.5,2.2c0,0.7,0.3,1.3,0.8,1.7h0c0,0-0.5,2-0.8,3.2c-0.1,0.5-0.6,0.9-1.1,0.9h-2.7c-0.7,0-1.3-0.6-1.3-1.3v-8.6"
		/>
</g>
<g>
	<circle class="st4" cx="-363.1" cy="66.5" r="23"/>
	<path class="st5" d="M-386.3,66.4l23.2-0.1 M-363.1,66.3V43.3V66.3z M-351.5,66.3c0,6.4-5.2,11.6-11.6,11.6
		c-6.4,0-11.7-5.2-11.7-11.6c0-6.4,5.2-11.6,11.7-11.6C-356.7,54.7-351.5,59.9-351.5,66.3z M-345.8,66.3c0,9.5-7.7,17.3-17.3,17.3
		c-9.5,0-17.3-7.7-17.3-17.3c0-9.5,7.7-17.3,17.3-17.3C-353.6,49.1-345.8,56.8-345.8,66.3z"/>
	<path class="st6" d="M-378.8,61c1.2,0,2.2-1,2.2-2.2c0-1.2-1-2.2-2.2-2.2c-1.2,0-2.2,1-2.2,2.2C-381,60.1-380,61-378.8,61"/>
</g>
<g>
	<circle class="st4" cx="-421.5" cy="66.9" r="23"/>
	<path class="st5" d="M-410.7,59.6l7.1,7.2 M-410.7,59.6l-7.1,10.3 M-424.8,74.1l7.1-4.2 M-424.8,74.1l-7.1-9.5 M-438.9,69.5
		l7.1-4.9"/>
	<path class="st6" d="M-434,64.5c0-1.2,1-2.1,2.1-2.1s2.1,1,2.1,2.1c0,1.2-1,2.1-2.1,2.1S-434,65.7-434,64.5"/>
	<path class="st6" d="M-426.9,74.1c0-1.2,1-2.1,2.1-2.1c1.2,0,2.1,1,2.1,2.1c0,1.2-1,2.1-2.1,2.1C-426,76.2-426.9,75.2-426.9,74.1"
		/>
	<path class="st6" d="M-419.9,69.9c0-1.2,1-2.1,2.1-2.1c1.2,0,2.1,1,2.1,2.1c0,1.2-1,2.1-2.1,2.1C-418.9,72-419.9,71-419.9,69.9"/>
	<path class="st6" d="M-412.8,59.6c0-1.2,1-2.1,2.1-2.1c1.2,0,2.1,1,2.1,2.1c0,1.2-1,2.1-2.1,2.1C-411.9,61.7-412.8,60.8-412.8,59.6
		"/>
	<path class="st6" d="M-405.9,66.7c0-1.2,1-2.1,2.1-2.1c1.2,0,2.1,1,2.1,2.1c0,1.2-1,2.1-2.1,2.1C-405,68.8-405.9,67.8-405.9,66.7"
		/>
	<path class="st6" d="M-440.8,69.3c0-1.2,1-2.1,2.1-2.1s2.1,1,2.1,2.1c0,1.2-1,2.1-2.1,2.1S-440.8,70.5-440.8,69.3"/>
</g>
<g>
	<circle class="st4" cx="-313.3" cy="26.2" r="23"/>
	<g>
		<defs>
			<path id="SVGID_1_" d="M-337.1,26c0,12.4,9.6,22.6,21.8,23.5h3.6c11.7-0.9,21.1-10.4,21.8-22.2v-2.7c-0.7-12.4-11-22.2-23.6-22.2
				C-326.6,2.4-337.1,12.9-337.1,26"/>
		</defs>
		<clipPath id="SVGID_2_">
			<use xlink:href="#SVGID_1_"  style="overflow:visible;"/>
		</clipPath>
		<path class="st7" d="M-290.5,57.5h-12.1c-0.5,0-0.9-0.4-0.9-0.9v-5.2c0-0.5,0.4-0.9,0.9-0.9h12.1c0.5,0,0.9,0.4,0.9,0.9v5.2
			C-289.6,57.1-290,57.5-290.5,57.5z M-304.5,57.5h-12.1c-0.5,0-0.9-0.4-0.9-0.9v-5.2c0-0.5,0.4-0.9,0.9-0.9h12.1
			c0.5,0,0.9,0.4,0.9,0.9v5.2C-303.6,57.1-304,57.5-304.5,57.5z M-318.4,57.5h-12.1c-0.5,0-0.9-0.4-0.9-0.9v-5.2
			c0-0.5,0.4-0.9,0.9-0.9h12.1c0.5,0,0.9,0.4,0.9,0.9v5.2C-317.5,57.1-317.9,57.5-318.4,57.5z M-332.4,57.5h-12.1
			c-0.5,0-0.9-0.4-0.9-0.9v-5.2c0-0.5,0.4-0.9,0.9-0.9h12.1c0.5,0,0.9,0.4,0.9,0.9v5.2C-331.5,57.1-331.9,57.5-332.4,57.5z
			 M-283.3,50.5h-12.1c-0.5,0-0.9-0.4-0.9-0.9v-5.2c0-0.5,0.4-0.9,0.9-0.9h12.1c0.5,0,0.9,0.4,0.9,0.9v5.2
			C-282.3,50-282.8,50.5-283.3,50.5z M-297.3,50.5h-12.1c-0.5,0-0.9-0.4-0.9-0.9v-5.2c0-0.5,0.4-0.9,0.9-0.9h12.1
			c0.5,0,0.9,0.4,0.9,0.9v5.2C-296.3,50-296.8,50.5-297.3,50.5z M-311.2,50.5h-12.1c-0.5,0-0.9-0.4-0.9-0.9v-5.2
			c0-0.5,0.4-0.9,0.9-0.9h12.1c0.5,0,0.9,0.4,0.9,0.9v5.2C-310.2,50-310.6,50.5-311.2,50.5z M-325.2,50.5h-12.1
			c-0.5,0-0.9-0.4-0.9-0.9v-5.2c0-0.5,0.4-0.9,0.9-0.9h12.1c0.5,0,0.9,0.4,0.9,0.9v5.2C-324.2,50-324.6,50.5-325.2,50.5z
			 M-290.5,43.3h-12.1c-0.5,0-0.9-0.4-0.9-0.9v-5.2c0-0.5,0.4-0.9,0.9-0.9h12.1c0.5,0,0.9,0.4,0.9,0.9v5.2
			C-289.6,42.9-290,43.3-290.5,43.3z M-304.5,43.3h-12.1c-0.5,0-0.9-0.4-0.9-0.9v-5.2c0-0.5,0.4-0.9,0.9-0.9h12.1
			c0.5,0,0.9,0.4,0.9,0.9v5.2C-303.6,42.9-304,43.3-304.5,43.3z M-318.4,43.3h-12.1c-0.5,0-0.9-0.4-0.9-0.9v-5.2
			c0-0.5,0.4-0.9,0.9-0.9h12.1c0.5,0,0.9,0.4,0.9,0.9v5.2C-317.5,42.9-317.9,43.3-318.4,43.3z M-332.4,43.3h-12.1
			c-0.5,0-0.9-0.4-0.9-0.9v-5.2c0-0.5,0.4-0.9,0.9-0.9h12.1c0.5,0,0.9,0.4,0.9,0.9v5.2C-331.5,42.9-331.9,43.3-332.4,43.3z
			 M-283.3,36.3h-12.1c-0.5,0-0.9-0.4-0.9-0.9v-5.2c0-0.5,0.4-0.9,0.9-0.9h12.1c0.5,0,0.9,0.4,0.9,0.9v5.2
			C-282.3,35.9-282.8,36.3-283.3,36.3z M-297.3,36.3h-12.1c-0.5,0-0.9-0.4-0.9-0.9v-5.2c0-0.5,0.4-0.9,0.9-0.9h12.1
			c0.5,0,0.9,0.4,0.9,0.9v5.2C-296.3,35.9-296.8,36.3-297.3,36.3z M-311.2,36.3h-12.1c-0.5,0-0.9-0.4-0.9-0.9v-5.2
			c0-0.5,0.4-0.9,0.9-0.9h12.1c0.5,0,0.9,0.4,0.9,0.9v5.2C-310.2,35.9-310.6,36.3-311.2,36.3z M-325.2,36.3h-12.1
			c-0.5,0-0.9-0.4-0.9-0.9v-5.2c0-0.5,0.4-0.9,0.9-0.9h12.1c0.5,0,0.9,0.4,0.9,0.9v5.2C-324.2,35.9-324.6,36.3-325.2,36.3z
			 M-290.5,29.2h-12.1c-0.5,0-0.9-0.4-0.9-0.9V23c0-0.5,0.4-0.9,0.9-0.9h12.1c0.5,0,0.9,0.4,0.9,0.9v5.2
			C-289.6,28.7-290,29.2-290.5,29.2z M-304.5,29.2h-12.1c-0.5,0-0.9-0.4-0.9-0.9V23c0-0.5,0.4-0.9,0.9-0.9h12.1
			c0.5,0,0.9,0.4,0.9,0.9v5.2C-303.6,28.7-304,29.2-304.5,29.2z M-318.4,29.2h-12.1c-0.5,0-0.9-0.4-0.9-0.9V23
			c0-0.5,0.4-0.9,0.9-0.9h12.1c0.5,0,0.9,0.4,0.9,0.9v5.2C-317.5,28.7-317.9,29.2-318.4,29.2z M-332.4,29.2h-12.1
			c-0.5,0-0.9-0.4-0.9-0.9V23c0-0.5,0.4-0.9,0.9-0.9h12.1c0.5,0,0.9,0.4,0.9,0.9v5.2C-331.5,28.7-331.9,29.2-332.4,29.2z"/>
	</g>
</g>
<circle class="st4" cx="-251.5" cy="51.6" r="23"/>
<path class="st8" d="M-251.3,60.8c-1.2-0.5-5.6-2.7-5.6-7.1v-6.8c2.6-0.1,4.7-1,5.6-1.5c0.9,0.5,3,1.4,5.6,1.5v6.8
	C-245.7,58.1-250.2,60.3-251.3,60.8z"/>
<path class="st8" d="M-248.9,55.7h-4.8v-3.5h4.8V55.7z M-252.8,52.2v-1.4c0-0.8,0.7-1.5,1.5-1.5c0.8,0,1.5,0.7,1.5,1.5v1.4"/>
<path class="st8" d="M-237.7,44.7l0-1.4c0-0.5-0.4-0.9-0.9-0.9l-12.3,0.1l-3.6-3.6l-8.6,0c-1,0-1.9,0.9-1.9,1.9l0.1,22.7h27.2V44.7z
	"/>
<g>
	<circle class="st4" cx="-185.2" cy="56" r="23"/>
	<path class="st8" d="M-174.8,64.8c0,1.8-1.5,3.3-3.3,3.3s-3.3-1.5-3.3-3.3c0-1.8,1.5-3.3,3.3-3.3S-174.8,63-174.8,64.8z
		 M-178.8,63.9l0.8,2l1.5-3.9 M-194,60.9h9.1 M-194,58.1h14.7 M-194,55.3h14.7 M-194,52.4h14.7 M-194,49.6h9.9 M-194,46.8h9.9
		 M-179.4,41.1h6.9v29.8h-25.2V41.1H-179.4z"/>
</g>
<circle class="st4" cx="-122.5" cy="60.5" r="23"/>
<path class="st8" d="M-122.7,65.7v1.1 M-122.7,54.9v7.2 M-122.7,46.4l-13.9,24.2h27.9L-122.7,46.4z"/>
<circle class="st4" cx="-48.9" cy="60.8" r="23"/>
<path class="st8" d="M-48.9,78.2c-2.4-1-11.4-5.4-11.4-14.4V50.1c5.3-0.1,9.6-2,11.4-3c1.8,1,6,2.8,11.4,3v13.7
	C-37.5,72.8-46.5,77.2-48.9,78.2z"/>
<path class="st8" d="M-44,67.8h-9.8v-7.1h9.8V67.8z M-51.9,60.8V58c0-1.6,1.3-3,3-3c1.6,0,3,1.3,3,3v2.8"/>
<g>
	<path class="st0" d="M76.9,38.8v-5.9C76.9,16.4,64,2.5,47.5,2C30.5,1.5,16.5,15.3,16.5,32.2l0,23.2h67.2c4.2,0,7.7,3.5,7.7,7.7
		v53.1c0,4.2-3.5,7.7-7.7,7.7c0,0-10.2,0-16.8,0c-3.3,0-6.2-2.3-7-5.5l-4.8-19.9l0,0c3.6-2.9,5.8-7.6,5-12.7
		c-0.9-6-5.8-10.7-11.8-11.4c-8.2-0.9-15.1,5.5-15.1,13.5c0,4.3,2,8.2,5.2,10.6l0,0c0,0-3,12.4-4.8,19.9c-0.8,3.2-3.7,5.5-7,5.5H9.7
		c-4.2,0-7.7-3.5-7.7-7.7V63.1"/>
</g>
</svg>
