<?xml version="1.0" encoding="utf-8"?>
<!-- Generator: Adobe Illustrator 21.1.0, SVG Export Plug-In . SVG Version: 6.00 Build 0)  -->
<svg version="1.1" id="Layer_1" xmlns="http://www.w3.org/2000/svg" xmlns:xlink="http://www.w3.org/1999/xlink" x="0px" y="0px"
	 viewBox="0 0 29.9 24.7" style="enable-background:new 0 0 29.9 24.7;" xml:space="preserve">
<style type="text/css">
	.st0{fill:none;stroke:#662F8F;stroke-width:4;stroke-linecap:round;stroke-linejoin:round;stroke-miterlimit:10;}
	.st1{fill:#662F8F;}
	.st2{fill:none;stroke:#662F8F;stroke-width:2;stroke-linecap:round;stroke-linejoin:round;stroke-miterlimit:10;}
	.st3{fill:none;stroke:#FFFFFF;stroke-width:0.488;stroke-linecap:round;stroke-linejoin:round;stroke-miterlimit:10;}
	.st4{fill:none;stroke:#E73E51;stroke-width:1.6927;}
	.st5{fill:none;stroke:#E73E51;stroke-width:1.1285;stroke-linecap:round;stroke-linejoin:round;stroke-miterlimit:10;}
	.st6{fill:#E73E51;}
	
		.st7{clip-path:url(#SVGID_2_);fill:none;stroke:#E73E51;stroke-width:1.1285;stroke-linecap:round;stroke-linejoin:round;stroke-miterlimit:10;}
	.st8{fill:none;stroke:#EE4050;stroke-width:1.1285;stroke-linecap:round;stroke-linejoin:round;stroke-miterlimit:10;}
	.st9{fill:none;stroke:#FFFFFF;stroke-width:0.574;stroke-linecap:round;stroke-linejoin:round;stroke-miterlimit:10;}
	.st10{fill:none;stroke:#A491C4;stroke-width:0.5657;stroke-miterlimit:10;}
	.st11{fill:none;stroke:#F7F8F9;stroke-width:1.2708;stroke-miterlimit:10;}
	.st12{fill:url(#SVGID_3_);}
	.st13{fill:#9289C1;}
	.st14{fill:#F79F7C;}
	.st15{fill:#EF619B;}
	.st16{fill:#F28BB9;}
	.st17{fill:#FABEA9;}
	.st18{fill:#F37B8A;}
	.st19{fill:none;stroke:#633493;stroke-width:5.1599;stroke-linecap:round;stroke-linejoin:round;stroke-miterlimit:10;}
	.st20{fill:none;stroke:#662F8F;stroke-width:1.0098;stroke-linecap:round;stroke-linejoin:round;stroke-miterlimit:10;}
</style>
<g>
	<path class="st0" d="M-333.8-264.1c9.6-9.6,22.8-15.5,37.3-15.5"/>
	<path class="st0" d="M-319.4-249.7c5.9-5.9,14-9.5,23-9.5"/>
	<path class="st0" d="M-362.6-292.9c17.7-17.7,41.2-27.4,66.1-27.4c25,0,48.4,9.7,66.1,27.4"/>
	<path class="st0" d="M-244.8-278.5c-13.3-13.3-31.6-21.5-51.7-21.5s-38.5,8.2-51.7,21.5"/>
	<path class="st0" d="M-259.1-264.1c-9.6-9.6-22.8-15.5-37.3-15.5"/>
	<path class="st0" d="M-273.5-249.7c-5.9-5.9-14-9.5-23-9.5"/>
	<path class="st0" d="M-287.9-218.2c-2.2,2.2-5.2,3.5-8.6,3.5c-6.7,0-12.1-5.4-12.1-12.1c0-6.7,5.4-12.1,12.1-12.1
		c3.3,0,6.4,1.4,8.6,3.5"/>
	<path class="st0" d="M-244.8-278.5c4,4,4,10.4,0,14.4c-4,4-10.4,4-14.4,0"/>
	<path class="st0" d="M-319.4-249.7c-4,4-10.4,4-14.4,0s-4-10.4,0-14.4"/>
	<path class="st0" d="M-273.5-249.7c4,4,4,10.4,0,14.4c-4,4-10.4,4-14.4,0"/>
	<path class="st0" d="M-348.2-278.5c-4,4-10.4,4-14.4,0c-4-4-4-10.4,0-14.4"/>
</g>
<g>
	<path class="st1" d="M-150.7-330c-28.7,0-52,23.3-52,52s23.3,52,52,52s52-23.3,52-52S-122.1-330-150.7-330z M-150.7-229.7
		c-26.6,0-48.3-21.7-48.3-48.3s21.7-48.3,48.3-48.3s48.3,21.7,48.3,48.3S-124.1-229.7-150.7-229.7z"/>
	<path class="st1" d="M-114.2-283.9c-4.8-4.7-10.4-8.3-16.4-10.7c0-0.3,0.1-0.7,0.1-1c0-11.1-9-20.2-20.2-20.2s-20.2,9-20.2,20.2
		c0,0.6,0,1.1,0.1,1.7c-5.5,2.4-10.5,5.8-14.9,10.1c0,0-0.1,0.1-0.1,0.1c-1.2,1.2-1.8,2.8-1.8,4.5c0,1.7,0.7,3.4,1.9,4.6
		c2.6,2.5,6.7,2.5,9.3,0c0,0,0,0,0,0c3.2-3.1,6.8-5.6,10.8-7.4c2.3,2.5,5.2,4.5,8.5,5.5c-5,1.2-9.6,3.7-13.4,7.4
		c0,0-0.1,0.1-0.1,0.1c-1.3,1.2-1.9,2.9-1.9,4.6c0,1.7,0.7,3.4,1.9,4.6c2.6,2.5,6.7,2.5,9.3,0c0,0,0,0,0,0h0c3-2.9,7-4.5,11.3-4.5
		c4.3,0,8.3,1.6,11.3,4.5c0,0,0,0,0,0c0.8,0.8,1.2,1.8,1.2,2.8c0,1.1-0.4,2.1-1.2,2.8c-1.6,1.6-4.3,1.6-5.9,0c0,0-0.1-0.1-0.1-0.1
		c-1.4-1.3-3.3-2.1-5.3-2.1c-4.2,0-7.6,3.3-7.6,7.5c0,4.1,3.4,7.5,7.6,7.5c2,0,3.9-0.8,5.4-2.2c0.5-0.5,0.5-1.3,0-1.7
		c-0.5-0.5-1.3-0.5-1.7,0c-1,1-2.3,1.5-3.7,1.5c-2.8,0-5.2-2.2-5.2-5c0-2.8,2.3-5,5.2-5c1.4,0,2.7,0.5,3.7,1.5c0,0,0.1,0.1,0.1,0.1
		c2.6,2.4,6.7,2.4,9.2-0.1c1.3-1.2,1.9-2.9,1.9-4.6s-0.7-3.4-1.9-4.6c0,0,0,0,0,0c-3.5-3.4-8.1-5.2-13-5.2c-4.9,0-9.5,1.9-13,5.2
		c0,0,0,0,0,0c-1.6,1.6-4.3,1.6-5.9,0c-0.8-0.8-1.2-1.8-1.2-2.8c0-1,0.4-2,1.1-2.7c0,0,0.1-0.1,0.1-0.1c5-4.9,11.7-7.6,18.8-7.6
		c7.1,0,13.8,2.7,18.8,7.6c0,0,0,0,0,0c2.6,2.5,6.7,2.5,9.3,0c1.3-1.2,1.9-2.9,1.9-4.6c0-1.7-0.7-3.4-1.9-4.6c0,0,0,0,0,0
		c-3.6-3.5-7.7-6.2-12.1-8.1c1.5-2.2,2.5-4.8,3-7.5c5.5,2.3,10.6,5.7,15,9.9c0.5,0.5,1.3,0.5,1.7,0
		C-113.7-282.6-113.7-283.4-114.2-283.9z M-178.1-276.5C-178.1-276.5-178.1-276.5-178.1-276.5c-1.6,1.6-4.3,1.6-5.9,0
		c-0.8-0.8-1.2-1.8-1.2-2.8c0-1.1,0.4-2.1,1.2-2.8c0,0,0.1-0.1,0.1-0.1c4-3.9,8.5-6.9,13.5-9.2c0.6,2.7,1.7,5.2,3.3,7.4
		C-171.2-282.1-174.9-279.6-178.1-276.5z M-123.5-274.7C-123.5-274.7-123.5-274.7-123.5-274.7c0.8,0.8,1.2,1.8,1.2,2.8
		c0,1.1-0.4,2.1-1.2,2.8c-1.6,1.6-4.3,1.6-5.9,0c0,0,0,0,0,0c-4-3.9-9-6.5-14.4-7.7c3.3-1.2,6.1-3.2,8.4-5.8
		C-131-280.7-127-278.1-123.5-274.7z M-150.7-277.9c-9.8,0-17.7-7.9-17.7-17.7c0-9.8,7.9-17.7,17.7-17.7s17.7,7.9,17.7,17.7
		C-133-285.9-141-277.9-150.7-277.9z"/>
	<path class="st1" d="M-158.4-297h-1.9l0.1-3.7h5.6v-1.5h-7.1l-0.2,6.6h2.9c2.5,0,3.4,1.1,3.4,2.5c0,1.4-1,2.5-2.8,2.5
		c-1.3,0-2.5-0.6-3.4-1.6l-1,1c1.1,1.3,2.6,2,4.4,2c2.4,0,4.5-1.5,4.5-4.2C-153.9-295.2-155.3-297-158.4-297z"/>
	<path class="st1" d="M-144.4-296.1v1.5h3.9c-0.3,2.5-1.9,4.1-4.5,4.1c-2.8,0-4.9-2.1-4.9-5.1c0-3,2.2-5.1,5-5.1
		c1.6,0,2.9,0.7,3.8,1.7l1.2-1.2c-1.2-1.3-3-2.1-5-2.1c-3.9,0-6.7,2.8-6.7,6.7c0,4.2,3.2,6.7,6.6,6.7c3.9,0,6.3-3,6.3-6.7
		c0-0.1,0-0.3,0-0.4H-144.4z"/>
</g>
<g>
	<line class="st2" x1="-18.9" y1="-244.4" x2="-18.9" y2="-235.7"/>
	<path class="st2" d="M-32.6-235.7c-2.8,0-5.2-2.3-5.2-5.2v-77.8c0-2.8,2.3-5.2,5.2-5.2h69.9c2.8,0,5.2,2.3,5.2,5.2v77.8
		c0,2.8-2.3,5.2-5.2,5.2h-56.2"/>
	<path class="st2" d="M-18.9-244.4h-5c-2.8,0-5.2-2.3-5.2-5.2V-310c0-2.8,2.3-5.2,5.2-5.2h10.1c2.8,0,5.2,2.3,5.2,5.2v60.4"/>
	<g>
		<g>
			<circle class="st2" cx="3.1" cy="-294.5" r="3.8"/>
			<circle class="st2" cx="17" cy="-294.5" r="3.8"/>
			<circle class="st2" cx="30.9" cy="-294.5" r="3.8"/>
			<circle class="st2" cx="3.1" cy="-280.6" r="3.8"/>
			<circle class="st2" cx="17" cy="-280.6" r="3.8"/>
			<circle class="st2" cx="30.9" cy="-280.6" r="3.8"/>
			<circle class="st2" cx="3.1" cy="-266.7" r="3.8"/>
			<circle class="st2" cx="17" cy="-266.7" r="3.8"/>
			<circle class="st2" cx="30.9" cy="-266.7" r="3.8"/>
			<circle class="st2" cx="3.1" cy="-252.8" r="3.8"/>
			<circle class="st2" cx="17" cy="-252.8" r="3.8"/>
			<circle class="st2" cx="30.9" cy="-252.8" r="3.8"/>
		</g>
		<line class="st2" x1="-0.7" y1="-310.5" x2="34.7" y2="-310.5"/>
	</g>
</g>
<g>
	<path class="st3" d="M-101.5-131.9v-1c0-2.7-2.1-4.9-4.8-5c-2.8-0.1-5.1,2.2-5.1,4.9l0,3.8h10.9c0.7,0,1.3,0.6,1.3,1.3v8.6
		c0,0.7-0.6,1.3-1.3,1.3h-2.7c-0.5,0-1-0.4-1.1-0.9l-0.8-3.2v0c0.6-0.5,0.9-1.2,0.8-2.1c-0.1-1-1-1.7-1.9-1.9
		c-1.3-0.1-2.5,0.9-2.5,2.2c0,0.7,0.3,1.3,0.8,1.7h0c0,0-0.5,2-0.8,3.2c-0.1,0.5-0.6,0.9-1.1,0.9h-2.7c-0.7,0-1.3-0.6-1.3-1.3v-8.6"
		/>
</g>
<g>
	<circle class="st4" cx="16.8" cy="-124.7" r="23"/>
	<path class="st5" d="M-6.5-124.7l23.2-0.1 M16.7-124.8v-23.1V-124.8z M28.4-124.8c0,6.4-5.2,11.6-11.6,11.6
		c-6.4,0-11.7-5.2-11.7-11.6c0-6.4,5.2-11.6,11.7-11.6C23.2-136.5,28.4-131.3,28.4-124.8z M34-124.8c0,9.5-7.7,17.3-17.3,17.3
		c-9.5,0-17.3-7.7-17.3-17.3c0-9.5,7.7-17.3,17.3-17.3C26.3-142.1,34-134.4,34-124.8z"/>
	<path class="st6" d="M1-130.1c1.2,0,2.2-1,2.2-2.2c0-1.2-1-2.2-2.2-2.2c-1.2,0-2.2,1-2.2,2.2C-1.2-131.1-0.2-130.1,1-130.1"/>
</g>
<g>
	<circle class="st4" cx="-41.7" cy="-124.2" r="23"/>
	<path class="st5" d="M-30.9-131.6l7.1,7.2 M-30.9-131.6l-7.1,10.3 M-45-117.1l7.1-4.2 M-45-117.1l-7.1-9.5 M-59.1-121.7l7.1-4.9"/>
	<path class="st6" d="M-54.2-126.6c0-1.2,1-2.1,2.1-2.1c1.2,0,2.1,1,2.1,2.1c0,1.2-1,2.1-2.1,2.1C-53.2-124.5-54.2-125.4-54.2-126.6
		"/>
	<path class="st6" d="M-47.1-117.1c0-1.2,1-2.1,2.1-2.1s2.1,1,2.1,2.1c0,1.2-1,2.1-2.1,2.1S-47.1-115.9-47.1-117.1"/>
	<path class="st6" d="M-40.1-121.3c0-1.2,1-2.1,2.1-2.1s2.1,1,2.1,2.1c0,1.2-1,2.1-2.1,2.1S-40.1-120.1-40.1-121.3"/>
	<path class="st6" d="M-33-131.6c0-1.2,1-2.1,2.1-2.1c1.2,0,2.1,1,2.1,2.1c0,1.2-1,2.1-2.1,2.1C-32.1-129.5-33-130.4-33-131.6"/>
	<path class="st6" d="M-26.1-124.5c0-1.2,1-2.1,2.1-2.1c1.2,0,2.1,1,2.1,2.1c0,1.2-1,2.1-2.1,2.1C-25.2-122.4-26.1-123.3-26.1-124.5
		"/>
	<path class="st6" d="M-61-121.9c0-1.2,1-2.1,2.1-2.1s2.1,1,2.1,2.1c0,1.2-1,2.1-2.1,2.1S-61-120.7-61-121.9"/>
</g>
<g>
	<circle class="st4" cx="66.5" cy="-165" r="23"/>
	<g>
		<defs>
			<path id="SVGID_1_" d="M42.7-165.2c0,12.4,9.6,22.6,21.8,23.5h3.6c11.7-0.9,21.1-10.4,21.8-22.2v-2.7
				c-0.7-12.4-11-22.2-23.6-22.2C53.3-188.8,42.7-178.2,42.7-165.2"/>
		</defs>
		<clipPath id="SVGID_2_">
			<use xlink:href="#SVGID_1_"  style="overflow:visible;"/>
		</clipPath>
		<path class="st7" d="M89.3-133.6H77.2c-0.5,0-0.9-0.4-0.9-0.9v-5.2c0-0.5,0.4-0.9,0.9-0.9h12.1c0.5,0,0.9,0.4,0.9,0.9v5.2
			C90.2-134,89.8-133.6,89.3-133.6z M75.3-133.6H63.2c-0.5,0-0.9-0.4-0.9-0.9v-5.2c0-0.5,0.4-0.9,0.9-0.9h12.1
			c0.5,0,0.9,0.4,0.9,0.9v5.2C76.2-134,75.8-133.6,75.3-133.6z M61.4-133.6H49.3c-0.5,0-0.9-0.4-0.9-0.9v-5.2c0-0.5,0.4-0.9,0.9-0.9
			h12.1c0.5,0,0.9,0.4,0.9,0.9v5.2C62.3-134,61.9-133.6,61.4-133.6z M47.4-133.6H35.3c-0.5,0-0.9-0.4-0.9-0.9v-5.2
			c0-0.5,0.4-0.9,0.9-0.9h12.1c0.5,0,0.9,0.4,0.9,0.9v5.2C48.3-134,47.9-133.6,47.4-133.6z M96.6-140.7H84.4c-0.5,0-0.9-0.4-0.9-0.9
			v-5.2c0-0.5,0.4-0.9,0.9-0.9h12.1c0.5,0,0.9,0.4,0.9,0.9v5.2C97.5-141.1,97.1-140.7,96.6-140.7z M82.6-140.7H70.4
			c-0.5,0-0.9-0.4-0.9-0.9v-5.2c0-0.5,0.4-0.9,0.9-0.9h12.1c0.5,0,0.9,0.4,0.9,0.9v5.2C83.5-141.1,83.1-140.7,82.6-140.7z
			 M68.7-140.7H56.5c-0.5,0-0.9-0.4-0.9-0.9v-5.2c0-0.5,0.4-0.9,0.9-0.9h12.1c0.5,0,0.9,0.4,0.9,0.9v5.2
			C69.6-141.1,69.2-140.7,68.7-140.7z M54.7-140.7H42.5c-0.5,0-0.9-0.4-0.9-0.9v-5.2c0-0.5,0.4-0.9,0.9-0.9h12.1
			c0.5,0,0.9,0.4,0.9,0.9v5.2C55.6-141.1,55.2-140.7,54.7-140.7z M89.3-147.8H77.2c-0.5,0-0.9-0.4-0.9-0.9v-5.2
			c0-0.5,0.4-0.9,0.9-0.9h12.1c0.5,0,0.9,0.4,0.9,0.9v5.2C90.2-148.2,89.8-147.8,89.3-147.8z M75.3-147.8H63.2
			c-0.5,0-0.9-0.4-0.9-0.9v-5.2c0-0.5,0.4-0.9,0.9-0.9h12.1c0.5,0,0.9,0.4,0.9,0.9v5.2C76.2-148.2,75.8-147.8,75.3-147.8z
			 M61.4-147.8H49.3c-0.5,0-0.9-0.4-0.9-0.9v-5.2c0-0.5,0.4-0.9,0.9-0.9h12.1c0.5,0,0.9,0.4,0.9,0.9v5.2
			C62.3-148.2,61.9-147.8,61.4-147.8z M47.4-147.8H35.3c-0.5,0-0.9-0.4-0.9-0.9v-5.2c0-0.5,0.4-0.9,0.9-0.9h12.1
			c0.5,0,0.9,0.4,0.9,0.9v5.2C48.3-148.2,47.9-147.8,47.4-147.8z M96.6-154.9H84.4c-0.5,0-0.9-0.4-0.9-0.9v-5.2
			c0-0.5,0.4-0.9,0.9-0.9h12.1c0.5,0,0.9,0.4,0.9,0.9v5.2C97.5-155.3,97.1-154.9,96.6-154.9z M82.6-154.9H70.4
			c-0.5,0-0.9-0.4-0.9-0.9v-5.2c0-0.5,0.4-0.9,0.9-0.9h12.1c0.5,0,0.9,0.4,0.9,0.9v5.2C83.5-155.3,83.1-154.9,82.6-154.9z
			 M68.7-154.9H56.5c-0.5,0-0.9-0.4-0.9-0.9v-5.2c0-0.5,0.4-0.9,0.9-0.9h12.1c0.5,0,0.9,0.4,0.9,0.9v5.2
			C69.6-155.3,69.2-154.9,68.7-154.9z M54.7-154.9H42.5c-0.5,0-0.9-0.4-0.9-0.9v-5.2c0-0.5,0.4-0.9,0.9-0.9h12.1
			c0.5,0,0.9,0.4,0.9,0.9v5.2C55.6-155.3,55.2-154.9,54.7-154.9z M89.3-162H77.2c-0.5,0-0.9-0.4-0.9-0.9v-5.2c0-0.5,0.4-0.9,0.9-0.9
			h12.1c0.5,0,0.9,0.4,0.9,0.9v5.2C90.2-162.4,89.8-162,89.3-162z M75.3-162H63.2c-0.5,0-0.9-0.4-0.9-0.9v-5.2
			c0-0.5,0.4-0.9,0.9-0.9h12.1c0.5,0,0.9,0.4,0.9,0.9v5.2C76.2-162.4,75.8-162,75.3-162z M61.4-162H49.3c-0.5,0-0.9-0.4-0.9-0.9
			v-5.2c0-0.5,0.4-0.9,0.9-0.9h12.1c0.5,0,0.9,0.4,0.9,0.9v5.2C62.3-162.4,61.9-162,61.4-162z M47.4-162H35.3
			c-0.5,0-0.9-0.4-0.9-0.9v-5.2c0-0.5,0.4-0.9,0.9-0.9h12.1c0.5,0,0.9,0.4,0.9,0.9v5.2C48.3-162.4,47.9-162,47.4-162z"/>
	</g>
</g>
<circle class="st4" cx="128.4" cy="-139.5" r="23"/>
<path class="st8" d="M128.5-130.3c-1.2-0.5-5.6-2.7-5.6-7.1v-6.8c2.6-0.1,4.7-1,5.6-1.5c0.9,0.5,3,1.4,5.6,1.5v6.8
	C134.1-133,129.7-130.8,128.5-130.3z"/>
<path class="st8" d="M130.9-135.5h-4.8v-3.5h4.8V-135.5z M127-139v-1.4c0-0.8,0.7-1.5,1.5-1.5c0.8,0,1.5,0.7,1.5,1.5v1.4"/>
<path class="st8" d="M142.1-146.4l0-1.4c0-0.5-0.4-0.9-0.9-0.9l-12.3,0.1l-3.6-3.6l-8.6,0c-1,0-1.9,0.9-1.9,1.9l0.1,22.7h27.2
	V-146.4z"/>
<g>
	<circle class="st4" cx="194.6" cy="-135.1" r="23"/>
	<path class="st8" d="M205-126.3c0,1.8-1.5,3.3-3.3,3.3c-1.8,0-3.3-1.5-3.3-3.3c0-1.8,1.5-3.3,3.3-3.3
		C203.6-129.6,205-128.2,205-126.3z M201-127.3l0.8,2l1.5-3.9 M185.9-130.2h9.1 M185.9-133.1h14.7 M185.9-135.9h14.7 M185.9-138.7
		h14.7 M185.9-141.6h9.9 M185.9-144.4h9.9 M200.5-150h6.9v29.8h-25.2V-150H200.5z"/>
</g>
<circle class="st4" cx="257.3" cy="-130.7" r="23"/>
<path class="st8" d="M257.2-125.5v1.1 M257.2-136.2v7.2 M257.2-144.8l-13.9,24.2h27.9L257.2-144.8z"/>
<circle class="st4" cx="330.9" cy="-130.4" r="23"/>
<path class="st8" d="M330.9-113c-2.4-1-11.4-5.4-11.4-14.4v-13.7c5.3-0.1,9.6-2,11.4-3c1.8,1,6,2.8,11.4,3v13.7
	C342.3-118.4,333.3-114,330.9-113z"/>
<path class="st8" d="M335.8-123.3H326v-7.1h9.8V-123.3z M327.9-130.4v-2.8c0-1.6,1.3-3,3-3c1.6,0,3,1.3,3,3v2.8"/>
<g>
	<path class="st0" d="M456.7-152.4v-5.9c0-16.5-12.9-30.4-29.4-30.8c-17.1-0.5-31.1,13.2-31.1,30.2l0,23.2h67.2
		c4.2,0,7.7,3.5,7.7,7.7V-75c0,4.2-3.5,7.7-7.7,7.7c0,0-10.2,0-16.8,0c-3.3,0-6.2-2.3-7-5.5l-4.8-19.9l0,0c3.6-2.9,5.8-7.6,5-12.7
		c-0.9-6-5.8-10.7-11.8-11.4c-8.2-0.9-15.1,5.5-15.1,13.5c0,4.3,2,8.2,5.2,10.6l0,0c0,0-3,12.4-4.8,19.9c-0.8,3.2-3.7,5.5-7,5.5
		h-16.8c-4.2,0-7.7-3.5-7.7-7.7v-53.1"/>
</g>
<g>
	<path class="st9" d="M332.4-63.3c1.7,0.6,3.7,0.2,5-1.1c1.4-1.4,1.7-3.3,1.1-5l-2.4,2.4c-0.3,0.3-0.8,0.3-1.1,0l-1.8-1.8
		c-0.3-0.3-0.3-0.8,0-1.1l2.4-2.4c-1.7-0.6-3.7-0.2-5,1.1c-1.4,1.4-1.7,3.3-1.1,5l-7.4,7.4c-1.7-0.6-3.7-0.2-5,1.1
		c-1.4,1.4-1.7,3.3-1.1,5l2.4-2.4c0.3-0.3,0.8-0.3,1.1,0l1.8,1.8c0.3,0.3,0.3,0.8,0,1.1l-2.4,2.4c1.7,0.6,3.7,0.2,5-1.1
		c1.4-1.4,1.7-3.3,1.1-5l2.2-2.2"/>
	<path class="st9" d="M327.2-58.1l-5.8-6.2c-1-1-2.7-1-3.7,0c-0.9,0.9-1,2.4-0.2,3.4l-2,1.3c0,0-3.2-4.8,0.5-8.5
		c1.3-1.3,2.5-2.5,3.6-3.6c0.3,0.1,0.7,0.1,1,0.2c0.3,0.1,0.6-0.2,0.5-0.5l-0.2-1l1.7-1.7l4.6,4.6l-1.6,1.6c-0.5-0.5-1.3-0.5-1.7,0
		c-0.5,0.5-0.5,1.3,0,1.7l12.8,11.9c0.1,0.1,0.2,0.2,0.2,0.2c0.7,0.8,0.7,2,0.1,2.9c-0.9,1.1-2.5,1.2-3.5,0.3c0,0-0.1-0.1-0.1-0.1
		l-4.2-4.4"/>
</g>
<g>
	<path class="st10" d="M648,254.8c-16.8,29.7-59.2,67.7-114.4,99.6c-81.9,47.3-161,63.4-176.8,36c-7.4-12.7,0.3-32.6,18.8-55"/>
	<path class="st10" d="M594.9,208.2c29.3-5.1,50.9-1.9,58.3,11c2.6,4.5,3.3,10,2.3,16.1"/>
	<circle class="st10" cx="652.6" cy="245.3" r="10.5"/>
	<circle class="st10" cx="501.2" cy="276.9" r="132"/>
</g>
<image style="overflow:visible;" width="1600" height="700" xlink:href="../Dropbox (Muuaaa)/Muuaaa Team Folder/Graphic Design_Gabriel/Neptuno/02 Design/images/slide-22.jpg"  transform="matrix(0.4158 0 0 0.4158 211.0996 -237.7403)">
</image>
<image style="overflow:visible;" width="1078" height="516" xlink:href="datacenter-google-1078x516.jpg"  transform="matrix(1 0 0 1 337.4248 -878.7117)">
</image>
<g>
	<g>
		<g>
			<path class="st11" d="M1231.7,223.6c7.8-13.2,12.3-28.7,12.3-45.2c0-49.1-39.8-88.9-88.9-88.9c-49.1,0-88.9,39.8-88.9,88.9
				c0,16,4.2,30.9,11.6,43.9"/>
			<path class="st11" d="M1088,236.6c16.3,18.8,40.3,30.7,67.2,30.7c26.8,0,50.9-11.9,67.2-30.7"/>
			<rect x="1082.6" y="233.4" class="st11" width="45.9" height="3.2"/>
			<g>
				<rect x="1077.9" y="218.3" class="st11" width="55.3" height="15.1"/>
				<line class="st11" x1="1082.4" y1="222.6" x2="1082.4" y2="229.1"/>
				<line class="st11" x1="1085.9" y1="222.6" x2="1085.9" y2="229.1"/>
				<line class="st11" x1="1089.4" y1="222.6" x2="1089.4" y2="229.1"/>
				<line class="st11" x1="1092.9" y1="222.6" x2="1092.9" y2="229.1"/>
				<line class="st11" x1="1096.3" y1="222.6" x2="1096.3" y2="229.1"/>
				<line class="st11" x1="1099.8" y1="222.6" x2="1099.8" y2="229.1"/>
				<circle class="st11" cx="1126.5" cy="225.9" r="2.3"/>
				<circle class="st11" cx="1118.5" cy="225.9" r="2.3"/>
				<circle class="st11" cx="1110.5" cy="225.9" r="2.3"/>
			</g>
			<path class="st11" d="M1087.6,218.3v-19.6c0-1.2,1-2.2,2.2-2.2l0,0c1.2,0,2.2,1,2.2,2.2v19.6"/>
			<path class="st11" d="M1081.7,186.4c2.1-2.1,5-3.4,8.1-3.4"/>
			<path class="st11" d="M1084,189.5c1.5-1.5,3.6-2.4,5.9-2.4"/>
			<path class="st11" d="M1086.2,192.7c0.9-0.9,2.2-1.5,3.6-1.5"/>
			<path class="st11" d="M1098,186.4c-2.1-2.1-5-3.4-8.1-3.4"/>
			<path class="st11" d="M1095.8,189.5c-1.5-1.5-3.6-2.4-5.9-2.4"/>
			<path class="st11" d="M1093.5,192.7c-0.9-0.9-2.2-1.5-3.6-1.5"/>
			<path class="st11" d="M1118.9,218.3v-19.6c0-1.2,1-2.2,2.2-2.2l0,0c1.2,0,2.2,1,2.2,2.2v19.6"/>
			<path class="st11" d="M1113,186.4c2.1-2.1,5-3.4,8.1-3.4"/>
			<path class="st11" d="M1115.3,189.5c1.5-1.5,3.6-2.4,5.9-2.4"/>
			<path class="st11" d="M1117.5,192.7c0.9-0.9,2.2-1.5,3.6-1.5"/>
			<path class="st11" d="M1129.3,186.4c-2.1-2.1-5-3.4-8.1-3.4"/>
			<path class="st11" d="M1127,189.5c-1.5-1.5-3.6-2.4-5.9-2.4"/>
			<path class="st11" d="M1124.8,192.7c-0.9-0.9-2.2-1.5-3.6-1.5"/>
			<rect x="1139.5" y="127.6" class="st11" width="42.5" height="105.8"/>
			<rect x="1145" y="133.2" class="st11" width="31.4" height="8.2"/>
			<rect x="1145" y="141.3" class="st11" width="31.4" height="8.2"/>
			<rect x="1145" y="149.5" class="st11" width="31.4" height="8.2"/>
			<rect x="1145" y="157.6" class="st11" width="31.4" height="8.2"/>
			<rect x="1145" y="165.8" class="st11" width="31.4" height="8.2"/>
			<rect x="1145" y="174" class="st11" width="31.4" height="8.2"/>
			<rect x="1145" y="200.2" class="st11" width="31.4" height="23.2"/>
			<circle class="st11" cx="1160.5" cy="211.8" r="2.8"/>
			<g>
				<rect x="1145" y="189.1" class="st11" width="18.6" height="4.1"/>
				<rect x="1172.4" y="189.1" class="st11" width="4.1" height="4.1"/>
			</g>
			<line class="st11" x1="1157.7" y1="211.8" x2="1145" y2="211.8"/>
			<line class="st11" x1="1163.3" y1="211.8" x2="1175.9" y2="211.8"/>
			<rect x="1139.5" y="233.4" class="st11" width="42.5" height="3.2"/>
			<circle class="st11" cx="1211.2" cy="205.8" r="11.7"/>
			<circle class="st11" cx="1211.2" cy="205.8" r="6.4"/>
			<circle class="st11" cx="1211.2" cy="205.8" r="2.6"/>
			<line class="st11" x1="1211.2" y1="217.6" x2="1211.2" y2="223.6"/>
			<g>
				<rect x="1188.4" y="223.6" class="st11" width="44.1" height="9.8"/>
				<line class="st11" x1="1221.8" y1="228.5" x2="1199.1" y2="228.5"/>
			</g>
			<rect x="1192.1" y="233.4" class="st11" width="36.7" height="3.2"/>
		</g>
	</g>
</g>
<g>
	<linearGradient id="SVGID_3_" gradientUnits="userSpaceOnUse" x1="1293.1437" y1="56.8616" x2="1415.3813" y2="56.8616">
		<stop  offset="0" style="stop-color:#C558A0"/>
		<stop  offset="0.5945" style="stop-color:#7F3E93"/>
		<stop  offset="1" style="stop-color:#532E8B"/>
	</linearGradient>
	<path class="st12" d="M1384.1,34.7l31.3,17.6L1354,86.9l-60.9-34.6l30.8-17.5C1342.6,24.2,1365.4,24.2,1384.1,34.7z"/>
	<path class="st13" d="M1293.1,52.3V56l59.9,34.7c0.4,0.2,0.8,0.2,1.1,0l61.2-34.7v-3.7L1354,86.9L1293.1,52.3z"/>
	<path class="st14" d="M1378.9,4l36.4,20.5L1354,59.1l-60.9-34.6l36-20.4C1344.6-4.6,1363.5-4.7,1378.9,4z"/>
	<path class="st15" d="M1380.6-20.9l34.8,19.6L1354,33.2l-60.9-34.6l34.3-19.5C1343.9-30.2,1364.1-30.2,1380.6-20.9z"/>
	<path class="st16" d="M1293.1-1.3l0.1,3.6L1353,37c0.4,0.2,0.8,0.2,1.2,0l61.2-34.7v-3.6L1354,33.2L1293.1-1.3z"/>
	<path class="st17" d="M1293.1,24.6l0.1,3.6l59.7,34.7c0.4,0.2,0.9,0.2,1.3,0l61.1-34.7v-3.6L1354,59.1L1293.1,24.6z"/>
</g>
<g>
	<g>
		<path class="st18" d="M1834.6-39.7l-76.2,129.5c-1.5,2.5,0.3,5.7,3.3,5.7h61.4c0.7,0,1.3,0.6,1.2,1.4L1810.6,198
			c-0.4,3.3,4,4.9,5.7,2l94.1-155.8c1.4-2.3-0.3-5.2-2.9-5.2h-74.4c-0.7,0-1.3-0.6-1.2-1.3l8-75.7
			C1840.3-41,1836.2-42.4,1834.6-39.7z"/>
	</g>
	<g>
		<g>
			<path class="st1" d="M1695,63.6c-28.5-17-50.1-44.3-59.4-76.2c-9.1-31-6.3-65.2,7.9-94.2c28.1-57.4,95.2-86.9,156.5-68.2
				c35.2,10.7,64.3,36.3,80.3,69.4c2,4.1,8.2,0.5,6.2-3.6c-14.9-30.8-40.8-55.3-72.4-68.3c-31.7-13-68.2-13.7-100.3-1.8
				c-29.8,11.1-55.3,32.3-71.4,59.7c-17.1,29-22.9,63.8-16.6,96.8c7.4,38.7,31.9,72.6,65.7,92.7C1695.4,72.2,1699,66,1695,63.6
				L1695,63.6z"/>
		</g>
	</g>
	<g>
		<g>
			<path class="st1" d="M1884.3-104c47.3-13.1,98.5,12.1,115.3,58.7c15.6,43.4-2.9,92.9-43.1,115.3c-25.3,14.1-55.7,15.3-82.5,4.6
				c-4.3-1.7-6.1,5.2-1.9,6.9c49.2,19.8,107.2-2.1,130.2-50.1c21.5-44.9,6.9-99.8-33.9-128.2c-25-17.4-56.8-22.2-86-14.1
				C1878-109.7,1879.9-102.8,1884.3-104L1884.3-104z"/>
		</g>
	</g>
	<g>
		<g>
			<path class="st1" d="M1876.2,79.7c9.8-16.3,19.7-32.6,29.5-48.9c1.4-2.3-0.4-5.4-3.1-5.4c-27.2,0-54.3,0-81.5,0
				c1.2,1.2,2.4,2.4,3.6,3.6c3.8-28.3,7.6-56.6,11.3-84.9c0.6-4.1,1.1-8.2,1.7-12.3c0.5-3.7-5-4.6-6.7-1.8
				c-10.1,17.3-20.1,34.5-30.2,51.8c-16.1,27.5-32.2,55.1-48.3,82.6c-3.7,6.4-7.5,12.8-11.2,19.2c-1.4,2.3,0.4,5.4,3.1,5.4
				c23,0,46.1,0,69.1,0c-1.2-1.2-2.4-2.4-3.6-3.6c-4.6,34.3-9.2,68.6-13.8,102.9c-0.6,4.8-1.3,9.6-1.9,14.4c-0.5,3.7,5,4.6,6.7,1.8
				c15.8-26.3,31.7-52.5,47.5-78.8c2.3-3.8,4.5-7.5,6.8-11.3c2.4-4-3.8-7.6-6.2-3.6c-15.8,26.3-31.7,52.5-47.5,78.8
				c-2.3,3.8-4.5,7.5-6.8,11.3c2.2,0.6,4.4,1.2,6.7,1.8c4.6-34.3,9.2-68.6,13.8-102.9c0.6-4.8,1.3-9.6,1.9-14.4
				c0.3-1.9-1.8-3.6-3.6-3.6c-23,0-46.1,0-69.1,0c1,1.8,2.1,3.6,3.1,5.4c10.1-17.3,20.1-34.5,30.2-51.8
				c16.1-27.5,32.2-55.1,48.3-82.6c3.7-6.4,7.5-12.8,11.2-19.2c-2.2-0.6-4.4-1.2-6.7-1.8c-3.8,28.3-7.6,56.6-11.3,84.9
				c-0.6,4.1-1.1,8.2-1.7,12.3c-0.3,1.9,1.8,3.6,3.6,3.6c27.2,0,54.3,0,81.5,0c-1-1.8-2.1-3.6-3.1-5.4
				c-9.8,16.3-19.7,32.6-29.5,48.9C1867.6,80.1,1873.8,83.7,1876.2,79.7L1876.2,79.7z"/>
		</g>
	</g>
</g>
<g>
	<g>
		<path class="st18" d="M2765.6,52.6h-73.2c-5.1,0-9.3,4.2-9.3,9.3v51.7c0,5.1,4.2,9.3,9.3,9.3h73.2c5.1,0,9.3-4.2,9.3-9.3V61.8
			C2774.9,56.7,2770.7,52.6,2765.6,52.6z M2740.8,106.7c0.3,1.2-0.6,2.3-1.8,2.3h-20.1c-1.2,0-2.1-1.1-1.8-2.3l4.5-18.8
			c-2.8-2.2-4.7-5.6-4.7-9.5c0-7.5,6.8-13.4,14.6-11.8c4.7,1,8.4,4.8,9.2,9.5c0.9,4.8-1.1,9.1-4.5,11.8L2740.8,106.7z"/>
	</g>
</g>
<g>
	<path class="st18" d="M2840.5-98.9l-53.6,10.6c-0.6,0.1-1.3-0.1-1.7-0.6l-27.2-30.3c-1-1.1-0.4-2.8,1-3.1l73.9-14.6
		c1-0.2,2,0.5,2.2,1.5l6.9,34.3C2842.2-100.1,2841.6-99.1,2840.5-98.9z"/>
</g>
<g>
	<path class="st18" d="M2606.3-98.9l53.6,10.6c0.6,0.1,1.3-0.1,1.7-0.6l27.2-30.3c1-1.1,0.4-2.8-1-3.1l-73.9-14.6
		c-1-0.2-2,0.5-2.2,1.5l-6.9,34.3C2604.6-100.1,2605.3-99.1,2606.3-98.9z"/>
</g>
<g>
	<g>
		<path class="st18" d="M2813-30.3c-49.5,0-85.9-23.3-85.9-23.3s-36.4,23.3-85.9,23.3h-8.2V80.4c0,83.8,94.1,116.3,94.1,116.3
			s94.1-32.4,94.1-116.3V-30.3H2813z M2808.4,80.4c0,63.9-64.1,95.2-81.3,102.4c-17.2-7.2-81.3-38.5-81.3-102.4v-97.9
			c38.1-1,68.2-14.5,81.3-21.4c13,6.9,43.1,20.3,81.3,21.4V80.4z"/>
	</g>
</g>
<circle class="st19" cx="2630.8" cy="-73.9" r="8.3"/>
<line class="st19" x1="2630.8" y1="-82.3" x2="2630.8" y2="-98.9"/>
<line class="st19" x1="2622.5" y1="-73.9" x2="2551.5" y2="-73.9"/>
<line class="st19" x1="2615.7" y1="-130.8" x2="2639.2" y2="-126.2"/>
<polyline class="st19" points="2679.3,-118.3 2688.3,-116.5 2684.8,-99.3 2665.6,-103.1 "/>
<polygon class="st19" points="2600.7,-104.9 2657.2,-93.7 2687.3,-127.2 2608.4,-142.8 "/>
<circle class="st19" cx="2816" cy="-73.9" r="8.3"/>
<path class="st19" d="M2816-82.3v-16.7V-82.3z"/>
<path class="st19" d="M2824.3-73.9h71H2824.3z"/>
<line class="st19" x1="2831.1" y1="-130.8" x2="2807.6" y2="-126.2"/>
<polygon class="st19" points="2767.5,-118.3 2758.5,-116.5 2762,-99.3 2781.2,-103.1 "/>
<polygon class="st19" points="2846.1,-104.9 2789.6,-93.7 2759.5,-127.2 2838.4,-142.8 "/>
<path class="st19" d="M2795,141.7c63.4-27.6,107.7-90.9,107.7-164.5c0-99-80.3-179.3-179.3-179.3s-179.3,80.3-179.3,179.3
	c0,73.6,44.3,136.8,107.7,164.5"/>
<path class="st19" d="M2723.4,192.9c0,0,94.1-32.4,94.1-116.3V-34h-8.2c-49.5,0-85.9-23.3-85.9-23.3S2687-34,2637.5-34h-8.2V76.7
	C2629.3,160.5,2723.4,192.9,2723.4,192.9z"/>
<path class="st19" d="M2723.4,179.1c-17.2-7.2-81.3-38.5-81.3-102.4v-97.9c38.1-1,68.2-14.5,81.3-21.4c13,6.9,43.1,20.3,81.3,21.4
	v97.9C2804.7,140.6,2740.6,171.9,2723.4,179.1z"/>
<path class="st19" d="M2760,117.3h-73.2c-5.1,0-9.3-4.2-9.3-9.3V56.3c0-5.1,4.2-9.3,9.3-9.3h73.2c5.1,0,9.3,4.2,9.3,9.3V108
	C2769.3,113.1,2765.1,117.3,2760,117.3z"/>
<path class="st19" d="M2735.2,101.1l-4.5-18.8c3.4-2.6,5.4-7,4.5-11.8c-0.9-4.7-4.6-8.5-9.2-9.5c-7.8-1.6-14.6,4.3-14.6,11.8
	c0,3.9,1.9,7.3,4.7,9.5l-4.5,18.8c-0.3,1.2,0.6,2.3,1.8,2.3h20.1C2734.6,103.4,2735.5,102.3,2735.2,101.1z"/>
<path class="st19" d="M2754.4,47c0,0,0-23.8,0-23.8c0-17.1-13.9-31-31-31c-17.1,0-31,13.9-31,31V47H2754.4z"/>
<path class="st19" d="M3217,141.7c63.4-27.6,107.7-90.9,107.7-164.5c0-99-80.3-179.3-179.3-179.3s-179.3,80.3-179.3,179.3
	c0,73.6,44.3,136.8,107.7,164.5"/>
<g>
	<path class="st19" d="M3193.7-33.4c15,5.4,32.4,2.1,44.4-9.9s15.3-29.4,9.9-44.4l-21.3,21.3c-2.7,2.7-7,2.7-9.7,0l-15.9-15.9
		c-2.7-2.7-2.7-7,0-9.7l21.3-21.3c-15-5.4-32.4-2.1-44.4,9.9c-12,12-15.3,29.4-9.9,44.4l-65,65c-15-5.4-32.4-2.1-44.4,9.9
		s-15.3,29.4-9.9,44.4l21.3-21.3c2.7-2.7,7-2.7,9.7,0l15.9,15.9c2.7,2.7,2.7,7,0,9.7l-21.3,21.3c15,5.4,32.4,2.1,44.4-9.9
		s15.3-29.4,9.9-44.4l19.2-19.2"/>
	<path class="st19" d="M3147.9,12.4L3097-42.1c-8.9-8.9-23.4-8.9-32.4,0c-8.2,8.2-8.9,21.2-1.9,30.2l-17.9,11.2
		c0,0-28.2-42.3,4-74.5c11.2-11.2,22.2-22.2,31.5-31.5c3,0.5,6.3,1.1,9.1,1.5c2.8,0.5,5.2-1.9,4.7-4.7l-1.5-9.1l14.6-14.6l40.7,40.7
		l-14.4,14.4c-4.2-4.2-11.1-4.2-15.4,0c-4.2,4.2-4.2,11.1,0,15.4l112.7,105.1c0.8,0.7,1.5,1.4,2.2,2.2c6.1,7.1,6.5,17.9,0.8,25.4
		c-7.6,10.1-22.1,10.9-30.7,2.2c-0.3-0.3-0.7-0.7-1-1.1l-36.5-39.2"/>
</g>
<g>
	<path class="st19" d="M3613.9,44.4l-19.2,19.2c5.4,15,2.1,32.4-9.9,44.4s-29.4,15.3-44.4,9.9l21.3-21.3c2.7-2.7,2.7-7,0-9.7
		l-15.9-15.9c-2.7-2.7-7-2.7-9.7,0l-21.3,21.3c-5.4-15-2.1-32.4,9.9-44.4s29.4-15.3,44.4-9.9l65-65c-5.4-15-2.1-32.4,9.9-44.4
		c12-12,29.4-15.3,44.4-9.9l-21.3,21.3c-2.7,2.7-2.7,7,0,9.7l15.9,15.9c2.7,2.7,7,2.7,9.7,0l21.3-21.3c5.4,15,2.1,32.4-9.9,44.4
		s-29.4,15.3-44.4,9.9"/>
	<path class="st19" d="M3613.9,44.4L3563-10.1c-8.9-8.9-23.4-8.9-32.4,0c-8.2,8.2-8.9,21.2-1.9,30.2l-17.9,11.2
		c0,0-28.2-42.3,4-74.5c11.2-11.2,22.2-22.2,31.5-31.5c3,0.5,6.3,1.1,9.1,1.5c2.8,0.5,5.2-1.9,4.7-4.7l-1.5-9.1l14.6-14.6l40.7,40.7
		l-14.4,14.4c-4.2-4.2-11.1-4.2-15.4,0c-4.2,4.2-4.2,11.1,0,15.4l112.7,105.1c0.8,0.7,1.5,1.4,2.2,2.2c6.1,7.1,6.5,17.9,0.8,25.4
		c-7.6,10.1-22.1,10.9-30.7,2.2c-0.3-0.3-0.7-0.7-1-1.1l-36.5-39.2l-0.7,81.4c-64.4,25.3-133,9.1-185.1-42.9
		c-70-70-70-183.6,0-253.6s183.6-70,253.6,0c52,52,65.4,128.1,40.1,192.5"/>
</g>
<g>
	<path class="st20" d="M26.8,6.2V4.9c0-0.5-0.4-0.9-0.9-0.9H14.1l-3.5-3.5H2.3c-1,0-1.8,0.8-1.8,1.8v21.8L6,9.2
		c0.1-0.4,0.5-0.6,0.9-0.6h21.7c0.6,0,1.1,0.6,0.9,1.2l-5,13.8c-0.1,0.4-0.5,0.6-0.9,0.6H3.6"/>
</g>
</svg>
