<?xml version="1.0" encoding="utf-8"?>
<!-- Generator: Adobe Illustrator 21.1.0, SVG Export Plug-In . SVG Version: 6.00 Build 0)  -->
<svg version="1.1" id="Layer_1" xmlns="http://www.w3.org/2000/svg" xmlns:xlink="http://www.w3.org/1999/xlink" x="0px" y="0px"
	 viewBox="0 0 47.6 47.6" style="enable-background:new 0 0 47.6 47.6;" xml:space="preserve">
<style type="text/css">
	.st0{fill:#FFFFFF;}
</style>
<g>
	<g>
		<path class="st0" d="M23.8,47.6C10.7,47.6,0,36.9,0,23.8S10.7,0,23.8,0c13.1,0,23.8,10.7,23.8,23.8S36.9,47.6,23.8,47.6z
			 M23.8,1.7c-12.2,0-22.1,9.9-22.1,22.1s9.9,22.1,22.1,22.1c12.2,0,22.1-9.9,22.1-22.1S36,1.7,23.8,1.7z"/>
	</g>
</g>
<g>
	<g>
		<path class="st0" d="M23.4,47.9C10.3,47.9-0.4,37.2-0.4,24S10.3,0.2,23.4,0.2c13.1,0,23.8,10.7,23.8,23.8S36.5,47.9,23.4,47.9z
			 M23.4,1.9C11.2,1.9,1.3,11.8,1.3,24s9.9,22.1,22.1,22.1c12.2,0,22.1-9.9,22.1-22.1S35.6,1.9,23.4,1.9z"/>
	</g>
</g>
<g>
	<g>
		<g>
			<g>
				<path class="st0" d="M20.1,15.6h-0.4c-0.2,0-0.3-0.1-0.3-0.3s0.1-0.3,0.3-0.3h0.4c0.2,0,0.3,0.1,0.3,0.3S20.3,15.6,20.1,15.6z"
					/>
			</g>
		</g>
		<g>
			<g>
				<path class="st0" d="M18.5,15.6h-0.4c-0.2,0-0.3-0.1-0.3-0.3s0.1-0.3,0.3-0.3h0.4c0.2,0,0.3,0.1,0.3,0.3S18.6,15.6,18.5,15.6z"
					/>
			</g>
		</g>
		<g>
			<g>
				<path class="st0" d="M20.1,19.3h-0.4c-0.2,0-0.3-0.1-0.3-0.3s0.1-0.3,0.3-0.3h0.4c0.2,0,0.3,0.1,0.3,0.3S20.3,19.3,20.1,19.3z"
					/>
			</g>
		</g>
		<g>
			<g>
				<path class="st0" d="M18.5,19.3h-0.4c-0.2,0-0.3-0.1-0.3-0.3s0.1-0.3,0.3-0.3h0.4c0.2,0,0.3,0.1,0.3,0.3S18.6,19.3,18.5,19.3z"
					/>
			</g>
		</g>
		<g>
			<g>
				<path class="st0" d="M20.1,22.9h-0.4c-0.2,0-0.3-0.1-0.3-0.3s0.1-0.3,0.3-0.3h0.4c0.2,0,0.3,0.1,0.3,0.3S20.3,22.9,20.1,22.9z"
					/>
			</g>
		</g>
		<g>
			<g>
				<path class="st0" d="M18.5,22.9h-0.4c-0.2,0-0.3-0.1-0.3-0.3s0.1-0.3,0.3-0.3h0.4c0.2,0,0.3,0.1,0.3,0.3S18.6,22.9,18.5,22.9z"
					/>
			</g>
		</g>
		<g>
			<g>
				<path class="st0" d="M20.1,26.5h-0.4c-0.2,0-0.3-0.1-0.3-0.3s0.1-0.3,0.3-0.3h0.4c0.2,0,0.3,0.1,0.3,0.3S20.3,26.5,20.1,26.5z"
					/>
			</g>
		</g>
		<g>
			<g>
				<path class="st0" d="M18.5,26.5h-0.4c-0.2,0-0.3-0.1-0.3-0.3s0.1-0.3,0.3-0.3h0.4c0.2,0,0.3,0.1,0.3,0.3S18.6,26.5,18.5,26.5z"
					/>
			</g>
		</g>
		<g>
			<g>
				<g>
					<path class="st0" d="M32.5,24.7H16.5c-1.1,0-2-0.9-2-2v-0.2c0-1.1,0.9-2,2-2h16.1c1.1,0,2,0.9,2,2v0.2
						C34.5,23.8,33.6,24.7,32.5,24.7z M16.5,21.1c-0.8,0-1.4,0.6-1.4,1.4v0.2c0,0.8,0.6,1.4,1.4,1.4h16.1c0.8,0,1.4-0.6,1.4-1.4
						v-0.2c0-0.8-0.6-1.4-1.4-1.4H16.5z"/>
				</g>
			</g>
			<g>
				<g>
					<path class="st0" d="M32.5,21.1H16.5c-1.1,0-2-0.9-2-2v-0.2c0-1.1,0.9-2,2-2h16.1c1.1,0,2,0.9,2,2v0.2
						C34.5,20.2,33.6,21.1,32.5,21.1z M16.5,17.4c-0.8,0-1.4,0.6-1.4,1.4v0.2c0,0.8,0.6,1.4,1.4,1.4h16.1c0.8,0,1.4-0.6,1.4-1.4
						v-0.2c0-0.8-0.6-1.4-1.4-1.4H16.5z"/>
				</g>
			</g>
			<g>
				<g>
					<path class="st0" d="M32.5,17.4H16.5c-1.1,0-2-0.9-2-2v-0.2c0-1.1,0.9-2,2-2h16.1c1.1,0,2,0.9,2,2v0.2
						C34.5,16.5,33.6,17.4,32.5,17.4z M16.5,13.8c-0.8,0-1.4,0.6-1.4,1.4v0.2c0,0.8,0.6,1.4,1.4,1.4h16.1c0.8,0,1.4-0.6,1.4-1.4
						v-0.2c0-0.8-0.6-1.4-1.4-1.4H16.5z"/>
				</g>
			</g>
			<g>
				<g>
					<path class="st0" d="M32.4,15.6h-3c-0.2,0-0.3-0.1-0.3-0.3s0.1-0.3,0.3-0.3h3c0.2,0,0.3,0.1,0.3,0.3S32.6,15.6,32.4,15.6z"/>
				</g>
			</g>
			<g>
				<g>
					<path class="st0" d="M32.4,19.3h-3c-0.2,0-0.3-0.1-0.3-0.3s0.1-0.3,0.3-0.3h3c0.2,0,0.3,0.1,0.3,0.3S32.6,19.3,32.4,19.3z"/>
				</g>
			</g>
			<g>
				<g>
					<path class="st0" d="M32.4,22.9h-3c-0.2,0-0.3-0.1-0.3-0.3s0.1-0.3,0.3-0.3h3c0.2,0,0.3,0.1,0.3,0.3S32.6,22.9,32.4,22.9z"/>
				</g>
			</g>
			<g>
				<g>
					<path class="st0" d="M32.5,28.3H16.5c-1.1,0-2-0.9-2-2v-0.2c0-1.1,0.9-2,2-2h16.1c1.1,0,2,0.9,2,2v0.2
						C34.5,27.4,33.6,28.3,32.5,28.3z M16.5,24.7c-0.8,0-1.4,0.6-1.4,1.4v0.2c0,0.8,0.6,1.4,1.4,1.4h16.1c0.8,0,1.4-0.6,1.4-1.4
						v-0.2c0-0.8-0.6-1.4-1.4-1.4H16.5z"/>
				</g>
			</g>
			<g>
				<g>
					<path class="st0" d="M32.4,26.5h-3c-0.2,0-0.3-0.1-0.3-0.3s0.1-0.3,0.3-0.3h3c0.2,0,0.3,0.1,0.3,0.3S32.6,26.5,32.4,26.5z"/>
				</g>
			</g>
			<g>
				<g>
					<path class="st0" d="M25.1,15.6h-0.4c-0.2,0-0.3-0.1-0.3-0.3s0.1-0.3,0.3-0.3h0.4c0.2,0,0.3,0.1,0.3,0.3S25.3,15.6,25.1,15.6z"
						/>
				</g>
			</g>
			<g>
				<g>
					<path class="st0" d="M23.5,15.6h-0.4c-0.2,0-0.3-0.1-0.3-0.3s0.1-0.3,0.3-0.3h0.4c0.2,0,0.3,0.1,0.3,0.3S23.6,15.6,23.5,15.6z"
						/>
				</g>
			</g>
			<g>
				<g>
					<path class="st0" d="M21.8,15.6h-0.4c-0.2,0-0.3-0.1-0.3-0.3s0.1-0.3,0.3-0.3h0.4c0.2,0,0.3,0.1,0.3,0.3S22,15.6,21.8,15.6z"/>
				</g>
			</g>
			<g>
				<g>
					<path class="st0" d="M25.1,19.3h-0.4c-0.2,0-0.3-0.1-0.3-0.3s0.1-0.3,0.3-0.3h0.4c0.2,0,0.3,0.1,0.3,0.3S25.3,19.3,25.1,19.3z"
						/>
				</g>
			</g>
			<g>
				<g>
					<path class="st0" d="M23.5,19.3h-0.4c-0.2,0-0.3-0.1-0.3-0.3s0.1-0.3,0.3-0.3h0.4c0.2,0,0.3,0.1,0.3,0.3S23.6,19.3,23.5,19.3z"
						/>
				</g>
			</g>
			<g>
				<g>
					<path class="st0" d="M21.8,19.3h-0.4c-0.2,0-0.3-0.1-0.3-0.3s0.1-0.3,0.3-0.3h0.4c0.2,0,0.3,0.1,0.3,0.3S22,19.3,21.8,19.3z"/>
				</g>
			</g>
			<g>
				<g>
					<path class="st0" d="M25.1,22.9h-0.4c-0.2,0-0.3-0.1-0.3-0.3s0.1-0.3,0.3-0.3h0.4c0.2,0,0.3,0.1,0.3,0.3S25.3,22.9,25.1,22.9z"
						/>
				</g>
			</g>
			<g>
				<g>
					<path class="st0" d="M23.5,22.9h-0.4c-0.2,0-0.3-0.1-0.3-0.3s0.1-0.3,0.3-0.3h0.4c0.2,0,0.3,0.1,0.3,0.3S23.6,22.9,23.5,22.9z"
						/>
				</g>
			</g>
			<g>
				<g>
					<path class="st0" d="M21.8,22.9h-0.4c-0.2,0-0.3-0.1-0.3-0.3s0.1-0.3,0.3-0.3h0.4c0.2,0,0.3,0.1,0.3,0.3S22,22.9,21.8,22.9z"/>
				</g>
			</g>
			<g>
				<g>
					<path class="st0" d="M25.1,26.5h-0.4c-0.2,0-0.3-0.1-0.3-0.3s0.1-0.3,0.3-0.3h0.4c0.2,0,0.3,0.1,0.3,0.3S25.3,26.5,25.1,26.5z"
						/>
				</g>
			</g>
			<g>
				<g>
					<path class="st0" d="M23.5,26.5h-0.4c-0.2,0-0.3-0.1-0.3-0.3s0.1-0.3,0.3-0.3h0.4c0.2,0,0.3,0.1,0.3,0.3S23.6,26.5,23.5,26.5z"
						/>
				</g>
			</g>
			<g>
				<g>
					<path class="st0" d="M21.8,26.5h-0.4c-0.2,0-0.3-0.1-0.3-0.3s0.1-0.3,0.3-0.3h0.4c0.2,0,0.3,0.1,0.3,0.3S22,26.5,21.8,26.5z"/>
				</g>
			</g>
			<g>
				<g>
					<path class="st0" d="M32.5,32H16.5c-1.1,0-2-0.9-2-2v-0.2c0-1.1,0.9-2,2-2h16.1c1.1,0,2,0.9,2,2V30C34.5,31.1,33.6,32,32.5,32z
						 M16.5,28.3c-0.8,0-1.4,0.6-1.4,1.4V30c0,0.8,0.6,1.4,1.4,1.4h16.1c0.8,0,1.4-0.6,1.4-1.4v-0.2c0-0.8-0.6-1.4-1.4-1.4H16.5z"/>
				</g>
			</g>
		</g>
		<g>
			<g>
				<path class="st0" d="M32.4,30.2h-3c-0.2,0-0.3-0.1-0.3-0.3s0.1-0.3,0.3-0.3h3c0.2,0,0.3,0.1,0.3,0.3S32.6,30.2,32.4,30.2z"/>
			</g>
		</g>
		<g>
			<g>
				<path class="st0" d="M25.1,30.2h-0.4c-0.2,0-0.3-0.1-0.3-0.3s0.1-0.3,0.3-0.3h0.4c0.2,0,0.3,0.1,0.3,0.3S25.3,30.2,25.1,30.2z"
					/>
			</g>
		</g>
		<g>
			<g>
				<path class="st0" d="M23.5,30.2h-0.4c-0.2,0-0.3-0.1-0.3-0.3s0.1-0.3,0.3-0.3h0.4c0.2,0,0.3,0.1,0.3,0.3S23.6,30.2,23.5,30.2z"
					/>
			</g>
		</g>
		<g>
			<g>
				<path class="st0" d="M21.8,30.2h-0.4c-0.2,0-0.3-0.1-0.3-0.3s0.1-0.3,0.3-0.3h0.4c0.2,0,0.3,0.1,0.3,0.3S22,30.2,21.8,30.2z"/>
			</g>
		</g>
		<g>
			<g>
				<path class="st0" d="M20.1,30.2h-0.4c-0.2,0-0.3-0.1-0.3-0.3s0.1-0.3,0.3-0.3h0.4c0.2,0,0.3,0.1,0.3,0.3S20.3,30.2,20.1,30.2z"
					/>
			</g>
		</g>
		<g>
			<g>
				<path class="st0" d="M18.5,30.2h-0.4c-0.2,0-0.3-0.1-0.3-0.3s0.1-0.3,0.3-0.3h0.4c0.2,0,0.3,0.1,0.3,0.3S18.6,30.2,18.5,30.2z"
					/>
			</g>
		</g>
	</g>
	<g>
		<g>
			<path class="st0" d="M36.2,34.3H13c-1.4,0-2.5-1.1-2.5-2.5V17c0-0.7-0.3-1.3-0.9-1.6l-2.9-1.8c-0.3-0.2-0.4-0.6-0.2-0.9
				c0.2-0.3,0.6-0.4,0.9-0.2l2.9,1.8c0.9,0.6,1.5,1.6,1.5,2.7v14.7c0,0.7,0.6,1.3,1.3,1.3h23.2c0.4,0,0.6,0.3,0.6,0.6
				C36.8,34,36.6,34.3,36.2,34.3z"/>
		</g>
	</g>
	<g>
		<g>
			<path class="st0" d="M17,38.9c-1.6,0-2.9-1.3-2.9-2.9c0-1.6,1.3-2.9,2.9-2.9c1.6,0,2.9,1.3,2.9,2.9C20,37.6,18.6,38.9,17,38.9z
				 M17,34.3c-0.9,0-1.7,0.7-1.7,1.7s0.7,1.7,1.7,1.7c0.9,0,1.7-0.7,1.7-1.7S17.9,34.3,17,34.3z"/>
		</g>
	</g>
	<g>
		<g>
			<path class="st0" d="M30.8,38.9c-1.6,0-2.9-1.3-2.9-2.9c0-1.6,1.3-2.9,2.9-2.9c1.6,0,2.9,1.3,2.9,2.9
				C33.8,37.6,32.5,38.9,30.8,38.9z M30.8,34.3c-0.9,0-1.7,0.7-1.7,1.7s0.7,1.7,1.7,1.7c0.9,0,1.7-0.7,1.7-1.7S31.8,34.3,30.8,34.3z
				"/>
		</g>
	</g>
</g>
</svg>
