<?xml version="1.0" encoding="utf-8"?>
<!-- Generator: Adobe Illustrator 21.1.0, SVG Export Plug-In . SVG Version: 6.00 Build 0)  -->
<svg version="1.1" id="Layer_1" xmlns="http://www.w3.org/2000/svg" xmlns:xlink="http://www.w3.org/1999/xlink" x="0px" y="0px"
	 viewBox="0 0 47.6 47.6" style="enable-background:new 0 0 47.6 47.6;" xml:space="preserve">
<style type="text/css">
	.st0{fill:none;stroke:#662F8F;stroke-width:4;stroke-linecap:round;stroke-linejoin:round;stroke-miterlimit:10;}
	.st1{fill:#662F8F;}
	.st2{fill:none;stroke:#662F8F;stroke-width:2;stroke-linecap:round;stroke-linejoin:round;stroke-miterlimit:10;}
	.st3{fill:none;stroke:#FFFFFF;stroke-width:0.488;stroke-linecap:round;stroke-linejoin:round;stroke-miterlimit:10;}
	.st4{fill:none;stroke:#E73E51;stroke-width:1.6927;}
	.st5{fill:none;stroke:#E73E51;stroke-width:1.1285;stroke-linecap:round;stroke-linejoin:round;stroke-miterlimit:10;}
	.st6{fill:#E73E51;}
	
		.st7{clip-path:url(#SVGID_2_);fill:none;stroke:#E73E51;stroke-width:1.1285;stroke-linecap:round;stroke-linejoin:round;stroke-miterlimit:10;}
	.st8{fill:none;stroke:#EE4050;stroke-width:1.1285;stroke-linecap:round;stroke-linejoin:round;stroke-miterlimit:10;}
	.st9{fill:none;stroke:#FFFFFF;stroke-width:0.574;stroke-linecap:round;stroke-linejoin:round;stroke-miterlimit:10;}
	.st10{fill:none;stroke:#A491C4;stroke-width:0.5657;stroke-miterlimit:10;}
	.st11{fill:none;stroke:#F7F8F9;stroke-width:1.2708;stroke-miterlimit:10;}
	.st12{fill:url(#SVGID_3_);}
	.st13{fill:#9289C1;}
	.st14{fill:#F79F7C;}
	.st15{fill:#EF619B;}
	.st16{fill:#F28BB9;}
	.st17{fill:#FABEA9;}
	.st18{fill:#F37B8A;}
	.st19{fill:none;stroke:#633493;stroke-width:5.1599;stroke-linecap:round;stroke-linejoin:round;stroke-miterlimit:10;}
	.st20{fill:none;stroke:#FFFFFF;stroke-width:1.0098;stroke-linecap:round;stroke-linejoin:round;stroke-miterlimit:10;}
	.st21{fill:none;stroke:#662F8F;stroke-width:1.5111;stroke-linecap:round;stroke-linejoin:round;stroke-miterlimit:10;}
	.st22{fill:none;stroke:#FFFFFF;stroke-width:1.6611;stroke-linecap:round;stroke-linejoin:round;stroke-miterlimit:10;}
	.st23{fill:none;stroke:#662F8F;stroke-width:0.75;stroke-miterlimit:10;}
	.st24{fill:none;stroke:#E73E51;stroke-width:0.9998;stroke-linecap:round;stroke-linejoin:round;stroke-miterlimit:10;}
	.st25{fill:none;}
	.st26{fill:#EE4050;}
</style>
<g>
	<path class="st0" d="M-583.1-417.3c9.6-9.6,22.8-15.5,37.3-15.5"/>
	<path class="st0" d="M-568.7-402.9c5.9-5.9,14-9.5,23-9.5"/>
	<path class="st0" d="M-611.9-446.1c17.7-17.7,41.2-27.4,66.1-27.4c25,0,48.4,9.7,66.1,27.4"/>
	<path class="st0" d="M-494-431.7c-13.3-13.3-31.6-21.5-51.7-21.5c-20.2,0-38.5,8.2-51.7,21.5"/>
	<path class="st0" d="M-508.4-417.3c-9.6-9.6-22.8-15.5-37.3-15.5"/>
	<path class="st0" d="M-522.8-402.9c-5.9-5.9-14-9.5-23-9.5"/>
	<path class="st0" d="M-537.2-371.4c-2.2,2.2-5.2,3.5-8.6,3.5c-6.7,0-12.1-5.4-12.1-12.1s5.4-12.1,12.1-12.1c3.3,0,6.4,1.4,8.6,3.5"
		/>
	<path class="st0" d="M-494-431.7c4,4,4,10.4,0,14.4c-4,4-10.4,4-14.4,0"/>
	<path class="st0" d="M-568.7-402.9c-4,4-10.4,4-14.4,0c-4-4-4-10.4,0-14.4"/>
	<path class="st0" d="M-522.8-402.9c4,4,4,10.4,0,14.4c-4,4-10.4,4-14.4,0"/>
	<path class="st0" d="M-597.5-431.7c-4,4-10.4,4-14.4,0c-4-4-4-10.4,0-14.4"/>
</g>
<g>
	<path class="st1" d="M-400-483.2c-28.7,0-52,23.3-52,52s23.3,52,52,52s52-23.3,52-52S-371.3-483.2-400-483.2z M-400-382.9
		c-26.6,0-48.3-21.7-48.3-48.3s21.7-48.3,48.3-48.3s48.3,21.7,48.3,48.3S-373.4-382.9-400-382.9z"/>
	<path class="st1" d="M-363.4-437c-4.8-4.7-10.4-8.3-16.4-10.7c0-0.3,0.1-0.7,0.1-1c0-11.1-9-20.2-20.2-20.2s-20.2,9-20.2,20.2
		c0,0.6,0,1.1,0.1,1.7c-5.5,2.4-10.5,5.8-14.9,10.1c0,0-0.1,0.1-0.1,0.1c-1.2,1.2-1.8,2.8-1.8,4.5c0,1.7,0.7,3.4,1.9,4.6
		c2.6,2.5,6.7,2.5,9.3,0c0,0,0,0,0,0c3.2-3.1,6.8-5.6,10.8-7.4c2.3,2.5,5.2,4.5,8.5,5.5c-5,1.2-9.6,3.7-13.4,7.4
		c0,0-0.1,0.1-0.1,0.1c-1.3,1.2-1.9,2.9-1.9,4.6c0,1.7,0.7,3.4,1.9,4.6c2.6,2.5,6.7,2.5,9.3,0c0,0,0,0,0,0h0c3-2.9,7-4.5,11.3-4.5
		c4.3,0,8.3,1.6,11.3,4.5c0,0,0,0,0,0c0.8,0.8,1.2,1.8,1.2,2.8c0,1.1-0.4,2.1-1.2,2.8c-1.6,1.6-4.3,1.6-5.9,0c0,0-0.1-0.1-0.1-0.1
		c-1.4-1.3-3.3-2.1-5.3-2.1c-4.2,0-7.6,3.3-7.6,7.5c0,4.1,3.4,7.5,7.6,7.5c2,0,3.9-0.8,5.4-2.2c0.5-0.5,0.5-1.3,0-1.7
		c-0.5-0.5-1.3-0.5-1.7,0c-1,1-2.3,1.5-3.7,1.5c-2.8,0-5.2-2.2-5.2-5c0-2.8,2.3-5,5.2-5c1.4,0,2.7,0.5,3.7,1.5c0,0,0.1,0.1,0.1,0.1
		c2.6,2.4,6.7,2.4,9.2-0.1c1.3-1.2,1.9-2.9,1.9-4.6s-0.7-3.4-1.9-4.6c0,0,0,0,0,0c-3.5-3.4-8.1-5.2-13-5.2c-4.9,0-9.5,1.9-13,5.2
		c0,0,0,0,0,0c-1.6,1.6-4.3,1.6-5.9,0c-0.8-0.8-1.2-1.8-1.2-2.8c0-1,0.4-2,1.1-2.7c0,0,0.1-0.1,0.1-0.1c5-4.9,11.7-7.6,18.8-7.6
		c7.1,0,13.8,2.7,18.8,7.6c0,0,0,0,0,0c2.6,2.5,6.7,2.5,9.3,0c1.3-1.2,1.9-2.9,1.9-4.6c0-1.7-0.7-3.4-1.9-4.6c0,0,0,0,0,0
		c-3.6-3.5-7.7-6.2-12.1-8.1c1.5-2.2,2.5-4.8,3-7.5c5.5,2.3,10.6,5.7,15,9.9c0.5,0.5,1.3,0.5,1.7,0
		C-362.9-435.8-363-436.6-363.4-437z M-427.4-429.6C-427.4-429.6-427.4-429.6-427.4-429.6c-1.6,1.6-4.3,1.6-5.9,0
		c-0.8-0.8-1.2-1.8-1.2-2.8c0-1.1,0.4-2.1,1.2-2.8c0,0,0.1-0.1,0.1-0.1c4-3.9,8.5-6.9,13.5-9.2c0.6,2.7,1.7,5.2,3.3,7.4
		C-420.4-435.3-424.1-432.8-427.4-429.6z M-372.8-427.8C-372.8-427.8-372.8-427.8-372.8-427.8c0.8,0.8,1.2,1.8,1.2,2.8
		c0,1.1-0.4,2.1-1.2,2.8c-1.6,1.6-4.3,1.6-5.9,0c0,0,0,0,0,0c-4-3.9-9-6.5-14.4-7.7c3.3-1.2,6.1-3.2,8.4-5.8
		C-380.3-433.9-376.2-431.2-372.8-427.8z M-400-431.1c-9.8,0-17.7-7.9-17.7-17.7c0-9.8,7.9-17.7,17.7-17.7s17.7,7.9,17.7,17.7
		C-382.3-439-390.2-431.1-400-431.1z"/>
	<path class="st1" d="M-407.6-450.1h-1.9l0.1-3.7h5.6v-1.5h-7.1l-0.2,6.6h2.9c2.5,0,3.4,1.1,3.4,2.5c0,1.4-1,2.5-2.8,2.5
		c-1.3,0-2.5-0.6-3.4-1.6l-1,1c1.1,1.3,2.6,2,4.4,2c2.4,0,4.5-1.5,4.5-4.2C-403.1-448.4-404.6-450.1-407.6-450.1z"/>
	<path class="st1" d="M-393.7-449.3v1.5h3.9c-0.3,2.5-1.9,4.1-4.5,4.1c-2.8,0-4.9-2.1-4.9-5.1c0-3,2.2-5.1,5-5.1
		c1.6,0,2.9,0.7,3.8,1.7l1.2-1.2c-1.2-1.3-3-2.1-5-2.1c-3.9,0-6.7,2.8-6.7,6.7c0,4.2,3.2,6.7,6.6,6.7c3.9,0,6.3-3,6.3-6.7
		c0-0.1,0-0.3,0-0.4H-393.7z"/>
</g>
<g>
	<line class="st2" x1="-268.1" y1="-397.5" x2="-268.1" y2="-388.9"/>
	<path class="st2" d="M-281.8-388.9c-2.8,0-5.2-2.3-5.2-5.2v-77.8c0-2.8,2.3-5.2,5.2-5.2h69.9c2.8,0,5.2,2.3,5.2,5.2v77.8
		c0,2.8-2.3,5.2-5.2,5.2h-56.2"/>
	<path class="st2" d="M-268.1-397.5h-5c-2.8,0-5.2-2.3-5.2-5.2v-60.4c0-2.8,2.3-5.2,5.2-5.2h10.1c2.8,0,5.2,2.3,5.2,5.2v60.4"/>
	<g>
		<g>
			<circle class="st2" cx="-246.1" cy="-447.7" r="3.8"/>
			<circle class="st2" cx="-232.2" cy="-447.7" r="3.8"/>
			<circle class="st2" cx="-218.3" cy="-447.7" r="3.8"/>
			<circle class="st2" cx="-246.1" cy="-433.8" r="3.8"/>
			<circle class="st2" cx="-232.2" cy="-433.8" r="3.8"/>
			<circle class="st2" cx="-218.3" cy="-433.8" r="3.8"/>
			<circle class="st2" cx="-246.1" cy="-419.9" r="3.8"/>
			<circle class="st2" cx="-232.2" cy="-419.9" r="3.8"/>
			<circle class="st2" cx="-218.3" cy="-419.9" r="3.8"/>
			<circle class="st2" cx="-246.1" cy="-406" r="3.8"/>
			<circle class="st2" cx="-232.2" cy="-406" r="3.8"/>
			<circle class="st2" cx="-218.3" cy="-406" r="3.8"/>
		</g>
		<line class="st2" x1="-249.9" y1="-463.7" x2="-214.6" y2="-463.7"/>
	</g>
</g>
<g>
	<path class="st3" d="M-350.8-285.1v-1c0-2.7-2.1-4.9-4.8-5c-2.8-0.1-5.1,2.2-5.1,4.9l0,3.8h10.9c0.7,0,1.3,0.6,1.3,1.3v8.6
		c0,0.7-0.6,1.3-1.3,1.3h-2.7c-0.5,0-1-0.4-1.1-0.9l-0.8-3.2v0c0.6-0.5,0.9-1.2,0.8-2.1c-0.1-1-1-1.7-1.9-1.9
		c-1.3-0.1-2.5,0.9-2.5,2.2c0,0.7,0.3,1.3,0.8,1.7h0c0,0-0.5,2-0.8,3.2c-0.1,0.5-0.6,0.9-1.1,0.9h-2.7c-0.7,0-1.3-0.6-1.3-1.3v-8.6"
		/>
</g>
<g>
	<circle class="st4" cx="-232.5" cy="-277.8" r="23"/>
	<path class="st5" d="M-255.7-277.9l23.2-0.1 M-232.5-278v-23.1V-278z M-220.9-278c0,6.4-5.2,11.6-11.6,11.6
		c-6.4,0-11.7-5.2-11.7-11.6c0-6.4,5.2-11.6,11.7-11.6C-226.1-289.6-220.9-284.4-220.9-278z M-215.3-278c0,9.5-7.7,17.3-17.3,17.3
		c-9.5,0-17.3-7.7-17.3-17.3c0-9.5,7.7-17.3,17.3-17.3C-223-295.3-215.3-287.5-215.3-278z"/>
	<path class="st6" d="M-248.2-283.3c1.2,0,2.2-1,2.2-2.2c0-1.2-1-2.2-2.2-2.2c-1.2,0-2.2,1-2.2,2.2
		C-250.4-284.2-249.4-283.3-248.2-283.3"/>
</g>
<g>
	<circle class="st4" cx="-290.9" cy="-277.4" r="23"/>
	<path class="st5" d="M-280.2-284.7l7.1,7.2 M-280.2-284.7l-7.1,10.3 M-294.3-270.3l7.1-4.2 M-294.3-270.3l-7.1-9.5 M-308.4-274.8
		l7.1-4.9"/>
	<path class="st6" d="M-303.4-279.8c0-1.2,1-2.1,2.1-2.1s2.1,1,2.1,2.1c0,1.2-1,2.1-2.1,2.1S-303.4-278.6-303.4-279.8"/>
	<path class="st6" d="M-296.4-270.3c0-1.2,1-2.1,2.1-2.1s2.1,1,2.1,2.1c0,1.2-1,2.1-2.1,2.1S-296.4-269.1-296.4-270.3"/>
	<path class="st6" d="M-289.3-274.4c0-1.2,1-2.1,2.1-2.1c1.2,0,2.1,1,2.1,2.1c0,1.2-1,2.1-2.1,2.1
		C-288.4-272.3-289.3-273.3-289.3-274.4"/>
	<path class="st6" d="M-282.3-284.7c0-1.2,1-2.1,2.1-2.1c1.2,0,2.1,1,2.1,2.1c0,1.2-1,2.1-2.1,2.1
		C-281.3-282.6-282.3-283.6-282.3-284.7"/>
	<path class="st6" d="M-275.4-277.6c0-1.2,1-2.1,2.1-2.1c1.2,0,2.1,1,2.1,2.1c0,1.2-1,2.1-2.1,2.1
		C-274.4-275.5-275.4-276.5-275.4-277.6"/>
	<path class="st6" d="M-310.2-275c0-1.2,1-2.1,2.1-2.1c1.2,0,2.1,1,2.1,2.1c0,1.2-1,2.1-2.1,2.1C-309.3-272.9-310.2-273.8-310.2-275
		"/>
</g>
<g>
	<circle class="st4" cx="-182.8" cy="-318.1" r="23"/>
	<g>
		<defs>
			<path id="SVGID_1_" d="M-206.6-318.3c0,12.4,9.6,22.6,21.8,23.5h3.6c11.7-0.9,21.1-10.4,21.8-22.2v-2.7
				c-0.7-12.4-11-22.2-23.6-22.2C-196-341.9-206.6-331.4-206.6-318.3"/>
		</defs>
		<clipPath id="SVGID_2_">
			<use xlink:href="#SVGID_1_"  style="overflow:visible;"/>
		</clipPath>
		<path class="st7" d="M-160-286.8h-12.1c-0.5,0-0.9-0.4-0.9-0.9v-5.2c0-0.5,0.4-0.9,0.9-0.9h12.1c0.5,0,0.9,0.4,0.9,0.9v5.2
			C-159-287.2-159.5-286.8-160-286.8z M-174-286.8h-12.1c-0.5,0-0.9-0.4-0.9-0.9v-5.2c0-0.5,0.4-0.9,0.9-0.9h12.1
			c0.5,0,0.9,0.4,0.9,0.9v5.2C-173-287.2-173.5-286.8-174-286.8z M-187.9-286.8H-200c-0.5,0-0.9-0.4-0.9-0.9v-5.2
			c0-0.5,0.4-0.9,0.9-0.9h12.1c0.5,0,0.9,0.4,0.9,0.9v5.2C-186.9-287.2-187.3-286.8-187.9-286.8z M-201.9-286.8H-214
			c-0.5,0-0.9-0.4-0.9-0.9v-5.2c0-0.5,0.4-0.9,0.9-0.9h12.1c0.5,0,0.9,0.4,0.9,0.9v5.2C-200.9-287.2-201.3-286.8-201.9-286.8z
			 M-152.7-293.8h-12.1c-0.5,0-0.9-0.4-0.9-0.9v-5.2c0-0.5,0.4-0.9,0.9-0.9h12.1c0.5,0,0.9,0.4,0.9,0.9v5.2
			C-151.8-294.3-152.2-293.8-152.7-293.8z M-166.7-293.8h-12.1c-0.5,0-0.9-0.4-0.9-0.9v-5.2c0-0.5,0.4-0.9,0.9-0.9h12.1
			c0.5,0,0.9,0.4,0.9,0.9v5.2C-165.8-294.3-166.2-293.8-166.7-293.8z M-180.6-293.8h-12.1c-0.5,0-0.9-0.4-0.9-0.9v-5.2
			c0-0.5,0.4-0.9,0.9-0.9h12.1c0.5,0,0.9,0.4,0.9,0.9v5.2C-179.7-294.3-180.1-293.8-180.6-293.8z M-194.6-293.8h-12.1
			c-0.5,0-0.9-0.4-0.9-0.9v-5.2c0-0.5,0.4-0.9,0.9-0.9h12.1c0.5,0,0.9,0.4,0.9,0.9v5.2C-193.7-294.3-194.1-293.8-194.6-293.8z
			 M-160-301h-12.1c-0.5,0-0.9-0.4-0.9-0.9v-5.2c0-0.5,0.4-0.9,0.9-0.9h12.1c0.5,0,0.9,0.4,0.9,0.9v5.2
			C-159-301.4-159.5-301-160-301z M-174-301h-12.1c-0.5,0-0.9-0.4-0.9-0.9v-5.2c0-0.5,0.4-0.9,0.9-0.9h12.1c0.5,0,0.9,0.4,0.9,0.9
			v5.2C-173-301.4-173.5-301-174-301z M-187.9-301H-200c-0.5,0-0.9-0.4-0.9-0.9v-5.2c0-0.5,0.4-0.9,0.9-0.9h12.1
			c0.5,0,0.9,0.4,0.9,0.9v5.2C-186.9-301.4-187.3-301-187.9-301z M-201.9-301H-214c-0.5,0-0.9-0.4-0.9-0.9v-5.2
			c0-0.5,0.4-0.9,0.9-0.9h12.1c0.5,0,0.9,0.4,0.9,0.9v5.2C-200.9-301.4-201.3-301-201.9-301z M-152.7-308h-12.1
			c-0.5,0-0.9-0.4-0.9-0.9v-5.2c0-0.5,0.4-0.9,0.9-0.9h12.1c0.5,0,0.9,0.4,0.9,0.9v5.2C-151.8-308.4-152.2-308-152.7-308z
			 M-166.7-308h-12.1c-0.5,0-0.9-0.4-0.9-0.9v-5.2c0-0.5,0.4-0.9,0.9-0.9h12.1c0.5,0,0.9,0.4,0.9,0.9v5.2
			C-165.8-308.4-166.2-308-166.7-308z M-180.6-308h-12.1c-0.5,0-0.9-0.4-0.9-0.9v-5.2c0-0.5,0.4-0.9,0.9-0.9h12.1
			c0.5,0,0.9,0.4,0.9,0.9v5.2C-179.7-308.4-180.1-308-180.6-308z M-194.6-308h-12.1c-0.5,0-0.9-0.4-0.9-0.9v-5.2
			c0-0.5,0.4-0.9,0.9-0.9h12.1c0.5,0,0.9,0.4,0.9,0.9v5.2C-193.7-308.4-194.1-308-194.6-308z M-160-315.2h-12.1
			c-0.5,0-0.9-0.4-0.9-0.9v-5.2c0-0.5,0.4-0.9,0.9-0.9h12.1c0.5,0,0.9,0.4,0.9,0.9v5.2C-159-315.6-159.5-315.2-160-315.2z
			 M-174-315.2h-12.1c-0.5,0-0.9-0.4-0.9-0.9v-5.2c0-0.5,0.4-0.9,0.9-0.9h12.1c0.5,0,0.9,0.4,0.9,0.9v5.2
			C-173-315.6-173.5-315.2-174-315.2z M-187.9-315.2H-200c-0.5,0-0.9-0.4-0.9-0.9v-5.2c0-0.5,0.4-0.9,0.9-0.9h12.1
			c0.5,0,0.9,0.4,0.9,0.9v5.2C-186.9-315.6-187.3-315.2-187.9-315.2z M-201.9-315.2H-214c-0.5,0-0.9-0.4-0.9-0.9v-5.2
			c0-0.5,0.4-0.9,0.9-0.9h12.1c0.5,0,0.9,0.4,0.9,0.9v5.2C-200.9-315.6-201.3-315.2-201.9-315.2z"/>
	</g>
</g>
<circle class="st4" cx="-120.9" cy="-292.7" r="23"/>
<path class="st8" d="M-120.8-283.5c-1.2-0.5-5.6-2.7-5.6-7.1v-6.8c2.6-0.1,4.7-1,5.6-1.5c0.9,0.5,3,1.4,5.6,1.5v6.8
	C-115.2-286.2-119.6-284-120.8-283.5z"/>
<path class="st8" d="M-118.4-288.6h-4.8v-3.5h4.8V-288.6z M-122.3-292.1v-1.4c0-0.8,0.7-1.5,1.5-1.5c0.8,0,1.5,0.7,1.5,1.5v1.4"/>
<path class="st8" d="M-107.1-299.6l0-1.4c0-0.5-0.4-0.9-0.9-0.9l-12.3,0.1l-3.6-3.6l-8.6,0c-1,0-1.9,0.9-1.9,1.9l0.1,22.7h27.2
	V-299.6z"/>
<g>
	<circle class="st4" cx="-54.6" cy="-288.3" r="23"/>
	<path class="st8" d="M-44.2-279.5c0,1.8-1.5,3.3-3.3,3.3c-1.8,0-3.3-1.5-3.3-3.3s1.5-3.3,3.3-3.3
		C-45.7-282.8-44.2-281.3-44.2-279.5z M-48.3-280.4l0.8,2l1.5-3.9 M-63.4-283.4h9.1 M-63.4-286.2h14.7 M-63.4-289.1h14.7
		 M-63.4-291.9h14.7 M-63.4-294.7h9.9 M-63.4-297.5h9.9 M-48.8-303.2h6.9v29.8h-25.2v-29.8H-48.8z"/>
</g>
<circle class="st4" cx="8.1" cy="-283.8" r="23"/>
<path class="st8" d="M7.9-278.7v1.1 M7.9-289.4v7.2 M7.9-298L-6-273.8h27.9L7.9-298z"/>
<circle class="st4" cx="81.6" cy="-283.5" r="23"/>
<path class="st8" d="M81.6-266.1c-2.4-1-11.4-5.4-11.4-14.4v-13.7c5.3-0.1,9.6-2,11.4-3c1.8,1,6,2.8,11.4,3v13.7
	C93-271.5,84.1-267.1,81.6-266.1z"/>
<path class="st8" d="M86.5-276.5h-9.8v-7.1h9.8V-276.5z M78.6-283.5v-2.8c0-1.6,1.3-3,3-3c1.6,0,3,1.3,3,3v2.8"/>
<g>
	<path class="st0" d="M207.5-305.5v-5.9c0-16.5-12.9-30.4-29.4-30.8c-17.1-0.5-31.1,13.2-31.1,30.2l0,23.2h67.2
		c4.2,0,7.7,3.5,7.7,7.7v53.1c0,4.2-3.5,7.7-7.7,7.7c0,0-10.2,0-16.8,0c-3.3,0-6.2-2.3-7-5.5l-4.8-19.9l0,0c3.6-2.9,5.8-7.6,5-12.7
		c-0.9-6-5.8-10.7-11.8-11.4c-8.2-0.9-15.1,5.5-15.1,13.5c0,4.3,2,8.2,5.2,10.6l0,0c0,0-3,12.4-4.8,19.9c-0.8,3.2-3.7,5.5-7,5.5
		h-16.8c-4.2,0-7.7-3.5-7.7-7.7v-53.1"/>
</g>
<g>
	<path class="st9" d="M83.1-216.5c1.7,0.6,3.7,0.2,5-1.1c1.4-1.4,1.7-3.3,1.1-5l-2.4,2.4c-0.3,0.3-0.8,0.3-1.1,0L84-222
		c-0.3-0.3-0.3-0.8,0-1.1l2.4-2.4c-1.7-0.6-3.7-0.2-5,1.1c-1.4,1.4-1.7,3.3-1.1,5l-7.4,7.4c-1.7-0.6-3.7-0.2-5,1.1
		c-1.4,1.4-1.7,3.3-1.1,5l2.4-2.4c0.3-0.3,0.8-0.3,1.1,0l1.8,1.8c0.3,0.3,0.3,0.8,0,1.1l-2.4,2.4c1.7,0.6,3.7,0.2,5-1.1
		c1.4-1.4,1.7-3.3,1.1-5l2.2-2.2"/>
	<path class="st9" d="M77.9-211.2l-5.8-6.2c-1-1-2.7-1-3.7,0c-0.9,0.9-1,2.4-0.2,3.4l-2,1.3c0,0-3.2-4.8,0.5-8.5
		c1.3-1.3,2.5-2.5,3.6-3.6c0.3,0.1,0.7,0.1,1,0.2c0.3,0.1,0.6-0.2,0.5-0.5l-0.2-1l1.7-1.7l4.6,4.6l-1.6,1.6c-0.5-0.5-1.3-0.5-1.7,0
		c-0.5,0.5-0.5,1.3,0,1.7l12.8,11.9c0.1,0.1,0.2,0.2,0.2,0.2c0.7,0.8,0.7,2,0.1,2.9c-0.9,1.1-2.5,1.2-3.5,0.3c0,0-0.1-0.1-0.1-0.1
		l-4.2-4.4"/>
</g>
<g>
	<path class="st10" d="M398.8,101.6c-16.8,29.7-59.2,67.7-114.4,99.6c-81.9,47.3-161,63.4-176.8,36c-7.4-12.7,0.3-32.6,18.8-55"/>
	<path class="st10" d="M345.6,55c29.3-5.1,50.9-1.9,58.3,11c2.6,4.5,3.3,10,2.3,16.1"/>
	<circle class="st10" cx="403.4" cy="92.2" r="10.5"/>
	<circle class="st10" cx="252" cy="123.7" r="132"/>
</g>
<image style="overflow:visible;" width="1600" height="700" xlink:href="../Dropbox (Muuaaa)/Muuaaa Team Folder/Graphic Design_Gabriel/Neptuno/02 Design/images/slide-22.jpg"  transform="matrix(0.4158 0 0 0.4158 -38.1602 -390.8939)">
</image>
<image style="overflow:visible;" width="1078" height="516" xlink:href="datacenter-google-1078x516.jpg"  transform="matrix(1 0 0 1 88.165 -1031.8652)">
</image>
<g>
	<g>
		<g>
			<path class="st11" d="M982.4,70.5c7.8-13.2,12.3-28.7,12.3-45.2c0-49.1-39.8-88.9-88.9-88.9c-49.1,0-88.9,39.8-88.9,88.9
				c0,16,4.2,30.9,11.6,43.9"/>
			<path class="st11" d="M838.7,83.5c16.3,18.8,40.3,30.7,67.2,30.7c26.8,0,50.9-11.9,67.2-30.7"/>
			<rect x="833.3" y="80.3" class="st11" width="45.9" height="3.2"/>
			<g>
				<rect x="828.6" y="65.2" class="st11" width="55.3" height="15.1"/>
				<line class="st11" x1="833.2" y1="69.4" x2="833.2" y2="76"/>
				<line class="st11" x1="836.6" y1="69.4" x2="836.6" y2="76"/>
				<line class="st11" x1="840.1" y1="69.4" x2="840.1" y2="76"/>
				<line class="st11" x1="843.6" y1="69.4" x2="843.6" y2="76"/>
				<line class="st11" x1="847.1" y1="69.4" x2="847.1" y2="76"/>
				<line class="st11" x1="850.5" y1="69.4" x2="850.5" y2="76"/>
				<circle class="st11" cx="877.3" cy="72.7" r="2.3"/>
				<circle class="st11" cx="869.2" cy="72.7" r="2.3"/>
				<circle class="st11" cx="861.2" cy="72.7" r="2.3"/>
			</g>
			<path class="st11" d="M838.4,65.2V45.6c0-1.2,1-2.2,2.2-2.2l0,0c1.2,0,2.2,1,2.2,2.2v19.6"/>
			<path class="st11" d="M832.5,33.2c2.1-2.1,5-3.4,8.1-3.4"/>
			<path class="st11" d="M834.7,36.4c1.5-1.5,3.6-2.4,5.9-2.4"/>
			<path class="st11" d="M837,39.5c0.9-0.9,2.2-1.5,3.6-1.5"/>
			<path class="st11" d="M848.7,33.2c-2.1-2.1-5-3.4-8.1-3.4"/>
			<path class="st11" d="M846.5,36.4c-1.5-1.5-3.6-2.4-5.9-2.4"/>
			<path class="st11" d="M844.2,39.5c-0.9-0.9-2.2-1.5-3.6-1.5"/>
			<path class="st11" d="M869.7,65.2V45.6c0-1.2,1-2.2,2.2-2.2l0,0c1.2,0,2.2,1,2.2,2.2v19.6"/>
			<path class="st11" d="M863.8,33.2c2.1-2.1,5-3.4,8.1-3.4"/>
			<path class="st11" d="M866,36.4c1.5-1.5,3.6-2.4,5.9-2.4"/>
			<path class="st11" d="M868.3,39.5c0.9-0.9,2.2-1.5,3.6-1.5"/>
			<path class="st11" d="M880,33.2c-2.1-2.1-5-3.4-8.1-3.4"/>
			<path class="st11" d="M877.8,36.4c-1.5-1.5-3.6-2.4-5.9-2.4"/>
			<path class="st11" d="M875.5,39.5c-0.9-0.9-2.2-1.5-3.6-1.5"/>
			<rect x="890.2" y="-25.5" class="st11" width="42.5" height="105.8"/>
			<rect x="895.8" y="-20" class="st11" width="31.4" height="8.2"/>
			<rect x="895.8" y="-11.8" class="st11" width="31.4" height="8.2"/>
			<rect x="895.8" y="-3.7" class="st11" width="31.4" height="8.2"/>
			<rect x="895.8" y="4.5" class="st11" width="31.4" height="8.2"/>
			<rect x="895.8" y="12.6" class="st11" width="31.4" height="8.2"/>
			<rect x="895.8" y="20.8" class="st11" width="31.4" height="8.2"/>
			<rect x="895.8" y="47.1" class="st11" width="31.4" height="23.2"/>
			<circle class="st11" cx="911.2" cy="58.7" r="2.8"/>
			<g>
				<rect x="895.8" y="36" class="st11" width="18.6" height="4.1"/>
				<rect x="923.1" y="36" class="st11" width="4.1" height="4.1"/>
			</g>
			<line class="st11" x1="908.4" y1="58.7" x2="895.8" y2="58.7"/>
			<line class="st11" x1="914" y1="58.7" x2="926.7" y2="58.7"/>
			<rect x="890.2" y="80.3" class="st11" width="42.5" height="3.2"/>
			<circle class="st11" cx="962" cy="52.7" r="11.7"/>
			<circle class="st11" cx="962" cy="52.7" r="6.4"/>
			<circle class="st11" cx="962" cy="52.7" r="2.6"/>
			<line class="st11" x1="962" y1="64.4" x2="962" y2="70.5"/>
			<g>
				<rect x="939.1" y="70.5" class="st11" width="44.1" height="9.8"/>
				<line class="st11" x1="972.5" y1="75.4" x2="949.8" y2="75.4"/>
			</g>
			<rect x="942.8" y="80.3" class="st11" width="36.7" height="3.2"/>
		</g>
	</g>
</g>
<g>
	<linearGradient id="SVGID_3_" gradientUnits="userSpaceOnUse" x1="1043.8839" y1="-96.2919" x2="1166.1217" y2="-96.2919">
		<stop  offset="0" style="stop-color:#C558A0"/>
		<stop  offset="0.5945" style="stop-color:#7F3E93"/>
		<stop  offset="1" style="stop-color:#532E8B"/>
	</linearGradient>
	<path class="st12" d="M1134.8-118.4l31.3,17.6l-61.4,34.6l-60.9-34.6l30.8-17.5C1093.3-128.9,1116.2-129,1134.8-118.4z"/>
	<path class="st13" d="M1043.9-100.8v3.6l59.9,34.7c0.4,0.2,0.8,0.2,1.1,0l61.2-34.7v-3.7l-61.4,34.6L1043.9-100.8z"/>
	<path class="st14" d="M1129.7-149.1l36.4,20.5L1104.7-94l-60.9-34.6l36-20.4C1095.3-157.8,1114.2-157.8,1129.7-149.1z"/>
	<path class="st15" d="M1131.3-174.1l34.8,19.6l-61.4,34.6l-60.9-34.6l34.3-19.5C1094.7-183.3,1114.8-183.4,1131.3-174.1z"/>
	<path class="st16" d="M1043.9-154.5l0.1,3.6l59.7,34.7c0.4,0.2,0.8,0.2,1.2,0l61.2-34.7v-3.6l-61.4,34.6L1043.9-154.5z"/>
	<path class="st17" d="M1043.9-128.6l0.1,3.6l59.7,34.7c0.4,0.2,0.9,0.2,1.3,0l61.1-34.7v-3.6L1104.7-94L1043.9-128.6z"/>
</g>
<g>
	<g>
		<path class="st18" d="M1585.3-192.8l-76.2,129.5c-1.5,2.5,0.3,5.7,3.3,5.7h61.4c0.7,0,1.3,0.6,1.2,1.4l-13.6,101.2
			c-0.4,3.3,4,4.9,5.7,2l94.1-155.8c1.4-2.3-0.3-5.2-2.9-5.2h-74.4c-0.7,0-1.3-0.6-1.2-1.3l8-75.7
			C1591-194.2,1586.9-195.5,1585.3-192.8z"/>
	</g>
	<g>
		<g>
			<path class="st1" d="M1445.8-89.5c-28.5-17-50.1-44.3-59.4-76.2c-9.1-31-6.3-65.2,7.9-94.2c28.1-57.4,95.2-86.9,156.5-68.2
				c35.2,10.7,64.3,36.3,80.3,69.4c2,4.1,8.2,0.5,6.2-3.6c-14.9-30.8-40.8-55.3-72.4-68.3c-31.7-13-68.2-13.7-100.3-1.8
				c-29.8,11.1-55.3,32.3-71.4,59.7c-17.1,29-22.9,63.8-16.6,96.8c7.4,38.7,31.9,72.6,65.7,92.7C1446.1-81,1449.7-87.1,1445.8-89.5
				L1445.8-89.5z"/>
		</g>
	</g>
	<g>
		<g>
			<path class="st1" d="M1635.1-257.2c47.3-13.1,98.5,12.1,115.3,58.7c15.6,43.4-2.9,92.9-43.1,115.3c-25.3,14.1-55.7,15.3-82.5,4.6
				c-4.3-1.7-6.1,5.2-1.9,6.9c49.2,19.8,107.2-2.1,130.2-50.1c21.5-44.9,6.9-99.8-33.9-128.2c-25-17.4-56.8-22.2-86-14.1
				C1628.7-262.9,1630.6-255.9,1635.1-257.2L1635.1-257.2z"/>
		</g>
	</g>
	<g>
		<g>
			<path class="st1" d="M1626.9-73.4c9.8-16.3,19.7-32.6,29.5-48.9c1.4-2.3-0.4-5.4-3.1-5.4c-27.2,0-54.3,0-81.5,0
				c1.2,1.2,2.4,2.4,3.6,3.6c3.8-28.3,7.6-56.6,11.3-84.9c0.6-4.1,1.1-8.2,1.7-12.3c0.5-3.7-5-4.6-6.7-1.8
				c-10.1,17.3-20.1,34.5-30.2,51.8c-16.1,27.5-32.2,55.1-48.3,82.6c-3.7,6.4-7.5,12.8-11.2,19.2c-1.4,2.3,0.4,5.4,3.1,5.4
				c23,0,46.1,0,69.1,0c-1.2-1.2-2.4-2.4-3.6-3.6c-4.6,34.3-9.2,68.6-13.8,102.9c-0.6,4.8-1.3,9.6-1.9,14.4c-0.5,3.7,5,4.6,6.7,1.8
				c15.8-26.3,31.7-52.5,47.5-78.8c2.3-3.8,4.5-7.5,6.8-11.3c2.4-4-3.8-7.6-6.2-3.6c-15.8,26.3-31.7,52.5-47.5,78.8
				c-2.3,3.8-4.5,7.5-6.8,11.3c2.2,0.6,4.4,1.2,6.7,1.8c4.6-34.3,9.2-68.6,13.8-102.9c0.6-4.8,1.3-9.6,1.9-14.4
				c0.3-1.9-1.8-3.6-3.6-3.6c-23,0-46.1,0-69.1,0c1,1.8,2.1,3.6,3.1,5.4c10.1-17.3,20.1-34.5,30.2-51.8
				c16.1-27.5,32.2-55.1,48.3-82.6c3.7-6.4,7.5-12.8,11.2-19.2c-2.2-0.6-4.4-1.2-6.7-1.8c-3.8,28.3-7.6,56.6-11.3,84.9
				c-0.6,4.1-1.1,8.2-1.7,12.3c-0.3,1.9,1.8,3.6,3.6,3.6c27.2,0,54.3,0,81.5,0c-1-1.8-2.1-3.6-3.1-5.4
				c-9.8,16.3-19.7,32.6-29.5,48.9C1618.3-73.1,1624.5-69.5,1626.9-73.4L1626.9-73.4z"/>
		</g>
	</g>
</g>
<g>
	<g>
		<path class="st18" d="M2516.3-100.6h-73.2c-5.1,0-9.3,4.2-9.3,9.3v51.7c0,5.1,4.2,9.3,9.3,9.3h73.2c5.1,0,9.3-4.2,9.3-9.3v-51.7
			C2525.6-96.4,2521.4-100.6,2516.3-100.6z M2491.6-46.4c0.3,1.2-0.6,2.3-1.8,2.3h-20.1c-1.2,0-2.1-1.1-1.8-2.3l4.5-18.8
			c-2.8-2.2-4.7-5.6-4.7-9.5c0-7.5,6.8-13.4,14.6-11.8c4.7,1,8.4,4.8,9.2,9.5c0.9,4.8-1.1,9.1-4.5,11.8L2491.6-46.4z"/>
	</g>
</g>
<g>
	<path class="st18" d="M2591.3-252.1l-53.6,10.6c-0.6,0.1-1.3-0.1-1.7-0.6l-27.2-30.3c-1-1.1-0.4-2.8,1-3.1l73.9-14.6
		c1-0.2,2,0.5,2.2,1.5l6.9,34.3C2593-253.3,2592.3-252.3,2591.3-252.1z"/>
</g>
<g>
	<path class="st18" d="M2357-252.1l53.6,10.6c0.6,0.1,1.3-0.1,1.7-0.6l27.2-30.3c1-1.1,0.4-2.8-1-3.1l-73.9-14.6
		c-1-0.2-2,0.5-2.2,1.5l-6.9,34.3C2355.3-253.3,2356-252.3,2357-252.1z"/>
</g>
<g>
	<g>
		<path class="st18" d="M2563.8-183.5c-49.5,0-85.9-23.3-85.9-23.3s-36.4,23.3-85.9,23.3h-8.2v110.7c0,83.8,94.1,116.3,94.1,116.3
			S2572,11.1,2572-72.8v-110.7H2563.8z M2559.1-72.8c0,63.9-64.1,95.2-81.3,102.4c-17.2-7.2-81.3-38.5-81.3-102.4v-97.9
			c38.1-1,68.2-14.5,81.3-21.4c13,6.9,43.1,20.3,81.3,21.4V-72.8z"/>
	</g>
</g>
<circle class="st19" cx="2381.6" cy="-227.1" r="8.3"/>
<line class="st19" x1="2381.6" y1="-235.4" x2="2381.6" y2="-252.1"/>
<line class="st19" x1="2373.2" y1="-227.1" x2="2302.3" y2="-227.1"/>
<line class="st19" x1="2366.4" y1="-284" x2="2389.9" y2="-279.4"/>
<polyline class="st19" points="2430,-271.4 2439,-269.6 2435.5,-252.4 2416.4,-256.2 "/>
<polygon class="st19" points="2351.5,-258 2407.9,-246.9 2438.1,-280.4 2359.1,-296 "/>
<circle class="st19" cx="2566.7" cy="-227.1" r="8.3"/>
<path class="st19" d="M2566.7-235.4v-16.7V-235.4z"/>
<path class="st19" d="M2575.1-227.1h71H2575.1z"/>
<line class="st19" x1="2581.9" y1="-284" x2="2558.4" y2="-279.4"/>
<polygon class="st19" points="2518.3,-271.4 2509.3,-269.6 2512.7,-252.4 2531.9,-256.2 "/>
<polygon class="st19" points="2596.8,-258 2540.3,-246.9 2510.2,-280.4 2589.2,-296 "/>
<path class="st19" d="M2545.7-11.4c63.4-27.6,107.7-90.9,107.7-164.5c0-99-80.3-179.3-179.3-179.3s-179.3,80.3-179.3,179.3
	c0,73.6,44.3,136.8,107.7,164.5"/>
<path class="st19" d="M2474.1,39.8c0,0,94.1-32.4,94.1-116.3v-110.7h-8.2c-49.5,0-85.9-23.3-85.9-23.3s-36.4,23.3-85.9,23.3h-8.2
	v110.7C2380,7.3,2474.1,39.8,2474.1,39.8z"/>
<path class="st19" d="M2474.1,25.9c-17.2-7.2-81.3-38.5-81.3-102.4v-97.9c38.1-1,68.2-14.5,81.3-21.4c13,6.9,43.1,20.3,81.3,21.4
	v97.9C2555.4-12.6,2491.4,18.7,2474.1,25.9z"/>
<path class="st19" d="M2510.7-35.9h-73.2c-5.1,0-9.3-4.2-9.3-9.3v-51.7c0-5.1,4.2-9.3,9.3-9.3h73.2c5.1,0,9.3,4.2,9.3,9.3v51.7
	C2520-40.1,2515.8-35.9,2510.7-35.9z"/>
<path class="st19" d="M2486-52l-4.5-18.8c3.4-2.6,5.4-7,4.5-11.8c-0.9-4.7-4.6-8.5-9.2-9.5c-7.8-1.6-14.6,4.3-14.6,11.8
	c0,3.9,1.9,7.3,4.7,9.5l-4.5,18.8c-0.3,1.2,0.6,2.3,1.8,2.3h20.1C2485.4-49.7,2486.3-50.8,2486-52z"/>
<path class="st19" d="M2505.2-106.2c0,0,0-23.8,0-23.8c0-17.1-13.9-31-31-31c-17.1,0-31,13.9-31,31v23.8H2505.2z"/>
<path class="st19" d="M2967.7-11.4c63.4-27.6,107.7-90.9,107.7-164.5c0-99-80.3-179.3-179.3-179.3s-179.3,80.3-179.3,179.3
	c0,73.6,44.3,136.8,107.7,164.5"/>
<g>
	<path class="st19" d="M2944.5-186.6c15,5.4,32.4,2.1,44.4-9.9s15.3-29.4,9.9-44.4l-21.3,21.3c-2.7,2.7-7,2.7-9.7,0l-15.9-15.9
		c-2.7-2.7-2.7-7,0-9.7l21.3-21.3c-15-5.4-32.4-2.1-44.4,9.9c-12,12-15.3,29.4-9.9,44.4l-65,65c-15-5.4-32.4-2.1-44.4,9.9
		s-15.3,29.4-9.9,44.4l21.3-21.3c2.7-2.7,7-2.7,9.7,0l15.9,15.9c2.7,2.7,2.7,7,0,9.7l-21.3,21.3c15,5.4,32.4,2.1,44.4-9.9
		s15.3-29.4,9.9-44.4l19.2-19.2"/>
	<path class="st19" d="M2898.6-140.7l-50.9-54.6c-8.9-8.9-23.4-8.9-32.4,0c-8.2,8.2-8.9,21.2-1.9,30.2l-17.9,11.2
		c0,0-28.2-42.3,4-74.5c11.2-11.2,22.2-22.2,31.5-31.5c3,0.5,6.3,1.1,9.1,1.5c2.8,0.5,5.2-1.9,4.7-4.7l-1.5-9.1l14.6-14.6l40.7,40.7
		l-14.4,14.4c-4.2-4.2-11.1-4.2-15.4,0s-4.2,11.1,0,15.4l112.7,105.1c0.8,0.7,1.5,1.4,2.2,2.2c6.1,7.1,6.5,17.9,0.8,25.4
		c-7.6,10.1-22.1,10.9-30.7,2.2c-0.3-0.3-0.7-0.7-1-1.1l-36.5-39.2"/>
</g>
<g>
	<path class="st19" d="M3364.6-108.7l-19.2,19.2c5.4,15,2.1,32.4-9.9,44.4s-29.4,15.3-44.4,9.9l21.3-21.3c2.7-2.7,2.7-7,0-9.7
		l-15.9-15.9c-2.7-2.7-7-2.7-9.7,0l-21.3,21.3c-5.4-15-2.1-32.4,9.9-44.4s29.4-15.3,44.4-9.9l65-65c-5.4-15-2.1-32.4,9.9-44.4
		s29.4-15.3,44.4-9.9l-21.3,21.3c-2.7,2.7-2.7,7,0,9.7l15.9,15.9c2.7,2.7,7,2.7,9.7,0l21.3-21.3c5.4,15,2.1,32.4-9.9,44.4
		s-29.4,15.3-44.4,9.9"/>
	<path class="st19" d="M3364.6-108.7l-50.9-54.6c-8.9-8.9-23.4-8.9-32.4,0c-8.2,8.2-8.9,21.2-1.9,30.2l-17.9,11.2
		c0,0-28.2-42.3,4-74.5c11.2-11.2,22.2-22.2,31.5-31.5c3,0.5,6.3,1.1,9.1,1.5c2.8,0.5,5.2-1.9,4.7-4.7l-1.5-9.1l14.6-14.6l40.7,40.7
		l-14.4,14.4c-4.2-4.2-11.1-4.2-15.4,0s-4.2,11.1,0,15.4l112.7,105.1c0.8,0.7,1.5,1.4,2.2,2.2c6.1,7.1,6.5,17.9,0.8,25.4
		c-7.6,10.1-22.1,10.9-30.7,2.2c-0.3-0.3-0.7-0.7-1-1.1l-36.5-39.2l-0.7,81.4c-64.4,25.3-133,9.1-185.1-42.9
		c-70-70-70-183.6,0-253.6c70-70,183.6-70,253.6,0c52,52,65.4,128.1,40.1,192.5"/>
</g>
<g>
	<path class="st20" d="M-222.4-146.9v-1.3c0-0.5-0.4-0.9-0.9-0.9h-11.8l-3.5-3.5h-8.3c-1,0-1.8,0.8-1.8,1.8v21.8l5.5-15
		c0.1-0.4,0.5-0.6,0.9-0.6h21.7c0.6,0,1.1,0.6,0.9,1.2l-5,13.8c-0.1,0.4-0.5,0.6-0.9,0.6h-19.9"/>
</g>
<g>
	<path class="st21" d="M-294.7-133.5c-5.1-3-8.6-8.6-8.6-15c0-9.6,7.8-17.5,17.5-17.5c7,0,13,4.1,15.8,9.9"/>
	<path class="st21" d="M-270.1-156c1.1-0.3,2.3-0.5,3.5-0.5c7,0,12.7,5.7,12.7,12.7s-5.7,12.7-12.7,12.7c-1.7,0-3.4-0.3-4.9-1"/>
	<polyline class="st21" points="-271.4,-132 -267.6,-138.4 -278.1,-138.4 -276.5,-151 -288.1,-131.1 -279.1,-131.1 -281.2,-115.9 
		-274.1,-127.5 	"/>
</g>
<g>
	<path class="st22" d="M-197.9-140.8c-6.9,0-12.5-5.6-12.5-12.5c0-5,2.9-9.3,7.1-11.3"/>
	<path class="st22" d="M-203.3-164.6c-0.1-0.4-0.1-0.8-0.1-1.2c0-4.5,3.6-8.1,8.1-8.1c1.7,0,3.2,0.5,4.5,1.4"/>
	<path class="st22" d="M-190.7-172.6c3-4.6,8.2-7.6,14.1-7.6c9.2,0,16.7,7.4,16.9,16.5"/>
	<path class="st22" d="M-159.8-163.7c5.1,1.2,8.9,5.8,8.9,11.3c0,6.4-5.2,11.6-11.6,11.6"/>
	<path class="st22" d="M-191.2-140.8c0-5.9,4.7-10.6,10.6-10.6c5.9,0,10.6,4.7,10.6,10.6c0,5.9-4.7,10.6-10.6,10.6"/>
	<line class="st22" x1="-197.9" y1="-140.8" x2="-191.2" y2="-140.8"/>
	<path class="st22" d="M-188.6-140.8c1.4,0,2.6,1.2,2.6,2.6c0,1.4-1.2,2.6-2.6,2.6c-1.4,0-2.6-1.2-2.6-2.6"/>
	<line class="st22" x1="-191.2" y1="-140.8" x2="-191.2" y2="-138.2"/>
	<line class="st22" x1="-188.6" y1="-140.8" x2="-191.2" y2="-140.8"/>
	<line class="st22" x1="-182.6" y1="-130.2" x2="-180.2" y2="-127.3"/>
	<line class="st22" x1="-182.6" y1="-130.2" x2="-180.2" y2="-133.1"/>
</g>
<g>
	<path class="st23" d="M-244.9-97.6c-0.2-1.5,0.4-2.3,0.4-2.3c0.7-0.7,2.4-2.4,2.4-2.4l3.9,3.9l-2.2,2.4c0,0,0.8,1.6,2.7,3.5
		c1.9,1.9,3.5,2.7,3.5,2.7l2.4-2.2l3.9,3.9"/>
	<path class="st23" d="M-243.7-105c2.2-4.8,7.1-8.2,12.7-8.2c7.7,0,14,6.3,14,14s-6.3,14-14,14c-0.4,0-0.7,0-1.1,0"/>
	<g>
		<line class="st23" x1="-224.3" y1="-107" x2="-228.8" y2="-94.7"/>
		<polyline class="st23" points="-224.1,-100.1 -220.6,-100.1 -223,-94.7 		"/>
		<g>
			<polyline class="st23" points="-229.6,-101.5 -229.6,-107 -232.4,-103 -228.7,-103 			"/>
			<path class="st23" d="M-233.7-101.5h-3.3l2.6-2.9c0.3-0.3,0.4-0.6,0.4-1c0-0.8-0.7-1.5-1.5-1.5s-1.5,0.7-1.5,1.5"/>
		</g>
	</g>
	<line class="st23" x1="-243.7" y1="-105" x2="-244.6" y2="-107.1"/>
	<line class="st23" x1="-243.7" y1="-105" x2="-241.4" y2="-105.4"/>
	<path class="st23" d="M-232.1-85.2c-6.7-0.5-12.1-5.8-12.8-12.4"/>
</g>
<circle class="st4" cx="-95.6" cy="-204.8" r="23"/>
<path class="st8" d="M-97-192.5h-0.5 M-94.7-192.5h-0.5 M-83.7-190h-23.7c-1,0-1.7-0.8-1.7-1.7v-1.6c0-1,0.8-1.7,1.7-1.7h23.7
	c1,0,1.7,0.8,1.7,1.7v1.6C-82-190.8-82.8-190-83.7-190z M-97-197.6h-0.5 M-94.7-197.6h-0.5 M-97-202.7h-0.5 M-94.7-202.7h-0.5
	 M-97-207.7h-0.5 M-94.7-207.7h-0.5 M-97-212.8h-0.5 M-94.7-212.8h-0.5 M-83.7-195h-23.7c-1,0-1.7-0.8-1.7-1.7v-1.6
	c0-1,0.8-1.7,1.7-1.7h23.7c1,0,1.7,0.8,1.7,1.7v1.6C-82-195.8-82.8-195-83.7-195z M-82.7-215l-5.3-4.2c-0.3-0.3-0.7-0.4-1.1-0.4
	h-12.9c-0.4,0-0.8,0.1-1.1,0.4l-5.3,4.2 M-83.7-210.3h-23.7c-1,0-1.7-0.8-1.7-1.7v-1.6c0-1,0.8-1.7,1.7-1.7h23.7
	c1,0,1.7,0.8,1.7,1.7v1.6C-82-211.1-82.8-210.3-83.7-210.3z M-83.7-210.3h-23.7c-1,0-1.7,0.8-1.7,1.7v1.6c0,1,0.8,1.7,1.7,1.7h23.7
	c1,0,1.7-0.8,1.7-1.7v-1.6C-82-209.5-82.8-210.3-83.7-210.3z M-83.7-200.1h-23.7c-1,0-1.7-0.8-1.7-1.7v-1.6c0-1,0.8-1.7,1.7-1.7
	h23.7c1,0,1.7,0.8,1.7,1.7v1.6C-82-200.9-82.8-200.1-83.7-200.1z"/>
<circle class="st4" cx="-169.9" cy="-213.9" r="23"/>
<path class="st24" d="M-159.2-225.6c0-0.4,0.3-0.8,0.8-0.8c0.4,0,0.8,0.3,0.8,0.8s-0.3,0.8-0.8,0.8
	C-158.8-224.8-159.2-225.2-159.2-225.6z M-162.6-228.4c2.2-0.4,3.7-0.1,4.3,0.8c0.2,0.3,0.2,0.7,0.2,1.2 M-158.7-224.9
	c-1.2,2.2-4.4,5-8.4,7.3c-6,3.5-11.9,4.7-13,2.6c-0.5-0.9,0-2.4,1.4-4.1 M-159.9-221.6c0,5.3-4.3,9.6-9.6,9.6
	c-5.3,0-9.6-4.3-9.6-9.6c0-5.3,4.3-9.6,9.6-9.6C-164.2-231.2-159.9-226.9-159.9-221.6z M-176.7-196.8l-5.4-5.4
	c-0.2-0.2-0.2-0.4,0-0.6l1.7-1.7c0.2-0.2,0.4-0.2,0.6,0l5.4,5.4c0.2,0.2,0.2,0.4,0,0.6l-1.7,1.7
	C-176.2-196.6-176.5-196.6-176.7-196.8z M-174.6-199.6l8.7-2.1c0.7-0.2,1.4-0.5,1.9-1.1l5.9-5.9c0.2-0.2,0.2-0.5,0-0.7
	c-0.7-0.7-1.9-0.7-2.6,0l-4,4 M-179.2-203.9l2.6-2.6c0.7-0.7,1.8-1.2,2.8-1.2h6.3c0.3,0,0.5,0.2,0.5,0.5c0,1-0.8,1.8-1.8,1.8
	 M-172.3-205.3h7.6 M-164.1-209.3l-0.4-0.4c-0.7-0.7-1.9-0.7-2.6,0l-2,2 M-160.9-209.1l-0.4-0.4c-0.7-0.7-1.9-0.7-2.6,0l-4.2,4.2"/>
<g>
	<g>
		<path class="st6" d="M-84.2-107.2c-13.1,0-23.8-10.7-23.8-23.8c0-13.1,10.7-23.8,23.8-23.8s23.8,10.7,23.8,23.8
			C-60.4-117.9-71.1-107.2-84.2-107.2z M-84.2-153.2c-12.2,0-22.1,9.9-22.1,22.1c0,12.2,9.9,22.1,22.1,22.1s22.1-9.9,22.1-22.1
			C-62.1-143.2-72-153.2-84.2-153.2z"/>
	</g>
	<path class="st25" d="M-83-124.3c-0.4,0-0.8,0-1.2,0c-3.4,0-6.5-0.3-8.9-0.8c-1.3-0.3-2.3-0.6-3-1l0,5.3c0,0.2,0.6,0.8,3.2,1.4
		c2.3,0.5,5.4,0.8,8.7,0.8c0.6,0,1.1,0,1.7,0c-0.3-0.7-0.5-1.5-0.5-2.4V-124.3z"/>
	<path class="st25" d="M-77.3-129.3c0.8,0.4,2.7,1.3,5,1.4l0-5.1c-2.5,1.4-8.4,1.9-11.9,1.9c-3.5,0-9.4-0.4-11.9-1.8l0,5.3
		c0,0.2,0.6,0.8,3.2,1.4c2.3,0.5,5.4,0.8,8.7,0.8c0.4,0,0.8,0,1.2,0v-2.4C-80.3-127.9-78.2-128.9-77.3-129.3z"/>
	<path class="st25" d="M-92.9-138.8c2.3,0.5,5.4,0.8,8.7,0.8c3.3,0,6.4-0.3,8.7-0.8c2.6-0.6,3.2-1.2,3.2-1.4v0c0,0,0,0,0,0
		c0-0.2-0.6-0.8-3.2-1.4c-2.3-0.5-5.4-0.8-8.7-0.8c-7.7,0-11.9,1.5-11.9,2.3v0C-96.1-140-95.5-139.4-92.9-138.8z"/>
	<path class="st25" d="M-75.3-137.8c-2.4,0.5-5.6,0.9-8.9,0.9c-3.3,0-6.5-0.3-8.9-0.8c-1.3-0.3-2.3-0.6-3-1l0,4.4
		c0,0.8,4.2,2.2,11.9,2.2c7.7,0,11.9-1.5,11.9-2.3l0-4.4C-73-138.4-74-138.1-75.3-137.8z"/>
	<path class="st26" d="M-71.1-120.9l0-5.9c0-0.1-0.1-0.3-0.1-0.4c0.1-0.2,0.1-0.4,0.1-0.6l0-5.9c0-0.1-0.1-0.3-0.1-0.4
		c0.1-0.2,0.1-0.4,0.1-0.6l0-5.9c0,0,0,0,0,0c0-1.1-1.3-1.9-4.1-2.5c-2.4-0.5-5.5-0.8-8.9-0.8l0,0.6l0-0.6c-4.5,0-13,0.8-13,3.4
		c0,0,0,0,0,0l0,5.9c0,0.2,0.1,0.4,0.1,0.6c-0.1,0.1-0.1,0.2-0.1,0.4l0,5.9c0,0.2,0,0.4,0.1,0.6c-0.1,0.1-0.1,0.2-0.1,0.4l0,5.9
		c0,1.1,1.3,1.9,4.1,2.5c2.3,0.5,5.4,0.8,8.7,0.8c0.1,0,0.2,0,0.3,0c0.7,0,1.5,0,2.3-0.1c-0.2-0.3-0.4-0.7-0.6-1.1
		c-0.5,0-1.1,0-1.7,0c-3.3,0-6.4-0.3-8.7-0.8c-2.6-0.6-3.2-1.2-3.2-1.4l0-5.3c0.7,0.4,1.7,0.7,3,1c2.4,0.5,5.5,0.8,8.9,0.8
		c0.4,0,0.8,0,1.2,0v-1.1c-0.4,0-0.8,0-1.2,0c-3.3,0-6.4-0.3-8.7-0.8c-2.6-0.6-3.2-1.2-3.2-1.4l0-5.3c2.5,1.4,8.4,1.8,11.9,1.8
		c3.5,0,9.4-0.5,11.9-1.9l0,5.1c0.2,0,0.4,0,0.6,0v6.8c0,0.5-0.1,1-0.2,1.4C-71.4-120-71.1-120.4-71.1-120.9z M-96.1-140.2
		c0-0.8,4.2-2.2,11.9-2.3c3.3,0,6.4,0.3,8.7,0.8c2.6,0.6,3.2,1.2,3.2,1.4c0,0,0,0,0,0v0c0,0.2-0.6,0.8-3.2,1.4
		c-2.3,0.5-5.4,0.8-8.7,0.8c-3.3,0-6.4-0.3-8.7-0.8C-95.5-139.4-96.1-140-96.1-140.2L-96.1-140.2z M-84.2-132.2
		c-7.7,0-11.9-1.4-11.9-2.2l0-4.4c0.7,0.4,1.7,0.7,3,1c2.4,0.5,5.6,0.8,8.9,0.8c3.4,0,6.5-0.3,8.9-0.9c1.3-0.3,2.3-0.6,3-1l0,4.4
		C-72.3-133.7-76.5-132.2-84.2-132.2z"/>
	<path class="st8" d="M-77.3-113.9c-1.2-0.5-5.6-2.7-5.6-7.1v-6.8c2.6-0.1,4.7-1,5.6-1.5c0.9,0.5,3,1.4,5.6,1.5v6.8
		C-71.7-116.6-76.1-114.4-77.3-113.9z"/>
	<path class="st8" d="M-74.9-119.1h-4.8v-3.5h4.8V-119.1z M-78.8-122.6v-1.4c0-0.8,0.7-1.5,1.5-1.5c0.8,0,1.5,0.7,1.5,1.5v1.4"/>
</g>
<g>
	<path class="st1" d="M-190.4-81.1c-13.1,0-23.8,10.7-23.8,23.8s10.7,23.8,23.8,23.8c13.1,0,23.8-10.7,23.8-23.8
		S-177.2-81.1-190.4-81.1z M-190.4-35.2c-12.2,0-22.1-9.9-22.1-22.1s9.9-22.1,22.1-22.1c12.2,0,22.1,9.9,22.1,22.1
		S-178.2-35.2-190.4-35.2z"/>
	<path class="st1" d="M-199.8-53.3c-0.3-0.1-0.6,0.1-0.7,0.4l-0.9,4.1c-1.7-2-2.8-4.3-3.2-6.9c-0.6-3.7,0.3-7.3,2.5-10.3
		c2.2-3,5.4-4.9,9.1-5.5c1.8-0.3,3.7-0.2,5.5,0.2c0.3,0.1,0.6-0.1,0.7-0.4c0.1-0.3-0.1-0.6-0.4-0.7c-2-0.5-4-0.6-5.9-0.3
		c-4,0.6-7.4,2.7-9.8,6s-3.3,7.2-2.7,11.1c0.4,2.7,1.6,5.2,3.3,7.3l-3.8-0.8c-0.3-0.1-0.6,0.1-0.7,0.4c-0.1,0.3,0.1,0.6,0.4,0.7
		l5.1,1.1c0,0,0.1,0,0.1,0c0.2,0,0.4-0.1,0.5-0.3c0.1-0.1,0.2-0.2,0.2-0.3l1.1-5.1C-199.3-52.9-199.5-53.2-199.8-53.3z"/>
	<path class="st1" d="M-174.6-67.1l-5.1-0.9c-0.3,0-0.5,0.1-0.6,0.3c-0.1,0.1-0.2,0.2-0.2,0.3l-1,5.1c-0.1,0.3,0.1,0.6,0.5,0.7
		c0.3,0.1,0.6-0.1,0.7-0.5l0.8-4.1c1.8,1.9,2.9,4.2,3.4,6.8c0.7,3.6-0.1,7.3-2.1,10.4c-2.1,3.1-5.2,5.1-8.9,5.8
		c-1.6,0.3-3.2,0.3-4.7,0.1l9.2-15.5c0.1-0.2,0.1-0.4,0-0.6c-0.1-0.2-0.3-0.3-0.5-0.3h-6.9l1.1-8.3c0-0.3-0.1-0.5-0.4-0.6
		c-0.3-0.1-0.5,0-0.7,0.2l-8.3,14.2c-0.1,0.2-0.1,0.4,0,0.6c0.1,0.2,0.3,0.3,0.5,0.3h5.8l-0.8,6.4c0,0.3,0.2,0.6,0.5,0.6
		c0.3,0,0.6-0.2,0.6-0.5l0.9-7c0-0.2,0-0.3-0.1-0.4c-0.1-0.1-0.3-0.2-0.4-0.2h-5.4l6.4-10.9l-0.8,6.2c0,0.2,0,0.3,0.1,0.4
		c0.1,0.1,0.3,0.2,0.4,0.2h6.5l-9.1,15.3c0,0.1,0,0.1-0.1,0.2c0,0,0,0.1-0.1,0.1c-0.1,0.3,0.1,0.6,0.4,0.7c1,0.2,2.1,0.3,3.1,0.3
		c0.9,0,1.9-0.1,2.8-0.3c8.1-1.5,13.5-9.4,11.9-17.5c-0.5-2.7-1.7-5.2-3.5-7.2l3.8,0.7c0.3,0.1,0.6-0.1,0.7-0.5
		C-174.1-66.8-174.3-67.1-174.6-67.1z"/>
</g>
<g>
	<path class="st1" d="M-126.8-34.6c-13.1,0-23.8-10.7-23.8-23.8c0-13.1,10.7-23.8,23.8-23.8S-103-71.5-103-58.4
		C-103-45.3-113.7-34.6-126.8-34.6z M-126.8-80.5c-12.2,0-22.1,9.9-22.1,22.1c0,12.2,9.9,22.1,22.1,22.1s22.1-9.9,22.1-22.1
		C-104.7-70.6-114.6-80.5-126.8-80.5z"/>
</g>
<g>
	<path class="st1" d="M-128.1-46.2c-1.1,0-2-0.9-2-1.9c0,0,0,0,0,0v-0.7h-6.2c-4.1,0-7.5-3.2-7.5-7.1c0-2.6,1.5-5,3.9-6.2
		c0-0.1,0-0.2,0-0.3c0-2.7,2.3-4.8,5.1-4.8c0.8,0,1.6,0.2,2.3,0.5c1.9-2.4,4.8-3.8,7.9-3.8c5.2,0,9.5,3.9,9.9,8.8
		c2.9,0.8,4.9,3.4,4.9,6.4c0,3.7-3.1,6.6-7,6.6l-6.5,0c-0.3,0-0.6-0.3-0.6-0.6v-6.6c0-0.3,0.3-0.6,0.6-0.6h2.7l-5.9-5.4l-5.8,5.4
		h2.8c0.3,0,0.6,0.3,0.6,0.6v6.1h0.9c0,0,0.1,0,0.1,0c1,0.1,1.8,0.9,1.8,1.9C-126.1-47-127-46.2-128.1-46.2z M-129-48.1
		c0,0.4,0.4,0.8,0.9,0.8c0.5,0,0.9-0.4,0.9-0.8c0-0.4-0.4-0.8-0.9-0.8h-0.9L-129-48.1C-129-48.1-129-48.1-129-48.1z M-122.7-50l6,0
		c3.2,0,5.8-2.5,5.8-5.5c0-2.5-1.8-4.7-4.4-5.3c-0.3,0-0.5-0.3-0.5-0.5c0,0,0,0,0,0c-0.1-4.5-4-8.1-8.8-8.1c-2.9,0-5.7,1.4-7.3,3.7
		c0,0.1-0.1,0.1-0.1,0.1c0,0,0,0,0,0s0,0,0,0h0c0,0,0,0,0,0c-0.1,0-0.1,0.1-0.2,0.1l0,0c0,0,0,0,0,0c-0.1,0-0.2,0-0.3,0c0,0,0,0,0,0
		l0,0c-0.1,0-0.1,0-0.2-0.1c-0.7-0.4-1.4-0.6-2.2-0.6c-2.2,0-3.9,1.7-3.9,3.7c0,0.2,0,0.4,0,0.6c0,0,0,0.1,0,0.1
		c0,0.1,0,0.2-0.1,0.2c0,0.1-0.1,0.1-0.2,0.2c0,0-0.1,0-0.1,0.1c-2.2,1-3.6,3.1-3.6,5.4c0,3.3,2.8,6,6.4,6h6.2v-5.5h-3.7
		c-0.2,0-0.4-0.1-0.5-0.4c-0.1-0.2,0-0.5,0.1-0.6l7.3-6.7c0.2-0.2,0.6-0.2,0.8,0l7.3,6.8c0.2,0.2,0.2,0.4,0.1,0.6
		c-0.1,0.2-0.3,0.4-0.5,0.4h-3.6V-50z"/>
</g>
<g>
	<path class="st1" d="M-52.3-20.6c-13.1,0-23.8-10.7-23.8-23.8c0-13.1,10.7-23.8,23.8-23.8c13.1,0,23.8,10.7,23.8,23.8
		C-28.5-31.3-39.2-20.6-52.3-20.6z M-52.3-66.5c-12.2,0-22.1,9.9-22.1,22.1c0,12.2,9.9,22.1,22.1,22.1c12.2,0,22.1-9.9,22.1-22.1
		C-30.2-56.6-40.1-66.5-52.3-66.5z"/>
</g>
<g>
	<path class="st1" d="M-41.5-32.2C-41.5-32.2-41.6-32.2-41.5-32.2l-21,0c-4.4,0-8-3.6-8-8c0-2.9,1.6-5.6,4.2-7c0-0.1,0-0.3,0-0.4
		c0-3,2.4-5.4,5.4-5.4c0.9,0,1.8,0.2,2.5,0.6c2-2.7,5.1-4.3,8.5-4.3c5.6,0,10.2,4.4,10.6,9.9c3.1,0.9,5.3,3.8,5.3,7.1
		C-34.1-35.5-37.4-32.2-41.5-32.2z M-62.5-33.3h21c0,0,0,0,0.1,0c3.5,0,6.3-2.9,6.3-6.3c0-3.5-2.8-6.3-6.3-6.3
		c-0.3,0-0.6-0.3-0.6-0.6s0.3-0.6,0.6-0.6c0.3,0,0.7,0,1,0.1c-0.5-4.8-4.5-8.6-9.4-8.6c-3,0-5.8,1.4-7.6,3.8
		c0.6,0.5,1.1,1.1,1.4,1.8c0.1,0.3,0,0.6-0.3,0.8c-0.3,0.1-0.6,0-0.8-0.3c-0.7-1.5-2.2-2.4-3.8-2.4c-2.4,0-4.3,1.9-4.3,4.3
		c0,0.2,0,0.4,0,0.6c0,0,0,0.1,0,0.1c0,0.1,0,0.2-0.1,0.2c0,0.1-0.1,0.1-0.2,0.2c0,0-0.1,0-0.1,0.1c-2.4,1.1-3.9,3.6-3.9,6.2
		C-69.4-36.4-66.3-33.3-62.5-33.3z M-47.9-36.8h-7.7c-0.3,0-0.6-0.3-0.6-0.6v-5.6c0-0.3,0.3-0.6,0.6-0.6h0.9v-1.6
		c0-1.6,1.3-2.9,2.9-2.9c1.6,0,2.9,1.3,2.9,2.9v1.6h1c0.3,0,0.6,0.3,0.6,0.6v5.6C-47.3-37-47.5-36.8-47.9-36.8z M-55-37.9h6.6v-4.5
		H-55V-37.9z M-53.5-43.5h3.6v-1.6c0-1-0.8-1.8-1.8-1.8c-1,0-1.8,0.8-1.8,1.8V-43.5z"/>
</g>
<g>
	<path class="st1" d="M11.6-17.8c-13.1,0-23.8-10.7-23.8-23.8c0-13.1,10.7-23.8,23.8-23.8c13.1,0,23.8,10.7,23.8,23.8
		C35.4-28.5,24.7-17.8,11.6-17.8z M11.6-63.7c-12.2,0-22.1,9.9-22.1,22.1c0,12.2,9.9,22.1,22.1,22.1c12.2,0,22.1-9.9,22.1-22.1
		C33.7-53.8,23.8-63.7,11.6-63.7z"/>
</g>
<g>
	<path class="st1" d="M22.4-29.3C22.3-29.3,22.3-29.4,22.4-29.3l-21,0c-4.4,0-8-3.6-8-8c0-2.9,1.6-5.6,4.2-7c0-0.1,0-0.3,0-0.4
		c0-3,2.4-5.4,5.4-5.4c0.9,0,1.8,0.2,2.5,0.6c2-2.7,5.1-4.3,8.5-4.3c5.6,0,10.2,4.4,10.6,9.9c3.1,0.9,5.3,3.8,5.3,7.1
		C29.8-32.7,26.5-29.3,22.4-29.3z M1.4-30.5h21c0,0,0,0,0.1,0c3.5,0,6.3-2.9,6.3-6.3c0-3.5-2.8-6.3-6.3-6.3c-0.3,0-0.6-0.3-0.6-0.6
		s0.3-0.6,0.6-0.6c0.3,0,0.7,0,1,0.1c-0.5-4.8-4.5-8.6-9.4-8.6c-3,0-5.8,1.4-7.6,3.8c0.6,0.5,1.1,1.1,1.4,1.8c0.1,0.3,0,0.6-0.3,0.8
		c-0.3,0.1-0.6,0-0.8-0.3c-0.7-1.5-2.2-2.4-3.8-2.4c-2.4,0-4.3,1.9-4.3,4.3c0,0.2,0,0.4,0,0.6c0,0,0,0.1,0,0.1c0,0.1,0,0.2-0.1,0.2
		c0,0.1-0.1,0.1-0.2,0.2c0,0-0.1,0-0.1,0.1C-4-42.4-5.5-40-5.5-37.4C-5.5-33.6-2.4-30.5,1.4-30.5z M16.7-34.7c-0.1,0-0.3,0-0.4,0
		c-2.5-0.2-4.5-2.3-4.5-4.9c0-2.7,2.2-4.9,4.9-4.9s4.9,2.2,4.9,4.9c0,2.6-2,4.7-4.5,4.9C16.9-34.7,16.8-34.7,16.7-34.7z M16.5-35.8
		c0.1,0,0.2,0,0.3,0c0.4-0.2,1-1.3,1.1-3.2h-2.5C15.5-37.2,16.1-36,16.5-35.8z M12.9-39c0.2,1.2,0.9,2.2,1.9,2.7
		c-0.3-0.8-0.5-1.7-0.6-2.7H12.9z M19-39c-0.1,1-0.2,2-0.6,2.7c1-0.6,1.7-1.6,1.9-2.7H19z M19-40.2h1.4c-0.2-1.2-0.9-2.2-1.9-2.8
		C18.8-42.2,19-41.2,19-40.2z M15.4-40.2h2.5c-0.1-2.1-0.9-3.2-1.3-3.2S15.5-42.3,15.4-40.2z M12.9-40.2h1.4c0.1-1,0.2-2,0.6-2.8
		C13.8-42.4,13.1-41.4,12.9-40.2z M9.1-35H2.9c-0.3,0-0.6-0.3-0.6-0.6V-40c0-0.3,0.3-0.6,0.6-0.6h0.6v-1.2c0-1.3,1.1-2.4,2.4-2.4
		c1.4,0,2.4,1.1,2.4,2.4v1.2h0.7c0.3,0,0.6,0.3,0.6,0.6v4.5C9.6-35.2,9.4-35,9.1-35z M3.5-36.1h5v-3.3h-5V-36.1z M4.6-40.6h2.6v-1.2
		c0-0.7-0.6-1.3-1.3-1.3c-0.7,0-1.3,0.6-1.3,1.3V-40.6z"/>
</g>
<g>
	<path class="st1" d="M103.4-18c-13.1,0-23.8-10.7-23.8-23.8c0-13.1,10.7-23.8,23.8-23.8c13.1,0,23.8,10.7,23.8,23.8
		C127.2-28.7,116.5-18,103.4-18z M103.4-63.9c-12.2,0-22.1,9.9-22.1,22.1c0,12.2,9.9,22.1,22.1,22.1c12.2,0,22.1-9.9,22.1-22.1
		C125.5-54,115.6-63.9,103.4-63.9z"/>
</g>
<g>
	<path class="st1" d="M114.3-30.3C114.2-30.3,114.2-30.3,114.3-30.3l-21,0c-4.4,0-8-3.6-8-8c0-2.9,1.6-5.6,4.2-7c0-0.1,0-0.3,0-0.4
		c0-3,2.4-5.4,5.4-5.4c0.9,0,1.8,0.2,2.5,0.6c2-2.7,5.1-4.3,8.5-4.3c5.6,0,10.2,4.4,10.6,9.9c3.1,0.9,5.3,3.8,5.3,7.1
		C121.7-33.6,118.4-30.3,114.3-30.3z M93.3-31.4h21c0,0,0,0,0.1,0c3.5,0,6.3-2.9,6.3-6.3c0-3.5-2.8-6.3-6.3-6.3
		c-0.3,0-0.6-0.3-0.6-0.6s0.3-0.6,0.6-0.6c0.3,0,0.7,0,1,0.1c-0.5-4.8-4.5-8.6-9.4-8.6c-3,0-5.8,1.4-7.6,3.8
		c0.6,0.5,1.1,1.1,1.4,1.8c0.1,0.3,0,0.6-0.3,0.8c-0.3,0.1-0.6,0-0.8-0.3C97.9-49,96.4-50,94.8-50c-2.4,0-4.3,1.9-4.3,4.3
		c0,0.2,0,0.4,0,0.6c0,0,0,0.1,0,0.1c0,0.1,0,0.2-0.1,0.2c0,0.1-0.1,0.1-0.2,0.2c0,0-0.1,0-0.1,0.1c-2.4,1.1-3.9,3.6-3.9,6.2
		C86.4-34.5,89.5-31.4,93.3-31.4z M110.2-32.6c0,0-0.1,0-0.1,0l-8.7-1.7c0,0-0.1,0-0.1,0l-6.8-1.3c-0.3-0.1-0.5-0.3-0.5-0.6v-8.2
		c0-0.3,0.2-0.5,0.4-0.6l15.6-3.3c0.2,0,0.3,0,0.5,0.1c0.1,0.1,0.2,0.3,0.2,0.4v14.5c0,0.2-0.1,0.3-0.2,0.4
		C110.4-32.6,110.3-32.6,110.2-32.6z M102-35.3l7.6,1.5v-6.1H102V-35.3z M95.1-36.6l5.7,1.1v-4.4h-5.7V-36.6z M102-41h7.6v-6
		l-7.6,1.6V-41z M95.1-41h5.7v-4.1l-5.7,1.2V-41z"/>
</g>
<g>
	<path class="st1" d="M-38.4,49.8c-13.1,0-23.8-10.7-23.8-23.8c0-13.1,10.7-23.8,23.8-23.8c13.1,0,23.8,10.7,23.8,23.8
		C-14.5,39.1-25.2,49.8-38.4,49.8z M-38.4,3.9c-12.2,0-22.1,9.9-22.1,22.1c0,12.2,9.9,22.1,22.1,22.1c12.2,0,22.1-9.9,22.1-22.1
		C-16.2,13.8-26.2,3.9-38.4,3.9z"/>
</g>
<g>
	<path class="st1" d="M-35.3,41.6c-0.1,0-0.1,0-0.2,0L-52,35.3c0,0-0.1,0-0.1-0.1c-0.1,0-0.1-0.1-0.1-0.1c0,0,0,0,0,0l0,0
		c0-0.1-0.1-0.1-0.1-0.2c0,0,0,0,0,0s0,0,0,0c0,0,0-0.1,0-0.1c0,0,0,0,0,0l0.1-17.7c0-0.2,0.1-0.4,0.4-0.5l16.5-6.1
		c0.1,0,0.2,0,0.3,0l8.9,2.5c0.2,0.1,0.4,0.3,0.4,0.5v25.2c0,0.3-0.2,0.5-0.4,0.5l-8.9,2.3C-35.2,41.6-35.2,41.6-35.3,41.6z
		 M-46.3,36.2l11.1,4.2l8.3-2.1V13.9l-8.3-2.3l-15.9,5.9l-0.1,16.5l4.7-1.9V18.3c0-0.3,0.2-0.5,0.4-0.5l10.7-2.9
		c0.2,0,0.4,0,0.5,0.1c0.1,0.1,0.2,0.3,0.2,0.4v22.1c0,0.2-0.1,0.3-0.2,0.4c-0.1,0.1-0.3,0.2-0.5,0.1L-46.3,36.2z M-49.7,34.5
		l13.9,2.3V16.1l-9.6,2.6v13.8c0,0.2-0.1,0.4-0.4,0.5L-49.7,34.5z"/>
</g>
<g>
	<path class="st1" d="M23.8,47.6C10.7,47.6,0,36.9,0,23.8C0,10.7,10.7,0,23.8,0c13.1,0,23.8,10.7,23.8,23.8
		C47.6,36.9,36.9,47.6,23.8,47.6z M23.8,1.7c-12.2,0-22.1,9.9-22.1,22.1c0,12.2,9.9,22.1,22.1,22.1c12.2,0,22.1-9.9,22.1-22.1
		C45.9,11.6,36,1.7,23.8,1.7z"/>
</g>
<g>
	<path class="st1" d="M23.8,38.4c-4.9,0-14.1-0.7-14.1-3.6v-6.3c0-0.2,0.1-0.3,0.2-0.4c-0.1-0.2-0.2-0.4-0.2-0.6v-6.4
		c0-0.2,0.1-0.3,0.2-0.4c-0.1-0.2-0.2-0.4-0.2-0.6v-6.4c0-2.8,9.2-3.6,14.1-3.6s14.1,0.7,14.1,3.6v6.4c0,0.2-0.1,0.4-0.2,0.6
		c0.1,0.1,0.2,0.2,0.2,0.4v6.4c0,0.2-0.1,0.4-0.2,0.6c0.1,0.1,0.2,0.2,0.2,0.4v6.3C37.8,37.7,28.6,38.4,23.8,38.4z M10.8,29v5.8
		c0,0.8,4.6,2.5,12.9,2.5s12.9-1.6,12.9-2.5V29c-2.6,1.6-9.1,2-12.9,2S13.4,30.6,10.8,29z M10.8,21.6v5.8c0,0.8,4.6,2.5,12.9,2.5
		s12.9-1.6,12.9-2.5v-5.8c-2.6,1.6-9.1,2-12.9,2S13.4,23.2,10.8,21.6z M10.8,15.3v4.8c0,0.8,4.6,2.5,12.9,2.5s12.9-1.6,12.9-2.5
		v-4.8c-2.6,1.6-9.1,2-12.9,2S13.4,16.8,10.8,15.3z M23.8,11.3c-8.4,0-12.9,1.6-12.9,2.5c0,0.8,4.6,2.5,12.9,2.5s12.9-1.6,12.9-2.5
		C36.7,12.9,32.2,11.3,23.8,11.3z"/>
</g>
</svg>
