<?xml version="1.0" encoding="utf-8"?>
<!-- Generator: Adobe Illustrator 21.1.0, SVG Export Plug-In . SVG Version: 6.00 Build 0)  -->
<svg version="1.1" id="Layer_1" xmlns="http://www.w3.org/2000/svg" xmlns:xlink="http://www.w3.org/1999/xlink" x="0px" y="0px"
	 viewBox="0 0 51 51.6" style="enable-background:new 0 0 51 51.6;" xml:space="preserve">
<style type="text/css">
	.st0{fill:none;stroke:#662F8F;stroke-width:4;stroke-linecap:round;stroke-linejoin:round;stroke-miterlimit:10;}
	.st1{fill:#662F8F;}
	.st2{fill:none;stroke:#662F8F;stroke-width:2;stroke-linecap:round;stroke-linejoin:round;stroke-miterlimit:10;}
	.st3{fill:none;stroke:#FFFFFF;stroke-width:0.488;stroke-linecap:round;stroke-linejoin:round;stroke-miterlimit:10;}
	.st4{fill:none;stroke:#E73E51;stroke-width:1.6927;}
	.st5{fill:none;stroke:#E73E51;stroke-width:1.1285;stroke-linecap:round;stroke-linejoin:round;stroke-miterlimit:10;}
	.st6{fill:#E73E51;}
	
		.st7{clip-path:url(#SVGID_2_);fill:none;stroke:#E73E51;stroke-width:1.1285;stroke-linecap:round;stroke-linejoin:round;stroke-miterlimit:10;}
	.st8{fill:none;stroke:#EE4050;stroke-width:1.1285;stroke-linecap:round;stroke-linejoin:round;stroke-miterlimit:10;}
	.st9{fill:none;stroke:#FFFFFF;stroke-width:0.574;stroke-linecap:round;stroke-linejoin:round;stroke-miterlimit:10;}
	.st10{fill:none;stroke:#A491C4;stroke-width:0.5657;stroke-miterlimit:10;}
	.st11{fill:none;stroke:#F7F8F9;stroke-width:1.2708;stroke-miterlimit:10;}
	.st12{fill:url(#SVGID_3_);}
	.st13{fill:#9289C1;}
	.st14{fill:#F79F7C;}
	.st15{fill:#EF619B;}
	.st16{fill:#F28BB9;}
	.st17{fill:#FABEA9;}
	.st18{fill:#F37B8A;}
	.st19{fill:none;stroke:#633493;stroke-width:5.1599;stroke-linecap:round;stroke-linejoin:round;stroke-miterlimit:10;}
	.st20{fill:none;stroke:#662F8F;stroke-width:1.0098;stroke-linecap:round;stroke-linejoin:round;stroke-miterlimit:10;}
	.st21{fill:none;stroke:#662F8F;stroke-width:1.5111;stroke-linecap:round;stroke-linejoin:round;stroke-miterlimit:10;}
</style>
<g>
	<path class="st0" d="M-279-250.5c9.6-9.6,22.8-15.5,37.3-15.5"/>
	<path class="st0" d="M-264.7-236.2c5.9-5.9,14-9.5,23-9.5"/>
	<path class="st0" d="M-307.8-279.3c17.7-17.7,41.2-27.4,66.1-27.4c25,0,48.4,9.7,66.1,27.4"/>
	<path class="st0" d="M-190-264.9c-13.3-13.3-31.6-21.5-51.7-21.5s-38.5,8.2-51.7,21.5"/>
	<path class="st0" d="M-204.4-250.5c-9.6-9.6-22.8-15.5-37.3-15.5"/>
	<path class="st0" d="M-218.7-236.2c-5.9-5.9-14-9.5-23-9.5"/>
	<path class="st0" d="M-233.1-204.6c-2.2,2.2-5.2,3.5-8.6,3.5c-6.7,0-12.1-5.4-12.1-12.1c0-6.7,5.4-12.1,12.1-12.1
		c3.3,0,6.4,1.4,8.6,3.5"/>
	<path class="st0" d="M-190-264.9c4,4,4,10.4,0,14.4c-4,4-10.4,4-14.4,0"/>
	<path class="st0" d="M-264.7-236.2c-4,4-10.4,4-14.4,0c-4-4-4-10.4,0-14.4"/>
	<path class="st0" d="M-218.7-236.2c4,4,4,10.4,0,14.4c-4,4-10.4,4-14.4,0"/>
	<path class="st0" d="M-293.4-264.9c-4,4-10.4,4-14.4,0c-4-4-4-10.4,0-14.4"/>
</g>
<g>
	<path class="st1" d="M-95.9-316.4c-28.7,0-52,23.3-52,52s23.3,52,52,52s52-23.3,52-52S-67.3-316.4-95.9-316.4z M-95.9-216.1
		c-26.6,0-48.3-21.7-48.3-48.3s21.7-48.3,48.3-48.3s48.3,21.7,48.3,48.3S-69.3-216.1-95.9-216.1z"/>
	<path class="st1" d="M-59.4-270.3c-4.8-4.7-10.4-8.3-16.4-10.7c0-0.3,0.1-0.7,0.1-1c0-11.1-9-20.2-20.2-20.2s-20.2,9-20.2,20.2
		c0,0.6,0,1.1,0.1,1.7c-5.5,2.4-10.5,5.8-14.9,10.1c0,0-0.1,0.1-0.1,0.1c-1.2,1.2-1.8,2.8-1.8,4.5c0,1.7,0.7,3.4,1.9,4.6
		c2.6,2.5,6.7,2.5,9.3,0c0,0,0,0,0,0c3.2-3.1,6.8-5.6,10.8-7.4c2.3,2.5,5.2,4.5,8.5,5.5c-5,1.2-9.6,3.7-13.4,7.4
		c0,0-0.1,0.1-0.1,0.1c-1.3,1.2-1.9,2.9-1.9,4.6c0,1.7,0.7,3.4,1.9,4.6c2.6,2.5,6.7,2.5,9.3,0c0,0,0,0,0,0h0c3-2.9,7-4.5,11.3-4.5
		c4.3,0,8.3,1.6,11.3,4.5c0,0,0,0,0,0c0.8,0.8,1.2,1.8,1.2,2.8c0,1.1-0.4,2.1-1.2,2.8c-1.6,1.6-4.3,1.6-5.9,0c0,0-0.1-0.1-0.1-0.1
		c-1.4-1.3-3.3-2.1-5.3-2.1c-4.2,0-7.6,3.3-7.6,7.5c0,4.1,3.4,7.5,7.6,7.5c2,0,3.9-0.8,5.4-2.2c0.5-0.5,0.5-1.3,0-1.7
		c-0.5-0.5-1.3-0.5-1.7,0c-1,1-2.3,1.5-3.7,1.5c-2.8,0-5.2-2.2-5.2-5c0-2.8,2.3-5,5.2-5c1.4,0,2.7,0.5,3.7,1.5c0,0,0.1,0.1,0.1,0.1
		c2.6,2.4,6.7,2.4,9.2-0.1c1.3-1.2,1.9-2.9,1.9-4.6s-0.7-3.4-1.9-4.6c0,0,0,0,0,0c-3.5-3.4-8.1-5.2-13-5.2c-4.9,0-9.5,1.9-13,5.2
		c0,0,0,0,0,0c-1.6,1.6-4.3,1.6-5.9,0c-0.8-0.8-1.2-1.8-1.2-2.8c0-1,0.4-2,1.1-2.7c0,0,0.1-0.1,0.1-0.1c5-4.9,11.7-7.6,18.8-7.6
		c7.1,0,13.8,2.7,18.8,7.6c0,0,0,0,0,0c2.6,2.5,6.7,2.5,9.3,0c1.3-1.2,1.9-2.9,1.9-4.6c0-1.7-0.7-3.4-1.9-4.6c0,0,0,0,0,0
		c-3.6-3.5-7.7-6.2-12.1-8.1c1.5-2.2,2.5-4.8,3-7.5c5.5,2.3,10.6,5.7,15,9.9c0.5,0.5,1.3,0.5,1.7,0C-58.9-269-58.9-269.8-59.4-270.3
		z M-123.3-262.9C-123.3-262.9-123.3-262.9-123.3-262.9c-1.6,1.6-4.3,1.6-5.9,0c-0.8-0.8-1.2-1.8-1.2-2.8c0-1.1,0.4-2.1,1.2-2.8
		c0,0,0.1-0.1,0.1-0.1c4-3.9,8.5-6.9,13.5-9.2c0.6,2.7,1.7,5.2,3.3,7.4C-116.4-268.6-120.1-266-123.3-262.9z M-68.7-261.1
		C-68.7-261.1-68.7-261.1-68.7-261.1c0.8,0.8,1.2,1.8,1.2,2.8c0,1.1-0.4,2.1-1.2,2.8c-1.6,1.6-4.3,1.6-5.9,0c0,0,0,0,0,0
		c-4-3.9-9-6.5-14.4-7.7c3.3-1.2,6.1-3.2,8.4-5.8C-76.2-267.1-72.2-264.5-68.7-261.1z M-95.9-264.4c-9.8,0-17.7-7.9-17.7-17.7
		c0-9.8,7.9-17.7,17.7-17.7s17.7,7.9,17.7,17.7C-78.2-272.3-86.2-264.4-95.9-264.4z"/>
	<path class="st1" d="M-103.6-283.4h-1.9l0.1-3.7h5.6v-1.5h-7.1l-0.2,6.6h2.9c2.5,0,3.4,1.1,3.4,2.5c0,1.4-1,2.5-2.8,2.5
		c-1.3,0-2.5-0.6-3.4-1.6l-1,1c1.1,1.3,2.6,2,4.4,2c2.4,0,4.5-1.5,4.5-4.2C-99.1-281.6-100.5-283.4-103.6-283.4z"/>
	<path class="st1" d="M-89.6-282.5v1.5h3.9c-0.3,2.5-1.9,4.1-4.5,4.1c-2.8,0-4.9-2.1-4.9-5.1c0-3,2.2-5.1,5-5.1
		c1.6,0,2.9,0.7,3.8,1.7l1.2-1.2c-1.2-1.3-3-2.1-5-2.1c-3.9,0-6.7,2.8-6.7,6.7c0,4.2,3.2,6.7,6.6,6.7c3.9,0,6.3-3,6.3-6.7
		c0-0.1,0-0.3,0-0.4H-89.6z"/>
</g>
<g>
	<line class="st2" x1="35.9" y1="-230.8" x2="35.9" y2="-222.1"/>
	<path class="st2" d="M22.2-222.1c-2.8,0-5.2-2.3-5.2-5.2v-77.8c0-2.8,2.3-5.2,5.2-5.2h69.9c2.8,0,5.2,2.3,5.2,5.2v77.8
		c0,2.8-2.3,5.2-5.2,5.2H35.9"/>
	<path class="st2" d="M35.9-230.8h-5c-2.8,0-5.2-2.3-5.2-5.2v-60.4c0-2.8,2.3-5.2,5.2-5.2H41c2.8,0,5.2,2.3,5.2,5.2v60.4"/>
	<g>
		<g>
			<circle class="st2" cx="57.9" cy="-281" r="3.8"/>
			<circle class="st2" cx="71.8" cy="-281" r="3.8"/>
			<circle class="st2" cx="85.7" cy="-281" r="3.8"/>
			<circle class="st2" cx="57.9" cy="-267.1" r="3.8"/>
			<circle class="st2" cx="71.8" cy="-267.1" r="3.8"/>
			<circle class="st2" cx="85.7" cy="-267.1" r="3.8"/>
			<circle class="st2" cx="57.9" cy="-253.2" r="3.8"/>
			<circle class="st2" cx="71.8" cy="-253.2" r="3.8"/>
			<circle class="st2" cx="85.7" cy="-253.2" r="3.8"/>
			<circle class="st2" cx="57.9" cy="-239.3" r="3.8"/>
			<circle class="st2" cx="71.8" cy="-239.3" r="3.8"/>
			<circle class="st2" cx="85.7" cy="-239.3" r="3.8"/>
		</g>
		<line class="st2" x1="54.1" y1="-296.9" x2="89.5" y2="-296.9"/>
	</g>
</g>
<g>
	<path class="st3" d="M-46.7-118.4v-1c0-2.7-2.1-4.9-4.8-5c-2.8-0.1-5.1,2.2-5.1,4.9l0,3.8h10.9c0.7,0,1.3,0.6,1.3,1.3v8.6
		c0,0.7-0.6,1.3-1.3,1.3h-2.7c-0.5,0-1-0.4-1.1-0.9l-0.8-3.2v0c0.6-0.5,0.9-1.2,0.8-2.1c-0.1-1-1-1.7-1.9-1.9
		c-1.3-0.1-2.5,0.9-2.5,2.2c0,0.7,0.3,1.3,0.8,1.7h0c0,0-0.5,2-0.8,3.2c-0.1,0.5-0.6,0.9-1.1,0.9h-2.7c-0.7,0-1.3-0.6-1.3-1.3v-8.6"
		/>
</g>
<g>
	<circle class="st4" cx="71.6" cy="-111.1" r="23"/>
	<path class="st5" d="M48.3-111.1l23.2-0.1 M71.5-111.3v-23.1V-111.3z M83.2-111.3c0,6.4-5.2,11.6-11.6,11.6
		c-6.4,0-11.7-5.2-11.7-11.6c0-6.4,5.2-11.6,11.7-11.6C77.9-122.9,83.2-117.7,83.2-111.3z M88.8-111.3c0,9.5-7.7,17.3-17.3,17.3
		c-9.5,0-17.3-7.7-17.3-17.3c0-9.5,7.7-17.3,17.3-17.3C81-128.5,88.8-120.8,88.8-111.3z"/>
	<path class="st6" d="M55.8-116.5c1.2,0,2.2-1,2.2-2.2c0-1.2-1-2.2-2.2-2.2c-1.2,0-2.2,1-2.2,2.2C53.6-117.5,54.6-116.5,55.8-116.5"
		/>
</g>
<g>
	<circle class="st4" cx="13.1" cy="-110.7" r="23"/>
	<path class="st5" d="M23.9-118l7.1,7.2 M23.9-118l-7.1,10.3 M9.8-103.5l7.1-4.2 M9.8-103.5L2.7-113 M-4.3-108.1l7.1-4.9"/>
	<path class="st6" d="M0.6-113c0-1.2,1-2.1,2.1-2.1c1.2,0,2.1,1,2.1,2.1c0,1.2-1,2.1-2.1,2.1C1.6-110.9,0.6-111.9,0.6-113"/>
	<path class="st6" d="M7.7-103.5c0-1.2,1-2.1,2.1-2.1c1.2,0,2.1,1,2.1,2.1c0,1.2-1,2.1-2.1,2.1C8.6-101.4,7.7-102.4,7.7-103.5"/>
	<path class="st6" d="M14.7-107.7c0-1.2,1-2.1,2.1-2.1c1.2,0,2.1,1,2.1,2.1c0,1.2-1,2.1-2.1,2.1C15.7-105.6,14.7-106.5,14.7-107.7"
		/>
	<path class="st6" d="M21.8-118c0-1.2,1-2.1,2.1-2.1c1.2,0,2.1,1,2.1,2.1c0,1.2-1,2.1-2.1,2.1C22.7-115.9,21.8-116.8,21.8-118"/>
	<path class="st6" d="M28.7-110.9c0-1.2,1-2.1,2.1-2.1c1.2,0,2.1,1,2.1,2.1c0,1.2-1,2.1-2.1,2.1C29.6-108.8,28.7-109.7,28.7-110.9"
		/>
	<path class="st6" d="M-6.2-108.3c0-1.2,1-2.1,2.1-2.1c1.2,0,2.1,1,2.1,2.1c0,1.2-1,2.1-2.1,2.1C-5.2-106.2-6.2-107.1-6.2-108.3"/>
</g>
<g>
	<circle class="st4" cx="121.3" cy="-151.4" r="23"/>
	<g>
		<defs>
			<path id="SVGID_1_" d="M97.5-151.6c0,12.4,9.6,22.6,21.8,23.5h3.6c11.7-0.9,21.1-10.4,21.8-22.2v-2.7
				c-0.7-12.4-11-22.2-23.6-22.2C108.1-175.2,97.5-164.6,97.5-151.6"/>
		</defs>
		<clipPath id="SVGID_2_">
			<use xlink:href="#SVGID_1_"  style="overflow:visible;"/>
		</clipPath>
		<path class="st7" d="M144.1-120H132c-0.5,0-0.9-0.4-0.9-0.9v-5.2c0-0.5,0.4-0.9,0.9-0.9h12.1c0.5,0,0.9,0.4,0.9,0.9v5.2
			C145-120.5,144.6-120,144.1-120z M130.1-120H118c-0.5,0-0.9-0.4-0.9-0.9v-5.2c0-0.5,0.4-0.9,0.9-0.9h12.1c0.5,0,0.9,0.4,0.9,0.9
			v5.2C131-120.5,130.6-120,130.1-120z M116.2-120h-12.1c-0.5,0-0.9-0.4-0.9-0.9v-5.2c0-0.5,0.4-0.9,0.9-0.9h12.1
			c0.5,0,0.9,0.4,0.9,0.9v5.2C117.1-120.5,116.7-120,116.2-120z M102.2-120H90.1c-0.5,0-0.9-0.4-0.9-0.9v-5.2c0-0.5,0.4-0.9,0.9-0.9
			h12.1c0.5,0,0.9,0.4,0.9,0.9v5.2C103.1-120.5,102.7-120,102.2-120z M151.3-127.1h-12.1c-0.5,0-0.9-0.4-0.9-0.9v-5.2
			c0-0.5,0.4-0.9,0.9-0.9h12.1c0.5,0,0.9,0.4,0.9,0.9v5.2C152.3-127.5,151.9-127.1,151.3-127.1z M137.4-127.1h-12.1
			c-0.5,0-0.9-0.4-0.9-0.9v-5.2c0-0.5,0.4-0.9,0.9-0.9h12.1c0.5,0,0.9,0.4,0.9,0.9v5.2C138.3-127.5,137.9-127.1,137.4-127.1z
			 M123.5-127.1h-12.1c-0.5,0-0.9-0.4-0.9-0.9v-5.2c0-0.5,0.4-0.9,0.9-0.9h12.1c0.5,0,0.9,0.4,0.9,0.9v5.2
			C124.4-127.5,124-127.1,123.5-127.1z M109.5-127.1H97.3c-0.5,0-0.9-0.4-0.9-0.9v-5.2c0-0.5,0.4-0.9,0.9-0.9h12.1
			c0.5,0,0.9,0.4,0.9,0.9v5.2C110.4-127.5,110-127.1,109.5-127.1z M144.1-134.2H132c-0.5,0-0.9-0.4-0.9-0.9v-5.2
			c0-0.5,0.4-0.9,0.9-0.9h12.1c0.5,0,0.9,0.4,0.9,0.9v5.2C145-134.7,144.6-134.2,144.1-134.2z M130.1-134.2H118
			c-0.5,0-0.9-0.4-0.9-0.9v-5.2c0-0.5,0.4-0.9,0.9-0.9h12.1c0.5,0,0.9,0.4,0.9,0.9v5.2C131-134.7,130.6-134.2,130.1-134.2z
			 M116.2-134.2h-12.1c-0.5,0-0.9-0.4-0.9-0.9v-5.2c0-0.5,0.4-0.9,0.9-0.9h12.1c0.5,0,0.9,0.4,0.9,0.9v5.2
			C117.1-134.7,116.7-134.2,116.2-134.2z M102.2-134.2H90.1c-0.5,0-0.9-0.4-0.9-0.9v-5.2c0-0.5,0.4-0.9,0.9-0.9h12.1
			c0.5,0,0.9,0.4,0.9,0.9v5.2C103.1-134.7,102.7-134.2,102.2-134.2z M151.3-141.3h-12.1c-0.5,0-0.9-0.4-0.9-0.9v-5.2
			c0-0.5,0.4-0.9,0.9-0.9h12.1c0.5,0,0.9,0.4,0.9,0.9v5.2C152.3-141.7,151.9-141.3,151.3-141.3z M137.4-141.3h-12.1
			c-0.5,0-0.9-0.4-0.9-0.9v-5.2c0-0.5,0.4-0.9,0.9-0.9h12.1c0.5,0,0.9,0.4,0.9,0.9v5.2C138.3-141.7,137.9-141.3,137.4-141.3z
			 M123.5-141.3h-12.1c-0.5,0-0.9-0.4-0.9-0.9v-5.2c0-0.5,0.4-0.9,0.9-0.9h12.1c0.5,0,0.9,0.4,0.9,0.9v5.2
			C124.4-141.7,124-141.3,123.5-141.3z M109.5-141.3H97.3c-0.5,0-0.9-0.4-0.9-0.9v-5.2c0-0.5,0.4-0.9,0.9-0.9h12.1
			c0.5,0,0.9,0.4,0.9,0.9v5.2C110.4-141.7,110-141.3,109.5-141.3z M144.1-148.4H132c-0.5,0-0.9-0.4-0.9-0.9v-5.2
			c0-0.5,0.4-0.9,0.9-0.9h12.1c0.5,0,0.9,0.4,0.9,0.9v5.2C145-148.8,144.6-148.4,144.1-148.4z M130.1-148.4H118
			c-0.5,0-0.9-0.4-0.9-0.9v-5.2c0-0.5,0.4-0.9,0.9-0.9h12.1c0.5,0,0.9,0.4,0.9,0.9v5.2C131-148.8,130.6-148.4,130.1-148.4z
			 M116.2-148.4h-12.1c-0.5,0-0.9-0.4-0.9-0.9v-5.2c0-0.5,0.4-0.9,0.9-0.9h12.1c0.5,0,0.9,0.4,0.9,0.9v5.2
			C117.1-148.8,116.7-148.4,116.2-148.4z M102.2-148.4H90.1c-0.5,0-0.9-0.4-0.9-0.9v-5.2c0-0.5,0.4-0.9,0.9-0.9h12.1
			c0.5,0,0.9,0.4,0.9,0.9v5.2C103.1-148.8,102.7-148.4,102.2-148.4z"/>
	</g>
</g>
<circle class="st4" cx="183.2" cy="-126" r="23"/>
<path class="st8" d="M183.3-116.8c-1.2-0.5-5.6-2.7-5.6-7.1v-6.8c2.6-0.1,4.7-1,5.6-1.5c0.9,0.5,3,1.4,5.6,1.5v6.8
	C188.9-119.4,184.5-117.3,183.3-116.8z"/>
<path class="st8" d="M185.7-121.9h-4.8v-3.5h4.8V-121.9z M181.8-125.4v-1.4c0-0.8,0.7-1.5,1.5-1.5c0.8,0,1.5,0.7,1.5,1.5v1.4"/>
<path class="st8" d="M196.9-132.9l0-1.4c0-0.5-0.4-0.9-0.9-0.9l-12.3,0.1l-3.6-3.6l-8.6,0c-1,0-1.9,0.9-1.9,1.9l0.1,22.7h27.2
	V-132.9z"/>
<g>
	<circle class="st4" cx="249.4" cy="-121.5" r="23"/>
	<path class="st8" d="M259.8-112.8c0,1.8-1.5,3.3-3.3,3.3c-1.8,0-3.3-1.5-3.3-3.3c0-1.8,1.5-3.3,3.3-3.3
		C258.4-116.1,259.8-114.6,259.8-112.8z M255.8-113.7l0.8,2l1.5-3.9 M240.7-116.7h9.1 M240.7-119.5h14.7 M240.7-122.3h14.7
		 M240.7-125.2h14.7 M240.7-128h9.9 M240.7-130.8h9.9 M255.3-136.5h6.9v29.8H237v-29.8H255.3z"/>
</g>
<circle class="st4" cx="312.1" cy="-117.1" r="23"/>
<path class="st8" d="M312-111.9v1.1 M312-122.7v7.2 M312-131.2L298-107.1h27.9L312-131.2z"/>
<circle class="st4" cx="385.7" cy="-116.8" r="23"/>
<path class="st8" d="M385.7-99.4c-2.4-1-11.4-5.4-11.4-14.4v-13.7c5.3-0.1,9.6-2,11.4-3c1.8,1,6,2.8,11.4,3v13.7
	C397.1-104.8,388.1-100.4,385.7-99.4z"/>
<path class="st8" d="M390.6-109.7h-9.8v-7.1h9.8V-109.7z M382.7-116.8v-2.8c0-1.6,1.3-3,3-3c1.6,0,3,1.3,3,3v2.8"/>
<g>
	<path class="st0" d="M511.5-138.8v-5.9c0-16.5-12.9-30.4-29.4-30.8c-17.1-0.5-31.1,13.2-31.1,30.2l0,23.2h67.2
		c4.2,0,7.7,3.5,7.7,7.7v53.1c0,4.2-3.5,7.7-7.7,7.7c0,0-10.2,0-16.8,0c-3.3,0-6.2-2.3-7-5.5l-4.8-19.9l0,0c3.6-2.9,5.8-7.6,5-12.7
		c-0.9-6-5.8-10.7-11.8-11.4c-8.2-0.9-15.1,5.5-15.1,13.5c0,4.3,2,8.2,5.2,10.6l0,0c0,0-3,12.4-4.8,19.9c-0.8,3.2-3.7,5.5-7,5.5
		h-16.8c-4.2,0-7.7-3.5-7.7-7.7v-53.1"/>
</g>
<g>
	<path class="st9" d="M387.2-49.7c1.7,0.6,3.7,0.2,5-1.1c1.4-1.4,1.7-3.3,1.1-5l-2.4,2.4c-0.3,0.3-0.8,0.3-1.1,0l-1.8-1.8
		c-0.3-0.3-0.3-0.8,0-1.1l2.4-2.4c-1.7-0.6-3.7-0.2-5,1.1c-1.4,1.4-1.7,3.3-1.1,5l-7.4,7.4c-1.7-0.6-3.7-0.2-5,1.1
		c-1.4,1.4-1.7,3.3-1.1,5l2.4-2.4c0.3-0.3,0.8-0.3,1.1,0l1.8,1.8c0.3,0.3,0.3,0.8,0,1.1l-2.4,2.4c1.7,0.6,3.7,0.2,5-1.1
		c1.4-1.4,1.7-3.3,1.1-5l2.2-2.2"/>
	<path class="st9" d="M382-44.5l-5.8-6.2c-1-1-2.7-1-3.7,0c-0.9,0.9-1,2.4-0.2,3.4l-2,1.3c0,0-3.2-4.8,0.5-8.5
		c1.3-1.3,2.5-2.5,3.6-3.6c0.3,0.1,0.7,0.1,1,0.2c0.3,0.1,0.6-0.2,0.5-0.5l-0.2-1l1.7-1.7l4.6,4.6l-1.6,1.6c-0.5-0.5-1.3-0.5-1.7,0
		c-0.5,0.5-0.5,1.3,0,1.7l12.8,11.9c0.1,0.1,0.2,0.2,0.2,0.2c0.7,0.8,0.7,2,0.1,2.9c-0.9,1.1-2.5,1.2-3.5,0.3c0,0-0.1-0.1-0.1-0.1
		l-4.2-4.4"/>
</g>
<g>
	<path class="st10" d="M702.8,268.4c-16.8,29.7-59.2,67.7-114.4,99.6c-81.9,47.3-161,63.4-176.8,36c-7.4-12.7,0.3-32.6,18.8-55"/>
	<path class="st10" d="M649.7,221.7c29.3-5.1,50.9-1.9,58.3,11c2.6,4.5,3.3,10,2.3,16.1"/>
	<circle class="st10" cx="707.4" cy="258.9" r="10.5"/>
	<circle class="st10" cx="556" cy="290.5" r="132"/>
</g>
<image style="overflow:visible;" width="1600" height="700" xlink:href="../Dropbox (Muuaaa)/Muuaaa Team Folder/Graphic Design_Gabriel/Neptuno/02 Design/images/slide-22.jpg"  transform="matrix(0.4158 0 0 0.4158 265.8946 -224.1622)">
</image>
<image style="overflow:visible;" width="1078" height="516" xlink:href="datacenter-google-1078x516.jpg"  transform="matrix(1 0 0 1 392.2198 -865.1335)">
</image>
<g>
	<g>
		<g>
			<path class="st11" d="M1286.5,237.2c7.8-13.2,12.3-28.7,12.3-45.2c0-49.1-39.8-88.9-88.9-88.9s-88.9,39.8-88.9,88.9
				c0,16,4.2,30.9,11.6,43.9"/>
			<path class="st11" d="M1142.8,250.2c16.3,18.8,40.3,30.7,67.2,30.7c26.8,0,50.9-11.9,67.2-30.7"/>
			<rect x="1137.4" y="247" class="st11" width="45.9" height="3.2"/>
			<g>
				<rect x="1132.7" y="231.9" class="st11" width="55.3" height="15.1"/>
				<line class="st11" x1="1137.2" y1="236.2" x2="1137.2" y2="242.7"/>
				<line class="st11" x1="1140.7" y1="236.2" x2="1140.7" y2="242.7"/>
				<line class="st11" x1="1144.2" y1="236.2" x2="1144.2" y2="242.7"/>
				<line class="st11" x1="1147.7" y1="236.2" x2="1147.7" y2="242.7"/>
				<line class="st11" x1="1151.1" y1="236.2" x2="1151.1" y2="242.7"/>
				<line class="st11" x1="1154.6" y1="236.2" x2="1154.6" y2="242.7"/>
				<circle class="st11" cx="1181.3" cy="239.4" r="2.3"/>
				<circle class="st11" cx="1173.3" cy="239.4" r="2.3"/>
				<circle class="st11" cx="1165.3" cy="239.4" r="2.3"/>
			</g>
			<path class="st11" d="M1142.4,231.9v-19.6c0-1.2,1-2.2,2.2-2.2l0,0c1.2,0,2.2,1,2.2,2.2v19.6"/>
			<path class="st11" d="M1136.5,199.9c2.1-2.1,5-3.4,8.1-3.4"/>
			<path class="st11" d="M1138.8,203.1c1.5-1.5,3.6-2.4,5.9-2.4"/>
			<path class="st11" d="M1141,206.3c0.9-0.9,2.2-1.5,3.6-1.5"/>
			<path class="st11" d="M1152.8,199.9c-2.1-2.1-5-3.4-8.1-3.4"/>
			<path class="st11" d="M1150.5,203.1c-1.5-1.5-3.6-2.4-5.9-2.4"/>
			<path class="st11" d="M1148.3,206.3c-0.9-0.9-2.2-1.5-3.6-1.5"/>
			<path class="st11" d="M1173.7,231.9v-19.6c0-1.2,1-2.2,2.2-2.2l0,0c1.2,0,2.2,1,2.2,2.2v19.6"/>
			<path class="st11" d="M1167.8,199.9c2.1-2.1,5-3.4,8.1-3.4"/>
			<path class="st11" d="M1170.1,203.1c1.5-1.5,3.6-2.4,5.9-2.4"/>
			<path class="st11" d="M1172.3,206.3c0.9-0.9,2.2-1.5,3.6-1.5"/>
			<path class="st11" d="M1184.1,199.9c-2.1-2.1-5-3.4-8.1-3.4"/>
			<path class="st11" d="M1181.8,203.1c-1.5-1.5-3.6-2.4-5.9-2.4"/>
			<path class="st11" d="M1179.6,206.3c-0.9-0.9-2.2-1.5-3.6-1.5"/>
			<rect x="1194.3" y="141.2" class="st11" width="42.5" height="105.8"/>
			<rect x="1199.8" y="146.8" class="st11" width="31.4" height="8.2"/>
			<rect x="1199.8" y="154.9" class="st11" width="31.4" height="8.2"/>
			<rect x="1199.8" y="163.1" class="st11" width="31.4" height="8.2"/>
			<rect x="1199.8" y="171.2" class="st11" width="31.4" height="8.2"/>
			<rect x="1199.8" y="179.4" class="st11" width="31.4" height="8.2"/>
			<rect x="1199.8" y="187.5" class="st11" width="31.4" height="8.2"/>
			<rect x="1199.8" y="213.8" class="st11" width="31.4" height="23.2"/>
			<circle class="st11" cx="1215.3" cy="225.4" r="2.8"/>
			<g>
				<rect x="1199.8" y="202.7" class="st11" width="18.6" height="4.1"/>
				<rect x="1227.2" y="202.7" class="st11" width="4.1" height="4.1"/>
			</g>
			<line class="st11" x1="1212.5" y1="225.4" x2="1199.8" y2="225.4"/>
			<line class="st11" x1="1218.1" y1="225.4" x2="1230.7" y2="225.4"/>
			<rect x="1194.3" y="247" class="st11" width="42.5" height="3.2"/>
			<circle class="st11" cx="1266" cy="219.4" r="11.7"/>
			<circle class="st11" cx="1266" cy="219.4" r="6.4"/>
			<circle class="st11" cx="1266" cy="219.4" r="2.6"/>
			<line class="st11" x1="1266" y1="231.1" x2="1266" y2="237.2"/>
			<g>
				<rect x="1243.2" y="237.2" class="st11" width="44.1" height="9.8"/>
				<line class="st11" x1="1276.6" y1="242.1" x2="1253.9" y2="242.1"/>
			</g>
			<rect x="1246.9" y="247" class="st11" width="36.7" height="3.2"/>
		</g>
	</g>
</g>
<g>
	<linearGradient id="SVGID_3_" gradientUnits="userSpaceOnUse" x1="1347.9386" y1="70.4397" x2="1470.1764" y2="70.4397">
		<stop  offset="0" style="stop-color:#C558A0"/>
		<stop  offset="0.5945" style="stop-color:#7F3E93"/>
		<stop  offset="1" style="stop-color:#532E8B"/>
	</linearGradient>
	<path class="st12" d="M1438.9,48.3l31.3,17.6l-61.4,34.6l-60.9-34.6l30.8-17.5C1397.4,37.8,1420.2,37.8,1438.9,48.3z"/>
	<path class="st13" d="M1347.9,65.9v3.6l59.9,34.7c0.4,0.2,0.8,0.2,1.1,0l61.2-34.7v-3.7l-61.4,34.6L1347.9,65.9z"/>
	<path class="st14" d="M1433.7,17.6l36.4,20.5l-61.4,34.6l-60.9-34.6l36-20.4C1399.4,8.9,1418.3,8.9,1433.7,17.6z"/>
	<path class="st15" d="M1435.4-7.3l34.8,19.6l-61.4,34.6l-60.9-34.6l34.3-19.5C1398.7-16.6,1418.9-16.6,1435.4-7.3z"/>
	<path class="st16" d="M1347.9,12.3l0.1,3.6l59.7,34.7c0.4,0.2,0.8,0.2,1.2,0l61.2-34.7v-3.6l-61.4,34.6L1347.9,12.3z"/>
	<path class="st17" d="M1347.9,38.1l0.1,3.6l59.7,34.7c0.4,0.2,0.9,0.2,1.3,0l61.1-34.7v-3.6l-61.4,34.6L1347.9,38.1z"/>
</g>
<g>
	<g>
		<path class="st18" d="M1889.4-26.1l-76.2,129.5c-1.5,2.5,0.3,5.7,3.3,5.7h61.4c0.7,0,1.3,0.6,1.2,1.4l-13.6,101.2
			c-0.4,3.3,4,4.9,5.7,2l94.1-155.8c1.4-2.3-0.3-5.2-2.9-5.2h-74.4c-0.7,0-1.3-0.6-1.2-1.3l8-75.7
			C1895.1-27.4,1891-28.8,1889.4-26.1z"/>
	</g>
	<g>
		<g>
			<path class="st1" d="M1749.8,77.2c-28.5-17-50.1-44.3-59.4-76.2c-9.1-31-6.3-65.2,7.9-94.2c28.1-57.4,95.2-86.9,156.5-68.2
				c35.2,10.7,64.3,36.3,80.3,69.4c2,4.1,8.2,0.5,6.2-3.6c-14.9-30.8-40.8-55.3-72.4-68.3c-31.7-13-68.2-13.7-100.3-1.8
				c-29.8,11.1-55.3,32.3-71.4,59.7c-17.1,29-22.9,63.8-16.6,96.8c7.4,38.7,31.9,72.6,65.7,92.7
				C1750.2,85.8,1753.8,79.6,1749.8,77.2L1749.8,77.2z"/>
		</g>
	</g>
	<g>
		<g>
			<path class="st1" d="M1939.1-90.5c47.3-13.1,98.5,12.1,115.3,58.7c15.6,43.4-2.9,92.9-43.2,115.3c-25.3,14.1-55.7,15.3-82.5,4.6
				c-4.3-1.7-6.1,5.2-1.9,6.9c49.2,19.8,107.2-2.1,130.2-50.1c21.5-44.9,6.9-99.8-33.9-128.2c-25-17.4-56.8-22.2-86-14.1
				C1932.8-96.1,1934.7-89.2,1939.1-90.5L1939.1-90.5z"/>
		</g>
	</g>
	<g>
		<g>
			<path class="st1" d="M1931,93.3c9.8-16.3,19.7-32.6,29.5-48.9c1.4-2.3-0.4-5.4-3.1-5.4c-27.2,0-54.3,0-81.5,0
				c1.2,1.2,2.4,2.4,3.6,3.6c3.8-28.3,7.6-56.6,11.3-84.9c0.6-4.1,1.1-8.2,1.7-12.3c0.5-3.7-5-4.6-6.7-1.8
				c-10.1,17.3-20.1,34.5-30.2,51.8c-16.1,27.5-32.2,55.1-48.3,82.6c-3.7,6.4-7.5,12.8-11.2,19.2c-1.4,2.3,0.4,5.4,3.1,5.4
				c23,0,46.1,0,69.1,0c-1.2-1.2-2.4-2.4-3.6-3.6c-4.6,34.3-9.2,68.6-13.8,102.9c-0.6,4.8-1.3,9.6-1.9,14.4c-0.5,3.7,5,4.6,6.7,1.8
				c15.8-26.3,31.7-52.5,47.5-78.8c2.3-3.8,4.5-7.5,6.8-11.3c2.4-4-3.8-7.6-6.2-3.6c-15.8,26.3-31.7,52.5-47.5,78.8
				c-2.3,3.8-4.5,7.5-6.8,11.3c2.2,0.6,4.4,1.2,6.7,1.8c4.6-34.3,9.2-68.6,13.8-102.9c0.6-4.8,1.3-9.6,1.9-14.4
				c0.3-1.9-1.8-3.6-3.6-3.6c-23,0-46.1,0-69.1,0c1,1.8,2.1,3.6,3.1,5.4c10.1-17.3,20.1-34.5,30.2-51.8
				c16.1-27.5,32.2-55.1,48.3-82.6c3.7-6.4,7.5-12.8,11.2-19.2c-2.2-0.6-4.4-1.2-6.7-1.8c-3.8,28.3-7.6,56.6-11.3,84.9
				c-0.6,4.1-1.1,8.2-1.7,12.3c-0.3,1.9,1.8,3.6,3.6,3.6c27.2,0,54.3,0,81.5,0c-1-1.8-2.1-3.6-3.1-5.4
				c-9.8,16.3-19.7,32.6-29.5,48.9C1922.4,93.7,1928.6,97.3,1931,93.3L1931,93.3z"/>
		</g>
	</g>
</g>
<g>
	<g>
		<path class="st18" d="M2820.4,66.1h-73.2c-5.1,0-9.3,4.2-9.3,9.3v51.7c0,5.1,4.2,9.3,9.3,9.3h73.2c5.1,0,9.3-4.2,9.3-9.3V75.4
			C2829.6,70.3,2825.5,66.1,2820.4,66.1z M2795.6,120.3c0.3,1.2-0.6,2.3-1.8,2.3h-20.1c-1.2,0-2.1-1.1-1.8-2.3l4.5-18.8
			c-2.8-2.2-4.7-5.6-4.7-9.5c0-7.5,6.8-13.4,14.6-11.8c4.7,1,8.4,4.8,9.2,9.5c0.9,4.8-1.1,9.1-4.5,11.8L2795.6,120.3z"/>
	</g>
</g>
<g>
	<path class="st18" d="M2895.3-85.3l-53.6,10.6c-0.6,0.1-1.3-0.1-1.7-0.6l-27.2-30.3c-1-1.1-0.4-2.8,1-3.1l73.9-14.6
		c1-0.2,2,0.5,2.2,1.5l6.9,34.3C2897-86.5,2896.4-85.5,2895.3-85.3z"/>
</g>
<g>
	<path class="st18" d="M2661.1-85.3l53.6,10.6c0.6,0.1,1.3-0.1,1.7-0.6l27.2-30.3c1-1.1,0.4-2.8-1-3.1l-73.9-14.6
		c-1-0.2-2,0.5-2.2,1.5l-6.9,34.3C2659.4-86.5,2660-85.5,2661.1-85.3z"/>
</g>
<g>
	<g>
		<path class="st18" d="M2867.8-16.7c-49.5,0-85.9-23.3-85.9-23.3s-36.4,23.3-85.9,23.3h-8.2V94c0,83.8,94.1,116.3,94.1,116.3
			S2876,177.8,2876,94V-16.7H2867.8z M2863.2,94c0,63.9-64.1,95.2-81.3,102.4c-17.2-7.2-81.3-38.5-81.3-102.4V-3.9
			c38.1-1,68.2-14.5,81.3-21.4c13,6.9,43.1,20.3,81.3,21.4V94z"/>
	</g>
</g>
<circle class="st19" cx="2685.6" cy="-60.3" r="8.3"/>
<line class="st19" x1="2685.6" y1="-68.7" x2="2685.6" y2="-85.3"/>
<line class="st19" x1="2677.3" y1="-60.3" x2="2606.3" y2="-60.3"/>
<line class="st19" x1="2670.5" y1="-117.3" x2="2694" y2="-112.6"/>
<polyline class="st19" points="2734.1,-104.7 2743.1,-102.9 2739.6,-85.7 2720.4,-89.5 "/>
<polygon class="st19" points="2655.5,-91.3 2712,-80.1 2742.1,-113.6 2663.2,-129.2 "/>
<circle class="st19" cx="2870.8" cy="-60.3" r="8.3"/>
<path class="st19" d="M2870.8-68.7v-16.7V-68.7z"/>
<path class="st19" d="M2879.1-60.3h71H2879.1z"/>
<line class="st19" x1="2885.9" y1="-117.3" x2="2862.4" y2="-112.6"/>
<polygon class="st19" points="2822.3,-104.7 2813.3,-102.9 2816.8,-85.7 2836,-89.5 "/>
<polygon class="st19" points="2900.9,-91.3 2844.4,-80.1 2814.3,-113.6 2893.2,-129.2 "/>
<path class="st19" d="M2849.8,155.3c63.4-27.6,107.7-90.9,107.7-164.5c0-99-80.3-179.3-179.3-179.3c-99,0-179.3,80.3-179.3,179.3
	c0,73.6,44.3,136.8,107.7,164.5"/>
<path class="st19" d="M2778.2,206.5c0,0,94.1-32.4,94.1-116.3V-20.4h-8.2c-49.5,0-85.9-23.3-85.9-23.3s-36.4,23.3-85.9,23.3h-8.2
	V90.2C2684.1,174.1,2778.2,206.5,2778.2,206.5z"/>
<path class="st19" d="M2778.2,192.7c-17.2-7.2-81.3-38.5-81.3-102.4V-7.7c38.1-1,68.2-14.5,81.3-21.4c13,6.9,43.1,20.3,81.3,21.4
	v97.9C2859.5,154.2,2795.4,185.4,2778.2,192.7z"/>
<path class="st19" d="M2814.8,130.9h-73.2c-5.1,0-9.3-4.2-9.3-9.3V69.8c0-5.1,4.2-9.3,9.3-9.3h73.2c5.1,0,9.3,4.2,9.3,9.3v51.7
	C2824.1,126.7,2819.9,130.9,2814.8,130.9z"/>
<path class="st19" d="M2790,114.7l-4.5-18.8c3.4-2.6,5.4-7,4.5-11.8c-0.9-4.7-4.6-8.5-9.2-9.5c-7.8-1.6-14.6,4.3-14.6,11.8
	c0,3.9,1.9,7.3,4.7,9.5l-4.5,18.8c-0.3,1.2,0.6,2.3,1.8,2.3h20.1C2789.4,117,2790.3,115.9,2790,114.7z"/>
<path class="st19" d="M2809.2,60.6c0,0,0-23.8,0-23.8c0-17.1-13.9-31-31-31c-17.1,0-31,13.9-31,31v23.8H2809.2z"/>
<path class="st19" d="M3271.8,155.3c63.4-27.6,107.7-90.9,107.7-164.5c0-99-80.3-179.3-179.3-179.3c-99,0-179.3,80.3-179.3,179.3
	c0,73.6,44.3,136.8,107.7,164.5"/>
<g>
	<path class="st19" d="M3248.5-19.8c15,5.4,32.4,2.1,44.4-9.9s15.3-29.4,9.9-44.4l-21.3,21.3c-2.7,2.7-7,2.7-9.7,0L3256-68.7
		c-2.7-2.7-2.7-7,0-9.7l21.3-21.3c-15-5.4-32.4-2.1-44.4,9.9s-15.3,29.4-9.9,44.4l-65,65c-15-5.4-32.4-2.1-44.4,9.9
		s-15.3,29.4-9.9,44.4l21.3-21.3c2.7-2.7,7-2.7,9.7,0l15.9,15.9c2.7,2.7,2.7,7,0,9.7l-21.3,21.3c15,5.4,32.4,2.1,44.4-9.9
		s15.3-29.4,9.9-44.4l19.2-19.2"/>
	<path class="st19" d="M3202.7,26l-50.9-54.6c-8.9-8.9-23.4-8.9-32.4,0c-8.2,8.2-8.9,21.2-1.9,30.2l-17.9,11.2c0,0-28.2-42.3,4-74.5
		c11.2-11.2,22.2-22.2,31.5-31.5c3,0.5,6.3,1.1,9.1,1.5c2.8,0.5,5.2-1.9,4.7-4.7l-1.5-9.1l14.6-14.6l40.7,40.7l-14.4,14.4
		c-4.2-4.2-11.1-4.2-15.4,0s-4.2,11.1,0,15.4l112.7,105.1c0.8,0.7,1.5,1.4,2.2,2.2c6.1,7.1,6.5,17.9,0.8,25.4
		c-7.6,10.1-22.1,10.9-30.7,2.2c-0.3-0.3-0.7-0.7-1-1.1L3220.4,45"/>
</g>
<g>
	<path class="st19" d="M3668.7,58l-19.2,19.2c5.4,15,2.1,32.4-9.9,44.4s-29.4,15.3-44.4,9.9l21.3-21.3c2.7-2.7,2.7-7,0-9.7
		l-15.9-15.9c-2.7-2.7-7-2.7-9.7,0l-21.3,21.3c-5.4-15-2.1-32.4,9.9-44.4s29.4-15.3,44.4-9.9l65-65c-5.4-15-2.1-32.4,9.9-44.4
		s29.4-15.3,44.4-9.9L3722-46.4c-2.7,2.7-2.7,7,0,9.7l15.9,15.9c2.7,2.7,7,2.7,9.7,0l21.3-21.3c5.4,15,2.1,32.4-9.9,44.4
		s-29.4,15.3-44.4,9.9"/>
	<path class="st19" d="M3668.7,58l-50.9-54.6c-8.9-8.9-23.4-8.9-32.4,0c-8.2,8.2-8.9,21.2-1.9,30.2l-17.9,11.2c0,0-28.2-42.3,4-74.5
		c11.2-11.2,22.2-22.2,31.5-31.5c3,0.5,6.3,1.1,9.1,1.5c2.8,0.5,5.2-1.9,4.7-4.7l-1.5-9.1l14.6-14.6l40.7,40.7l-14.4,14.4
		c-4.2-4.2-11.1-4.2-15.4,0s-4.2,11.1,0,15.4l112.7,105.1c0.8,0.7,1.5,1.4,2.2,2.2c6.1,7.1,6.5,17.9,0.8,25.4
		c-7.6,10.1-22.1,10.9-30.7,2.2c-0.3-0.3-0.7-0.7-1-1.1L3686.4,77l-0.7,81.4c-64.4,25.3-133,9.1-185.1-42.9c-70-70-70-183.6,0-253.6
		c70-70,183.6-70,253.6,0c52,52,65.4,128.1,40.1,192.5"/>
</g>
<g>
	<path class="st20" d="M81.6,19.8v-1.3c0-0.5-0.4-0.9-0.9-0.9H68.9l-3.5-3.5h-8.3c-1,0-1.8,0.8-1.8,1.8v21.8l5.5-15
		c0.1-0.4,0.5-0.6,0.9-0.6h21.7c0.6,0,1.1,0.6,0.9,1.2l-5,13.8c-0.1,0.4-0.5,0.6-0.9,0.6H58.4"/>
</g>
<g>
	<path class="st21" d="M9.4,33.3c-5.1-3-8.6-8.6-8.6-15c0-9.6,7.8-17.5,17.5-17.5c7,0,13,4.1,15.8,9.9"/>
	<path class="st21" d="M34,10.7c1.1-0.3,2.3-0.5,3.5-0.5c7,0,12.7,5.7,12.7,12.7s-5.7,12.7-12.7,12.7c-1.7,0-3.4-0.3-4.9-1"/>
	<polyline class="st21" points="32.6,34.7 36.5,28.4 25.9,28.4 27.6,15.8 16,35.7 24.9,35.7 22.9,50.8 29.9,39.2 	"/>
</g>
</svg>
