<?xml version="1.0" encoding="utf-8"?>
<!-- Generator: Adobe Illustrator 21.1.0, SVG Export Plug-In . SVG Version: 6.00 Build 0)  -->
<svg version="1.1" id="Layer_1" xmlns="http://www.w3.org/2000/svg" xmlns:xlink="http://www.w3.org/1999/xlink" x="0px" y="0px"
	 viewBox="0 0 47.6 47.6" style="enable-background:new 0 0 47.6 47.6;" xml:space="preserve">
<style type="text/css">
	.st0{fill:none;stroke:#662F8F;stroke-width:4;stroke-linecap:round;stroke-linejoin:round;stroke-miterlimit:10;}
	.st1{fill:#662F8F;}
	.st2{fill:none;stroke:#662F8F;stroke-width:2;stroke-linecap:round;stroke-linejoin:round;stroke-miterlimit:10;}
	.st3{fill:none;stroke:#FFFFFF;stroke-width:0.488;stroke-linecap:round;stroke-linejoin:round;stroke-miterlimit:10;}
	.st4{fill:none;stroke:#E73E51;stroke-width:1.6927;}
	.st5{fill:none;stroke:#E73E51;stroke-width:1.1285;stroke-linecap:round;stroke-linejoin:round;stroke-miterlimit:10;}
	.st6{fill:#E73E51;}
</style>
<g>
	<path class="st0" d="M-268.4-116.1c9.6-9.6,22.8-15.5,37.3-15.5"/>
	<path class="st0" d="M-254-101.7c5.9-5.9,14-9.5,23-9.5"/>
	<path class="st0" d="M-297.2-144.9c17.7-17.7,41.2-27.4,66.1-27.4c25,0,48.4,9.7,66.1,27.4"/>
	<path class="st0" d="M-179.3-130.5c-13.3-13.3-31.6-21.5-51.7-21.5s-38.5,8.2-51.7,21.5"/>
	<path class="st0" d="M-193.7-116.1c-9.6-9.6-22.8-15.5-37.3-15.5"/>
	<path class="st0" d="M-208.1-101.7c-5.9-5.9-14-9.5-23-9.5"/>
	<path class="st0" d="M-222.5-70.2c-2.2,2.2-5.2,3.5-8.6,3.5c-6.7,0-12.1-5.4-12.1-12.1s5.4-12.1,12.1-12.1c3.3,0,6.4,1.4,8.6,3.5"
		/>
	<path class="st0" d="M-179.3-130.5c4,4,4,10.4,0,14.4c-4,4-10.4,4-14.4,0"/>
	<path class="st0" d="M-254-101.7c-4,4-10.4,4-14.4,0c-4-4-4-10.4,0-14.4"/>
	<path class="st0" d="M-208.1-101.7c4,4,4,10.4,0,14.4c-4,4-10.4,4-14.4,0"/>
	<path class="st0" d="M-282.8-130.5c-4,4-10.4,4-14.4,0c-4-4-4-10.4,0-14.4"/>
</g>
<g>
	<path class="st1" d="M-85.3-182c-28.7,0-52,23.3-52,52s23.3,52,52,52s52-23.3,52-52S-56.6-182-85.3-182z M-85.3-81.7
		c-26.6,0-48.3-21.7-48.3-48.3s21.7-48.3,48.3-48.3S-37-156.6-37-130S-58.6-81.7-85.3-81.7z"/>
	<path class="st1" d="M-48.7-135.8c-4.8-4.7-10.4-8.3-16.4-10.7c0-0.3,0.1-0.7,0.1-1c0-11.1-9-20.2-20.2-20.2s-20.2,9-20.2,20.2
		c0,0.6,0,1.1,0.1,1.7c-5.5,2.4-10.5,5.8-14.9,10.1c0,0-0.1,0.1-0.1,0.1c-1.2,1.2-1.8,2.8-1.8,4.5c0,1.7,0.7,3.4,1.9,4.6
		c2.6,2.5,6.7,2.5,9.3,0c0,0,0,0,0,0c3.2-3.1,6.8-5.6,10.8-7.4c2.3,2.5,5.2,4.5,8.5,5.5c-5,1.2-9.6,3.7-13.4,7.4
		c0,0-0.1,0.1-0.1,0.1c-1.3,1.2-1.9,2.9-1.9,4.6c0,1.7,0.7,3.4,1.9,4.6c2.6,2.5,6.7,2.5,9.3,0c0,0,0,0,0,0h0c3-2.9,7-4.5,11.3-4.5
		c4.3,0,8.3,1.6,11.3,4.5c0,0,0,0,0,0c0.8,0.8,1.2,1.8,1.2,2.8c0,1.1-0.4,2.1-1.2,2.8c-1.6,1.6-4.3,1.6-5.9,0c0,0-0.1-0.1-0.1-0.1
		c-1.4-1.3-3.3-2.1-5.3-2.1c-4.2,0-7.6,3.3-7.6,7.5c0,4.1,3.4,7.5,7.6,7.5c2,0,3.9-0.8,5.4-2.2c0.5-0.5,0.5-1.3,0-1.7
		c-0.5-0.5-1.3-0.5-1.7,0c-1,1-2.3,1.5-3.7,1.5c-2.8,0-5.2-2.2-5.2-5c0-2.8,2.3-5,5.2-5c1.4,0,2.7,0.5,3.7,1.5c0,0,0.1,0.1,0.1,0.1
		c2.6,2.4,6.7,2.4,9.2-0.1c1.3-1.2,1.9-2.9,1.9-4.6s-0.7-3.4-1.9-4.6c0,0,0,0,0,0c-3.5-3.4-8.1-5.2-13-5.2c-4.9,0-9.5,1.9-13,5.2
		c0,0,0,0,0,0c-1.6,1.6-4.3,1.6-5.9,0c-0.8-0.8-1.2-1.8-1.2-2.8c0-1,0.4-2,1.1-2.7c0,0,0.1-0.1,0.1-0.1c5-4.9,11.7-7.6,18.8-7.6
		c7.1,0,13.8,2.7,18.8,7.6c0,0,0,0,0,0c2.6,2.5,6.7,2.5,9.3,0c1.3-1.2,1.9-2.9,1.9-4.6c0-1.7-0.7-3.4-1.9-4.6c0,0,0,0,0,0
		c-3.6-3.5-7.7-6.2-12.1-8.1c1.5-2.2,2.5-4.8,3-7.5c5.5,2.3,10.6,5.7,15,9.9c0.5,0.5,1.3,0.5,1.7,0
		C-48.2-134.6-48.2-135.4-48.7-135.8z M-112.6-128.4C-112.6-128.4-112.6-128.4-112.6-128.4c-1.6,1.6-4.3,1.6-5.9,0
		c-0.8-0.8-1.2-1.8-1.2-2.8c0-1.1,0.4-2.1,1.2-2.8c0,0,0.1-0.1,0.1-0.1c4-3.9,8.5-6.9,13.5-9.2c0.6,2.7,1.7,5.2,3.3,7.4
		C-105.7-134.1-109.4-131.6-112.6-128.4z M-58-126.6C-58-126.6-58-126.6-58-126.6c0.8,0.8,1.2,1.8,1.2,2.8c0,1.1-0.4,2.1-1.2,2.8
		c-1.6,1.6-4.3,1.6-5.9,0c0,0,0,0,0,0c-4-3.9-9-6.5-14.4-7.7c3.3-1.2,6.1-3.2,8.4-5.8C-65.6-132.7-61.5-130-58-126.6z M-85.3-129.9
		c-9.8,0-17.7-7.9-17.7-17.7c0-9.8,7.9-17.7,17.7-17.7s17.7,7.9,17.7,17.7C-67.6-137.8-75.5-129.9-85.3-129.9z"/>
	<path class="st1" d="M-92.9-148.9h-1.9l0.1-3.7h5.6v-1.5h-7.1l-0.2,6.6h2.9c2.5,0,3.4,1.1,3.4,2.5c0,1.4-1,2.5-2.8,2.5
		c-1.3,0-2.5-0.6-3.4-1.6l-1,1c1.1,1.3,2.6,2,4.4,2c2.4,0,4.5-1.5,4.5-4.2C-88.4-147.1-89.9-148.9-92.9-148.9z"/>
	<path class="st1" d="M-78.9-148.1v1.5h3.9c-0.3,2.5-1.9,4.1-4.5,4.1c-2.8,0-4.9-2.1-4.9-5.1c0-3,2.2-5.1,5-5.1
		c1.6,0,2.9,0.7,3.8,1.7l1.2-1.2c-1.2-1.3-3-2.1-5-2.1c-3.9,0-6.7,2.8-6.7,6.7c0,4.2,3.2,6.7,6.6,6.7c3.9,0,6.3-3,6.3-6.7
		c0-0.1,0-0.3,0-0.4H-78.9z"/>
</g>
<g>
	<line class="st2" x1="46.6" y1="-96.3" x2="46.6" y2="-87.7"/>
	<path class="st2" d="M32.9-87.7c-2.8,0-5.2-2.3-5.2-5.2v-77.8c0-2.8,2.3-5.2,5.2-5.2h69.9c2.8,0,5.2,2.3,5.2,5.2v77.8
		c0,2.8-2.3,5.2-5.2,5.2H46.6"/>
	<path class="st2" d="M46.6-96.3h-5c-2.8,0-5.2-2.3-5.2-5.2v-60.4c0-2.8,2.3-5.2,5.2-5.2h10.1c2.8,0,5.2,2.3,5.2,5.2v60.4"/>
	<g>
		<g>
			<circle class="st2" cx="68.6" cy="-146.5" r="3.8"/>
			<circle class="st2" cx="82.5" cy="-146.5" r="3.8"/>
			<circle class="st2" cx="96.4" cy="-146.5" r="3.8"/>
			<circle class="st2" cx="68.6" cy="-132.6" r="3.8"/>
			<circle class="st2" cx="82.5" cy="-132.6" r="3.8"/>
			<circle class="st2" cx="96.4" cy="-132.6" r="3.8"/>
			<circle class="st2" cx="68.6" cy="-118.7" r="3.8"/>
			<circle class="st2" cx="82.5" cy="-118.7" r="3.8"/>
			<circle class="st2" cx="96.4" cy="-118.7" r="3.8"/>
			<circle class="st2" cx="68.6" cy="-104.8" r="3.8"/>
			<circle class="st2" cx="82.5" cy="-104.8" r="3.8"/>
			<circle class="st2" cx="96.4" cy="-104.8" r="3.8"/>
		</g>
		<line class="st2" x1="64.8" y1="-162.4" x2="100.2" y2="-162.4"/>
	</g>
</g>
<g>
	<path class="st3" d="M-36,16.1v-1c0-2.7-2.1-4.9-4.8-5c-2.8-0.1-5.1,2.2-5.1,4.9l0,3.8h10.9c0.7,0,1.3,0.6,1.3,1.3v8.6
		c0,0.7-0.6,1.3-1.3,1.3h-2.7c-0.5,0-1-0.4-1.1-0.9l-0.8-3.2v0c0.6-0.5,0.9-1.2,0.8-2.1c-0.1-1-1-1.7-1.9-1.9
		c-1.3-0.1-2.5,0.9-2.5,2.2c0,0.7,0.3,1.3,0.8,1.7h0c0,0-0.5,2-0.8,3.2c-0.1,0.5-0.6,0.9-1.1,0.9H-47c-0.7,0-1.3-0.6-1.3-1.3v-8.6"
		/>
</g>
<g>
	<circle class="st4" cx="82.2" cy="23.4" r="23"/>
	<path class="st5" d="M59,23.3l23.2-0.1 M82.2,23.2V0.2V23.2z M93.8,23.2c0,6.4-5.2,11.6-11.6,11.6c-6.4,0-11.7-5.2-11.7-11.6
		c0-6.4,5.2-11.6,11.7-11.6C88.6,11.6,93.8,16.8,93.8,23.2z M99.4,23.2c0,9.5-7.7,17.3-17.3,17.3c-9.5,0-17.3-7.7-17.3-17.3
		C64.9,13.7,72.7,6,82.2,6C91.7,6,99.4,13.7,99.4,23.2z"/>
	<path class="st6" d="M66.5,17.9c1.2,0,2.2-1,2.2-2.2c0-1.2-1-2.2-2.2-2.2c-1.2,0-2.2,1-2.2,2.2C64.3,17,65.3,17.9,66.5,17.9"/>
</g>
<g>
	<circle class="st4" cx="23.8" cy="23.8" r="23"/>
	<path class="st5" d="M34.6,16.5l7.1,7.2 M34.6,16.5l-7.1,10.3 M20.5,30.9l7.1-4.2 M20.5,30.9l-7.1-9.5 M6.4,26.4l7.1-4.9"/>
	<path class="st6" d="M11.3,21.4c0-1.2,1-2.1,2.1-2.1c1.2,0,2.1,1,2.1,2.1c0,1.2-1,2.1-2.1,2.1C12.2,23.6,11.3,22.6,11.3,21.4"/>
	<path class="st6" d="M18.3,30.9c0-1.2,1-2.1,2.1-2.1c1.2,0,2.1,1,2.1,2.1c0,1.2-1,2.1-2.1,2.1C19.3,33.1,18.3,32.1,18.3,30.9"/>
	<path class="st6" d="M25.4,26.8c0-1.2,1-2.1,2.1-2.1c1.2,0,2.1,1,2.1,2.1c0,1.2-1,2.1-2.1,2.1C26.4,28.9,25.4,27.9,25.4,26.8"/>
	<path class="st6" d="M32.5,16.5c0-1.2,1-2.1,2.1-2.1s2.1,1,2.1,2.1c0,1.2-1,2.1-2.1,2.1S32.5,17.7,32.5,16.5"/>
	<path class="st6" d="M39.3,23.6c0-1.2,1-2.1,2.1-2.1s2.1,1,2.1,2.1c0,1.2-1,2.1-2.1,2.1S39.3,24.7,39.3,23.6"/>
	<path class="st6" d="M4.5,26.2c0-1.2,1-2.1,2.1-2.1c1.2,0,2.1,1,2.1,2.1c0,1.2-1,2.1-2.1,2.1C5.5,28.3,4.5,27.4,4.5,26.2"/>
</g>
</svg>
