<?xml version="1.0" encoding="utf-8"?>
<!-- Generator: Adobe Illustrator 21.1.0, SVG Export Plug-In . SVG Version: 6.00 Build 0)  -->
<svg version="1.1" id="Layer_1" xmlns="http://www.w3.org/2000/svg" xmlns:xlink="http://www.w3.org/1999/xlink" x="0px" y="0px"
	 viewBox="0 0 164.1 109.8" style="enable-background:new 0 0 164.1 109.8;" xml:space="preserve">
<style type="text/css">
	.st0{fill:none;stroke:#FFFFFF;stroke-width:4;stroke-linecap:round;stroke-linejoin:round;stroke-miterlimit:10;}
</style>
<g>
	<path class="st0" d="M336.2,18.8c7.7-6.1,17.5-9.8,28.2-9.8c25.1,0,45.4,20.3,45.4,45.4s-20.3,45.4-45.4,45.4S319,79.4,319,54.4
		c0-3.6,0.4-7.1,1.2-10.5"/>
	<path class="st0" d="M418,36.1c10.7,2.1,17.3,5.5,17.8,9.9c1.1,10.1-30.2,21.7-69.9,26s-72.7-0.5-73.8-10.5
		c-0.7-6.1,10.5-12.7,28.1-18"/>
	<path class="st0" d="M336.2,18.8c-2.4-17.9-1-30.5,4.7-32.4c9.6-3.2,27.7,24.8,40.3,62.7s15.1,71.1,5.5,74.3
		c-4.5,1.5-10.8-3.8-17.6-13.8"/>
</g>
<g>
	<path class="st0" d="M117.9,26.6c6.2,7.8,9.9,17.6,9.9,28.3c0,25.1-20.3,45.4-45.4,45.4S37,80,37,54.9S57.3,9.5,82.4,9.5
		c9.7,0,18.7,3,26,8.2"/>
	<path class="st0" d="M117.9,26.6c18-2.5,30.8-1.1,32.7,4.7c3.2,9.6-24.8,27.7-62.7,40.3s-71.1,15.1-74.3,5.5
		c-1.3-3.9,2.5-9.1,9.9-14.8"/>
</g>
<g>
	<path class="st0" d="M648,99.5c-23-2.2-41-21.6-41-45.2c0-3.8,0.5-7.4,1.3-11"/>
	<path class="st0" d="M693.1,34.4c3,6,4.6,12.8,4.6,20c0,22.4-16.2,41-37.5,44.7"/>
	<path class="st0" d="M613.7,30.7c8-13,22.3-21.7,38.7-21.7c11.9,0,22.8,4.6,30.9,12.1"/>
	<path class="st0" d="M693.1,34.4c18,1.4,30.1,5.5,30.7,11.6c1.1,10.1-30.2,21.7-69.9,26s-72.7-0.5-73.8-10.5
		c-0.7-6.1,10.5-12.7,28.1-18"/>
	<path class="st0" d="M613.7,30.7c-8.5-16.1-11.5-28.5-6.8-32.3c7.9-6.3,34.5,13.9,59.3,45.1c24.8,31.2,38.5,61.7,30.6,68
		c-3.7,2.9-11.3,0.2-20.8-6.6"/>
	<path class="st0" d="M648,99.5c-10.6,15.2-20.4,23.7-26,21.2c-9.2-4.2-3.4-37,13.1-73.4s37.4-62.4,46.6-58.2
		c5.4,2.5,5.6,14.8,1.5,32"/>
</g>
</svg>
