<?xml version="1.0" encoding="utf-8"?>
<!-- Generator: Adobe Illustrator 21.1.0, SVG Export Plug-In . SVG Version: 6.00 Build 0)  -->
<svg version="1.1" id="Layer_1" xmlns="http://www.w3.org/2000/svg" xmlns:xlink="http://www.w3.org/1999/xlink" x="0px" y="0px"
	 viewBox="0 0 47.6 47.6" style="enable-background:new 0 0 47.6 47.6;" xml:space="preserve">
<style type="text/css">
	.st0{fill:none;stroke:#662F8F;stroke-width:4;stroke-linecap:round;stroke-linejoin:round;stroke-miterlimit:10;}
	.st1{fill:#662F8F;}
	.st2{fill:none;stroke:#662F8F;stroke-width:2;stroke-linecap:round;stroke-linejoin:round;stroke-miterlimit:10;}
	.st3{fill:none;stroke:#FFFFFF;stroke-width:0.488;stroke-linecap:round;stroke-linejoin:round;stroke-miterlimit:10;}
	.st4{fill:none;stroke:#E73E51;stroke-width:1.6927;}
	.st5{fill:none;stroke:#E73E51;stroke-width:1.1285;stroke-linecap:round;stroke-linejoin:round;stroke-miterlimit:10;}
	.st6{fill:#E73E51;}
	
		.st7{clip-path:url(#SVGID_2_);fill:none;stroke:#E73E51;stroke-width:1.1285;stroke-linecap:round;stroke-linejoin:round;stroke-miterlimit:10;}
</style>
<g>
	<path class="st0" d="M-376.5-75.3c9.6-9.6,22.8-15.5,37.3-15.5"/>
	<path class="st0" d="M-362.1-61c5.9-5.9,14-9.5,23-9.5"/>
	<path class="st0" d="M-405.3-104.1c17.7-17.7,41.2-27.4,66.1-27.4c25,0,48.4,9.7,66.1,27.4"/>
	<path class="st0" d="M-287.5-89.7c-13.3-13.3-31.6-21.5-51.7-21.5s-38.5,8.2-51.7,21.5"/>
	<path class="st0" d="M-301.8-75.3c-9.6-9.6-22.8-15.5-37.3-15.5"/>
	<path class="st0" d="M-316.2-61c-5.9-5.9-14-9.5-23-9.5"/>
	<path class="st0" d="M-330.6-29.4c-2.2,2.2-5.2,3.5-8.6,3.5c-6.7,0-12.1-5.4-12.1-12.1s5.4-12.1,12.1-12.1c3.3,0,6.4,1.4,8.6,3.5"
		/>
	<path class="st0" d="M-287.5-89.7c4,4,4,10.4,0,14.4c-4,4-10.4,4-14.4,0"/>
	<path class="st0" d="M-362.1-61c-4,4-10.4,4-14.4,0s-4-10.4,0-14.4"/>
	<path class="st0" d="M-316.2-61c4,4,4,10.4,0,14.4c-4,4-10.4,4-14.4,0"/>
	<path class="st0" d="M-390.9-89.7c-4,4-10.4,4-14.4,0c-4-4-4-10.4,0-14.4"/>
</g>
<g>
	<path class="st1" d="M-193.4-141.2c-28.7,0-52,23.3-52,52s23.3,52,52,52s52-23.3,52-52S-164.8-141.2-193.4-141.2z M-193.4-40.9
		c-26.6,0-48.3-21.7-48.3-48.3s21.7-48.3,48.3-48.3s48.3,21.7,48.3,48.3S-166.8-40.9-193.4-40.9z"/>
	<path class="st1" d="M-156.9-95.1c-4.8-4.7-10.4-8.3-16.4-10.7c0-0.3,0.1-0.7,0.1-1c0-11.1-9-20.2-20.2-20.2s-20.2,9-20.2,20.2
		c0,0.6,0,1.1,0.1,1.7c-5.5,2.4-10.5,5.8-14.9,10.1c0,0-0.1,0.1-0.1,0.1c-1.2,1.2-1.8,2.8-1.8,4.5c0,1.7,0.7,3.4,1.9,4.6
		c2.6,2.5,6.7,2.5,9.3,0c0,0,0,0,0,0c3.2-3.1,6.8-5.6,10.8-7.4c2.3,2.5,5.2,4.5,8.5,5.5c-5,1.2-9.6,3.7-13.4,7.4
		c0,0-0.1,0.1-0.1,0.1c-1.3,1.2-1.9,2.9-1.9,4.6c0,1.7,0.7,3.4,1.9,4.6c2.6,2.5,6.7,2.5,9.3,0c0,0,0,0,0,0h0c3-2.9,7-4.5,11.3-4.5
		c4.3,0,8.3,1.6,11.3,4.5c0,0,0,0,0,0c0.8,0.8,1.2,1.8,1.2,2.8c0,1.1-0.4,2.1-1.2,2.8c-1.6,1.6-4.3,1.6-5.9,0c0,0-0.1-0.1-0.1-0.1
		c-1.4-1.3-3.3-2.1-5.3-2.1c-4.2,0-7.6,3.3-7.6,7.5c0,4.1,3.4,7.5,7.6,7.5c2,0,3.9-0.8,5.4-2.2c0.5-0.5,0.5-1.3,0-1.7
		c-0.5-0.5-1.3-0.5-1.7,0c-1,1-2.3,1.5-3.7,1.5c-2.8,0-5.2-2.2-5.2-5c0-2.8,2.3-5,5.2-5c1.4,0,2.7,0.5,3.7,1.5c0,0,0.1,0.1,0.1,0.1
		c2.6,2.4,6.7,2.4,9.2-0.1c1.3-1.2,1.9-2.9,1.9-4.6s-0.7-3.4-1.9-4.6c0,0,0,0,0,0c-3.5-3.4-8.1-5.2-13-5.2c-4.9,0-9.5,1.9-13,5.2
		c0,0,0,0,0,0c-1.6,1.6-4.3,1.6-5.9,0c-0.8-0.8-1.2-1.8-1.2-2.8c0-1,0.4-2,1.1-2.7c0,0,0.1-0.1,0.1-0.1c5-4.9,11.7-7.6,18.8-7.6
		c7.1,0,13.8,2.7,18.8,7.6c0,0,0,0,0,0c2.6,2.5,6.7,2.5,9.3,0c1.3-1.2,1.9-2.9,1.9-4.6c0-1.7-0.7-3.4-1.9-4.6c0,0,0,0,0,0
		c-3.6-3.5-7.7-6.2-12.1-8.1c1.5-2.2,2.5-4.8,3-7.5c5.5,2.3,10.6,5.7,15,9.9c0.5,0.5,1.3,0.5,1.7,0
		C-156.4-93.8-156.4-94.6-156.9-95.1z M-220.8-87.7C-220.8-87.7-220.8-87.7-220.8-87.7c-1.6,1.6-4.3,1.6-5.9,0
		c-0.8-0.8-1.2-1.8-1.2-2.8c0-1.1,0.4-2.1,1.2-2.8c0,0,0.1-0.1,0.1-0.1c4-3.9,8.5-6.9,13.5-9.2c0.6,2.7,1.7,5.2,3.3,7.4
		C-213.9-93.4-217.6-90.8-220.8-87.7z M-166.2-85.9C-166.2-85.9-166.2-85.9-166.2-85.9c0.8,0.8,1.2,1.8,1.2,2.8
		c0,1.1-0.4,2.1-1.2,2.8c-1.6,1.6-4.3,1.6-5.9,0c0,0,0,0,0,0c-4-3.9-9-6.5-14.4-7.7c3.3-1.2,6.1-3.2,8.4-5.8
		C-173.7-91.9-169.7-89.3-166.2-85.9z M-193.4-89.2c-9.8,0-17.7-7.9-17.7-17.7c0-9.8,7.9-17.7,17.7-17.7s17.7,7.9,17.7,17.7
		C-175.7-97.1-183.7-89.2-193.4-89.2z"/>
	<path class="st1" d="M-201.1-108.2h-1.9l0.1-3.7h5.6v-1.5h-7.1l-0.2,6.6h2.9c2.5,0,3.4,1.1,3.4,2.5c0,1.4-1,2.5-2.8,2.5
		c-1.3,0-2.5-0.6-3.4-1.6l-1,1c1.1,1.3,2.6,2,4.4,2c2.4,0,4.5-1.5,4.5-4.2C-196.6-106.4-198-108.2-201.1-108.2z"/>
	<path class="st1" d="M-187.1-107.3v1.5h3.9c-0.3,2.5-1.9,4.1-4.5,4.1c-2.8,0-4.9-2.1-4.9-5.1c0-3,2.2-5.1,5-5.1
		c1.6,0,2.9,0.7,3.8,1.7l1.2-1.2c-1.2-1.3-3-2.1-5-2.1c-3.9,0-6.7,2.8-6.7,6.7c0,4.2,3.2,6.7,6.6,6.7c3.9,0,6.3-3,6.3-6.7
		c0-0.1,0-0.3,0-0.4H-187.1z"/>
</g>
<g>
	<line class="st2" x1="-61.5" y1="-55.6" x2="-61.5" y2="-46.9"/>
	<path class="st2" d="M-75.3-46.9c-2.8,0-5.2-2.3-5.2-5.2v-77.8c0-2.8,2.3-5.2,5.2-5.2h69.9c2.8,0,5.2,2.3,5.2,5.2v77.8
		c0,2.8-2.3,5.2-5.2,5.2h-56.2"/>
	<path class="st2" d="M-61.5-55.6h-5c-2.8,0-5.2-2.3-5.2-5.2v-60.4c0-2.8,2.3-5.2,5.2-5.2h10.1c2.8,0,5.2,2.3,5.2,5.2v60.4"/>
	<g>
		<g>
			<circle class="st2" cx="-39.6" cy="-105.8" r="3.8"/>
			<circle class="st2" cx="-25.7" cy="-105.8" r="3.8"/>
			<circle class="st2" cx="-11.8" cy="-105.8" r="3.8"/>
			<circle class="st2" cx="-39.6" cy="-91.9" r="3.8"/>
			<circle class="st2" cx="-25.7" cy="-91.9" r="3.8"/>
			<circle class="st2" cx="-11.8" cy="-91.9" r="3.8"/>
			<circle class="st2" cx="-39.6" cy="-78" r="3.8"/>
			<circle class="st2" cx="-25.7" cy="-78" r="3.8"/>
			<circle class="st2" cx="-11.8" cy="-78" r="3.8"/>
			<circle class="st2" cx="-39.6" cy="-64.1" r="3.8"/>
			<circle class="st2" cx="-25.7" cy="-64.1" r="3.8"/>
			<circle class="st2" cx="-11.8" cy="-64.1" r="3.8"/>
		</g>
		<line class="st2" x1="-43.3" y1="-121.7" x2="-8" y2="-121.7"/>
	</g>
</g>
<g>
	<path class="st3" d="M-144.2,56.8v-1c0-2.7-2.1-4.9-4.8-5c-2.8-0.1-5.1,2.2-5.1,4.9l0,3.8h10.9c0.7,0,1.3,0.6,1.3,1.3v8.6
		c0,0.7-0.6,1.3-1.3,1.3h-2.7c-0.5,0-1-0.4-1.1-0.9l-0.8-3.2v0c0.6-0.5,0.9-1.2,0.8-2.1c-0.1-1-1-1.7-1.9-1.9
		c-1.3-0.1-2.5,0.9-2.5,2.2c0,0.7,0.3,1.3,0.8,1.7h0c0,0-0.5,2-0.8,3.2c-0.1,0.5-0.6,0.9-1.1,0.9h-2.7c-0.7,0-1.3-0.6-1.3-1.3v-8.6"
		/>
</g>
<g>
	<circle class="st4" cx="-25.9" cy="64.1" r="23"/>
	<path class="st5" d="M-49.2,64.1l23.2-0.1 M-26,63.9V40.9V63.9z M-14.3,63.9c0,6.4-5.2,11.6-11.6,11.6c-6.4,0-11.7-5.2-11.7-11.6
		c0-6.4,5.2-11.6,11.7-11.6C-19.5,52.3-14.3,57.5-14.3,63.9z M-8.7,63.9c0,9.5-7.7,17.3-17.3,17.3c-9.5,0-17.3-7.7-17.3-17.3
		c0-9.5,7.7-17.3,17.3-17.3C-16.4,46.7-8.7,54.4-8.7,63.9z"/>
	<path class="st6" d="M-41.7,58.7c1.2,0,2.2-1,2.2-2.2c0-1.2-1-2.2-2.2-2.2c-1.2,0-2.2,1-2.2,2.2C-43.9,57.7-42.9,58.7-41.7,58.7"/>
</g>
<g>
	<circle class="st4" cx="-84.4" cy="64.5" r="23"/>
	<path class="st5" d="M-73.6,57.2l7.1,7.2 M-73.6,57.2l-7.1,10.3 M-87.7,71.7l7.1-4.2 M-87.7,71.7l-7.1-9.5 M-101.8,67.1l7.1-4.9"/>
	<path class="st6" d="M-96.9,62.2c0-1.2,1-2.1,2.1-2.1c1.2,0,2.1,1,2.1,2.1c0,1.2-1,2.1-2.1,2.1C-95.9,64.3-96.9,63.3-96.9,62.2"/>
	<path class="st6" d="M-89.8,71.7c0-1.2,1-2.1,2.1-2.1c1.2,0,2.1,1,2.1,2.1c0,1.2-1,2.1-2.1,2.1C-88.9,73.8-89.8,72.8-89.8,71.7"/>
	<path class="st6" d="M-82.8,67.5c0-1.2,1-2.1,2.1-2.1c1.2,0,2.1,1,2.1,2.1c0,1.2-1,2.1-2.1,2.1C-81.8,69.6-82.8,68.7-82.8,67.5"/>
	<path class="st6" d="M-75.7,57.2c0-1.2,1-2.1,2.1-2.1s2.1,1,2.1,2.1c0,1.2-1,2.1-2.1,2.1S-75.7,58.4-75.7,57.2"/>
	<path class="st6" d="M-68.8,64.3c0-1.2,1-2.1,2.1-2.1c1.2,0,2.1,1,2.1,2.1c0,1.2-1,2.1-2.1,2.1C-67.9,66.4-68.8,65.5-68.8,64.3"/>
	<path class="st6" d="M-103.6,66.9c0-1.2,1-2.1,2.1-2.1s2.1,1,2.1,2.1c0,1.2-1,2.1-2.1,2.1S-103.6,68.1-103.6,66.9"/>
</g>
<g>
	<circle class="st4" cx="23.8" cy="23.8" r="23"/>
	<g>
		<defs>
			<path id="SVGID_1_" d="M0,23.6C0,36,9.6,46.2,21.8,47.1h3.6C37.1,46.2,46.5,36.8,47.1,25v-2.7C46.4,9.8,36.2,0,23.6,0
				C10.6,0,0,10.6,0,23.6"/>
		</defs>
		<clipPath id="SVGID_2_">
			<use xlink:href="#SVGID_1_"  style="overflow:visible;"/>
		</clipPath>
		<path class="st7" d="M46.6,55.1H34.5c-0.5,0-0.9-0.4-0.9-0.9V49c0-0.5,0.4-0.9,0.9-0.9h12.1c0.5,0,0.9,0.4,0.9,0.9v5.2
			C47.5,54.7,47.1,55.1,46.6,55.1z M32.6,55.1H20.5c-0.5,0-0.9-0.4-0.9-0.9V49c0-0.5,0.4-0.9,0.9-0.9h12.1c0.5,0,0.9,0.4,0.9,0.9
			v5.2C33.5,54.7,33.1,55.1,32.6,55.1z M18.7,55.1H6.6c-0.5,0-0.9-0.4-0.9-0.9V49c0-0.5,0.4-0.9,0.9-0.9h12.1c0.5,0,0.9,0.4,0.9,0.9
			v5.2C19.6,54.7,19.2,55.1,18.7,55.1z M4.7,55.1H-7.4c-0.5,0-0.9-0.4-0.9-0.9V49c0-0.5,0.4-0.9,0.9-0.9H4.7c0.5,0,0.9,0.4,0.9,0.9
			v5.2C5.6,54.7,5.2,55.1,4.7,55.1z M53.9,48.1H41.7c-0.5,0-0.9-0.4-0.9-0.9V42c0-0.5,0.4-0.9,0.9-0.9h12.1c0.5,0,0.9,0.4,0.9,0.9
			v5.2C54.8,47.7,54.4,48.1,53.9,48.1z M39.9,48.1H27.7c-0.5,0-0.9-0.4-0.9-0.9V42c0-0.5,0.4-0.9,0.9-0.9h12.1
			c0.5,0,0.9,0.4,0.9,0.9v5.2C40.8,47.7,40.4,48.1,39.9,48.1z M26,48.1H13.8c-0.5,0-0.9-0.4-0.9-0.9V42c0-0.5,0.4-0.9,0.9-0.9H26
			c0.5,0,0.9,0.4,0.9,0.9v5.2C26.9,47.7,26.5,48.1,26,48.1z M12,48.1H-0.2c-0.5,0-0.9-0.4-0.9-0.9V42c0-0.5,0.4-0.9,0.9-0.9H12
			c0.5,0,0.9,0.4,0.9,0.9v5.2C12.9,47.7,12.5,48.1,12,48.1z M46.6,41H34.5c-0.5,0-0.9-0.4-0.9-0.9v-5.2c0-0.5,0.4-0.9,0.9-0.9h12.1
			c0.5,0,0.9,0.4,0.9,0.9V40C47.5,40.5,47.1,41,46.6,41z M32.6,41H20.5c-0.5,0-0.9-0.4-0.9-0.9v-5.2c0-0.5,0.4-0.9,0.9-0.9h12.1
			c0.5,0,0.9,0.4,0.9,0.9V40C33.5,40.5,33.1,41,32.6,41z M18.7,41H6.6c-0.5,0-0.9-0.4-0.9-0.9v-5.2c0-0.5,0.4-0.9,0.9-0.9h12.1
			c0.5,0,0.9,0.4,0.9,0.9V40C19.6,40.5,19.2,41,18.7,41z M4.7,41H-7.4c-0.5,0-0.9-0.4-0.9-0.9v-5.2c0-0.5,0.4-0.9,0.9-0.9H4.7
			c0.5,0,0.9,0.4,0.9,0.9V40C5.6,40.5,5.2,41,4.7,41z M53.9,33.9H41.7c-0.5,0-0.9-0.4-0.9-0.9v-5.2c0-0.5,0.4-0.9,0.9-0.9h12.1
			c0.5,0,0.9,0.4,0.9,0.9V33C54.8,33.5,54.4,33.9,53.9,33.9z M39.9,33.9H27.7c-0.5,0-0.9-0.4-0.9-0.9v-5.2c0-0.5,0.4-0.9,0.9-0.9
			h12.1c0.5,0,0.9,0.4,0.9,0.9V33C40.8,33.5,40.4,33.9,39.9,33.9z M26,33.9H13.8c-0.5,0-0.9-0.4-0.9-0.9v-5.2c0-0.5,0.4-0.9,0.9-0.9
			H26c0.5,0,0.9,0.4,0.9,0.9V33C26.9,33.5,26.5,33.9,26,33.9z M12,33.9H-0.2c-0.5,0-0.9-0.4-0.9-0.9v-5.2c0-0.5,0.4-0.9,0.9-0.9H12
			c0.5,0,0.9,0.4,0.9,0.9V33C12.9,33.5,12.5,33.9,12,33.9z M46.6,26.8H34.5c-0.5,0-0.9-0.4-0.9-0.9v-5.2c0-0.5,0.4-0.9,0.9-0.9h12.1
			c0.5,0,0.9,0.4,0.9,0.9v5.2C47.5,26.4,47.1,26.8,46.6,26.8z M32.6,26.8H20.5c-0.5,0-0.9-0.4-0.9-0.9v-5.2c0-0.5,0.4-0.9,0.9-0.9
			h12.1c0.5,0,0.9,0.4,0.9,0.9v5.2C33.5,26.4,33.1,26.8,32.6,26.8z M18.7,26.8H6.6c-0.5,0-0.9-0.4-0.9-0.9v-5.2
			c0-0.5,0.4-0.9,0.9-0.9h12.1c0.5,0,0.9,0.4,0.9,0.9v5.2C19.6,26.4,19.2,26.8,18.7,26.8z M4.7,26.8H-7.4c-0.5,0-0.9-0.4-0.9-0.9
			v-5.2c0-0.5,0.4-0.9,0.9-0.9H4.7c0.5,0,0.9,0.4,0.9,0.9v5.2C5.6,26.4,5.2,26.8,4.7,26.8z"/>
	</g>
</g>
</svg>
