<?xml version="1.0" encoding="utf-8"?>
<!-- Generator: Adobe Illustrator 21.1.0, SVG Export Plug-In . SVG Version: 6.00 Build 0)  -->
<svg version="1.1" id="Layer_1" xmlns="http://www.w3.org/2000/svg" xmlns:xlink="http://www.w3.org/1999/xlink" x="0px" y="0px"
	 viewBox="0 0 139.2 109.7" style="enable-background:new 0 0 139.2 109.7;" xml:space="preserve">
<style type="text/css">
	.st0{fill:none;stroke:#662F8F;stroke-width:4;stroke-linecap:round;stroke-linejoin:round;stroke-miterlimit:10;}
	.st1{fill:#662F8F;}
	.st2{fill:none;stroke:#662F8F;stroke-width:2;stroke-linecap:round;stroke-linejoin:round;stroke-miterlimit:10;}
</style>
<g>
	<path class="st0" d="M-283.2,39.2c9.6-9.6,22.8-15.5,37.3-15.5"/>
	<path class="st0" d="M-268.9,53.6c5.9-5.9,14-9.5,23-9.5"/>
	<path class="st0" d="M-312,10.4C-294.3-7.3-270.9-17-245.9-17c25,0,48.4,9.7,66.1,27.4"/>
	<path class="st0" d="M-194.2,24.8c-13.3-13.3-31.6-21.5-51.7-21.5s-38.5,8.2-51.7,21.5"/>
	<path class="st0" d="M-208.6,39.2c-9.6-9.6-22.8-15.5-37.3-15.5"/>
	<path class="st0" d="M-222.9,53.6c-5.9-5.9-14-9.5-23-9.5"/>
	<path class="st0" d="M-237.3,85.1c-2.2,2.2-5.2,3.5-8.6,3.5c-6.7,0-12.1-5.4-12.1-12.1s5.4-12.1,12.1-12.1c3.3,0,6.4,1.4,8.6,3.5"
		/>
	<path class="st0" d="M-194.2,24.8c4,4,4,10.4,0,14.4c-4,4-10.4,4-14.4,0"/>
	<path class="st0" d="M-268.9,53.6c-4,4-10.4,4-14.4,0c-4-4-4-10.4,0-14.4"/>
	<path class="st0" d="M-222.9,53.6c4,4,4,10.4,0,14.4c-4,4-10.4,4-14.4,0"/>
	<path class="st0" d="M-297.6,24.8c-4,4-10.4,4-14.4,0c-4-4-4-10.4,0-14.4"/>
</g>
<g>
	<path class="st1" d="M-122.1-28.7c-28.7,0-52,23.3-52,52s23.3,52,52,52s52-23.3,52-52S-93.5-28.7-122.1-28.7z M-122.1,71.6
		c-26.6,0-48.3-21.7-48.3-48.3S-148.8-25-122.1-25s48.3,21.7,48.3,48.3S-95.5,71.6-122.1,71.6z"/>
	<path class="st1" d="M-85.6,17.5C-90.4,12.8-96,9.2-102,6.7c0-0.3,0.1-0.7,0.1-1c0-11.1-9-20.2-20.2-20.2s-20.2,9-20.2,20.2
		c0,0.6,0,1.1,0.1,1.7c-5.5,2.4-10.5,5.8-14.9,10.1c0,0-0.1,0.1-0.1,0.1c-1.2,1.2-1.8,2.8-1.8,4.5c0,1.7,0.7,3.4,1.9,4.6
		c2.6,2.5,6.7,2.5,9.3,0c0,0,0,0,0,0c3.2-3.1,6.8-5.6,10.8-7.4c2.3,2.5,5.2,4.5,8.5,5.5c-5,1.2-9.6,3.7-13.4,7.4
		c0,0-0.1,0.1-0.1,0.1c-1.3,1.2-1.9,2.9-1.9,4.6c0,1.7,0.7,3.4,1.9,4.6c2.6,2.5,6.7,2.5,9.3,0c0,0,0,0,0,0h0c3-2.9,7-4.5,11.3-4.5
		c4.3,0,8.3,1.6,11.3,4.5c0,0,0,0,0,0c0.8,0.8,1.2,1.8,1.2,2.8c0,1.1-0.4,2.1-1.2,2.8c-1.6,1.6-4.3,1.6-5.9,0c0,0-0.1-0.1-0.1-0.1
		c-1.4-1.3-3.3-2.1-5.3-2.1c-4.2,0-7.6,3.3-7.6,7.5c0,4.1,3.4,7.5,7.6,7.5c2,0,3.9-0.8,5.4-2.2c0.5-0.5,0.5-1.3,0-1.7
		c-0.5-0.5-1.3-0.5-1.7,0c-1,1-2.3,1.5-3.7,1.5c-2.8,0-5.2-2.2-5.2-5c0-2.8,2.3-5,5.2-5c1.4,0,2.7,0.5,3.7,1.5c0,0,0.1,0.1,0.1,0.1
		c2.6,2.4,6.7,2.4,9.2-0.1c1.3-1.2,1.9-2.9,1.9-4.6s-0.7-3.4-1.9-4.6c0,0,0,0,0,0c-3.5-3.4-8.1-5.2-13-5.2c-4.9,0-9.5,1.9-13,5.2
		c0,0,0,0,0,0c-1.6,1.6-4.3,1.6-5.9,0c-0.8-0.8-1.2-1.8-1.2-2.8c0-1,0.4-2,1.1-2.7c0,0,0.1-0.1,0.1-0.1c5-4.9,11.7-7.6,18.8-7.6
		c7.1,0,13.8,2.7,18.8,7.6c0,0,0,0,0,0c2.6,2.5,6.7,2.5,9.3,0c1.3-1.2,1.9-2.9,1.9-4.6c0-1.7-0.7-3.4-1.9-4.6c0,0,0,0,0,0
		c-3.6-3.5-7.7-6.2-12.1-8.1c1.5-2.2,2.5-4.8,3-7.5c5.5,2.3,10.6,5.7,15,9.9c0.5,0.5,1.3,0.5,1.7,0C-85.1,18.7-85.1,17.9-85.6,17.5z
		 M-149.5,24.9C-149.5,24.9-149.5,24.9-149.5,24.9c-1.6,1.6-4.3,1.6-5.9,0c-0.8-0.8-1.2-1.8-1.2-2.8c0-1.1,0.4-2.1,1.2-2.8
		c0,0,0.1-0.1,0.1-0.1c4-3.9,8.5-6.9,13.5-9.2c0.6,2.7,1.7,5.2,3.3,7.4C-142.6,19.2-146.3,21.7-149.5,24.9z M-94.9,26.6
		C-94.9,26.6-94.9,26.6-94.9,26.6c0.8,0.8,1.2,1.8,1.2,2.8c0,1.1-0.4,2.1-1.2,2.8c-1.6,1.6-4.3,1.6-5.9,0c0,0,0,0,0,0
		c-4-3.9-9-6.5-14.4-7.7c3.3-1.2,6.1-3.2,8.4-5.8C-102.4,20.6-98.4,23.2-94.9,26.6z M-122.1,23.4c-9.8,0-17.7-7.9-17.7-17.7
		c0-9.8,7.9-17.7,17.7-17.7s17.7,7.9,17.7,17.7C-104.4,15.5-112.4,23.4-122.1,23.4z"/>
	<path class="st1" d="M-129.8,4.4h-1.9l0.1-3.7h5.6v-1.5h-7.1l-0.2,6.6h2.9c2.5,0,3.4,1.1,3.4,2.5c0,1.4-1,2.5-2.8,2.5
		c-1.3,0-2.5-0.6-3.4-1.6l-1,1c1.1,1.3,2.6,2,4.4,2c2.4,0,4.5-1.5,4.5-4.2C-125.3,6.1-126.7,4.4-129.8,4.4z"/>
	<path class="st1" d="M-115.8,5.2v1.5h3.9c-0.3,2.5-1.9,4.1-4.5,4.1c-2.8,0-4.9-2.1-4.9-5.1c0-3,2.2-5.1,5-5.1
		c1.6,0,2.9,0.7,3.8,1.7l1.2-1.2c-1.2-1.3-3-2.1-5-2.1c-3.9,0-6.7,2.8-6.7,6.7c0,4.2,3.2,6.7,6.6,6.7c3.9,0,6.3-3,6.3-6.7
		c0-0.1,0-0.3,0-0.4H-115.8z"/>
</g>
<g>
	<line class="st2" x1="-167.3" y1="174.9" x2="-167.3" y2="183.6"/>
	<path class="st2" d="M-181,183.6c-2.8,0-5.2-2.3-5.2-5.2v-77.8c0-2.8,2.3-5.2,5.2-5.2h69.9c2.8,0,5.2,2.3,5.2,5.2v77.8
		c0,2.8-2.3,5.2-5.2,5.2h-56.2"/>
	<path class="st2" d="M-167.3,174.9h-5c-2.8,0-5.2-2.3-5.2-5.2v-60.4c0-2.8,2.3-5.2,5.2-5.2h10.1c2.8,0,5.2,2.3,5.2,5.2v60.4"/>
	<g>
		<g>
			<circle class="st2" cx="-145.3" cy="124.8" r="3.8"/>
			<circle class="st2" cx="-131.4" cy="124.8" r="3.8"/>
			<circle class="st2" cx="-117.5" cy="124.8" r="3.8"/>
			<circle class="st2" cx="-145.3" cy="138.7" r="3.8"/>
			<circle class="st2" cx="-131.4" cy="138.7" r="3.8"/>
			<circle class="st2" cx="-117.5" cy="138.7" r="3.8"/>
			<circle class="st2" cx="-145.3" cy="152.6" r="3.8"/>
			<circle class="st2" cx="-131.4" cy="152.6" r="3.8"/>
			<circle class="st2" cx="-117.5" cy="152.6" r="3.8"/>
			<circle class="st2" cx="-145.3" cy="166.5" r="3.8"/>
			<circle class="st2" cx="-131.4" cy="166.5" r="3.8"/>
			<circle class="st2" cx="-117.5" cy="166.5" r="3.8"/>
		</g>
		<line class="st2" x1="-149.1" y1="108.8" x2="-113.7" y2="108.8"/>
	</g>
</g>
<g>
	<path class="st0" d="M33.8,58.2c9.6-9.6,22.8-15.5,37.3-15.5"/>
	<path class="st0" d="M48.1,72.6c5.9-5.9,14-9.5,23-9.5"/>
	<path class="st0" d="M5,29.4C22.7,11.7,46.1,2,71.1,2c25,0,48.4,9.7,66.1,27.4"/>
	<path class="st0" d="M122.8,43.8c-13.3-13.3-31.6-21.5-51.7-21.5s-38.5,8.2-51.7,21.5"/>
	<path class="st0" d="M108.4,58.2c-9.6-9.6-22.8-15.5-37.3-15.5"/>
	<path class="st0" d="M94.1,72.6c-5.9-5.9-14-9.5-23-9.5"/>
	<path class="st0" d="M79.7,104.1c-2.2,2.2-5.2,3.5-8.6,3.5c-6.7,0-12.1-5.4-12.1-12.1s5.4-12.1,12.1-12.1c3.3,0,6.4,1.4,8.6,3.5"/>
	<path class="st0" d="M122.8,43.8c4,4,4,10.4,0,14.4s-10.4,4-14.4,0"/>
	<path class="st0" d="M48.1,72.6c-4,4-10.4,4-14.4,0c-4-4-4-10.4,0-14.4"/>
	<path class="st0" d="M94.1,72.6c4,4,4,10.4,0,14.4c-4,4-10.4,4-14.4,0"/>
	<path class="st0" d="M19.4,43.8c-4,4-10.4,4-14.4,0S1,33.4,5,29.4"/>
</g>
</svg>
