<?xml version="1.0" encoding="utf-8"?>
<!-- Generator: Adobe Illustrator 21.1.0, SVG Export Plug-In . SVG Version: 6.00 Build 0)  -->
<svg version="1.1" id="Layer_1" xmlns="http://www.w3.org/2000/svg" xmlns:xlink="http://www.w3.org/1999/xlink" x="0px" y="0px"
	 viewBox="0 0 462 440" style="enable-background:new 0 0 462 440;" xml:space="preserve">
<style type="text/css">
	.st0{opacity:0.36;}
	.st1{fill:none;stroke:#FFFFFF;stroke-width:1.4086;stroke-linecap:round;stroke-linejoin:round;stroke-miterlimit:10;}
</style>
<g class="st0">
	<g>
		<circle class="st1" cx="207.8" cy="213.2" r="9.6"/>
		<path class="st1" d="M253,257.9c-5.8,8.2-15.4,13.5-26.2,13.5c-17.8,0-32.2-14.4-32.2-32.2c0-7.2,2.4-13.9,6.4-19.2"/>
		<line class="st1" x1="199" y1="271.4" x2="254.5" y2="271.4"/>
		<line class="st1" x1="259.5" y1="257.9" x2="245.1" y2="257.9"/>
		<polyline class="st1" points="201,206.5 194.8,200.3 206.5,188.6 241.4,223.4 229.6,235.2 214.5,220 		"/>
		
			<rect x="193.6" y="188.1" transform="matrix(0.7071 -0.7071 0.7071 0.7071 -77.6221 196.1706)" class="st1" width="8.9" height="7.5"/>
		<line class="st1" x1="189.5" y1="195" x2="201.2" y2="183.3"/>
		<line class="st1" x1="223.8" y1="229.3" x2="235.5" y2="217.6"/>
		
			<rect x="232.8" y="228.4" transform="matrix(0.7071 -0.7071 0.7071 0.7071 -94.0259 235.7727)" class="st1" width="9.5" height="5.9"/>
	</g>
	<g>
		<rect x="184.1" y="34.4" class="st1" width="94.6" height="119"/>
		<rect x="219.2" y="9.9" class="st1" width="24.4" height="24.4"/>
		<rect x="197.8" y="142.7" class="st1" width="67.2" height="10.6"/>
		<rect x="208" y="111.8" class="st1" width="46.9" height="8.1"/>
		<g>
			<rect x="198" y="46.6" class="st1" width="15.8" height="11.8"/>
			<rect x="223.5" y="46.6" class="st1" width="15.8" height="11.8"/>
			<rect x="249.1" y="46.6" class="st1" width="15.8" height="11.8"/>
			<rect x="198" y="68.7" class="st1" width="15.8" height="11.8"/>
			<rect x="223.5" y="68.7" class="st1" width="15.8" height="11.8"/>
			<rect x="249.1" y="68.7" class="st1" width="15.8" height="11.8"/>
			<rect x="198" y="90.8" class="st1" width="15.8" height="11.8"/>
			<rect x="223.5" y="90.8" class="st1" width="15.8" height="11.8"/>
			<rect x="249.1" y="90.8" class="st1" width="15.8" height="11.8"/>
		</g>
		<g>
			<line class="st1" x1="231.4" y1="27.6" x2="231.4" y2="16.8"/>
			<line class="st1" x1="236.8" y1="22.2" x2="226" y2="22.2"/>
		</g>
		<g>
			<rect x="215.2" y="119.9" class="st1" width="32.5" height="22.9"/>
			<line class="st1" x1="231.4" y1="142.7" x2="231.4" y2="119.9"/>
		</g>
	</g>
	<g>
		<circle class="st1" cx="141.9" cy="208.7" r="9.1"/>
		<path class="st1" d="M116.2,186.9c-14.7,0-26.7-11.9-26.7-26.7v-18.7c0-2.6,2.1-4.7,4.7-4.7h3.5"/>
		<path class="st1" d="M116.2,186.9c14.7,0,26.7-11.9,26.7-26.7v-18.7c0-2.6-2.1-4.7-4.7-4.7h-3.5"/>
		<path class="st1" d="M116.2,221.9c0,7.3-5.9,13.2-13.2,13.2s-13.2-5.9-13.2-13.2s5.9-13.2,13.2-13.2"/>
		<line class="st1" x1="116.2" y1="221.9" x2="116.2" y2="186.9"/>
		<line class="st1" x1="102.9" y1="208.7" x2="132.8" y2="208.7"/>
		<line class="st1" x1="97.6" y1="139.4" x2="97.6" y2="134.2"/>
		<line class="st1" x1="134.7" y1="139.4" x2="134.7" y2="134.2"/>
		<path class="st1" d="M97.6,139.4c1.4,0,2.6-1.2,2.6-2.6s-1.2-2.6-2.6-2.6"/>
		<path class="st1" d="M134.7,139.4c-1.4,0-2.6-1.2-2.6-2.6s1.2-2.6,2.6-2.6"/>
	</g>
	<g>
		<rect x="73.4" y="256.8" class="st1" width="88.9" height="67.1"/>
		<polyline class="st1" points="79,301.1 90.8,301.1 99.8,288.1 108.8,315.7 117.9,281.6 124.2,299.8 132.4,269.6 139,310.1 
			148.8,293.9 156.8,293.9 		"/>
		<path class="st1" d="M93.1,266.7c-1.4-1.4-3.5-1.4-4.9,0l0,0c0,0,0,0,0,0c-1.4-1.4-3.5-1.4-4.9,0c-1.4,1.4-1.4,3.5,0,4.9
			c0,0,0,0,0,0l0,0l4.9,4.9l4.9-4.9C94.5,270.2,94.5,268.1,93.1,266.7z"/>
	</g>
	<g>
		<path class="st1" d="M303.6,260.4v25.7c0,5.4-4.4,9.8-9.8,9.8l0,0c-5.4,0-9.8-4.4-9.8-9.8v-25.7c0-5.4,4.4-9.8,9.8-9.8l0,0
			C299.2,250.6,303.6,255,303.6,260.4z"/>
		<line class="st1" x1="287.6" y1="280.4" x2="287.6" y2="279.9"/>
		<path class="st1" d="M293.8,292.3c-3.4,0-6.2-2.8-6.2-6.2v-2"/>
		<line class="st1" x1="284" y1="273.2" x2="303.6" y2="273.2"/>
	</g>
	<g>
		<g>
			<polyline class="st1" points="379.5,243 396,243 396,314.2 335.8,314.2 335.8,243 352.3,243 			"/>
			<g>
				<polyline class="st1" points="390.2,298.6 380.4,298.6 380.4,308.4 				"/>
				<line class="st1" x1="390.2" y1="247.9" x2="390.2" y2="298.6"/>
				<polyline class="st1" points="380.4,308.4 341.6,308.4 341.6,247.9 				"/>
				<line class="st1" x1="390.2" y1="298.6" x2="380.4" y2="308.4"/>
			</g>
			<path class="st1" d="M370.7,239.7c0-2.7-2.2-4.8-4.8-4.8c-2.7,0-4.8,2.2-4.8,4.8h-8.7v8h27.2v-8H370.7z"/>
			<g>
				<line class="st1" x1="348.3" y1="256.6" x2="371.9" y2="256.6"/>
				<line class="st1" x1="348.3" y1="263.3" x2="371.9" y2="263.3"/>
				<line class="st1" x1="348.3" y1="270.1" x2="383.5" y2="270.1"/>
				<line class="st1" x1="348.3" y1="276.8" x2="383.5" y2="276.8"/>
				<line class="st1" x1="348.3" y1="283.6" x2="383.5" y2="283.6"/>
				<line class="st1" x1="348.3" y1="290.4" x2="369.9" y2="290.4"/>
			</g>
		</g>
		<circle class="st1" cx="380.1" cy="259.9" r="3.4"/>
	</g>
	<path class="st1" d="M278.6,425.8C361,404.9,422,330.1,422,241.1c0-88.9-60.9-163.6-143.3-184.7"/>
	<path class="st1" d="M184.1,56.5c-82.4,21-143.3,95.7-143.3,184.7c0,89,61,163.7,143.4,184.7"/>
	<g>
		<g>
			<g>
				<path class="st1" d="M176.1,349.5h2.2c4.2,0,7.5,3.4,7.5,7.5v24.4"/>
				<path class="st1" d="M185.8,358.4h2.2c4.2,0,7.5,3.4,7.5,7.5v11.5"/>
				<line class="st1" x1="198.2" y1="393.8" x2="176.1" y2="371.7"/>
				<path class="st1" d="M214.3,418.3V403c0-4.4-1.7-8.6-4.8-11.6L191.1,373c-0.8-0.8-2.2-0.8-3.1,0l0,0c-2.9,2.9-2.9,7.7,0,10.6"/>
				<path class="st1" d="M188.3,417.5l-19.4-31.4c-1.6-2.6-2.5-5.6-2.5-8.7v-34.7c0-1.2,1-2.2,2.2-2.2h0c4.2,0,7.5,3.4,7.5,7.5v23.5
					"/>
				<path class="st1" d="M186,431.7h31.3c0.9,0,1.7-0.8,1.7-1.7v-10c0-0.9-0.8-1.7-1.7-1.7H186c-0.9,0-1.7,0.8-1.7,1.7v10
					C184.3,431,185,431.7,186,431.7z"/>
			</g>
			<g>
				<path class="st1" d="M286.7,349.5h-2.2c-4.2,0-7.5,3.4-7.5,7.5v24.4"/>
				<path class="st1" d="M277,358.4h-2.2c-4.2,0-7.5,3.4-7.5,7.5v11.5"/>
				<line class="st1" x1="264.6" y1="393.8" x2="286.7" y2="371.7"/>
				<path class="st1" d="M248.5,418.3V403c0-4.4,1.7-8.6,4.8-11.6l18.4-18.4c0.8-0.8,2.2-0.8,3.1,0l0,0c2.9,2.9,2.9,7.7,0,10.6"/>
				<path class="st1" d="M274.6,417.5l19.4-31.4c1.6-2.6,2.5-5.6,2.5-8.7v-34.7c0-1.2-1-2.2-2.2-2.2h0c-4.2,0-7.5,3.4-7.5,7.5v23.5"
					/>
				<path class="st1" d="M276.9,431.7h-31.3c-0.9,0-1.7-0.8-1.7-1.7v-10c0-0.9,0.8-1.7,1.7-1.7h31.3c0.9,0,1.7,0.8,1.7,1.7v10
					C278.6,431,277.8,431.7,276.9,431.7z"/>
			</g>
		</g>
		<path class="st1" d="M256.3,310c-8.2-4.3-18.2-2.4-24.8,4.1l0,0c-0.1-0.1-0.1-0.2-0.2-0.2c-8.4-8.4-22-8.4-30.4,0
			c-8.4,8.4-8.4,22,0,30.4c0.1,0.1,0.2,0.1,0.2,0.2l0,0l26.4,26.4c2.2,2.2,5.7,2.2,7.9,0l26.4-26.4C271.9,334.5,270,317.2,256.3,310
			z"/>
	</g>
	<g>
		<path class="st1" d="M367.9,129.8L367.9,129.8c-5.3-5.3-14-5.3-19.2,0L301.5,177c-4,4-5,10.1-2.8,15l-3.3,3.3
			c-1.9,1.9-1.9,5.1,0,7.1c1.9,1.9,5.1,1.9,7.1,0l3.3-3.3c5,2.1,11,1.2,15-2.8l47.2-47.2C373.2,143.7,373.2,135.1,367.9,129.8z"/>
		<line class="st1" x1="332.4" y1="138.3" x2="359.4" y2="165.3"/>
		<line class="st1" x1="342.1" y1="174.9" x2="303.6" y2="174.9"/>
		<path class="st1" d="M296.4,209.8l-4.8,7.8c-0.7,1-1.1,2.2-1.1,3.4c0,3.3,2.6,5.9,5.9,5.9c3.3,0,5.9-2.6,5.9-5.9
			c0-1.3-0.4-2.5-1.1-3.4L296.4,209.8z"/>
	</g>
</g>
</svg>
