<svg xmlns="http://www.w3.org/2000/svg" viewBox="0 0 205.65 196.58"><defs><style>.a{fill:none;stroke:#662d91;stroke-linecap:round;stroke-linejoin:round;stroke-width:1.02px;}</style></defs><title>hola</title><path class="a" d="M192.52,64.5a100.63,100.63,0,0,0-127.09,0" transform="translate(-26.15 -41.39)"/><path class="a" d="M213.39,197.3a100.86,100.86,0,0,0,11.31-85.9" transform="translate(-26.15 -41.39)"/><path class="a" d="M198.82,215q2.76-2.66,5.31-5.52" transform="translate(-26.15 -41.39)"/><path class="a" d="M33.35,111.14A100.76,100.76,0,0,0,61.41,217.07" transform="translate(-26.15 -41.39)"/><path class="a" d="M77.67,112.46a29.32,29.32,0,1,0-5.46,4.62l13.12,8Z" transform="translate(-26.15 -41.39)"/><path class="a" d="M180.29,112.46a29.32,29.32,0,1,1,5.46,4.62l-13.12,8Z" transform="translate(-26.15 -41.39)"/><path class="a" d="M150.92,97.46V116A22,22,0,0,1,129,137.93h0A22,22,0,0,1,107,116V97.46" transform="translate(-26.15 -41.39)"/><path class="a" d="M107,115.11a5.59,5.59,0,0,1,0-11.17" transform="translate(-26.15 -41.39)"/><path class="a" d="M150.92,115.11a5.59,5.59,0,0,0,0-11.17" transform="translate(-26.15 -41.39)"/><path class="a" d="M107,97.86a5.13,5.13,0,0,1,5.11-5.11h33.66a5.13,5.13,0,0,1,5.11,5.11" transform="translate(-26.15 -41.39)"/><line class="a" x1="95.13" y1="60.48" x2="88.98" y2="60.48"/><circle class="a" cx="92.06" cy="65.32" r="2.43"/><line class="a" x1="110.52" y1="60.48" x2="116.67" y2="60.48"/><circle class="a" cx="113.6" cy="65.32" r="2.43"/><line class="a" x1="100.76" y1="70.16" x2="104.89" y2="70.16"/><path class="a" d="M137.51,119.91c0,4.92-3.63,8.9-8.11,8.9s-8.11-4-8.11-8.9Z" transform="translate(-26.15 -41.39)"/><line class="a" x1="93.86" y1="94.61" x2="93.86" y2="96.06"/><line class="a" x1="111.79" y1="94.61" x2="111.79" y2="96.06"/><path class="a" d="M105.09,104.29s-.81-4-1.42-8.2S101.88,70.15,129,69.93" transform="translate(-26.15 -41.39)"/><path class="a" d="M152.87,104.29s.81-4,1.42-8.2S156.08,70.15,129,69.93" transform="translate(-26.15 -41.39)"/><path class="a" d="M115.36,165.79V146.1a17.32,17.32,0,0,1,3.54-10.63" transform="translate(-26.15 -41.39)"/><path class="a" d="M100.57,153.45c1.65-4.19,4.7-8.83,9.81-11.43" transform="translate(-26.15 -41.39)"/><line class="a" x1="89.2" y1="113.76" x2="102.83" y2="107.1"/><polyline class="a" points="97.37 109.89 100.51 116.22 97.37 124.39"/><path class="a" d="M117.41,134.61c-8.4,5.51-10.13,14-10.23,19.85l3.19,2.74-3.2,3.61v1.4" transform="translate(-26.15 -41.39)"/><path class="a" d="M142.6,165.79V146.1a17.32,17.32,0,0,0-3.54-10.63" transform="translate(-26.15 -41.39)"/><path class="a" d="M157.57,153.9c-1.6-4.3-4.69-9.19-10-11.89" transform="translate(-26.15 -41.39)"/><line class="a" x1="116.45" y1="113.76" x2="102.83" y2="107.1"/><polyline class="a" points="108.28 109.89 105.14 116.22 108.28 124.39"/><path class="a" d="M140.55,134.61c8.4,5.51,10.13,14,10.23,19.85l-3.19,2.74,3.2,3.61v5" transform="translate(-26.15 -41.39)"/><path class="a" d="M129,146.41a9,9,0,0,0,9-9" transform="translate(-26.15 -41.39)"/><path class="a" d="M129,146.41a9,9,0,0,1-9-9" transform="translate(-26.15 -41.39)"/><path class="a" d="M81.27,209.08a22,22,0,0,1-21.94-21.94v-15" transform="translate(-26.15 -41.39)"/><path class="a" d="M59.33,183.32a5.59,5.59,0,0,1,0-11.17" transform="translate(-26.15 -41.39)"/><line class="a" x1="47.42" y1="131.62" x2="41.27" y2="131.62"/><circle class="a" cx="44.34" cy="136.47" r="2.43"/><circle class="a" cx="65.88" cy="136.47" r="2.43"/><line class="a" x1="53.05" y1="141.3" x2="57.18" y2="141.3"/><path class="a" d="M89.79,191.06c0,4.92-3.63,8.9-8.11,8.9s-8.11-4-8.11-8.9Z" transform="translate(-26.15 -41.39)"/><path class="a" d="M59.33,172.14a26.28,26.28,0,0,0,21.94-11.79" transform="translate(-26.15 -41.39)"/><path class="a" d="M55.64,162.1a28.43,28.43,0,0,1,25.63-16.29h0" transform="translate(-26.15 -41.39)"/><path class="a" d="M81.27,209.08a22,22,0,0,0,21.94-21.94v-15" transform="translate(-26.15 -41.39)"/><path class="a" d="M103.21,183.32a5.59,5.59,0,1,0,0-11.17" transform="translate(-26.15 -41.39)"/><line class="a" x1="62.81" y1="131.62" x2="68.96" y2="131.62"/><path class="a" d="M103.21,172.14a26.28,26.28,0,0,1-21.94-11.79" transform="translate(-26.15 -41.39)"/><path class="a" d="M106.9,162.1a28.43,28.43,0,0,0-25.63-16.29h0" transform="translate(-26.15 -41.39)"/><path class="a" d="M55.63,162.1a20.11,20.11,0,0,0,7.59,38.74l.93,0" transform="translate(-26.15 -41.39)"/><path class="a" d="M106.9,162.1a20.11,20.11,0,0,1-7.59,38.74l-.93,0" transform="translate(-26.15 -41.39)"/><line class="a" x1="46.15" y1="165.86" x2="46.15" y2="173.19"/><line class="a" x1="64.08" y1="165.86" x2="64.08" y2="173.19"/><path class="a" d="M81.27,223.55a9,9,0,0,0,9-9" transform="translate(-26.15 -41.39)"/><path class="a" d="M81.27,223.55a9,9,0,0,1-9-9" transform="translate(-26.15 -41.39)"/><path class="a" d="M65,214.58c-3.39,1.94-13.49,8.89-13.49,22.89" transform="translate(-26.15 -41.39)"/><path class="a" d="M98.34,214.58c3.39,1.94,13.49,8.89,13.49,22.89" transform="translate(-26.15 -41.39)"/><path class="a" d="M92.25,206.58c1.26.92,6.1,5.12,6.75,10.72.75,6.47-1.36,12.88-7.22,12.88H71.59c-5.86,0-8-6.41-7.22-12.88.65-5.6,5.49-9.8,6.75-10.72" transform="translate(-26.15 -41.39)"/><path class="a" d="M203.34,174.47v13.42a22,22,0,0,1-21.94,21.94h0a22,22,0,0,1-21.94-21.94V174.47" transform="translate(-26.15 -41.39)"/><path class="a" d="M159.46,187a5.59,5.59,0,0,1,0-11.17" transform="translate(-26.15 -41.39)"/><path class="a" d="M203.34,187a5.59,5.59,0,0,0,0-11.17" transform="translate(-26.15 -41.39)"/><path class="a" d="M194.6,209.43h20.24l-5.23-43.5a28.42,28.42,0,0,0-56.42,0L148,209.43h21.18" transform="translate(-26.15 -41.39)"/><path class="a" d="M203.34,174.47a5.13,5.13,0,0,0-5.11-5.11h-6.34l-5.78-8.51v8.51H164.57a5.13,5.13,0,0,0-5.11,5.11" transform="translate(-26.15 -41.39)"/><line class="a" x1="147.55" y1="132.38" x2="141.4" y2="132.38"/><circle class="a" cx="144.48" cy="137.23" r="2.43"/><line class="a" x1="162.94" y1="132.38" x2="169.09" y2="132.38"/><circle class="a" cx="166.02" cy="137.23" r="2.43"/><line class="a" x1="153.18" y1="142.06" x2="157.31" y2="142.06"/><path class="a" d="M189.93,191.81c0,4.92-3.63,8.9-8.11,8.9s-8.11-4-8.11-8.9Z" transform="translate(-26.15 -41.39)"/><line class="a" x1="146.28" y1="166.51" x2="146.28" y2="172.74"/><line class="a" x1="164.21" y1="166.51" x2="164.21" y2="172.74"/><path class="a" d="M181.4,223.1a9,9,0,0,0,9-9" transform="translate(-26.15 -41.39)"/><path class="a" d="M181.4,223.1a9,9,0,0,1-9-9" transform="translate(-26.15 -41.39)"/><path class="a" d="M171.47,207.44c-1.3.77-5.09,3.57-5.09,10.09V231l15.43-4.39" transform="translate(-26.15 -41.39)"/><path class="a" d="M166.86,213.77a26.44,26.44,0,0,0-14.17,23.69" transform="translate(-26.15 -41.39)"/><line class="a" x1="133.62" y1="196.07" x2="133.62" y2="177.89"/><path class="a" d="M192.16,207.44c1.3.77,5.09,3.57,5.09,10.09V231l-15.43-4.39" transform="translate(-26.15 -41.39)"/><path class="a" d="M190.43,229.09c-2.53,6.44-6,5.72-8.61,5.72s-6.09.72-8.61-5.72" transform="translate(-26.15 -41.39)"/><path class="a" d="M196.77,213.77a26.44,26.44,0,0,1,14.17,23.69" transform="translate(-26.15 -41.39)"/><line class="a" x1="177.7" y1="196.07" x2="177.7" y2="177.89"/><line class="a" x1="11.82" y1="45.89" x2="11.82" y2="55.48"/><line class="a" x1="20.13" y1="45.89" x2="20.13" y2="55.48"/><line class="a" x1="20.13" y1="50.68" x2="11.82" y2="50.68"/><line class="a" x1="36.64" y1="45.2" x2="36.64" y2="55.48"/><circle class="a" cx="28.45" cy="52.42" r="3.29"/><circle class="a" cx="44.92" cy="52.42" r="3.29"/><line class="a" x1="48.2" y1="55.71" x2="48.2" y2="49.14"/><line class="a" x1="155.66" y1="45.89" x2="155.66" y2="55.48"/><line class="a" x1="163.98" y1="45.89" x2="163.98" y2="55.48"/><line class="a" x1="163.98" y1="50.68" x2="155.66" y2="50.68"/><line class="a" x1="179.92" y1="45.2" x2="179.92" y2="55.48"/><path class="a" d="M200.29,96.54a3.29,3.29,0,1,1,1.45-2.72" transform="translate(-26.15 -41.39)"/><circle class="a" cx="193.73" cy="52.42" r="3.29"/><line class="a" x1="185.55" y1="45.2" x2="185.55" y2="55.48"/><line class="a" x1="175.58" y1="52.42" x2="169.01" y2="52.42"/></svg>