<svg xmlns="http://www.w3.org/2000/svg" viewBox="0 0 202.18 202.49"><defs><style>.a{fill:none;stroke:#662d91;stroke-linecap:round;stroke-linejoin:round;stroke-width:1.49px;}</style></defs><title>hours</title><path class="a" d="M29.57,153.56c-1.29-11,2.84-16.2,2.84-16.2l17.54-17.54,28.11,28.11L62.33,165.05s5.43,11.55,19.21,25.33,25.33,19.21,25.33,19.21L124,193.86,152.1,222" transform="translate(-28.58 -41.16)"/><path class="a" d="M38.13,100.54A100.51,100.51,0,1,1,129.52,242.9q-4.05,0-8-.32" transform="translate(-28.58 -41.16)"/><line class="a" x1="148.59" y1="45.05" x2="116.3" y2="133.25"/><polyline class="a" points="150.2 94.28 175.59 94.28 158.2 133.25"/><polyline class="a" points="110.59 84.02 110.59 45.05 90.79 73.44 117.46 73.44"/><path class="a" d="M110.15,125.18H86.43l18.34-20.63a10.93,10.93,0,1,0-19-7.42" transform="translate(-28.58 -41.16)"/><line class="a" x1="9.55" y1="59.38" x2="3.37" y2="43.74"/><line class="a" x1="9.55" y1="59.38" x2="26.04" y2="56.05"/><path class="a" d="M121.49,242.59a100.53,100.53,0,0,1-91.86-89" transform="translate(-28.58 -41.16)"/></svg>