<?xml version="1.0" encoding="utf-8"?>
<!-- Generator: Adobe Illustrator 21.1.0, SVG Export Plug-In . SVG Version: 6.00 Build 0)  -->
<svg version="1.1" id="Layer_1" xmlns="http://www.w3.org/2000/svg" xmlns:xlink="http://www.w3.org/1999/xlink" x="0px" y="0px"
	 viewBox="0 0 47.6 47.6" style="enable-background:new 0 0 47.6 47.6;" xml:space="preserve">
<style type="text/css">
	.st0{fill:none;stroke:#662F8F;stroke-width:4;stroke-linecap:round;stroke-linejoin:round;stroke-miterlimit:10;}
	.st1{fill:#662F8F;}
	.st2{fill:none;stroke:#662F8F;stroke-width:2;stroke-linecap:round;stroke-linejoin:round;stroke-miterlimit:10;}
	.st3{fill:none;stroke:#FFFFFF;stroke-width:0.488;stroke-linecap:round;stroke-linejoin:round;stroke-miterlimit:10;}
	.st4{fill:none;stroke:#E73E51;stroke-width:1.6927;}
	.st5{fill:none;stroke:#E73E51;stroke-width:1.1285;stroke-linecap:round;stroke-linejoin:round;stroke-miterlimit:10;}
	.st6{fill:#E73E51;}
	
		.st7{clip-path:url(#SVGID_2_);fill:none;stroke:#E73E51;stroke-width:1.1285;stroke-linecap:round;stroke-linejoin:round;stroke-miterlimit:10;}
	.st8{fill:none;stroke:#EE4050;stroke-width:1.1285;stroke-linecap:round;stroke-linejoin:round;stroke-miterlimit:10;}
	.st9{fill:none;stroke:#FFFFFF;stroke-width:0.574;stroke-linecap:round;stroke-linejoin:round;stroke-miterlimit:10;}
	.st10{fill:none;stroke:#A491C4;stroke-width:0.5657;stroke-miterlimit:10;}
	.st11{fill:none;stroke:#F7F8F9;stroke-width:1.2708;stroke-miterlimit:10;}
	.st12{fill:url(#SVGID_3_);}
	.st13{fill:#9289C1;}
	.st14{fill:#F79F7C;}
	.st15{fill:#EF619B;}
	.st16{fill:#F28BB9;}
	.st17{fill:#FABEA9;}
	.st18{fill:#F37B8A;}
	.st19{fill:none;stroke:#633493;stroke-width:5.1599;stroke-linecap:round;stroke-linejoin:round;stroke-miterlimit:10;}
	.st20{fill:none;stroke:#FFFFFF;stroke-width:1.0098;stroke-linecap:round;stroke-linejoin:round;stroke-miterlimit:10;}
	.st21{fill:none;stroke:#662F8F;stroke-width:1.5111;stroke-linecap:round;stroke-linejoin:round;stroke-miterlimit:10;}
	.st22{fill:none;stroke:#FFFFFF;stroke-width:1.6611;stroke-linecap:round;stroke-linejoin:round;stroke-miterlimit:10;}
	.st23{fill:none;stroke:#662F8F;stroke-width:0.75;stroke-miterlimit:10;}
	.st24{fill:none;stroke:#E73E51;stroke-width:0.9998;stroke-linecap:round;stroke-linejoin:round;stroke-miterlimit:10;}
	.st25{fill:none;}
	.st26{fill:#EE4050;}
</style>
<g>
	<path class="st0" d="M-570.9-351.9c9.6-9.6,22.8-15.5,37.3-15.5"/>
	<path class="st0" d="M-556.5-337.5c5.9-5.9,14-9.5,23-9.5"/>
	<path class="st0" d="M-599.7-380.7c17.7-17.7,41.2-27.4,66.1-27.4c25,0,48.4,9.7,66.1,27.4"/>
	<path class="st0" d="M-481.8-366.3c-13.3-13.3-31.6-21.5-51.7-21.5c-20.2,0-38.5,8.2-51.7,21.5"/>
	<path class="st0" d="M-496.2-351.9c-9.6-9.6-22.8-15.5-37.3-15.5"/>
	<path class="st0" d="M-510.6-337.5c-5.9-5.9-14-9.5-23-9.5"/>
	<path class="st0" d="M-525-306c-2.2,2.2-5.2,3.5-8.6,3.5c-6.7,0-12.1-5.4-12.1-12.1s5.4-12.1,12.1-12.1c3.3,0,6.4,1.4,8.6,3.5"/>
	<path class="st0" d="M-481.8-366.3c4,4,4,10.4,0,14.4c-4,4-10.4,4-14.4,0"/>
	<path class="st0" d="M-556.5-337.5c-4,4-10.4,4-14.4,0c-4-4-4-10.4,0-14.4"/>
	<path class="st0" d="M-510.6-337.5c4,4,4,10.4,0,14.4c-4,4-10.4,4-14.4,0"/>
	<path class="st0" d="M-585.3-366.3c-4,4-10.4,4-14.4,0c-4-4-4-10.4,0-14.4"/>
</g>
<g>
	<path class="st1" d="M-387.8-417.8c-28.7,0-52,23.3-52,52s23.3,52,52,52s52-23.3,52-52S-359.1-417.8-387.8-417.8z M-387.8-317.4
		c-26.6,0-48.3-21.7-48.3-48.3s21.7-48.3,48.3-48.3s48.3,21.7,48.3,48.3S-361.1-317.4-387.8-317.4z"/>
	<path class="st1" d="M-351.2-371.6c-4.8-4.7-10.4-8.3-16.4-10.7c0-0.3,0.1-0.7,0.1-1c0-11.1-9-20.2-20.2-20.2s-20.2,9-20.2,20.2
		c0,0.6,0,1.1,0.1,1.7c-5.5,2.4-10.5,5.8-14.9,10.1c0,0-0.1,0.1-0.1,0.1c-1.2,1.2-1.8,2.8-1.8,4.5c0,1.7,0.7,3.4,1.9,4.6
		c2.6,2.5,6.7,2.5,9.3,0c0,0,0,0,0,0c3.2-3.1,6.8-5.6,10.8-7.4c2.3,2.5,5.2,4.5,8.5,5.5c-5,1.2-9.6,3.7-13.4,7.4
		c0,0-0.1,0.1-0.1,0.1c-1.3,1.2-1.9,2.9-1.9,4.6c0,1.7,0.7,3.4,1.9,4.6c2.6,2.5,6.7,2.5,9.3,0c0,0,0,0,0,0h0c3-2.9,7-4.5,11.3-4.5
		c4.3,0,8.3,1.6,11.3,4.5c0,0,0,0,0,0c0.8,0.8,1.2,1.8,1.2,2.8c0,1.1-0.4,2.1-1.2,2.8c-1.6,1.6-4.3,1.6-5.9,0c0,0-0.1-0.1-0.1-0.1
		c-1.4-1.3-3.3-2.1-5.3-2.1c-4.2,0-7.6,3.3-7.6,7.5c0,4.1,3.4,7.5,7.6,7.5c2,0,3.9-0.8,5.4-2.2c0.5-0.5,0.5-1.3,0-1.7
		c-0.5-0.5-1.3-0.5-1.7,0c-1,1-2.3,1.5-3.7,1.5c-2.8,0-5.2-2.2-5.2-5c0-2.8,2.3-5,5.2-5c1.4,0,2.7,0.5,3.7,1.5c0,0,0.1,0.1,0.1,0.1
		c2.6,2.4,6.7,2.4,9.2-0.1c1.3-1.2,1.9-2.9,1.9-4.6s-0.7-3.4-1.9-4.6c0,0,0,0,0,0c-3.5-3.4-8.1-5.2-13-5.2c-4.9,0-9.5,1.9-13,5.2
		c0,0,0,0,0,0c-1.6,1.6-4.3,1.6-5.9,0c-0.8-0.8-1.2-1.8-1.2-2.8c0-1,0.4-2,1.1-2.7c0,0,0.1-0.1,0.1-0.1c5-4.9,11.7-7.6,18.8-7.6
		c7.1,0,13.8,2.7,18.8,7.6c0,0,0,0,0,0c2.6,2.5,6.7,2.5,9.3,0c1.3-1.2,1.9-2.9,1.9-4.6c0-1.7-0.7-3.4-1.9-4.6c0,0,0,0,0,0
		c-3.6-3.5-7.7-6.2-12.1-8.1c1.5-2.2,2.5-4.8,3-7.5c5.5,2.3,10.6,5.7,15,9.9c0.5,0.5,1.3,0.5,1.7,0
		C-350.7-370.4-350.7-371.1-351.2-371.6z M-415.1-364.2C-415.1-364.2-415.1-364.2-415.1-364.2c-1.6,1.6-4.3,1.6-5.9,0
		c-0.8-0.8-1.2-1.8-1.2-2.8c0-1.1,0.4-2.1,1.2-2.8c0,0,0.1-0.1,0.1-0.1c4-3.9,8.5-6.9,13.5-9.2c0.6,2.7,1.7,5.2,3.3,7.4
		C-408.2-369.9-411.9-367.4-415.1-364.2z M-360.5-362.4C-360.5-362.4-360.5-362.4-360.5-362.4c0.8,0.8,1.2,1.8,1.2,2.8
		c0,1.1-0.4,2.1-1.2,2.8c-1.6,1.6-4.3,1.6-5.9,0c0,0,0,0,0,0c-4-3.9-9-6.5-14.4-7.7c3.3-1.2,6.1-3.2,8.4-5.8
		C-368.1-368.5-364-365.8-360.5-362.4z M-387.8-365.7c-9.8,0-17.7-7.9-17.7-17.7c0-9.8,7.9-17.7,17.7-17.7s17.7,7.9,17.7,17.7
		C-370.1-373.6-378-365.7-387.8-365.7z"/>
	<path class="st1" d="M-395.4-384.7h-1.9l0.1-3.7h5.6v-1.5h-7.1l-0.2,6.6h2.9c2.5,0,3.4,1.1,3.4,2.5c0,1.4-1,2.5-2.8,2.5
		c-1.3,0-2.5-0.6-3.4-1.6l-1,1c1.1,1.3,2.6,2,4.4,2c2.4,0,4.5-1.5,4.5-4.2C-390.9-382.9-392.4-384.7-395.4-384.7z"/>
	<path class="st1" d="M-381.4-383.9v1.5h3.9c-0.3,2.5-1.9,4.1-4.5,4.1c-2.8,0-4.9-2.1-4.9-5.1c0-3,2.2-5.1,5-5.1
		c1.6,0,2.9,0.7,3.8,1.7l1.2-1.2c-1.2-1.3-3-2.1-5-2.1c-3.9,0-6.7,2.8-6.7,6.7c0,4.2,3.2,6.7,6.6,6.7c3.9,0,6.3-3,6.3-6.7
		c0-0.1,0-0.3,0-0.4H-381.4z"/>
</g>
<g>
	<line class="st2" x1="-255.9" y1="-332.1" x2="-255.9" y2="-323.4"/>
	<path class="st2" d="M-269.6-323.4c-2.8,0-5.2-2.3-5.2-5.2v-77.8c0-2.8,2.3-5.2,5.2-5.2h69.9c2.8,0,5.2,2.3,5.2,5.2v77.8
		c0,2.8-2.3,5.2-5.2,5.2h-56.2"/>
	<path class="st2" d="M-255.9-332.1h-5c-2.8,0-5.2-2.3-5.2-5.2v-60.4c0-2.8,2.3-5.2,5.2-5.2h10.1c2.8,0,5.2,2.3,5.2,5.2v60.4"/>
	<g>
		<g>
			<circle class="st2" cx="-233.9" cy="-382.3" r="3.8"/>
			<circle class="st2" cx="-220" cy="-382.3" r="3.8"/>
			<circle class="st2" cx="-206.1" cy="-382.3" r="3.8"/>
			<circle class="st2" cx="-233.9" cy="-368.4" r="3.8"/>
			<circle class="st2" cx="-220" cy="-368.4" r="3.8"/>
			<circle class="st2" cx="-206.1" cy="-368.4" r="3.8"/>
			<circle class="st2" cx="-233.9" cy="-354.5" r="3.8"/>
			<circle class="st2" cx="-220" cy="-354.5" r="3.8"/>
			<circle class="st2" cx="-206.1" cy="-354.5" r="3.8"/>
			<circle class="st2" cx="-233.9" cy="-340.6" r="3.8"/>
			<circle class="st2" cx="-220" cy="-340.6" r="3.8"/>
			<circle class="st2" cx="-206.1" cy="-340.6" r="3.8"/>
		</g>
		<line class="st2" x1="-237.7" y1="-398.2" x2="-202.3" y2="-398.2"/>
	</g>
</g>
<g>
	<path class="st3" d="M-338.5-219.7v-1c0-2.7-2.1-4.9-4.8-5c-2.8-0.1-5.1,2.2-5.1,4.9l0,3.8h10.9c0.7,0,1.3,0.6,1.3,1.3v8.6
		c0,0.7-0.6,1.3-1.3,1.3h-2.7c-0.5,0-1-0.4-1.1-0.9l-0.8-3.2v0c0.6-0.5,0.9-1.2,0.8-2.1c-0.1-1-1-1.7-1.9-1.9
		c-1.3-0.1-2.5,0.9-2.5,2.2c0,0.7,0.3,1.3,0.8,1.7h0c0,0-0.5,2-0.8,3.2c-0.1,0.5-0.6,0.9-1.1,0.9h-2.7c-0.7,0-1.3-0.6-1.3-1.3v-8.6"
		/>
</g>
<g>
	<circle class="st4" cx="-220.3" cy="-212.4" r="23"/>
	<path class="st5" d="M-243.5-212.5l23.2-0.1 M-220.3-212.6v-23.1V-212.6z M-208.7-212.6c0,6.4-5.2,11.6-11.6,11.6
		c-6.4,0-11.7-5.2-11.7-11.6c0-6.4,5.2-11.6,11.7-11.6C-213.9-224.2-208.7-219-208.7-212.6z M-203.1-212.6c0,9.5-7.7,17.3-17.3,17.3
		c-9.5,0-17.3-7.7-17.3-17.3c0-9.5,7.7-17.3,17.3-17.3C-210.8-229.8-203.1-222.1-203.1-212.6z"/>
	<path class="st6" d="M-236-217.8c1.2,0,2.2-1,2.2-2.2c0-1.2-1-2.2-2.2-2.2c-1.2,0-2.2,1-2.2,2.2
		C-238.2-218.8-237.2-217.8-236-217.8"/>
</g>
<g>
	<circle class="st4" cx="-278.7" cy="-212" r="23"/>
	<path class="st5" d="M-267.9-219.3l7.1,7.2 M-267.9-219.3L-275-209 M-282-204.8l7.1-4.2 M-282-204.8l-7.1-9.5 M-296.1-209.4
		l7.1-4.9"/>
	<path class="st6" d="M-291.2-214.4c0-1.2,1-2.1,2.1-2.1s2.1,1,2.1,2.1c0,1.2-1,2.1-2.1,2.1S-291.2-213.2-291.2-214.4"/>
	<path class="st6" d="M-284.2-204.8c0-1.2,1-2.1,2.1-2.1s2.1,1,2.1,2.1c0,1.2-1,2.1-2.1,2.1S-284.2-203.7-284.2-204.8"/>
	<path class="st6" d="M-277.1-209c0-1.2,1-2.1,2.1-2.1c1.2,0,2.1,1,2.1,2.1c0,1.2-1,2.1-2.1,2.1C-276.2-206.9-277.1-207.9-277.1-209
		"/>
	<path class="st6" d="M-270.1-219.3c0-1.2,1-2.1,2.1-2.1c1.2,0,2.1,1,2.1,2.1c0,1.2-1,2.1-2.1,2.1
		C-269.1-217.2-270.1-218.1-270.1-219.3"/>
	<path class="st6" d="M-263.2-212.2c0-1.2,1-2.1,2.1-2.1c1.2,0,2.1,1,2.1,2.1c0,1.2-1,2.1-2.1,2.1
		C-262.2-210.1-263.2-211.1-263.2-212.2"/>
	<path class="st6" d="M-298-209.6c0-1.2,1-2.1,2.1-2.1c1.2,0,2.1,1,2.1,2.1c0,1.2-1,2.1-2.1,2.1C-297-207.5-298-208.4-298-209.6"/>
</g>
<g>
	<circle class="st4" cx="-170.5" cy="-252.7" r="23"/>
	<g>
		<defs>
			<path id="SVGID_1_" d="M-194.3-252.9c0,12.4,9.6,22.6,21.8,23.5h3.6c11.7-0.9,21.1-10.4,21.8-22.2v-2.7
				c-0.7-12.4-11-22.2-23.6-22.2C-183.8-276.5-194.3-266-194.3-252.9"/>
		</defs>
		<clipPath id="SVGID_2_">
			<use xlink:href="#SVGID_1_"  style="overflow:visible;"/>
		</clipPath>
		<path class="st7" d="M-147.7-221.4h-12.1c-0.5,0-0.9-0.4-0.9-0.9v-5.2c0-0.5,0.4-0.9,0.9-0.9h12.1c0.5,0,0.9,0.4,0.9,0.9v5.2
			C-146.8-221.8-147.2-221.4-147.7-221.4z M-161.7-221.4h-12.1c-0.5,0-0.9-0.4-0.9-0.9v-5.2c0-0.5,0.4-0.9,0.9-0.9h12.1
			c0.5,0,0.9,0.4,0.9,0.9v5.2C-160.8-221.8-161.2-221.4-161.7-221.4z M-175.6-221.4h-12.1c-0.5,0-0.9-0.4-0.9-0.9v-5.2
			c0-0.5,0.4-0.9,0.9-0.9h12.1c0.5,0,0.9,0.4,0.9,0.9v5.2C-174.7-221.8-175.1-221.4-175.6-221.4z M-189.6-221.4h-12.1
			c-0.5,0-0.9-0.4-0.9-0.9v-5.2c0-0.5,0.4-0.9,0.9-0.9h12.1c0.5,0,0.9,0.4,0.9,0.9v5.2C-188.7-221.8-189.1-221.4-189.6-221.4z
			 M-140.5-228.4h-12.1c-0.5,0-0.9-0.4-0.9-0.9v-5.2c0-0.5,0.4-0.9,0.9-0.9h12.1c0.5,0,0.9,0.4,0.9,0.9v5.2
			C-139.6-228.8-140-228.4-140.5-228.4z M-154.5-228.4h-12.1c-0.5,0-0.9-0.4-0.9-0.9v-5.2c0-0.5,0.4-0.9,0.9-0.9h12.1
			c0.5,0,0.9,0.4,0.9,0.9v5.2C-153.5-228.8-154-228.4-154.5-228.4z M-168.4-228.4h-12.1c-0.5,0-0.9-0.4-0.9-0.9v-5.2
			c0-0.5,0.4-0.9,0.9-0.9h12.1c0.5,0,0.9,0.4,0.9,0.9v5.2C-167.4-228.8-167.9-228.4-168.4-228.4z M-182.4-228.4h-12.1
			c-0.5,0-0.9-0.4-0.9-0.9v-5.2c0-0.5,0.4-0.9,0.9-0.9h12.1c0.5,0,0.9,0.4,0.9,0.9v5.2C-181.4-228.8-181.9-228.4-182.4-228.4z
			 M-147.7-235.5h-12.1c-0.5,0-0.9-0.4-0.9-0.9v-5.2c0-0.5,0.4-0.9,0.9-0.9h12.1c0.5,0,0.9,0.4,0.9,0.9v5.2
			C-146.8-236-147.2-235.5-147.7-235.5z M-161.7-235.5h-12.1c-0.5,0-0.9-0.4-0.9-0.9v-5.2c0-0.5,0.4-0.9,0.9-0.9h12.1
			c0.5,0,0.9,0.4,0.9,0.9v5.2C-160.8-236-161.2-235.5-161.7-235.5z M-175.6-235.5h-12.1c-0.5,0-0.9-0.4-0.9-0.9v-5.2
			c0-0.5,0.4-0.9,0.9-0.9h12.1c0.5,0,0.9,0.4,0.9,0.9v5.2C-174.7-236-175.1-235.5-175.6-235.5z M-189.6-235.5h-12.1
			c-0.5,0-0.9-0.4-0.9-0.9v-5.2c0-0.5,0.4-0.9,0.9-0.9h12.1c0.5,0,0.9,0.4,0.9,0.9v5.2C-188.7-236-189.1-235.5-189.6-235.5z
			 M-140.5-242.6h-12.1c-0.5,0-0.9-0.4-0.9-0.9v-5.2c0-0.5,0.4-0.9,0.9-0.9h12.1c0.5,0,0.9,0.4,0.9,0.9v5.2
			C-139.6-243-140-242.6-140.5-242.6z M-154.5-242.6h-12.1c-0.5,0-0.9-0.4-0.9-0.9v-5.2c0-0.5,0.4-0.9,0.9-0.9h12.1
			c0.5,0,0.9,0.4,0.9,0.9v5.2C-153.5-243-154-242.6-154.5-242.6z M-168.4-242.6h-12.1c-0.5,0-0.9-0.4-0.9-0.9v-5.2
			c0-0.5,0.4-0.9,0.9-0.9h12.1c0.5,0,0.9,0.4,0.9,0.9v5.2C-167.4-243-167.9-242.6-168.4-242.6z M-182.4-242.6h-12.1
			c-0.5,0-0.9-0.4-0.9-0.9v-5.2c0-0.5,0.4-0.9,0.9-0.9h12.1c0.5,0,0.9,0.4,0.9,0.9v5.2C-181.4-243-181.9-242.6-182.4-242.6z
			 M-147.7-249.7h-12.1c-0.5,0-0.9-0.4-0.9-0.9v-5.2c0-0.5,0.4-0.9,0.9-0.9h12.1c0.5,0,0.9,0.4,0.9,0.9v5.2
			C-146.8-250.2-147.2-249.7-147.7-249.7z M-161.7-249.7h-12.1c-0.5,0-0.9-0.4-0.9-0.9v-5.2c0-0.5,0.4-0.9,0.9-0.9h12.1
			c0.5,0,0.9,0.4,0.9,0.9v5.2C-160.8-250.2-161.2-249.7-161.7-249.7z M-175.6-249.7h-12.1c-0.5,0-0.9-0.4-0.9-0.9v-5.2
			c0-0.5,0.4-0.9,0.9-0.9h12.1c0.5,0,0.9,0.4,0.9,0.9v5.2C-174.7-250.2-175.1-249.7-175.6-249.7z M-189.6-249.7h-12.1
			c-0.5,0-0.9-0.4-0.9-0.9v-5.2c0-0.5,0.4-0.9,0.9-0.9h12.1c0.5,0,0.9,0.4,0.9,0.9v5.2C-188.7-250.2-189.1-249.7-189.6-249.7z"/>
	</g>
</g>
<circle class="st4" cx="-108.7" cy="-227.3" r="23"/>
<path class="st8" d="M-108.6-218.1c-1.2-0.5-5.6-2.7-5.6-7.1v-6.8c2.6-0.1,4.7-1,5.6-1.5c0.9,0.5,3,1.4,5.6,1.5v6.8
	C-102.9-220.8-107.4-218.6-108.6-218.1z"/>
<path class="st8" d="M-106.1-223.2h-4.8v-3.5h4.8V-223.2z M-110.1-226.7v-1.4c0-0.8,0.7-1.5,1.5-1.5c0.8,0,1.5,0.7,1.5,1.5v1.4"/>
<path class="st8" d="M-94.9-234.2l0-1.4c0-0.5-0.4-0.9-0.9-0.9l-12.3,0.1l-3.6-3.6l-8.6,0c-1,0-1.9,0.9-1.9,1.9l0.1,22.7h27.2
	V-234.2z"/>
<g>
	<circle class="st4" cx="-42.4" cy="-222.8" r="23"/>
	<path class="st8" d="M-32-214.1c0,1.8-1.5,3.3-3.3,3.3c-1.8,0-3.3-1.5-3.3-3.3c0-1.8,1.5-3.3,3.3-3.3
		C-33.5-217.4-32-215.9-32-214.1z M-36-215l0.8,2l1.5-3.9 M-51.2-218h9.1 M-51.2-220.8h14.7 M-51.2-223.6h14.7 M-51.2-226.5h14.7
		 M-51.2-229.3h9.9 M-51.2-232.1h9.9 M-36.6-237.8h6.9v29.8h-25.2v-29.8H-36.6z"/>
</g>
<circle class="st4" cx="20.3" cy="-218.4" r="23"/>
<path class="st8" d="M20.1-213.2v1.1 M20.1-224v7.2 M20.1-232.5L6.2-208.4h27.9L20.1-232.5z"/>
<circle class="st4" cx="93.9" cy="-218.1" r="23"/>
<path class="st8" d="M93.9-200.7c-2.4-1-11.4-5.4-11.4-14.4v-13.7c5.3-0.1,9.6-2,11.4-3c1.8,1,6,2.8,11.4,3v13.7
	C105.3-206.1,96.3-201.7,93.9-200.7z"/>
<path class="st8" d="M98.8-211.1H89v-7.1h9.8V-211.1z M90.8-218.1v-2.8c0-1.6,1.3-3,3-3c1.6,0,3,1.3,3,3v2.8"/>
<g>
	<path class="st0" d="M219.7-240.1v-5.9c0-16.5-12.9-30.4-29.4-30.8c-17.1-0.5-31.1,13.2-31.1,30.2l0,23.2h67.2
		c4.2,0,7.7,3.5,7.7,7.7v53.1c0,4.2-3.5,7.7-7.7,7.7c0,0-10.2,0-16.8,0c-3.3,0-6.2-2.3-7-5.5l-4.8-19.9l0,0c3.6-2.9,5.8-7.6,5-12.7
		c-0.9-6-5.8-10.7-11.8-11.4c-8.2-0.9-15.1,5.5-15.1,13.5c0,4.3,2,8.2,5.2,10.6l0,0c0,0-3,12.4-4.8,19.9c-0.8,3.2-3.7,5.5-7,5.5
		h-16.8c-4.2,0-7.7-3.5-7.7-7.7v-53.1"/>
</g>
<g>
	<path class="st9" d="M95.4-151c1.7,0.6,3.7,0.2,5-1.1c1.4-1.4,1.7-3.3,1.1-5l-2.4,2.4c-0.3,0.3-0.8,0.3-1.1,0l-1.8-1.8
		c-0.3-0.3-0.3-0.8,0-1.1l2.4-2.4c-1.7-0.6-3.7-0.2-5,1.1c-1.4,1.4-1.7,3.3-1.1,5l-7.4,7.4c-1.7-0.6-3.7-0.2-5,1.1
		c-1.4,1.4-1.7,3.3-1.1,5l2.4-2.4c0.3-0.3,0.8-0.3,1.1,0l1.8,1.8c0.3,0.3,0.3,0.8,0,1.1l-2.4,2.4c1.7,0.6,3.7,0.2,5-1.1
		c1.4-1.4,1.7-3.3,1.1-5l2.2-2.2"/>
	<path class="st9" d="M90.1-145.8l-5.8-6.2c-1-1-2.7-1-3.7,0c-0.9,0.9-1,2.4-0.2,3.4l-2,1.3c0,0-3.2-4.8,0.5-8.5
		c1.3-1.3,2.5-2.5,3.6-3.6c0.3,0.1,0.7,0.1,1,0.2c0.3,0.1,0.6-0.2,0.5-0.5l-0.2-1l1.7-1.7l4.6,4.6l-1.6,1.6c-0.5-0.5-1.3-0.5-1.7,0
		c-0.5,0.5-0.5,1.3,0,1.7l12.8,11.9c0.1,0.1,0.2,0.2,0.2,0.2c0.7,0.8,0.7,2,0.1,2.9c-0.9,1.1-2.5,1.2-3.5,0.3c0,0-0.1-0.1-0.1-0.1
		l-4.2-4.4"/>
</g>
<g>
	<path class="st10" d="M411,167c-16.8,29.7-59.2,67.7-114.4,99.6c-81.9,47.3-161,63.4-176.8,36c-7.4-12.7,0.3-32.6,18.8-55"/>
	<path class="st10" d="M357.8,120.4c29.3-5.1,50.9-1.9,58.3,11c2.6,4.5,3.3,10,2.3,16.1"/>
	<circle class="st10" cx="415.6" cy="157.6" r="10.5"/>
	<circle class="st10" cx="264.2" cy="189.2" r="132"/>
</g>
<image style="overflow:visible;" width="1600" height="700" xlink:href="../Dropbox (Muuaaa)/Muuaaa Team Folder/Graphic Design_Gabriel/Neptuno/02 Design/images/slide-22.jpg"  transform="matrix(0.4158 0 0 0.4158 -25.9346 -325.4769)">
</image>
<image style="overflow:visible;" width="1078" height="516" xlink:href="datacenter-google-1078x516.jpg"  transform="matrix(1 0 0 1 100.3906 -966.4482)">
</image>
<g>
	<g>
		<g>
			<path class="st11" d="M994.6,135.9c7.8-13.2,12.3-28.7,12.3-45.2c0-49.1-39.8-88.9-88.9-88.9c-49.1,0-88.9,39.8-88.9,88.9
				c0,16,4.2,30.9,11.6,43.9"/>
			<path class="st11" d="M851,148.9c16.3,18.8,40.3,30.7,67.2,30.7c26.8,0,50.9-11.9,67.2-30.7"/>
			<rect x="845.5" y="145.7" class="st11" width="45.9" height="3.2"/>
			<g>
				<rect x="840.8" y="130.6" class="st11" width="55.3" height="15.1"/>
				<line class="st11" x1="845.4" y1="134.8" x2="845.4" y2="141.4"/>
				<line class="st11" x1="848.9" y1="134.8" x2="848.9" y2="141.4"/>
				<line class="st11" x1="852.3" y1="134.8" x2="852.3" y2="141.4"/>
				<line class="st11" x1="855.8" y1="134.8" x2="855.8" y2="141.4"/>
				<line class="st11" x1="859.3" y1="134.8" x2="859.3" y2="141.4"/>
				<line class="st11" x1="862.8" y1="134.8" x2="862.8" y2="141.4"/>
				<circle class="st11" cx="889.5" cy="138.1" r="2.3"/>
				<circle class="st11" cx="881.5" cy="138.1" r="2.3"/>
				<circle class="st11" cx="873.4" cy="138.1" r="2.3"/>
			</g>
			<path class="st11" d="M850.6,130.6V111c0-1.2,1-2.2,2.2-2.2l0,0c1.2,0,2.2,1,2.2,2.2v19.6"/>
			<path class="st11" d="M844.7,98.6c2.1-2.1,5-3.4,8.1-3.4"/>
			<path class="st11" d="M846.9,101.8c1.5-1.5,3.6-2.4,5.9-2.4"/>
			<path class="st11" d="M849.2,105c0.9-0.9,2.2-1.5,3.6-1.5"/>
			<path class="st11" d="M861,98.6c-2.1-2.1-5-3.4-8.1-3.4"/>
			<path class="st11" d="M858.7,101.8c-1.5-1.5-3.6-2.4-5.9-2.4"/>
			<path class="st11" d="M856.5,105c-0.9-0.9-2.2-1.5-3.6-1.5"/>
			<path class="st11" d="M881.9,130.6V111c0-1.2,1-2.2,2.2-2.2l0,0c1.2,0,2.2,1,2.2,2.2v19.6"/>
			<path class="st11" d="M876,98.6c2.1-2.1,5-3.4,8.1-3.4"/>
			<path class="st11" d="M878.2,101.8c1.5-1.5,3.6-2.4,5.9-2.4"/>
			<path class="st11" d="M880.5,105c0.9-0.9,2.2-1.5,3.6-1.5"/>
			<path class="st11" d="M892.3,98.6c-2.1-2.1-5-3.4-8.1-3.4"/>
			<path class="st11" d="M890,101.8c-1.5-1.5-3.6-2.4-5.9-2.4"/>
			<path class="st11" d="M887.8,105c-0.9-0.9-2.2-1.5-3.6-1.5"/>
			<rect x="902.5" y="39.9" class="st11" width="42.5" height="105.8"/>
			<rect x="908" y="45.4" class="st11" width="31.4" height="8.2"/>
			<rect x="908" y="53.6" class="st11" width="31.4" height="8.2"/>
			<rect x="908" y="61.8" class="st11" width="31.4" height="8.2"/>
			<rect x="908" y="69.9" class="st11" width="31.4" height="8.2"/>
			<rect x="908" y="78.1" class="st11" width="31.4" height="8.2"/>
			<rect x="908" y="86.2" class="st11" width="31.4" height="8.2"/>
			<rect x="908" y="112.5" class="st11" width="31.4" height="23.2"/>
			<circle class="st11" cx="923.5" cy="124.1" r="2.8"/>
			<g>
				<rect x="908" y="101.4" class="st11" width="18.6" height="4.1"/>
				<rect x="935.3" y="101.4" class="st11" width="4.1" height="4.1"/>
			</g>
			<line class="st11" x1="920.6" y1="124.1" x2="908" y2="124.1"/>
			<line class="st11" x1="926.3" y1="124.1" x2="938.9" y2="124.1"/>
			<rect x="902.5" y="145.7" class="st11" width="42.5" height="3.2"/>
			<circle class="st11" cx="974.2" cy="118.1" r="11.7"/>
			<circle class="st11" cx="974.2" cy="118.1" r="6.4"/>
			<circle class="st11" cx="974.2" cy="118.1" r="2.6"/>
			<line class="st11" x1="974.2" y1="129.8" x2="974.2" y2="135.9"/>
			<g>
				<rect x="951.4" y="135.9" class="st11" width="44.1" height="9.8"/>
				<line class="st11" x1="984.7" y1="140.8" x2="962" y2="140.8"/>
			</g>
			<rect x="955" y="145.7" class="st11" width="36.7" height="3.2"/>
		</g>
	</g>
</g>
<g>
	<linearGradient id="SVGID_3_" gradientUnits="userSpaceOnUse" x1="1056.1095" y1="-30.8749" x2="1178.3473" y2="-30.8749">
		<stop  offset="0" style="stop-color:#C558A0"/>
		<stop  offset="0.5945" style="stop-color:#7F3E93"/>
		<stop  offset="1" style="stop-color:#532E8B"/>
	</linearGradient>
	<path class="st12" d="M1147.1-53l31.3,17.6L1117-0.9l-60.9-34.6l30.8-17.5C1105.6-63.5,1128.4-63.5,1147.1-53z"/>
	<path class="st13" d="M1056.1-35.4v3.6L1116,3c0.4,0.2,0.8,0.2,1.1,0l61.2-34.7v-3.7L1117-0.9L1056.1-35.4z"/>
	<path class="st14" d="M1141.9-83.7l36.4,20.5L1117-28.6l-60.9-34.6l36-20.4C1107.5-92.4,1126.4-92.4,1141.9-83.7z"/>
	<path class="st15" d="M1143.6-108.6l34.8,19.6L1117-54.5l-60.9-34.6l34.3-19.5C1106.9-117.9,1127.1-117.9,1143.6-108.6z"/>
	<path class="st16" d="M1056.1-89.1l0.1,3.6l59.7,34.7c0.4,0.2,0.8,0.2,1.2,0l61.2-34.7v-3.6L1117-54.5L1056.1-89.1z"/>
	<path class="st17" d="M1056.1-63.2l0.1,3.6l59.7,34.7c0.4,0.2,0.9,0.2,1.3,0l61.1-34.7v-3.6L1117-28.6L1056.1-63.2z"/>
</g>
<g>
	<g>
		<path class="st18" d="M1597.6-127.4L1521.4,2c-1.5,2.5,0.3,5.7,3.3,5.7h61.4c0.7,0,1.3,0.6,1.2,1.4l-13.6,101.2
			c-0.4,3.3,4,4.9,5.7,2l94.1-155.8c1.4-2.3-0.3-5.2-2.9-5.2h-74.4c-0.7,0-1.3-0.6-1.2-1.3l8-75.7
			C1603.2-128.7,1599.1-130.1,1597.6-127.4z"/>
	</g>
	<g>
		<g>
			<path class="st1" d="M1458-24.1c-28.5-17-50.1-44.3-59.4-76.2c-9.1-31-6.3-65.2,7.9-94.2c28.1-57.4,95.2-86.9,156.5-68.2
				c35.2,10.7,64.3,36.3,80.3,69.4c2,4.1,8.2,0.5,6.2-3.6c-14.9-30.8-40.8-55.3-72.4-68.3c-31.7-13-68.2-13.7-100.3-1.8
				c-29.8,11.1-55.3,32.3-71.4,59.7c-17.1,29-22.9,63.8-16.6,96.8c7.4,38.7,31.9,72.6,65.7,92.7C1458.4-15.5,1462-21.7,1458-24.1
				L1458-24.1z"/>
		</g>
	</g>
	<g>
		<g>
			<path class="st1" d="M1647.3-191.8c47.3-13.1,98.5,12.1,115.3,58.7c15.6,43.4-2.9,92.9-43.1,115.3c-25.3,14.1-55.7,15.3-82.5,4.6
				c-4.3-1.7-6.1,5.2-1.9,6.9c49.2,19.8,107.2-2.1,130.2-50.1c21.5-44.9,6.9-99.8-33.9-128.2c-25-17.4-56.8-22.2-86-14.1
				C1641-197.4,1642.8-190.5,1647.3-191.8L1647.3-191.8z"/>
		</g>
	</g>
	<g>
		<g>
			<path class="st1" d="M1639.1-8c9.8-16.3,19.7-32.6,29.5-48.9c1.4-2.3-0.4-5.4-3.1-5.4c-27.2,0-54.3,0-81.5,0
				c1.2,1.2,2.4,2.4,3.6,3.6c3.8-28.3,7.6-56.6,11.3-84.9c0.6-4.1,1.1-8.2,1.7-12.3c0.5-3.7-5-4.6-6.7-1.8
				c-10.1,17.3-20.1,34.5-30.2,51.8c-16.1,27.5-32.2,55.1-48.3,82.6c-3.7,6.4-7.5,12.8-11.2,19.2c-1.4,2.3,0.4,5.4,3.1,5.4
				c23,0,46.1,0,69.1,0c-1.2-1.2-2.4-2.4-3.6-3.6c-4.6,34.3-9.2,68.6-13.8,102.9c-0.6,4.8-1.3,9.6-1.9,14.4c-0.5,3.7,5,4.6,6.7,1.8
				c15.8-26.3,31.7-52.5,47.5-78.8c2.3-3.8,4.5-7.5,6.8-11.3c2.4-4-3.8-7.6-6.2-3.6c-15.8,26.3-31.7,52.5-47.5,78.8
				c-2.3,3.8-4.5,7.5-6.8,11.3c2.2,0.6,4.4,1.2,6.7,1.8c4.6-34.3,9.2-68.6,13.8-102.9c0.6-4.8,1.3-9.6,1.9-14.4
				c0.3-1.9-1.8-3.6-3.6-3.6c-23,0-46.1,0-69.1,0c1,1.8,2.1,3.6,3.1,5.4c10.1-17.3,20.1-34.5,30.2-51.8
				c16.1-27.5,32.2-55.1,48.3-82.6c3.7-6.4,7.5-12.8,11.2-19.2c-2.2-0.6-4.4-1.2-6.7-1.8c-3.8,28.3-7.6,56.6-11.3,84.9
				c-0.6,4.1-1.1,8.2-1.7,12.3c-0.3,1.9,1.8,3.6,3.6,3.6c27.2,0,54.3,0,81.5,0c-1-1.8-2.1-3.6-3.1-5.4
				c-9.8,16.3-19.7,32.6-29.5,48.9C1630.6-7.7,1636.7-4.1,1639.1-8L1639.1-8z"/>
		</g>
	</g>
</g>
<g>
	<g>
		<path class="st18" d="M2528.5-35.2h-73.2c-5.1,0-9.3,4.2-9.3,9.3v51.7c0,5.1,4.2,9.3,9.3,9.3h73.2c5.1,0,9.3-4.2,9.3-9.3v-51.7
			C2537.8-31,2533.6-35.2,2528.5-35.2z M2503.8,19c0.3,1.2-0.6,2.3-1.8,2.3h-20.1c-1.2,0-2.1-1.1-1.8-2.3l4.5-18.8
			c-2.8-2.2-4.7-5.6-4.7-9.5c0-7.5,6.8-13.4,14.6-11.8c4.7,1,8.4,4.8,9.2,9.5c0.9,4.8-1.1,9.1-4.5,11.8L2503.8,19z"/>
	</g>
</g>
<g>
	<path class="st18" d="M2603.5-186.7l-53.6,10.6c-0.6,0.1-1.3-0.1-1.7-0.6l-27.2-30.3c-1-1.1-0.4-2.8,1-3.1l73.9-14.6
		c1-0.2,2,0.5,2.2,1.5l6.9,34.3C2605.2-187.8,2604.5-186.9,2603.5-186.7z"/>
</g>
<g>
	<path class="st18" d="M2369.2-186.7l53.6,10.6c0.6,0.1,1.3-0.1,1.7-0.6l27.2-30.3c1-1.1,0.4-2.8-1-3.1l-73.9-14.6
		c-1-0.2-2,0.5-2.2,1.5l-6.9,34.3C2367.6-187.8,2368.2-186.9,2369.2-186.7z"/>
</g>
<g>
	<g>
		<path class="st18" d="M2576-118c-49.5,0-85.9-23.3-85.9-23.3s-36.4,23.3-85.9,23.3h-8.2V-7.4c0,83.8,94.1,116.3,94.1,116.3
			s94.1-32.4,94.1-116.3V-118H2576z M2571.3-7.4c0,63.9-64.1,95.2-81.3,102.4c-17.2-7.2-81.3-38.5-81.3-102.4v-97.9
			c38.1-1,68.2-14.5,81.3-21.4c13,6.9,43.1,20.3,81.3,21.4V-7.4z"/>
	</g>
</g>
<circle class="st19" cx="2393.8" cy="-161.7" r="8.3"/>
<line class="st19" x1="2393.8" y1="-170" x2="2393.8" y2="-186.6"/>
<line class="st19" x1="2385.5" y1="-161.7" x2="2314.5" y2="-161.7"/>
<line class="st19" x1="2378.6" y1="-218.6" x2="2402.1" y2="-213.9"/>
<polyline class="st19" points="2442.3,-206 2451.2,-204.2 2447.8,-187 2428.6,-190.8 "/>
<polygon class="st19" points="2363.7,-192.6 2420.2,-181.4 2450.3,-215 2371.4,-230.6 "/>
<circle class="st19" cx="2578.9" cy="-161.7" r="8.3"/>
<path class="st19" d="M2578.9-170v-16.7V-170z"/>
<path class="st19" d="M2587.3-161.7h71H2587.3z"/>
<line class="st19" x1="2594.1" y1="-218.6" x2="2570.6" y2="-213.9"/>
<polygon class="st19" points="2530.5,-206 2521.5,-204.2 2525,-187 2544.2,-190.8 "/>
<polygon class="st19" points="2609.1,-192.6 2552.6,-181.4 2522.4,-215 2601.4,-230.6 "/>
<path class="st19" d="M2557.9,54c63.4-27.6,107.7-90.9,107.7-164.5c0-99-80.3-179.3-179.3-179.3s-179.3,80.3-179.3,179.3
	c0,73.6,44.3,136.8,107.7,164.5"/>
<path class="st19" d="M2486.4,105.2c0,0,94.1-32.4,94.1-116.3v-110.7h-8.2c-49.5,0-85.9-23.3-85.9-23.3s-36.4,23.3-85.9,23.3h-8.2
	v110.7C2392.3,72.8,2486.4,105.2,2486.4,105.2z"/>
<path class="st19" d="M2486.4,91.4c-17.2-7.2-81.3-38.5-81.3-102.4V-109c38.1-1,68.2-14.5,81.3-21.4c13,6.9,43.1,20.3,81.3,21.4
	v97.9C2567.6,52.9,2503.6,84.1,2486.4,91.4z"/>
<path class="st19" d="M2523,29.5h-73.2c-5.1,0-9.3-4.2-9.3-9.3v-51.7c0-5.1,4.2-9.3,9.3-9.3h73.2c5.1,0,9.3,4.2,9.3,9.3v51.7
	C2532.2,25.4,2528.1,29.5,2523,29.5z"/>
<path class="st19" d="M2498.2,13.4l-4.5-18.8c3.4-2.6,5.4-7,4.5-11.8c-0.9-4.7-4.6-8.5-9.2-9.5c-7.8-1.6-14.6,4.3-14.6,11.8
	c0,3.9,1.9,7.3,4.7,9.5l-4.5,18.8c-0.3,1.2,0.6,2.3,1.8,2.3h20.1C2497.6,15.7,2498.5,14.6,2498.2,13.4z"/>
<path class="st19" d="M2517.4-40.8c0,0,0-23.8,0-23.8c0-17.1-13.9-31-31-31c-17.1,0-31,13.9-31,31v23.8H2517.4z"/>
<path class="st19" d="M2979.9,54c63.4-27.6,107.7-90.9,107.7-164.5c0-99-80.3-179.3-179.3-179.3s-179.3,80.3-179.3,179.3
	c0,73.6,44.3,136.8,107.7,164.5"/>
<g>
	<path class="st19" d="M2956.7-121.1c15,5.4,32.4,2.1,44.4-9.9s15.3-29.4,9.9-44.4l-21.3,21.3c-2.7,2.7-7,2.7-9.7,0l-15.9-15.9
		c-2.7-2.7-2.7-7,0-9.7l21.3-21.3c-15-5.4-32.4-2.1-44.4,9.9s-15.3,29.4-9.9,44.4l-65,65c-15-5.4-32.4-2.1-44.4,9.9
		s-15.3,29.4-9.9,44.4l21.3-21.3c2.7-2.7,7-2.7,9.7,0l15.9,15.9c2.7,2.7,2.7,7,0,9.7l-21.3,21.3c15,5.4,32.4,2.1,44.4-9.9
		s15.3-29.4,9.9-44.4l19.2-19.2"/>
	<path class="st19" d="M2910.9-75.3l-50.9-54.6c-8.9-8.9-23.4-8.9-32.4,0c-8.2,8.2-8.9,21.2-1.9,30.2l-17.9,11.2
		c0,0-28.2-42.3,4-74.5c11.2-11.2,22.2-22.2,31.5-31.5c3,0.5,6.3,1.1,9.1,1.5c2.8,0.5,5.2-1.9,4.7-4.7l-1.5-9.1l14.6-14.6l40.7,40.7
		l-14.4,14.4c-4.2-4.2-11.1-4.2-15.4,0s-4.2,11.1,0,15.4l112.7,105.1c0.8,0.7,1.5,1.4,2.2,2.2c6.1,7.1,6.5,17.9,0.8,25.4
		c-7.6,10.1-22.1,10.9-30.7,2.2c-0.3-0.3-0.7-0.7-1-1.1l-36.5-39.2"/>
</g>
<g>
	<path class="st19" d="M3376.9-43.3l-19.2,19.2c5.4,15,2.1,32.4-9.9,44.4s-29.4,15.3-44.4,9.9l21.3-21.3c2.7-2.7,2.7-7,0-9.7
		l-15.9-15.9c-2.7-2.7-7-2.7-9.7,0l-21.3,21.3c-5.4-15-2.1-32.4,9.9-44.4s29.4-15.3,44.4-9.9l65-65c-5.4-15-2.1-32.4,9.9-44.4
		s29.4-15.3,44.4-9.9l-21.3,21.3c-2.7,2.7-2.7,7,0,9.7l15.9,15.9c2.7,2.7,7,2.7,9.7,0l21.3-21.3c5.4,15,2.1,32.4-9.9,44.4
		s-29.4,15.3-44.4,9.9"/>
	<path class="st19" d="M3376.9-43.3L3326-97.9c-8.9-8.9-23.4-8.9-32.4,0c-8.2,8.2-8.9,21.2-1.9,30.2l-17.9,11.2
		c0,0-28.2-42.3,4-74.5c11.2-11.2,22.2-22.2,31.5-31.5c3,0.5,6.3,1.1,9.1,1.5c2.8,0.5,5.2-1.9,4.7-4.7l-1.5-9.1l14.6-14.6l40.7,40.7
		l-14.4,14.4c-4.2-4.2-11.1-4.2-15.4,0s-4.2,11.1,0,15.4l112.7,105.1c0.8,0.7,1.5,1.4,2.2,2.2c6.1,7.1,6.5,17.9,0.8,25.4
		c-7.6,10.1-22.1,10.9-30.7,2.2c-0.3-0.3-0.7-0.7-1-1.1l-36.5-39.2l-0.7,81.4c-64.4,25.3-133,9.1-185.1-42.9
		c-70-70-70-183.6,0-253.6c70-70,183.6-70,253.6,0c52,52,65.4,128.1,40.1,192.5"/>
</g>
<g>
	<path class="st20" d="M-210.2-81.5v-1.3c0-0.5-0.4-0.9-0.9-0.9H-223l-3.5-3.5h-8.3c-1,0-1.8,0.8-1.8,1.8v21.8l5.5-15
		c0.1-0.4,0.5-0.6,0.9-0.6h21.7c0.6,0,1.1,0.6,0.9,1.2l-5,13.8c-0.1,0.4-0.5,0.6-0.9,0.6h-19.9"/>
</g>
<g>
	<path class="st21" d="M-282.5-68.1c-5.1-3-8.6-8.6-8.6-15c0-9.6,7.8-17.5,17.5-17.5c7,0,13,4.1,15.8,9.9"/>
	<path class="st21" d="M-257.9-90.6c1.1-0.3,2.3-0.5,3.5-0.5c7,0,12.7,5.7,12.7,12.7s-5.7,12.7-12.7,12.7c-1.7,0-3.4-0.3-4.9-1"/>
	<polyline class="st21" points="-259.2,-66.6 -255.4,-72.9 -265.9,-72.9 -264.2,-85.5 -275.8,-65.7 -266.9,-65.7 -268.9,-50.5 
		-261.9,-62.1 	"/>
</g>
<g>
	<path class="st22" d="M-185.7-75.4c-6.9,0-12.5-5.6-12.5-12.5c0-5,2.9-9.3,7.1-11.3"/>
	<path class="st22" d="M-191.1-99.2c-0.1-0.4-0.1-0.8-0.1-1.2c0-4.5,3.6-8.1,8.1-8.1c1.7,0,3.2,0.5,4.5,1.4"/>
	<path class="st22" d="M-178.5-107.2c3-4.6,8.2-7.6,14.1-7.6c9.2,0,16.7,7.4,16.9,16.5"/>
	<path class="st22" d="M-147.5-98.3c5.1,1.2,8.9,5.8,8.9,11.3c0,6.4-5.2,11.6-11.6,11.6"/>
	<path class="st22" d="M-179-75.4c0-5.9,4.7-10.6,10.6-10.6c5.9,0,10.6,4.7,10.6,10.6s-4.7,10.6-10.6,10.6"/>
	<line class="st22" x1="-185.7" y1="-75.4" x2="-179" y2="-75.4"/>
	<path class="st22" d="M-176.4-75.4c1.4,0,2.6,1.2,2.6,2.6s-1.2,2.6-2.6,2.6c-1.4,0-2.6-1.2-2.6-2.6"/>
	<line class="st22" x1="-179" y1="-75.4" x2="-179" y2="-72.8"/>
	<line class="st22" x1="-176.4" y1="-75.4" x2="-179" y2="-75.4"/>
	<line class="st22" x1="-170.4" y1="-64.8" x2="-168" y2="-61.9"/>
	<line class="st22" x1="-170.4" y1="-64.8" x2="-168" y2="-67.7"/>
</g>
<g>
	<path class="st23" d="M-232.7-32.2c-0.2-1.5,0.4-2.3,0.4-2.3c0.7-0.7,2.4-2.4,2.4-2.4l3.9,3.9l-2.2,2.4c0,0,0.8,1.6,2.7,3.5
		c1.9,1.9,3.5,2.7,3.5,2.7l2.4-2.2l3.9,3.9"/>
	<path class="st23" d="M-231.5-39.6c2.2-4.8,7.1-8.2,12.7-8.2c7.7,0,14,6.3,14,14s-6.3,14-14,14c-0.4,0-0.7,0-1.1,0"/>
	<g>
		<line class="st23" x1="-212.1" y1="-41.5" x2="-216.6" y2="-29.3"/>
		<polyline class="st23" points="-211.9,-34.7 -208.4,-34.7 -210.8,-29.3 		"/>
		<g>
			<polyline class="st23" points="-217.4,-36.1 -217.4,-41.5 -220.2,-37.6 -216.4,-37.6 			"/>
			<path class="st23" d="M-221.4-36.1h-3.3l2.6-2.9c0.3-0.3,0.4-0.6,0.4-1c0-0.8-0.7-1.5-1.5-1.5s-1.5,0.7-1.5,1.5"/>
		</g>
	</g>
	<line class="st23" x1="-231.5" y1="-39.6" x2="-232.3" y2="-41.7"/>
	<line class="st23" x1="-231.5" y1="-39.6" x2="-229.2" y2="-40"/>
	<path class="st23" d="M-219.9-19.8c-6.7-0.5-12.1-5.8-12.8-12.4"/>
</g>
<circle class="st4" cx="-83.4" cy="-139.4" r="23"/>
<path class="st8" d="M-84.8-127.1h-0.5 M-82.5-127.1H-83 M-71.5-124.6h-23.7c-1,0-1.7-0.8-1.7-1.7v-1.6c0-1,0.8-1.7,1.7-1.7h23.7
	c1,0,1.7,0.8,1.7,1.7v1.6C-69.8-125.3-70.5-124.6-71.5-124.6z M-84.8-132.2h-0.5 M-82.5-132.2H-83 M-84.8-137.3h-0.5 M-82.5-137.3
	H-83 M-84.8-142.3h-0.5 M-82.5-142.3H-83 M-84.8-147.4h-0.5 M-82.5-147.4H-83 M-71.5-129.6h-23.7c-1,0-1.7-0.8-1.7-1.7v-1.6
	c0-1,0.8-1.7,1.7-1.7h23.7c1,0,1.7,0.8,1.7,1.7v1.6C-69.8-130.4-70.5-129.6-71.5-129.6z M-70.5-149.6l-5.3-4.2
	c-0.3-0.3-0.7-0.4-1.1-0.4h-12.9c-0.4,0-0.8,0.1-1.1,0.4l-5.3,4.2 M-71.5-144.9h-23.7c-1,0-1.7-0.8-1.7-1.7v-1.6
	c0-1,0.8-1.7,1.7-1.7h23.7c1,0,1.7,0.8,1.7,1.7v1.6C-69.8-145.7-70.5-144.9-71.5-144.9z M-71.5-144.9h-23.7c-1,0-1.7,0.8-1.7,1.7
	v1.6c0,1,0.8,1.7,1.7,1.7h23.7c1,0,1.7-0.8,1.7-1.7v-1.6C-69.8-144.1-70.5-144.9-71.5-144.9z M-71.5-134.7h-23.7
	c-1,0-1.7-0.8-1.7-1.7v-1.6c0-1,0.8-1.7,1.7-1.7h23.7c1,0,1.7,0.8,1.7,1.7v1.6C-69.8-135.5-70.5-134.7-71.5-134.7z"/>
<circle class="st4" cx="-157.7" cy="-148.5" r="23"/>
<path class="st24" d="M-146.9-160.2c0-0.4,0.3-0.8,0.8-0.8c0.4,0,0.8,0.3,0.8,0.8s-0.3,0.8-0.8,0.8
	C-146.6-159.4-146.9-159.8-146.9-160.2z M-150.4-162.9c2.2-0.4,3.7-0.1,4.3,0.8c0.2,0.3,0.2,0.7,0.2,1.2 M-146.5-159.5
	c-1.2,2.2-4.4,5-8.4,7.3c-6,3.5-11.9,4.7-13,2.6c-0.5-0.9,0-2.4,1.4-4.1 M-147.6-156.2c0,5.3-4.3,9.6-9.6,9.6
	c-5.3,0-9.6-4.3-9.6-9.6c0-5.3,4.3-9.6,9.6-9.6C-152-165.8-147.6-161.5-147.6-156.2z M-164.4-131.3l-5.4-5.4c-0.2-0.2-0.2-0.4,0-0.6
	l1.7-1.7c0.2-0.2,0.4-0.2,0.6,0l5.4,5.4c0.2,0.2,0.2,0.4,0,0.6l-1.7,1.7C-164-131.2-164.3-131.2-164.4-131.3z M-162.4-134.2l8.7-2.1
	c0.7-0.2,1.4-0.5,1.9-1.1l5.9-5.9c0.2-0.2,0.2-0.5,0-0.7c-0.7-0.7-1.9-0.7-2.6,0l-4,4 M-167-138.5l2.6-2.6c0.7-0.7,1.8-1.2,2.8-1.2
	h6.3c0.3,0,0.5,0.2,0.5,0.5c0,1-0.8,1.8-1.8,1.8 M-160.1-139.9h7.6 M-151.9-143.9l-0.4-0.4c-0.7-0.7-1.9-0.7-2.6,0l-2,2
	 M-148.7-143.7l-0.4-0.4c-0.7-0.7-1.9-0.7-2.6,0l-4.2,4.2"/>
<g>
	<g>
		<path class="st6" d="M-72-41.8c-13.1,0-23.8-10.7-23.8-23.8c0-13.1,10.7-23.8,23.8-23.8s23.8,10.7,23.8,23.8
			C-48.2-52.5-58.8-41.8-72-41.8z M-72-87.7c-12.2,0-22.1,9.9-22.1,22.1c0,12.2,9.9,22.1,22.1,22.1s22.1-9.9,22.1-22.1
			C-49.8-77.8-59.8-87.7-72-87.7z"/>
	</g>
	<path class="st25" d="M-70.7-58.9c-0.4,0-0.8,0-1.2,0c-3.4,0-6.5-0.3-8.9-0.8c-1.3-0.3-2.3-0.6-3-1l0,5.3c0,0.2,0.6,0.8,3.2,1.4
		c2.3,0.5,5.4,0.8,8.7,0.8c0.6,0,1.1,0,1.7,0c-0.3-0.7-0.5-1.5-0.5-2.4V-58.9z"/>
	<path class="st25" d="M-65.1-63.9c0.8,0.4,2.7,1.3,5,1.4l0-5.1c-2.5,1.4-8.4,1.9-11.9,1.9c-3.5,0-9.4-0.4-11.9-1.8l0,5.3
		c0,0.2,0.6,0.8,3.2,1.4c2.3,0.5,5.4,0.8,8.7,0.8c0.4,0,0.8,0,1.2,0v-2.4C-68.1-62.5-66-63.4-65.1-63.9z"/>
	<path class="st25" d="M-80.7-73.4c2.3,0.5,5.4,0.8,8.7,0.8c3.3,0,6.4-0.3,8.7-0.8c2.6-0.6,3.2-1.2,3.2-1.4v0c0,0,0,0,0,0
		c0-0.2-0.6-0.8-3.2-1.4c-2.3-0.5-5.4-0.8-8.7-0.8c-7.7,0-11.9,1.5-11.9,2.3v0C-83.9-74.6-83.3-74-80.7-73.4z"/>
	<path class="st25" d="M-63.1-72.4c-2.4,0.5-5.6,0.9-8.9,0.9c-3.3,0-6.5-0.3-8.9-0.8c-1.3-0.3-2.3-0.6-3-1l0,4.4
		c0,0.8,4.2,2.2,11.9,2.2c7.7,0,11.9-1.5,11.9-2.3l0-4.4C-60.8-73-61.8-72.7-63.1-72.4z"/>
	<path class="st26" d="M-58.9-55.4l0-5.9c0-0.1-0.1-0.3-0.1-0.4c0.1-0.2,0.1-0.4,0.1-0.6l0-5.9c0-0.1-0.1-0.3-0.1-0.4
		c0.1-0.2,0.1-0.4,0.1-0.6l0-5.9c0,0,0,0,0,0c0-1.1-1.3-1.9-4.1-2.5c-2.4-0.5-5.5-0.8-8.9-0.8l0,0.6l0-0.6c-4.5,0-13,0.8-13,3.4
		c0,0,0,0,0,0l0,5.9c0,0.2,0.1,0.4,0.1,0.6C-85-68.3-85-68.1-85-68l0,5.9c0,0.2,0,0.4,0.1,0.6c-0.1,0.1-0.1,0.2-0.1,0.4l0,5.9
		c0,1.1,1.3,1.9,4.1,2.5c2.3,0.5,5.4,0.8,8.7,0.8c0.1,0,0.2,0,0.3,0c0.7,0,1.5,0,2.3-0.1c-0.2-0.3-0.4-0.7-0.6-1.1
		c-0.5,0-1.1,0-1.7,0c-3.3,0-6.4-0.3-8.7-0.8c-2.6-0.6-3.2-1.2-3.2-1.4l0-5.3c0.7,0.4,1.7,0.7,3,1c2.4,0.5,5.5,0.8,8.9,0.8
		c0.4,0,0.8,0,1.2,0V-60c-0.4,0-0.8,0-1.2,0c-3.3,0-6.4-0.3-8.7-0.8c-2.6-0.6-3.2-1.2-3.2-1.4l0-5.3c2.5,1.4,8.4,1.8,11.9,1.8
		c3.5,0,9.4-0.5,11.9-1.9l0,5.1c0.2,0,0.4,0,0.6,0v6.8c0,0.5-0.1,1-0.2,1.4C-59.2-54.6-58.9-55-58.9-55.4z M-83.9-74.8
		c0-0.8,4.2-2.2,11.9-2.3c3.3,0,6.4,0.3,8.7,0.8c2.6,0.6,3.2,1.2,3.2,1.4c0,0,0,0,0,0v0c0,0.2-0.6,0.8-3.2,1.4
		c-2.3,0.5-5.4,0.8-8.7,0.8c-3.3,0-6.4-0.3-8.7-0.8C-83.3-74-83.9-74.6-83.9-74.8L-83.9-74.8z M-72-66.8c-7.7,0-11.9-1.4-11.9-2.2
		l0-4.4c0.7,0.4,1.7,0.7,3,1c2.4,0.5,5.6,0.8,8.9,0.8c3.4,0,6.5-0.3,8.9-0.9c1.3-0.3,2.3-0.6,3-1l0,4.4
		C-60.1-68.3-64.3-66.8-72-66.8z"/>
	<path class="st8" d="M-65.1-48.5c-1.2-0.5-5.6-2.7-5.6-7.1v-6.8c2.6-0.1,4.7-1,5.6-1.5c0.9,0.5,3,1.4,5.6,1.5v6.8
		C-59.5-51.2-63.9-49-65.1-48.5z"/>
	<path class="st8" d="M-62.7-53.6h-4.8v-3.5h4.8V-53.6z M-66.6-57.1v-1.4c0-0.8,0.7-1.5,1.5-1.5c0.8,0,1.5,0.7,1.5,1.5v1.4"/>
</g>
<g>
	<path class="st1" d="M-178.1-15.7C-191.3-15.7-202-5-202,8.1s10.7,23.8,23.8,23.8c13.1,0,23.8-10.7,23.8-23.8S-165-15.7-178.1-15.7
		z M-178.1,30.3c-12.2,0-22.1-9.9-22.1-22.1s9.9-22.1,22.1-22.1c12.2,0,22.1,9.9,22.1,22.1S-165.9,30.3-178.1,30.3z"/>
	<path class="st1" d="M-187.6,12.1c-0.3-0.1-0.6,0.1-0.7,0.4l-0.9,4.1c-1.7-2-2.8-4.3-3.2-6.9c-0.6-3.7,0.3-7.3,2.5-10.3
		c2.2-3,5.4-4.9,9.1-5.5c1.8-0.3,3.7-0.2,5.5,0.2c0.3,0.1,0.6-0.1,0.7-0.4c0.1-0.3-0.1-0.6-0.4-0.7c-2-0.5-4-0.6-5.9-0.3
		c-4,0.6-7.4,2.7-9.8,6s-3.3,7.2-2.7,11.1c0.4,2.7,1.6,5.2,3.3,7.3l-3.8-0.8c-0.3-0.1-0.6,0.1-0.7,0.4c-0.1,0.3,0.1,0.6,0.4,0.7
		l5.1,1.1c0,0,0.1,0,0.1,0c0.2,0,0.4-0.1,0.5-0.3c0.1-0.1,0.2-0.2,0.2-0.3l1.1-5.1C-187.1,12.5-187.3,12.2-187.6,12.1z"/>
	<path class="st1" d="M-162.4-1.7l-5.1-0.9c-0.3,0-0.5,0.1-0.6,0.3c-0.1,0.1-0.2,0.2-0.2,0.3l-1,5.1c-0.1,0.3,0.1,0.6,0.5,0.7
		c0.3,0.1,0.6-0.1,0.7-0.5l0.8-4.1c1.8,1.9,2.9,4.2,3.4,6.8c0.7,3.6-0.1,7.3-2.1,10.4c-2.1,3.1-5.2,5.1-8.9,5.8
		c-1.6,0.3-3.2,0.3-4.7,0.1l9.2-15.5c0.1-0.2,0.1-0.4,0-0.6c-0.1-0.2-0.3-0.3-0.5-0.3h-6.9l1.1-8.3c0-0.3-0.1-0.5-0.4-0.6
		c-0.3-0.1-0.5,0-0.7,0.2l-8.3,14.2c-0.1,0.2-0.1,0.4,0,0.6c0.1,0.2,0.3,0.3,0.5,0.3h5.8l-0.8,6.4c0,0.3,0.2,0.6,0.5,0.6
		c0.3,0,0.6-0.2,0.6-0.5l0.9-7c0-0.2,0-0.3-0.1-0.4c-0.1-0.1-0.3-0.2-0.4-0.2h-5.4l6.4-10.9l-0.8,6.2c0,0.2,0,0.3,0.1,0.4
		c0.1,0.1,0.3,0.2,0.4,0.2h6.5l-9.1,15.3c0,0.1,0,0.1-0.1,0.2c0,0,0,0.1-0.1,0.1c-0.1,0.3,0.1,0.6,0.4,0.7c1,0.2,2.1,0.3,3.1,0.3
		c0.9,0,1.9-0.1,2.8-0.3c8.1-1.5,13.5-9.4,11.9-17.5c-0.5-2.7-1.7-5.2-3.5-7.2l3.8,0.7c0.3,0.1,0.6-0.1,0.7-0.5
		C-161.9-1.4-162.1-1.7-162.4-1.7z"/>
</g>
<g>
	<path class="st1" d="M-114.6,30.8c-13.1,0-23.8-10.7-23.8-23.8c0-13.1,10.7-23.8,23.8-23.8S-90.8-6.1-90.8,7
		C-90.8,20.2-101.5,30.8-114.6,30.8z M-114.6-15.1c-12.2,0-22.1,9.9-22.1,22.1c0,12.2,9.9,22.1,22.1,22.1S-92.5,19.2-92.5,7
		C-92.5-5.2-102.4-15.1-114.6-15.1z"/>
</g>
<g>
	<path class="st1" d="M-115.9,19.2c-1.1,0-2-0.9-2-1.9c0,0,0,0,0,0v-0.7h-6.2c-4.1,0-7.5-3.2-7.5-7.1c0-2.6,1.5-5,3.9-6.2
		c0-0.1,0-0.2,0-0.3c0-2.7,2.3-4.8,5.1-4.8c0.8,0,1.6,0.2,2.3,0.5c1.9-2.4,4.8-3.8,7.9-3.8c5.2,0,9.5,3.9,9.9,8.8
		c2.9,0.8,4.9,3.4,4.9,6.4c0,3.7-3.1,6.6-7,6.6l-6.5,0c-0.3,0-0.6-0.3-0.6-0.6V9.4c0-0.3,0.3-0.6,0.6-0.6h2.7l-5.9-5.4l-5.8,5.4h2.8
		c0.3,0,0.6,0.3,0.6,0.6v6.1h0.9c0,0,0.1,0,0.1,0c1,0.1,1.8,0.9,1.8,1.9C-113.9,18.4-114.8,19.2-115.9,19.2z M-116.7,17.4
		c0,0.4,0.4,0.8,0.9,0.8c0.5,0,0.9-0.4,0.9-0.8c0-0.4-0.4-0.8-0.9-0.8h-0.9L-116.7,17.4C-116.7,17.3-116.7,17.4-116.7,17.4z
		 M-110.5,15.4l6,0c3.2,0,5.8-2.5,5.8-5.5c0-2.5-1.8-4.7-4.4-5.3c-0.3,0-0.5-0.3-0.5-0.5c0,0,0,0,0,0c-0.1-4.5-4-8.1-8.8-8.1
		c-2.9,0-5.7,1.4-7.3,3.7c0,0.1-0.1,0.1-0.1,0.1c0,0,0,0,0,0s0,0,0,0h0c0,0,0,0,0,0c-0.1,0-0.1,0.1-0.2,0.1l0,0c0,0,0,0,0,0
		c-0.1,0-0.2,0-0.3,0c0,0,0,0,0,0l0,0c-0.1,0-0.1,0-0.2-0.1c-0.7-0.4-1.4-0.6-2.2-0.6c-2.2,0-3.9,1.7-3.9,3.7c0,0.2,0,0.4,0,0.6
		c0,0,0,0.1,0,0.1c0,0.1,0,0.2-0.1,0.2c0,0.1-0.1,0.1-0.2,0.2c0,0-0.1,0-0.1,0.1c-2.2,1-3.6,3.1-3.6,5.4c0,3.3,2.8,6,6.4,6h6.2V9.9
		h-3.7c-0.2,0-0.4-0.1-0.5-0.4c-0.1-0.2,0-0.5,0.1-0.6l7.3-6.7c0.2-0.2,0.6-0.2,0.8,0l7.3,6.8c0.2,0.2,0.2,0.4,0.1,0.6
		c-0.1,0.2-0.3,0.4-0.5,0.4h-3.6V15.4z"/>
</g>
<g>
	<path class="st1" d="M-40.1,44.8c-13.1,0-23.8-10.7-23.8-23.8c0-13.1,10.7-23.8,23.8-23.8c13.1,0,23.8,10.7,23.8,23.8
		C-16.3,34.1-26.9,44.8-40.1,44.8z M-40.1-1.1c-12.2,0-22.1,9.9-22.1,22.1c0,12.2,9.9,22.1,22.1,22.1C-27.9,43.1-18,33.2-18,21
		C-18,8.8-27.9-1.1-40.1-1.1z"/>
</g>
<g>
	<path class="st1" d="M-29.3,33.3C-29.3,33.3-29.3,33.3-29.3,33.3l-21,0c-4.4,0-8-3.6-8-8c0-2.9,1.6-5.6,4.2-7c0-0.1,0-0.3,0-0.4
		c0-3,2.4-5.4,5.4-5.4c0.9,0,1.8,0.2,2.5,0.6c2-2.7,5.1-4.3,8.5-4.3c5.6,0,10.2,4.4,10.6,9.9c3.1,0.9,5.3,3.8,5.3,7.1
		C-21.8,29.9-25.2,33.3-29.3,33.3z M-50.3,32.1h21c0,0,0,0,0.1,0c3.5,0,6.3-2.9,6.3-6.3c0-3.5-2.8-6.3-6.3-6.3
		c-0.3,0-0.6-0.3-0.6-0.6s0.3-0.6,0.6-0.6c0.3,0,0.7,0,1,0.1c-0.5-4.8-4.5-8.6-9.4-8.6c-3,0-5.8,1.4-7.6,3.8
		c0.6,0.5,1.1,1.1,1.4,1.8c0.1,0.3,0,0.6-0.3,0.8c-0.3,0.1-0.6,0-0.8-0.3c-0.7-1.5-2.2-2.4-3.8-2.4c-2.4,0-4.3,1.9-4.3,4.3
		c0,0.2,0,0.4,0,0.6c0,0,0,0.1,0,0.1c0,0.1,0,0.2-0.1,0.2c0,0.1-0.1,0.1-0.2,0.2c0,0-0.1,0-0.1,0.1c-2.4,1.1-3.9,3.6-3.9,6.2
		C-57.2,29-54.1,32.1-50.3,32.1z M-35.6,28.7h-7.7c-0.3,0-0.6-0.3-0.6-0.6v-5.6c0-0.3,0.3-0.6,0.6-0.6h0.9v-1.6
		c0-1.6,1.3-2.9,2.9-2.9c1.6,0,2.9,1.3,2.9,2.9v1.6h1c0.3,0,0.6,0.3,0.6,0.6v5.6C-35.1,28.4-35.3,28.7-35.6,28.7z M-42.8,27.5h6.6
		v-4.5h-6.6V27.5z M-41.3,21.9h3.6v-1.6c0-1-0.8-1.8-1.8-1.8c-1,0-1.8,0.8-1.8,1.8V21.9z"/>
</g>
<g>
	<path class="st1" d="M23.8,47.6C10.7,47.6,0,36.9,0,23.8C0,10.7,10.7,0,23.8,0c13.1,0,23.8,10.7,23.8,23.8
		C47.6,36.9,36.9,47.6,23.8,47.6z M23.8,1.7c-12.2,0-22.1,9.9-22.1,22.1c0,12.2,9.9,22.1,22.1,22.1c12.2,0,22.1-9.9,22.1-22.1
		C45.9,11.6,36,1.7,23.8,1.7z"/>
</g>
<g>
	<path class="st1" d="M34.6,36.1C34.6,36.1,34.6,36.1,34.6,36.1l-21,0c-4.4,0-8-3.6-8-8c0-2.9,1.6-5.6,4.2-7c0-0.1,0-0.3,0-0.4
		c0-3,2.4-5.4,5.4-5.4c0.9,0,1.8,0.2,2.5,0.6c2-2.7,5.1-4.3,8.5-4.3c5.6,0,10.2,4.4,10.6,9.9c3.1,0.9,5.3,3.8,5.3,7.1
		C42,32.7,38.7,36.1,34.6,36.1z M13.6,34.9h21c0,0,0,0,0.1,0c3.5,0,6.3-2.9,6.3-6.3c0-3.5-2.8-6.3-6.3-6.3c-0.3,0-0.6-0.3-0.6-0.6
		s0.3-0.6,0.6-0.6c0.3,0,0.7,0,1,0.1c-0.5-4.8-4.5-8.6-9.4-8.6c-3,0-5.8,1.4-7.6,3.8c0.6,0.5,1.1,1.1,1.4,1.8c0.1,0.3,0,0.6-0.3,0.8
		c-0.3,0.1-0.6,0-0.8-0.3c-0.7-1.5-2.2-2.4-3.8-2.4c-2.4,0-4.3,1.9-4.3,4.3c0,0.2,0,0.4,0,0.6c0,0,0,0.1,0,0.1c0,0.1,0,0.2-0.1,0.2
		c0,0.1-0.1,0.1-0.2,0.2c0,0-0.1,0-0.1,0.1c-2.4,1.1-3.9,3.6-3.9,6.2C6.7,31.9,9.8,34.9,13.6,34.9z M28.9,30.8c-0.1,0-0.3,0-0.4,0
		C26,30.5,24,28.4,24,25.8c0-2.7,2.2-4.9,4.9-4.9s4.9,2.2,4.9,4.9c0,2.6-2,4.7-4.5,4.9C29.1,30.7,29,30.8,28.9,30.8z M28.7,29.6
		c0.1,0,0.2,0,0.3,0c0.4-0.2,1-1.3,1.1-3.2h-2.5C27.7,28.3,28.3,29.4,28.7,29.6z M25.1,26.4c0.2,1.2,0.9,2.2,1.9,2.7
		c-0.3-0.8-0.5-1.7-0.6-2.7H25.1z M31.3,26.4c-0.1,1-0.2,2-0.6,2.7c1-0.6,1.7-1.6,1.9-2.7H31.3z M31.3,25.2h1.4
		c-0.2-1.2-0.9-2.2-1.9-2.8C31,23.3,31.2,24.2,31.3,25.2z M27.6,25.2h2.5C30,23.2,29.3,22,28.9,22S27.7,23.2,27.6,25.2z M25.1,25.2
		h1.4c0.1-1,0.2-2,0.6-2.8C26.1,23,25.3,24.1,25.1,25.2z M21.3,30.4h-6.2c-0.3,0-0.6-0.3-0.6-0.6v-4.5c0-0.3,0.3-0.6,0.6-0.6h0.6
		v-1.2c0-1.3,1.1-2.4,2.4-2.4c1.4,0,2.4,1.1,2.4,2.4v1.2h0.7c0.3,0,0.6,0.3,0.6,0.6v4.5C21.9,30.2,21.6,30.4,21.3,30.4z M15.7,29.3
		h5V26h-5V29.3z M16.9,24.8h2.6v-1.2c0-0.7-0.6-1.3-1.3-1.3c-0.7,0-1.3,0.6-1.3,1.3V24.8z"/>
</g>
</svg>
