<?xml version="1.0" encoding="utf-8"?>
<!-- Generator: Adobe Illustrator 21.1.0, SVG Export Plug-In . SVG Version: 6.00 Build 0)  -->
<svg version="1.1" id="Layer_1" xmlns="http://www.w3.org/2000/svg" xmlns:xlink="http://www.w3.org/1999/xlink" x="0px" y="0px"
	 viewBox="0 0 29 19.9" style="enable-background:new 0 0 29 19.9;" xml:space="preserve">
<style type="text/css">
	.st0{fill:#FFFFFF;}
</style>
<g id="b5r0dH.tif_3_">
	<g>
		<path class="st0" d="M-13.4,37.9c0,2.4,0,4.9,0,7.3c0,0.1,0,0.2,0,0.3c-2.6,0-5.1,0-7.6,0c0-2.5,0-5.1,0-7.6
			C-18.5,37.9-15.9,37.9-13.4,37.9z"/>
		<path class="st0" d="M-5,37.9c0,2.4,0,4.9,0,7.3c0,0.1,0,0.2,0,0.3c-2.5,0-5.1,0-7.6,0c0-2.5,0-5.1,0-7.6
			C-10.1,37.9-7.5,37.9-5,37.9z"/>
		<path class="st0" d="M-21,46.3c2.5,0,5.1,0,7.6,0c0,2.5,0,5.1,0,7.6c-2.5,0-5.1,0-7.6,0C-21,51.4-21,48.9-21,46.3z"/>
		<path class="st0" d="M-5,54c-2.5,0-5.1,0-7.6,0c0-2.5,0-5.1,0-7.6c2.5,0,5,0,7.6,0C-5,48.9-5,51.4-5,54z"/>
		<path class="st0" d="M1.4,43.1c0,2.5,0,5.1,0,7.6c-0.5,0-1,0-1.4,0c0,0-0.1-0.1-0.1-0.1c0,0,0-0.1,0-0.2c0-3,0-6,0-9.1
			c0-0.1,0-0.2,0-0.3c0.2,0,0.4,0,0.5,0c0.5,0,1.1,0,1.6,0c0.1,0,0.2,0,0.3,0.2c0.9,2.3,1.8,4.7,2.7,7c0,0,0,0.1,0,0.1
			c0.3-0.7,0.6-1.4,0.8-2.2c0.7-1.6,1.3-3.2,2-4.8c0.1-0.2,0.1-0.2,0.3-0.2c0.7,0,1.3,0,2,0c0,3.2,0,6.4,0,9.6c-0.5,0-1,0-1.5,0
			c0,0-0.1-0.1-0.1-0.1c0-0.1,0-0.1,0-0.2c0-1.9,0-3.9,0-5.8c0-0.5,0-1.1,0.1-1.5c-1,2.4-2,4.9-3,7.4c-0.1,0.1-0.1,0.2-0.3,0.2
			c-0.2,0-0.5,0-0.7,0c-0.1,0-0.2-0.1-0.2-0.1c-0.9-2.3-1.9-4.5-2.8-6.8C1.5,43.6,1.4,43.4,1.4,43.1z"/>
		<path class="st0" d="M52.3,41.8c0,0.7,0,1.4,0,2.1c0.5,0,1.1,0,1.6,0c0,0.5,0,0.9,0,1.3c-0.5,0-1.1,0-1.6,0c0,0.1,0,0.1,0,0.2
			c0,1.1,0,2.1,0,3.2c0,0.9,0.6,1.3,1.5,0.8c0,0,0.1,0,0.1-0.1c0,0.1,0,0.1,0,0.2c0,0.3,0,0.5,0,0.8c0,0.4,0,0.5-0.4,0.5
			c-0.4,0.1-0.8,0.1-1.2,0.1c-1-0.1-1.6-0.8-1.6-1.8c0-1.2,0-2.4,0-3.6c0-0.1,0-0.2,0-0.3c-0.8,0-1.6,0-2.4,0c0,1.8,0,3.7,0,5.5
			c-0.6,0-1.1,0-1.7,0c0-1.8,0-3.7,0-5.5c-0.4,0-0.7,0-1.1,0c0-0.5,0-0.9,0-1.3c0.4,0,0.7,0,1.1,0c0-0.1,0-0.2,0-0.3
			c0-0.4,0-0.9,0.1-1.3c0.3-1.1,1.3-1.9,2.5-1.8c0.2,0,0.5,0.1,0.7,0.1c0.1,0,0.1,0.1,0.1,0.1c0,0.4,0,0.9,0,1.3
			c-0.2-0.1-0.4-0.1-0.7-0.1c-0.6-0.1-1.1,0.3-1.1,1c0,0.3,0,0.7,0,1c0.1,0,0.1,0,0.2,0c0.7,0,1.3,0,2,0c0.2,0,0.2,0,0.2-0.2
			c0-0.4,0-0.8,0-1.1c0-0.1,0-0.2,0.2-0.3C51.4,42.1,51.8,42,52.3,41.8z"/>
		<path class="st0" d="M41.8,50.9c-0.9,0-1.8-0.2-2.4-0.9c-0.6-0.6-0.9-1.3-1-2.1c-0.1-0.8,0-1.5,0.3-2.2c0.5-1.2,1.4-1.8,2.6-2
			c0.6-0.1,1.2-0.1,1.8,0.1c1.1,0.3,1.8,0.9,2.2,2c0.3,1,0.3,1.9,0,2.9c-0.4,1.3-1.6,2.1-3,2.2C42,50.9,41.9,50.9,41.8,50.9z
			 M39.9,47.3C39.9,47.3,40,47.3,39.9,47.3c0.1,0.1,0.1,0.2,0.1,0.3c0.1,1.2,0.7,2.1,2.1,1.9c0.7-0.1,1.2-0.4,1.4-1.1
			c0.2-0.7,0.2-1.4,0-2.1c-0.2-0.7-0.8-1.2-1.5-1.2c-0.9,0-1.6,0.3-1.8,1.1C40,46.5,40,46.9,39.9,47.3z"/>
		<path class="st0" d="M28.6,50.9c-0.7,0-1.3-0.1-1.9-0.5c-0.9-0.6-1.4-1.4-1.5-2.5c-0.1-0.7,0-1.4,0.2-2.1c0.5-1.2,1.4-1.9,2.7-2.1
			c0.6-0.1,1.2-0.1,1.8,0.1c1.1,0.3,1.8,1,2.1,2c0.3,1.1,0.3,2.2-0.2,3.3c-0.5,1-1.3,1.5-2.4,1.7C29.1,50.9,28.9,50.9,28.6,50.9z
			 M30.6,47.3c0-0.2,0-0.5-0.1-0.7c-0.1-0.9-0.8-1.5-1.6-1.5c-1,0-1.7,0.4-2,1.4c-0.1,0.4-0.1,0.9-0.1,1.3c0.1,1.3,1.1,2.1,2.4,1.8
			c0.4-0.1,0.8-0.4,1-0.8C30.5,48.3,30.5,47.8,30.6,47.3z"/>
		<path class="st0" d="M33,48.9c0.5,0.3,0.9,0.6,1.5,0.6c0.3,0,0.7,0,1,0c0.2,0,0.4-0.2,0.5-0.5c0-0.3,0-0.5-0.2-0.7
			c-0.3-0.2-0.6-0.3-0.9-0.5c-0.2-0.1-0.5-0.2-0.7-0.4c-1.3-0.7-1.3-2.6-0.1-3.4c0.7-0.4,1.4-0.5,2.2-0.5c0.3,0,0.7,0.1,1,0.2
			c0.1,0,0.2,0.1,0.2,0.3c0,0.4,0,0.8,0,1.3c-0.1,0-0.1-0.1-0.2-0.1c-0.5-0.3-1-0.4-1.6-0.4c-0.4,0-0.7,0.2-0.8,0.5
			c-0.1,0.4,0.1,0.6,0.4,0.8c0.3,0.2,0.7,0.3,1.1,0.5c0.5,0.2,1,0.5,1.3,1.1c0.4,0.9,0.1,2-0.8,2.5c-0.7,0.4-1.5,0.5-2.3,0.4
			c-0.4,0-0.8-0.2-1.2-0.3c-0.1,0-0.2-0.1-0.2-0.3C33,49.9,33,49.4,33,48.9z"/>
		<path class="st0" d="M19.9,49c0,0.4,0,0.9,0,1.4c0,0.1-0.1,0.1-0.1,0.2c-0.4,0.1-0.8,0.3-1.2,0.4c-1.1,0.1-2.1,0-3-0.8
			c-0.6-0.5-0.9-1.2-1-1.9c-0.1-0.9,0-1.8,0.4-2.6c0.5-1,1.4-1.6,2.6-1.8c0.7-0.1,1.4,0,2.1,0.2c0.2,0.1,0.3,0.2,0.3,0.4
			c0,0.4,0,0.9,0,1.3c-0.1-0.1-0.2-0.1-0.2-0.1c-0.5-0.4-1.1-0.5-1.8-0.4c-1,0.2-1.7,0.9-1.7,1.9c0,0.5,0,0.9,0.2,1.3
			c0.4,1,1.4,1.4,2.5,1.1C19.2,49.4,19.5,49.2,19.9,49z"/>
		<path class="st0" d="M22.7,50.8c-0.6,0-1.1,0-1.6,0c0-2.3,0-4.6,0-6.9c0.5,0,1.1,0,1.6,0c0,0.3,0,0.7,0,1.1
			c0.1-0.2,0.2-0.4,0.4-0.6c0.4-0.6,1.2-0.8,1.9-0.6c0.1,0,0.1,0.1,0.1,0.2c0,0.5,0,1,0,1.5c-0.2-0.1-0.5-0.2-0.7-0.2
			c-0.6-0.1-1.1,0.1-1.4,0.7c-0.2,0.4-0.3,0.8-0.3,1.2c0,1.1,0,2.2,0,3.3C22.7,50.6,22.7,50.6,22.7,50.8z"/>
		<path class="st0" d="M11.8,43.9c0.5,0,1.1,0,1.6,0c0,0.1,0,0.2,0,0.2c0,2.1,0,4.3,0,6.4c0,0.2,0,0.3-0.2,0.3c-0.5,0-0.9,0-1.4,0
			C11.8,48.5,11.8,46.2,11.8,43.9z"/>
		<path class="st0" d="M12.6,42.8c-0.6,0-1-0.4-1-0.9c0-0.5,0.4-0.9,1-1c0.6,0,1,0.4,1,0.9C13.6,42.4,13.1,42.8,12.6,42.8z"/>
	</g>
</g>
<g id="yJhEgH.tif_1_">
	<g>
		<path class="st0" d="M4,11c0.1-0.4,0.2-0.8,0.3-1.1c0.3-1.1,1.2-2.4,2.1-3.1c0.1,0.3,0,0.6-0.2,0.8c-0.7,0.9-1.1,1.9-1.2,3
			c-0.2,2,0.8,3.5,2.8,4.3c1.2,0.5,2.4,0.6,3.7,0.7c3.7,0.1,7.3-0.6,10.6-2.3c0,0,0.1,0,0.2-0.1c0,0.5,0,1,0,1.5
			c0,0.1-0.1,0.2-0.2,0.3c-2,1-4.2,1.6-6.4,1.9c-1.7,0.2-3.5,0.3-5.2,0.1C8.7,16.7,7,16.3,5.6,15c-0.8-0.8-1.3-1.7-1.5-2.9
			c0-0.1,0-0.2-0.1-0.2C4,11.6,4,11.3,4,11z"/>
		<path class="st0" d="M22.7,12.3c0-0.4,0-0.7,0-1c0-0.1,0.1-0.2,0.2-0.3c0.4-0.4,0.9-0.7,1.2-1.2c1.3-1.8,0.8-4-1.1-5.2
			c-1.1-0.7-2.3-0.9-3.5-1.1c-3.6-0.3-7,0.5-10.2,1.9C9.2,5.5,9.1,5.5,9,5.6c0,0-0.1,0-0.1,0C8.8,5.3,8.9,5.2,9.1,5
			c2.1-1.2,4.4-1.9,6.7-2.3C18,2.5,20,2.5,22.1,3.1c1.1,0.3,2.2,0.9,3,1.8c1.4,1.7,1.3,4.2-0.4,6c-0.4,0.5-1,0.8-1.5,1.2
			C23.1,12.2,22.9,12.2,22.7,12.3z"/>
		<path class="st0" d="M20.2,10.4c-1,0-1.9,0-2.9,0c0,0.4,0.1,0.7,0.5,0.8c0.5,0.3,1.1,0.1,1.5-0.3c0.2,0.2,0.5,0.4,0.7,0.7
			c-0.7,0.7-1.5,0.8-2.3,0.7c-0.8-0.2-1.3-0.7-1.5-1.5c-0.1-0.6-0.1-1.2,0.1-1.8c0.3-0.9,1.2-1.4,2.2-1.2c0.8,0.1,1.5,0.8,1.6,1.7
			C20.1,9.8,20.2,10.1,20.2,10.4z M18.9,9.6c0-0.5-0.3-0.8-0.7-0.8c-0.5,0-0.8,0.3-0.9,0.8C17.9,9.6,18.4,9.6,18.9,9.6z"/>
		<path class="st0" d="M10.5,8.8c0,1.2,0,2.3,0,3.5c-0.4,0-0.7,0-1.1,0c0-1.5,0-2.9,0-4.4c0.9,0,1.8,0,2.7,0C12.6,7.9,13,8.4,13,9
			c0,1.1,0,2.2,0,3.3c-0.4,0-0.7,0-1.1,0c0-0.2,0-0.3,0-0.5c0-0.8,0-1.7,0-2.5c0-0.3-0.1-0.5-0.5-0.5C11.2,8.8,10.9,8.8,10.5,8.8z"
			/>
		<path class="st0" d="M15.9,11.4c0,0.3,0,0.6,0,0.9c-0.4,0-0.8,0-1.2-0.1c-0.4-0.1-0.7-0.4-0.7-0.8c0-1.6,0-3.1,0-4.7
			c0.3,0,0.7,0,1.1,0c0,0.4,0,0.8,0,1.2c0.3,0,0.5,0,0.8,0c0,0.3,0,0.6,0,0.9c-0.3,0-0.5,0-0.8,0c0,0.7,0,1.4,0,2.1
			c0,0.1,0.2,0.3,0.4,0.4C15.5,11.4,15.7,11.4,15.9,11.4z"/>
		<path class="st0" d="M21.9,12.2c-0.6,0-1-0.4-1.1-0.9c0-1.8,0-3.5,0-5.3c0.4,0,0.7,0,1.1,0C21.9,8,21.9,10.1,21.9,12.2z"/>
		<path class="st0" d="M7.3,7.9c0.4,0,0.7,0,1.1,0c0,1.5,0,2.9,0,4.4c-0.6,0-1.1-0.3-1.1-0.8c0-1.1,0-2.3-0.1-3.4
			C7.3,8,7.3,7.9,7.3,7.9z"/>
		<path class="st0" d="M7.3,6.2c0.4,0,0.7,0,1.1,0c0,0.4,0,0.7,0,1.1c-0.4,0-0.7,0-1.1,0C7.3,6.9,7.3,6.5,7.3,6.2z"/>
		<path class="st0" d="M23,7c-0.1-0.2-0.3-0.4-0.3-0.5c0-0.2,0.3-0.3,0.4-0.4c0.2,0.2,0.4,0.3,0.4,0.5c0,0.2-0.2,0.3-0.3,0.5
			C23.2,7,23.1,7,23,7z"/>
	</g>
</g>
</svg>
