<?xml version="1.0" encoding="utf-8"?>
<!-- Generator: Adobe Illustrator 21.1.0, SVG Export Plug-In . SVG Version: 6.00 Build 0)  -->
<svg version="1.1" id="Layer_1" xmlns="http://www.w3.org/2000/svg" xmlns:xlink="http://www.w3.org/1999/xlink" x="0px" y="0px"
	 viewBox="0 0 47.6 47.6" style="enable-background:new 0 0 47.6 47.6;" xml:space="preserve">
<style type="text/css">
	.st0{fill:none;stroke:#FFFFFF;stroke-width:1.6927;}
	.st1{fill:none;stroke:#FFFFFF;stroke-width:1.1285;stroke-linecap:round;stroke-linejoin:round;stroke-miterlimit:10;}
</style>
<circle class="st0" cx="23.8" cy="23.8" r="23"/>
<path class="st1" d="M11.7,22.9c-1,0.9-2.5,0.9-3.5,0c-1-0.9-1-2.5,0-3.4 M29.7,29.7c1,0.9,1,2.5,0,3.4c-1,0.9-2.5,0.9-3.5,0
	 M18.6,29.7c-1,0.9-2.5,0.9-3.5,0c-1-0.9-1-2.5,0-3.4 M36.7,22.9c1,0.9,1,2.5,0,3.4c-1,0.9-2.5,0.9-3.5,0 M26.2,37.1
	C25.7,37.7,25,38,24.2,38c-1.6,0-2.9-1.3-2.9-2.9c0-1.6,1.3-2.9,2.9-2.9c0.8,0,1.5,0.3,2.1,0.8 M29.7,29.7c-1.4-1.4-3.4-2.2-5.5-2.2
	 M33.2,26.3c-2.3-2.3-5.5-3.7-9-3.7 M36.7,22.9c-3.2-3.1-7.6-5.1-12.5-5.1s-9.3,1.9-12.5,5.1 M8.2,19.5c4.3-4.2,10-6.5,16-6.5
	s11.7,2.3,16,6.5 M18.6,29.7c1.4-1.4,3.4-2.2,5.5-2.2 M15.1,26.3c2.3-2.3,5.5-3.7,9-3.7"/>
</svg>
