<?xml version="1.0" encoding="utf-8"?>
<!-- Generator: Adobe Illustrator 21.1.0, SVG Export Plug-In . SVG Version: 6.00 Build 0)  -->
<svg version="1.1" id="Layer_1" xmlns="http://www.w3.org/2000/svg" xmlns:xlink="http://www.w3.org/1999/xlink" x="0px" y="0px"
	 viewBox="0 0 47.6 47.6" style="enable-background:new 0 0 47.6 47.6;" xml:space="preserve">
<style type="text/css">
	.st0{fill:none;stroke:#E73E51;stroke-width:1.6927;}
	.st1{fill:none;stroke:#E73E51;stroke-width:1.1285;stroke-linecap:round;stroke-linejoin:round;stroke-miterlimit:10;}
</style>
<g>
	<circle class="st0" cx="23.8" cy="23.8" r="23"/>
	<path class="st1" d="M38.7,32.8c0,1.5-1.2,2.7-2.8,2.7c-1.5,0-2.8-1.2-2.8-2.7c0-1.5,1.2-2.7,2.8-2.7
		C37.5,30.1,38.7,31.3,38.7,32.8z M26.8,32.8c0,1.5-1.2,2.7-2.8,2.7c-1.5,0-2.8-1.2-2.8-2.7c0-1.5,1.3-2.7,2.8-2.7
		C25.6,30.1,26.8,31.3,26.8,32.8z M14.8,32.8c0,1.5-1.3,2.7-2.8,2.7c-1.5,0-2.8-1.2-2.8-2.7c0-1.5,1.3-2.7,2.8-2.7
		C13.6,30.1,14.8,31.3,14.8,32.8z M24,30.1v-5.5 M12,30.1v-3.5h12h12v3.5 M26.5,15.5c0,1.3-1.1,2.4-2.5,2.4c-1.4,0-2.5-1.1-2.5-2.4
		c0-1.3,1.1-2.4,2.5-2.4C25.3,13.1,26.5,14.2,26.5,15.5z M28.3,15.3c0,2.4-4.4,9.3-4.4,9.3s-4.4-6.9-4.4-9.3c0-2.4,2-4.3,4.4-4.3
		S28.3,12.9,28.3,15.3z"/>
</g>
</svg>
