<?xml version="1.0" encoding="utf-8"?>
<!-- Generator: Adobe Illustrator 21.1.0, SVG Export Plug-In . SVG Version: 6.00 Build 0)  -->
<svg version="1.1" id="Layer_1" xmlns="http://www.w3.org/2000/svg" xmlns:xlink="http://www.w3.org/1999/xlink" x="0px" y="0px"
	 viewBox="0 0 47.6 47.6" style="enable-background:new 0 0 47.6 47.6;" xml:space="preserve">
<style type="text/css">
	.st0{fill:none;stroke:#662F8F;stroke-width:4;stroke-linecap:round;stroke-linejoin:round;stroke-miterlimit:10;}
	.st1{fill:#662F8F;}
	.st2{fill:none;stroke:#662F8F;stroke-width:2;stroke-linecap:round;stroke-linejoin:round;stroke-miterlimit:10;}
	.st3{fill:none;stroke:#FFFFFF;stroke-width:0.488;stroke-linecap:round;stroke-linejoin:round;stroke-miterlimit:10;}
	.st4{fill:none;stroke:#E73E51;stroke-width:1.6927;}
	.st5{fill:none;stroke:#E73E51;stroke-width:1.1285;stroke-linecap:round;stroke-linejoin:round;stroke-miterlimit:10;}
	.st6{fill:#E73E51;}
	
		.st7{clip-path:url(#SVGID_2_);fill:none;stroke:#E73E51;stroke-width:1.1285;stroke-linecap:round;stroke-linejoin:round;stroke-miterlimit:10;}
	.st8{fill:none;stroke:#EE4050;stroke-width:1.1285;stroke-linecap:round;stroke-linejoin:round;stroke-miterlimit:10;}
	.st9{fill:none;stroke:#FFFFFF;stroke-width:0.574;stroke-linecap:round;stroke-linejoin:round;stroke-miterlimit:10;}
	.st10{fill:none;stroke:#A491C4;stroke-width:0.5657;stroke-miterlimit:10;}
	.st11{fill:none;stroke:#F7F8F9;stroke-width:1.2708;stroke-miterlimit:10;}
	.st12{fill:url(#SVGID_3_);}
	.st13{fill:#9289C1;}
	.st14{fill:#F79F7C;}
	.st15{fill:#EF619B;}
	.st16{fill:#F28BB9;}
	.st17{fill:#FABEA9;}
	.st18{fill:#F37B8A;}
	.st19{fill:none;stroke:#633493;stroke-width:5.1599;stroke-linecap:round;stroke-linejoin:round;stroke-miterlimit:10;}
	.st20{fill:none;stroke:#FFFFFF;stroke-width:1.0098;stroke-linecap:round;stroke-linejoin:round;stroke-miterlimit:10;}
	.st21{fill:none;stroke:#662F8F;stroke-width:1.5111;stroke-linecap:round;stroke-linejoin:round;stroke-miterlimit:10;}
	.st22{fill:none;stroke:#662F8F;stroke-width:1.6611;stroke-linecap:round;stroke-linejoin:round;stroke-miterlimit:10;}
	.st23{fill:none;stroke:#662F8F;stroke-width:0.75;stroke-miterlimit:10;}
	.st24{fill:none;stroke:#E73E51;stroke-width:0.9998;stroke-linecap:round;stroke-linejoin:round;stroke-miterlimit:10;}
</style>
<g>
	<path class="st0" d="M-389.4-179.5c9.6-9.6,22.8-15.5,37.3-15.5"/>
	<path class="st0" d="M-375-165.2c5.9-5.9,14-9.5,23-9.5"/>
	<path class="st0" d="M-418.2-208.3c17.7-17.7,41.2-27.4,66.1-27.4c25,0,48.4,9.7,66.1,27.4"/>
	<path class="st0" d="M-300.3-193.9c-13.3-13.3-31.6-21.5-51.7-21.5s-38.5,8.2-51.7,21.5"/>
	<path class="st0" d="M-314.7-179.5c-9.6-9.6-22.8-15.5-37.3-15.5"/>
	<path class="st0" d="M-329.1-165.2c-5.9-5.9-14-9.5-23-9.5"/>
	<path class="st0" d="M-343.5-133.6c-2.2,2.2-5.2,3.5-8.6,3.5c-6.7,0-12.1-5.4-12.1-12.1s5.4-12.1,12.1-12.1c3.3,0,6.4,1.4,8.6,3.5"
		/>
	<path class="st0" d="M-300.3-193.9c4,4,4,10.4,0,14.4c-4,4-10.4,4-14.4,0"/>
	<path class="st0" d="M-375-165.2c-4,4-10.4,4-14.4,0c-4-4-4-10.4,0-14.4"/>
	<path class="st0" d="M-329.1-165.2c4,4,4,10.4,0,14.4c-4,4-10.4,4-14.4,0"/>
	<path class="st0" d="M-403.8-193.9c-4,4-10.4,4-14.4,0s-4-10.4,0-14.4"/>
</g>
<g>
	<path class="st1" d="M-206.3-245.4c-28.7,0-52,23.3-52,52s23.3,52,52,52s52-23.3,52-52S-177.6-245.4-206.3-245.4z M-206.3-145.1
		c-26.6,0-48.3-21.7-48.3-48.3s21.7-48.3,48.3-48.3s48.3,21.7,48.3,48.3S-179.7-145.1-206.3-145.1z"/>
	<path class="st1" d="M-169.8-199.3c-4.8-4.7-10.4-8.3-16.4-10.7c0-0.3,0.1-0.7,0.1-1c0-11.1-9-20.2-20.2-20.2s-20.2,9-20.2,20.2
		c0,0.6,0,1.1,0.1,1.7c-5.5,2.4-10.5,5.8-14.9,10.1c0,0-0.1,0.1-0.1,0.1c-1.2,1.2-1.8,2.8-1.8,4.5c0,1.7,0.7,3.4,1.9,4.6
		c2.6,2.5,6.7,2.5,9.3,0c0,0,0,0,0,0c3.2-3.1,6.8-5.6,10.8-7.4c2.3,2.5,5.2,4.5,8.5,5.5c-5,1.2-9.6,3.7-13.4,7.4
		c0,0-0.1,0.1-0.1,0.1c-1.3,1.2-1.9,2.9-1.9,4.6c0,1.7,0.7,3.4,1.9,4.6c2.6,2.5,6.7,2.5,9.3,0c0,0,0,0,0,0h0c3-2.9,7-4.5,11.3-4.5
		c4.3,0,8.3,1.6,11.3,4.5c0,0,0,0,0,0c0.8,0.8,1.2,1.8,1.2,2.8c0,1.1-0.4,2.1-1.2,2.8c-1.6,1.6-4.3,1.6-5.9,0c0,0-0.1-0.1-0.1-0.1
		c-1.4-1.3-3.3-2.1-5.3-2.1c-4.2,0-7.6,3.3-7.6,7.5c0,4.1,3.4,7.5,7.6,7.5c2,0,3.9-0.8,5.4-2.2c0.5-0.5,0.5-1.3,0-1.7
		c-0.5-0.5-1.3-0.5-1.7,0c-1,1-2.3,1.5-3.7,1.5c-2.8,0-5.2-2.2-5.2-5c0-2.8,2.3-5,5.2-5c1.4,0,2.7,0.5,3.7,1.5c0,0,0.1,0.1,0.1,0.1
		c2.6,2.4,6.7,2.4,9.2-0.1c1.3-1.2,1.9-2.9,1.9-4.6s-0.7-3.4-1.9-4.6c0,0,0,0,0,0c-3.5-3.4-8.1-5.2-13-5.2c-4.9,0-9.5,1.9-13,5.2
		c0,0,0,0,0,0c-1.6,1.6-4.3,1.6-5.9,0c-0.8-0.8-1.2-1.8-1.2-2.8c0-1,0.4-2,1.1-2.7c0,0,0.1-0.1,0.1-0.1c5-4.9,11.7-7.6,18.8-7.6
		c7.1,0,13.8,2.7,18.8,7.6c0,0,0,0,0,0c2.6,2.5,6.7,2.5,9.3,0c1.3-1.2,1.9-2.9,1.9-4.6c0-1.7-0.7-3.4-1.9-4.6c0,0,0,0,0,0
		c-3.6-3.5-7.7-6.2-12.1-8.1c1.5-2.2,2.5-4.8,3-7.5c5.5,2.3,10.6,5.7,15,9.9c0.5,0.5,1.3,0.5,1.7,0
		C-169.3-198-169.3-198.8-169.8-199.3z M-233.7-191.9C-233.7-191.9-233.7-191.9-233.7-191.9c-1.6,1.6-4.3,1.6-5.9,0
		c-0.8-0.8-1.2-1.8-1.2-2.8c0-1.1,0.4-2.1,1.2-2.8c0,0,0.1-0.1,0.1-0.1c4-3.9,8.5-6.9,13.5-9.2c0.6,2.7,1.7,5.2,3.3,7.4
		C-226.8-197.6-230.5-195-233.7-191.9z M-179.1-190.1C-179.1-190.1-179.1-190.1-179.1-190.1c0.8,0.8,1.2,1.8,1.2,2.8
		c0,1.1-0.4,2.1-1.2,2.8c-1.6,1.6-4.3,1.6-5.9,0c0,0,0,0,0,0c-4-3.9-9-6.5-14.4-7.7c3.3-1.2,6.1-3.2,8.4-5.8
		C-186.6-196.1-182.6-193.5-179.1-190.1z M-206.3-193.4c-9.8,0-17.7-7.9-17.7-17.7c0-9.8,7.9-17.7,17.7-17.7s17.7,7.9,17.7,17.7
		C-188.6-201.3-196.5-193.4-206.3-193.4z"/>
	<path class="st1" d="M-213.9-212.4h-1.9l0.1-3.7h5.6v-1.5h-7.1l-0.2,6.6h2.9c2.5,0,3.4,1.1,3.4,2.5c0,1.4-1,2.5-2.8,2.5
		c-1.3,0-2.5-0.6-3.4-1.6l-1,1c1.1,1.3,2.6,2,4.4,2c2.4,0,4.5-1.5,4.5-4.2C-209.4-210.6-210.9-212.4-213.9-212.4z"/>
	<path class="st1" d="M-200-211.5v1.5h3.9c-0.3,2.5-1.9,4.1-4.5,4.1c-2.8,0-4.9-2.1-4.9-5.1c0-3,2.2-5.1,5-5.1
		c1.6,0,2.9,0.7,3.8,1.7l1.2-1.2c-1.2-1.3-3-2.1-5-2.1c-3.9,0-6.7,2.8-6.7,6.7c0,4.2,3.2,6.7,6.6,6.7c3.9,0,6.3-3,6.3-6.7
		c0-0.1,0-0.3,0-0.4H-200z"/>
</g>
<g>
	<line class="st2" x1="-74.4" y1="-159.8" x2="-74.4" y2="-151.1"/>
	<path class="st2" d="M-88.1-151.1c-2.8,0-5.2-2.3-5.2-5.2v-77.8c0-2.8,2.3-5.2,5.2-5.2h69.9c2.8,0,5.2,2.3,5.2,5.2v77.8
		c0,2.8-2.3,5.2-5.2,5.2h-56.2"/>
	<path class="st2" d="M-74.4-159.8h-5c-2.8,0-5.2-2.3-5.2-5.2v-60.4c0-2.8,2.3-5.2,5.2-5.2h10.1c2.8,0,5.2,2.3,5.2,5.2v60.4"/>
	<g>
		<g>
			<circle class="st2" cx="-52.5" cy="-209.9" r="3.8"/>
			<circle class="st2" cx="-38.6" cy="-209.9" r="3.8"/>
			<circle class="st2" cx="-24.7" cy="-209.9" r="3.8"/>
			<circle class="st2" cx="-52.5" cy="-196" r="3.8"/>
			<circle class="st2" cx="-38.6" cy="-196" r="3.8"/>
			<circle class="st2" cx="-24.7" cy="-196" r="3.8"/>
			<circle class="st2" cx="-52.5" cy="-182.2" r="3.8"/>
			<circle class="st2" cx="-38.6" cy="-182.2" r="3.8"/>
			<circle class="st2" cx="-24.7" cy="-182.2" r="3.8"/>
			<circle class="st2" cx="-52.5" cy="-168.3" r="3.8"/>
			<circle class="st2" cx="-38.6" cy="-168.3" r="3.8"/>
			<circle class="st2" cx="-24.7" cy="-168.3" r="3.8"/>
		</g>
		<line class="st2" x1="-56.2" y1="-225.9" x2="-20.9" y2="-225.9"/>
	</g>
</g>
<g>
	<path class="st3" d="M-157.1-47.4v-1c0-2.7-2.1-4.9-4.8-5c-2.8-0.1-5.1,2.2-5.1,4.9l0,3.8h10.9c0.7,0,1.3,0.6,1.3,1.3v8.6
		c0,0.7-0.6,1.3-1.3,1.3h-2.7c-0.5,0-1-0.4-1.1-0.9l-0.8-3.2v0c0.6-0.5,0.9-1.2,0.8-2.1c-0.1-1-1-1.7-1.9-1.9
		c-1.3-0.1-2.5,0.9-2.5,2.2c0,0.7,0.3,1.3,0.8,1.7h0c0,0-0.5,2-0.8,3.2c-0.1,0.5-0.6,0.9-1.1,0.9h-2.7c-0.7,0-1.3-0.6-1.3-1.3v-8.6"
		/>
</g>
<g>
	<circle class="st4" cx="-38.8" cy="-40.1" r="23"/>
	<path class="st5" d="M-62-40.1l23.2-0.1 M-38.9-40.3v-23.1V-40.3z M-27.2-40.3c0,6.4-5.2,11.6-11.6,11.6c-6.4,0-11.7-5.2-11.7-11.6
		c0-6.4,5.2-11.6,11.7-11.6C-32.4-51.9-27.2-46.7-27.2-40.3z M-21.6-40.3c0,9.5-7.7,17.3-17.3,17.3c-9.5,0-17.3-7.7-17.3-17.3
		c0-9.5,7.7-17.3,17.3-17.3C-29.3-57.5-21.6-49.8-21.6-40.3z"/>
	<path class="st6" d="M-54.5-45.5c1.2,0,2.2-1,2.2-2.2c0-1.2-1-2.2-2.2-2.2c-1.2,0-2.2,1-2.2,2.2C-56.7-46.5-55.7-45.5-54.5-45.5"/>
</g>
<g>
	<circle class="st4" cx="-97.2" cy="-39.7" r="23"/>
	<path class="st5" d="M-86.5-47l7.1,7.2 M-86.5-47l-7.1,10.3 M-100.6-32.5l7.1-4.2 M-100.6-32.5l-7.1-9.5 M-114.7-37.1l7.1-4.9"/>
	<path class="st6" d="M-109.7-42c0-1.2,1-2.1,2.1-2.1s2.1,1,2.1,2.1c0,1.2-1,2.1-2.1,2.1S-109.7-40.9-109.7-42"/>
	<path class="st6" d="M-102.7-32.5c0-1.2,1-2.1,2.1-2.1c1.2,0,2.1,1,2.1,2.1c0,1.2-1,2.1-2.1,2.1C-101.7-30.4-102.7-31.3-102.7-32.5
		"/>
	<path class="st6" d="M-95.6-36.7c0-1.2,1-2.1,2.1-2.1c1.2,0,2.1,1,2.1,2.1c0,1.2-1,2.1-2.1,2.1C-94.7-34.6-95.6-35.5-95.6-36.7"/>
	<path class="st6" d="M-88.6-47c0-1.2,1-2.1,2.1-2.1c1.2,0,2.1,1,2.1,2.1c0,1.2-1,2.1-2.1,2.1C-87.6-44.9-88.6-45.8-88.6-47"/>
	<path class="st6" d="M-81.7-39.9c0-1.2,1-2.1,2.1-2.1c1.2,0,2.1,1,2.1,2.1c0,1.2-1,2.1-2.1,2.1C-80.7-37.8-81.7-38.7-81.7-39.9"/>
	<path class="st6" d="M-116.5-37.3c0-1.2,1-2.1,2.1-2.1c1.2,0,2.1,1,2.1,2.1c0,1.2-1,2.1-2.1,2.1C-115.6-35.2-116.5-36.1-116.5-37.3
		"/>
</g>
<g>
	<circle class="st4" cx="10.9" cy="-80.4" r="23"/>
	<g>
		<defs>
			<path id="SVGID_1_" d="M-12.9-80.6c0,12.4,9.6,22.6,21.8,23.5h3.6C24.2-58,33.6-67.4,34.3-79.2V-82c-0.7-12.4-11-22.2-23.6-22.2
				C-2.3-104.2-12.9-93.6-12.9-80.6"/>
		</defs>
		<clipPath id="SVGID_2_">
			<use xlink:href="#SVGID_1_"  style="overflow:visible;"/>
		</clipPath>
		<path class="st7" d="M33.7-49H21.6c-0.5,0-0.9-0.4-0.9-0.9v-5.2c0-0.5,0.4-0.9,0.9-0.9h12.1c0.5,0,0.9,0.4,0.9,0.9v5.2
			C34.7-49.5,34.2-49,33.7-49z M19.7-49H7.6c-0.5,0-0.9-0.4-0.9-0.9v-5.2c0-0.5,0.4-0.9,0.9-0.9h12.1c0.5,0,0.9,0.4,0.9,0.9v5.2
			C20.7-49.5,20.2-49,19.7-49z M5.8-49H-6.3c-0.5,0-0.9-0.4-0.9-0.9v-5.2c0-0.5,0.4-0.9,0.9-0.9H5.8c0.5,0,0.9,0.4,0.9,0.9v5.2
			C6.8-49.5,6.3-49,5.8-49z M-8.2-49h-12.1c-0.5,0-0.9-0.4-0.9-0.9v-5.2c0-0.5,0.4-0.9,0.9-0.9h12.1c0.5,0,0.9,0.4,0.9,0.9v5.2
			C-7.2-49.5-7.7-49-8.2-49z M41-56.1H28.9c-0.5,0-0.9-0.4-0.9-0.9v-5.2c0-0.5,0.4-0.9,0.9-0.9H41c0.5,0,0.9,0.4,0.9,0.9v5.2
			C41.9-56.5,41.5-56.1,41-56.1z M27-56.1H14.9c-0.5,0-0.9-0.4-0.9-0.9v-5.2c0-0.5,0.4-0.9,0.9-0.9H27c0.5,0,0.9,0.4,0.9,0.9v5.2
			C27.9-56.5,27.5-56.1,27-56.1z M13.1-56.1H1C0.4-56.1,0-56.5,0-57v-5.2c0-0.5,0.4-0.9,0.9-0.9h12.1c0.5,0,0.9,0.4,0.9,0.9v5.2
			C14-56.5,13.6-56.1,13.1-56.1z M-0.9-56.1H-13c-0.5,0-0.9-0.4-0.9-0.9v-5.2c0-0.5,0.4-0.9,0.9-0.9h12.1c0.5,0,0.9,0.4,0.9,0.9v5.2
			C0-56.5-0.4-56.1-0.9-56.1z M33.7-63.2H21.6c-0.5,0-0.9-0.4-0.9-0.9v-5.2c0-0.5,0.4-0.9,0.9-0.9h12.1c0.5,0,0.9,0.4,0.9,0.9v5.2
			C34.7-63.6,34.2-63.2,33.7-63.2z M19.7-63.2H7.6c-0.5,0-0.9-0.4-0.9-0.9v-5.2c0-0.5,0.4-0.9,0.9-0.9h12.1c0.5,0,0.9,0.4,0.9,0.9
			v5.2C20.7-63.6,20.2-63.2,19.7-63.2z M5.8-63.2H-6.3c-0.5,0-0.9-0.4-0.9-0.9v-5.2c0-0.5,0.4-0.9,0.9-0.9H5.8
			c0.5,0,0.9,0.4,0.9,0.9v5.2C6.8-63.6,6.3-63.2,5.8-63.2z M-8.2-63.2h-12.1c-0.5,0-0.9-0.4-0.9-0.9v-5.2c0-0.5,0.4-0.9,0.9-0.9
			h12.1c0.5,0,0.9,0.4,0.9,0.9v5.2C-7.2-63.6-7.7-63.2-8.2-63.2z M41-70.3H28.9c-0.5,0-0.9-0.4-0.9-0.9v-5.2c0-0.5,0.4-0.9,0.9-0.9
			H41c0.5,0,0.9,0.4,0.9,0.9v5.2C41.9-70.7,41.5-70.3,41-70.3z M27-70.3H14.9c-0.5,0-0.9-0.4-0.9-0.9v-5.2c0-0.5,0.4-0.9,0.9-0.9H27
			c0.5,0,0.9,0.4,0.9,0.9v5.2C27.9-70.7,27.5-70.3,27-70.3z M13.1-70.3H1c-0.5,0-0.9-0.4-0.9-0.9v-5.2c0-0.5,0.4-0.9,0.9-0.9h12.1
			c0.5,0,0.9,0.4,0.9,0.9v5.2C14-70.7,13.6-70.3,13.1-70.3z M-0.9-70.3H-13c-0.5,0-0.9-0.4-0.9-0.9v-5.2c0-0.5,0.4-0.9,0.9-0.9h12.1
			c0.5,0,0.9,0.4,0.9,0.9v5.2C0-70.7-0.4-70.3-0.9-70.3z M33.7-77.4H21.6c-0.5,0-0.9-0.4-0.9-0.9v-5.2c0-0.5,0.4-0.9,0.9-0.9h12.1
			c0.5,0,0.9,0.4,0.9,0.9v5.2C34.7-77.8,34.2-77.4,33.7-77.4z M19.7-77.4H7.6c-0.5,0-0.9-0.4-0.9-0.9v-5.2c0-0.5,0.4-0.9,0.9-0.9
			h12.1c0.5,0,0.9,0.4,0.9,0.9v5.2C20.7-77.8,20.2-77.4,19.7-77.4z M5.8-77.4H-6.3c-0.5,0-0.9-0.4-0.9-0.9v-5.2
			c0-0.5,0.4-0.9,0.9-0.9H5.8c0.5,0,0.9,0.4,0.9,0.9v5.2C6.8-77.8,6.3-77.4,5.8-77.4z M-8.2-77.4h-12.1c-0.5,0-0.9-0.4-0.9-0.9v-5.2
			c0-0.5,0.4-0.9,0.9-0.9h12.1c0.5,0,0.9,0.4,0.9,0.9v5.2C-7.2-77.8-7.7-77.4-8.2-77.4z"/>
	</g>
</g>
<circle class="st4" cx="72.8" cy="-55" r="23"/>
<path class="st8" d="M72.9-45.8c-1.2-0.5-5.6-2.7-5.6-7.1v-6.8c2.6-0.1,4.7-1,5.6-1.5c0.9,0.5,3,1.4,5.6,1.5v6.8
	C78.5-48.4,74.1-46.3,72.9-45.8z"/>
<path class="st8" d="M75.3-50.9h-4.8v-3.5h4.8V-50.9z M71.4-54.4v-1.4c0-0.8,0.7-1.5,1.5-1.5c0.8,0,1.5,0.7,1.5,1.5v1.4"/>
<path class="st8" d="M86.6-61.9l0-1.4c0-0.5-0.4-0.9-0.9-0.9l-12.3,0.1l-3.6-3.6l-8.6,0c-1,0-1.9,0.9-1.9,1.9l0.1,22.7h27.2V-61.9z"
	/>
<g>
	<circle class="st4" cx="139" cy="-50.5" r="23"/>
	<path class="st8" d="M149.5-41.8c0,1.8-1.5,3.3-3.3,3.3c-1.8,0-3.3-1.5-3.3-3.3c0-1.8,1.5-3.3,3.3-3.3
		C148-45.1,149.5-43.6,149.5-41.8z M145.4-42.7l0.8,2l1.5-3.9 M130.3-45.7h9.1 M130.3-48.5H145 M130.3-51.3H145 M130.3-54.1H145
		 M130.3-57h9.9 M130.3-59.8h9.9 M144.9-65.5h6.9v29.8h-25.2v-29.8H144.9z"/>
</g>
<circle class="st4" cx="201.8" cy="-46.1" r="23"/>
<path class="st8" d="M201.6-40.9v1.1 M201.6-51.7v7.2 M201.6-60.2l-13.9,24.2h27.9L201.6-60.2z"/>
<circle class="st4" cx="275.3" cy="-45.8" r="23"/>
<path class="st8" d="M275.3-28.4c-2.4-1-11.4-5.4-11.4-14.4v-13.7c5.3-0.1,9.6-2,11.4-3c1.8,1,6,2.8,11.4,3v13.7
	C286.7-33.8,277.7-29.4,275.3-28.4z"/>
<path class="st8" d="M280.2-38.7h-9.8v-7.1h9.8V-38.7z M272.3-45.8v-2.8c0-1.6,1.3-3,3-3c1.6,0,3,1.3,3,3v2.8"/>
<g>
	<path class="st0" d="M401.2-67.8v-5.9c0-16.5-12.9-30.4-29.4-30.8c-17.1-0.5-31.1,13.2-31.1,30.2l0,23.2h67.2
		c4.2,0,7.7,3.5,7.7,7.7V9.6c0,4.2-3.5,7.7-7.7,7.7c0,0-10.2,0-16.8,0c-3.3,0-6.2-2.3-7-5.5l-4.8-19.9l0,0c3.6-2.9,5.8-7.6,5-12.7
		c-0.9-6-5.8-10.7-11.8-11.4c-8.2-0.9-15.1,5.5-15.1,13.5c0,4.3,2,8.2,5.2,10.6l0,0c0,0-3,12.4-4.8,19.9c-0.8,3.2-3.7,5.5-7,5.5H334
		c-4.2,0-7.7-3.5-7.7-7.7v-53.1"/>
</g>
<g>
	<path class="st9" d="M276.8,21.3c1.7,0.6,3.7,0.2,5-1.1c1.4-1.4,1.7-3.3,1.1-5l-2.4,2.4c-0.3,0.3-0.8,0.3-1.1,0l-1.8-1.8
		c-0.3-0.3-0.3-0.8,0-1.1l2.4-2.4c-1.7-0.6-3.7-0.2-5,1.1c-1.4,1.4-1.7,3.3-1.1,5l-7.4,7.4c-1.7-0.6-3.7-0.2-5,1.1
		c-1.4,1.4-1.7,3.3-1.1,5l2.4-2.4c0.3-0.3,0.8-0.3,1.1,0l1.8,1.8c0.3,0.3,0.3,0.8,0,1.1l-2.4,2.4c1.7,0.6,3.7,0.2,5-1.1
		c1.4-1.4,1.7-3.3,1.1-5l2.2-2.2"/>
	<path class="st9" d="M271.6,26.5l-5.8-6.2c-1-1-2.7-1-3.7,0c-0.9,0.9-1,2.4-0.2,3.4l-2,1.3c0,0-3.2-4.8,0.5-8.5
		c1.3-1.3,2.5-2.5,3.6-3.6c0.3,0.1,0.7,0.1,1,0.2c0.3,0.1,0.6-0.2,0.5-0.5l-0.2-1l1.7-1.7l4.6,4.6l-1.6,1.6c-0.5-0.5-1.3-0.5-1.7,0
		c-0.5,0.5-0.5,1.3,0,1.7L281,29.8c0.1,0.1,0.2,0.2,0.2,0.2c0.7,0.8,0.7,2,0.1,2.9c-0.9,1.1-2.5,1.2-3.5,0.3c0,0-0.1-0.1-0.1-0.1
		l-4.2-4.4"/>
</g>
<g>
	<path class="st10" d="M592.5,339.4c-16.8,29.7-59.2,67.7-114.4,99.6c-81.9,47.3-161,63.4-176.8,36c-7.4-12.7,0.3-32.6,18.8-55"/>
	<path class="st10" d="M539.3,292.7c29.3-5.1,50.9-1.9,58.3,11c2.6,4.5,3.3,10,2.3,16.1"/>
	<circle class="st10" cx="597.1" cy="329.9" r="10.5"/>
	<circle class="st10" cx="445.6" cy="361.5" r="132"/>
</g>
<image style="overflow:visible;" width="1600" height="700" xlink:href="../Dropbox (Muuaaa)/Muuaaa Team Folder/Graphic Design_Gabriel/Neptuno/02 Design/images/slide-22.jpg"  transform="matrix(0.4158 0 0 0.4158 155.5271 -153.1542)">
</image>
<image style="overflow:visible;" width="1078" height="516" xlink:href="datacenter-google-1078x516.jpg"  transform="matrix(1 0 0 1 281.8523 -794.1256)">
</image>
<g>
	<g>
		<g>
			<path class="st11" d="M1176.1,308.2c7.8-13.2,12.3-28.7,12.3-45.2c0-49.1-39.8-88.9-88.9-88.9c-49.1,0-88.9,39.8-88.9,88.9
				c0,16,4.2,30.9,11.6,43.9"/>
			<path class="st11" d="M1032.4,321.2c16.3,18.8,40.3,30.7,67.2,30.7c26.8,0,50.9-11.9,67.2-30.7"/>
			<rect x="1027" y="318" class="st11" width="45.9" height="3.2"/>
			<g>
				<rect x="1022.3" y="302.9" class="st11" width="55.3" height="15.1"/>
				<line class="st11" x1="1026.9" y1="307.2" x2="1026.9" y2="313.7"/>
				<line class="st11" x1="1030.3" y1="307.2" x2="1030.3" y2="313.7"/>
				<line class="st11" x1="1033.8" y1="307.2" x2="1033.8" y2="313.7"/>
				<line class="st11" x1="1037.3" y1="307.2" x2="1037.3" y2="313.7"/>
				<line class="st11" x1="1040.8" y1="307.2" x2="1040.8" y2="313.7"/>
				<line class="st11" x1="1044.2" y1="307.2" x2="1044.2" y2="313.7"/>
				<circle class="st11" cx="1070.9" cy="310.4" r="2.3"/>
				<circle class="st11" cx="1062.9" cy="310.4" r="2.3"/>
				<circle class="st11" cx="1054.9" cy="310.4" r="2.3"/>
			</g>
			<path class="st11" d="M1032.1,302.9v-19.6c0-1.2,1-2.2,2.2-2.2l0,0c1.2,0,2.2,1,2.2,2.2v19.6"/>
			<path class="st11" d="M1026.2,270.9c2.1-2.1,5-3.4,8.1-3.4"/>
			<path class="st11" d="M1028.4,274.1c1.5-1.5,3.6-2.4,5.9-2.4"/>
			<path class="st11" d="M1030.7,277.3c0.9-0.9,2.2-1.5,3.6-1.5"/>
			<path class="st11" d="M1042.4,270.9c-2.1-2.1-5-3.4-8.1-3.4"/>
			<path class="st11" d="M1040.2,274.1c-1.5-1.5-3.6-2.4-5.9-2.4"/>
			<path class="st11" d="M1037.9,277.3c-0.9-0.9-2.2-1.5-3.6-1.5"/>
			<path class="st11" d="M1063.4,302.9v-19.6c0-1.2,1-2.2,2.2-2.2l0,0c1.2,0,2.2,1,2.2,2.2v19.6"/>
			<path class="st11" d="M1057.5,270.9c2.1-2.1,5-3.4,8.1-3.4"/>
			<path class="st11" d="M1059.7,274.1c1.5-1.5,3.6-2.4,5.9-2.4"/>
			<path class="st11" d="M1061.9,277.3c0.9-0.9,2.2-1.5,3.6-1.5"/>
			<path class="st11" d="M1073.7,270.9c-2.1-2.1-5-3.4-8.1-3.4"/>
			<path class="st11" d="M1071.5,274.1c-1.5-1.5-3.6-2.4-5.9-2.4"/>
			<path class="st11" d="M1069.2,277.3c-0.9-0.9-2.2-1.5-3.6-1.5"/>
			<rect x="1083.9" y="212.2" class="st11" width="42.5" height="105.8"/>
			<rect x="1089.5" y="217.8" class="st11" width="31.4" height="8.2"/>
			<rect x="1089.5" y="225.9" class="st11" width="31.4" height="8.2"/>
			<rect x="1089.5" y="234.1" class="st11" width="31.4" height="8.2"/>
			<rect x="1089.5" y="242.2" class="st11" width="31.4" height="8.2"/>
			<rect x="1089.5" y="250.4" class="st11" width="31.4" height="8.2"/>
			<rect x="1089.5" y="258.5" class="st11" width="31.4" height="8.2"/>
			<rect x="1089.5" y="284.8" class="st11" width="31.4" height="23.2"/>
			<circle class="st11" cx="1104.9" cy="296.4" r="2.8"/>
			<g>
				<rect x="1089.5" y="273.7" class="st11" width="18.6" height="4.1"/>
				<rect x="1116.8" y="273.7" class="st11" width="4.1" height="4.1"/>
			</g>
			<line class="st11" x1="1102.1" y1="296.4" x2="1089.5" y2="296.4"/>
			<line class="st11" x1="1107.7" y1="296.4" x2="1120.4" y2="296.4"/>
			<rect x="1083.9" y="318" class="st11" width="42.5" height="3.2"/>
			<circle class="st11" cx="1155.6" cy="290.4" r="11.7"/>
			<circle class="st11" cx="1155.6" cy="290.4" r="6.4"/>
			<circle class="st11" cx="1155.6" cy="290.4" r="2.6"/>
			<line class="st11" x1="1155.6" y1="302.1" x2="1155.6" y2="308.2"/>
			<g>
				<rect x="1132.8" y="308.2" class="st11" width="44.1" height="9.8"/>
				<line class="st11" x1="1166.2" y1="313.1" x2="1143.5" y2="313.1"/>
			</g>
			<rect x="1136.5" y="318" class="st11" width="36.7" height="3.2"/>
		</g>
	</g>
</g>
<g>
	<linearGradient id="SVGID_3_" gradientUnits="userSpaceOnUse" x1="1237.5712" y1="141.4477" x2="1359.8088" y2="141.4477">
		<stop  offset="0" style="stop-color:#C558A0"/>
		<stop  offset="0.5945" style="stop-color:#7F3E93"/>
		<stop  offset="1" style="stop-color:#532E8B"/>
	</linearGradient>
	<path class="st12" d="M1328.5,119.3l31.3,17.6l-61.4,34.6l-60.9-34.6l30.8-17.5C1287,108.8,1309.9,108.8,1328.5,119.3z"/>
	<path class="st13" d="M1237.6,136.9v3.6l59.9,34.7c0.4,0.2,0.8,0.2,1.1,0l61.2-34.7v-3.7l-61.4,34.6L1237.6,136.9z"/>
	<path class="st14" d="M1323.4,88.6l36.4,20.5l-61.4,34.6l-60.9-34.6l36-20.4C1289,80,1307.9,79.9,1323.4,88.6z"/>
	<path class="st15" d="M1325,63.7l34.8,19.6l-61.4,34.6l-60.9-34.6l34.3-19.5C1288.4,54.4,1308.5,54.4,1325,63.7z"/>
	<path class="st16" d="M1237.6,83.3l0.1,3.6l59.7,34.7c0.4,0.2,0.8,0.2,1.2,0l61.2-34.7v-3.6l-61.4,34.6L1237.6,83.3z"/>
	<path class="st17" d="M1237.6,109.1l0.1,3.6l59.7,34.7c0.4,0.2,0.9,0.2,1.3,0l61.1-34.7v-3.6l-61.4,34.6L1237.6,109.1z"/>
</g>
<g>
	<g>
		<path class="st18" d="M1779,44.9l-76.2,129.5c-1.5,2.5,0.3,5.7,3.3,5.7h61.4c0.7,0,1.3,0.6,1.2,1.4l-13.6,101.2
			c-0.4,3.3,4,4.9,5.7,2l94.1-155.8c1.4-2.3-0.3-5.2-2.9-5.2h-74.4c-0.7,0-1.3-0.6-1.2-1.3l8-75.7
			C1784.7,43.6,1780.6,42.2,1779,44.9z"/>
	</g>
	<g>
		<g>
			<path class="st1" d="M1639.5,148.2c-28.5-17-50.1-44.3-59.4-76.2c-9.1-31-6.3-65.2,7.9-94.2c28.1-57.4,95.2-86.9,156.5-68.2
				c35.2,10.7,64.3,36.3,80.3,69.4c2,4.1,8.2,0.5,6.2-3.6C1816-55.4,1790.1-80,1758.5-93c-31.7-13-68.2-13.7-100.3-1.8
				c-29.8,11.1-55.3,32.3-71.4,59.7c-17.1,29-22.9,63.8-16.6,96.8c7.4,38.7,31.9,72.6,65.7,92.7
				C1639.8,156.8,1643.4,150.6,1639.5,148.2L1639.5,148.2z"/>
		</g>
	</g>
	<g>
		<g>
			<path class="st1" d="M1828.7-19.4c47.3-13.1,98.5,12.1,115.3,58.7c15.6,43.4-2.9,92.9-43.1,115.3c-25.3,14.1-55.7,15.3-82.5,4.6
				c-4.3-1.7-6.1,5.2-1.9,6.9c49.2,19.8,107.2-2.1,130.2-50.1c21.5-44.9,6.9-99.8-33.9-128.2c-25-17.4-56.8-22.2-86-14.1
				C1822.4-25.1,1824.3-18.2,1828.7-19.4L1828.7-19.4z"/>
		</g>
	</g>
	<g>
		<g>
			<path class="st1" d="M1820.6,164.3c9.8-16.3,19.7-32.6,29.5-48.9c1.4-2.3-0.4-5.4-3.1-5.4c-27.2,0-54.3,0-81.5,0
				c1.2,1.2,2.4,2.4,3.6,3.6c3.8-28.3,7.6-56.6,11.3-84.9c0.6-4.1,1.1-8.2,1.7-12.3c0.5-3.7-5-4.6-6.7-1.8
				c-10.1,17.3-20.1,34.5-30.2,51.8c-16.1,27.5-32.2,55.1-48.3,82.6c-3.7,6.4-7.5,12.8-11.2,19.2c-1.4,2.3,0.4,5.4,3.1,5.4
				c23,0,46.1,0,69.1,0c-1.2-1.2-2.4-2.4-3.6-3.6c-4.6,34.3-9.2,68.6-13.8,102.9c-0.6,4.8-1.3,9.6-1.9,14.4c-0.5,3.7,5,4.6,6.7,1.8
				c15.8-26.3,31.7-52.5,47.5-78.8c2.3-3.8,4.5-7.5,6.8-11.3c2.4-4-3.8-7.6-6.2-3.6c-15.8,26.3-31.7,52.5-47.5,78.8
				c-2.3,3.8-4.5,7.5-6.8,11.3c2.2,0.6,4.4,1.2,6.7,1.8c4.6-34.3,9.2-68.6,13.8-102.9c0.6-4.8,1.3-9.6,1.9-14.4
				c0.3-1.9-1.8-3.6-3.6-3.6c-23,0-46.1,0-69.1,0c1,1.8,2.1,3.6,3.1,5.4c10.1-17.3,20.1-34.5,30.2-51.8
				c16.1-27.5,32.2-55.1,48.3-82.6c3.7-6.4,7.5-12.8,11.2-19.2c-2.2-0.6-4.4-1.2-6.7-1.8c-3.8,28.3-7.6,56.6-11.3,84.9
				c-0.6,4.1-1.1,8.2-1.7,12.3c-0.3,1.9,1.8,3.6,3.6,3.6c27.2,0,54.3,0,81.5,0c-1-1.8-2.1-3.6-3.1-5.4
				c-9.8,16.3-19.7,32.6-29.5,48.9C1812,164.7,1818.2,168.3,1820.6,164.3L1820.6,164.3z"/>
		</g>
	</g>
</g>
<g>
	<g>
		<path class="st18" d="M2710,137.1h-73.2c-5.1,0-9.3,4.2-9.3,9.3v51.7c0,5.1,4.2,9.3,9.3,9.3h73.2c5.1,0,9.3-4.2,9.3-9.3v-51.7
			C2719.3,141.3,2715.1,137.1,2710,137.1z M2685.2,191.3c0.3,1.2-0.6,2.3-1.8,2.3h-20.1c-1.2,0-2.1-1.1-1.8-2.3l4.5-18.8
			c-2.8-2.2-4.7-5.6-4.7-9.5c0-7.5,6.8-13.4,14.6-11.8c4.7,1,8.4,4.8,9.2,9.5c0.9,4.8-1.1,9.1-4.5,11.8L2685.2,191.3z"/>
	</g>
</g>
<g>
	<path class="st18" d="M2785-14.3l-53.6,10.6c-0.6,0.1-1.3-0.1-1.7-0.6l-27.2-30.3c-1-1.1-0.4-2.8,1-3.1l73.9-14.6
		c1-0.2,2,0.5,2.2,1.5l6.9,34.3C2786.6-15.5,2786-14.5,2785-14.3z"/>
</g>
<g>
	<path class="st18" d="M2550.7-14.3l53.6,10.6c0.6,0.1,1.3-0.1,1.7-0.6l27.2-30.3c1-1.1,0.4-2.8-1-3.1l-73.9-14.6
		c-1-0.2-2,0.5-2.2,1.5l-6.9,34.3C2549-15.5,2549.7-14.5,2550.7-14.3z"/>
</g>
<g>
	<g>
		<path class="st18" d="M2757.5,54.3c-49.5,0-85.9-23.3-85.9-23.3s-36.4,23.3-85.9,23.3h-8.2V165c0,83.8,94.1,116.3,94.1,116.3
			s94.1-32.4,94.1-116.3V54.3H2757.5z M2752.8,165c0,63.9-64.1,95.2-81.3,102.4c-17.2-7.2-81.3-38.5-81.3-102.4V67.1
			c38.1-1,68.2-14.5,81.3-21.4c13,6.9,43.1,20.3,81.3,21.4V165z"/>
	</g>
</g>
<circle class="st19" cx="2575.3" cy="10.7" r="8.3"/>
<line class="st19" x1="2575.3" y1="2.3" x2="2575.3" y2="-14.3"/>
<line class="st19" x1="2566.9" y1="10.7" x2="2495.9" y2="10.7"/>
<line class="st19" x1="2560.1" y1="-46.3" x2="2583.6" y2="-41.6"/>
<polyline class="st19" points="2623.7,-33.7 2632.7,-31.9 2629.2,-14.7 2610,-18.5 "/>
<polygon class="st19" points="2545.1,-20.3 2601.6,-9.1 2631.8,-42.6 2552.8,-58.2 "/>
<circle class="st19" cx="2760.4" cy="10.7" r="8.3"/>
<path class="st19" d="M2760.4,2.3v-16.7V2.3z"/>
<path class="st19" d="M2768.7,10.7h71H2768.7z"/>
<line class="st19" x1="2775.6" y1="-46.3" x2="2752.1" y2="-41.6"/>
<polygon class="st19" points="2711.9,-33.7 2703,-31.9 2706.4,-14.7 2725.6,-18.5 "/>
<polygon class="st19" points="2790.5,-20.3 2734,-9.1 2703.9,-42.6 2782.9,-58.2 "/>
<path class="st19" d="M2739.4,226.3c63.4-27.6,107.7-90.9,107.7-164.5c0-99-80.3-179.3-179.3-179.3s-179.3,80.3-179.3,179.3
	c0,73.6,44.3,136.8,107.7,164.5"/>
<path class="st19" d="M2667.8,277.5c0,0,94.1-32.4,94.1-116.3V50.6h-8.2c-49.5,0-85.9-23.3-85.9-23.3s-36.4,23.3-85.9,23.3h-8.2
	v110.7C2573.7,245.1,2667.8,277.5,2667.8,277.5z"/>
<path class="st19" d="M2667.8,263.7c-17.2-7.2-81.3-38.5-81.3-102.4V63.4c38.1-1,68.2-14.5,81.3-21.4c13,6.9,43.1,20.3,81.3,21.4
	v97.9C2749.1,225.2,2685,256.4,2667.8,263.7z"/>
<path class="st19" d="M2704.4,201.9h-73.2c-5.1,0-9.3-4.2-9.3-9.3v-51.7c0-5.1,4.2-9.3,9.3-9.3h73.2c5.1,0,9.3,4.2,9.3,9.3v51.7
	C2713.7,197.7,2709.5,201.9,2704.4,201.9z"/>
<path class="st19" d="M2679.7,185.7l-4.5-18.8c3.4-2.6,5.4-7,4.5-11.8c-0.9-4.7-4.6-8.5-9.2-9.5c-7.8-1.6-14.6,4.3-14.6,11.8
	c0,3.9,1.9,7.3,4.7,9.5l-4.5,18.8c-0.3,1.2,0.6,2.3,1.8,2.3h20.1C2679.1,188,2679.9,186.9,2679.7,185.7z"/>
<path class="st19" d="M2698.9,131.6c0,0,0-23.8,0-23.8c0-17.1-13.9-31-31-31c-17.1,0-31,13.9-31,31v23.8H2698.9z"/>
<path class="st19" d="M3161.4,226.3c63.4-27.6,107.7-90.9,107.7-164.5c0-99-80.3-179.3-179.3-179.3s-179.3,80.3-179.3,179.3
	c0,73.6,44.3,136.8,107.7,164.5"/>
<g>
	<path class="st19" d="M3138.1,51.2c15,5.4,32.4,2.1,44.4-9.9s15.3-29.4,9.9-44.4l-21.3,21.3c-2.7,2.7-7,2.7-9.7,0l-15.9-15.9
		c-2.7-2.7-2.7-7,0-9.7l21.3-21.3c-15-5.4-32.4-2.1-44.4,9.9c-12,12-15.3,29.4-9.9,44.4l-65,65c-15-5.4-32.4-2.1-44.4,9.9
		s-15.3,29.4-9.9,44.4l21.3-21.3c2.7-2.7,7-2.7,9.7,0l15.9,15.9c2.7,2.7,2.7,7,0,9.7l-21.3,21.3c15,5.4,32.4,2.1,44.4-9.9
		c12-12,15.3-29.4,9.9-44.4l19.2-19.2"/>
	<path class="st19" d="M3092.3,97l-50.9-54.6c-8.9-8.9-23.4-8.9-32.4,0c-8.2,8.2-8.9,21.2-1.9,30.2l-17.9,11.2c0,0-28.2-42.3,4-74.5
		c11.2-11.2,22.2-22.2,31.5-31.5c3,0.5,6.3,1.1,9.1,1.5c2.8,0.5,5.2-1.9,4.7-4.7l-1.5-9.1l14.6-14.6l40.7,40.7L3078,5.9
		c-4.2-4.2-11.1-4.2-15.4,0c-4.2,4.2-4.2,11.1,0,15.4l112.7,105.1c0.8,0.7,1.5,1.4,2.2,2.2c6.1,7.1,6.5,17.9,0.8,25.4
		c-7.6,10.1-22.1,10.9-30.7,2.2c-0.3-0.3-0.7-0.7-1-1.1L3110,116"/>
</g>
<g>
	<path class="st19" d="M3558.3,129l-19.2,19.2c5.4,15,2.1,32.4-9.9,44.4c-12,12-29.4,15.3-44.4,9.9l21.3-21.3c2.7-2.7,2.7-7,0-9.7
		l-15.9-15.9c-2.7-2.7-7-2.7-9.7,0l-21.3,21.3c-5.4-15-2.1-32.4,9.9-44.4c12-12,29.4-15.3,44.4-9.9l65-65c-5.4-15-2.1-32.4,9.9-44.4
		c12-12,29.4-15.3,44.4-9.9l-21.3,21.3c-2.7,2.7-2.7,7,0,9.7l15.9,15.9c2.7,2.7,7,2.7,9.7,0l21.3-21.3c5.4,15,2.1,32.4-9.9,44.4
		s-29.4,15.3-44.4,9.9"/>
	<path class="st19" d="M3558.3,129l-50.9-54.6c-8.9-8.9-23.4-8.9-32.4,0c-8.2,8.2-8.9,21.2-1.9,30.2l-17.9,11.2
		c0,0-28.2-42.3,4-74.5c11.2-11.2,22.2-22.2,31.5-31.5c3,0.5,6.3,1.1,9.1,1.5c2.8,0.5,5.2-1.9,4.7-4.7l-1.5-9.1l14.6-14.6l40.7,40.7
		L3544,37.9c-4.2-4.2-11.1-4.2-15.4,0c-4.2,4.2-4.2,11.1,0,15.4l112.7,105.1c0.8,0.7,1.5,1.4,2.2,2.2c6.1,7.1,6.5,17.9,0.8,25.4
		c-7.6,10.1-22.1,10.9-30.7,2.2c-0.3-0.3-0.7-0.7-1-1.1L3576,148l-0.7,81.4c-64.4,25.3-133,9.1-185.1-42.9c-70-70-70-183.6,0-253.6
		s183.6-70,253.6,0c52,52,65.4,128.1,40.1,192.5"/>
</g>
<g>
	<path class="st20" d="M-28.8,90.8v-1.3c0-0.5-0.4-0.9-0.9-0.9h-11.8l-3.5-3.5h-8.3c-1,0-1.8,0.8-1.8,1.8v21.8l5.5-15
		c0.1-0.4,0.5-0.6,0.9-0.6h21.7c0.6,0,1.1,0.6,0.9,1.2l-5,13.8c-0.1,0.4-0.5,0.6-0.9,0.6H-52"/>
</g>
<g>
	<path class="st21" d="M-101,104.3c-5.1-3-8.6-8.6-8.6-15c0-9.6,7.8-17.5,17.5-17.5c7,0,13,4.1,15.8,9.9"/>
	<path class="st21" d="M-76.4,81.7c1.1-0.3,2.3-0.5,3.5-0.5c7,0,12.7,5.7,12.7,12.7c0,7-5.7,12.7-12.7,12.7c-1.7,0-3.4-0.3-4.9-1"/>
	<polyline class="st21" points="-77.7,105.7 -73.9,99.4 -84.5,99.4 -82.8,86.8 -94.4,106.7 -85.4,106.7 -87.5,121.9 -80.4,110.2 	
		"/>
</g>
<g>
	<path class="st22" d="M-4.2,97c-6.9,0-12.5-5.6-12.5-12.5c0-5,2.9-9.3,7.1-11.3"/>
	<path class="st22" d="M-9.6,73.1c-0.1-0.4-0.1-0.8-0.1-1.2c0-4.5,3.6-8.1,8.1-8.1c1.7,0,3.2,0.5,4.5,1.4"/>
	<path class="st22" d="M2.9,65.1c3-4.6,8.2-7.6,14.1-7.6c9.2,0,16.7,7.4,16.9,16.5"/>
	<path class="st22" d="M33.9,74.1c5.1,1.2,8.9,5.8,8.9,11.3c0,6.4-5.2,11.6-11.6,11.6"/>
	<path class="st22" d="M2.5,97c0-5.9,4.7-10.6,10.6-10.6S23.7,91.1,23.7,97s-4.7,10.6-10.6,10.6"/>
	<line class="st22" x1="-4.2" y1="97" x2="2.5" y2="97"/>
	<path class="st22" d="M5,97c1.4,0,2.6,1.2,2.6,2.6c0,1.4-1.2,2.6-2.6,2.6s-2.6-1.2-2.6-2.6"/>
	<line class="st22" x1="2.5" y1="97" x2="2.5" y2="99.5"/>
	<line class="st22" x1="5" y1="97" x2="2.5" y2="97"/>
	<line class="st22" x1="11.1" y1="107.5" x2="13.5" y2="110.4"/>
	<line class="st22" x1="11.1" y1="107.5" x2="13.5" y2="104.6"/>
</g>
<g>
	<path class="st23" d="M-51.2,140.2c-0.2-1.5,0.4-2.3,0.4-2.3c0.7-0.7,2.4-2.4,2.4-2.4l3.9,3.9l-2.2,2.4c0,0,0.8,1.6,2.7,3.5
		c1.9,1.9,3.5,2.7,3.5,2.7l2.4-2.2l3.9,3.9"/>
	<path class="st23" d="M-50,132.8c2.2-4.8,7.1-8.2,12.7-8.2c7.7,0,14,6.3,14,14c0,7.7-6.3,14-14,14c-0.4,0-0.7,0-1.1,0"/>
	<g>
		<line class="st23" x1="-30.7" y1="130.8" x2="-35.1" y2="143.1"/>
		<polyline class="st23" points="-30.4,137.6 -26.9,137.6 -29.3,143.1 		"/>
		<g>
			<polyline class="st23" points="-35.9,136.2 -35.9,130.8 -38.7,134.7 -35,134.7 			"/>
			<path class="st23" d="M-40,136.2h-3.3l2.6-2.9c0.3-0.3,0.4-0.6,0.4-1c0-0.8-0.7-1.5-1.5-1.5c-0.8,0-1.5,0.7-1.5,1.5"/>
		</g>
	</g>
	<line class="st23" x1="-50" y1="132.8" x2="-50.9" y2="130.6"/>
	<line class="st23" x1="-50" y1="132.8" x2="-47.7" y2="132.3"/>
	<path class="st23" d="M-38.4,152.5c-6.7-0.5-12.1-5.8-12.8-12.4"/>
</g>
<circle class="st4" cx="98.1" cy="32.9" r="23"/>
<path class="st8" d="M96.7,45.2h-0.5 M99,45.2h-0.5 M110,47.8H86.2c-1,0-1.7-0.8-1.7-1.7v-1.6c0-1,0.8-1.7,1.7-1.7H110
	c1,0,1.7,0.8,1.7,1.7V46C111.7,47,110.9,47.8,110,47.8z M96.7,40.2h-0.5 M99,40.2h-0.5 M96.7,35.1h-0.5 M99,35.1h-0.5 M96.7,30h-0.5
	 M99,30h-0.5 M96.7,24.9h-0.5 M99,24.9h-0.5 M110,42.7H86.2c-1,0-1.7-0.8-1.7-1.7v-1.6c0-1,0.8-1.7,1.7-1.7H110c1,0,1.7,0.8,1.7,1.7
	v1.6C111.7,41.9,110.9,42.7,110,42.7z M111,22.7l-5.3-4.2c-0.3-0.3-0.7-0.4-1.1-0.4H91.6c-0.4,0-0.8,0.1-1.1,0.4l-5.3,4.2 M110,27.5
	H86.2c-1,0-1.7-0.8-1.7-1.7v-1.6c0-1,0.8-1.7,1.7-1.7H110c1,0,1.7,0.8,1.7,1.7v1.6C111.7,26.7,110.9,27.5,110,27.5z M110,27.5H86.2
	c-1,0-1.7,0.8-1.7,1.7v1.6c0,1,0.8,1.7,1.7,1.7H110c1,0,1.7-0.8,1.7-1.7v-1.6C111.7,28.2,110.9,27.5,110,27.5z M110,37.6H86.2
	c-1,0-1.7-0.8-1.7-1.7v-1.6c0-1,0.8-1.7,1.7-1.7H110c1,0,1.7,0.8,1.7,1.7v1.6C111.7,36.8,110.9,37.6,110,37.6z"/>
<circle class="st4" cx="23.8" cy="23.8" r="23"/>
<path class="st24" d="M34.5,12.1c0-0.4,0.3-0.8,0.8-0.8c0.4,0,0.8,0.3,0.8,0.8c0,0.4-0.3,0.8-0.8,0.8C34.9,12.9,34.5,12.6,34.5,12.1
	z M31,9.4c2.2-0.4,3.7-0.1,4.3,0.8c0.2,0.3,0.2,0.7,0.2,1.2 M35,12.8c-1.2,2.2-4.4,5-8.4,7.3c-6,3.5-11.9,4.7-13,2.6
	c-0.5-0.9,0-2.4,1.4-4.1 M33.8,16.2c0,5.3-4.3,9.6-9.6,9.6c-5.3,0-9.6-4.3-9.6-9.6c0-5.3,4.3-9.6,9.6-9.6
	C29.5,6.5,33.8,10.8,33.8,16.2z M17,41l-5.4-5.4c-0.2-0.2-0.2-0.4,0-0.6l1.7-1.7c0.2-0.2,0.4-0.2,0.6,0l5.4,5.4
	c0.2,0.2,0.2,0.4,0,0.6L17.6,41C17.4,41.1,17.2,41.1,17,41z M19.1,38.2l8.7-2.1c0.7-0.2,1.4-0.5,1.9-1.1l5.9-5.9
	c0.2-0.2,0.2-0.5,0-0.7c-0.7-0.7-1.9-0.7-2.6,0l-4,4 M14.5,33.8l2.6-2.6c0.7-0.7,1.8-1.2,2.8-1.2h6.3c0.3,0,0.5,0.2,0.5,0.5
	c0,1-0.8,1.8-1.8,1.8 M21.4,32.4H29 M29.6,28.5l-0.4-0.4c-0.7-0.7-1.9-0.7-2.6,0l-2,2 M32.8,28.6l-0.4-0.4c-0.7-0.7-1.9-0.7-2.6,0
	l-4.2,4.2"/>
</svg>
