<?xml version="1.0" encoding="utf-8"?>
<!-- Generator: Adobe Illustrator 21.1.0, SVG Export Plug-In . SVG Version: 6.00 Build 0)  -->
<svg version="1.1" id="Layer_1" xmlns="http://www.w3.org/2000/svg" xmlns:xlink="http://www.w3.org/1999/xlink" x="0px" y="0px"
	 viewBox="0 0 122.2 118.7" style="enable-background:new 0 0 122.2 118.7;" xml:space="preserve">
<style type="text/css">
	.st0{fill:none;stroke:#662F8F;stroke-width:4;stroke-linecap:round;stroke-linejoin:round;stroke-miterlimit:10;}
	.st1{fill:#662F8F;}
	.st2{fill:none;stroke:#662F8F;stroke-width:2;stroke-linecap:round;stroke-linejoin:round;stroke-miterlimit:10;}
	.st3{fill:none;stroke:#FFFFFF;stroke-width:0.488;stroke-linecap:round;stroke-linejoin:round;stroke-miterlimit:10;}
	.st4{fill:none;stroke:#E73E51;stroke-width:1.6927;}
	.st5{fill:none;stroke:#E73E51;stroke-width:1.1285;stroke-linecap:round;stroke-linejoin:round;stroke-miterlimit:10;}
	.st6{fill:#E73E51;}
	
		.st7{clip-path:url(#SVGID_2_);fill:none;stroke:#E73E51;stroke-width:1.1285;stroke-linecap:round;stroke-linejoin:round;stroke-miterlimit:10;}
	.st8{fill:none;stroke:#EE4050;stroke-width:1.1285;stroke-linecap:round;stroke-linejoin:round;stroke-miterlimit:10;}
	.st9{fill:none;stroke:#FFFFFF;stroke-width:0.574;stroke-linecap:round;stroke-linejoin:round;stroke-miterlimit:10;}
	.st10{fill:none;stroke:#A491C4;stroke-width:0.5657;stroke-miterlimit:10;}
	.st11{fill:none;stroke:#F7F8F9;stroke-width:1.2708;stroke-miterlimit:10;}
	.st12{fill:url(#SVGID_3_);}
	.st13{fill:#9289C1;}
	.st14{fill:#F79F7C;}
	.st15{fill:#EF619B;}
	.st16{fill:#F28BB9;}
	.st17{fill:#FABEA9;}
</style>
<g>
	<path class="st0" d="M-1627-236.3c9.6-9.6,22.8-15.5,37.3-15.5"/>
	<path class="st0" d="M-1612.6-221.9c5.9-5.9,14-9.5,23-9.5"/>
	<path class="st0" d="M-1655.8-265.1c17.7-17.7,41.2-27.4,66.1-27.4s48.4,9.7,66.1,27.4"/>
	<path class="st0" d="M-1537.9-250.7c-13.3-13.3-31.6-21.5-51.7-21.5c-20.2,0-38.5,8.2-51.7,21.5"/>
	<path class="st0" d="M-1552.3-236.3c-9.6-9.6-22.8-15.5-37.3-15.5"/>
	<path class="st0" d="M-1566.7-221.9c-5.9-5.9-14-9.5-23-9.5"/>
	<path class="st0" d="M-1581.1-190.4c-2.2,2.2-5.2,3.5-8.6,3.5c-6.7,0-12.1-5.4-12.1-12.1s5.4-12.1,12.1-12.1c3.3,0,6.4,1.4,8.6,3.5
		"/>
	<path class="st0" d="M-1537.9-250.7c4,4,4,10.4,0,14.4c-4,4-10.4,4-14.4,0"/>
	<path class="st0" d="M-1612.6-221.9c-4,4-10.4,4-14.4,0c-4-4-4-10.4,0-14.4"/>
	<path class="st0" d="M-1566.7-221.9c4,4,4,10.4,0,14.4c-4,4-10.4,4-14.4,0"/>
	<path class="st0" d="M-1641.4-250.7c-4,4-10.4,4-14.4,0s-4-10.4,0-14.4"/>
</g>
<g>
	<path class="st1" d="M-1443.9-302.2c-28.7,0-52,23.3-52,52s23.3,52,52,52s52-23.3,52-52S-1415.2-302.2-1443.9-302.2z
		 M-1443.9-201.9c-26.6,0-48.3-21.7-48.3-48.3s21.7-48.3,48.3-48.3s48.3,21.7,48.3,48.3S-1417.2-201.9-1443.9-201.9z"/>
	<path class="st1" d="M-1407.3-256c-4.8-4.7-10.4-8.3-16.4-10.7c0-0.3,0.1-0.7,0.1-1c0-11.1-9-20.2-20.2-20.2s-20.2,9-20.2,20.2
		c0,0.6,0,1.1,0.1,1.7c-5.5,2.4-10.5,5.8-14.9,10.1c0,0-0.1,0.1-0.1,0.1c-1.2,1.2-1.8,2.8-1.8,4.5c0,1.7,0.7,3.4,1.9,4.6
		c2.6,2.5,6.7,2.5,9.3,0c0,0,0,0,0,0c3.2-3.1,6.8-5.6,10.8-7.4c2.3,2.5,5.2,4.5,8.5,5.5c-5,1.2-9.6,3.7-13.4,7.4
		c0,0-0.1,0.1-0.1,0.1c-1.3,1.2-1.9,2.9-1.9,4.6c0,1.7,0.7,3.4,1.9,4.6c2.6,2.5,6.7,2.5,9.3,0c0,0,0,0,0,0h0c3-2.9,7-4.5,11.3-4.5
		c4.3,0,8.3,1.6,11.3,4.5c0,0,0,0,0,0c0.8,0.8,1.2,1.8,1.2,2.8c0,1.1-0.4,2.1-1.2,2.8c-1.6,1.6-4.3,1.6-5.9,0c0,0-0.1-0.1-0.1-0.1
		c-1.4-1.3-3.3-2.1-5.3-2.1c-4.2,0-7.6,3.3-7.6,7.5c0,4.1,3.4,7.5,7.6,7.5c2,0,3.9-0.8,5.4-2.2c0.5-0.5,0.5-1.3,0-1.7
		c-0.5-0.5-1.3-0.5-1.7,0c-1,1-2.3,1.5-3.7,1.5c-2.8,0-5.2-2.2-5.2-5c0-2.8,2.3-5,5.2-5c1.4,0,2.7,0.5,3.7,1.5c0,0,0.1,0.1,0.1,0.1
		c2.6,2.4,6.7,2.4,9.2-0.1c1.3-1.2,1.9-2.9,1.9-4.6s-0.7-3.4-1.9-4.6c0,0,0,0,0,0c-3.5-3.4-8.1-5.2-13-5.2c-4.9,0-9.5,1.9-13,5.2
		c0,0,0,0,0,0c-1.6,1.6-4.3,1.6-5.9,0c-0.8-0.8-1.2-1.8-1.2-2.8c0-1,0.4-2,1.1-2.7c0,0,0.1-0.1,0.1-0.1c5-4.9,11.7-7.6,18.8-7.6
		c7.1,0,13.8,2.7,18.8,7.6c0,0,0,0,0,0c2.6,2.5,6.7,2.5,9.3,0c1.3-1.2,1.9-2.9,1.9-4.6c0-1.7-0.7-3.4-1.9-4.6c0,0,0,0,0,0
		c-3.6-3.5-7.7-6.2-12.1-8.1c1.5-2.2,2.5-4.8,3-7.5c5.5,2.3,10.6,5.7,15,9.9c0.5,0.5,1.3,0.5,1.7,0
		C-1406.8-254.8-1406.8-255.6-1407.3-256z M-1471.3-248.6C-1471.3-248.6-1471.3-248.6-1471.3-248.6c-1.6,1.6-4.3,1.6-5.9,0
		c-0.8-0.8-1.2-1.8-1.2-2.8c0-1.1,0.4-2.1,1.2-2.8c0,0,0.1-0.1,0.1-0.1c4-3.9,8.5-6.9,13.5-9.2c0.6,2.7,1.7,5.2,3.3,7.4
		C-1464.3-254.3-1468-251.8-1471.3-248.6z M-1416.6-246.8C-1416.6-246.8-1416.6-246.8-1416.6-246.8c0.8,0.8,1.2,1.8,1.2,2.8
		c0,1.1-0.4,2.1-1.2,2.8c-1.6,1.6-4.3,1.6-5.9,0c0,0,0,0,0,0c-4-3.9-9-6.5-14.4-7.7c3.3-1.2,6.1-3.2,8.4-5.8
		C-1424.2-252.9-1420.1-250.2-1416.6-246.8z M-1443.9-250.1c-9.8,0-17.7-7.9-17.7-17.7c0-9.8,7.9-17.7,17.7-17.7s17.7,7.9,17.7,17.7
		C-1426.2-258-1434.1-250.1-1443.9-250.1z"/>
	<path class="st1" d="M-1451.5-269.1h-1.9l0.1-3.7h5.6v-1.5h-7.1l-0.2,6.6h2.9c2.5,0,3.4,1.1,3.4,2.5c0,1.4-1,2.5-2.8,2.5
		c-1.3,0-2.5-0.6-3.4-1.6l-1,1c1.1,1.3,2.6,2,4.4,2c2.4,0,4.5-1.5,4.5-4.2C-1447-267.3-1448.5-269.1-1451.5-269.1z"/>
	<path class="st1" d="M-1437.5-268.3v1.5h3.9c-0.3,2.5-1.9,4.1-4.5,4.1c-2.8,0-4.9-2.1-4.9-5.1c0-3,2.2-5.1,5-5.1
		c1.6,0,2.9,0.7,3.8,1.7l1.2-1.2c-1.2-1.3-3-2.1-5-2.1c-3.9,0-6.7,2.8-6.7,6.7c0,4.2,3.2,6.7,6.6,6.7c3.9,0,6.3-3,6.3-6.7
		c0-0.1,0-0.3,0-0.4H-1437.5z"/>
</g>
<g>
	<line class="st2" x1="-1312" y1="-216.5" x2="-1312" y2="-207.9"/>
	<path class="st2" d="M-1325.7-207.9c-2.8,0-5.2-2.3-5.2-5.2v-77.8c0-2.8,2.3-5.2,5.2-5.2h69.9c2.8,0,5.2,2.3,5.2,5.2v77.8
		c0,2.8-2.3,5.2-5.2,5.2h-56.2"/>
	<path class="st2" d="M-1312-216.5h-5c-2.8,0-5.2-2.3-5.2-5.2v-60.4c0-2.8,2.3-5.2,5.2-5.2h10.1c2.8,0,5.2,2.3,5.2,5.2v60.4"/>
	<g>
		<g>
			<circle class="st2" cx="-1290" cy="-266.7" r="3.8"/>
			<circle class="st2" cx="-1276.1" cy="-266.7" r="3.8"/>
			<circle class="st2" cx="-1262.2" cy="-266.7" r="3.8"/>
			<circle class="st2" cx="-1290" cy="-252.8" r="3.8"/>
			<circle class="st2" cx="-1276.1" cy="-252.8" r="3.8"/>
			<circle class="st2" cx="-1262.2" cy="-252.8" r="3.8"/>
			<circle class="st2" cx="-1290" cy="-238.9" r="3.8"/>
			<circle class="st2" cx="-1276.1" cy="-238.9" r="3.8"/>
			<circle class="st2" cx="-1262.2" cy="-238.9" r="3.8"/>
			<circle class="st2" cx="-1290" cy="-225" r="3.8"/>
			<circle class="st2" cx="-1276.1" cy="-225" r="3.8"/>
			<circle class="st2" cx="-1262.2" cy="-225" r="3.8"/>
		</g>
		<line class="st2" x1="-1293.8" y1="-282.7" x2="-1258.5" y2="-282.7"/>
	</g>
</g>
<g>
	<path class="st3" d="M-1394.6-104.1v-1c0-2.7-2.1-4.9-4.8-5c-2.8-0.1-5.1,2.2-5.1,4.9l0,3.8h10.9c0.7,0,1.3,0.6,1.3,1.3v8.6
		c0,0.7-0.6,1.3-1.3,1.3h-2.7c-0.5,0-1-0.4-1.1-0.9l-0.8-3.2v0c0.6-0.5,0.9-1.2,0.8-2.1c-0.1-1-1-1.7-1.9-1.9
		c-1.3-0.1-2.5,0.9-2.5,2.2c0,0.7,0.3,1.3,0.8,1.7h0c0,0-0.5,2-0.8,3.2c-0.1,0.5-0.6,0.9-1.1,0.9h-2.7c-0.7,0-1.3-0.6-1.3-1.3v-8.6"
		/>
</g>
<g>
	<circle class="st4" cx="-1276.4" cy="-96.8" r="23"/>
	<path class="st5" d="M-1299.6-96.9l23.2-0.1 M-1276.4-97V-120V-97z M-1264.8-97c0,6.4-5.2,11.6-11.6,11.6
		c-6.4,0-11.7-5.2-11.7-11.6c0-6.4,5.2-11.6,11.7-11.6C-1270-108.6-1264.8-103.4-1264.8-97z M-1259.2-97c0,9.5-7.7,17.3-17.3,17.3
		c-9.5,0-17.3-7.7-17.3-17.3c0-9.5,7.7-17.3,17.3-17.3C-1266.9-114.2-1259.2-106.5-1259.2-97z"/>
	<path class="st6" d="M-1292.1-102.3c1.2,0,2.2-1,2.2-2.2c0-1.2-1-2.2-2.2-2.2s-2.2,1-2.2,2.2
		C-1294.3-103.2-1293.3-102.3-1292.1-102.3"/>
</g>
<g>
	<circle class="st4" cx="-1334.8" cy="-96.4" r="23"/>
	<path class="st5" d="M-1324-103.7l7.1,7.2 M-1324-103.7l-7.1,10.3 M-1338.1-89.3l7.1-4.2 M-1338.1-89.3l-7.1-9.5 M-1352.2-93.8
		l7.1-4.9"/>
	<path class="st6" d="M-1347.3-98.8c0-1.2,1-2.1,2.1-2.1c1.2,0,2.1,1,2.1,2.1c0,1.2-1,2.1-2.1,2.1
		C-1346.4-96.6-1347.3-97.6-1347.3-98.8"/>
	<path class="st6" d="M-1340.3-89.3c0-1.2,1-2.1,2.1-2.1s2.1,1,2.1,2.1c0,1.2-1,2.1-2.1,2.1S-1340.3-88.1-1340.3-89.3"/>
	<path class="st6" d="M-1333.2-93.4c0-1.2,1-2.1,2.1-2.1c1.2,0,2.1,1,2.1,2.1c0,1.2-1,2.1-2.1,2.1
		C-1332.3-91.3-1333.2-92.3-1333.2-93.4"/>
	<path class="st6" d="M-1326.2-103.7c0-1.2,1-2.1,2.1-2.1s2.1,1,2.1,2.1c0,1.2-1,2.1-2.1,2.1S-1326.2-102.6-1326.2-103.7"/>
	<path class="st6" d="M-1319.3-96.6c0-1.2,1-2.1,2.1-2.1c1.2,0,2.1,1,2.1,2.1c0,1.2-1,2.1-2.1,2.1
		C-1318.3-94.5-1319.3-95.5-1319.3-96.6"/>
	<path class="st6" d="M-1354.1-94c0-1.2,1-2.1,2.1-2.1c1.2,0,2.1,1,2.1,2.1c0,1.2-1,2.1-2.1,2.1C-1353.1-91.9-1354.1-92.8-1354.1-94
		"/>
</g>
<g>
	<circle class="st4" cx="-1226.6" cy="-137.1" r="23"/>
	<g>
		<defs>
			<path id="SVGID_1_" d="M-1250.4-137.3c0,12.4,9.6,22.6,21.8,23.5h3.6c11.7-0.9,21.1-10.4,21.8-22.2v-2.7
				c-0.7-12.4-11-22.2-23.6-22.2C-1239.9-160.9-1250.4-150.4-1250.4-137.3"/>
		</defs>
		<clipPath id="SVGID_2_">
			<use xlink:href="#SVGID_1_"  style="overflow:visible;"/>
		</clipPath>
		<path class="st7" d="M-1203.9-105.8h-12.1c-0.5,0-0.9-0.4-0.9-0.9v-5.2c0-0.5,0.4-0.9,0.9-0.9h12.1c0.5,0,0.9,0.4,0.9,0.9v5.2
			C-1202.9-106.2-1203.3-105.8-1203.9-105.8z M-1217.8-105.8h-12.1c-0.5,0-0.9-0.4-0.9-0.9v-5.2c0-0.5,0.4-0.9,0.9-0.9h12.1
			c0.5,0,0.9,0.4,0.9,0.9v5.2C-1216.9-106.2-1217.3-105.8-1217.8-105.8z M-1231.7-105.8h-12.1c-0.5,0-0.9-0.4-0.9-0.9v-5.2
			c0-0.5,0.4-0.9,0.9-0.9h12.1c0.5,0,0.9,0.4,0.9,0.9v5.2C-1230.8-106.2-1231.2-105.8-1231.7-105.8z M-1245.7-105.8h-12.1
			c-0.5,0-0.9-0.4-0.9-0.9v-5.2c0-0.5,0.4-0.9,0.9-0.9h12.1c0.5,0,0.9,0.4,0.9,0.9v5.2C-1244.8-106.2-1245.2-105.8-1245.7-105.8z
			 M-1196.6-112.8h-12.1c-0.5,0-0.9-0.4-0.9-0.9v-5.2c0-0.5,0.4-0.9,0.9-0.9h12.1c0.5,0,0.9,0.4,0.9,0.9v5.2
			C-1195.7-113.3-1196.1-112.8-1196.6-112.8z M-1210.6-112.8h-12.1c-0.5,0-0.9-0.4-0.9-0.9v-5.2c0-0.5,0.4-0.9,0.9-0.9h12.1
			c0.5,0,0.9,0.4,0.9,0.9v5.2C-1209.7-113.3-1210.1-112.8-1210.6-112.8z M-1224.5-112.8h-12.1c-0.5,0-0.9-0.4-0.9-0.9v-5.2
			c0-0.5,0.4-0.9,0.9-0.9h12.1c0.5,0,0.9,0.4,0.9,0.9v5.2C-1223.5-113.3-1224-112.8-1224.5-112.8z M-1238.5-112.8h-12.1
			c-0.5,0-0.9-0.4-0.9-0.9v-5.2c0-0.5,0.4-0.9,0.9-0.9h12.1c0.5,0,0.9,0.4,0.9,0.9v5.2C-1237.5-113.3-1238-112.8-1238.5-112.8z
			 M-1203.9-120h-12.1c-0.5,0-0.9-0.4-0.9-0.9v-5.2c0-0.5,0.4-0.9,0.9-0.9h12.1c0.5,0,0.9,0.4,0.9,0.9v5.2
			C-1202.9-120.4-1203.3-120-1203.9-120z M-1217.8-120h-12.1c-0.5,0-0.9-0.4-0.9-0.9v-5.2c0-0.5,0.4-0.9,0.9-0.9h12.1
			c0.5,0,0.9,0.4,0.9,0.9v5.2C-1216.9-120.4-1217.3-120-1217.8-120z M-1231.7-120h-12.1c-0.5,0-0.9-0.4-0.9-0.9v-5.2
			c0-0.5,0.4-0.9,0.9-0.9h12.1c0.5,0,0.9,0.4,0.9,0.9v5.2C-1230.8-120.4-1231.2-120-1231.7-120z M-1245.7-120h-12.1
			c-0.5,0-0.9-0.4-0.9-0.9v-5.2c0-0.5,0.4-0.9,0.9-0.9h12.1c0.5,0,0.9,0.4,0.9,0.9v5.2C-1244.8-120.4-1245.2-120-1245.7-120z
			 M-1196.6-127h-12.1c-0.5,0-0.9-0.4-0.9-0.9v-5.2c0-0.5,0.4-0.9,0.9-0.9h12.1c0.5,0,0.9,0.4,0.9,0.9v5.2
			C-1195.7-127.4-1196.1-127-1196.6-127z M-1210.6-127h-12.1c-0.5,0-0.9-0.4-0.9-0.9v-5.2c0-0.5,0.4-0.9,0.9-0.9h12.1
			c0.5,0,0.9,0.4,0.9,0.9v5.2C-1209.7-127.4-1210.1-127-1210.6-127z M-1224.5-127h-12.1c-0.5,0-0.9-0.4-0.9-0.9v-5.2
			c0-0.5,0.4-0.9,0.9-0.9h12.1c0.5,0,0.9,0.4,0.9,0.9v5.2C-1223.5-127.4-1224-127-1224.5-127z M-1238.5-127h-12.1
			c-0.5,0-0.9-0.4-0.9-0.9v-5.2c0-0.5,0.4-0.9,0.9-0.9h12.1c0.5,0,0.9,0.4,0.9,0.9v5.2C-1237.5-127.4-1238-127-1238.5-127z
			 M-1203.9-134.1h-12.1c-0.5,0-0.9-0.4-0.9-0.9v-5.2c0-0.5,0.4-0.9,0.9-0.9h12.1c0.5,0,0.9,0.4,0.9,0.9v5.2
			C-1202.9-134.6-1203.3-134.1-1203.9-134.1z M-1217.8-134.1h-12.1c-0.5,0-0.9-0.4-0.9-0.9v-5.2c0-0.5,0.4-0.9,0.9-0.9h12.1
			c0.5,0,0.9,0.4,0.9,0.9v5.2C-1216.9-134.6-1217.3-134.1-1217.8-134.1z M-1231.7-134.1h-12.1c-0.5,0-0.9-0.4-0.9-0.9v-5.2
			c0-0.5,0.4-0.9,0.9-0.9h12.1c0.5,0,0.9,0.4,0.9,0.9v5.2C-1230.8-134.6-1231.2-134.1-1231.7-134.1z M-1245.7-134.1h-12.1
			c-0.5,0-0.9-0.4-0.9-0.9v-5.2c0-0.5,0.4-0.9,0.9-0.9h12.1c0.5,0,0.9,0.4,0.9,0.9v5.2C-1244.8-134.6-1245.2-134.1-1245.7-134.1z"/>
	</g>
</g>
<circle class="st4" cx="-1164.8" cy="-111.7" r="23"/>
<path class="st8" d="M-1164.7-102.5c-1.2-0.5-5.6-2.7-5.6-7.1v-6.8c2.6-0.1,4.7-1,5.6-1.5c0.9,0.5,3,1.4,5.6,1.5v6.8
	C-1159-105.2-1163.5-103-1164.7-102.5z"/>
<path class="st8" d="M-1162.3-107.6h-4.8v-3.5h4.8V-107.6z M-1166.2-111.1v-1.4c0-0.8,0.7-1.5,1.5-1.5c0.8,0,1.5,0.7,1.5,1.5v1.4"/>
<path class="st8" d="M-1151-118.6l0-1.4c0-0.5-0.4-0.9-0.9-0.9l-12.3,0.1l-3.6-3.6l-8.6,0c-1,0-1.9,0.9-1.9,1.9l0.1,22.7h27.2
	V-118.6z"/>
<g>
	<circle class="st4" cx="-1098.5" cy="-107.3" r="23"/>
	<path class="st8" d="M-1088.1-98.5c0,1.8-1.5,3.3-3.3,3.3c-1.8,0-3.3-1.5-3.3-3.3c0-1.8,1.5-3.3,3.3-3.3
		C-1089.6-101.8-1088.1-100.3-1088.1-98.5z M-1092.2-99.4l0.8,2l1.5-3.9 M-1107.3-102.4h9.1 M-1107.3-105.2h14.7 M-1107.3-108.1
		h14.7 M-1107.3-110.9h14.7 M-1107.3-113.7h9.9 M-1107.3-116.5h9.9 M-1092.7-122.2h6.9v29.8h-25.2v-29.8H-1092.7z"/>
</g>
<circle class="st4" cx="-1035.8" cy="-102.8" r="23"/>
<path class="st8" d="M-1036-97.7v1.1 M-1036-108.4v7.2 M-1036-117l-13.9,24.2h27.9L-1036-117z"/>
<circle class="st4" cx="-962.2" cy="-102.5" r="23"/>
<path class="st8" d="M-962.2-85.1c-2.4-1-11.4-5.4-11.4-14.4v-13.7c5.3-0.1,9.6-2,11.4-3c1.8,1,6,2.8,11.4,3v13.7
	C-950.8-90.5-959.8-86.1-962.2-85.1z"/>
<path class="st8" d="M-957.4-95.5h-9.8v-7.1h9.8V-95.5z M-965.3-102.5v-2.8c0-1.6,1.3-3,3-3c1.6,0,3,1.3,3,3v2.8"/>
<g>
	<path class="st0" d="M-836.4-124.5v-5.9c0-16.5-12.9-30.4-29.4-30.8c-17.1-0.5-31.1,13.2-31.1,30.2l0,23.2h67.2
		c4.2,0,7.7,3.5,7.7,7.7v53.1c0,4.2-3.5,7.7-7.7,7.7c0,0-10.2,0-16.8,0c-3.3,0-6.2-2.3-7-5.5l-4.8-19.9l0,0c3.6-2.9,5.8-7.6,5-12.7
		c-0.9-6-5.8-10.7-11.8-11.4c-8.2-0.9-15.1,5.5-15.1,13.5c0,4.3,2,8.2,5.2,10.6l0,0c0,0-3,12.4-4.8,19.9c-0.8,3.2-3.7,5.5-7,5.5
		h-16.8c-4.2,0-7.7-3.5-7.7-7.7v-53.1"/>
</g>
<g>
	<path class="st9" d="M-960.8-35.4c1.7,0.6,3.7,0.2,5-1.1c1.4-1.4,1.7-3.3,1.1-5l-2.4,2.4c-0.3,0.3-0.8,0.3-1.1,0l-1.8-1.8
		c-0.3-0.3-0.3-0.8,0-1.1l2.4-2.4c-1.7-0.6-3.7-0.2-5,1.1c-1.4,1.4-1.7,3.3-1.1,5L-971-31c-1.7-0.6-3.7-0.2-5,1.1
		c-1.4,1.4-1.7,3.3-1.1,5l2.4-2.4c0.3-0.3,0.8-0.3,1.1,0l1.8,1.8c0.3,0.3,0.3,0.8,0,1.1l-2.4,2.4c1.7,0.6,3.7,0.2,5-1.1
		c1.4-1.4,1.7-3.3,1.1-5l2.2-2.2"/>
	<path class="st9" d="M-966-30.2l-5.8-6.2c-1-1-2.7-1-3.7,0c-0.9,0.9-1,2.4-0.2,3.4l-2,1.3c0,0-3.2-4.8,0.5-8.5
		c1.3-1.3,2.5-2.5,3.6-3.6c0.3,0.1,0.7,0.1,1,0.2c0.3,0.1,0.6-0.2,0.5-0.5l-0.2-1l1.7-1.7l4.6,4.6l-1.6,1.6c-0.5-0.5-1.3-0.5-1.7,0
		c-0.5,0.5-0.5,1.3,0,1.7l12.8,11.9c0.1,0.1,0.2,0.2,0.2,0.2c0.7,0.8,0.7,2,0.1,2.9c-0.9,1.1-2.5,1.2-3.5,0.3c0,0-0.1-0.1-0.1-0.1
		l-4.2-4.4"/>
</g>
<g>
	<path class="st10" d="M-645.1,282.6c-16.8,29.7-59.2,67.7-114.4,99.6c-81.9,47.3-161,63.4-176.8,36c-7.4-12.7,0.3-32.6,18.8-55"/>
	<path class="st10" d="M-698.3,236c29.3-5.1,50.9-1.9,58.3,11c2.6,4.5,3.3,10,2.3,16.1"/>
	<circle class="st10" cx="-640.5" cy="273.2" r="10.5"/>
	<circle class="st10" cx="-791.9" cy="304.7" r="132"/>
</g>
<image style="overflow:visible;" width="1600" height="700" xlink:href="../Dropbox (Muuaaa)/Muuaaa Team Folder/Graphic Design_Gabriel/Neptuno/02 Design/images/slide-22.jpg"  transform="matrix(0.4158 0 0 0.4158 -1082.0441 -209.8901)">
</image>
<image style="overflow:visible;" width="1078" height="516" xlink:href="datacenter-google-1078x516.jpg"  transform="matrix(1 0 0 1 -955.7189 -850.8615)">
</image>
<g>
	<g>
		<g>
			<path class="st11" d="M-61.5,251.5c7.8-13.2,12.3-28.7,12.3-45.2c0-49.1-39.8-88.9-88.9-88.9s-88.9,39.8-88.9,88.9
				c0,16,4.2,30.9,11.6,43.9"/>
			<path class="st11" d="M-205.1,264.5c16.3,18.8,40.3,30.7,67.2,30.7c26.8,0,50.9-11.9,67.2-30.7"/>
			<rect x="-210.6" y="261.3" class="st11" width="45.9" height="3.2"/>
			<g>
				<rect x="-215.3" y="246.2" class="st11" width="55.3" height="15.1"/>
				<line class="st11" x1="-210.7" y1="250.4" x2="-210.7" y2="257"/>
				<line class="st11" x1="-207.2" y1="250.4" x2="-207.2" y2="257"/>
				<line class="st11" x1="-203.8" y1="250.4" x2="-203.8" y2="257"/>
				<line class="st11" x1="-200.3" y1="250.4" x2="-200.3" y2="257"/>
				<line class="st11" x1="-196.8" y1="250.4" x2="-196.8" y2="257"/>
				<line class="st11" x1="-193.3" y1="250.4" x2="-193.3" y2="257"/>
				<circle class="st11" cx="-166.6" cy="253.7" r="2.3"/>
				<circle class="st11" cx="-174.6" cy="253.7" r="2.3"/>
				<circle class="st11" cx="-182.7" cy="253.7" r="2.3"/>
			</g>
			<path class="st11" d="M-205.5,246.2v-19.6c0-1.2,1-2.2,2.2-2.2h0c1.2,0,2.2,1,2.2,2.2v19.6"/>
			<path class="st11" d="M-211.4,214.2c2.1-2.1,5-3.4,8.1-3.4"/>
			<path class="st11" d="M-209.2,217.4c1.5-1.5,3.6-2.4,5.9-2.4"/>
			<path class="st11" d="M-206.9,220.5c0.9-0.9,2.2-1.5,3.6-1.5"/>
			<path class="st11" d="M-195.1,214.2c-2.1-2.1-5-3.4-8.1-3.4"/>
			<path class="st11" d="M-197.4,217.4c-1.5-1.5-3.6-2.4-5.9-2.4"/>
			<path class="st11" d="M-199.6,220.5c-0.9-0.9-2.2-1.5-3.6-1.5"/>
			<path class="st11" d="M-174.2,246.2v-19.6c0-1.2,1-2.2,2.2-2.2l0,0c1.2,0,2.2,1,2.2,2.2v19.6"/>
			<path class="st11" d="M-180.1,214.2c2.1-2.1,5-3.4,8.1-3.4"/>
			<path class="st11" d="M-177.9,217.4c1.5-1.5,3.6-2.4,5.9-2.4"/>
			<path class="st11" d="M-175.6,220.5c0.9-0.9,2.2-1.5,3.6-1.5"/>
			<path class="st11" d="M-163.8,214.2c-2.1-2.1-5-3.4-8.1-3.4"/>
			<path class="st11" d="M-166.1,217.4c-1.5-1.5-3.6-2.4-5.9-2.4"/>
			<path class="st11" d="M-168.3,220.5c-0.9-0.9-2.2-1.5-3.6-1.5"/>
			<rect x="-153.6" y="155.5" class="st11" width="42.5" height="105.8"/>
			<rect x="-148.1" y="161" class="st11" width="31.4" height="8.2"/>
			<rect x="-148.1" y="169.2" class="st11" width="31.4" height="8.2"/>
			<rect x="-148.1" y="177.3" class="st11" width="31.4" height="8.2"/>
			<rect x="-148.1" y="185.5" class="st11" width="31.4" height="8.2"/>
			<rect x="-148.1" y="193.6" class="st11" width="31.4" height="8.2"/>
			<rect x="-148.1" y="201.8" class="st11" width="31.4" height="8.2"/>
			<rect x="-148.1" y="228.1" class="st11" width="31.4" height="23.2"/>
			<circle class="st11" cx="-132.7" cy="239.7" r="2.8"/>
			<g>
				<rect x="-148.1" y="217" class="st11" width="18.6" height="4.1"/>
				<rect x="-120.8" y="217" class="st11" width="4.1" height="4.1"/>
			</g>
			<line class="st11" x1="-135.5" y1="239.7" x2="-148.1" y2="239.7"/>
			<line class="st11" x1="-129.8" y1="239.7" x2="-117.2" y2="239.7"/>
			<rect x="-153.6" y="261.3" class="st11" width="42.5" height="3.2"/>
			<circle class="st11" cx="-81.9" cy="233.7" r="11.7"/>
			<circle class="st11" cx="-81.9" cy="233.7" r="6.4"/>
			<circle class="st11" cx="-81.9" cy="233.7" r="2.6"/>
			<line class="st11" x1="-81.9" y1="245.4" x2="-81.9" y2="251.5"/>
			<g>
				<rect x="-104.8" y="251.5" class="st11" width="44.1" height="9.8"/>
				<line class="st11" x1="-71.4" y1="256.4" x2="-94.1" y2="256.4"/>
			</g>
			<rect x="-101.1" y="261.3" class="st11" width="36.7" height="3.2"/>
		</g>
	</g>
</g>
<g>
	<linearGradient id="SVGID_3_" gradientUnits="userSpaceOnUse" x1="0" y1="84.7118" x2="122.2378" y2="84.7118">
		<stop  offset="0" style="stop-color:#C558A0"/>
		<stop  offset="0.5945" style="stop-color:#7F3E93"/>
		<stop  offset="1" style="stop-color:#532E8B"/>
	</linearGradient>
	<path class="st12" d="M91,62.6l31.3,17.6l-61.4,34.6L0,80.2l30.8-17.5C49.5,52.1,72.3,52,91,62.6z"/>
	<path class="st13" d="M0,80.2v3.6l59.9,34.7c0.4,0.2,0.8,0.2,1.1,0l61.2-34.7v-3.7l-61.4,34.6L0,80.2z"/>
	<path class="st14" d="M85.8,31.9l36.4,20.5L60.9,87L0,52.4L36,32C51.4,23.2,70.3,23.2,85.8,31.9z"/>
	<path class="st15" d="M87.5,6.9l34.8,19.6L60.9,61.1L0,26.5L34.3,7C50.8-2.3,71-2.3,87.5,6.9z"/>
	<path class="st16" d="M0,26.5l0.1,3.6l59.7,34.7c0.4,0.2,0.8,0.2,1.2,0l61.2-34.7v-3.6L60.9,61.1L0,26.5z"/>
	<path class="st17" d="M0,52.4l0.1,3.6l59.7,34.7c0.4,0.2,0.9,0.2,1.3,0L122.2,56v-3.6L60.9,87L0,52.4z"/>
</g>
</svg>
