<?xml version="1.0" encoding="utf-8"?>
<!-- Generator: Adobe Illustrator 21.1.0, SVG Export Plug-In . SVG Version: 6.00 Build 0)  -->
<svg version="1.1" id="Layer_1" xmlns="http://www.w3.org/2000/svg" xmlns:xlink="http://www.w3.org/1999/xlink" x="0px" y="0px"
	 viewBox="0 0 389 394" style="enable-background:new 0 0 389 394;" xml:space="preserve">
<style type="text/css">
	.st0{fill:none;stroke:#662F8F;stroke-width:4;stroke-linecap:round;stroke-linejoin:round;stroke-miterlimit:10;}
	.st1{fill:#662F8F;}
	.st2{fill:none;stroke:#662F8F;stroke-width:2;stroke-linecap:round;stroke-linejoin:round;stroke-miterlimit:10;}
	.st3{fill:none;stroke:#FFFFFF;stroke-width:0.488;stroke-linecap:round;stroke-linejoin:round;stroke-miterlimit:10;}
	.st4{fill:none;stroke:#E73E51;stroke-width:1.6927;}
	.st5{fill:none;stroke:#E73E51;stroke-width:1.1285;stroke-linecap:round;stroke-linejoin:round;stroke-miterlimit:10;}
	.st6{fill:#E73E51;}
	
		.st7{clip-path:url(#SVGID_2_);fill:none;stroke:#E73E51;stroke-width:1.1285;stroke-linecap:round;stroke-linejoin:round;stroke-miterlimit:10;}
	.st8{fill:none;stroke:#EE4050;stroke-width:1.1285;stroke-linecap:round;stroke-linejoin:round;stroke-miterlimit:10;}
	.st9{fill:none;stroke:#FFFFFF;stroke-width:0.574;stroke-linecap:round;stroke-linejoin:round;stroke-miterlimit:10;}
	.st10{fill:none;stroke:#A491C4;stroke-width:0.5657;stroke-miterlimit:10;}
	.st11{fill:none;stroke:#F7F8F9;stroke-width:1.2708;stroke-miterlimit:10;}
	.st12{fill:url(#SVGID_3_);}
	.st13{fill:#9289C1;}
	.st14{fill:#F79F7C;}
	.st15{fill:#EF619B;}
	.st16{fill:#F28BB9;}
	.st17{fill:#FABEA9;}
	.st18{fill:#F37B8A;}
</style>
<g>
	<path class="st0" d="M-1957.1-76.3c9.6-9.6,22.8-15.5,37.3-15.5"/>
	<path class="st0" d="M-1942.7-61.9c5.9-5.9,14-9.5,23-9.5"/>
	<path class="st0" d="M-1985.9-105.1c17.7-17.7,41.2-27.4,66.1-27.4s48.4,9.7,66.1,27.4"/>
	<path class="st0" d="M-1868-90.7c-13.3-13.3-31.6-21.5-51.7-21.5c-20.2,0-38.5,8.2-51.7,21.5"/>
	<path class="st0" d="M-1882.4-76.3c-9.6-9.6-22.8-15.5-37.3-15.5"/>
	<path class="st0" d="M-1896.8-61.9c-5.9-5.9-14-9.5-23-9.5"/>
	<path class="st0" d="M-1911.2-30.4c-2.2,2.2-5.2,3.5-8.6,3.5c-6.7,0-12.1-5.4-12.1-12.1s5.4-12.1,12.1-12.1c3.3,0,6.4,1.4,8.6,3.5"
		/>
	<path class="st0" d="M-1868-90.7c4,4,4,10.4,0,14.4s-10.4,4-14.4,0"/>
	<path class="st0" d="M-1942.7-61.9c-4,4-10.4,4-14.4,0s-4-10.4,0-14.4"/>
	<path class="st0" d="M-1896.8-61.9c4,4,4,10.4,0,14.4s-10.4,4-14.4,0"/>
	<path class="st0" d="M-1971.5-90.7c-4,4-10.4,4-14.4,0c-4-4-4-10.4,0-14.4"/>
</g>
<g>
	<path class="st1" d="M-1774-142.2c-28.7,0-52,23.3-52,52s23.3,52,52,52s52-23.3,52-52S-1745.3-142.2-1774-142.2z M-1774-41.8
		c-26.6,0-48.3-21.7-48.3-48.3s21.7-48.3,48.3-48.3s48.3,21.7,48.3,48.3S-1747.4-41.8-1774-41.8z"/>
	<path class="st1" d="M-1737.5-96c-4.8-4.7-10.4-8.3-16.4-10.7c0-0.3,0.1-0.7,0.1-1c0-11.1-9-20.2-20.2-20.2s-20.2,9-20.2,20.2
		c0,0.6,0,1.1,0.1,1.7c-5.5,2.4-10.5,5.8-14.9,10.1c0,0-0.1,0.1-0.1,0.1c-1.2,1.2-1.8,2.8-1.8,4.5c0,1.7,0.7,3.4,1.9,4.6
		c2.6,2.5,6.7,2.5,9.3,0c0,0,0,0,0,0c3.2-3.1,6.8-5.6,10.8-7.4c2.3,2.5,5.2,4.5,8.5,5.5c-5,1.2-9.6,3.7-13.4,7.4
		c0,0-0.1,0.1-0.1,0.1c-1.3,1.2-1.9,2.9-1.9,4.6c0,1.7,0.7,3.4,1.9,4.6c2.6,2.5,6.7,2.5,9.3,0c0,0,0,0,0,0h0c3-2.9,7-4.5,11.3-4.5
		c4.3,0,8.3,1.6,11.3,4.5c0,0,0,0,0,0c0.8,0.8,1.2,1.8,1.2,2.8c0,1.1-0.4,2.1-1.2,2.8c-1.6,1.6-4.3,1.6-5.9,0c0,0-0.1-0.1-0.1-0.1
		c-1.4-1.3-3.3-2.1-5.3-2.1c-4.2,0-7.6,3.3-7.6,7.5c0,4.1,3.4,7.5,7.6,7.5c2,0,3.9-0.8,5.4-2.2c0.5-0.5,0.5-1.3,0-1.7
		c-0.5-0.5-1.3-0.5-1.7,0c-1,1-2.3,1.5-3.7,1.5c-2.8,0-5.2-2.2-5.2-5c0-2.8,2.3-5,5.2-5c1.4,0,2.7,0.5,3.7,1.5c0,0,0.1,0.1,0.1,0.1
		c2.6,2.4,6.7,2.4,9.2-0.1c1.3-1.2,1.9-2.9,1.9-4.6s-0.7-3.4-1.9-4.6c0,0,0,0,0,0c-3.5-3.4-8.1-5.2-13-5.2c-4.9,0-9.5,1.9-13,5.2
		c0,0,0,0,0,0c-1.6,1.6-4.3,1.6-5.9,0c-0.8-0.8-1.2-1.8-1.2-2.8c0-1,0.4-2,1.1-2.7c0,0,0.1-0.1,0.1-0.1c5-4.9,11.7-7.6,18.8-7.6
		c7.1,0,13.8,2.7,18.8,7.6c0,0,0,0,0,0c2.6,2.5,6.7,2.5,9.3,0c1.3-1.2,1.9-2.9,1.9-4.6c0-1.7-0.7-3.4-1.9-4.6c0,0,0,0,0,0
		c-3.6-3.5-7.7-6.2-12.1-8.1c1.5-2.2,2.5-4.8,3-7.5c5.5,2.3,10.6,5.7,15,9.9c0.5,0.5,1.3,0.5,1.7,0C-1737-94.8-1737-95.5-1737.5-96z
		 M-1801.4-88.6C-1801.4-88.6-1801.4-88.6-1801.4-88.6c-1.6,1.6-4.3,1.6-5.9,0c-0.8-0.8-1.2-1.8-1.2-2.8c0-1.1,0.4-2.1,1.2-2.8
		c0,0,0.1-0.1,0.1-0.1c4-3.9,8.5-6.9,13.5-9.2c0.6,2.7,1.7,5.2,3.3,7.4C-1794.5-94.3-1798.2-91.8-1801.4-88.6z M-1746.8-86.8
		C-1746.8-86.8-1746.8-86.8-1746.8-86.8c0.8,0.8,1.2,1.8,1.2,2.8c0,1.1-0.4,2.1-1.2,2.8c-1.6,1.6-4.3,1.6-5.9,0c0,0,0,0,0,0
		c-4-3.9-9-6.5-14.4-7.7c3.3-1.2,6.1-3.2,8.4-5.8C-1754.3-92.9-1750.3-90.2-1746.8-86.8z M-1774-90.1c-9.8,0-17.7-7.9-17.7-17.7
		c0-9.8,7.9-17.7,17.7-17.7s17.7,7.9,17.7,17.7C-1756.3-98-1764.2-90.1-1774-90.1z"/>
	<path class="st1" d="M-1781.6-109.1h-1.9l0.1-3.7h5.6v-1.5h-7.1l-0.2,6.6h2.9c2.5,0,3.4,1.1,3.4,2.5c0,1.4-1,2.5-2.8,2.5
		c-1.3,0-2.5-0.6-3.4-1.6l-1,1c1.1,1.3,2.6,2,4.4,2c2.4,0,4.5-1.5,4.5-4.2C-1777.1-107.3-1778.6-109.1-1781.6-109.1z"/>
	<path class="st1" d="M-1767.7-108.3v1.5h3.9c-0.3,2.5-1.9,4.1-4.5,4.1c-2.8,0-4.9-2.1-4.9-5.1c0-3,2.2-5.1,5-5.1
		c1.6,0,2.9,0.7,3.8,1.7l1.2-1.2c-1.2-1.3-3-2.1-5-2.1c-3.9,0-6.7,2.8-6.7,6.7c0,4.2,3.2,6.7,6.6,6.7c3.9,0,6.3-3,6.3-6.7
		c0-0.1,0-0.3,0-0.4H-1767.7z"/>
</g>
<g>
	<line class="st2" x1="-1642.1" y1="-56.5" x2="-1642.1" y2="-47.8"/>
	<path class="st2" d="M-1655.8-47.8c-2.8,0-5.2-2.3-5.2-5.2v-77.8c0-2.8,2.3-5.2,5.2-5.2h69.9c2.8,0,5.2,2.3,5.2,5.2V-53
		c0,2.8-2.3,5.2-5.2,5.2h-56.2"/>
	<path class="st2" d="M-1642.1-56.5h-5c-2.8,0-5.2-2.3-5.2-5.2v-60.4c0-2.8,2.3-5.2,5.2-5.2h10.1c2.8,0,5.2,2.3,5.2,5.2v60.4"/>
	<g>
		<g>
			<circle class="st2" cx="-1620.2" cy="-106.7" r="3.8"/>
			<circle class="st2" cx="-1606.3" cy="-106.7" r="3.8"/>
			<circle class="st2" cx="-1592.4" cy="-106.7" r="3.8"/>
			<circle class="st2" cx="-1620.2" cy="-92.8" r="3.8"/>
			<circle class="st2" cx="-1606.3" cy="-92.8" r="3.8"/>
			<circle class="st2" cx="-1592.4" cy="-92.8" r="3.8"/>
			<circle class="st2" cx="-1620.2" cy="-78.9" r="3.8"/>
			<circle class="st2" cx="-1606.3" cy="-78.9" r="3.8"/>
			<circle class="st2" cx="-1592.4" cy="-78.9" r="3.8"/>
			<circle class="st2" cx="-1620.2" cy="-65" r="3.8"/>
			<circle class="st2" cx="-1606.3" cy="-65" r="3.8"/>
			<circle class="st2" cx="-1592.4" cy="-65" r="3.8"/>
		</g>
		<line class="st2" x1="-1623.9" y1="-122.6" x2="-1588.6" y2="-122.6"/>
	</g>
</g>
<g>
	<path class="st3" d="M-1724.8,55.9v-1c0-2.7-2.1-4.9-4.8-5c-2.8-0.1-5.1,2.2-5.1,4.9l0,3.8h10.9c0.7,0,1.3,0.6,1.3,1.3v8.6
		c0,0.7-0.6,1.3-1.3,1.3h-2.7c-0.5,0-1-0.4-1.1-0.9l-0.8-3.2v0c0.6-0.5,0.9-1.2,0.8-2.1c-0.1-1-1-1.7-1.9-1.9
		c-1.3-0.1-2.5,0.9-2.5,2.2c0,0.7,0.3,1.3,0.8,1.7h0c0,0-0.5,2-0.8,3.2c-0.1,0.5-0.6,0.9-1.1,0.9h-2.7c-0.7,0-1.3-0.6-1.3-1.3v-8.6"
		/>
</g>
<g>
	<circle class="st4" cx="-1606.5" cy="63.2" r="23"/>
	<path class="st5" d="M-1629.7,63.2l23.2-0.1 M-1606.6,63V40V63z M-1594.9,63c0,6.4-5.2,11.6-11.6,11.6c-6.4,0-11.7-5.2-11.7-11.6
		c0-6.4,5.2-11.6,11.7-11.6C-1600.1,51.4-1594.9,56.6-1594.9,63z M-1589.3,63c0,9.5-7.7,17.3-17.3,17.3c-9.5,0-17.3-7.7-17.3-17.3
		c0-9.5,7.7-17.3,17.3-17.3C-1597,45.8-1589.3,53.5-1589.3,63z"/>
	<path class="st6" d="M-1622.2,57.8c1.2,0,2.2-1,2.2-2.2c0-1.2-1-2.2-2.2-2.2c-1.2,0-2.2,1-2.2,2.2
		C-1624.4,56.8-1623.4,57.8-1622.2,57.8"/>
</g>
<g>
	<circle class="st4" cx="-1664.9" cy="63.6" r="23"/>
	<path class="st5" d="M-1654.2,56.3l7.1,7.2 M-1654.2,56.3l-7.1,10.3 M-1668.3,70.8l7.1-4.2 M-1668.3,70.8l-7.1-9.5 M-1682.4,66.2
		l7.1-4.9"/>
	<path class="st6" d="M-1677.4,61.2c0-1.2,1-2.1,2.1-2.1c1.2,0,2.1,1,2.1,2.1c0,1.2-1,2.1-2.1,2.1
		C-1676.5,63.4-1677.4,62.4-1677.4,61.2"/>
	<path class="st6" d="M-1670.4,70.8c0-1.2,1-2.1,2.1-2.1s2.1,1,2.1,2.1c0,1.2-1,2.1-2.1,2.1S-1670.4,71.9-1670.4,70.8"/>
	<path class="st6" d="M-1663.3,66.6c0-1.2,1-2.1,2.1-2.1s2.1,1,2.1,2.1c0,1.2-1,2.1-2.1,2.1S-1663.3,67.8-1663.3,66.6"/>
	<path class="st6" d="M-1656.3,56.3c0-1.2,1-2.1,2.1-2.1s2.1,1,2.1,2.1c0,1.2-1,2.1-2.1,2.1S-1656.3,57.5-1656.3,56.3"/>
	<path class="st6" d="M-1649.4,63.4c0-1.2,1-2.1,2.1-2.1s2.1,1,2.1,2.1c0,1.2-1,2.1-2.1,2.1S-1649.4,64.5-1649.4,63.4"/>
	<path class="st6" d="M-1684.2,66c0-1.2,1-2.1,2.1-2.1c1.2,0,2.1,1,2.1,2.1c0,1.2-1,2.1-2.1,2.1C-1683.3,68.1-1684.2,67.2-1684.2,66
		"/>
</g>
<g>
	<circle class="st4" cx="-1556.8" cy="22.9" r="23"/>
	<g>
		<defs>
			<path id="SVGID_1_" d="M-1580.6,22.7c0,12.4,9.6,22.6,21.8,23.5h3.6c11.7-0.9,21.1-10.4,21.8-22.2v-2.7
				c-0.7-12.4-11-22.2-23.6-22.2C-1570-0.9-1580.6,9.6-1580.6,22.7"/>
		</defs>
		<clipPath id="SVGID_2_">
			<use xlink:href="#SVGID_1_"  style="overflow:visible;"/>
		</clipPath>
		<path class="st7" d="M-1534,54.2h-12.1c-0.5,0-0.9-0.4-0.9-0.9v-5.2c0-0.5,0.4-0.9,0.9-0.9h12.1c0.5,0,0.9,0.4,0.9,0.9v5.2
			C-1533.1,53.8-1533.5,54.2-1534,54.2z M-1548,54.2h-12.1c-0.5,0-0.9-0.4-0.9-0.9v-5.2c0-0.5,0.4-0.9,0.9-0.9h12.1
			c0.5,0,0.9,0.4,0.9,0.9v5.2C-1547,53.8-1547.5,54.2-1548,54.2z M-1561.9,54.2h-12.1c-0.5,0-0.9-0.4-0.9-0.9v-5.2
			c0-0.5,0.4-0.9,0.9-0.9h12.1c0.5,0,0.9,0.4,0.9,0.9v5.2C-1560.9,53.8-1561.4,54.2-1561.9,54.2z M-1575.9,54.2h-12.1
			c-0.5,0-0.9-0.4-0.9-0.9v-5.2c0-0.5,0.4-0.9,0.9-0.9h12.1c0.5,0,0.9,0.4,0.9,0.9v5.2C-1574.9,53.8-1575.4,54.2-1575.9,54.2z
			 M-1526.7,47.2h-12.1c-0.5,0-0.9-0.4-0.9-0.9V41c0-0.5,0.4-0.9,0.9-0.9h12.1c0.5,0,0.9,0.4,0.9,0.9v5.2
			C-1525.8,46.8-1526.2,47.2-1526.7,47.2z M-1540.7,47.2h-12.1c-0.5,0-0.9-0.4-0.9-0.9V41c0-0.5,0.4-0.9,0.9-0.9h12.1
			c0.5,0,0.9,0.4,0.9,0.9v5.2C-1539.8,46.8-1540.2,47.2-1540.7,47.2z M-1554.6,47.2h-12.1c-0.5,0-0.9-0.4-0.9-0.9V41
			c0-0.5,0.4-0.9,0.9-0.9h12.1c0.5,0,0.9,0.4,0.9,0.9v5.2C-1553.7,46.8-1554.1,47.2-1554.6,47.2z M-1568.6,47.2h-12.1
			c-0.5,0-0.9-0.4-0.9-0.9V41c0-0.5,0.4-0.9,0.9-0.9h12.1c0.5,0,0.9,0.4,0.9,0.9v5.2C-1567.7,46.8-1568.1,47.2-1568.6,47.2z
			 M-1534,40.1h-12.1c-0.5,0-0.9-0.4-0.9-0.9v-5.2c0-0.5,0.4-0.9,0.9-0.9h12.1c0.5,0,0.9,0.4,0.9,0.9v5.2
			C-1533.1,39.6-1533.5,40.1-1534,40.1z M-1548,40.1h-12.1c-0.5,0-0.9-0.4-0.9-0.9v-5.2c0-0.5,0.4-0.9,0.9-0.9h12.1
			c0.5,0,0.9,0.4,0.9,0.9v5.2C-1547,39.6-1547.5,40.1-1548,40.1z M-1561.9,40.1h-12.1c-0.5,0-0.9-0.4-0.9-0.9v-5.2
			c0-0.5,0.4-0.9,0.9-0.9h12.1c0.5,0,0.9,0.4,0.9,0.9v5.2C-1560.9,39.6-1561.4,40.1-1561.9,40.1z M-1575.9,40.1h-12.1
			c-0.5,0-0.9-0.4-0.9-0.9v-5.2c0-0.5,0.4-0.9,0.9-0.9h12.1c0.5,0,0.9,0.4,0.9,0.9v5.2C-1574.9,39.6-1575.4,40.1-1575.9,40.1z
			 M-1526.7,33h-12.1c-0.5,0-0.9-0.4-0.9-0.9v-5.2c0-0.5,0.4-0.9,0.9-0.9h12.1c0.5,0,0.9,0.4,0.9,0.9v5.2
			C-1525.8,32.6-1526.2,33-1526.7,33z M-1540.7,33h-12.1c-0.5,0-0.9-0.4-0.9-0.9v-5.2c0-0.5,0.4-0.9,0.9-0.9h12.1
			c0.5,0,0.9,0.4,0.9,0.9v5.2C-1539.8,32.6-1540.2,33-1540.7,33z M-1554.6,33h-12.1c-0.5,0-0.9-0.4-0.9-0.9v-5.2
			c0-0.5,0.4-0.9,0.9-0.9h12.1c0.5,0,0.9,0.4,0.9,0.9v5.2C-1553.7,32.6-1554.1,33-1554.6,33z M-1568.6,33h-12.1
			c-0.5,0-0.9-0.4-0.9-0.9v-5.2c0-0.5,0.4-0.9,0.9-0.9h12.1c0.5,0,0.9,0.4,0.9,0.9v5.2C-1567.7,32.6-1568.1,33-1568.6,33z
			 M-1534,25.9h-12.1c-0.5,0-0.9-0.4-0.9-0.9v-5.2c0-0.5,0.4-0.9,0.9-0.9h12.1c0.5,0,0.9,0.4,0.9,0.9v5.2
			C-1533.1,25.4-1533.5,25.9-1534,25.9z M-1548,25.9h-12.1c-0.5,0-0.9-0.4-0.9-0.9v-5.2c0-0.5,0.4-0.9,0.9-0.9h12.1
			c0.5,0,0.9,0.4,0.9,0.9v5.2C-1547,25.4-1547.5,25.9-1548,25.9z M-1561.9,25.9h-12.1c-0.5,0-0.9-0.4-0.9-0.9v-5.2
			c0-0.5,0.4-0.9,0.9-0.9h12.1c0.5,0,0.9,0.4,0.9,0.9v5.2C-1560.9,25.4-1561.4,25.9-1561.9,25.9z M-1575.9,25.9h-12.1
			c-0.5,0-0.9-0.4-0.9-0.9v-5.2c0-0.5,0.4-0.9,0.9-0.9h12.1c0.5,0,0.9,0.4,0.9,0.9v5.2C-1574.9,25.4-1575.4,25.9-1575.9,25.9z"/>
	</g>
</g>
<circle class="st4" cx="-1494.9" cy="48.3" r="23"/>
<path class="st8" d="M-1494.8,57.5c-1.2-0.5-5.6-2.7-5.6-7.1v-6.8c2.6-0.1,4.7-1,5.6-1.5c0.9,0.5,3,1.4,5.6,1.5v6.8
	C-1489.2,54.8-1493.6,57-1494.8,57.5z"/>
<path class="st8" d="M-1492.4,52.4h-4.8v-3.5h4.8V52.4z M-1496.3,48.9v-1.4c0-0.8,0.7-1.5,1.5-1.5c0.8,0,1.5,0.7,1.5,1.5v1.4"/>
<path class="st8" d="M-1481.1,41.4l0-1.4c0-0.5-0.4-0.9-0.9-0.9l-12.3,0.1l-3.6-3.6l-8.6,0c-1,0-1.9,0.9-1.9,1.9l0.1,22.7h27.2V41.4
	z"/>
<g>
	<circle class="st4" cx="-1428.7" cy="52.8" r="23"/>
	<path class="st8" d="M-1418.2,61.5c0,1.8-1.5,3.3-3.3,3.3s-3.3-1.5-3.3-3.3c0-1.8,1.5-3.3,3.3-3.3S-1418.2,59.7-1418.2,61.5z
		 M-1422.3,60.6l0.8,2l1.5-3.9 M-1437.4,57.6h9.1 M-1437.4,54.8h14.7 M-1437.4,52h14.7 M-1437.4,49.1h14.7 M-1437.4,46.3h9.9
		 M-1437.4,43.5h9.9 M-1422.8,37.8h6.9v29.8h-25.2V37.8H-1422.8z"/>
</g>
<circle class="st4" cx="-1365.9" cy="57.2" r="23"/>
<path class="st8" d="M-1366.1,62.4v1.1 M-1366.1,51.6v7.2 M-1366.1,43.1l-13.9,24.2h27.9L-1366.1,43.1z"/>
<circle class="st4" cx="-1292.4" cy="57.5" r="23"/>
<path class="st8" d="M-1292.4,74.9c-2.4-1-11.4-5.4-11.4-14.4V46.8c5.3-0.1,9.6-2,11.4-3c1.8,1,6,2.8,11.4,3v13.7
	C-1281,69.5-1290,73.9-1292.4,74.9z"/>
<path class="st8" d="M-1287.5,64.5h-9.8v-7.1h9.8V64.5z M-1295.4,57.5v-2.8c0-1.6,1.3-3,3-3c1.6,0,3,1.3,3,3v2.8"/>
<g>
	<path class="st0" d="M-1166.5,35.5v-5.9c0-16.5-12.9-30.4-29.4-30.8C-1213-1.7-1227,12-1227,28.9l0,23.2h67.2
		c4.2,0,7.7,3.5,7.7,7.7v53.1c0,4.2-3.5,7.7-7.7,7.7c0,0-10.2,0-16.8,0c-3.3,0-6.2-2.3-7-5.5l-4.8-19.9l0,0c3.6-2.9,5.8-7.6,5-12.7
		c-0.9-6-5.8-10.7-11.8-11.4c-8.2-0.9-15.1,5.5-15.1,13.5c0,4.3,2,8.2,5.2,10.6l0,0c0,0-3,12.4-4.8,19.9c-0.8,3.2-3.7,5.5-7,5.5
		h-16.8c-4.2,0-7.7-3.5-7.7-7.7V59.8"/>
</g>
<g>
	<path class="st9" d="M-1290.9,124.6c1.7,0.6,3.7,0.2,5-1.1c1.4-1.4,1.7-3.3,1.1-5l-2.4,2.4c-0.3,0.3-0.8,0.3-1.1,0l-1.8-1.8
		c-0.3-0.3-0.3-0.8,0-1.1l2.4-2.4c-1.7-0.6-3.7-0.2-5,1.1c-1.4,1.4-1.7,3.3-1.1,5l-7.4,7.4c-1.7-0.6-3.7-0.2-5,1.1
		c-1.4,1.4-1.7,3.3-1.1,5l2.4-2.4c0.3-0.3,0.8-0.3,1.1,0l1.8,1.8c0.3,0.3,0.3,0.8,0,1.1l-2.4,2.4c1.7,0.6,3.7,0.2,5-1.1
		c1.4-1.4,1.7-3.3,1.1-5l2.2-2.2"/>
	<path class="st9" d="M-1296.1,129.8l-5.8-6.2c-1-1-2.7-1-3.7,0c-0.9,0.9-1,2.4-0.2,3.4l-2,1.3c0,0-3.2-4.8,0.5-8.5
		c1.3-1.3,2.5-2.5,3.6-3.6c0.3,0.1,0.7,0.1,1,0.2c0.3,0.1,0.6-0.2,0.5-0.5l-0.2-1l1.7-1.7l4.6,4.6l-1.6,1.6c-0.5-0.5-1.3-0.5-1.7,0
		c-0.5,0.5-0.5,1.3,0,1.7l12.8,11.9c0.1,0.1,0.2,0.2,0.2,0.2c0.7,0.8,0.7,2,0.1,2.9c-0.9,1.1-2.5,1.2-3.5,0.3c0,0-0.1-0.1-0.1-0.1
		l-4.2-4.4"/>
</g>
<g>
	<path class="st10" d="M-975.2,442.6c-16.8,29.7-59.2,67.7-114.4,99.6c-81.9,47.3-161,63.4-176.8,36c-7.4-12.7,0.3-32.6,18.8-55"/>
	<path class="st10" d="M-1028.4,396c29.3-5.1,50.9-1.9,58.3,11c2.6,4.5,3.3,10,2.3,16.1"/>
	<circle class="st10" cx="-970.6" cy="433.2" r="10.5"/>
	<circle class="st10" cx="-1122.1" cy="464.8" r="132"/>
</g>
<image style="overflow:visible;" width="1600" height="700" xlink:href="../Dropbox (Muuaaa)/Muuaaa Team Folder/Graphic Design_Gabriel/Neptuno/02 Design/images/slide-22.jpg"  transform="matrix(0.4158 0 0 0.4158 -1412.1733 -49.8752)">
</image>
<image style="overflow:visible;" width="1078" height="516" xlink:href="datacenter-google-1078x516.jpg"  transform="matrix(1 0 0 1 -1285.8481 -690.8466)">
</image>
<g>
	<g>
		<g>
			<path class="st11" d="M-391.6,411.5c7.8-13.2,12.3-28.7,12.3-45.2c0-49.1-39.8-88.9-88.9-88.9s-88.9,39.8-88.9,88.9
				c0,16,4.2,30.9,11.6,43.9"/>
			<path class="st11" d="M-535.3,424.5c16.3,18.8,40.3,30.7,67.2,30.7c26.8,0,50.9-11.9,67.2-30.7"/>
			<rect x="-540.7" y="421.3" class="st11" width="45.9" height="3.2"/>
			<g>
				<rect x="-545.4" y="406.2" class="st11" width="55.3" height="15.1"/>
				<line class="st11" x1="-540.8" y1="410.4" x2="-540.8" y2="417"/>
				<line class="st11" x1="-537.4" y1="410.4" x2="-537.4" y2="417"/>
				<line class="st11" x1="-533.9" y1="410.4" x2="-533.9" y2="417"/>
				<line class="st11" x1="-530.4" y1="410.4" x2="-530.4" y2="417"/>
				<line class="st11" x1="-526.9" y1="410.4" x2="-526.9" y2="417"/>
				<line class="st11" x1="-523.5" y1="410.4" x2="-523.5" y2="417"/>
				<circle class="st11" cx="-496.8" cy="413.7" r="2.3"/>
				<circle class="st11" cx="-504.8" cy="413.7" r="2.3"/>
				<circle class="st11" cx="-512.8" cy="413.7" r="2.3"/>
			</g>
			<path class="st11" d="M-535.6,406.2v-19.6c0-1.2,1-2.2,2.2-2.2l0,0c1.2,0,2.2,1,2.2,2.2v19.6"/>
			<path class="st11" d="M-541.5,374.2c2.1-2.1,5-3.4,8.1-3.4"/>
			<path class="st11" d="M-539.3,377.4c1.5-1.5,3.6-2.4,5.9-2.4"/>
			<path class="st11" d="M-537,380.6c0.9-0.9,2.2-1.5,3.6-1.5"/>
			<path class="st11" d="M-525.3,374.2c-2.1-2.1-5-3.4-8.1-3.4"/>
			<path class="st11" d="M-527.5,377.4c-1.5-1.5-3.6-2.4-5.9-2.4"/>
			<path class="st11" d="M-529.8,380.6c-0.9-0.9-2.2-1.5-3.6-1.5"/>
			<path class="st11" d="M-504.3,406.2v-19.6c0-1.2,1-2.2,2.2-2.2h0c1.2,0,2.2,1,2.2,2.2v19.6"/>
			<path class="st11" d="M-510.2,374.2c2.1-2.1,5-3.4,8.1-3.4"/>
			<path class="st11" d="M-508,377.4c1.5-1.5,3.6-2.4,5.9-2.4"/>
			<path class="st11" d="M-505.8,380.6c0.9-0.9,2.2-1.5,3.6-1.5"/>
			<path class="st11" d="M-494,374.2c-2.1-2.1-5-3.4-8.1-3.4"/>
			<path class="st11" d="M-496.2,377.4c-1.5-1.5-3.6-2.4-5.9-2.4"/>
			<path class="st11" d="M-498.5,380.6c-0.9-0.9-2.2-1.5-3.6-1.5"/>
			<rect x="-483.8" y="315.5" class="st11" width="42.5" height="105.8"/>
			<rect x="-478.2" y="321" class="st11" width="31.4" height="8.2"/>
			<rect x="-478.2" y="329.2" class="st11" width="31.4" height="8.2"/>
			<rect x="-478.2" y="337.4" class="st11" width="31.4" height="8.2"/>
			<rect x="-478.2" y="345.5" class="st11" width="31.4" height="8.2"/>
			<rect x="-478.2" y="353.7" class="st11" width="31.4" height="8.2"/>
			<rect x="-478.2" y="361.8" class="st11" width="31.4" height="8.2"/>
			<rect x="-478.2" y="388.1" class="st11" width="31.4" height="23.2"/>
			<circle class="st11" cx="-462.8" cy="399.7" r="2.8"/>
			<g>
				<rect x="-478.2" y="377" class="st11" width="18.6" height="4.1"/>
				<rect x="-450.9" y="377" class="st11" width="4.1" height="4.1"/>
			</g>
			<line class="st11" x1="-465.6" y1="399.7" x2="-478.2" y2="399.7"/>
			<line class="st11" x1="-460" y1="399.7" x2="-447.3" y2="399.7"/>
			<rect x="-483.8" y="421.3" class="st11" width="42.5" height="3.2"/>
			<circle class="st11" cx="-412.1" cy="393.7" r="11.7"/>
			<circle class="st11" cx="-412.1" cy="393.7" r="6.4"/>
			<circle class="st11" cx="-412.1" cy="393.7" r="2.6"/>
			<line class="st11" x1="-412.1" y1="405.4" x2="-412.1" y2="411.5"/>
			<g>
				<rect x="-434.9" y="411.5" class="st11" width="44.1" height="9.8"/>
				<line class="st11" x1="-401.5" y1="416.4" x2="-424.2" y2="416.4"/>
			</g>
			<rect x="-431.2" y="421.3" class="st11" width="36.7" height="3.2"/>
		</g>
	</g>
</g>
<g>
	<linearGradient id="SVGID_3_" gradientUnits="userSpaceOnUse" x1="-330.1293" y1="244.7267" x2="-207.8915" y2="244.7267">
		<stop  offset="0" style="stop-color:#C558A0"/>
		<stop  offset="0.5945" style="stop-color:#7F3E93"/>
		<stop  offset="1" style="stop-color:#532E8B"/>
	</linearGradient>
	<path class="st12" d="M-239.2,222.6l31.3,17.6l-61.4,34.6l-60.9-34.6l30.8-17.5C-280.7,212.1-257.8,212.1-239.2,222.6z"/>
	<path class="st13" d="M-330.1,240.2v3.6l59.9,34.7c0.4,0.2,0.8,0.2,1.1,0l61.2-34.7v-3.7l-61.4,34.6L-330.1,240.2z"/>
	<path class="st14" d="M-244.3,191.9l36.4,20.5l-61.4,34.6l-60.9-34.6l36-20.4C-278.7,183.2-259.8,183.2-244.3,191.9z"/>
	<path class="st15" d="M-242.7,167l34.8,19.6l-61.4,34.6l-60.9-34.6l34.3-19.5C-279.3,157.7-259.2,157.7-242.7,167z"/>
	<path class="st16" d="M-330.1,186.5l0.1,3.6l59.7,34.7c0.4,0.2,0.8,0.2,1.2,0l61.2-34.7v-3.6l-61.4,34.6L-330.1,186.5z"/>
	<path class="st17" d="M-330.1,212.4l0.1,3.6l59.7,34.7c0.4,0.2,0.9,0.2,1.3,0l61.1-34.7v-3.6l-61.4,34.6L-330.1,212.4z"/>
</g>
<g>
	<g>
		<path class="st18" d="M211.3,148.2l-76.2,129.5c-1.5,2.5,0.3,5.7,3.3,5.7h61.4c0.7,0,1.3,0.6,1.2,1.4l-13.6,101.2
			c-0.4,3.3,4,4.9,5.7,2l94.1-155.8c1.4-2.3-0.3-5.2-2.9-5.2h-74.4c-0.7,0-1.3-0.6-1.2-1.3l8-75.7
			C217,146.9,212.9,145.5,211.3,148.2z"/>
	</g>
	<g>
		<g>
			<path class="st1" d="M71.8,251.5c-28.5-17-50.1-44.3-59.4-76.2c-9.1-31-6.3-65.2,7.9-94.2c28.1-57.4,95.2-86.9,156.5-68.2
				C212,23.5,241,49.2,257,82.2c2,4.1,8.2,0.5,6.2-3.6c-14.9-30.8-40.8-55.3-72.4-68.3c-31.7-13-68.2-13.7-100.3-1.8
				C60.7,19.5,35.2,40.8,19.1,68.1C1.9,97.1-3.8,131.9,2.5,165c7.4,38.7,31.9,72.6,65.7,92.7C72.1,260.1,75.7,253.9,71.8,251.5
				L71.8,251.5z"/>
		</g>
	</g>
	<g>
		<g>
			<path class="st1" d="M261,83.8c47.3-13.1,98.5,12.1,115.3,58.7c15.6,43.4-2.9,92.9-43.1,115.3c-25.3,14.1-55.7,15.3-82.5,4.6
				c-4.3-1.7-6.1,5.2-1.9,6.9c49.2,19.8,107.2-2.1,130.2-50.1c21.5-44.9,6.9-99.8-33.9-128.2c-25-17.4-56.8-22.2-86-14.1
				C254.7,78.2,256.6,85.1,261,83.8L261,83.8z"/>
		</g>
	</g>
	<g>
		<g>
			<path class="st1" d="M252.9,267.6c9.8-16.3,19.7-32.6,29.5-48.9c1.4-2.3-0.4-5.4-3.1-5.4c-27.2,0-54.3,0-81.5,0
				c1.2,1.2,2.4,2.4,3.6,3.6c3.8-28.3,7.6-56.6,11.3-84.9c0.6-4.1,1.1-8.2,1.7-12.3c0.5-3.7-5-4.6-6.7-1.8
				c-10.1,17.3-20.1,34.5-30.2,51.8c-16.1,27.5-32.2,55.1-48.3,82.6c-3.7,6.4-7.5,12.8-11.2,19.2c-1.4,2.3,0.4,5.4,3.1,5.4
				c23,0,46.1,0,69.1,0c-1.2-1.2-2.4-2.4-3.6-3.6c-4.6,34.3-9.2,68.6-13.8,102.9c-0.6,4.8-1.3,9.6-1.9,14.4c-0.5,3.7,5,4.6,6.7,1.8
				c15.8-26.3,31.7-52.5,47.5-78.8c2.3-3.8,4.5-7.5,6.8-11.3c2.4-4-3.8-7.6-6.2-3.6c-15.8,26.3-31.7,52.5-47.5,78.8
				c-2.3,3.8-4.5,7.5-6.8,11.3c2.2,0.6,4.4,1.2,6.7,1.8c4.6-34.3,9.2-68.6,13.8-102.9c0.6-4.8,1.3-9.6,1.9-14.4
				c0.3-1.9-1.8-3.6-3.6-3.6c-23,0-46.1,0-69.1,0c1,1.8,2.1,3.6,3.1,5.4c10.1-17.3,20.1-34.5,30.2-51.8
				c16.1-27.5,32.2-55.1,48.3-82.6c3.7-6.4,7.5-12.8,11.2-19.2c-2.2-0.6-4.4-1.2-6.7-1.8c-3.8,28.3-7.6,56.6-11.3,84.9
				c-0.6,4.1-1.1,8.2-1.7,12.3c-0.3,1.9,1.8,3.6,3.6,3.6c27.2,0,54.3,0,81.5,0c-1-1.8-2.1-3.6-3.1-5.4
				c-9.8,16.3-19.7,32.6-29.5,48.9C244.3,267.9,250.5,271.5,252.9,267.6L252.9,267.6z"/>
		</g>
	</g>
</g>
</svg>
