<?xml version="1.0" encoding="utf-8"?>
<!-- Generator: Adobe Illustrator 21.1.0, SVG Export Plug-In . SVG Version: 6.00 Build 0)  -->
<svg version="1.1" id="Layer_1" xmlns="http://www.w3.org/2000/svg" xmlns:xlink="http://www.w3.org/1999/xlink" x="0px" y="0px"
	 viewBox="0 0 15 20.3" style="enable-background:new 0 0 15 20.3;" xml:space="preserve">
<style type="text/css">
	.st0{fill:none;stroke:#662F8F;stroke-width:4;stroke-linecap:round;stroke-linejoin:round;stroke-miterlimit:10;}
	.st1{fill:#662F8F;}
	.st2{fill:none;stroke:#662F8F;stroke-width:2;stroke-linecap:round;stroke-linejoin:round;stroke-miterlimit:10;}
	.st3{fill:none;stroke:#FFFFFF;stroke-width:0.488;stroke-linecap:round;stroke-linejoin:round;stroke-miterlimit:10;}
</style>
<g>
	<path class="st0" d="M-219.9-125.9c9.6-9.6,22.8-15.5,37.3-15.5"/>
	<path class="st0" d="M-205.5-111.6c5.9-5.9,14-9.5,23-9.5"/>
	<path class="st0" d="M-248.7-154.7c17.7-17.7,41.2-27.4,66.1-27.4c25,0,48.4,9.7,66.1,27.4"/>
	<path class="st0" d="M-130.8-140.3c-13.3-13.3-31.6-21.5-51.7-21.5s-38.5,8.2-51.7,21.5"/>
	<path class="st0" d="M-145.2-125.9c-9.6-9.6-22.8-15.5-37.3-15.5"/>
	<path class="st0" d="M-159.6-111.6c-5.9-5.9-14-9.5-23-9.5"/>
	<path class="st0" d="M-174-80.1c-2.2,2.2-5.2,3.5-8.6,3.5c-6.7,0-12.1-5.4-12.1-12.1s5.4-12.1,12.1-12.1c3.3,0,6.4,1.4,8.6,3.5"/>
	<path class="st0" d="M-130.8-140.3c4,4,4,10.4,0,14.4c-4,4-10.4,4-14.4,0"/>
	<path class="st0" d="M-205.5-111.6c-4,4-10.4,4-14.4,0c-4-4-4-10.4,0-14.4"/>
	<path class="st0" d="M-159.6-111.6c4,4,4,10.4,0,14.4c-4,4-10.4,4-14.4,0"/>
	<path class="st0" d="M-234.3-140.3c-4,4-10.4,4-14.4,0c-4-4-4-10.4,0-14.4"/>
</g>
<g>
	<path class="st1" d="M-36.8-191.8c-28.7,0-52,23.3-52,52s23.3,52,52,52s52-23.3,52-52S-8.1-191.8-36.8-191.8z M-36.8-91.5
		c-26.6,0-48.3-21.7-48.3-48.3s21.7-48.3,48.3-48.3s48.3,21.7,48.3,48.3S-10.2-91.5-36.8-91.5z"/>
	<path class="st1" d="M-0.2-145.7c-4.8-4.7-10.4-8.3-16.4-10.7c0-0.3,0.1-0.7,0.1-1c0-11.1-9-20.2-20.2-20.2s-20.2,9-20.2,20.2
		c0,0.6,0,1.1,0.1,1.7c-5.5,2.4-10.5,5.8-14.9,10.1c0,0-0.1,0.1-0.1,0.1c-1.2,1.2-1.8,2.8-1.8,4.5c0,1.7,0.7,3.4,1.9,4.6
		c2.6,2.5,6.7,2.5,9.3,0c0,0,0,0,0,0c3.2-3.1,6.8-5.6,10.8-7.4c2.3,2.5,5.2,4.5,8.5,5.5c-5,1.2-9.6,3.7-13.4,7.4
		c0,0-0.1,0.1-0.1,0.1c-1.3,1.2-1.9,2.9-1.9,4.6c0,1.7,0.7,3.4,1.9,4.6c2.6,2.5,6.7,2.5,9.3,0c0,0,0,0,0,0h0c3-2.9,7-4.5,11.3-4.5
		c4.3,0,8.3,1.6,11.3,4.5c0,0,0,0,0,0c0.8,0.8,1.2,1.8,1.2,2.8c0,1.1-0.4,2.1-1.2,2.8c-1.6,1.6-4.3,1.6-5.9,0c0,0-0.1-0.1-0.1-0.1
		c-1.4-1.3-3.3-2.1-5.3-2.1c-4.2,0-7.6,3.3-7.6,7.5c0,4.1,3.4,7.5,7.6,7.5c2,0,3.9-0.8,5.4-2.2c0.5-0.5,0.5-1.3,0-1.7
		c-0.5-0.5-1.3-0.5-1.7,0c-1,1-2.3,1.5-3.7,1.5c-2.8,0-5.2-2.2-5.2-5c0-2.8,2.3-5,5.2-5c1.4,0,2.7,0.5,3.7,1.5c0,0,0.1,0.1,0.1,0.1
		c2.6,2.4,6.7,2.4,9.2-0.1c1.3-1.2,1.9-2.9,1.9-4.6s-0.7-3.4-1.9-4.6c0,0,0,0,0,0c-3.5-3.4-8.1-5.2-13-5.2c-4.9,0-9.5,1.9-13,5.2
		c0,0,0,0,0,0c-1.6,1.6-4.3,1.6-5.9,0c-0.8-0.8-1.2-1.8-1.2-2.8c0-1,0.4-2,1.1-2.7c0,0,0.1-0.1,0.1-0.1c5-4.9,11.7-7.6,18.8-7.6
		c7.1,0,13.8,2.7,18.8,7.6c0,0,0,0,0,0c2.6,2.5,6.7,2.5,9.3,0c1.3-1.2,1.9-2.9,1.9-4.6c0-1.7-0.7-3.4-1.9-4.6c0,0,0,0,0,0
		c-3.6-3.5-7.7-6.2-12.1-8.1c1.5-2.2,2.5-4.8,3-7.5c5.5,2.3,10.6,5.7,15,9.9c0.5,0.5,1.3,0.5,1.7,0C0.2-144.4,0.2-145.2-0.2-145.7z
		 M-64.2-138.3C-64.2-138.3-64.2-138.3-64.2-138.3c-1.6,1.6-4.3,1.6-5.9,0c-0.8-0.8-1.2-1.8-1.2-2.8c0-1.1,0.4-2.1,1.2-2.8
		c0,0,0.1-0.1,0.1-0.1c4-3.9,8.5-6.9,13.5-9.2c0.6,2.7,1.7,5.2,3.3,7.4C-57.2-144-60.9-141.4-64.2-138.3z M-9.6-136.5
		C-9.6-136.5-9.6-136.5-9.6-136.5c0.8,0.8,1.2,1.8,1.2,2.8c0,1.1-0.4,2.1-1.2,2.8c-1.6,1.6-4.3,1.6-5.9,0c0,0,0,0,0,0
		c-4-3.9-9-6.5-14.4-7.7c3.3-1.2,6.1-3.2,8.4-5.8C-17.1-142.5-13.1-139.9-9.6-136.5z M-36.8-139.8c-9.8,0-17.7-7.9-17.7-17.7
		c0-9.8,7.9-17.7,17.7-17.7s17.7,7.9,17.7,17.7C-19.1-147.7-27-139.8-36.8-139.8z"/>
	<path class="st1" d="M-44.4-158.8h-1.9l0.1-3.7h5.6v-1.5h-7.1l-0.2,6.6h2.9c2.5,0,3.4,1.1,3.4,2.5c0,1.4-1,2.5-2.8,2.5
		c-1.3,0-2.5-0.6-3.4-1.6l-1,1c1.1,1.3,2.6,2,4.4,2c2.4,0,4.5-1.5,4.5-4.2C-39.9-157-41.4-158.8-44.4-158.8z"/>
	<path class="st1" d="M-30.5-157.9v1.5h3.9c-0.3,2.5-1.9,4.1-4.5,4.1c-2.8,0-4.9-2.1-4.9-5.1c0-3,2.2-5.1,5-5.1
		c1.6,0,2.9,0.7,3.8,1.7l1.2-1.2c-1.2-1.3-3-2.1-5-2.1c-3.9,0-6.7,2.8-6.7,6.7c0,4.2,3.2,6.7,6.6,6.7c3.9,0,6.3-3,6.3-6.7
		c0-0.1,0-0.3,0-0.4H-30.5z"/>
</g>
<g>
	<line class="st2" x1="95.1" y1="-106.2" x2="95.1" y2="-97.5"/>
	<path class="st2" d="M81.4-97.5c-2.8,0-5.2-2.3-5.2-5.2v-77.8c0-2.8,2.3-5.2,5.2-5.2h69.9c2.8,0,5.2,2.3,5.2,5.2v77.8
		c0,2.8-2.3,5.2-5.2,5.2H95.1"/>
	<path class="st2" d="M95.1-106.2h-5c-2.8,0-5.2-2.3-5.2-5.2v-60.4c0-2.8,2.3-5.2,5.2-5.2h10.1c2.8,0,5.2,2.3,5.2,5.2v60.4"/>
	<g>
		<g>
			<circle class="st2" cx="117.1" cy="-156.4" r="3.8"/>
			<circle class="st2" cx="130.9" cy="-156.4" r="3.8"/>
			<circle class="st2" cx="144.8" cy="-156.4" r="3.8"/>
			<circle class="st2" cx="117.1" cy="-142.5" r="3.8"/>
			<circle class="st2" cx="130.9" cy="-142.5" r="3.8"/>
			<circle class="st2" cx="144.8" cy="-142.5" r="3.8"/>
			<circle class="st2" cx="117.1" cy="-128.6" r="3.8"/>
			<circle class="st2" cx="130.9" cy="-128.6" r="3.8"/>
			<circle class="st2" cx="144.8" cy="-128.6" r="3.8"/>
			<circle class="st2" cx="117.1" cy="-114.7" r="3.8"/>
			<circle class="st2" cx="130.9" cy="-114.7" r="3.8"/>
			<circle class="st2" cx="144.8" cy="-114.7" r="3.8"/>
		</g>
		<line class="st2" x1="113.3" y1="-172.3" x2="148.6" y2="-172.3"/>
	</g>
</g>
<g>
	<path class="st3" d="M12.4,6.2v-1c0-2.7-2.1-4.9-4.8-5C4.9,0.2,2.6,2.4,2.6,5.2l0,3.8h10.9c0.7,0,1.3,0.6,1.3,1.3v8.6
		c0,0.7-0.6,1.3-1.3,1.3h-2.7c-0.5,0-1-0.4-1.1-0.9l-0.8-3.2v0c0.6-0.5,0.9-1.2,0.8-2.1c-0.1-1-1-1.7-1.9-1.9
		c-1.3-0.1-2.5,0.9-2.5,2.2c0,0.7,0.3,1.3,0.8,1.7h0c0,0-0.5,2-0.8,3.2c-0.1,0.5-0.6,0.9-1.1,0.9H1.5c-0.7,0-1.3-0.6-1.3-1.3v-8.6"
		/>
</g>
</svg>
