<?xml version="1.0" encoding="utf-8"?>
<!-- Generator: Adobe Illustrator 21.1.0, SVG Export Plug-In . SVG Version: 6.00 Build 0)  -->
<svg version="1.1" id="Layer_1" xmlns="http://www.w3.org/2000/svg" xmlns:xlink="http://www.w3.org/1999/xlink" x="0px" y="0px"
	 viewBox="0 0 99.3 136" style="enable-background:new 0 0 99.3 136;" xml:space="preserve">
<style type="text/css">
	.st0{fill:#E73E51;}
	.st1{fill:#8755B3;}
	.st2{fill:#62269E;}
	.st3{fill:#FFFFFF;}
	.st4{fill:#A7A9AC;}
</style>
<g>
	<path class="st0" d="M1155.5,33.5c-3.1-1.6-8.4-2.3-14.7-2.3c-5,0-10.6,0.4-16.3,1l-2.7,11.4l9.3,15.9
		C1131,59.6,1169.1,40.7,1155.5,33.5z"/>
	<path class="st0" d="M1131,59.6c0,0-38.1,18.9-24.5,26.1c3.1,1.6,8.4,2.3,14.7,2.3c5,0,10.6-0.4,16.3-1l2.7-14.4L1131,59.6
		L1131,59.6z"/>
	<path class="st1" d="M1105.7-3.1c-12.3,0-19.4,41.6-19.4,41.6l21.3,0.9l17-7.2C1119.7,14,1113.7-3.1,1105.7-3.1z"/>
	<path class="st1" d="M1175.8,80.7l-19.1-2l-19.1,8.2c4.8,18.3,10.7,35.3,18.8,35.3C1168.7,122.3,1175.8,80.7,1175.8,80.7z"/>
	<path class="st2" d="M1124.5,32.2c-18.6,2-37.9,6.2-38.2,6.2l44.8,21.1C1129.1,51.7,1127,41.8,1124.5,32.2z"/>
	<path class="st2" d="M1131,59.6l44.8,21.1c-0.2,0-19.6,4.3-38.2,6.2C1135.1,77.4,1133,67.5,1131,59.6z"/>
</g>
<rect x="2039" y="-328" transform="matrix(-1.836970e-16 1 -1 -1.836970e-16 2413 -2277)" class="st2" width="612" height="792"/>
<path class="st3" d="M2341.4,57.4c-1.2-2.4-2.9-4.4-5.2-5.7c-2.2-1.4-4.9-2-7.9-2c-3.1,0-5.8,0.7-8.3,2.1c-2.4,1.4-4.4,3.4-5.7,5.9
	c-1.4,2.5-2,5.4-2,8.5c0,3.1,0.7,6,2.2,8.5c1.4,2.5,3.5,4.5,6,5.9c2.6,1.4,5.5,2.1,8.7,2.1c0,0,0.1,0,0.1,0v0h0
	c3.1,0,5.9-0.8,8.4-2.2c1.9-1.1,2.3-3.6,0.8-5.2c-1.2-1.2-2.9-1.3-4.3-0.6c-1.4,0.7-3.1,1.1-4.8,1.1v0c0,0-0.1,0-0.1,0
	c-2.6,0-4.8-0.7-6.5-2.2c-1.5-1.2-2.5-2.7-3-4.6h20c1,0,1.9-0.3,2.5-1c0.7-0.7,1-1.5,1-2.5C2343.2,62.6,2342.6,59.8,2341.4,57.4z
	 M2319.7,62.7c0.5-1.7,1.4-3.2,2.6-4.2c1.5-1.3,3.5-2,6-2c2.2,0,3.9,0.6,5.3,2c1.1,1.1,1.9,2.5,2.3,4.3H2319.7z M2484.8,79.2
	c0,1.9-1.5,3.4-3.4,3.4l0,0c-1.9,0-3.4-1.5-3.4-3.4v-15c0-4.3-3.5-7.7-7.7-7.7h-1.5c-4.3,0-7.7,3.5-7.7,7.7v15
	c0,1.9-1.5,3.4-3.4,3.4l0,0c-1.9,0-3.4-1.5-3.4-3.4V65c0-8.5,6.9-15.4,15.4-15.4c8.5,0,15.4,6.9,15.4,15.4V79.2z M2508.5,49.7
	c-10.1,0-16.5,7.4-16.5,16.5c0,9.1,6.4,16.5,16.5,16.5s16.5-7.4,16.5-16.5C2525,57.1,2518.6,49.7,2508.5,49.7z M2508.5,75.8
	c-7.1,0-9.6-5.2-9.6-9.6s2.5-9.6,9.6-9.6s9.6,5.2,9.6,9.6S2515.6,75.8,2508.5,75.8z M2416.1,53.1c0-1.9,1.5-3.4,3.4-3.4l0,0
	c1.9,0,3.4,1.5,3.4,3.4v15c0,4.3,3.5,7.7,7.7,7.7h1.5c4.3,0,7.7-3.5,7.7-7.7v-15c0-1.9,1.5-3.4,3.4-3.4l0,0c1.9,0,3.4,1.5,3.4,3.4
	v14.2c0,8.5-6.9,15.4-15.4,15.4c-8.5,0-15.4-6.9-15.4-15.4V53.1z M2408.9,79.2c0,1.9-1.5,3.4-3.4,3.4h-1.3c-6,0-10.9-4.9-10.9-10.9
	V56.5h-2c-1.9,0-3.4-1.5-3.4-3.4s1.5-3.4,3.4-3.4h2v-6.4c0-1.9,1.5-3.4,3.4-3.4s3.4,1.5,3.4,3.4v6.4h4.1c1.9,0,3.4,1.5,3.4,3.4
	s-1.5,3.4-3.4,3.4h-4.1v15.3c0,2.2,1.8,4,4,4l1.3,0C2407.3,75.7,2408.9,77.3,2408.9,79.2z M2366.9,49.7c-10.1,0-16.5,7.4-16.5,16.5
	v26.6c0,1.9,1.5,3.4,3.4,3.4s3.4-1.5,3.4-3.4V79.9c2.6,1.8,5.8,2.8,9.6,2.8c10.1,0,16.5-7.4,16.5-16.5
	C2383.4,57.1,2377,49.7,2366.9,49.7z M2366.9,75.8c-7.1,0-9.6-5.2-9.6-9.6s2.5-9.6,9.6-9.6s9.6,5.2,9.6,9.6S2374,75.8,2366.9,75.8z
	 M2305,79.2c0,1.9-1.5,3.4-3.4,3.4l0,0c-1.9,0-3.4-1.5-3.4-3.4v-15c0-4.3-3.5-7.7-7.7-7.7h-1.5c-4.3,0-7.7,3.5-7.7,7.7v15
	c0,1.9-1.5,3.4-3.4,3.4l0,0c-1.9,0-3.4-1.5-3.4-3.4V65c0-8.5,6.9-15.4,15.4-15.4S2305,56.5,2305,65V79.2z M2258.2,89.3
	c0-0.1,0-0.2,0-0.3c0-0.1,0-0.2,0-0.3c0-0.1-0.1-0.2-0.1-0.3c0-0.1,0-0.1-0.1-0.2c-0.1-0.1-0.2-0.2-0.2-0.3c0,0-0.1-0.1-0.1-0.1
	c-0.1-0.1-0.3-0.3-0.5-0.3l-41.4-19.5c8.1-4.3,25-14.2,25.1-22c0-1.6-0.6-3.9-3.9-5.7c-5.7-3-17.8-2.9-30.5-1.6
	c-5-18.9-11.1-35.2-20.2-35.2c-6.1,0-11.3,7.2-16.1,22.1c-3.3,10.4-5.2,20.9-5.2,21c0,0,0,0,0,0.1c0,0,0,0,0,0.1c0,0.1,0,0.2,0,0.3
	c0,0.1,0,0.2,0,0.3c0,0.1,0.1,0.2,0.1,0.3c0,0.1,0,0.1,0.1,0.2c0.1,0.1,0.2,0.2,0.2,0.3c0,0,0.1,0.1,0.1,0.1
	c0.1,0.1,0.3,0.3,0.5,0.3l41.4,19.5c-8.1,4.3-25,14.2-25.1,22c0,1.6,0.6,3.9,3.9,5.7c3.4,1.8,9,2.4,15.7,2.4c4.6,0,9.7-0.3,14.8-0.8
	c5,18.9,11.1,35.2,20.2,35.2c6.1,0,11.3-7.2,16.1-22.1c3.3-10.4,5.2-20.9,5.2-21C2258.2,89.4,2258.2,89.4,2258.2,89.3
	C2258.2,89.4,2258.2,89.3,2258.2,89.3z M2172.6,47.6c8.2-1.6,19.8-3.6,31-4.9c1.5,5.7,2.8,11.5,4,16.6c0.4,1.9,0.9,3.7,1.3,5.5
	l-8.2-3.9L2172.6,47.6z M2250.6,88.4c-8.2,1.6-19.8,3.6-31,4.9c-1.5-5.7-2.8-11.5-4-16.6c-0.4-1.9-0.9-3.7-1.3-5.4L2250.6,88.4z
	 M2235.2,43.5c2,1,2,2,2,2.4c-0.1,4.8-13.6,13.8-24.3,19.4c-0.5-2.2-1.1-4.5-1.6-6.9c-1.2-5.3-2.5-10.8-3.9-16.1
	C2219.5,41.1,2230.4,41,2235.2,43.5z M2173.7,26.6c4-12.4,8.5-19.5,12.5-19.5c6.5,0,12.1,15.5,16.4,31.9
	c-13.9,1.6-27.8,4.3-33.5,5.5C2169.9,40.8,2171.5,33.7,2173.7,26.6z M2188,92.5c-2-1-2-2-2-2.4c0.1-4.8,13.6-13.8,24.3-19.4
	c0.5,2.2,1.1,4.5,1.6,6.9c1.2,5.3,2.5,10.8,3.9,16.1C2203.8,94.9,2192.8,95,2188,92.5z M2249.5,109.4c-4,12.4-8.5,19.5-12.5,19.5
	c-6.5,0-12.1-15.5-16.4-31.9c14-1.6,27.8-4.3,33.5-5.5C2253.3,95.2,2251.7,102.3,2249.5,109.4z"/>
<g>
	<g>
		<path class="st0" d="M75.5,41.7c-3.1-1.6-8.4-2.3-14.7-2.3c-5,0-10.6,0.4-16.3,1l-2.7,11.4L51,67.8C51,67.8,89.1,48.9,75.5,41.7z"
			/>
		<path class="st0" d="M51,67.8c0,0-38.1,18.9-24.5,26.1c3.1,1.6,8.4,2.3,14.7,2.3c5,0,10.6-0.4,16.3-1l2.7-14.4L51,67.8L51,67.8z"
			/>
		<path class="st1" d="M25.7,5.1C13.4,5.1,6.2,46.7,6.2,46.7l21.3,0.9l17-7.2C39.7,22.2,33.7,5.1,25.7,5.1z"/>
		<path class="st1" d="M95.8,89l-19.1-2l-19.1,8.2c4.8,18.3,10.7,35.3,18.8,35.3C88.7,130.5,95.8,89,95.8,89z"/>
		<path class="st2" d="M44.5,40.4c-18.6,2-37.9,6.2-38.2,6.2L51,67.8C49.1,59.9,47,50,44.5,40.4z"/>
		<path class="st2" d="M51,67.8L95.8,89c-0.2,0-19.6,4.3-38.2,6.2C55.1,85.6,53,75.7,51,67.8z"/>
	</g>
</g>
<path class="st2" d="M1260.9,49c-1.2-2.4-2.9-4.4-5.2-5.7c-2.2-1.4-4.9-2-7.9-2c-3.1,0-5.9,0.7-8.3,2.1c-2.4,1.4-4.4,3.4-5.7,5.9
	c-1.4,2.5-2,5.4-2,8.5c0,3.1,0.7,6,2.2,8.5c1.4,2.5,3.5,4.5,6,5.9c2.6,1.4,5.5,2.1,8.7,2.1c0,0,0.1,0,0.1,0v0h0
	c3.1,0,5.9-0.8,8.4-2.2c1.9-1.1,2.3-3.6,0.8-5.2c-1.2-1.2-2.9-1.3-4.3-0.6c-1.4,0.7-3.1,1.1-4.8,1.1v0c0,0-0.1,0-0.1,0
	c-2.6,0-4.8-0.7-6.5-2.2c-1.5-1.2-2.5-2.7-3-4.6h20c1,0,1.9-0.3,2.5-1c0.7-0.7,1-1.5,1-2.5C1262.7,54.2,1262.1,51.4,1260.9,49z
	 M1239.2,54.3c0.5-1.7,1.4-3.2,2.6-4.2c1.5-1.3,3.5-2,6-2c2.2,0,3.9,0.6,5.3,2c1.1,1.1,1.9,2.5,2.3,4.3H1239.2z"/>
<path class="st0" d="M1404.4,56.6c0-8.5-6.9-15.4-15.4-15.4c-8.5,0-15.4,6.9-15.4,15.4v14.3c0,1.9,1.6,3.4,3.4,3.4l0,0
	c1.9,0,3.4-1.6,3.4-3.4v-15c0-4.3,3.5-7.7,7.7-7.7h1.5c4.3,0,7.7,3.5,7.7,7.7v15c0,1.9,1.6,3.4,3.4,3.4h0c1.9,0,3.4-1.6,3.4-3.4
	V56.6z"/>
<path class="st0" d="M1428.1,41.3c-10.1,0-16.5,7.4-16.5,16.5c0,9.1,6.4,16.5,16.5,16.5c10.1,0,16.5-7.4,16.5-16.5
	C1444.6,48.7,1438.2,41.3,1428.1,41.3z M1428.1,67.4c-7.1,0-9.6-5.2-9.6-9.6s2.5-9.6,9.6-9.6c7.1,0,9.6,5.2,9.6,9.6
	S1435.2,67.4,1428.1,67.4z"/>
<path class="st0" d="M1335.7,58.9c0,8.5,6.9,15.4,15.4,15.4c8.5,0,15.4-6.9,15.4-15.4V44.7c0-1.9-1.6-3.4-3.4-3.4l0,0
	c-1.9,0-3.4,1.6-3.4,3.4v15c0,4.3-3.5,7.7-7.7,7.7h-1.5c-4.3,0-7.7-3.5-7.7-7.7v-15c0-1.9-1.6-3.4-3.4-3.4l0,0
	c-1.9,0-3.4,1.6-3.4,3.4V58.9z"/>
<path class="st2" d="M1325,67.3l-1.3,0c-2.2,0-4-1.8-4-4V48.1h4.1c1.9,0,3.4-1.6,3.4-3.4s-1.6-3.4-3.4-3.4h-4.1v-6.4
	c0-1.9-1.6-3.4-3.4-3.4c-1.9,0-3.4,1.6-3.4,3.4v6.4h-2c-1.9,0-3.4,1.6-3.4,3.4s1.6,3.4,3.4,3.4h2v15.3c0,6,4.9,10.9,10.9,10.9h1.3
	c1.9,0,3.4-1.6,3.4-3.4S1326.9,67.3,1325,67.3z"/>
<path class="st2" d="M1286.4,41.3c-10.1,0-16.5,7.4-16.5,16.5v26.6c0,1.9,1.6,3.4,3.4,3.4c1.9,0,3.4-1.6,3.4-3.4V71.5
	c2.6,1.8,5.9,2.8,9.6,2.8c10.1,0,16.5-7.4,16.5-16.5C1303,48.7,1296.5,41.3,1286.4,41.3z M1286.4,67.4c-7.1,0-9.6-5.2-9.6-9.6
	s2.5-9.6,9.6-9.6c7.1,0,9.6,5.2,9.6,9.6S1293.5,67.4,1286.4,67.4z"/>
<path class="st2" d="M1224.5,56.6c0-8.5-6.9-15.4-15.4-15.4c-8.5,0-15.4,6.9-15.4,15.4v14.3c0,1.9,1.6,3.4,3.4,3.4l0,0
	c1.9,0,3.4-1.6,3.4-3.4v-15c0-4.3,3.5-7.7,7.7-7.7h1.5c4.3,0,7.7,3.5,7.7,7.7v15c0,1.9,1.6,3.4,3.4,3.4l0,0c1.9,0,3.4-1.6,3.4-3.4
	V56.6z"/>
<g>
	<path class="st2" d="M1321.4,95.2c-0.9-0.6-2-1-3.3-1c-1.6,0-2.8,0.7-2.8,2c0,1,0.9,1.5,2.6,1.8l1,0.1c1.9,0.2,3.5,1,3.5,3
		c0,2.2-2,3.4-4.5,3.4c-1.6,0-3.4-0.6-4.4-1.5l0.8-1.1c0.8,0.7,2.2,1.2,3.7,1.2c1.7,0,3-0.7,3-2c0-1-0.9-1.5-2.7-1.8l-1-0.1
		c-1.9-0.2-3.3-1.1-3.3-3c0-2.2,1.9-3.4,4.3-3.4c1.7,0,3,0.5,4.1,1.2L1321.4,95.2z"/>
	<path class="st2" d="M1334.5,104.3h-8V93h7.9v1.3h-6.5v3.6h6.3v1.3h-6.3v3.7h6.6V104.3z"/>
	<path class="st2" d="M1348.6,104.3h-1.5l-1.2-3.1h-5.5l-1.2,3.1h-1.5l4.6-11.3h1.8L1348.6,104.3z M1340.9,99.8h4.4l-2.2-5.4
		L1340.9,99.8z"/>
	<path class="st2" d="M1364,104.3h-1.4v-9.7l-3.8,8.5h-1.5l-3.8-8.4v9.6h-1.4V93h2.2l3.8,8.4l3.8-8.4h2.2V104.3z"/>
	<path class="st2" d="M1376.7,104.3h-7.9V93h1.4v9.9h6.5V104.3z"/>
	<path class="st2" d="M1388.2,104.3h-8V93h7.9v1.3h-6.5v3.6h6.3v1.3h-6.3v3.7h6.6V104.3z"/>
	<path class="st2" d="M1400.1,95.2c-0.9-0.6-2-1-3.3-1c-1.6,0-2.8,0.7-2.8,2c0,1,0.9,1.5,2.5,1.8l1,0.1c1.9,0.2,3.5,1,3.5,3
		c0,2.2-2,3.4-4.5,3.4c-1.6,0-3.4-0.6-4.4-1.5l0.8-1.1c0.8,0.7,2.2,1.2,3.7,1.2c1.7,0,3-0.7,3-2c0-1-0.9-1.5-2.7-1.8l-1-0.1
		c-1.9-0.2-3.3-1.1-3.3-3c0-2.2,1.9-3.4,4.3-3.4c1.7,0,3,0.5,4.1,1.2L1400.1,95.2z"/>
	<path class="st2" d="M1412.5,95.2c-0.9-0.6-2-1-3.3-1c-1.6,0-2.8,0.7-2.8,2c0,1,0.9,1.5,2.6,1.8l1,0.1c1.9,0.2,3.5,1,3.5,3
		c0,2.2-2,3.4-4.5,3.4c-1.6,0-3.4-0.6-4.4-1.5l0.8-1.1c0.8,0.7,2.2,1.2,3.7,1.2c1.7,0,3-0.7,3-2c0-1-0.9-1.5-2.7-1.8l-1-0.1
		c-1.9-0.2-3.3-1.1-3.3-3c0-2.2,1.9-3.4,4.3-3.4c1.7,0,3,0.5,4.1,1.2L1412.5,95.2z"/>
</g>
<g>
	<path class="st2" d="M1321.9,112.3h-3.8v9.9h-1.4v-9.9h-3.8v-1.3h9.1V112.3z"/>
	<path class="st2" d="M1333.4,122.2h-8v-11.3h7.9v1.3h-6.5v3.6h6.3v1.3h-6.3v3.7h6.6V122.2z"/>
	<path class="st2" d="M1347.7,113.1l-1.2,0.8c-0.7-1.1-2-1.8-3.4-1.8c-2.5,0-4.4,1.8-4.4,4.4c0,2.6,1.9,4.4,4.4,4.4
		c1.4,0,2.7-0.7,3.4-1.8l1.2,0.8c-0.9,1.4-2.6,2.3-4.6,2.3c-3.4,0-5.8-2.4-5.8-5.8c0-3.4,2.5-5.8,5.8-5.8
		C1345.1,110.7,1346.8,111.6,1347.7,113.1z"/>
	<path class="st2" d="M1353.2,115.8h6.6v-4.9h1.4v11.3h-1.4v-5h-6.6v5h-1.4v-11.3h1.4V115.8z"/>
	<path class="st2" d="M1375.6,122.2h-1.3l-6.8-8.8l0,8.8h-1.4v-11.3h1.3l6.8,8.8v-8.8h1.4V122.2z"/>
	<path class="st2" d="M1391.5,116.5c0,3.4-2.5,5.8-5.8,5.8c-3.4,0-5.8-2.4-5.8-5.8c0-3.4,2.5-5.8,5.8-5.8
		C1389.1,110.7,1391.5,113.2,1391.5,116.5z M1381.3,116.5c0,2.6,1.9,4.4,4.4,4.4c2.5,0,4.4-1.8,4.4-4.4c0-2.6-1.9-4.4-4.4-4.4
		C1383.2,112.1,1381.3,113.9,1381.3,116.5z"/>
	<path class="st2" d="M1403.6,122.2h-7.9v-11.3h1.4v9.9h6.5V122.2z"/>
	<path class="st2" d="M1417.6,116.5c0,3.4-2.5,5.8-5.8,5.8c-3.4,0-5.8-2.4-5.8-5.8c0-3.4,2.5-5.8,5.8-5.8
		C1415.1,110.7,1417.6,113.2,1417.6,116.5z M1407.4,116.5c0,2.6,1.9,4.4,4.4,4.4c2.5,0,4.4-1.8,4.4-4.4c0-2.6-1.9-4.4-4.4-4.4
		C1409.3,112.1,1407.4,113.9,1407.4,116.5z"/>
	<path class="st2" d="M1431.3,112.6l-1,1c-0.8-0.9-2-1.5-3.3-1.5c-2.5,0-4.4,1.8-4.4,4.4c0,2.6,1.9,4.4,4.3,4.4
		c2.3,0,3.7-1.3,3.9-3.5h-3.4v-1.3h4.9c0,0.1,0,0.2,0,0.4c0,3.3-2.1,5.9-5.5,5.9c-3,0-5.8-2.1-5.8-5.8c0-3.4,2.5-5.8,5.8-5.8
		C1428.8,110.7,1430.3,111.4,1431.3,112.6z"/>
	<path class="st2" d="M1440.3,117.5v4.7h-1.4v-4.7l-4.4-6.6h1.7l3.5,5.3l3.5-5.3h1.6L1440.3,117.5z"/>
</g>
<g>
	<path class="st2" d="M1321.4,131.1c-0.9-0.6-2-1-3.3-1c-1.6,0-2.8,0.7-2.8,2c0,1,0.9,1.5,2.6,1.8l1,0.1c1.9,0.2,3.5,1,3.5,3
		c0,2.2-2,3.4-4.5,3.4c-1.6,0-3.4-0.6-4.4-1.5l0.8-1.1c0.8,0.7,2.2,1.2,3.7,1.2c1.7,0,3-0.7,3-2c0-1-0.9-1.5-2.7-1.8l-1-0.1
		c-1.9-0.2-3.3-1.1-3.3-3c0-2.2,1.9-3.4,4.3-3.4c1.7,0,3,0.5,4.1,1.2L1321.4,131.1z"/>
	<path class="st2" d="M1337.5,134.5c0,3.4-2.5,5.8-5.8,5.8c-3.4,0-5.8-2.4-5.8-5.8c0-3.4,2.5-5.8,5.8-5.8
		C1335.1,128.7,1337.5,131.1,1337.5,134.5z M1327.3,134.5c0,2.6,1.9,4.4,4.4,4.4c2.5,0,4.4-1.8,4.4-4.4c0-2.6-1.9-4.4-4.4-4.4
		C1329.2,130,1327.3,131.8,1327.3,134.5z"/>
	<path class="st2" d="M1349.6,140.1h-7.9v-11.3h1.4v9.9h6.5V140.1z"/>
	<path class="st2" d="M1362.1,135.7c0,3.1-2.1,4.6-4.7,4.6c-2.6,0-4.7-1.5-4.7-4.6v-6.8h1.4v6.7c0,2.3,1.4,3.3,3.3,3.3
		c1.9,0,3.3-1,3.3-3.3v-6.7h1.4V135.7z"/>
	<path class="st2" d="M1374.6,130.2h-3.8v9.9h-1.4v-9.9h-3.8v-1.3h9.1V130.2z"/>
	<path class="st2" d="M1379.6,140.1h-1.4v-11.3h1.4V140.1z"/>
	<path class="st2" d="M1395.4,134.5c0,3.4-2.5,5.8-5.8,5.8c-3.4,0-5.8-2.4-5.8-5.8c0-3.4,2.5-5.8,5.8-5.8
		C1393,128.7,1395.4,131.1,1395.4,134.5z M1385.2,134.5c0,2.6,1.9,4.4,4.4,4.4c2.5,0,4.4-1.8,4.4-4.4c0-2.6-1.9-4.4-4.4-4.4
		C1387.1,130,1385.2,131.8,1385.2,134.5z"/>
	<path class="st2" d="M1409.1,140.1h-1.3l-6.8-8.8l0,8.8h-1.4v-11.3h1.3l6.8,8.8v-8.8h1.4V140.1z"/>
	<path class="st2" d="M1421.3,131.1c-0.9-0.6-2-1-3.3-1c-1.6,0-2.8,0.7-2.8,2c0,1,0.9,1.5,2.6,1.8l1,0.1c1.9,0.2,3.5,1,3.5,3
		c0,2.2-2,3.4-4.5,3.4c-1.6,0-3.4-0.6-4.4-1.5l0.8-1.1c0.8,0.7,2.2,1.2,3.7,1.2c1.7,0,3-0.7,3-2c0-1-0.9-1.5-2.7-1.8l-1-0.1
		c-1.9-0.2-3.3-1.1-3.3-3c0-2.2,1.9-3.4,4.3-3.4c1.7,0,3,0.5,4.1,1.2L1421.3,131.1z"/>
</g>
<circle class="st2" cx="-1013.8" cy="18.5" r="16"/>
<text transform="matrix(1 0 0 1 -1029.7505 54.4124)"><tspan x="0" y="0" class="st4" style="font-family:'FFMarkPro-Book'; font-size:7px;">PANTONE</tspan><tspan x="0" y="8.4" class="st4" style="font-family:'FFMarkPro-Book'; font-size:7px;">267C</tspan></text>
<text transform="matrix(1 0 0 1 -1029.7505 90.4124)" class="st4" style="font-family:'FFMarkPro-Book'; font-size:7px;">HEX #61259e</text>
<g>
	<text transform="matrix(1 0 0 1 -1029.7505 104.8124)"><tspan x="0" y="0" class="st4" style="font-family:'FFMarkPro-Book'; font-size:7px;">C</tspan><tspan x="5.4" y="0" class="st4" style="font-family:'FFMarkPro-Book'; font-size:7px; letter-spacing:2;">	</tspan><tspan x="10.2" y="0" class="st4" style="font-family:'FFMarkPro-Book'; font-size:7px;">76</tspan><tspan x="0" y="8.4" class="st4" style="font-family:'FFMarkPro-Book'; font-size:7px;">M</tspan><tspan x="6.6" y="8.4" class="st4" style="font-family:'FFMarkPro-Book'; font-size:7px; letter-spacing:1;">	</tspan><tspan x="10.2" y="8.4" class="st4" style="font-family:'FFMarkPro-Book'; font-size:7px;">97</tspan><tspan x="0" y="16.8" class="st4" style="font-family:'FFMarkPro-Book'; font-size:7px;">Y</tspan><tspan x="4.5" y="16.8" class="st4" style="font-family:'FFMarkPro-Book'; font-size:7px; letter-spacing:3;">	</tspan><tspan x="10.2" y="16.8" class="st4" style="font-family:'FFMarkPro-Book'; font-size:7px;">0</tspan><tspan x="0" y="25.2" class="st4" style="font-family:'FFMarkPro-Book'; font-size:7px;">K</tspan><tspan x="4.9" y="25.2" class="st4" style="font-family:'FFMarkPro-Book'; font-size:7px; letter-spacing:3;">	</tspan><tspan x="10.2" y="25.2" class="st4" style="font-family:'FFMarkPro-Book'; font-size:7px;">0</tspan></text>
</g>
<g>
	<text transform="matrix(1 0 0 1 -998.1471 104.8124)"><tspan x="0" y="0" class="st4" style="font-family:'FFMarkPro-Book'; font-size:7px;">R  99</tspan><tspan x="0" y="8.4" class="st4" style="font-family:'FFMarkPro-Book'; font-size:7px;">G  51</tspan><tspan x="0" y="16.8" class="st4" style="font-family:'FFMarkPro-Book'; font-size:7px;">B  147</tspan></text>
</g>
<circle class="st1" cx="-905.8" cy="18.5" r="16"/>
<text transform="matrix(1 0 0 1 -921.7507 54.4124)"><tspan x="0" y="0" class="st4" style="font-family:'FFMarkPro-Book'; font-size:7px;">78%</tspan><tspan x="0" y="8.4" class="st4" style="font-family:'FFMarkPro-Book'; font-size:7px;">PANTONE</tspan><tspan x="0" y="16.8" class="st4" style="font-family:'FFMarkPro-Book'; font-size:7px;">267C</tspan></text>
<text transform="matrix(1 0 0 1 -921.7507 90.4124)" class="st4" style="font-family:'FFMarkPro-Book'; font-size:7px;">HEX #8655b4</text>
<g>
	<text transform="matrix(1 0 0 1 -921.7507 104.8124)"><tspan x="0" y="0" class="st4" style="font-family:'FFMarkPro-Book'; font-size:7px;">C</tspan><tspan x="5.4" y="0" class="st4" style="font-family:'FFMarkPro-Book'; font-size:7px; letter-spacing:2;">	</tspan><tspan x="10.2" y="0" class="st4" style="font-family:'FFMarkPro-Book'; font-size:7px;">55</tspan><tspan x="0" y="8.4" class="st4" style="font-family:'FFMarkPro-Book'; font-size:7px;">M</tspan><tspan x="6.6" y="8.4" class="st4" style="font-family:'FFMarkPro-Book'; font-size:7px; letter-spacing:1;">	</tspan><tspan x="10.2" y="8.4" class="st4" style="font-family:'FFMarkPro-Book'; font-size:7px;">76</tspan><tspan x="0" y="16.8" class="st4" style="font-family:'FFMarkPro-Book'; font-size:7px;">Y</tspan><tspan x="4.5" y="16.8" class="st4" style="font-family:'FFMarkPro-Book'; font-size:7px; letter-spacing:3;">	</tspan><tspan x="10.2" y="16.8" class="st4" style="font-family:'FFMarkPro-Book'; font-size:7px;">0</tspan><tspan x="0" y="25.2" class="st4" style="font-family:'FFMarkPro-Book'; font-size:7px;">K</tspan><tspan x="4.9" y="25.2" class="st4" style="font-family:'FFMarkPro-Book'; font-size:7px; letter-spacing:3;">	</tspan><tspan x="10.2" y="25.2" class="st4" style="font-family:'FFMarkPro-Book'; font-size:7px;">0</tspan></text>
</g>
<g>
	<text transform="matrix(1 0 0 1 -890.1473 104.8124)"><tspan x="0" y="0" class="st4" style="font-family:'FFMarkPro-Book'; font-size:7px;">R  132</tspan><tspan x="0" y="8.4" class="st4" style="font-family:'FFMarkPro-Book'; font-size:7px;">G  88</tspan><tspan x="0" y="16.8" class="st4" style="font-family:'FFMarkPro-Book'; font-size:7px;">B  164</tspan></text>
</g>
<circle class="st0" cx="-797.8" cy="18.5" r="16"/>
<text transform="matrix(1 0 0 1 -813.7508 54.4124)"><tspan x="0" y="0" class="st4" style="font-family:'FFMarkPro-Book'; font-size:7px;">PANTONE</tspan><tspan x="0" y="8.4" class="st4" style="font-family:'FFMarkPro-Book'; font-size:7px;">710C</tspan></text>
<text transform="matrix(1 0 0 1 -813.7508 90.4124)" class="st4" style="font-family:'FFMarkPro-Book'; font-size:7px;">HEX #e73c50</text>
<g>
	<text transform="matrix(1 0 0 1 -813.7508 104.8124)"><tspan x="0" y="0" class="st4" style="font-family:'FFMarkPro-Book'; font-size:7px;">C</tspan><tspan x="5.4" y="0" class="st4" style="font-family:'FFMarkPro-Book'; font-size:7px; letter-spacing:2;">	</tspan><tspan x="10.2" y="0" class="st4" style="font-family:'FFMarkPro-Book'; font-size:7px;">3</tspan><tspan x="0" y="8.4" class="st4" style="font-family:'FFMarkPro-Book'; font-size:7px;">M</tspan><tspan x="6.6" y="8.4" class="st4" style="font-family:'FFMarkPro-Book'; font-size:7px; letter-spacing:1;">	</tspan><tspan x="10.2" y="8.4" class="st4" style="font-family:'FFMarkPro-Book'; font-size:7px;">91</tspan><tspan x="0" y="16.8" class="st4" style="font-family:'FFMarkPro-Book'; font-size:7px;">Y</tspan><tspan x="4.5" y="16.8" class="st4" style="font-family:'FFMarkPro-Book'; font-size:7px; letter-spacing:3;">	</tspan><tspan x="10.2" y="16.8" class="st4" style="font-family:'FFMarkPro-Book'; font-size:7px;">64</tspan><tspan x="0" y="25.2" class="st4" style="font-family:'FFMarkPro-Book'; font-size:7px;">K</tspan><tspan x="4.9" y="25.2" class="st4" style="font-family:'FFMarkPro-Book'; font-size:7px; letter-spacing:3;">	</tspan><tspan x="10.2" y="25.2" class="st4" style="font-family:'FFMarkPro-Book'; font-size:7px;">0</tspan></text>
</g>
<g>
	<text transform="matrix(1 0 0 1 -782.1474 104.8124)"><tspan x="0" y="0" class="st4" style="font-family:'FFMarkPro-Book'; font-size:7px;">R  231</tspan><tspan x="0" y="8.4" class="st4" style="font-family:'FFMarkPro-Book'; font-size:7px;">G  63</tspan><tspan x="0" y="16.8" class="st4" style="font-family:'FFMarkPro-Book'; font-size:7px;">B  81</tspan></text>
</g>
</svg>
