<?xml version="1.0" encoding="utf-8"?>
<!-- Generator: Adobe Illustrator 21.1.0, SVG Export Plug-In . SVG Version: 6.00 Build 0)  -->
<svg version="1.1" id="Layer_1" xmlns="http://www.w3.org/2000/svg" xmlns:xlink="http://www.w3.org/1999/xlink" x="0px" y="0px"
	 viewBox="0 0 360.6 362.7" style="enable-background:new 0 0 360.6 362.7;" xml:space="preserve">
<style type="text/css">
	.st0{fill:#F37B8A;}
	.st1{fill:none;stroke:#F37B8A;stroke-width:3;stroke-miterlimit:10;}
	.st2{fill:none;stroke:#633493;stroke-width:3;stroke-linecap:round;stroke-linejoin:round;stroke-miterlimit:10;}
	.st3{fill:none;stroke:#633493;stroke-width:5.1599;stroke-linecap:round;stroke-linejoin:round;stroke-miterlimit:10;}
</style>
<path class="st0" d="M715-257.2c15,5.4,32.4,2.1,44.4-9.9c12-12,15.3-29.4,9.9-44.4l-21.3,21.3c-2.7,2.7-7,2.7-9.7,0l-15.9-15.9
	c-2.7-2.7-2.7-7,0-9.7l21.3-21.3c-15-5.4-32.4-2.1-44.4,9.9c-12,12-15.3,29.4-9.9,44.4l-65,65c-15-5.4-32.4-2.1-44.4,9.9
	c-12,12-15.3,29.4-9.9,44.4l21.3-21.3c2.7-2.7,7-2.7,9.7,0l15.9,15.9c2.7,2.7,2.7,7,0,9.7l-21.3,21.3c15,5.4,32.4,2.1,44.4-9.9
	c12-12,15.3-29.4,9.9-44.4l19.2-19.2"/>
<g>
	<path class="st1" d="M189.8-223.7l65-65c-3-8.4-3.3-17.5-0.9-26"/>
	<path class="st1" d="M234.5-217.4l-19.2,19.2c5.4,15,2.1,32.4-9.9,44.4s-29.4,15.3-44.4,9.9l21.3-21.3c2.7-2.7,2.7-7,0-9.7
		l-15.9-15.9c-2.7-2.7-7-2.7-9.7,0"/>
	<path class="st2" d="M221.5-221.4l-19.2,19.2c5.4,15,2.1,32.4-9.9,44.4s-29.4,15.3-44.4,9.9l21.3-21.3c2.7-2.7,2.7-7,0-9.7
		l-15.9-15.9c-2.7-2.7-7-2.7-9.7,0l-21.3,21.3c-5.4-15-2.1-32.4,9.9-44.4s29.4-15.3,44.4-9.9l65-65c-5.4-15-2.1-32.4,9.9-44.4
		c12-12,29.4-15.3,44.4-9.9l-21.3,21.3c-2.7,2.7-2.7,7,0,9.7l15.9,15.9c2.7,2.7,7,2.7,9.7,0l21.3-21.3c5.4,15,2.1,32.4-9.9,44.4
		c-12,12-29.4,15.3-44.4,9.9"/>
	<path class="st2" d="M221.5-221.4l-50.9-54.6c-8.9-8.9-23.4-8.9-32.4,0c-8.2,8.2-8.9,21.2-1.9,30.2l-17.9,11.2
		c0,0-28.2-42.3,4-74.5c11.2-11.2,22.2-22.2,31.5-31.5c3,0.5,6.3,1.1,9.1,1.5c2.8,0.5,5.2-1.9,4.7-4.7l-1.5-9.1l14.6-14.6l40.7,40.7
		l-14.4,14.4c-4.2-4.2-11.1-4.2-15.4,0c-4.2,4.2-4.2,11.1,0,15.4l112.7,105.1c0.8,0.7,1.5,1.4,2.2,2.2c6.1,7.1,6.5,17.9,0.8,25.4
		c-7.6,10.1-22.1,10.9-30.7,2.2c-0.3-0.3-0.7-0.7-1-1.1l-36.5-39.2l-0.7,81.4c-64.4,25.3-133,9.1-185.1-42.9
		c-70-70-70-183.6,0-253.6s183.6-70,253.6,0c52,52,65.4,128.1,40.1,192.5"/>
	<path class="st1" d="M321.2-188.9c0.8,0.7,1.5,1.4,2.2,2.2c6.1,7.1,6.5,17.9,0.8,25.4c-7.6,10.1-22.1,10.9-30.7,2.2
		c-0.3-0.3-0.7-0.7-1-1.1l-36.5-39.2"/>
</g>
<path class="st2" d="M221.5,249.6l-19.2,19.2c5.4,15,2.1,32.4-9.9,44.4c-12,12-29.4,15.3-44.4,9.9l21.3-21.3c2.7-2.7,2.7-7,0-9.7
	l-15.9-15.9c-2.7-2.7-7-2.7-9.7,0l-21.3,21.3c-5.4-15-2.1-32.4,9.9-44.4s29.4-15.3,44.4-9.9l65-65c-5.4-15-2.1-32.4,9.9-44.4
	s29.4-15.3,44.4-9.9l-21.3,21.3c-2.7,2.7-2.7,7,0,9.7l15.9,15.9c2.7,2.7,7,2.7,9.7,0l21.3-21.3c5.4,15,2.1,32.4-9.9,44.4
	c-12,12-29.4,15.3-44.4,9.9"/>
<path class="st2" d="M221.5,249.6l-50.9-54.6c-8.9-8.9-23.4-8.9-32.4,0c-8.2,8.2-8.9,21.2-1.9,30.2l-17.9,11.2c0,0-28.2-42.3,4-74.5
	c11.2-11.2,22.2-22.2,31.5-31.5c3,0.5,6.3,1.1,9.1,1.5c2.8,0.5,5.2-1.9,4.7-4.7l-1.5-9.1l14.6-14.6l40.7,40.7l-14.4,14.4
	c-4.2-4.2-11.1-4.2-15.4,0s-4.2,11.1,0,15.4l112.7,105.1c0.8,0.7,1.5,1.4,2.2,2.2c6.1,7.1,6.5,17.9,0.8,25.4
	c-7.6,10.1-22.1,10.9-30.7,2.2c-0.3-0.3-0.7-0.7-1-1.1l-36.5-39.2l-0.7,81.4c-64.4,25.3-133,9.1-185.1-42.9c-70-70-70-183.6,0-253.6
	s183.6-70,253.6,0c52,52,65.4,128.1,40.1,192.5"/>
<path class="st3" d="M660.5-221.4l-19.2,19.2c5.4,15,2.1,32.4-9.9,44.4c-12,12-29.4,15.3-44.4,9.9l21.3-21.3c2.7-2.7,2.7-7,0-9.7
	l-15.9-15.9c-2.7-2.7-7-2.7-9.7,0l-21.3,21.3c-5.4-15-2.1-32.4,9.9-44.4c12-12,29.4-15.3,44.4-9.9l65-65c-5.4-15-2.1-32.4,9.9-44.4
	c12-12,29.4-15.3,44.4-9.9l-21.3,21.3c-2.7,2.7-2.7,7,0,9.7l15.9,15.9c2.7,2.7,7,2.7,9.7,0l21.3-21.3c5.4,15,2.1,32.4-9.9,44.4
	c-12,12-29.4,15.3-44.4,9.9"/>
<path class="st3" d="M660.5-221.4l-50.9-54.6c-8.9-8.9-23.4-8.9-32.4,0c-8.2,8.2-8.9,21.2-1.9,30.2l-17.9,11.2c0,0-28.2-42.3,4-74.5
	c11.2-11.2,22.2-22.2,31.5-31.5c3,0.5,6.3,1.1,9.1,1.5c2.8,0.5,5.2-1.9,4.7-4.7l-1.5-9.1l14.6-14.6l40.7,40.7l-14.4,14.4
	c-4.2-4.2-11.1-4.2-15.4,0c-4.2,4.2-4.2,11.1,0,15.4l112.7,105.1c0.8,0.7,1.5,1.4,2.2,2.2c6.1,7.1,6.5,17.9,0.8,25.4
	c-7.6,10.1-22.1,10.9-30.7,2.2c-0.3-0.3-0.7-0.7-1-1.1l-36.5-39.2l-0.7,81.4c-64.4,25.3-133,9.1-185.1-42.9c-70-70-70-183.6,0-253.6
	s183.6-70,253.6,0c52,52,65.4,128.1,40.1,192.5"/>
</svg>
