<?xml version="1.0" encoding="utf-8"?>
<!-- Generator: Adobe Illustrator 21.1.0, SVG Export Plug-In . SVG Version: 6.00 Build 0)  -->
<svg version="1.1" id="Layer_1" xmlns="http://www.w3.org/2000/svg" xmlns:xlink="http://www.w3.org/1999/xlink" x="0px" y="0px"
	 viewBox="0 0 25.2 25.8" style="enable-background:new 0 0 25.2 25.8;" xml:space="preserve">
<style type="text/css">
	.st0{fill:none;stroke:#662F8F;stroke-width:4;stroke-linecap:round;stroke-linejoin:round;stroke-miterlimit:10;}
	.st1{fill:#662F8F;}
	.st2{fill:none;stroke:#662F8F;stroke-width:2;stroke-linecap:round;stroke-linejoin:round;stroke-miterlimit:10;}
	.st3{fill:none;stroke:#FFFFFF;stroke-width:0.488;stroke-linecap:round;stroke-linejoin:round;stroke-miterlimit:10;}
	.st4{fill:none;stroke:#E73E51;stroke-width:1.6927;}
	.st5{fill:none;stroke:#E73E51;stroke-width:1.1285;stroke-linecap:round;stroke-linejoin:round;stroke-miterlimit:10;}
	.st6{fill:#E73E51;}
	
		.st7{clip-path:url(#SVGID_2_);fill:none;stroke:#E73E51;stroke-width:1.1285;stroke-linecap:round;stroke-linejoin:round;stroke-miterlimit:10;}
	.st8{fill:none;stroke:#EE4050;stroke-width:1.1285;stroke-linecap:round;stroke-linejoin:round;stroke-miterlimit:10;}
	.st9{fill:none;stroke:#FFFFFF;stroke-width:0.574;stroke-linecap:round;stroke-linejoin:round;stroke-miterlimit:10;}
</style>
<g>
	<path class="st0" d="M-647.7-189.1c9.6-9.6,22.8-15.5,37.3-15.5"/>
	<path class="st0" d="M-633.3-174.8c5.9-5.9,14-9.5,23-9.5"/>
	<path class="st0" d="M-676.5-217.9c17.7-17.7,41.2-27.4,66.1-27.4c25,0,48.4,9.7,66.1,27.4"/>
	<path class="st0" d="M-558.6-203.5c-13.3-13.3-31.6-21.5-51.7-21.5c-20.2,0-38.5,8.2-51.7,21.5"/>
	<path class="st0" d="M-573-189.1c-9.6-9.6-22.8-15.5-37.3-15.5"/>
	<path class="st0" d="M-587.4-174.8c-5.9-5.9-14-9.5-23-9.5"/>
	<path class="st0" d="M-601.8-143.3c-2.2,2.2-5.2,3.5-8.6,3.5c-6.7,0-12.1-5.4-12.1-12.1c0-6.7,5.4-12.1,12.1-12.1
		c3.3,0,6.4,1.4,8.6,3.5"/>
	<path class="st0" d="M-558.6-203.5c4,4,4,10.4,0,14.4c-4,4-10.4,4-14.4,0"/>
	<path class="st0" d="M-633.3-174.8c-4,4-10.4,4-14.4,0c-4-4-4-10.4,0-14.4"/>
	<path class="st0" d="M-587.4-174.8c4,4,4,10.4,0,14.4c-4,4-10.4,4-14.4,0"/>
	<path class="st0" d="M-662.1-203.5c-4,4-10.4,4-14.4,0c-4-4-4-10.4,0-14.4"/>
</g>
<g>
	<path class="st1" d="M-464.6-255c-28.7,0-52,23.3-52,52s23.3,52,52,52s52-23.3,52-52S-435.9-255-464.6-255z M-464.6-154.7
		c-26.6,0-48.3-21.7-48.3-48.3s21.7-48.3,48.3-48.3s48.3,21.7,48.3,48.3S-438-154.7-464.6-154.7z"/>
	<path class="st1" d="M-428.1-208.9c-4.8-4.7-10.4-8.3-16.4-10.7c0-0.3,0.1-0.7,0.1-1c0-11.1-9-20.2-20.2-20.2s-20.2,9-20.2,20.2
		c0,0.6,0,1.1,0.1,1.7c-5.5,2.4-10.5,5.8-14.9,10.1c0,0-0.1,0.1-0.1,0.1c-1.2,1.2-1.8,2.8-1.8,4.5c0,1.7,0.7,3.4,1.9,4.6
		c2.6,2.5,6.7,2.5,9.3,0c0,0,0,0,0,0c3.2-3.1,6.8-5.6,10.8-7.4c2.3,2.5,5.2,4.5,8.5,5.5c-5,1.2-9.6,3.7-13.4,7.4
		c0,0-0.1,0.1-0.1,0.1c-1.3,1.2-1.9,2.9-1.9,4.6c0,1.7,0.7,3.4,1.9,4.6c2.6,2.5,6.7,2.5,9.3,0c0,0,0,0,0,0h0c3-2.9,7-4.5,11.3-4.5
		c4.3,0,8.3,1.6,11.3,4.5c0,0,0,0,0,0c0.8,0.8,1.2,1.8,1.2,2.8c0,1.1-0.4,2.1-1.2,2.8c-1.6,1.6-4.3,1.6-5.9,0c0,0-0.1-0.1-0.1-0.1
		c-1.4-1.3-3.3-2.1-5.3-2.1c-4.2,0-7.6,3.3-7.6,7.5c0,4.1,3.4,7.5,7.6,7.5c2,0,3.9-0.8,5.4-2.2c0.5-0.5,0.5-1.3,0-1.7
		c-0.5-0.5-1.3-0.5-1.7,0c-1,1-2.3,1.5-3.7,1.5c-2.8,0-5.2-2.2-5.2-5c0-2.8,2.3-5,5.2-5c1.4,0,2.7,0.5,3.7,1.5c0,0,0.1,0.1,0.1,0.1
		c2.6,2.4,6.7,2.4,9.2-0.1c1.3-1.2,1.9-2.9,1.9-4.6s-0.7-3.4-1.9-4.6c0,0,0,0,0,0c-3.5-3.4-8.1-5.2-13-5.2c-4.9,0-9.5,1.9-13,5.2
		c0,0,0,0,0,0c-1.6,1.6-4.3,1.6-5.9,0c-0.8-0.8-1.2-1.8-1.2-2.8c0-1,0.4-2,1.1-2.7c0,0,0.1-0.1,0.1-0.1c5-4.9,11.7-7.6,18.8-7.6
		c7.1,0,13.8,2.7,18.8,7.6c0,0,0,0,0,0c2.6,2.5,6.7,2.5,9.3,0c1.3-1.2,1.9-2.9,1.9-4.6c0-1.7-0.7-3.4-1.9-4.6c0,0,0,0,0,0
		c-3.6-3.5-7.7-6.2-12.1-8.1c1.5-2.2,2.5-4.8,3-7.5c5.5,2.3,10.6,5.7,15,9.9c0.5,0.5,1.3,0.5,1.7,0
		C-427.6-207.6-427.6-208.4-428.1-208.9z M-492-201.5C-492-201.5-492-201.5-492-201.5c-1.6,1.6-4.3,1.6-5.9,0
		c-0.8-0.8-1.2-1.8-1.2-2.8c0-1.1,0.4-2.1,1.2-2.8c0,0,0.1-0.1,0.1-0.1c4-3.9,8.5-6.9,13.5-9.2c0.6,2.7,1.7,5.2,3.3,7.4
		C-485.1-207.2-488.8-204.6-492-201.5z M-437.4-199.7C-437.4-199.7-437.4-199.7-437.4-199.7c0.8,0.8,1.2,1.8,1.2,2.8
		c0,1.1-0.4,2.1-1.2,2.8c-1.6,1.6-4.3,1.6-5.9,0c0,0,0,0,0,0c-4-3.9-9-6.5-14.4-7.7c3.3-1.2,6.1-3.2,8.4-5.8
		C-444.9-205.7-440.9-203.1-437.4-199.7z M-464.6-203c-9.8,0-17.7-7.9-17.7-17.7c0-9.8,7.9-17.7,17.7-17.7s17.7,7.9,17.7,17.7
		C-446.9-210.9-454.9-203-464.6-203z"/>
	<path class="st1" d="M-472.3-222h-1.9l0.1-3.7h5.6v-1.5h-7.1l-0.2,6.6h2.9c2.5,0,3.4,1.1,3.4,2.5c0,1.4-1,2.5-2.8,2.5
		c-1.3,0-2.5-0.6-3.4-1.6l-1,1c1.1,1.3,2.6,2,4.4,2c2.4,0,4.5-1.5,4.5-4.2C-467.7-220.2-469.2-222-472.3-222z"/>
	<path class="st1" d="M-458.3-221.1v1.5h3.9c-0.3,2.5-1.9,4.1-4.5,4.1c-2.8,0-4.9-2.1-4.9-5.1c0-3,2.2-5.1,5-5.1
		c1.6,0,2.9,0.7,3.8,1.7l1.2-1.2c-1.2-1.3-3-2.1-5-2.1c-3.9,0-6.7,2.8-6.7,6.7c0,4.2,3.2,6.7,6.6,6.7c3.9,0,6.3-3,6.3-6.7
		c0-0.1,0-0.3,0-0.4H-458.3z"/>
</g>
<g>
	<line class="st2" x1="-332.7" y1="-169.4" x2="-332.7" y2="-160.7"/>
	<path class="st2" d="M-346.5-160.7c-2.8,0-5.2-2.3-5.2-5.2v-77.8c0-2.8,2.3-5.2,5.2-5.2h69.9c2.8,0,5.2,2.3,5.2,5.2v77.8
		c0,2.8-2.3,5.2-5.2,5.2h-56.2"/>
	<path class="st2" d="M-332.7-169.4h-5c-2.8,0-5.2-2.3-5.2-5.2V-235c0-2.8,2.3-5.2,5.2-5.2h10.1c2.8,0,5.2,2.3,5.2,5.2v60.4"/>
	<g>
		<g>
			<circle class="st2" cx="-310.8" cy="-219.6" r="3.8"/>
			<circle class="st2" cx="-296.9" cy="-219.6" r="3.8"/>
			<circle class="st2" cx="-283" cy="-219.6" r="3.8"/>
			<circle class="st2" cx="-310.8" cy="-205.7" r="3.8"/>
			<circle class="st2" cx="-296.9" cy="-205.7" r="3.8"/>
			<circle class="st2" cx="-283" cy="-205.7" r="3.8"/>
			<circle class="st2" cx="-310.8" cy="-191.8" r="3.8"/>
			<circle class="st2" cx="-296.9" cy="-191.8" r="3.8"/>
			<circle class="st2" cx="-283" cy="-191.8" r="3.8"/>
			<circle class="st2" cx="-310.8" cy="-177.9" r="3.8"/>
			<circle class="st2" cx="-296.9" cy="-177.9" r="3.8"/>
			<circle class="st2" cx="-283" cy="-177.9" r="3.8"/>
		</g>
		<line class="st2" x1="-314.5" y1="-235.5" x2="-279.2" y2="-235.5"/>
	</g>
</g>
<g>
	<path class="st3" d="M-415.4-57v-1c0-2.7-2.1-4.9-4.8-5c-2.8-0.1-5.1,2.2-5.1,4.9l0,3.8h10.9c0.7,0,1.3,0.6,1.3,1.3v8.6
		c0,0.7-0.6,1.3-1.3,1.3h-2.7c-0.5,0-1-0.4-1.1-0.9l-0.8-3.2v0c0.6-0.5,0.9-1.2,0.8-2.1c-0.1-1-1-1.7-1.9-1.9
		c-1.3-0.1-2.5,0.9-2.5,2.2c0,0.7,0.3,1.3,0.8,1.7h0c0,0-0.5,2-0.8,3.2c-0.1,0.5-0.6,0.9-1.1,0.9h-2.7c-0.7,0-1.3-0.6-1.3-1.3V-53"
		/>
</g>
<g>
	<circle class="st4" cx="-297.1" cy="-49.7" r="23"/>
	<path class="st5" d="M-320.3-49.7l23.2-0.1 M-297.2-49.9v-23.1V-49.9z M-285.5-49.9c0,6.4-5.2,11.6-11.6,11.6
		c-6.4,0-11.7-5.2-11.7-11.6c0-6.4,5.2-11.6,11.7-11.6C-290.7-61.5-285.5-56.3-285.5-49.9z M-279.9-49.9c0,9.5-7.7,17.3-17.3,17.3
		c-9.5,0-17.3-7.7-17.3-17.3c0-9.5,7.7-17.3,17.3-17.3C-287.6-67.1-279.9-59.4-279.9-49.9z"/>
	<path class="st6" d="M-312.8-55.1c1.2,0,2.2-1,2.2-2.2c0-1.2-1-2.2-2.2-2.2s-2.2,1-2.2,2.2C-315-56.1-314.1-55.1-312.8-55.1"/>
</g>
<g>
	<circle class="st4" cx="-355.5" cy="-49.3" r="23"/>
	<path class="st5" d="M-344.8-56.6l7.1,7.2 M-344.8-56.6l-7.1,10.3 M-358.9-42.1l7.1-4.2 M-358.9-42.1l-7.1-9.5 M-373-46.7l7.1-4.9"
		/>
	<path class="st6" d="M-368.1-51.6c0-1.2,1-2.1,2.1-2.1c1.2,0,2.1,1,2.1,2.1c0,1.2-1,2.1-2.1,2.1C-367.1-49.5-368.1-50.5-368.1-51.6
		"/>
	<path class="st6" d="M-361-42.1c0-1.2,1-2.1,2.1-2.1c1.2,0,2.1,1,2.1,2.1c0,1.2-1,2.1-2.1,2.1C-360-40-361-41-361-42.1"/>
	<path class="st6" d="M-353.9-46.3c0-1.2,1-2.1,2.1-2.1s2.1,1,2.1,2.1c0,1.2-1,2.1-2.1,2.1S-353.9-45.1-353.9-46.3"/>
	<path class="st6" d="M-346.9-56.6c0-1.2,1-2.1,2.1-2.1s2.1,1,2.1,2.1c0,1.2-1,2.1-2.1,2.1S-346.9-55.4-346.9-56.6"/>
	<path class="st6" d="M-340-49.5c0-1.2,1-2.1,2.1-2.1s2.1,1,2.1,2.1c0,1.2-1,2.1-2.1,2.1S-340-48.3-340-49.5"/>
	<path class="st6" d="M-374.8-46.9c0-1.2,1-2.1,2.1-2.1c1.2,0,2.1,1,2.1,2.1c0,1.2-1,2.1-2.1,2.1C-373.9-44.8-374.8-45.7-374.8-46.9
		"/>
</g>
<g>
	<circle class="st4" cx="-247.4" cy="-90" r="23"/>
	<g>
		<defs>
			<path id="SVGID_1_" d="M-271.2-90.2c0,12.4,9.6,22.6,21.8,23.5h3.6c11.7-0.9,21.1-10.4,21.8-22.2v-2.7
				c-0.7-12.4-11-22.2-23.6-22.2C-260.6-113.8-271.2-103.2-271.2-90.2"/>
		</defs>
		<clipPath id="SVGID_2_">
			<use xlink:href="#SVGID_1_"  style="overflow:visible;"/>
		</clipPath>
		<path class="st7" d="M-224.6-58.7h-12.1c-0.5,0-0.9-0.4-0.9-0.9v-5.2c0-0.5,0.4-0.9,0.9-0.9h12.1c0.5,0,0.9,0.4,0.9,0.9v5.2
			C-223.7-59.1-224.1-58.7-224.6-58.7z M-238.6-58.7h-12.1c-0.5,0-0.9-0.4-0.9-0.9v-5.2c0-0.5,0.4-0.9,0.9-0.9h12.1
			c0.5,0,0.9,0.4,0.9,0.9v5.2C-237.7-59.1-238.1-58.7-238.6-58.7z M-252.5-58.7h-12.1c-0.5,0-0.9-0.4-0.9-0.9v-5.2
			c0-0.5,0.4-0.9,0.9-0.9h12.1c0.5,0,0.9,0.4,0.9,0.9v5.2C-251.5-59.1-252-58.7-252.5-58.7z M-266.5-58.7h-12.1
			c-0.5,0-0.9-0.4-0.9-0.9v-5.2c0-0.5,0.4-0.9,0.9-0.9h12.1c0.5,0,0.9,0.4,0.9,0.9v5.2C-265.5-59.1-266-58.7-266.5-58.7z
			 M-217.3-65.7h-12.1c-0.5,0-0.9-0.4-0.9-0.9v-5.2c0-0.5,0.4-0.9,0.9-0.9h12.1c0.5,0,0.9,0.4,0.9,0.9v5.2
			C-216.4-66.1-216.8-65.7-217.3-65.7z M-231.3-65.7h-12.1c-0.5,0-0.9-0.4-0.9-0.9v-5.2c0-0.5,0.4-0.9,0.9-0.9h12.1
			c0.5,0,0.9,0.4,0.9,0.9v5.2C-230.4-66.1-230.8-65.7-231.3-65.7z M-245.2-65.7h-12.1c-0.5,0-0.9-0.4-0.9-0.9v-5.2
			c0-0.5,0.4-0.9,0.9-0.9h12.1c0.5,0,0.9,0.4,0.9,0.9v5.2C-244.3-66.1-244.7-65.7-245.2-65.7z M-259.2-65.7h-12.1
			c-0.5,0-0.9-0.4-0.9-0.9v-5.2c0-0.5,0.4-0.9,0.9-0.9h12.1c0.5,0,0.9,0.4,0.9,0.9v5.2C-258.3-66.1-258.7-65.7-259.2-65.7z
			 M-224.6-72.8h-12.1c-0.5,0-0.9-0.4-0.9-0.9V-79c0-0.5,0.4-0.9,0.9-0.9h12.1c0.5,0,0.9,0.4,0.9,0.9v5.2
			C-223.7-73.3-224.1-72.8-224.6-72.8z M-238.6-72.8h-12.1c-0.5,0-0.9-0.4-0.9-0.9V-79c0-0.5,0.4-0.9,0.9-0.9h12.1
			c0.5,0,0.9,0.4,0.9,0.9v5.2C-237.7-73.3-238.1-72.8-238.6-72.8z M-252.5-72.8h-12.1c-0.5,0-0.9-0.4-0.9-0.9V-79
			c0-0.5,0.4-0.9,0.9-0.9h12.1c0.5,0,0.9,0.4,0.9,0.9v5.2C-251.5-73.3-252-72.8-252.5-72.8z M-266.5-72.8h-12.1
			c-0.5,0-0.9-0.4-0.9-0.9V-79c0-0.5,0.4-0.9,0.9-0.9h12.1c0.5,0,0.9,0.4,0.9,0.9v5.2C-265.5-73.3-266-72.8-266.5-72.8z
			 M-217.3-79.9h-12.1c-0.5,0-0.9-0.4-0.9-0.9V-86c0-0.5,0.4-0.9,0.9-0.9h12.1c0.5,0,0.9,0.4,0.9,0.9v5.2
			C-216.4-80.3-216.8-79.9-217.3-79.9z M-231.3-79.9h-12.1c-0.5,0-0.9-0.4-0.9-0.9V-86c0-0.5,0.4-0.9,0.9-0.9h12.1
			c0.5,0,0.9,0.4,0.9,0.9v5.2C-230.4-80.3-230.8-79.9-231.3-79.9z M-245.2-79.9h-12.1c-0.5,0-0.9-0.4-0.9-0.9V-86
			c0-0.5,0.4-0.9,0.9-0.9h12.1c0.5,0,0.9,0.4,0.9,0.9v5.2C-244.3-80.3-244.7-79.9-245.2-79.9z M-259.2-79.9h-12.1
			c-0.5,0-0.9-0.4-0.9-0.9V-86c0-0.5,0.4-0.9,0.9-0.9h12.1c0.5,0,0.9,0.4,0.9,0.9v5.2C-258.3-80.3-258.7-79.9-259.2-79.9z
			 M-224.6-87h-12.1c-0.5,0-0.9-0.4-0.9-0.9v-5.2c0-0.5,0.4-0.9,0.9-0.9h12.1c0.5,0,0.9,0.4,0.9,0.9v5.2
			C-223.7-87.4-224.1-87-224.6-87z M-238.6-87h-12.1c-0.5,0-0.9-0.4-0.9-0.9v-5.2c0-0.5,0.4-0.9,0.9-0.9h12.1c0.5,0,0.9,0.4,0.9,0.9
			v5.2C-237.7-87.4-238.1-87-238.6-87z M-252.5-87h-12.1c-0.5,0-0.9-0.4-0.9-0.9v-5.2c0-0.5,0.4-0.9,0.9-0.9h12.1
			c0.5,0,0.9,0.4,0.9,0.9v5.2C-251.5-87.4-252-87-252.5-87z M-266.5-87h-12.1c-0.5,0-0.9-0.4-0.9-0.9v-5.2c0-0.5,0.4-0.9,0.9-0.9
			h12.1c0.5,0,0.9,0.4,0.9,0.9v5.2C-265.5-87.4-266-87-266.5-87z"/>
	</g>
</g>
<circle class="st4" cx="-185.5" cy="-64.6" r="23"/>
<path class="st8" d="M-185.4-55.4c-1.2-0.5-5.6-2.7-5.6-7.1v-6.8c2.6-0.1,4.7-1,5.6-1.5c0.9,0.5,3,1.4,5.6,1.5v6.8
	C-179.8-58-184.2-55.9-185.4-55.4z"/>
<path class="st8" d="M-183-60.5h-4.8V-64h4.8V-60.5z M-186.9-64v-1.4c0-0.8,0.7-1.5,1.5-1.5c0.8,0,1.5,0.7,1.5,1.5v1.4"/>
<path class="st8" d="M-171.8-71.5l0-1.4c0-0.5-0.4-0.9-0.9-0.9l-12.3,0.1l-3.6-3.6l-8.6,0c-1,0-1.9,0.9-1.9,1.9l0.1,22.7h27.2V-71.5
	z"/>
<g>
	<circle class="st4" cx="-119.3" cy="-60.1" r="23"/>
	<path class="st8" d="M-108.8-51.4c0,1.8-1.5,3.3-3.3,3.3c-1.8,0-3.3-1.5-3.3-3.3c0-1.8,1.5-3.3,3.3-3.3
		C-110.3-54.7-108.8-53.2-108.8-51.4z M-112.9-52.3l0.8,2l1.5-3.9 M-128-55.3h9.1 M-128-58.1h14.7 M-128-60.9h14.7 M-128-63.8h14.7
		 M-128-66.6h9.9 M-128-69.4h9.9 M-113.4-75.1h6.9v29.8h-25.2v-29.8H-113.4z"/>
</g>
<circle class="st4" cx="-56.5" cy="-55.7" r="23"/>
<path class="st8" d="M-56.7-50.5v1.1 M-56.7-61.3v7.2 M-56.7-69.8l-13.9,24.2h27.9L-56.7-69.8z"/>
<circle class="st4" cx="17" cy="-55.4" r="23"/>
<path class="st8" d="M17-38c-2.4-1-11.4-5.4-11.4-14.4v-13.7c5.3-0.1,9.6-2,11.4-3c1.8,1,6,2.8,11.4,3v13.7C28.4-43.4,19.4-39,17-38
	z"/>
<path class="st8" d="M21.9-48.3h-9.8v-7.1h9.8V-48.3z M14-55.4v-2.8c0-1.6,1.3-3,3-3c1.6,0,3,1.3,3,3v2.8"/>
<g>
	<path class="st0" d="M142.9-77.4v-5.9c0-16.5-12.9-30.4-29.4-30.8c-17.1-0.5-31.1,13.2-31.1,30.2l0,23.2h67.2
		c4.2,0,7.7,3.5,7.7,7.7V0c0,4.2-3.5,7.7-7.7,7.7c0,0-10.2,0-16.8,0c-3.3,0-6.2-2.3-7-5.5L121-17.7l0,0c3.6-2.9,5.8-7.6,5-12.7
		c-0.9-6-5.8-10.7-11.8-11.4c-8.2-0.9-15.1,5.5-15.1,13.5c0,4.3,2,8.2,5.2,10.6l0,0c0,0-3,12.4-4.8,19.9c-0.8,3.2-3.7,5.5-7,5.5
		H75.7c-4.2,0-7.7-3.5-7.7-7.7v-53.1"/>
</g>
<g>
	<path class="st9" d="M18.5,11.7c1.7,0.6,3.7,0.2,5-1.1c1.4-1.4,1.7-3.3,1.1-5l-2.4,2.4c-0.3,0.3-0.8,0.3-1.1,0l-1.8-1.8
		c-0.3-0.3-0.3-0.8,0-1.1l2.4-2.4c-1.7-0.6-3.7-0.2-5,1.1c-1.4,1.4-1.7,3.3-1.1,5l-7.4,7.4c-1.7-0.6-3.7-0.2-5,1.1
		c-1.4,1.4-1.7,3.3-1.1,5l2.4-2.4c0.3-0.3,0.8-0.3,1.1,0l1.8,1.8c0.3,0.3,0.3,0.8,0,1.1l-2.4,2.4c1.7,0.6,3.7,0.2,5-1.1
		c1.4-1.4,1.7-3.3,1.1-5l2.2-2.2"/>
	<path class="st9" d="M13.3,16.9l-5.8-6.2c-1-1-2.7-1-3.7,0c-0.9,0.9-1,2.4-0.2,3.4l-2,1.3c0,0-3.2-4.8,0.5-8.5
		c1.3-1.3,2.5-2.5,3.6-3.6c0.3,0.1,0.7,0.1,1,0.2C7,3.6,7.2,3.3,7.2,3L7,1.9l1.7-1.7l4.6,4.6l-1.6,1.6c-0.5-0.5-1.3-0.5-1.7,0
		C9.4,7,9.4,7.8,9.9,8.3l12.8,11.9c0.1,0.1,0.2,0.2,0.2,0.2c0.7,0.8,0.7,2,0.1,2.9c-0.9,1.1-2.5,1.2-3.5,0.3c0,0-0.1-0.1-0.1-0.1
		L15.3,19"/>
</g>
</svg>
