<?xml version="1.0" encoding="utf-8"?>
<!-- Generator: Adobe Illustrator 21.1.0, SVG Export Plug-In . SVG Version: 6.00 Build 0)  -->
<svg version="1.1" id="Layer_1" xmlns="http://www.w3.org/2000/svg" xmlns:xlink="http://www.w3.org/1999/xlink" x="0px" y="0px"
	 viewBox="0 0 47.6 47.6" style="enable-background:new 0 0 47.6 47.6;" xml:space="preserve">
<style type="text/css">
	.st0{fill:none;stroke:#662F8F;stroke-width:4;stroke-linecap:round;stroke-linejoin:round;stroke-miterlimit:10;}
	.st1{fill:#662F8F;}
	.st2{fill:none;stroke:#662F8F;stroke-width:2;stroke-linecap:round;stroke-linejoin:round;stroke-miterlimit:10;}
	.st3{fill:none;stroke:#FFFFFF;stroke-width:0.488;stroke-linecap:round;stroke-linejoin:round;stroke-miterlimit:10;}
	.st4{fill:none;stroke:#E73E51;stroke-width:1.6927;}
	.st5{fill:none;stroke:#E73E51;stroke-width:1.1285;stroke-linecap:round;stroke-linejoin:round;stroke-miterlimit:10;}
	.st6{fill:#E73E51;}
	
		.st7{clip-path:url(#SVGID_2_);fill:none;stroke:#E73E51;stroke-width:1.1285;stroke-linecap:round;stroke-linejoin:round;stroke-miterlimit:10;}
	.st8{fill:none;stroke:#EE4050;stroke-width:1.1285;stroke-linecap:round;stroke-linejoin:round;stroke-miterlimit:10;}
	.st9{fill:none;stroke:#FFFFFF;stroke-width:0.574;stroke-linecap:round;stroke-linejoin:round;stroke-miterlimit:10;}
	.st10{fill:none;stroke:#A491C4;stroke-width:0.5657;stroke-miterlimit:10;}
	.st11{fill:none;stroke:#F7F8F9;stroke-width:1.2708;stroke-miterlimit:10;}
	.st12{fill:url(#SVGID_3_);}
	.st13{fill:#9289C1;}
	.st14{fill:#F79F7C;}
	.st15{fill:#EF619B;}
	.st16{fill:#F28BB9;}
	.st17{fill:#FABEA9;}
	.st18{fill:#F37B8A;}
	.st19{fill:none;stroke:#633493;stroke-width:5.1599;stroke-linecap:round;stroke-linejoin:round;stroke-miterlimit:10;}
	.st20{fill:none;stroke:#FFFFFF;stroke-width:1.0098;stroke-linecap:round;stroke-linejoin:round;stroke-miterlimit:10;}
	.st21{fill:none;stroke:#662F8F;stroke-width:1.5111;stroke-linecap:round;stroke-linejoin:round;stroke-miterlimit:10;}
	.st22{fill:none;stroke:#FFFFFF;stroke-width:1.6611;stroke-linecap:round;stroke-linejoin:round;stroke-miterlimit:10;}
	.st23{fill:none;stroke:#662F8F;stroke-width:0.75;stroke-miterlimit:10;}
	.st24{fill:none;stroke:#E73E51;stroke-width:0.9998;stroke-linecap:round;stroke-linejoin:round;stroke-miterlimit:10;}
	.st25{fill:none;}
	.st26{fill:#EE4050;}
</style>
<g>
	<path class="st0" d="M-662.6-351.7c9.6-9.6,22.8-15.5,37.3-15.5"/>
	<path class="st0" d="M-648.3-337.3c5.9-5.9,14-9.5,23-9.5"/>
	<path class="st0" d="M-691.4-380.5c17.7-17.7,41.2-27.4,66.1-27.4c25,0,48.4,9.7,66.1,27.4"/>
	<path class="st0" d="M-573.6-366.1c-13.3-13.3-31.6-21.5-51.7-21.5c-20.2,0-38.5,8.2-51.7,21.5"/>
	<path class="st0" d="M-588-351.7c-9.6-9.6-22.8-15.5-37.3-15.5"/>
	<path class="st0" d="M-602.3-337.3c-5.9-5.9-14-9.5-23-9.5"/>
	<path class="st0" d="M-616.7-305.8c-2.2,2.2-5.2,3.5-8.6,3.5c-6.7,0-12.1-5.4-12.1-12.1s5.4-12.1,12.1-12.1c3.3,0,6.4,1.4,8.6,3.5"
		/>
	<path class="st0" d="M-573.6-366.1c4,4,4,10.4,0,14.4c-4,4-10.4,4-14.4,0"/>
	<path class="st0" d="M-648.3-337.3c-4,4-10.4,4-14.4,0c-4-4-4-10.4,0-14.4"/>
	<path class="st0" d="M-602.3-337.3c4,4,4,10.4,0,14.4c-4,4-10.4,4-14.4,0"/>
	<path class="st0" d="M-677-366.1c-4,4-10.4,4-14.4,0c-4-4-4-10.4,0-14.4"/>
</g>
<g>
	<path class="st1" d="M-479.5-417.6c-28.7,0-52,23.3-52,52s23.3,52,52,52s52-23.3,52-52S-450.9-417.6-479.5-417.6z M-479.5-317.2
		c-26.6,0-48.3-21.7-48.3-48.3s21.7-48.3,48.3-48.3s48.3,21.7,48.3,48.3S-452.9-317.2-479.5-317.2z"/>
	<path class="st1" d="M-443-371.4c-4.8-4.7-10.4-8.3-16.4-10.7c0-0.3,0.1-0.7,0.1-1c0-11.1-9-20.2-20.2-20.2s-20.2,9-20.2,20.2
		c0,0.6,0,1.1,0.1,1.7c-5.5,2.4-10.5,5.8-14.9,10.1c0,0-0.1,0.1-0.1,0.1c-1.2,1.2-1.8,2.8-1.8,4.5c0,1.7,0.7,3.4,1.9,4.6
		c2.6,2.5,6.7,2.5,9.3,0c0,0,0,0,0,0c3.2-3.1,6.8-5.6,10.8-7.4c2.3,2.5,5.2,4.5,8.5,5.5c-5,1.2-9.6,3.7-13.4,7.4
		c0,0-0.1,0.1-0.1,0.1c-1.3,1.2-1.9,2.9-1.9,4.6c0,1.7,0.7,3.4,1.9,4.6c2.6,2.5,6.7,2.5,9.3,0c0,0,0,0,0,0h0c3-2.9,7-4.5,11.3-4.5
		c4.3,0,8.3,1.6,11.3,4.5c0,0,0,0,0,0c0.8,0.8,1.2,1.8,1.2,2.8c0,1.1-0.4,2.1-1.2,2.8c-1.6,1.6-4.3,1.6-5.9,0c0,0-0.1-0.1-0.1-0.1
		c-1.4-1.3-3.3-2.1-5.3-2.1c-4.2,0-7.6,3.3-7.6,7.5c0,4.1,3.4,7.5,7.6,7.5c2,0,3.9-0.8,5.4-2.2c0.5-0.5,0.5-1.3,0-1.7
		c-0.5-0.5-1.3-0.5-1.7,0c-1,1-2.3,1.5-3.7,1.5c-2.8,0-5.2-2.2-5.2-5c0-2.8,2.3-5,5.2-5c1.4,0,2.7,0.5,3.7,1.5c0,0,0.1,0.1,0.1,0.1
		c2.6,2.4,6.7,2.4,9.2-0.1c1.3-1.2,1.9-2.9,1.9-4.6s-0.7-3.4-1.9-4.6c0,0,0,0,0,0c-3.5-3.4-8.1-5.2-13-5.2c-4.9,0-9.5,1.9-13,5.2
		c0,0,0,0,0,0c-1.6,1.6-4.3,1.6-5.9,0c-0.8-0.8-1.2-1.8-1.2-2.8c0-1,0.4-2,1.1-2.7c0,0,0.1-0.1,0.1-0.1c5-4.9,11.7-7.6,18.8-7.6
		c7.1,0,13.8,2.7,18.8,7.6c0,0,0,0,0,0c2.6,2.5,6.7,2.5,9.3,0c1.3-1.2,1.9-2.9,1.9-4.6c0-1.7-0.7-3.4-1.9-4.6c0,0,0,0,0,0
		c-3.6-3.5-7.7-6.2-12.1-8.1c1.5-2.2,2.5-4.8,3-7.5c5.5,2.3,10.6,5.7,15,9.9c0.5,0.5,1.3,0.5,1.7,0
		C-442.5-370.2-442.5-370.9-443-371.4z M-506.9-364C-506.9-364-506.9-364-506.9-364c-1.6,1.6-4.3,1.6-5.9,0
		c-0.8-0.8-1.2-1.8-1.2-2.8c0-1.1,0.4-2.1,1.2-2.8c0,0,0.1-0.1,0.1-0.1c4-3.9,8.5-6.9,13.5-9.2c0.6,2.7,1.7,5.2,3.3,7.4
		C-500-369.7-503.7-367.2-506.9-364z M-452.3-362.2C-452.3-362.2-452.3-362.2-452.3-362.2c0.8,0.8,1.2,1.8,1.2,2.8
		c0,1.1-0.4,2.1-1.2,2.8c-1.6,1.6-4.3,1.6-5.9,0c0,0,0,0,0,0c-4-3.9-9-6.5-14.4-7.7c3.3-1.2,6.1-3.2,8.4-5.8
		C-459.8-368.3-455.8-365.6-452.3-362.2z M-479.5-365.5c-9.8,0-17.7-7.9-17.7-17.7c0-9.8,7.9-17.7,17.7-17.7s17.7,7.9,17.7,17.7
		C-461.8-373.4-469.8-365.5-479.5-365.5z"/>
	<path class="st1" d="M-487.2-384.5h-1.9l0.1-3.7h5.6v-1.5h-7.1l-0.2,6.6h2.9c2.5,0,3.4,1.1,3.4,2.5c0,1.4-1,2.5-2.8,2.5
		c-1.3,0-2.5-0.6-3.4-1.6l-1,1c1.1,1.3,2.6,2,4.4,2c2.4,0,4.5-1.5,4.5-4.2C-482.7-382.7-484.1-384.5-487.2-384.5z"/>
	<path class="st1" d="M-473.2-383.7v1.5h3.9c-0.3,2.5-1.9,4.1-4.5,4.1c-2.8,0-4.9-2.1-4.9-5.1c0-3,2.2-5.1,5-5.1
		c1.6,0,2.9,0.7,3.8,1.7l1.2-1.2c-1.2-1.3-3-2.1-5-2.1c-3.9,0-6.7,2.8-6.7,6.7c0,4.2,3.2,6.7,6.6,6.7c3.9,0,6.3-3,6.3-6.7
		c0-0.1,0-0.3,0-0.4H-473.2z"/>
</g>
<g>
	<line class="st2" x1="-347.7" y1="-331.9" x2="-347.7" y2="-323.3"/>
	<path class="st2" d="M-361.4-323.3c-2.8,0-5.2-2.3-5.2-5.2v-77.8c0-2.8,2.3-5.2,5.2-5.2h69.9c2.8,0,5.2,2.3,5.2,5.2v77.8
		c0,2.8-2.3,5.2-5.2,5.2h-56.2"/>
	<path class="st2" d="M-347.7-331.9h-5c-2.8,0-5.2-2.3-5.2-5.2v-60.4c0-2.8,2.3-5.2,5.2-5.2h10.1c2.8,0,5.2,2.3,5.2,5.2v60.4"/>
	<g>
		<g>
			<circle class="st2" cx="-325.7" cy="-382.1" r="3.8"/>
			<circle class="st2" cx="-311.8" cy="-382.1" r="3.8"/>
			<circle class="st2" cx="-297.9" cy="-382.1" r="3.8"/>
			<circle class="st2" cx="-325.7" cy="-368.2" r="3.8"/>
			<circle class="st2" cx="-311.8" cy="-368.2" r="3.8"/>
			<circle class="st2" cx="-297.9" cy="-368.2" r="3.8"/>
			<circle class="st2" cx="-325.7" cy="-354.3" r="3.8"/>
			<circle class="st2" cx="-311.8" cy="-354.3" r="3.8"/>
			<circle class="st2" cx="-297.9" cy="-354.3" r="3.8"/>
			<circle class="st2" cx="-325.7" cy="-340.4" r="3.8"/>
			<circle class="st2" cx="-311.8" cy="-340.4" r="3.8"/>
			<circle class="st2" cx="-297.9" cy="-340.4" r="3.8"/>
		</g>
		<line class="st2" x1="-329.5" y1="-398" x2="-294.1" y2="-398"/>
	</g>
</g>
<g>
	<path class="st3" d="M-430.3-219.5v-1c0-2.7-2.1-4.9-4.8-5c-2.8-0.1-5.1,2.2-5.1,4.9l0,3.8h10.9c0.7,0,1.3,0.6,1.3,1.3v8.6
		c0,0.7-0.6,1.3-1.3,1.3h-2.7c-0.5,0-1-0.4-1.1-0.9l-0.8-3.2v0c0.6-0.5,0.9-1.2,0.8-2.1c-0.1-1-1-1.7-1.9-1.9
		c-1.3-0.1-2.5,0.9-2.5,2.2c0,0.7,0.3,1.3,0.8,1.7h0c0,0-0.5,2-0.8,3.2c-0.1,0.5-0.6,0.9-1.1,0.9h-2.7c-0.7,0-1.3-0.6-1.3-1.3v-8.6"
		/>
</g>
<g>
	<circle class="st4" cx="-312" cy="-212.2" r="23"/>
	<path class="st5" d="M-335.3-212.3l23.2-0.1 M-312.1-212.4v-23.1V-212.4z M-300.4-212.4c0,6.4-5.2,11.6-11.6,11.6
		c-6.4,0-11.7-5.2-11.7-11.6c0-6.4,5.2-11.6,11.7-11.6C-305.7-224-300.4-218.8-300.4-212.4z M-294.8-212.4c0,9.5-7.7,17.3-17.3,17.3
		c-9.5,0-17.3-7.7-17.3-17.3c0-9.5,7.7-17.3,17.3-17.3C-302.6-229.6-294.8-221.9-294.8-212.4z"/>
	<path class="st6" d="M-327.8-217.7c1.2,0,2.2-1,2.2-2.2c0-1.2-1-2.2-2.2-2.2c-1.2,0-2.2,1-2.2,2.2
		C-330-218.6-329-217.7-327.8-217.7"/>
</g>
<g>
	<circle class="st4" cx="-370.5" cy="-211.8" r="23"/>
	<path class="st5" d="M-359.7-219.1l7.1,7.2 M-359.7-219.1l-7.1,10.3 M-373.8-204.6l7.1-4.2 M-373.8-204.6l-7.1-9.5 M-387.9-209.2
		l7.1-4.9"/>
	<path class="st6" d="M-383-214.2c0-1.2,1-2.1,2.1-2.1s2.1,1,2.1,2.1c0,1.2-1,2.1-2.1,2.1S-383-213-383-214.2"/>
	<path class="st6" d="M-375.9-204.6c0-1.2,1-2.1,2.1-2.1s2.1,1,2.1,2.1c0,1.2-1,2.1-2.1,2.1S-375.9-203.5-375.9-204.6"/>
	<path class="st6" d="M-368.9-208.8c0-1.2,1-2.1,2.1-2.1c1.2,0,2.1,1,2.1,2.1c0,1.2-1,2.1-2.1,2.1
		C-367.9-206.7-368.9-207.7-368.9-208.8"/>
	<path class="st6" d="M-361.8-219.1c0-1.2,1-2.1,2.1-2.1c1.2,0,2.1,1,2.1,2.1c0,1.2-1,2.1-2.1,2.1
		C-360.9-217-361.8-217.9-361.8-219.1"/>
	<path class="st6" d="M-354.9-212c0-1.2,1-2.1,2.1-2.1c1.2,0,2.1,1,2.1,2.1c0,1.2-1,2.1-2.1,2.1C-354-209.9-354.9-210.9-354.9-212"
		/>
	<path class="st6" d="M-389.8-209.4c0-1.2,1-2.1,2.1-2.1c1.2,0,2.1,1,2.1,2.1c0,1.2-1,2.1-2.1,2.1
		C-388.8-207.3-389.8-208.2-389.8-209.4"/>
</g>
<g>
	<circle class="st4" cx="-262.3" cy="-252.5" r="23"/>
	<g>
		<defs>
			<path id="SVGID_1_" d="M-286.1-252.7c0,12.4,9.6,22.6,21.8,23.5h3.6c11.7-0.9,21.1-10.4,21.8-22.2v-2.7
				c-0.7-12.4-11-22.2-23.6-22.2C-275.5-276.3-286.1-265.8-286.1-252.7"/>
		</defs>
		<clipPath id="SVGID_2_">
			<use xlink:href="#SVGID_1_"  style="overflow:visible;"/>
		</clipPath>
		<path class="st7" d="M-239.5-221.2h-12.1c-0.5,0-0.9-0.4-0.9-0.9v-5.2c0-0.5,0.4-0.9,0.9-0.9h12.1c0.5,0,0.9,0.4,0.9,0.9v5.2
			C-238.6-221.6-239-221.2-239.5-221.2z M-253.5-221.2h-12.1c-0.5,0-0.9-0.4-0.9-0.9v-5.2c0-0.5,0.4-0.9,0.9-0.9h12.1
			c0.5,0,0.9,0.4,0.9,0.9v5.2C-252.6-221.6-253-221.2-253.5-221.2z M-267.4-221.2h-12.1c-0.5,0-0.9-0.4-0.9-0.9v-5.2
			c0-0.5,0.4-0.9,0.9-0.9h12.1c0.5,0,0.9,0.4,0.9,0.9v5.2C-266.5-221.6-266.9-221.2-267.4-221.2z M-281.4-221.2h-12.1
			c-0.5,0-0.9-0.4-0.9-0.9v-5.2c0-0.5,0.4-0.9,0.9-0.9h12.1c0.5,0,0.9,0.4,0.9,0.9v5.2C-280.5-221.6-280.9-221.2-281.4-221.2z
			 M-232.3-228.2h-12.1c-0.5,0-0.9-0.4-0.9-0.9v-5.2c0-0.5,0.4-0.9,0.9-0.9h12.1c0.5,0,0.9,0.4,0.9,0.9v5.2
			C-231.3-228.7-231.7-228.2-232.3-228.2z M-246.3-228.2h-12.1c-0.5,0-0.9-0.4-0.9-0.9v-5.2c0-0.5,0.4-0.9,0.9-0.9h12.1
			c0.5,0,0.9,0.4,0.9,0.9v5.2C-245.3-228.7-245.7-228.2-246.3-228.2z M-260.1-228.2h-12.1c-0.5,0-0.9-0.4-0.9-0.9v-5.2
			c0-0.5,0.4-0.9,0.9-0.9h12.1c0.5,0,0.9,0.4,0.9,0.9v5.2C-259.2-228.7-259.6-228.2-260.1-228.2z M-274.1-228.2h-12.1
			c-0.5,0-0.9-0.4-0.9-0.9v-5.2c0-0.5,0.4-0.9,0.9-0.9h12.1c0.5,0,0.9,0.4,0.9,0.9v5.2C-273.2-228.7-273.6-228.2-274.1-228.2z
			 M-239.5-235.4h-12.1c-0.5,0-0.9-0.4-0.9-0.9v-5.2c0-0.5,0.4-0.9,0.9-0.9h12.1c0.5,0,0.9,0.4,0.9,0.9v5.2
			C-238.6-235.8-239-235.4-239.5-235.4z M-253.5-235.4h-12.1c-0.5,0-0.9-0.4-0.9-0.9v-5.2c0-0.5,0.4-0.9,0.9-0.9h12.1
			c0.5,0,0.9,0.4,0.9,0.9v5.2C-252.6-235.8-253-235.4-253.5-235.4z M-267.4-235.4h-12.1c-0.5,0-0.9-0.4-0.9-0.9v-5.2
			c0-0.5,0.4-0.9,0.9-0.9h12.1c0.5,0,0.9,0.4,0.9,0.9v5.2C-266.5-235.8-266.9-235.4-267.4-235.4z M-281.4-235.4h-12.1
			c-0.5,0-0.9-0.4-0.9-0.9v-5.2c0-0.5,0.4-0.9,0.9-0.9h12.1c0.5,0,0.9,0.4,0.9,0.9v5.2C-280.5-235.8-280.9-235.4-281.4-235.4z
			 M-232.3-242.4h-12.1c-0.5,0-0.9-0.4-0.9-0.9v-5.2c0-0.5,0.4-0.9,0.9-0.9h12.1c0.5,0,0.9,0.4,0.9,0.9v5.2
			C-231.3-242.8-231.7-242.4-232.3-242.4z M-246.3-242.4h-12.1c-0.5,0-0.9-0.4-0.9-0.9v-5.2c0-0.5,0.4-0.9,0.9-0.9h12.1
			c0.5,0,0.9,0.4,0.9,0.9v5.2C-245.3-242.8-245.7-242.4-246.3-242.4z M-260.1-242.4h-12.1c-0.5,0-0.9-0.4-0.9-0.9v-5.2
			c0-0.5,0.4-0.9,0.9-0.9h12.1c0.5,0,0.9,0.4,0.9,0.9v5.2C-259.2-242.8-259.6-242.4-260.1-242.4z M-274.1-242.4h-12.1
			c-0.5,0-0.9-0.4-0.9-0.9v-5.2c0-0.5,0.4-0.9,0.9-0.9h12.1c0.5,0,0.9,0.4,0.9,0.9v5.2C-273.2-242.8-273.6-242.4-274.1-242.4z
			 M-239.5-249.5h-12.1c-0.5,0-0.9-0.4-0.9-0.9v-5.2c0-0.5,0.4-0.9,0.9-0.9h12.1c0.5,0,0.9,0.4,0.9,0.9v5.2
			C-238.6-250-239-249.5-239.5-249.5z M-253.5-249.5h-12.1c-0.5,0-0.9-0.4-0.9-0.9v-5.2c0-0.5,0.4-0.9,0.9-0.9h12.1
			c0.5,0,0.9,0.4,0.9,0.9v5.2C-252.6-250-253-249.5-253.5-249.5z M-267.4-249.5h-12.1c-0.5,0-0.9-0.4-0.9-0.9v-5.2
			c0-0.5,0.4-0.9,0.9-0.9h12.1c0.5,0,0.9,0.4,0.9,0.9v5.2C-266.5-250-266.9-249.5-267.4-249.5z M-281.4-249.5h-12.1
			c-0.5,0-0.9-0.4-0.9-0.9v-5.2c0-0.5,0.4-0.9,0.9-0.9h12.1c0.5,0,0.9,0.4,0.9,0.9v5.2C-280.5-250-280.9-249.5-281.4-249.5z"/>
	</g>
</g>
<circle class="st4" cx="-200.4" cy="-227.1" r="23"/>
<path class="st8" d="M-200.3-217.9c-1.2-0.5-5.6-2.7-5.6-7.1v-6.8c2.6-0.1,4.7-1,5.6-1.5c0.9,0.5,3,1.4,5.6,1.5v6.8
	C-194.7-220.6-199.1-218.4-200.3-217.9z"/>
<path class="st8" d="M-197.9-223h-4.8v-3.5h4.8V-223z M-201.8-226.5v-1.4c0-0.8,0.7-1.5,1.5-1.5c0.8,0,1.5,0.7,1.5,1.5v1.4"/>
<path class="st8" d="M-186.7-234l0-1.4c0-0.5-0.4-0.9-0.9-0.9l-12.3,0.1l-3.6-3.6l-8.6,0c-1,0-1.9,0.9-1.9,1.9l0.1,22.7h27.2V-234z"
	/>
<g>
	<circle class="st4" cx="-134.2" cy="-222.7" r="23"/>
	<path class="st8" d="M-123.8-213.9c0,1.8-1.5,3.3-3.3,3.3c-1.8,0-3.3-1.5-3.3-3.3c0-1.8,1.5-3.3,3.3-3.3
		C-125.2-217.2-123.8-215.7-123.8-213.9z M-127.8-214.8l0.8,2l1.5-3.9 M-143-217.8h9.1 M-143-220.6h14.7 M-143-223.4h14.7
		 M-143-226.3h14.7 M-143-229.1h9.9 M-143-231.9h9.9 M-128.3-237.6h6.9v29.8h-25.2v-29.8H-128.3z"/>
</g>
<circle class="st4" cx="-71.5" cy="-218.2" r="23"/>
<path class="st8" d="M-71.6-213v1.1 M-71.6-223.8v7.2 M-71.6-232.3l-13.9,24.2h27.9L-71.6-232.3z"/>
<circle class="st4" cx="2.1" cy="-217.9" r="23"/>
<path class="st8" d="M2.1-200.5c-2.4-1-11.4-5.4-11.4-14.4v-13.7c5.3-0.1,9.6-2,11.4-3c1.8,1,6,2.8,11.4,3v13.7
	C13.5-205.9,4.5-201.5,2.1-200.5z"/>
<path class="st8" d="M7-210.9h-9.8v-7.1H7V-210.9z M-0.9-217.9v-2.8c0-1.6,1.3-3,3-3c1.6,0,3,1.3,3,3v2.8"/>
<g>
	<path class="st0" d="M127.9-239.9v-5.9c0-16.5-12.9-30.4-29.4-30.8c-17.1-0.5-31.1,13.2-31.1,30.2l0,23.2h67.2
		c4.2,0,7.7,3.5,7.7,7.7v53.1c0,4.2-3.5,7.7-7.7,7.7c0,0-10.2,0-16.8,0c-3.3,0-6.2-2.3-7-5.5l-4.8-19.9l0,0c3.6-2.9,5.8-7.6,5-12.7
		c-0.9-6-5.8-10.7-11.8-11.4c-8.2-0.9-15.1,5.5-15.1,13.5c0,4.3,2,8.2,5.2,10.6l0,0c0,0-3,12.4-4.8,19.9c-0.8,3.2-3.7,5.5-7,5.5
		H60.7c-4.2,0-7.7-3.5-7.7-7.7v-53.1"/>
</g>
<g>
	<path class="st9" d="M3.6-150.8c1.7,0.6,3.7,0.2,5-1.1c1.4-1.4,1.7-3.3,1.1-5l-2.4,2.4c-0.3,0.3-0.8,0.3-1.1,0l-1.8-1.8
		c-0.3-0.3-0.3-0.8,0-1.1l2.4-2.4c-1.7-0.6-3.7-0.2-5,1.1c-1.4,1.4-1.7,3.3-1.1,5l-7.4,7.4c-1.7-0.6-3.7-0.2-5,1.1
		c-1.4,1.4-1.7,3.3-1.1,5l2.4-2.4c0.3-0.3,0.8-0.3,1.1,0l1.8,1.8c0.3,0.3,0.3,0.8,0,1.1l-2.4,2.4c1.7,0.6,3.7,0.2,5-1.1
		c1.4-1.4,1.7-3.3,1.1-5l2.2-2.2"/>
	<path class="st9" d="M-1.6-145.6l-5.8-6.2c-1-1-2.7-1-3.7,0c-0.9,0.9-1,2.4-0.2,3.4l-2,1.3c0,0-3.2-4.8,0.5-8.5
		c1.3-1.3,2.5-2.5,3.6-3.6c0.3,0.1,0.7,0.1,1,0.2c0.3,0.1,0.6-0.2,0.5-0.5l-0.2-1l1.7-1.7l4.6,4.6l-1.6,1.6c-0.5-0.5-1.3-0.5-1.7,0
		c-0.5,0.5-0.5,1.3,0,1.7l12.8,11.9c0.1,0.1,0.2,0.2,0.2,0.2c0.7,0.8,0.7,2,0.1,2.9c-0.9,1.1-2.5,1.2-3.5,0.3c0,0-0.1-0.1-0.1-0.1
		l-4.2-4.4"/>
</g>
<g>
	<path class="st10" d="M319.2,167.2c-16.8,29.7-59.2,67.7-114.4,99.6c-81.9,47.3-161,63.4-176.8,36c-7.4-12.7,0.3-32.6,18.8-55"/>
	<path class="st10" d="M266.1,120.6c29.3-5.1,50.9-1.9,58.3,11c2.6,4.5,3.3,10,2.3,16.1"/>
	<circle class="st10" cx="323.8" cy="157.8" r="10.5"/>
	<circle class="st10" cx="172.4" cy="189.4" r="132"/>
</g>
<image style="overflow:visible;" width="1600" height="700" xlink:href="../Dropbox (Muuaaa)/Muuaaa Team Folder/Graphic Design_Gabriel/Neptuno/02 Design/images/slide-22.jpg"  transform="matrix(0.4158 0 0 0.4158 -117.707 -325.2825)">
</image>
<image style="overflow:visible;" width="1078" height="516" xlink:href="datacenter-google-1078x516.jpg"  transform="matrix(1 0 0 1 8.6182 -966.2539)">
</image>
<g>
	<g>
		<g>
			<path class="st11" d="M902.9,136.1c7.8-13.2,12.3-28.7,12.3-45.2c0-49.1-39.8-88.9-88.9-88.9c-49.1,0-88.9,39.8-88.9,88.9
				c0,16,4.2,30.9,11.6,43.9"/>
			<path class="st11" d="M759.2,149.1c16.3,18.8,40.3,30.7,67.2,30.7c26.8,0,50.9-11.9,67.2-30.7"/>
			<rect x="753.8" y="145.9" class="st11" width="45.9" height="3.2"/>
			<g>
				<rect x="749" y="130.8" class="st11" width="55.3" height="15.1"/>
				<line class="st11" x1="753.6" y1="135" x2="753.6" y2="141.6"/>
				<line class="st11" x1="757.1" y1="135" x2="757.1" y2="141.6"/>
				<line class="st11" x1="760.6" y1="135" x2="760.6" y2="141.6"/>
				<line class="st11" x1="764.1" y1="135" x2="764.1" y2="141.6"/>
				<line class="st11" x1="767.5" y1="135" x2="767.5" y2="141.6"/>
				<line class="st11" x1="771" y1="135" x2="771" y2="141.6"/>
				<circle class="st11" cx="797.7" cy="138.3" r="2.3"/>
				<circle class="st11" cx="789.7" cy="138.3" r="2.3"/>
				<circle class="st11" cx="781.7" cy="138.3" r="2.3"/>
			</g>
			<path class="st11" d="M758.8,130.8v-19.6c0-1.2,1-2.2,2.2-2.2l0,0c1.2,0,2.2,1,2.2,2.2v19.6"/>
			<path class="st11" d="M752.9,98.8c2.1-2.1,5-3.4,8.1-3.4"/>
			<path class="st11" d="M755.2,102c1.5-1.5,3.6-2.4,5.9-2.4"/>
			<path class="st11" d="M757.4,105.1c0.9-0.9,2.2-1.5,3.6-1.5"/>
			<path class="st11" d="M769.2,98.8c-2.1-2.1-5-3.4-8.1-3.4"/>
			<path class="st11" d="M766.9,102c-1.5-1.5-3.6-2.4-5.9-2.4"/>
			<path class="st11" d="M764.7,105.1c-0.9-0.9-2.2-1.5-3.6-1.5"/>
			<path class="st11" d="M790.1,130.8v-19.6c0-1.2,1-2.2,2.2-2.2l0,0c1.2,0,2.2,1,2.2,2.2v19.6"/>
			<path class="st11" d="M784.2,98.8c2.1-2.1,5-3.4,8.1-3.4"/>
			<path class="st11" d="M786.5,102c1.5-1.5,3.6-2.4,5.9-2.4"/>
			<path class="st11" d="M788.7,105.1c0.9-0.9,2.2-1.5,3.6-1.5"/>
			<path class="st11" d="M800.5,98.8c-2.1-2.1-5-3.4-8.1-3.4"/>
			<path class="st11" d="M798.2,102c-1.5-1.5-3.6-2.4-5.9-2.4"/>
			<path class="st11" d="M796,105.1c-0.9-0.9-2.2-1.5-3.6-1.5"/>
			<rect x="810.7" y="40.1" class="st11" width="42.5" height="105.8"/>
			<rect x="816.2" y="45.6" class="st11" width="31.4" height="8.2"/>
			<rect x="816.2" y="53.8" class="st11" width="31.4" height="8.2"/>
			<rect x="816.2" y="61.9" class="st11" width="31.4" height="8.2"/>
			<rect x="816.2" y="70.1" class="st11" width="31.4" height="8.2"/>
			<rect x="816.2" y="78.3" class="st11" width="31.4" height="8.2"/>
			<rect x="816.2" y="86.4" class="st11" width="31.4" height="8.2"/>
			<rect x="816.2" y="112.7" class="st11" width="31.4" height="23.2"/>
			<circle class="st11" cx="831.7" cy="124.3" r="2.8"/>
			<g>
				<rect x="816.2" y="101.6" class="st11" width="18.6" height="4.1"/>
				<rect x="843.6" y="101.6" class="st11" width="4.1" height="4.1"/>
			</g>
			<line class="st11" x1="828.9" y1="124.3" x2="816.2" y2="124.3"/>
			<line class="st11" x1="834.5" y1="124.3" x2="847.1" y2="124.3"/>
			<rect x="810.7" y="145.9" class="st11" width="42.5" height="3.2"/>
			<circle class="st11" cx="882.4" cy="118.3" r="11.7"/>
			<circle class="st11" cx="882.4" cy="118.3" r="6.4"/>
			<circle class="st11" cx="882.4" cy="118.3" r="2.6"/>
			<line class="st11" x1="882.4" y1="130" x2="882.4" y2="136.1"/>
			<g>
				<rect x="859.6" y="136.1" class="st11" width="44.1" height="9.8"/>
				<line class="st11" x1="893" y1="141" x2="870.3" y2="141"/>
			</g>
			<rect x="863.3" y="145.9" class="st11" width="36.7" height="3.2"/>
		</g>
	</g>
</g>
<g>
	<linearGradient id="SVGID_3_" gradientUnits="userSpaceOnUse" x1="964.337" y1="-30.6806" x2="1086.5748" y2="-30.6806">
		<stop  offset="0" style="stop-color:#C558A0"/>
		<stop  offset="0.5945" style="stop-color:#7F3E93"/>
		<stop  offset="1" style="stop-color:#532E8B"/>
	</linearGradient>
	<path class="st12" d="M1055.3-52.8l31.3,17.6l-61.4,34.6l-60.9-34.6l30.8-17.5C1013.8-63.3,1036.6-63.4,1055.3-52.8z"/>
	<path class="st13" d="M964.3-35.2v3.6l59.9,34.7c0.4,0.2,0.8,0.2,1.1,0l61.2-34.7v-3.7l-61.4,34.6L964.3-35.2z"/>
	<path class="st14" d="M1050.1-83.5l36.4,20.5l-61.4,34.6L964.3-63l36-20.4C1015.8-92.2,1034.7-92.2,1050.1-83.5z"/>
	<path class="st15" d="M1051.8-108.5l34.8,19.6l-61.4,34.6l-60.9-34.6l34.3-19.5C1015.1-117.7,1035.3-117.7,1051.8-108.5z"/>
	<path class="st16" d="M964.3-88.9l0.1,3.6l59.7,34.7c0.4,0.2,0.8,0.2,1.2,0l61.2-34.7v-3.6l-61.4,34.6L964.3-88.9z"/>
	<path class="st17" d="M964.3-63l0.1,3.6l59.7,34.7c0.4,0.2,0.9,0.2,1.3,0l61.1-34.7V-63l-61.4,34.6L964.3-63z"/>
</g>
<g>
	<g>
		<path class="st18" d="M1505.8-127.2L1429.6,2.2c-1.5,2.5,0.3,5.7,3.3,5.7h61.4c0.7,0,1.3,0.6,1.2,1.4l-13.6,101.2
			c-0.4,3.3,4,4.9,5.7,2l94.1-155.8c1.4-2.3-0.3-5.2-2.9-5.2h-74.4c-0.7,0-1.3-0.6-1.2-1.3l8-75.7
			C1511.5-128.5,1507.4-129.9,1505.8-127.2z"/>
	</g>
	<g>
		<g>
			<path class="st1" d="M1366.2-23.9c-28.5-17-50.1-44.3-59.4-76.2c-9.1-31-6.3-65.2,7.9-94.2c28.1-57.4,95.2-86.9,156.5-68.2
				c35.2,10.7,64.3,36.3,80.3,69.4c2,4.1,8.2,0.5,6.2-3.6c-14.9-30.8-40.8-55.3-72.4-68.3c-31.7-13-68.2-13.7-100.3-1.8
				c-29.8,11.1-55.3,32.3-71.4,59.7c-17.1,29-22.9,63.8-16.6,96.8c7.4,38.7,31.9,72.6,65.7,92.7
				C1366.6-15.4,1370.2-21.5,1366.2-23.9L1366.2-23.9z"/>
		</g>
	</g>
	<g>
		<g>
			<path class="st1" d="M1555.5-191.6c47.3-13.1,98.5,12.1,115.3,58.7c15.6,43.4-2.9,92.9-43.1,115.3c-25.3,14.1-55.7,15.3-82.5,4.6
				c-4.3-1.7-6.1,5.2-1.9,6.9c49.2,19.8,107.2-2.1,130.2-50.1c21.5-44.9,6.9-99.8-33.9-128.2c-25-17.4-56.8-22.2-86-14.1
				C1549.2-197.2,1551.1-190.3,1555.5-191.6L1555.5-191.6z"/>
		</g>
	</g>
	<g>
		<g>
			<path class="st1" d="M1547.4-7.8c9.8-16.3,19.7-32.6,29.5-48.9c1.4-2.3-0.4-5.4-3.1-5.4c-27.2,0-54.3,0-81.5,0
				c1.2,1.2,2.4,2.4,3.6,3.6c3.8-28.3,7.6-56.6,11.3-84.9c0.6-4.1,1.1-8.2,1.7-12.3c0.5-3.7-5-4.6-6.7-1.8
				c-10.1,17.3-20.1,34.5-30.2,51.8c-16.1,27.5-32.2,55.1-48.3,82.6c-3.7,6.4-7.5,12.8-11.2,19.2c-1.4,2.3,0.4,5.4,3.1,5.4
				c23,0,46.1,0,69.1,0c-1.2-1.2-2.4-2.4-3.6-3.6c-4.6,34.3-9.2,68.6-13.8,102.9c-0.6,4.8-1.3,9.6-1.9,14.4c-0.5,3.7,5,4.6,6.7,1.8
				c15.8-26.3,31.7-52.5,47.5-78.8c2.3-3.8,4.5-7.5,6.8-11.3c2.4-4-3.8-7.6-6.2-3.6c-15.8,26.3-31.7,52.5-47.5,78.8
				c-2.3,3.8-4.5,7.5-6.8,11.3c2.2,0.6,4.4,1.2,6.7,1.8c4.6-34.3,9.2-68.6,13.8-102.9c0.6-4.8,1.3-9.6,1.9-14.4
				c0.3-1.9-1.8-3.6-3.6-3.6c-23,0-46.1,0-69.1,0c1,1.8,2.1,3.6,3.1,5.4c10.1-17.3,20.1-34.5,30.2-51.8
				c16.1-27.5,32.2-55.1,48.3-82.6c3.7-6.4,7.5-12.8,11.2-19.2c-2.2-0.6-4.4-1.2-6.7-1.8c-3.8,28.3-7.6,56.6-11.3,84.9
				c-0.6,4.1-1.1,8.2-1.7,12.3c-0.3,1.9,1.8,3.6,3.6,3.6c27.2,0,54.3,0,81.5,0c-1-1.8-2.1-3.6-3.1-5.4
				c-9.8,16.3-19.7,32.6-29.5,48.9C1538.8-7.5,1545-3.9,1547.4-7.8L1547.4-7.8z"/>
		</g>
	</g>
</g>
<g>
	<g>
		<path class="st18" d="M2436.8-35h-73.2c-5.1,0-9.3,4.2-9.3,9.3V26c0,5.1,4.2,9.3,9.3,9.3h73.2c5.1,0,9.3-4.2,9.3-9.3v-51.7
			C2446-30.8,2441.9-35,2436.8-35z M2412,19.2c0.3,1.2-0.6,2.3-1.8,2.3h-20.1c-1.2,0-2.1-1.1-1.8-2.3l4.5-18.8
			c-2.8-2.2-4.7-5.6-4.7-9.5c0-7.5,6.8-13.4,14.6-11.8c4.7,1,8.4,4.8,9.2,9.5c0.9,4.8-1.1,9.1-4.5,11.8L2412,19.2z"/>
	</g>
</g>
<g>
	<path class="st18" d="M2511.7-186.5l-53.6,10.6c-0.6,0.1-1.3-0.1-1.7-0.6l-27.2-30.3c-1-1.1-0.4-2.8,1-3.1l73.9-14.6
		c1-0.2,2,0.5,2.2,1.5l6.9,34.3C2513.4-187.7,2512.7-186.7,2511.7-186.5z"/>
</g>
<g>
	<path class="st18" d="M2277.5-186.5l53.6,10.6c0.6,0.1,1.3-0.1,1.7-0.6l27.2-30.3c1-1.1,0.4-2.8-1-3.1l-73.9-14.6
		c-1-0.2-2,0.5-2.2,1.5l-6.9,34.3C2275.8-187.7,2276.4-186.7,2277.5-186.5z"/>
</g>
<g>
	<g>
		<path class="st18" d="M2484.2-117.8c-49.5,0-85.9-23.3-85.9-23.3s-36.4,23.3-85.9,23.3h-8.2V-7.2c0,83.8,94.1,116.3,94.1,116.3
			s94.1-32.4,94.1-116.3v-110.7H2484.2z M2479.6-7.2c0,63.9-64.1,95.2-81.3,102.4c-17.2-7.2-81.3-38.5-81.3-102.4v-97.9
			c38.1-1,68.2-14.5,81.3-21.4c13,6.9,43.1,20.3,81.3,21.4V-7.2z"/>
	</g>
</g>
<circle class="st19" cx="2302" cy="-161.5" r="8.3"/>
<line class="st19" x1="2302" y1="-169.8" x2="2302" y2="-186.5"/>
<line class="st19" x1="2293.7" y1="-161.5" x2="2222.7" y2="-161.5"/>
<line class="st19" x1="2286.9" y1="-218.4" x2="2310.4" y2="-213.7"/>
<polyline class="st19" points="2350.5,-205.8 2359.5,-204 2356,-186.8 2336.8,-190.6 "/>
<polygon class="st19" points="2271.9,-192.4 2328.4,-181.2 2358.5,-214.8 2279.6,-230.4 "/>
<circle class="st19" cx="2487.2" cy="-161.5" r="8.3"/>
<path class="st19" d="M2487.2-169.8v-16.7V-169.8z"/>
<path class="st19" d="M2495.5-161.5h71H2495.5z"/>
<line class="st19" x1="2502.3" y1="-218.4" x2="2478.8" y2="-213.7"/>
<polygon class="st19" points="2438.7,-205.8 2429.7,-204 2433.2,-186.8 2452.4,-190.6 "/>
<polygon class="st19" points="2517.3,-192.4 2460.8,-181.2 2430.7,-214.8 2509.6,-230.4 "/>
<path class="st19" d="M2466.2,54.2c63.4-27.6,107.7-90.9,107.7-164.5c0-99-80.3-179.3-179.3-179.3s-179.3,80.3-179.3,179.3
	c0,73.6,44.3,136.8,107.7,164.5"/>
<path class="st19" d="M2394.6,105.4c0,0,94.1-32.4,94.1-116.3v-110.7h-8.2c-49.5,0-85.9-23.3-85.9-23.3s-36.4,23.3-85.9,23.3h-8.2
	v110.7C2300.5,73,2394.6,105.4,2394.6,105.4z"/>
<path class="st19" d="M2394.6,91.6c-17.2-7.2-81.3-38.5-81.3-102.4v-97.9c38.1-1,68.2-14.5,81.3-21.4c13,6.9,43.1,20.3,81.3,21.4
	v97.9C2475.9,53,2411.8,84.3,2394.6,91.6z"/>
<path class="st19" d="M2431.2,29.7H2358c-5.1,0-9.3-4.2-9.3-9.3v-51.7c0-5.1,4.2-9.3,9.3-9.3h73.2c5.1,0,9.3,4.2,9.3,9.3v51.7
	C2440.5,25.6,2436.3,29.7,2431.2,29.7z"/>
<path class="st19" d="M2406.4,13.6l-4.5-18.8c3.4-2.6,5.4-7,4.5-11.8c-0.9-4.7-4.6-8.5-9.2-9.5c-7.8-1.6-14.6,4.3-14.6,11.8
	c0,3.9,1.9,7.3,4.7,9.5l-4.5,18.8c-0.3,1.2,0.6,2.3,1.8,2.3h20.1C2405.8,15.9,2406.7,14.8,2406.4,13.6z"/>
<path class="st19" d="M2425.6-40.6c0,0,0-23.8,0-23.8c0-17.1-13.9-31-31-31c-17.1,0-31,13.9-31,31v23.8H2425.6z"/>
<path class="st19" d="M2888.2,54.2c63.4-27.6,107.7-90.9,107.7-164.5c0-99-80.3-179.3-179.3-179.3s-179.3,80.3-179.3,179.3
	c0,73.6,44.3,136.8,107.7,164.5"/>
<g>
	<path class="st19" d="M2864.9-120.9c15,5.4,32.4,2.1,44.4-9.9s15.3-29.4,9.9-44.4l-21.3,21.3c-2.7,2.7-7,2.7-9.7,0l-15.9-15.9
		c-2.7-2.7-2.7-7,0-9.7l21.3-21.3c-15-5.4-32.4-2.1-44.4,9.9s-15.3,29.4-9.9,44.4l-65,65c-15-5.4-32.4-2.1-44.4,9.9
		s-15.3,29.4-9.9,44.4l21.3-21.3c2.7-2.7,7-2.7,9.7,0l15.9,15.9c2.7,2.7,2.7,7,0,9.7l-21.3,21.3c15,5.4,32.4,2.1,44.4-9.9
		s15.3-29.4,9.9-44.4l19.2-19.2"/>
	<path class="st19" d="M2819.1-75.1l-50.9-54.6c-8.9-8.9-23.4-8.9-32.4,0c-8.2,8.2-8.9,21.2-1.9,30.2L2716-88.4
		c0,0-28.2-42.3,4-74.5c11.2-11.2,22.2-22.2,31.5-31.5c3,0.5,6.3,1.1,9.1,1.5c2.8,0.5,5.2-1.9,4.7-4.7l-1.5-9.1l14.6-14.6l40.7,40.7
		l-14.4,14.4c-4.2-4.2-11.1-4.2-15.4,0s-4.2,11.1,0,15.4l112.7,105.1c0.8,0.7,1.5,1.4,2.2,2.2c6.1,7.1,6.5,17.9,0.8,25.4
		c-7.6,10.1-22.1,10.9-30.7,2.2c-0.3-0.3-0.7-0.7-1-1.1l-36.5-39.2"/>
</g>
<g>
	<path class="st19" d="M3285.1-43.1l-19.2,19.2c5.4,15,2.1,32.4-9.9,44.4s-29.4,15.3-44.4,9.9l21.3-21.3c2.7-2.7,2.7-7,0-9.7
		L3217-16.4c-2.7-2.7-7-2.7-9.7,0l-21.3,21.3c-5.4-15-2.1-32.4,9.9-44.4s29.4-15.3,44.4-9.9l65-65c-5.4-15-2.1-32.4,9.9-44.4
		s29.4-15.3,44.4-9.9l-21.3,21.3c-2.7,2.7-2.7,7,0,9.7l15.9,15.9c2.7,2.7,7,2.7,9.7,0l21.3-21.3c5.4,15,2.1,32.4-9.9,44.4
		s-29.4,15.3-44.4,9.9"/>
	<path class="st19" d="M3285.1-43.1l-50.9-54.6c-8.9-8.9-23.4-8.9-32.4,0c-8.2,8.2-8.9,21.2-1.9,30.2L3182-56.4
		c0,0-28.2-42.3,4-74.5c11.2-11.2,22.2-22.2,31.5-31.5c3,0.5,6.3,1.1,9.1,1.5c2.8,0.5,5.2-1.9,4.7-4.7l-1.5-9.1l14.6-14.6l40.7,40.7
		l-14.4,14.4c-4.2-4.2-11.1-4.2-15.4,0s-4.2,11.1,0,15.4l112.7,105.1c0.8,0.7,1.5,1.4,2.2,2.2c6.1,7.1,6.5,17.9,0.8,25.4
		c-7.6,10.1-22.1,10.9-30.7,2.2c-0.3-0.3-0.7-0.7-1-1.1l-36.5-39.2l-0.7,81.4c-64.4,25.3-133,9.1-185.1-42.9
		c-70-70-70-183.6,0-253.6c70-70,183.6-70,253.6,0c52,52,65.4,128.1,40.1,192.5"/>
</g>
<g>
	<path class="st20" d="M-302-81.3v-1.3c0-0.5-0.4-0.9-0.9-0.9h-11.8l-3.5-3.5h-8.3c-1,0-1.8,0.8-1.8,1.8v21.8l5.5-15
		c0.1-0.4,0.5-0.6,0.9-0.6h21.7c0.6,0,1.1,0.6,0.9,1.2l-5,13.8c-0.1,0.4-0.5,0.6-0.9,0.6h-19.9"/>
</g>
<g>
	<path class="st21" d="M-374.2-67.9c-5.1-3-8.6-8.6-8.6-15c0-9.6,7.8-17.5,17.5-17.5c7,0,13,4.1,15.8,9.9"/>
	<path class="st21" d="M-349.6-90.4c1.1-0.3,2.3-0.5,3.5-0.5c7,0,12.7,5.7,12.7,12.7s-5.7,12.7-12.7,12.7c-1.7,0-3.4-0.3-4.9-1"/>
	<polyline class="st21" points="-351,-66.4 -347.1,-72.8 -357.7,-72.8 -356,-85.3 -367.6,-65.5 -358.7,-65.5 -360.7,-50.3 
		-353.7,-61.9 	"/>
</g>
<g>
	<path class="st22" d="M-277.4-75.2c-6.9,0-12.5-5.6-12.5-12.5c0-5,2.9-9.3,7.1-11.3"/>
	<path class="st22" d="M-282.9-99c-0.1-0.4-0.1-0.8-0.1-1.2c0-4.5,3.6-8.1,8.1-8.1c1.7,0,3.2,0.5,4.5,1.4"/>
	<path class="st22" d="M-270.3-107c3-4.6,8.2-7.6,14.1-7.6c9.2,0,16.7,7.4,16.9,16.5"/>
	<path class="st22" d="M-239.3-98.1c5.1,1.2,8.9,5.8,8.9,11.3c0,6.4-5.2,11.6-11.6,11.6"/>
	<path class="st22" d="M-270.8-75.2c0-5.9,4.7-10.6,10.6-10.6c5.9,0,10.6,4.7,10.6,10.6s-4.7,10.6-10.6,10.6"/>
	<line class="st22" x1="-277.4" y1="-75.2" x2="-270.8" y2="-75.2"/>
	<path class="st22" d="M-268.2-75.2c1.4,0,2.6,1.2,2.6,2.6s-1.2,2.6-2.6,2.6s-2.6-1.2-2.6-2.6"/>
	<line class="st22" x1="-270.8" y1="-75.2" x2="-270.8" y2="-72.6"/>
	<line class="st22" x1="-268.2" y1="-75.2" x2="-270.8" y2="-75.2"/>
	<line class="st22" x1="-262.1" y1="-64.6" x2="-259.7" y2="-61.7"/>
	<line class="st22" x1="-262.1" y1="-64.6" x2="-259.7" y2="-67.5"/>
</g>
<g>
	<path class="st23" d="M-324.4-32c-0.2-1.5,0.4-2.3,0.4-2.3c0.7-0.7,2.4-2.4,2.4-2.4l3.9,3.9l-2.2,2.4c0,0,0.8,1.6,2.7,3.5
		s3.5,2.7,3.5,2.7l2.4-2.2l3.9,3.9"/>
	<path class="st23" d="M-323.2-39.4c2.2-4.8,7.1-8.2,12.7-8.2c7.7,0,14,6.3,14,14s-6.3,14-14,14c-0.4,0-0.7,0-1.1,0"/>
	<g>
		<line class="st23" x1="-303.9" y1="-41.4" x2="-308.4" y2="-29.1"/>
		<polyline class="st23" points="-303.7,-34.5 -300.1,-34.5 -302.5,-29.1 		"/>
		<g>
			<polyline class="st23" points="-309.2,-35.9 -309.2,-41.4 -311.9,-37.4 -308.2,-37.4 			"/>
			<path class="st23" d="M-313.2-35.9h-3.3l2.6-2.9c0.3-0.3,0.4-0.6,0.4-1c0-0.8-0.7-1.5-1.5-1.5c-0.8,0-1.5,0.7-1.5,1.5"/>
		</g>
	</g>
	<line class="st23" x1="-323.2" y1="-39.4" x2="-324.1" y2="-41.5"/>
	<line class="st23" x1="-323.2" y1="-39.4" x2="-320.9" y2="-39.8"/>
	<path class="st23" d="M-311.6-19.6c-6.7-0.5-12.1-5.8-12.8-12.4"/>
</g>
<circle class="st4" cx="-175.1" cy="-139.2" r="23"/>
<path class="st8" d="M-176.6-126.9h-0.5 M-174.2-126.9h-0.5 M-163.3-124.4H-187c-1,0-1.7-0.8-1.7-1.7v-1.6c0-1,0.8-1.7,1.7-1.7h23.7
	c1,0,1.7,0.8,1.7,1.7v1.6C-161.5-125.1-162.3-124.4-163.3-124.4z M-176.6-132h-0.5 M-174.2-132h-0.5 M-176.6-137.1h-0.5
	 M-174.2-137.1h-0.5 M-176.6-142.1h-0.5 M-174.2-142.1h-0.5 M-176.6-147.2h-0.5 M-174.2-147.2h-0.5 M-163.3-129.4H-187
	c-1,0-1.7-0.8-1.7-1.7v-1.6c0-1,0.8-1.7,1.7-1.7h23.7c1,0,1.7,0.8,1.7,1.7v1.6C-161.5-130.2-162.3-129.4-163.3-129.4z M-162.2-149.4
	l-5.3-4.2c-0.3-0.3-0.7-0.4-1.1-0.4h-12.9c-0.4,0-0.8,0.1-1.1,0.4l-5.3,4.2 M-163.3-144.7H-187c-1,0-1.7-0.8-1.7-1.7v-1.6
	c0-1,0.8-1.7,1.7-1.7h23.7c1,0,1.7,0.8,1.7,1.7v1.6C-161.5-145.5-162.3-144.7-163.3-144.7z M-163.3-144.7H-187c-1,0-1.7,0.8-1.7,1.7
	v1.6c0,1,0.8,1.7,1.7,1.7h23.7c1,0,1.7-0.8,1.7-1.7v-1.6C-161.5-143.9-162.3-144.7-163.3-144.7z M-163.3-134.5H-187
	c-1,0-1.7-0.8-1.7-1.7v-1.6c0-1,0.8-1.7,1.7-1.7h23.7c1,0,1.7,0.8,1.7,1.7v1.6C-161.5-135.3-162.3-134.5-163.3-134.5z"/>
<circle class="st4" cx="-249.4" cy="-148.3" r="23"/>
<path class="st24" d="M-238.7-160c0-0.4,0.3-0.8,0.8-0.8c0.4,0,0.8,0.3,0.8,0.8s-0.3,0.8-0.8,0.8
	C-238.4-159.2-238.7-159.6-238.7-160z M-242.2-162.7c2.2-0.4,3.7-0.1,4.3,0.8c0.2,0.3,0.2,0.7,0.2,1.2 M-238.3-159.3
	c-1.2,2.2-4.4,5-8.4,7.3c-6,3.5-11.9,4.7-13,2.6c-0.5-0.9,0-2.4,1.4-4.1 M-239.4-156c0,5.3-4.3,9.6-9.6,9.6c-5.3,0-9.6-4.3-9.6-9.6
	c0-5.3,4.3-9.6,9.6-9.6C-243.7-165.6-239.4-161.3-239.4-156z M-256.2-131.1l-5.4-5.4c-0.2-0.2-0.2-0.4,0-0.6l1.7-1.7
	c0.2-0.2,0.4-0.2,0.6,0l5.4,5.4c0.2,0.2,0.2,0.4,0,0.6l-1.7,1.7C-255.8-131-256-131-256.2-131.1z M-254.2-134l8.7-2.1
	c0.7-0.2,1.4-0.5,1.9-1.1l5.9-5.9c0.2-0.2,0.2-0.5,0-0.7c-0.7-0.7-1.9-0.7-2.6,0l-4,4 M-258.8-138.3l2.6-2.6
	c0.7-0.7,1.8-1.2,2.8-1.2h6.3c0.3,0,0.5,0.2,0.5,0.5c0,1-0.8,1.8-1.8,1.8 M-251.8-139.7h7.6 M-243.6-143.7l-0.4-0.4
	c-0.7-0.7-1.9-0.7-2.6,0l-2,2 M-240.5-143.5l-0.4-0.4c-0.7-0.7-1.9-0.7-2.6,0l-4.2,4.2"/>
<g>
	<g>
		<path class="st6" d="M-163.7-41.6c-13.1,0-23.8-10.7-23.8-23.8c0-13.1,10.7-23.8,23.8-23.8s23.8,10.7,23.8,23.8
			C-139.9-52.3-150.6-41.6-163.7-41.6z M-163.7-87.6c-12.2,0-22.1,9.9-22.1,22.1c0,12.2,9.9,22.1,22.1,22.1s22.1-9.9,22.1-22.1
			C-141.6-77.6-151.5-87.6-163.7-87.6z"/>
	</g>
	<path class="st25" d="M-162.5-58.7c-0.4,0-0.8,0-1.2,0c-3.4,0-6.5-0.3-8.9-0.8c-1.3-0.3-2.3-0.6-3-1l0,5.3c0,0.2,0.6,0.8,3.2,1.4
		c2.3,0.5,5.4,0.8,8.7,0.8c0.6,0,1.1,0,1.7,0c-0.3-0.7-0.5-1.5-0.5-2.4V-58.7z"/>
	<path class="st25" d="M-156.9-63.7c0.8,0.4,2.7,1.3,5,1.4l0-5.1c-2.5,1.4-8.4,1.9-11.9,1.9c-3.5,0-9.4-0.4-11.9-1.8l0,5.3
		c0,0.2,0.6,0.8,3.2,1.4c2.3,0.5,5.4,0.8,8.7,0.8c0.4,0,0.8,0,1.2,0v-2.4C-159.9-62.3-157.8-63.2-156.9-63.7z"/>
	<path class="st25" d="M-172.5-73.2c2.3,0.5,5.4,0.8,8.7,0.8c3.3,0,6.4-0.3,8.7-0.8c2.6-0.6,3.2-1.2,3.2-1.4v0c0,0,0,0,0,0
		c0-0.2-0.6-0.8-3.2-1.4c-2.3-0.5-5.4-0.8-8.7-0.8c-7.7,0-11.9,1.5-11.9,2.3v0C-175.7-74.4-175.1-73.8-172.5-73.2z"/>
	<path class="st25" d="M-154.8-72.2c-2.4,0.5-5.6,0.9-8.9,0.9c-3.3,0-6.5-0.3-8.9-0.8c-1.3-0.3-2.3-0.6-3-1l0,4.4
		c0,0.8,4.2,2.2,11.9,2.2c7.7,0,11.9-1.5,11.9-2.3l0-4.4C-152.6-72.8-153.6-72.5-154.8-72.2z"/>
	<path class="st26" d="M-150.7-55.2l0-5.9c0-0.1-0.1-0.3-0.1-0.4c0.1-0.2,0.1-0.4,0.1-0.6l0-5.9c0-0.1-0.1-0.3-0.1-0.4
		c0.1-0.2,0.1-0.4,0.1-0.6l0-5.9c0,0,0,0,0,0c0-1.1-1.3-1.9-4.1-2.5c-2.4-0.5-5.5-0.8-8.9-0.8l0,0.6l0-0.6c-4.5,0-13,0.8-13,3.4
		c0,0,0,0,0,0l0,5.9c0,0.2,0.1,0.4,0.1,0.6c-0.1,0.1-0.1,0.2-0.1,0.4l0,5.9c0,0.2,0,0.4,0.1,0.6c-0.1,0.1-0.1,0.2-0.1,0.4l0,5.9
		c0,1.1,1.3,1.9,4.1,2.5c2.3,0.5,5.4,0.8,8.7,0.8c0.1,0,0.2,0,0.3,0c0.7,0,1.5,0,2.3-0.1c-0.2-0.3-0.4-0.7-0.6-1.1
		c-0.5,0-1.1,0-1.7,0c-3.3,0-6.4-0.3-8.7-0.8c-2.6-0.6-3.2-1.2-3.2-1.4l0-5.3c0.7,0.4,1.7,0.7,3,1c2.4,0.5,5.5,0.8,8.9,0.8
		c0.4,0,0.8,0,1.2,0v-1.1c-0.4,0-0.8,0-1.2,0c-3.3,0-6.4-0.3-8.7-0.8c-2.6-0.6-3.2-1.2-3.2-1.4l0-5.3c2.5,1.4,8.4,1.8,11.9,1.8
		c3.5,0,9.4-0.5,11.9-1.9l0,5.1c0.2,0,0.4,0,0.6,0v6.8c0,0.5-0.1,1-0.2,1.4C-150.9-54.4-150.7-54.8-150.7-55.2z M-175.7-74.6
		c0-0.8,4.2-2.2,11.9-2.3c3.3,0,6.4,0.3,8.7,0.8c2.6,0.6,3.2,1.2,3.2,1.4c0,0,0,0,0,0v0c0,0.2-0.6,0.8-3.2,1.4
		c-2.3,0.5-5.4,0.8-8.7,0.8c-3.3,0-6.4-0.3-8.7-0.8C-175.1-73.8-175.7-74.4-175.7-74.6L-175.7-74.6z M-163.8-66.6
		c-7.7,0-11.9-1.4-11.9-2.2l0-4.4c0.7,0.4,1.7,0.7,3,1c2.4,0.5,5.6,0.8,8.9,0.8c3.4,0,6.5-0.3,8.9-0.9c1.3-0.3,2.3-0.6,3-1l0,4.4
		C-151.9-68.1-156.1-66.6-163.8-66.6z"/>
	<path class="st8" d="M-156.9-48.3c-1.2-0.5-5.6-2.7-5.6-7.1v-6.8c2.6-0.1,4.7-1,5.6-1.5c0.9,0.5,3,1.4,5.6,1.5v6.8
		C-151.2-51-155.7-48.8-156.9-48.3z"/>
	<path class="st8" d="M-154.4-53.4h-4.8v-3.5h4.8V-53.4z M-158.4-56.9v-1.4c0-0.8,0.7-1.5,1.5-1.5c0.8,0,1.5,0.7,1.5,1.5v1.4"/>
</g>
<g>
	<path class="st1" d="M-269.9-15.5c-13.1,0-23.8,10.7-23.8,23.8s10.7,23.8,23.8,23.8c13.1,0,23.8-10.7,23.8-23.8
		S-256.8-15.5-269.9-15.5z M-269.9,30.4c-12.2,0-22.1-9.9-22.1-22.1s9.9-22.1,22.1-22.1c12.2,0,22.1,9.9,22.1,22.1
		S-257.7,30.4-269.9,30.4z"/>
	<path class="st1" d="M-279.4,12.3c-0.3-0.1-0.6,0.1-0.7,0.4l-0.9,4.1c-1.7-2-2.8-4.3-3.2-6.9c-0.6-3.7,0.3-7.3,2.5-10.3
		c2.2-3,5.4-4.9,9.1-5.5c1.8-0.3,3.7-0.2,5.5,0.2c0.3,0.1,0.6-0.1,0.7-0.4c0.1-0.3-0.1-0.6-0.4-0.7c-2-0.5-4-0.6-5.9-0.3
		c-4,0.6-7.4,2.7-9.8,6s-3.3,7.2-2.7,11.1c0.4,2.7,1.6,5.2,3.3,7.3l-3.8-0.8c-0.3-0.1-0.6,0.1-0.7,0.4c-0.1,0.3,0.1,0.6,0.4,0.7
		l5.1,1.1c0,0,0.1,0,0.1,0c0.2,0,0.4-0.1,0.5-0.3c0.1-0.1,0.2-0.2,0.2-0.3l1.1-5.1C-278.9,12.7-279.1,12.4-279.4,12.3z"/>
	<path class="st1" d="M-254.2-1.5l-5.1-0.9c-0.3,0-0.5,0.1-0.6,0.3c-0.1,0.1-0.2,0.2-0.2,0.3l-1,5.1c-0.1,0.3,0.1,0.6,0.5,0.7
		c0.3,0.1,0.6-0.1,0.7-0.5l0.8-4.1c1.8,1.9,2.9,4.2,3.4,6.8c0.7,3.6-0.1,7.3-2.1,10.4c-2.1,3.1-5.2,5.1-8.9,5.8
		c-1.6,0.3-3.2,0.3-4.7,0.1l9.2-15.5c0.1-0.2,0.1-0.4,0-0.6c-0.1-0.2-0.3-0.3-0.5-0.3h-6.9l1.1-8.3c0-0.3-0.1-0.5-0.4-0.6
		c-0.3-0.1-0.5,0-0.7,0.2l-8.3,14.2c-0.1,0.2-0.1,0.4,0,0.6c0.1,0.2,0.3,0.3,0.5,0.3h5.8l-0.8,6.4c0,0.3,0.2,0.6,0.5,0.6
		c0.3,0,0.6-0.2,0.6-0.5l0.9-7c0-0.2,0-0.3-0.1-0.4c-0.1-0.1-0.3-0.2-0.4-0.2h-5.4l6.4-10.9l-0.8,6.2c0,0.2,0,0.3,0.1,0.4
		c0.1,0.1,0.3,0.2,0.4,0.2h6.5l-9.1,15.3c0,0.1,0,0.1-0.1,0.2c0,0,0,0.1-0.1,0.1c-0.1,0.3,0.1,0.6,0.4,0.7c1,0.2,2.1,0.3,3.1,0.3
		c0.9,0,1.9-0.1,2.8-0.3c8.1-1.5,13.5-9.4,11.9-17.5c-0.5-2.7-1.7-5.2-3.5-7.2l3.8,0.7c0.3,0.1,0.6-0.1,0.7-0.5
		C-253.7-1.2-253.9-1.5-254.2-1.5z"/>
</g>
<g>
	<path class="st1" d="M-206.4,31c-13.1,0-23.8-10.7-23.8-23.8c0-13.1,10.7-23.8,23.8-23.8s23.8,10.7,23.8,23.8
		C-182.5,20.3-193.2,31-206.4,31z M-206.4-14.9c-12.2,0-22.1,9.9-22.1,22.1c0,12.2,9.9,22.1,22.1,22.1s22.1-9.9,22.1-22.1
		C-184.2-5-194.2-14.9-206.4-14.9z"/>
</g>
<g>
	<path class="st1" d="M-207.6,19.4c-1.1,0-2-0.9-2-1.9c0,0,0,0,0,0v-0.7h-6.2c-4.1,0-7.5-3.2-7.5-7.1c0-2.6,1.5-5,3.9-6.2
		c0-0.1,0-0.2,0-0.3c0-2.7,2.3-4.8,5.1-4.8c0.8,0,1.6,0.2,2.3,0.5c1.9-2.4,4.8-3.8,7.9-3.8c5.2,0,9.5,3.9,9.9,8.8
		c2.9,0.8,4.9,3.4,4.9,6.4c0,3.7-3.1,6.6-7,6.6l-6.5,0c-0.3,0-0.6-0.3-0.6-0.6V9.5c0-0.3,0.3-0.6,0.6-0.6h2.7l-5.9-5.4l-5.8,5.4h2.8
		c0.3,0,0.6,0.3,0.6,0.6v6.1h0.9c0,0,0.1,0,0.1,0c1,0.1,1.8,0.9,1.8,1.9C-205.7,18.6-206.5,19.4-207.6,19.4z M-208.5,17.6
		c0,0.4,0.4,0.8,0.9,0.8c0.5,0,0.9-0.4,0.9-0.8c0-0.4-0.4-0.8-0.9-0.8h-0.9L-208.5,17.6C-208.5,17.5-208.5,17.5-208.5,17.6z
		 M-202.3,15.6l6,0c3.2,0,5.8-2.5,5.8-5.5c0-2.5-1.8-4.7-4.4-5.3c-0.3,0-0.5-0.3-0.5-0.5c0,0,0,0,0,0c-0.1-4.5-4-8.1-8.8-8.1
		c-2.9,0-5.7,1.4-7.3,3.7c0,0.1-0.1,0.1-0.1,0.1c0,0,0,0,0,0s0,0,0,0h0c0,0,0,0,0,0c-0.1,0-0.1,0.1-0.2,0.1l0,0c0,0,0,0,0,0
		c-0.1,0-0.2,0-0.3,0c0,0,0,0,0,0l0,0c-0.1,0-0.1,0-0.2-0.1c-0.7-0.4-1.4-0.6-2.2-0.6c-2.2,0-3.9,1.7-3.9,3.7c0,0.2,0,0.4,0,0.6
		c0,0,0,0.1,0,0.1c0,0.1,0,0.2-0.1,0.2c0,0.1-0.1,0.1-0.2,0.2c0,0-0.1,0-0.1,0.1c-2.2,1-3.6,3.1-3.6,5.4c0,3.3,2.8,6,6.4,6h6.2v-5.5
		h-3.7c-0.2,0-0.4-0.1-0.5-0.4c-0.1-0.2,0-0.5,0.1-0.6l7.3-6.7c0.2-0.2,0.6-0.2,0.8,0l7.3,6.8c0.2,0.2,0.2,0.4,0.1,0.6
		c-0.1,0.2-0.3,0.4-0.5,0.4h-3.6V15.6z"/>
</g>
<g>
	<path class="st1" d="M-131.8,45c-13.1,0-23.8-10.7-23.8-23.8c0-13.1,10.7-23.8,23.8-23.8c13.1,0,23.8,10.7,23.8,23.8
		C-108,34.3-118.7,45-131.8,45z M-131.8-0.9C-144-0.9-154,9-154,21.2c0,12.2,9.9,22.1,22.1,22.1c12.2,0,22.1-9.9,22.1-22.1
		C-109.7,9-119.6-0.9-131.8-0.9z"/>
</g>
<g>
	<path class="st1" d="M-121.1,33.5C-121.1,33.5-121.1,33.5-121.1,33.5l-21,0c-4.4,0-8-3.6-8-8c0-2.9,1.6-5.6,4.2-7
		c0-0.1,0-0.3,0-0.4c0-3,2.4-5.4,5.4-5.4c0.9,0,1.8,0.2,2.5,0.6c2-2.7,5.1-4.3,8.5-4.3c5.6,0,10.2,4.4,10.6,9.9
		c3.1,0.9,5.3,3.8,5.3,7.1C-113.6,30.1-116.9,33.5-121.1,33.5z M-142.1,32.3h21c0,0,0,0,0.1,0c3.5,0,6.3-2.9,6.3-6.3
		c0-3.5-2.8-6.3-6.3-6.3c-0.3,0-0.6-0.3-0.6-0.6s0.3-0.6,0.6-0.6c0.3,0,0.7,0,1,0.1c-0.5-4.8-4.5-8.6-9.4-8.6c-3,0-5.8,1.4-7.6,3.8
		c0.6,0.5,1.1,1.1,1.4,1.8c0.1,0.3,0,0.6-0.3,0.8c-0.3,0.1-0.6,0-0.8-0.3c-0.7-1.5-2.2-2.4-3.8-2.4c-2.4,0-4.3,1.9-4.3,4.3
		c0,0.2,0,0.4,0,0.6c0,0,0,0.1,0,0.1c0,0.1,0,0.2-0.1,0.2c0,0.1-0.1,0.1-0.2,0.2c0,0-0.1,0-0.1,0.1c-2.4,1.1-3.9,3.6-3.9,6.2
		C-149,29.2-145.9,32.3-142.1,32.3z M-127.4,28.8h-7.7c-0.3,0-0.6-0.3-0.6-0.6v-5.6c0-0.3,0.3-0.6,0.6-0.6h0.9v-1.6
		c0-1.6,1.3-2.9,2.9-2.9c1.6,0,2.9,1.3,2.9,2.9v1.6h1c0.3,0,0.6,0.3,0.6,0.6v5.6C-126.8,28.6-127.1,28.8-127.4,28.8z M-134.6,27.7
		h6.6v-4.5h-6.6V27.7z M-133.1,22.1h3.6v-1.6c0-1-0.8-1.8-1.8-1.8c-1,0-1.8,0.8-1.8,1.8V22.1z"/>
</g>
<g>
	<path class="st1" d="M-68,47.8c-13.1,0-23.8-10.7-23.8-23.8c0-13.1,10.7-23.8,23.8-23.8c13.1,0,23.8,10.7,23.8,23.8
		C-44.2,37.1-54.8,47.8-68,47.8z M-68,1.9c-12.2,0-22.1,9.9-22.1,22.1c0,12.2,9.9,22.1,22.1,22.1c12.2,0,22.1-9.9,22.1-22.1
		C-45.8,11.8-55.8,1.9-68,1.9z"/>
</g>
<g>
	<path class="st1" d="M-57.2,36.3C-57.2,36.3-57.2,36.3-57.2,36.3l-21,0c-4.4,0-8-3.6-8-8c0-2.9,1.6-5.6,4.2-7c0-0.1,0-0.3,0-0.4
		c0-3,2.4-5.4,5.4-5.4c0.9,0,1.8,0.2,2.5,0.6c2-2.7,5.1-4.3,8.5-4.3c5.6,0,10.2,4.4,10.6,9.9c3.1,0.9,5.3,3.8,5.3,7.1
		C-49.7,32.9-53.1,36.3-57.2,36.3z M-78.2,35.1h21c0,0,0,0,0.1,0c3.5,0,6.3-2.9,6.3-6.3c0-3.5-2.8-6.3-6.3-6.3
		c-0.3,0-0.6-0.3-0.6-0.6s0.3-0.6,0.6-0.6c0.3,0,0.7,0,1,0.1c-0.5-4.8-4.5-8.6-9.4-8.6c-3,0-5.8,1.4-7.6,3.8
		c0.6,0.5,1.1,1.1,1.4,1.8c0.1,0.3,0,0.6-0.3,0.8c-0.3,0.1-0.6,0-0.8-0.3c-0.7-1.5-2.2-2.4-3.8-2.4c-2.4,0-4.3,1.9-4.3,4.3
		c0,0.2,0,0.4,0,0.6c0,0,0,0.1,0,0.1c0,0.1,0,0.2-0.1,0.2c0,0.1-0.1,0.1-0.2,0.2c0,0-0.1,0-0.1,0.1c-2.4,1.1-3.9,3.6-3.9,6.2
		C-85.1,32-82,35.1-78.2,35.1z M-62.9,30.9c-0.1,0-0.3,0-0.4,0c-2.5-0.2-4.5-2.3-4.5-4.9c0-2.7,2.2-4.9,4.9-4.9S-58,23.3-58,26
		c0,2.6-2,4.7-4.5,4.9C-62.6,30.9-62.8,30.9-62.9,30.9z M-63,29.8c0.1,0,0.2,0,0.3,0c0.4-0.2,1-1.3,1.1-3.2h-2.5
		C-64.1,28.5-63.4,29.6-63,29.8z M-66.6,26.6c0.2,1.2,0.9,2.2,1.9,2.7c-0.3-0.8-0.5-1.7-0.6-2.7H-66.6z M-60.5,26.6
		c-0.1,1-0.2,2-0.6,2.7c1-0.6,1.7-1.6,1.9-2.7H-60.5z M-60.5,25.4h1.4c-0.2-1.2-0.9-2.2-1.9-2.8C-60.8,23.5-60.6,24.4-60.5,25.4z
		 M-64.2,25.4h2.5c-0.1-2.1-0.9-3.2-1.3-3.2S-64,23.4-64.2,25.4z M-66.6,25.4h1.4c0.1-1,0.2-2,0.6-2.8
		C-65.7,23.2-66.5,24.2-66.6,25.4z M-70.5,30.6h-6.2c-0.3,0-0.6-0.3-0.6-0.6v-4.5c0-0.3,0.3-0.6,0.6-0.6h0.6v-1.2
		c0-1.3,1.1-2.4,2.4-2.4c1.4,0,2.4,1.1,2.4,2.4V25h0.7c0.3,0,0.6,0.3,0.6,0.6v4.5C-69.9,30.4-70.2,30.6-70.5,30.6z M-76.1,29.5h5
		v-3.3h-5V29.5z M-74.9,25h2.6v-1.2c0-0.7-0.6-1.3-1.3-1.3c-0.7,0-1.3,0.6-1.3,1.3V25z"/>
</g>
<g>
	<path class="st1" d="M23.8,47.6C10.7,47.6,0,36.9,0,23.8C0,10.7,10.7,0,23.8,0c13.1,0,23.8,10.7,23.8,23.8
		C47.6,36.9,36.9,47.6,23.8,47.6z M23.8,1.7c-12.2,0-22.1,9.9-22.1,22.1c0,12.2,9.9,22.1,22.1,22.1c12.2,0,22.1-9.9,22.1-22.1
		C45.9,11.6,36,1.7,23.8,1.7z"/>
</g>
<g>
	<path class="st1" d="M34.7,35.3C34.7,35.3,34.7,35.3,34.7,35.3l-21,0c-4.4,0-8-3.6-8-8c0-2.9,1.6-5.6,4.2-7c0-0.1,0-0.3,0-0.4
		c0-3,2.4-5.4,5.4-5.4c0.9,0,1.8,0.2,2.5,0.6c2-2.7,5.1-4.3,8.5-4.3c5.6,0,10.2,4.4,10.6,9.9c3.1,0.9,5.3,3.8,5.3,7.1
		C42.2,32,38.8,35.3,34.7,35.3z M13.7,34.2h21c0,0,0,0,0.1,0c3.5,0,6.3-2.9,6.3-6.3c0-3.5-2.8-6.3-6.3-6.3c-0.3,0-0.6-0.3-0.6-0.6
		s0.3-0.6,0.6-0.6c0.3,0,0.7,0,1,0.1c-0.5-4.8-4.5-8.6-9.4-8.6c-3,0-5.8,1.4-7.6,3.8c0.6,0.5,1.1,1.1,1.4,1.8c0.1,0.3,0,0.6-0.3,0.8
		c-0.3,0.1-0.6,0-0.8-0.3c-0.7-1.5-2.2-2.4-3.8-2.4c-2.4,0-4.3,1.9-4.3,4.3c0,0.2,0,0.4,0,0.6c0,0,0,0.1,0,0.1c0,0.1,0,0.2-0.1,0.2
		c0,0.1-0.1,0.1-0.2,0.2c0,0-0.1,0-0.1,0.1c-2.4,1.1-3.9,3.6-3.9,6.2C6.8,31.1,9.9,34.2,13.7,34.2z M30.6,33c0,0-0.1,0-0.1,0
		l-8.7-1.7c0,0-0.1,0-0.1,0L14.9,30c-0.3-0.1-0.5-0.3-0.5-0.6v-8.2c0-0.3,0.2-0.5,0.4-0.6l15.6-3.3c0.2,0,0.3,0,0.5,0.1
		c0.1,0.1,0.2,0.3,0.2,0.4v14.5c0,0.2-0.1,0.3-0.2,0.4C30.9,33,30.8,33,30.6,33z M22.4,30.3l7.6,1.5v-6.1h-7.6V30.3z M15.6,29
		l5.7,1.1v-4.4h-5.7V29z M22.4,24.6h7.6v-6l-7.6,1.6V24.6z M15.6,24.6h5.7v-4.1l-5.7,1.2V24.6z"/>
</g>
</svg>
