<?xml version="1.0" encoding="utf-8"?>
<!-- Generator: Adobe Illustrator 21.1.0, SVG Export Plug-In . SVG Version: 6.00 Build 0)  -->
<svg version="1.1" id="Layer_1" xmlns="http://www.w3.org/2000/svg" xmlns:xlink="http://www.w3.org/1999/xlink" x="0px" y="0px"
	 viewBox="0 0 81 19.9" style="enable-background:new 0 0 81 19.9;" xml:space="preserve">
<style type="text/css">
	.st0{fill:#FFFFFF;}
</style>
<g id="b5r0dH.tif_3_">
	<g>
		<path class="st0" d="M10.6,1.9c0,2.4,0,4.9,0,7.3c0,0.1,0,0.2,0,0.3c-2.6,0-5.1,0-7.6,0C3,7,3,4.5,3,1.9C5.5,1.9,8.1,1.9,10.6,1.9
			z"/>
		<path class="st0" d="M19,1.9c0,2.4,0,4.9,0,7.3c0,0.1,0,0.2,0,0.3c-2.5,0-5.1,0-7.6,0c0-2.5,0-5.1,0-7.6C13.9,1.9,16.5,1.9,19,1.9
			z"/>
		<path class="st0" d="M3,10.3c2.5,0,5.1,0,7.6,0c0,2.5,0,5.1,0,7.6c-2.5,0-5.1,0-7.6,0C3,15.4,3,12.9,3,10.3z"/>
		<path class="st0" d="M19,18c-2.5,0-5.1,0-7.6,0c0-2.5,0-5.1,0-7.6c2.5,0,5,0,7.6,0C19,12.9,19,15.4,19,18z"/>
		<path class="st0" d="M25.4,7.1c0,2.5,0,5.1,0,7.6c-0.5,0-1,0-1.4,0c0,0-0.1-0.1-0.1-0.1c0,0,0-0.1,0-0.2c0-3,0-6,0-9.1
			c0-0.1,0-0.2,0-0.3c0.2,0,0.4,0,0.5,0c0.5,0,1.1,0,1.6,0c0.1,0,0.2,0,0.3,0.2c0.9,2.3,1.8,4.7,2.7,7c0,0,0,0.1,0,0.1
			c0.3-0.7,0.6-1.4,0.8-2.2c0.7-1.6,1.3-3.2,2-4.8c0.1-0.2,0.1-0.2,0.3-0.2c0.7,0,1.3,0,2,0c0,3.2,0,6.4,0,9.6c-0.5,0-1,0-1.5,0
			c0,0-0.1-0.1-0.1-0.1c0-0.1,0-0.1,0-0.2c0-1.9,0-3.9,0-5.8c0-0.5,0-1.1,0.1-1.5c-1,2.4-2,4.9-3,7.4c-0.1,0.1-0.1,0.2-0.3,0.2
			c-0.2,0-0.5,0-0.7,0c-0.1,0-0.2-0.1-0.2-0.1c-0.9-2.3-1.9-4.5-2.8-6.8C25.5,7.6,25.4,7.4,25.4,7.1z"/>
		<path class="st0" d="M76.3,5.8c0,0.7,0,1.4,0,2.1c0.5,0,1.1,0,1.6,0c0,0.5,0,0.9,0,1.3c-0.5,0-1.1,0-1.6,0c0,0.1,0,0.1,0,0.2
			c0,1.1,0,2.1,0,3.2c0,0.9,0.6,1.3,1.5,0.8c0,0,0.1,0,0.1-0.1c0,0.1,0,0.1,0,0.2c0,0.3,0,0.5,0,0.8c0,0.4,0,0.5-0.4,0.5
			c-0.4,0.1-0.8,0.1-1.2,0.1c-1-0.1-1.6-0.8-1.6-1.8c0-1.2,0-2.4,0-3.6c0-0.1,0-0.2,0-0.3c-0.8,0-1.6,0-2.4,0c0,1.8,0,3.7,0,5.5
			c-0.6,0-1.1,0-1.7,0c0-1.8,0-3.7,0-5.5c-0.4,0-0.7,0-1.1,0c0-0.5,0-0.9,0-1.3c0.4,0,0.7,0,1.1,0c0-0.1,0-0.2,0-0.3
			c0-0.4,0-0.9,0.1-1.3C71,5.1,72,4.4,73.2,4.4c0.2,0,0.5,0.1,0.7,0.1c0.1,0,0.1,0.1,0.1,0.1c0,0.4,0,0.9,0,1.3
			c-0.2-0.1-0.4-0.1-0.7-0.1c-0.6-0.1-1.1,0.3-1.1,1c0,0.3,0,0.7,0,1c0.1,0,0.1,0,0.2,0c0.7,0,1.3,0,2,0c0.2,0,0.2,0,0.2-0.2
			c0-0.4,0-0.8,0-1.1c0-0.1,0-0.2,0.2-0.3C75.4,6.1,75.8,6,76.3,5.8z"/>
		<path class="st0" d="M65.8,14.9c-0.9,0-1.8-0.2-2.4-0.9c-0.6-0.6-0.9-1.3-1-2.1c-0.1-0.8,0-1.5,0.3-2.2c0.5-1.2,1.4-1.8,2.6-2
			c0.6-0.1,1.2-0.1,1.8,0.1c1.1,0.3,1.8,0.9,2.2,2c0.3,1,0.3,1.9,0,2.9c-0.4,1.3-1.6,2.1-3,2.2C66,14.9,65.9,14.9,65.8,14.9z
			 M63.9,11.3C63.9,11.3,64,11.3,63.9,11.3c0.1,0.1,0.1,0.2,0.1,0.3c0.1,1.2,0.7,2.1,2.1,1.9c0.7-0.1,1.2-0.4,1.4-1.1
			c0.2-0.7,0.2-1.4,0-2.1c-0.2-0.7-0.8-1.2-1.5-1.2c-0.9,0-1.6,0.3-1.8,1.1C64,10.5,64,10.9,63.9,11.3z"/>
		<path class="st0" d="M52.6,14.9c-0.7,0-1.3-0.1-1.9-0.5c-0.9-0.6-1.4-1.4-1.5-2.5c-0.1-0.7,0-1.4,0.2-2.1c0.5-1.2,1.4-1.9,2.7-2.1
			c0.6-0.1,1.2-0.1,1.8,0.1c1.1,0.3,1.8,1,2.1,2c0.3,1.1,0.3,2.2-0.2,3.3c-0.5,1-1.3,1.5-2.4,1.7C53.1,14.9,52.9,14.9,52.6,14.9z
			 M54.6,11.3c0-0.2,0-0.5-0.1-0.7c-0.1-0.9-0.8-1.5-1.6-1.5c-1,0-1.7,0.4-2,1.4c-0.1,0.4-0.1,0.9-0.1,1.3c0.1,1.3,1.1,2.1,2.4,1.8
			c0.4-0.1,0.8-0.4,1-0.8C54.5,12.3,54.5,11.8,54.6,11.3z"/>
		<path class="st0" d="M57,12.9c0.5,0.3,0.9,0.6,1.5,0.6c0.3,0,0.7,0,1,0c0.2,0,0.4-0.2,0.5-0.5c0-0.3,0-0.5-0.2-0.7
			c-0.3-0.2-0.6-0.3-0.9-0.5c-0.2-0.1-0.5-0.2-0.7-0.4c-1.3-0.7-1.3-2.6-0.1-3.4c0.7-0.4,1.4-0.5,2.2-0.5c0.3,0,0.7,0.1,1,0.2
			c0.1,0,0.2,0.1,0.2,0.3c0,0.4,0,0.8,0,1.3c-0.1,0-0.1-0.1-0.2-0.1C60.5,9.1,60,9,59.4,9c-0.4,0-0.7,0.2-0.8,0.5
			c-0.1,0.4,0.1,0.6,0.4,0.8c0.3,0.2,0.7,0.3,1.1,0.5c0.5,0.2,1,0.5,1.3,1.1c0.4,0.9,0.1,2-0.8,2.5c-0.7,0.4-1.5,0.5-2.3,0.4
			c-0.4,0-0.8-0.2-1.2-0.3c-0.1,0-0.2-0.1-0.2-0.3C57,13.9,57,13.4,57,12.9z"/>
		<path class="st0" d="M43.9,13c0,0.4,0,0.9,0,1.4c0,0.1-0.1,0.1-0.1,0.2c-0.4,0.1-0.8,0.3-1.2,0.4c-1.1,0.1-2.1,0-3-0.8
			c-0.6-0.5-0.9-1.2-1-1.9c-0.1-0.9,0-1.8,0.4-2.6c0.5-1,1.4-1.6,2.6-1.8c0.7-0.1,1.4,0,2.1,0.2c0.2,0.1,0.3,0.2,0.3,0.4
			c0,0.4,0,0.9,0,1.3c-0.1-0.1-0.2-0.1-0.2-0.1c-0.5-0.4-1.1-0.5-1.8-0.4c-1,0.2-1.7,0.9-1.7,1.9c0,0.5,0,0.9,0.2,1.3
			c0.4,1,1.4,1.4,2.5,1.1C43.2,13.4,43.5,13.2,43.9,13z"/>
		<path class="st0" d="M46.7,14.8c-0.6,0-1.1,0-1.6,0c0-2.3,0-4.6,0-6.9c0.5,0,1.1,0,1.6,0c0,0.3,0,0.7,0,1.1
			c0.1-0.2,0.2-0.4,0.4-0.6c0.4-0.6,1.2-0.8,1.9-0.6c0.1,0,0.1,0.1,0.1,0.2c0,0.5,0,1,0,1.5c-0.2-0.1-0.5-0.2-0.7-0.2
			C47.8,9.2,47.3,9.4,47,10c-0.2,0.4-0.3,0.8-0.3,1.2c0,1.1,0,2.2,0,3.3C46.7,14.6,46.7,14.6,46.7,14.8z"/>
		<path class="st0" d="M35.8,7.9c0.5,0,1.1,0,1.6,0c0,0.1,0,0.2,0,0.2c0,2.1,0,4.3,0,6.4c0,0.2,0,0.3-0.2,0.3c-0.5,0-0.9,0-1.4,0
			C35.8,12.5,35.8,10.2,35.8,7.9z"/>
		<path class="st0" d="M36.6,6.8c-0.6,0-1-0.4-1-0.9c0-0.5,0.4-0.9,1-1c0.6,0,1,0.4,1,0.9C37.6,6.4,37.1,6.8,36.6,6.8z"/>
	</g>
</g>
</svg>
