<?xml version="1.0" encoding="utf-8"?>
<!-- Generator: Adobe Illustrator 21.1.0, SVG Export Plug-In . SVG Version: 6.00 Build 0)  -->
<svg version="1.1" id="Layer_1" xmlns="http://www.w3.org/2000/svg" xmlns:xlink="http://www.w3.org/1999/xlink" x="0px" y="0px"
	 viewBox="0 0 61.2 54.5" style="enable-background:new 0 0 61.2 54.5;" xml:space="preserve">
<style type="text/css">
	.st0{fill:none;stroke:#662F8F;stroke-width:4;stroke-linecap:round;stroke-linejoin:round;stroke-miterlimit:10;}
	.st1{fill:#662F8F;}
	.st2{fill:none;stroke:#662F8F;stroke-width:2;stroke-linecap:round;stroke-linejoin:round;stroke-miterlimit:10;}
	.st3{fill:none;stroke:#FFFFFF;stroke-width:0.488;stroke-linecap:round;stroke-linejoin:round;stroke-miterlimit:10;}
	.st4{fill:none;stroke:#E73E51;stroke-width:1.6927;}
	.st5{fill:none;stroke:#E73E51;stroke-width:1.1285;stroke-linecap:round;stroke-linejoin:round;stroke-miterlimit:10;}
	.st6{fill:#E73E51;}
	
		.st7{clip-path:url(#SVGID_2_);fill:none;stroke:#E73E51;stroke-width:1.1285;stroke-linecap:round;stroke-linejoin:round;stroke-miterlimit:10;}
	.st8{fill:none;stroke:#EE4050;stroke-width:1.1285;stroke-linecap:round;stroke-linejoin:round;stroke-miterlimit:10;}
	.st9{fill:none;stroke:#FFFFFF;stroke-width:0.574;stroke-linecap:round;stroke-linejoin:round;stroke-miterlimit:10;}
	.st10{fill:none;stroke:#A491C4;stroke-width:0.5657;stroke-miterlimit:10;}
	.st11{fill:none;stroke:#F7F8F9;stroke-width:1.2708;stroke-miterlimit:10;}
	.st12{fill:url(#SVGID_3_);}
	.st13{fill:#9289C1;}
	.st14{fill:#F79F7C;}
	.st15{fill:#EF619B;}
	.st16{fill:#F28BB9;}
	.st17{fill:#FABEA9;}
	.st18{fill:#F37B8A;}
	.st19{fill:none;stroke:#633493;stroke-width:5.1599;stroke-linecap:round;stroke-linejoin:round;stroke-miterlimit:10;}
	.st20{fill:none;stroke:#FFFFFF;stroke-width:1.0098;stroke-linecap:round;stroke-linejoin:round;stroke-miterlimit:10;}
	.st21{fill:none;stroke:#662F8F;stroke-width:1.5111;stroke-linecap:round;stroke-linejoin:round;stroke-miterlimit:10;}
	.st22{fill:none;stroke:#FFFFFF;stroke-width:1.6611;stroke-linecap:round;stroke-linejoin:round;stroke-miterlimit:10;}
	.st23{fill:none;stroke:#662F8F;stroke-width:0.75;stroke-miterlimit:10;}
	.st24{fill:none;stroke:#E73E51;stroke-width:0.9998;stroke-linecap:round;stroke-linejoin:round;stroke-miterlimit:10;}
	.st25{fill:none;}
	.st26{fill:#EE4050;}
</style>
<g>
	<path class="st0" d="M-371.8-236.2c9.6-9.6,22.8-15.5,37.3-15.5"/>
	<path class="st0" d="M-357.5-221.9c5.9-5.9,14-9.5,23-9.5"/>
	<path class="st0" d="M-400.6-265c17.7-17.7,41.2-27.4,66.1-27.4c25,0,48.4,9.7,66.1,27.4"/>
	<path class="st0" d="M-282.8-250.6c-13.3-13.3-31.6-21.5-51.7-21.5c-20.2,0-38.5,8.2-51.7,21.5"/>
	<path class="st0" d="M-297.2-236.2c-9.6-9.6-22.8-15.5-37.3-15.5"/>
	<path class="st0" d="M-311.5-221.9c-5.9-5.9-14-9.5-23-9.5"/>
	<path class="st0" d="M-325.9-190.4c-2.2,2.2-5.2,3.5-8.6,3.5c-6.7,0-12.1-5.4-12.1-12.1c0-6.7,5.4-12.1,12.1-12.1
		c3.3,0,6.4,1.4,8.6,3.5"/>
	<path class="st0" d="M-282.8-250.6c4,4,4,10.4,0,14.4c-4,4-10.4,4-14.4,0"/>
	<path class="st0" d="M-357.5-221.9c-4,4-10.4,4-14.4,0c-4-4-4-10.4,0-14.4"/>
	<path class="st0" d="M-311.5-221.9c4,4,4,10.4,0,14.4c-4,4-10.4,4-14.4,0"/>
	<path class="st0" d="M-386.2-250.6c-4,4-10.4,4-14.4,0s-4-10.4,0-14.4"/>
</g>
<g>
	<path class="st1" d="M-188.7-302.1c-28.7,0-52,23.3-52,52s23.3,52,52,52s52-23.3,52-52S-160.1-302.1-188.7-302.1z M-188.7-201.8
		c-26.6,0-48.3-21.7-48.3-48.3s21.7-48.3,48.3-48.3s48.3,21.7,48.3,48.3S-162.1-201.8-188.7-201.8z"/>
	<path class="st1" d="M-152.2-256c-4.8-4.7-10.4-8.3-16.4-10.7c0-0.3,0.1-0.7,0.1-1c0-11.1-9-20.2-20.2-20.2s-20.2,9-20.2,20.2
		c0,0.6,0,1.1,0.1,1.7c-5.5,2.4-10.5,5.8-14.9,10.1c0,0-0.1,0.1-0.1,0.1c-1.2,1.2-1.8,2.8-1.8,4.5c0,1.7,0.7,3.4,1.9,4.6
		c2.6,2.5,6.7,2.5,9.3,0c0,0,0,0,0,0c3.2-3.1,6.8-5.6,10.8-7.4c2.3,2.5,5.2,4.5,8.5,5.5c-5,1.2-9.6,3.7-13.4,7.4
		c0,0-0.1,0.1-0.1,0.1c-1.3,1.2-1.9,2.9-1.9,4.6c0,1.7,0.7,3.4,1.9,4.6c2.6,2.5,6.7,2.5,9.3,0c0,0,0,0,0,0h0c3-2.9,7-4.5,11.3-4.5
		c4.3,0,8.3,1.6,11.3,4.5c0,0,0,0,0,0c0.8,0.8,1.2,1.8,1.2,2.8c0,1.1-0.4,2.1-1.2,2.8c-1.6,1.6-4.3,1.6-5.9,0c0,0-0.1-0.1-0.1-0.1
		c-1.4-1.3-3.3-2.1-5.3-2.1c-4.2,0-7.6,3.3-7.6,7.5c0,4.1,3.4,7.5,7.6,7.5c2,0,3.9-0.8,5.4-2.2c0.5-0.5,0.5-1.3,0-1.7
		c-0.5-0.5-1.3-0.5-1.7,0c-1,1-2.3,1.5-3.7,1.5c-2.8,0-5.2-2.2-5.2-5c0-2.8,2.3-5,5.2-5c1.4,0,2.7,0.5,3.7,1.5c0,0,0.1,0.1,0.1,0.1
		c2.6,2.4,6.7,2.4,9.2-0.1c1.3-1.2,1.9-2.9,1.9-4.6s-0.7-3.4-1.9-4.6c0,0,0,0,0,0c-3.5-3.4-8.1-5.2-13-5.2c-4.9,0-9.5,1.9-13,5.2
		c0,0,0,0,0,0c-1.6,1.6-4.3,1.6-5.9,0c-0.8-0.8-1.2-1.8-1.2-2.8c0-1,0.4-2,1.1-2.7c0,0,0.1-0.1,0.1-0.1c5-4.9,11.7-7.6,18.8-7.6
		c7.1,0,13.8,2.7,18.8,7.6c0,0,0,0,0,0c2.6,2.5,6.7,2.5,9.3,0c1.3-1.2,1.9-2.9,1.9-4.6c0-1.7-0.7-3.4-1.9-4.6c0,0,0,0,0,0
		c-3.6-3.5-7.7-6.2-12.1-8.1c1.5-2.2,2.5-4.8,3-7.5c5.5,2.3,10.6,5.7,15,9.9c0.5,0.5,1.3,0.5,1.7,0
		C-151.7-254.7-151.7-255.5-152.2-256z M-216.1-248.6C-216.1-248.6-216.1-248.6-216.1-248.6c-1.6,1.6-4.3,1.6-5.9,0
		c-0.8-0.8-1.2-1.8-1.2-2.8c0-1.1,0.4-2.1,1.2-2.8c0,0,0.1-0.1,0.1-0.1c4-3.9,8.5-6.9,13.5-9.2c0.6,2.7,1.7,5.2,3.3,7.4
		C-209.2-254.3-212.9-251.7-216.1-248.6z M-161.5-246.8C-161.5-246.8-161.5-246.8-161.5-246.8c0.8,0.8,1.2,1.8,1.2,2.8
		c0,1.1-0.4,2.1-1.2,2.8c-1.6,1.6-4.3,1.6-5.9,0c0,0,0,0,0,0c-4-3.9-9-6.5-14.4-7.7c3.3-1.2,6.1-3.2,8.4-5.8
		C-169.1-252.8-165-250.2-161.5-246.8z M-188.7-250.1c-9.8,0-17.7-7.9-17.7-17.7c0-9.8,7.9-17.7,17.7-17.7s17.7,7.9,17.7,17.7
		C-171-258-179-250.1-188.7-250.1z"/>
	<path class="st1" d="M-196.4-269.1h-1.9l0.1-3.7h5.6v-1.5h-7.1l-0.2,6.6h2.9c2.5,0,3.4,1.1,3.4,2.5c0,1.4-1,2.5-2.8,2.5
		c-1.3,0-2.5-0.6-3.4-1.6l-1,1c1.1,1.3,2.6,2,4.4,2c2.4,0,4.5-1.5,4.5-4.2C-191.9-267.3-193.3-269.1-196.4-269.1z"/>
	<path class="st1" d="M-182.4-268.2v1.5h3.9c-0.3,2.5-1.9,4.1-4.5,4.1c-2.8,0-4.9-2.1-4.9-5.1c0-3,2.2-5.1,5-5.1
		c1.6,0,2.9,0.7,3.8,1.7l1.2-1.2c-1.2-1.3-3-2.1-5-2.1c-3.9,0-6.7,2.8-6.7,6.7c0,4.2,3.2,6.7,6.6,6.7c3.9,0,6.3-3,6.3-6.7
		c0-0.1,0-0.3,0-0.4H-182.4z"/>
</g>
<g>
	<line class="st2" x1="-56.9" y1="-216.5" x2="-56.9" y2="-207.8"/>
	<path class="st2" d="M-70.6-207.8c-2.8,0-5.2-2.3-5.2-5.2v-77.8c0-2.8,2.3-5.2,5.2-5.2h69.9c2.8,0,5.2,2.3,5.2,5.2v77.8
		c0,2.8-2.3,5.2-5.2,5.2h-56.2"/>
	<path class="st2" d="M-56.9-216.5h-5c-2.8,0-5.2-2.3-5.2-5.2v-60.4c0-2.8,2.3-5.2,5.2-5.2h10.1c2.8,0,5.2,2.3,5.2,5.2v60.4"/>
	<g>
		<g>
			<circle class="st2" cx="-34.9" cy="-266.7" r="3.8"/>
			<circle class="st2" cx="-21" cy="-266.7" r="3.8"/>
			<circle class="st2" cx="-7.1" cy="-266.7" r="3.8"/>
			<circle class="st2" cx="-34.9" cy="-252.8" r="3.8"/>
			<circle class="st2" cx="-21" cy="-252.8" r="3.8"/>
			<circle class="st2" cx="-7.1" cy="-252.8" r="3.8"/>
			<circle class="st2" cx="-34.9" cy="-238.9" r="3.8"/>
			<circle class="st2" cx="-21" cy="-238.9" r="3.8"/>
			<circle class="st2" cx="-7.1" cy="-238.9" r="3.8"/>
			<circle class="st2" cx="-34.9" cy="-225" r="3.8"/>
			<circle class="st2" cx="-21" cy="-225" r="3.8"/>
			<circle class="st2" cx="-7.1" cy="-225" r="3.8"/>
		</g>
		<line class="st2" x1="-38.7" y1="-282.6" x2="-3.3" y2="-282.6"/>
	</g>
</g>
<g>
	<path class="st3" d="M-139.5-104.1v-1c0-2.7-2.1-4.9-4.8-5c-2.8-0.1-5.1,2.2-5.1,4.9l0,3.8h10.9c0.7,0,1.3,0.6,1.3,1.3v8.6
		c0,0.7-0.6,1.3-1.3,1.3h-2.7c-0.5,0-1-0.4-1.1-0.9l-0.8-3.2v0c0.6-0.5,0.9-1.2,0.8-2.1c-0.1-1-1-1.7-1.9-1.9
		c-1.3-0.1-2.5,0.9-2.5,2.2c0,0.7,0.3,1.3,0.8,1.7h0c0,0-0.5,2-0.8,3.2c-0.1,0.5-0.6,0.9-1.1,0.9h-2.7c-0.7,0-1.3-0.6-1.3-1.3v-8.6"
		/>
</g>
<g>
	<circle class="st4" cx="-21.2" cy="-96.8" r="23"/>
	<path class="st5" d="M-44.5-96.8l23.2-0.1 M-21.3-97V-120V-97z M-9.6-97c0,6.4-5.2,11.6-11.6,11.6c-6.4,0-11.7-5.2-11.7-11.6
		c0-6.4,5.2-11.6,11.7-11.6C-14.9-108.6-9.6-103.4-9.6-97z M-4-97c0,9.5-7.7,17.3-17.3,17.3c-9.5,0-17.3-7.7-17.3-17.3
		c0-9.5,7.7-17.3,17.3-17.3C-11.8-114.2-4-106.5-4-97z"/>
	<path class="st6" d="M-37-102.2c1.2,0,2.2-1,2.2-2.2c0-1.2-1-2.2-2.2-2.2c-1.2,0-2.2,1-2.2,2.2C-39.2-103.2-38.2-102.2-37-102.2"/>
</g>
<g>
	<circle class="st4" cx="-79.7" cy="-96.4" r="23"/>
	<path class="st5" d="M-68.9-103.7l7.1,7.2 M-68.9-103.7L-76-93.4 M-83-89.2l7.1-4.2 M-83-89.2l-7.1-9.5 M-97.1-93.8l7.1-4.9"/>
	<path class="st6" d="M-92.2-98.7c0-1.2,1-2.1,2.1-2.1c1.2,0,2.1,1,2.1,2.1c0,1.2-1,2.1-2.1,2.1C-91.2-96.6-92.2-97.6-92.2-98.7"/>
	<path class="st6" d="M-85.1-89.2c0-1.2,1-2.1,2.1-2.1c1.2,0,2.1,1,2.1,2.1c0,1.2-1,2.1-2.1,2.1C-84.2-87.1-85.1-88.1-85.1-89.2"/>
	<path class="st6" d="M-78.1-93.4c0-1.2,1-2.1,2.1-2.1c1.2,0,2.1,1,2.1,2.1c0,1.2-1,2.1-2.1,2.1C-77.1-91.3-78.1-92.2-78.1-93.4"/>
	<path class="st6" d="M-71-103.7c0-1.2,1-2.1,2.1-2.1c1.2,0,2.1,1,2.1,2.1c0,1.2-1,2.1-2.1,2.1C-70.1-101.6-71-102.5-71-103.7"/>
	<path class="st6" d="M-64.1-96.6c0-1.2,1-2.1,2.1-2.1c1.2,0,2.1,1,2.1,2.1c0,1.2-1,2.1-2.1,2.1C-63.2-94.5-64.1-95.4-64.1-96.6"/>
	<path class="st6" d="M-99-94c0-1.2,1-2.1,2.1-2.1c1.2,0,2.1,1,2.1,2.1c0,1.2-1,2.1-2.1,2.1C-98-91.9-99-92.8-99-94"/>
</g>
<g>
	<circle class="st4" cx="28.5" cy="-137.1" r="23"/>
	<g>
		<defs>
			<path id="SVGID_1_" d="M4.7-137.3c0,12.4,9.6,22.6,21.8,23.5h3.6c11.7-0.9,21.1-10.4,21.8-22.2v-2.7c-0.7-12.4-11-22.2-23.6-22.2
				C15.2-160.9,4.7-150.3,4.7-137.3"/>
		</defs>
		<clipPath id="SVGID_2_">
			<use xlink:href="#SVGID_1_"  style="overflow:visible;"/>
		</clipPath>
		<path class="st7" d="M51.3-105.8H39.2c-0.5,0-0.9-0.4-0.9-0.9v-5.2c0-0.5,0.4-0.9,0.9-0.9h12.1c0.5,0,0.9,0.4,0.9,0.9v5.2
			C52.2-106.2,51.8-105.8,51.3-105.8z M37.3-105.8H25.2c-0.5,0-0.9-0.4-0.9-0.9v-5.2c0-0.5,0.4-0.9,0.9-0.9h12.1
			c0.5,0,0.9,0.4,0.9,0.9v5.2C38.2-106.2,37.8-105.8,37.3-105.8z M23.4-105.8H11.3c-0.5,0-0.9-0.4-0.9-0.9v-5.2
			c0-0.5,0.4-0.9,0.9-0.9h12.1c0.5,0,0.9,0.4,0.9,0.9v5.2C24.3-106.2,23.9-105.8,23.4-105.8z M9.4-105.8H-2.7
			c-0.5,0-0.9-0.4-0.9-0.9v-5.2c0-0.5,0.4-0.9,0.9-0.9H9.4c0.5,0,0.9,0.4,0.9,0.9v5.2C10.3-106.2,9.9-105.8,9.4-105.8z M58.5-112.8
			H46.4c-0.5,0-0.9-0.4-0.9-0.9v-5.2c0-0.5,0.4-0.9,0.9-0.9h12.1c0.5,0,0.9,0.4,0.9,0.9v5.2C59.5-113.2,59.1-112.8,58.5-112.8z
			 M44.5-112.8H32.4c-0.5,0-0.9-0.4-0.9-0.9v-5.2c0-0.5,0.4-0.9,0.9-0.9h12.1c0.5,0,0.9,0.4,0.9,0.9v5.2
			C45.5-113.2,45.1-112.8,44.5-112.8z M30.7-112.8H18.5c-0.5,0-0.9-0.4-0.9-0.9v-5.2c0-0.5,0.4-0.9,0.9-0.9h12.1
			c0.5,0,0.9,0.4,0.9,0.9v5.2C31.6-113.2,31.2-112.8,30.7-112.8z M16.7-112.8H4.5c-0.5,0-0.9-0.4-0.9-0.9v-5.2
			c0-0.5,0.4-0.9,0.9-0.9h12.1c0.5,0,0.9,0.4,0.9,0.9v5.2C17.6-113.2,17.2-112.8,16.7-112.8z M51.3-119.9H39.2
			c-0.5,0-0.9-0.4-0.9-0.9v-5.2c0-0.5,0.4-0.9,0.9-0.9h12.1c0.5,0,0.9,0.4,0.9,0.9v5.2C52.2-120.4,51.8-119.9,51.3-119.9z
			 M37.3-119.9H25.2c-0.5,0-0.9-0.4-0.9-0.9v-5.2c0-0.5,0.4-0.9,0.9-0.9h12.1c0.5,0,0.9,0.4,0.9,0.9v5.2
			C38.2-120.4,37.8-119.9,37.3-119.9z M23.4-119.9H11.3c-0.5,0-0.9-0.4-0.9-0.9v-5.2c0-0.5,0.4-0.9,0.9-0.9h12.1
			c0.5,0,0.9,0.4,0.9,0.9v5.2C24.3-120.4,23.9-119.9,23.4-119.9z M9.4-119.9H-2.7c-0.5,0-0.9-0.4-0.9-0.9v-5.2
			c0-0.5,0.4-0.9,0.9-0.9H9.4c0.5,0,0.9,0.4,0.9,0.9v5.2C10.3-120.4,9.9-119.9,9.4-119.9z M58.5-127H46.4c-0.5,0-0.9-0.4-0.9-0.9
			v-5.2c0-0.5,0.4-0.9,0.9-0.9h12.1c0.5,0,0.9,0.4,0.9,0.9v5.2C59.5-127.4,59.1-127,58.5-127z M44.5-127H32.4
			c-0.5,0-0.9-0.4-0.9-0.9v-5.2c0-0.5,0.4-0.9,0.9-0.9h12.1c0.5,0,0.9,0.4,0.9,0.9v5.2C45.5-127.4,45.1-127,44.5-127z M30.7-127
			H18.5c-0.5,0-0.9-0.4-0.9-0.9v-5.2c0-0.5,0.4-0.9,0.9-0.9h12.1c0.5,0,0.9,0.4,0.9,0.9v5.2C31.6-127.4,31.2-127,30.7-127z
			 M16.7-127H4.5c-0.5,0-0.9-0.4-0.9-0.9v-5.2c0-0.5,0.4-0.9,0.9-0.9h12.1c0.5,0,0.9,0.4,0.9,0.9v5.2C17.6-127.4,17.2-127,16.7-127z
			 M51.3-134.1H39.2c-0.5,0-0.9-0.4-0.9-0.9v-5.2c0-0.5,0.4-0.9,0.9-0.9h12.1c0.5,0,0.9,0.4,0.9,0.9v5.2
			C52.2-134.5,51.8-134.1,51.3-134.1z M37.3-134.1H25.2c-0.5,0-0.9-0.4-0.9-0.9v-5.2c0-0.5,0.4-0.9,0.9-0.9h12.1
			c0.5,0,0.9,0.4,0.9,0.9v5.2C38.2-134.5,37.8-134.1,37.3-134.1z M23.4-134.1H11.3c-0.5,0-0.9-0.4-0.9-0.9v-5.2
			c0-0.5,0.4-0.9,0.9-0.9h12.1c0.5,0,0.9,0.4,0.9,0.9v5.2C24.3-134.5,23.9-134.1,23.4-134.1z M9.4-134.1H-2.7
			c-0.5,0-0.9-0.4-0.9-0.9v-5.2c0-0.5,0.4-0.9,0.9-0.9H9.4c0.5,0,0.9,0.4,0.9,0.9v5.2C10.3-134.5,9.9-134.1,9.4-134.1z"/>
	</g>
</g>
<circle class="st4" cx="90.4" cy="-111.7" r="23"/>
<path class="st8" d="M90.5-102.5c-1.2-0.5-5.6-2.7-5.6-7.1v-6.8c2.6-0.1,4.7-1,5.6-1.5c0.9,0.5,3,1.4,5.6,1.5v6.8
	C96.1-105.1,91.7-103,90.5-102.5z"/>
<path class="st8" d="M92.9-107.6h-4.8v-3.5h4.8V-107.6z M89-111.1v-1.4c0-0.8,0.7-1.5,1.5-1.5c0.8,0,1.5,0.7,1.5,1.5v1.4"/>
<path class="st8" d="M104.1-118.6l0-1.4c0-0.5-0.4-0.9-0.9-0.9l-12.3,0.1l-3.6-3.6l-8.6,0c-1,0-1.9,0.9-1.9,1.9l0.1,22.7h27.2
	V-118.6z"/>
<g>
	<circle class="st4" cx="156.6" cy="-107.2" r="23"/>
	<path class="st8" d="M167-98.5c0,1.8-1.5,3.3-3.3,3.3s-3.3-1.5-3.3-3.3c0-1.8,1.5-3.3,3.3-3.3S167-100.3,167-98.5z M163-99.4l0.8,2
		l1.5-3.9 M147.8-102.4h9.1 M147.8-105.2h14.7 M147.8-108h14.7 M147.8-110.9h14.7 M147.8-113.7h9.9 M147.8-116.5h9.9 M162.5-122.2
		h6.9v29.8h-25.2v-29.8H162.5z"/>
</g>
<circle class="st4" cx="219.3" cy="-102.8" r="23"/>
<path class="st8" d="M219.2-97.6v1.1 M219.2-108.4v7.2 M219.2-116.9l-13.9,24.2h27.9L219.2-116.9z"/>
<circle class="st4" cx="292.9" cy="-102.5" r="23"/>
<path class="st8" d="M292.9-85.1c-2.4-1-11.4-5.4-11.4-14.4v-13.7c5.3-0.1,9.6-2,11.4-3c1.8,1,6,2.8,11.4,3v13.7
	C304.3-90.5,295.3-86.1,292.9-85.1z"/>
<path class="st8" d="M297.8-95.4H288v-7.1h9.8V-95.4z M289.9-102.5v-2.8c0-1.6,1.3-3,3-3c1.6,0,3,1.3,3,3v2.8"/>
<g>
	<path class="st0" d="M418.7-124.5v-5.9c0-16.5-12.9-30.4-29.4-30.8c-17.1-0.5-31.1,13.2-31.1,30.2l0,23.2h67.2
		c4.2,0,7.7,3.5,7.7,7.7v53.1c0,4.2-3.5,7.7-7.7,7.7c0,0-10.2,0-16.8,0c-3.3,0-6.2-2.3-7-5.5l-4.8-19.9l0,0c3.6-2.9,5.8-7.6,5-12.7
		c-0.9-6-5.8-10.7-11.8-11.4c-8.2-0.9-15.1,5.5-15.1,13.5c0,4.3,2,8.2,5.2,10.6l0,0c0,0-3,12.4-4.8,19.9c-0.8,3.2-3.7,5.5-7,5.5
		h-16.8c-4.2,0-7.7-3.5-7.7-7.7v-53.1"/>
</g>
<g>
	<path class="st9" d="M294.4-35.4c1.7,0.6,3.7,0.2,5-1.1c1.4-1.4,1.7-3.3,1.1-5l-2.4,2.4c-0.3,0.3-0.8,0.3-1.1,0l-1.8-1.8
		c-0.3-0.3-0.3-0.8,0-1.1l2.4-2.4c-1.7-0.6-3.7-0.2-5,1.1c-1.4,1.4-1.7,3.3-1.1,5l-7.4,7.4c-1.7-0.6-3.7-0.2-5,1.1
		c-1.4,1.4-1.7,3.3-1.1,5l2.4-2.4c0.3-0.3,0.8-0.3,1.1,0l1.8,1.8c0.3,0.3,0.3,0.8,0,1.1l-2.4,2.4c1.7,0.6,3.7,0.2,5-1.1
		c1.4-1.4,1.7-3.3,1.1-5l2.2-2.2"/>
	<path class="st9" d="M289.2-30.2l-5.8-6.2c-1-1-2.7-1-3.7,0c-0.9,0.9-1,2.4-0.2,3.4l-2,1.3c0,0-3.2-4.8,0.5-8.5
		c1.3-1.3,2.5-2.5,3.6-3.6c0.3,0.1,0.7,0.1,1,0.2c0.3,0.1,0.6-0.2,0.5-0.5l-0.2-1l1.7-1.7l4.6,4.6l-1.6,1.6c-0.5-0.5-1.3-0.5-1.7,0
		c-0.5,0.5-0.5,1.3,0,1.7l12.8,11.9c0.1,0.1,0.2,0.2,0.2,0.2c0.7,0.8,0.7,2,0.1,2.9c-0.9,1.1-2.5,1.2-3.5,0.3c0,0-0.1-0.1-0.1-0.1
		l-4.2-4.4"/>
</g>
<g>
	<path class="st10" d="M610,282.7c-16.8,29.7-59.2,67.7-114.4,99.6c-81.9,47.3-161,63.4-176.8,36c-7.4-12.7,0.3-32.6,18.8-55"/>
	<path class="st10" d="M556.9,236c29.3-5.1,50.9-1.9,58.3,11c2.6,4.5,3.3,10,2.3,16.1"/>
	<circle class="st10" cx="614.6" cy="273.2" r="10.5"/>
	<circle class="st10" cx="463.2" cy="304.8" r="132"/>
</g>
<image style="overflow:visible;" width="1600" height="700" xlink:href="../Dropbox (Muuaaa)/Muuaaa Team Folder/Graphic Design_Gabriel/Neptuno/02 Design/images/slide-22.jpg"  transform="matrix(0.4158 0 0 0.4158 173.0894 -209.8653)">
</image>
<image style="overflow:visible;" width="1078" height="516" xlink:href="datacenter-google-1078x516.jpg"  transform="matrix(1 0 0 1 299.4146 -850.8367)">
</image>
<g>
	<g>
		<g>
			<path class="st11" d="M1193.7,251.5c7.8-13.2,12.3-28.7,12.3-45.2c0-49.1-39.8-88.9-88.9-88.9c-49.1,0-88.9,39.8-88.9,88.9
				c0,16,4.2,30.9,11.6,43.9"/>
			<path class="st11" d="M1050,264.5c16.3,18.8,40.3,30.7,67.2,30.7c26.8,0,50.9-11.9,67.2-30.7"/>
			<rect x="1044.5" y="261.3" class="st11" width="45.9" height="3.2"/>
			<g>
				<rect x="1039.8" y="246.2" class="st11" width="55.3" height="15.1"/>
				<line class="st11" x1="1044.4" y1="250.5" x2="1044.4" y2="257"/>
				<line class="st11" x1="1047.9" y1="250.5" x2="1047.9" y2="257"/>
				<line class="st11" x1="1051.4" y1="250.5" x2="1051.4" y2="257"/>
				<line class="st11" x1="1054.8" y1="250.5" x2="1054.8" y2="257"/>
				<line class="st11" x1="1058.3" y1="250.5" x2="1058.3" y2="257"/>
				<line class="st11" x1="1061.8" y1="250.5" x2="1061.8" y2="257"/>
				<circle class="st11" cx="1088.5" cy="253.7" r="2.3"/>
				<circle class="st11" cx="1080.5" cy="253.7" r="2.3"/>
				<circle class="st11" cx="1072.5" cy="253.7" r="2.3"/>
			</g>
			<path class="st11" d="M1049.6,246.2v-19.6c0-1.2,1-2.2,2.2-2.2l0,0c1.2,0,2.2,1,2.2,2.2v19.6"/>
			<path class="st11" d="M1043.7,214.2c2.1-2.1,5-3.4,8.1-3.4"/>
			<path class="st11" d="M1046,217.4c1.5-1.5,3.6-2.4,5.9-2.4"/>
			<path class="st11" d="M1048.2,220.6c0.9-0.9,2.2-1.5,3.6-1.5"/>
			<path class="st11" d="M1060,214.2c-2.1-2.1-5-3.4-8.1-3.4"/>
			<path class="st11" d="M1057.7,217.4c-1.5-1.5-3.6-2.4-5.9-2.4"/>
			<path class="st11" d="M1055.5,220.6c-0.9-0.9-2.2-1.5-3.6-1.5"/>
			<path class="st11" d="M1080.9,246.2v-19.6c0-1.2,1-2.2,2.2-2.2l0,0c1.2,0,2.2,1,2.2,2.2v19.6"/>
			<path class="st11" d="M1075,214.2c2.1-2.1,5-3.4,8.1-3.4"/>
			<path class="st11" d="M1077.3,217.4c1.5-1.5,3.6-2.4,5.9-2.4"/>
			<path class="st11" d="M1079.5,220.6c0.9-0.9,2.2-1.5,3.6-1.5"/>
			<path class="st11" d="M1091.3,214.2c-2.1-2.1-5-3.4-8.1-3.4"/>
			<path class="st11" d="M1089,217.4c-1.5-1.5-3.6-2.4-5.9-2.4"/>
			<path class="st11" d="M1086.8,220.6c-0.9-0.9-2.2-1.5-3.6-1.5"/>
			<rect x="1101.5" y="155.5" class="st11" width="42.5" height="105.8"/>
			<rect x="1107" y="161.1" class="st11" width="31.4" height="8.2"/>
			<rect x="1107" y="169.2" class="st11" width="31.4" height="8.2"/>
			<rect x="1107" y="177.4" class="st11" width="31.4" height="8.2"/>
			<rect x="1107" y="185.5" class="st11" width="31.4" height="8.2"/>
			<rect x="1107" y="193.7" class="st11" width="31.4" height="8.2"/>
			<rect x="1107" y="201.8" class="st11" width="31.4" height="8.2"/>
			<rect x="1107" y="228.1" class="st11" width="31.4" height="23.2"/>
			<circle class="st11" cx="1122.5" cy="239.7" r="2.8"/>
			<g>
				<rect x="1107" y="217" class="st11" width="18.6" height="4.1"/>
				<rect x="1134.4" y="217" class="st11" width="4.1" height="4.1"/>
			</g>
			<line class="st11" x1="1119.7" y1="239.7" x2="1107" y2="239.7"/>
			<line class="st11" x1="1125.3" y1="239.7" x2="1137.9" y2="239.7"/>
			<rect x="1101.5" y="261.3" class="st11" width="42.5" height="3.2"/>
			<circle class="st11" cx="1173.2" cy="233.7" r="11.7"/>
			<circle class="st11" cx="1173.2" cy="233.7" r="6.4"/>
			<circle class="st11" cx="1173.2" cy="233.7" r="2.6"/>
			<line class="st11" x1="1173.2" y1="245.4" x2="1173.2" y2="251.5"/>
			<g>
				<rect x="1150.4" y="251.5" class="st11" width="44.1" height="9.8"/>
				<line class="st11" x1="1183.7" y1="256.4" x2="1161.1" y2="256.4"/>
			</g>
			<rect x="1154" y="261.3" class="st11" width="36.7" height="3.2"/>
		</g>
	</g>
</g>
<g>
	<linearGradient id="SVGID_3_" gradientUnits="userSpaceOnUse" x1="1255.1334" y1="84.7366" x2="1377.3712" y2="84.7366">
		<stop  offset="0" style="stop-color:#C558A0"/>
		<stop  offset="0.5945" style="stop-color:#7F3E93"/>
		<stop  offset="1" style="stop-color:#532E8B"/>
	</linearGradient>
	<path class="st12" d="M1346.1,62.6l31.3,17.6l-61.4,34.6l-60.9-34.6l30.8-17.5C1304.6,52.1,1327.4,52.1,1346.1,62.6z"/>
	<path class="st13" d="M1255.1,80.2v3.6l59.9,34.7c0.4,0.2,0.8,0.2,1.1,0l61.2-34.7v-3.7l-61.4,34.6L1255.1,80.2z"/>
	<path class="st14" d="M1340.9,31.9l36.4,20.5L1316,87l-60.9-34.6l36-20.4C1306.6,23.2,1325.5,23.2,1340.9,31.9z"/>
	<path class="st15" d="M1342.6,7l34.8,19.6L1316,61.1l-60.9-34.6l34.3-19.5C1305.9-2.3,1326.1-2.3,1342.6,7z"/>
	<path class="st16" d="M1255.1,26.6l0.1,3.6l59.7,34.7c0.4,0.2,0.8,0.2,1.2,0l61.2-34.7v-3.6L1316,61.1L1255.1,26.6z"/>
	<path class="st17" d="M1255.1,52.4l0.1,3.6l59.7,34.7c0.4,0.2,0.9,0.2,1.3,0l61.1-34.7v-3.6L1316,87L1255.1,52.4z"/>
</g>
<g>
	<g>
		<path class="st18" d="M1796.6-11.8l-76.2,129.5c-1.5,2.5,0.3,5.7,3.3,5.7h61.4c0.7,0,1.3,0.6,1.2,1.4l-13.6,101.2
			c-0.4,3.3,4,4.9,5.7,2l94.1-155.8c1.4-2.3-0.3-5.2-2.9-5.2h-74.4c-0.7,0-1.3-0.6-1.2-1.3l8-75.7
			C1802.3-13.1,1798.2-14.5,1796.6-11.8z"/>
	</g>
	<g>
		<g>
			<path class="st1" d="M1657,91.5c-28.5-17-50.1-44.3-59.4-76.2c-9.1-31-6.3-65.2,7.9-94.2c28.1-57.4,95.2-86.9,156.5-68.2
				c35.2,10.7,64.3,36.3,80.3,69.4c2,4.1,8.2,0.5,6.2-3.6c-14.9-30.8-40.8-55.3-72.4-68.3c-31.7-13-68.2-13.7-100.3-1.8
				c-29.8,11.1-55.3,32.3-71.4,59.7c-17.1,29-22.9,63.8-16.6,96.8c7.4,38.7,31.9,72.6,65.7,92.7C1657.4,100.1,1661,93.9,1657,91.5
				L1657,91.5z"/>
		</g>
	</g>
	<g>
		<g>
			<path class="st1" d="M1846.3-76.2c47.3-13.1,98.5,12.1,115.3,58.7c15.6,43.4-2.9,92.9-43.1,115.3c-25.3,14.1-55.7,15.3-82.5,4.6
				c-4.3-1.7-6.1,5.2-1.9,6.9c49.2,19.8,107.2-2.1,130.2-50.1c21.5-44.9,6.9-99.8-33.9-128.2c-25-17.4-56.8-22.2-86-14.1
				C1840-81.8,1841.9-74.9,1846.3-76.2L1846.3-76.2z"/>
		</g>
	</g>
	<g>
		<g>
			<path class="st1" d="M1838.1,107.6c9.8-16.3,19.7-32.6,29.5-48.9c1.4-2.3-0.4-5.4-3.1-5.4c-27.2,0-54.3,0-81.5,0
				c1.2,1.2,2.4,2.4,3.6,3.6c3.8-28.3,7.6-56.6,11.3-84.9c0.6-4.1,1.1-8.2,1.7-12.3c0.5-3.7-5-4.6-6.7-1.8
				c-10.1,17.3-20.1,34.5-30.2,51.8c-16.1,27.5-32.2,55.1-48.3,82.6c-3.7,6.4-7.5,12.8-11.2,19.2c-1.4,2.3,0.4,5.4,3.1,5.4
				c23,0,46.1,0,69.1,0c-1.2-1.2-2.4-2.4-3.6-3.6c-4.6,34.3-9.2,68.6-13.8,102.9c-0.6,4.8-1.3,9.6-1.9,14.4c-0.5,3.7,5,4.6,6.7,1.8
				c15.8-26.3,31.7-52.5,47.5-78.8c2.3-3.8,4.5-7.5,6.8-11.3c2.4-4-3.8-7.6-6.2-3.6c-15.8,26.3-31.7,52.5-47.5,78.8
				c-2.3,3.8-4.5,7.5-6.8,11.3c2.2,0.6,4.4,1.2,6.7,1.8c4.6-34.3,9.2-68.6,13.8-102.9c0.6-4.8,1.3-9.6,1.9-14.4
				c0.3-1.9-1.8-3.6-3.6-3.6c-23,0-46.1,0-69.1,0c1,1.8,2.1,3.6,3.1,5.4c10.1-17.3,20.1-34.5,30.2-51.8
				c16.1-27.5,32.2-55.1,48.3-82.6c3.7-6.4,7.5-12.8,11.2-19.2c-2.2-0.6-4.4-1.2-6.7-1.8c-3.8,28.3-7.6,56.6-11.3,84.9
				c-0.6,4.1-1.1,8.2-1.7,12.3c-0.3,1.9,1.8,3.6,3.6,3.6c27.2,0,54.3,0,81.5,0c-1-1.8-2.1-3.6-3.1-5.4
				c-9.8,16.3-19.7,32.6-29.5,48.9C1829.6,108,1835.8,111.6,1838.1,107.6L1838.1,107.6z"/>
		</g>
	</g>
</g>
<g>
	<g>
		<path class="st18" d="M2727.6,80.4h-73.2c-5.1,0-9.3,4.2-9.3,9.3v51.7c0,5.1,4.2,9.3,9.3,9.3h73.2c5.1,0,9.3-4.2,9.3-9.3V89.7
			C2736.8,84.6,2732.7,80.4,2727.6,80.4z M2702.8,134.6c0.3,1.2-0.6,2.3-1.8,2.3h-20.1c-1.2,0-2.1-1.1-1.8-2.3l4.5-18.8
			c-2.8-2.2-4.7-5.6-4.7-9.5c0-7.5,6.8-13.4,14.6-11.8c4.7,1,8.4,4.8,9.2,9.5c0.9,4.8-1.1,9.1-4.5,11.8L2702.8,134.6z"/>
	</g>
</g>
<g>
	<path class="st18" d="M2802.5-71.1l-53.6,10.6c-0.6,0.1-1.3-0.1-1.7-0.6l-27.2-30.3c-1-1.1-0.4-2.8,1-3.1l73.9-14.6
		c1-0.2,2,0.5,2.2,1.5l6.9,34.3C2804.2-72.2,2803.5-71.3,2802.5-71.1z"/>
</g>
<g>
	<path class="st18" d="M2568.3-71.1l53.6,10.6c0.6,0.1,1.3-0.1,1.7-0.6l27.2-30.3c1-1.1,0.4-2.8-1-3.1l-73.9-14.6
		c-1-0.2-2,0.5-2.2,1.5l-6.9,34.3C2566.6-72.2,2567.2-71.3,2568.3-71.1z"/>
</g>
<g>
	<g>
		<path class="st18" d="M2775-2.4c-49.5,0-85.9-23.3-85.9-23.3s-36.4,23.3-85.9,23.3h-8.2v110.7c0,83.8,94.1,116.3,94.1,116.3
			s94.1-32.4,94.1-116.3V-2.4H2775z M2770.4,108.3c0,63.9-64.1,95.2-81.3,102.4c-17.2-7.2-81.3-38.5-81.3-102.4V10.4
			c38.1-1,68.2-14.5,81.3-21.4c13,6.9,43.1,20.3,81.3,21.4V108.3z"/>
	</g>
</g>
<circle class="st19" cx="2592.8" cy="-46" r="8.3"/>
<line class="st19" x1="2592.8" y1="-54.4" x2="2592.8" y2="-71"/>
<line class="st19" x1="2584.5" y1="-46" x2="2513.5" y2="-46"/>
<line class="st19" x1="2577.7" y1="-103" x2="2601.2" y2="-98.3"/>
<polyline class="st19" points="2641.3,-90.4 2650.3,-88.6 2646.8,-71.4 2627.6,-75.2 "/>
<polygon class="st19" points="2562.7,-77 2619.2,-65.8 2649.3,-99.3 2570.4,-115 "/>
<circle class="st19" cx="2778" cy="-46" r="8.3"/>
<path class="st19" d="M2778-54.4V-71V-54.4z"/>
<path class="st19" d="M2786.3-46h71H2786.3z"/>
<line class="st19" x1="2793.1" y1="-103" x2="2769.6" y2="-98.3"/>
<polygon class="st19" points="2729.5,-90.4 2720.5,-88.6 2724,-71.4 2743.2,-75.2 "/>
<polygon class="st19" points="2808.1,-77 2751.6,-65.8 2721.5,-99.3 2800.4,-115 "/>
<path class="st19" d="M2757,169.6c63.4-27.6,107.7-90.9,107.7-164.5c0-99-80.3-179.3-179.3-179.3c-99,0-179.3,80.3-179.3,179.3
	c0,73.6,44.3,136.8,107.7,164.5"/>
<path class="st19" d="M2685.4,220.8c0,0,94.1-32.4,94.1-116.3V-6.1h-8.2c-49.5,0-85.9-23.3-85.9-23.3S2649-6.1,2599.5-6.1h-8.2
	v110.7C2591.3,188.4,2685.4,220.8,2685.4,220.8z"/>
<path class="st19" d="M2685.4,207c-17.2-7.2-81.3-38.5-81.3-102.4V6.6c38.1-1,68.2-14.5,81.3-21.4c13,6.9,43.1,20.3,81.3,21.4v97.9
	C2766.7,168.5,2702.6,199.7,2685.4,207z"/>
<path class="st19" d="M2722,145.2h-73.2c-5.1,0-9.3-4.2-9.3-9.3V84.1c0-5.1,4.2-9.3,9.3-9.3h73.2c5.1,0,9.3,4.2,9.3,9.3v51.7
	C2731.3,141,2727.1,145.2,2722,145.2z"/>
<path class="st19" d="M2697.2,129l-4.5-18.8c3.4-2.6,5.4-7,4.5-11.8c-0.9-4.7-4.6-8.5-9.2-9.5c-7.8-1.6-14.6,4.3-14.6,11.8
	c0,3.9,1.9,7.3,4.7,9.5l-4.5,18.8c-0.3,1.2,0.6,2.3,1.8,2.3h20.1C2696.6,131.3,2697.5,130.2,2697.2,129z"/>
<path class="st19" d="M2716.4,74.9c0,0,0-23.8,0-23.8c0-17.1-13.9-31-31-31c-17.1,0-31,13.9-31,31v23.8H2716.4z"/>
<path class="st19" d="M3179,169.6c63.4-27.6,107.7-90.9,107.7-164.5c0-99-80.3-179.3-179.3-179.3c-99,0-179.3,80.3-179.3,179.3
	c0,73.6,44.3,136.8,107.7,164.5"/>
<g>
	<path class="st19" d="M3155.7-5.5c15,5.4,32.4,2.1,44.4-9.9s15.3-29.4,9.9-44.4l-21.3,21.3c-2.7,2.7-7,2.7-9.7,0l-15.9-15.9
		c-2.7-2.7-2.7-7,0-9.7l21.3-21.3c-15-5.4-32.4-2.1-44.4,9.9s-15.3,29.4-9.9,44.4l-65,65c-15-5.4-32.4-2.1-44.4,9.9
		s-15.3,29.4-9.9,44.4l21.3-21.3c2.7-2.7,7-2.7,9.7,0l15.9,15.9c2.7,2.7,2.7,7,0,9.7l-21.3,21.3c15,5.4,32.4,2.1,44.4-9.9
		s15.3-29.4,9.9-44.4l19.2-19.2"/>
	<path class="st19" d="M3109.9,40.3L3059-14.3c-8.9-8.9-23.4-8.9-32.4,0c-8.2,8.2-8.9,21.2-1.9,30.2l-17.9,11.2
		c0,0-28.2-42.3,4-74.5c11.2-11.2,22.2-22.2,31.5-31.5c3,0.5,6.3,1.1,9.1,1.5c2.8,0.5,5.2-1.9,4.7-4.7l-1.5-9.1l14.6-14.6l40.7,40.7
		l-14.4,14.4c-4.2-4.2-11.1-4.2-15.4,0s-4.2,11.1,0,15.4l112.7,105.1c0.8,0.7,1.5,1.4,2.2,2.2c6.1,7.1,6.5,17.9,0.8,25.4
		c-7.6,10.1-22.1,10.9-30.7,2.2c-0.3-0.3-0.7-0.7-1-1.1l-36.5-39.2"/>
</g>
<g>
	<path class="st19" d="M3575.9,72.3l-19.2,19.2c5.4,15,2.1,32.4-9.9,44.4s-29.4,15.3-44.4,9.9l21.3-21.3c2.7-2.7,2.7-7,0-9.7
		L3507.8,99c-2.7-2.7-7-2.7-9.7,0l-21.3,21.3c-5.4-15-2.1-32.4,9.9-44.4s29.4-15.3,44.4-9.9l65-65c-5.4-15-2.1-32.4,9.9-44.4
		s29.4-15.3,44.4-9.9l-21.3,21.3c-2.7,2.7-2.7,7,0,9.7l15.9,15.9c2.7,2.7,7,2.7,9.7,0l21.3-21.3c5.4,15,2.1,32.4-9.9,44.4
		s-29.4,15.3-44.4,9.9"/>
	<path class="st19" d="M3575.9,72.3L3525,17.7c-8.9-8.9-23.4-8.9-32.4,0c-8.2,8.2-8.9,21.2-1.9,30.2l-17.9,11.2
		c0,0-28.2-42.3,4-74.5c11.2-11.2,22.2-22.2,31.5-31.5c3,0.5,6.3,1.1,9.1,1.5c2.8,0.5,5.2-1.9,4.7-4.7l-1.5-9.1l14.6-14.6l40.7,40.7
		l-14.4,14.4c-4.2-4.2-11.1-4.2-15.4,0s-4.2,11.1,0,15.4l112.7,105.1c0.8,0.7,1.5,1.4,2.2,2.2c6.1,7.1,6.5,17.9,0.8,25.4
		c-7.6,10.1-22.1,10.9-30.7,2.2c-0.3-0.3-0.7-0.7-1-1.1l-36.5-39.2l-0.7,81.4c-64.4,25.3-133,9.1-185.1-42.9
		c-70-70-70-183.6,0-253.6c70-70,183.6-70,253.6,0c52,52,65.4,128.1,40.1,192.5"/>
</g>
<g>
	<path class="st20" d="M-11.2,34.1v-1.3c0-0.5-0.4-0.9-0.9-0.9h-11.8l-3.5-3.5h-8.3c-1,0-1.8,0.8-1.8,1.8V52l5.5-15
		c0.1-0.4,0.5-0.6,0.9-0.6h21.7c0.6,0,1.1,0.6,0.9,1.2l-5,13.8c-0.1,0.4-0.5,0.6-0.9,0.6h-19.9"/>
</g>
<g>
	<path class="st21" d="M-83.4,47.6c-5.1-3-8.6-8.6-8.6-15c0-9.6,7.8-17.5,17.5-17.5c7,0,13,4.1,15.8,9.9"/>
	<path class="st21" d="M-58.8,25c1.1-0.3,2.3-0.5,3.5-0.5c7,0,12.7,5.7,12.7,12.7S-48.3,50-55.3,50c-1.7,0-3.4-0.3-4.9-1"/>
	<polyline class="st21" points="-60.2,49 -56.3,42.7 -66.9,42.7 -65.2,30.1 -76.8,50 -67.9,50 -69.9,65.1 -62.9,53.5 	"/>
</g>
<g>
	<path class="st22" d="M13.4,40.2c-6.9,0-12.5-5.6-12.5-12.5c0-5,2.9-9.3,7.1-11.3"/>
	<path class="st22" d="M7.9,16.4c-0.1-0.4-0.1-0.8-0.1-1.2C7.8,10.7,11.5,7,16,7c1.7,0,3.2,0.5,4.5,1.4"/>
	<path class="st22" d="M20.5,8.4c3-4.6,8.2-7.6,14.1-7.6c9.2,0,16.7,7.4,16.9,16.5"/>
	<path class="st22" d="M51.5,17.4c5.1,1.2,8.9,5.8,8.9,11.3c0,6.4-5.2,11.6-11.6,11.6"/>
	<path class="st22" d="M20,40.3c0-5.9,4.7-10.6,10.6-10.6s10.6,4.7,10.6,10.6s-4.7,10.6-10.6,10.6"/>
	<line class="st22" x1="13.4" y1="40.2" x2="20" y2="40.2"/>
	<path class="st22" d="M22.6,40.2c1.4,0,2.6,1.2,2.6,2.6s-1.2,2.6-2.6,2.6S20,44.3,20,42.8"/>
	<line class="st22" x1="20" y1="40.3" x2="20" y2="42.8"/>
	<line class="st22" x1="22.6" y1="40.2" x2="20" y2="40.2"/>
	<line class="st22" x1="28.6" y1="50.8" x2="31.1" y2="53.7"/>
	<line class="st22" x1="28.6" y1="50.8" x2="31.1" y2="47.9"/>
</g>
<g>
	<path class="st23" d="M-33.6,83.4c-0.2-1.5,0.4-2.3,0.4-2.3c0.7-0.7,2.4-2.4,2.4-2.4l3.9,3.9l-2.2,2.4c0,0,0.8,1.6,2.7,3.5
		s3.5,2.7,3.5,2.7l2.4-2.2l3.9,3.9"/>
	<path class="st23" d="M-32.4,76.1c2.2-4.8,7.1-8.2,12.7-8.2c7.7,0,14,6.3,14,14s-6.3,14-14,14c-0.4,0-0.7,0-1.1,0"/>
	<g>
		<line class="st23" x1="-13.1" y1="74.1" x2="-17.6" y2="86.3"/>
		<polyline class="st23" points="-12.9,80.9 -9.3,80.9 -11.8,86.3 		"/>
		<g>
			<polyline class="st23" points="-18.4,79.5 -18.4,74.1 -21.1,78 -17.4,78 			"/>
			<path class="st23" d="M-22.4,79.5h-3.3l2.6-2.9c0.3-0.3,0.4-0.6,0.4-1c0-0.8-0.7-1.5-1.5-1.5c-0.8,0-1.5,0.7-1.5,1.5"/>
		</g>
	</g>
	<line class="st23" x1="-32.4" y1="76.1" x2="-33.3" y2="73.9"/>
	<line class="st23" x1="-32.4" y1="76.1" x2="-30.2" y2="75.6"/>
	<path class="st23" d="M-20.8,95.8c-6.7-0.5-12.1-5.8-12.8-12.4"/>
</g>
<circle class="st4" cx="115.6" cy="-23.8" r="23"/>
<path class="st8" d="M114.2-11.5h-0.5 M116.6-11.5H116 M127.5-8.9h-23.7c-1,0-1.7-0.8-1.7-1.7v-1.6c0-1,0.8-1.7,1.7-1.7h23.7
	c1,0,1.7,0.8,1.7,1.7v1.6C129.3-9.7,128.5-8.9,127.5-8.9z M114.2-16.6h-0.5 M116.6-16.6H116 M114.2-21.6h-0.5 M116.6-21.6H116
	 M114.2-26.7h-0.5 M116.6-26.7H116 M114.2-31.8h-0.5 M116.6-31.8H116 M127.5-14h-23.7c-1,0-1.7-0.8-1.7-1.7v-1.6
	c0-1,0.8-1.7,1.7-1.7h23.7c1,0,1.7,0.8,1.7,1.7v1.6C129.3-14.8,128.5-14,127.5-14z M128.6-34l-5.3-4.2c-0.3-0.3-0.7-0.4-1.1-0.4
	h-12.9c-0.4,0-0.8,0.1-1.1,0.4l-5.3,4.2 M127.5-29.3h-23.7c-1,0-1.7-0.8-1.7-1.7v-1.6c0-1,0.8-1.7,1.7-1.7h23.7c1,0,1.7,0.8,1.7,1.7
	v1.6C129.3-30,128.5-29.3,127.5-29.3z M127.5-29.3h-23.7c-1,0-1.7,0.8-1.7,1.7v1.6c0,1,0.8,1.7,1.7,1.7h23.7c1,0,1.7-0.8,1.7-1.7
	v-1.6C129.3-28.5,128.5-29.3,127.5-29.3z M127.5-19.1h-23.7c-1,0-1.7-0.8-1.7-1.7v-1.6c0-1,0.8-1.7,1.7-1.7h23.7
	c1,0,1.7,0.8,1.7,1.7v1.6C129.3-19.9,128.5-19.1,127.5-19.1z"/>
<circle class="st4" cx="41.4" cy="-32.9" r="23"/>
<path class="st24" d="M52.1-44.6c0-0.4,0.3-0.8,0.8-0.8c0.4,0,0.8,0.3,0.8,0.8c0,0.4-0.3,0.8-0.8,0.8C52.4-43.8,52.1-44.2,52.1-44.6
	z M48.6-47.3c2.2-0.4,3.7-0.1,4.3,0.8c0.2,0.3,0.2,0.7,0.2,1.2 M52.5-43.9c-1.2,2.2-4.4,5-8.4,7.3c-6,3.5-11.9,4.7-13,2.6
	c-0.5-0.9,0-2.4,1.4-4.1 M51.4-40.6c0,5.3-4.3,9.6-9.6,9.6c-5.3,0-9.6-4.3-9.6-9.6c0-5.3,4.3-9.6,9.6-9.6
	C47.1-50.2,51.4-45.9,51.4-40.6z M34.6-15.7l-5.4-5.4c-0.2-0.2-0.2-0.4,0-0.6l1.7-1.7c0.2-0.2,0.4-0.2,0.6,0l5.4,5.4
	c0.2,0.2,0.2,0.4,0,0.6l-1.7,1.7C35-15.6,34.7-15.6,34.6-15.7z M36.6-18.6l8.7-2.1c0.7-0.2,1.4-0.5,1.9-1.1l5.9-5.9
	c0.2-0.2,0.2-0.5,0-0.7c-0.7-0.7-1.9-0.7-2.6,0l-4,4 M32-22.9l2.6-2.6c0.7-0.7,1.8-1.2,2.8-1.2h6.3c0.3,0,0.5,0.2,0.5,0.5
	c0,1-0.8,1.8-1.8,1.8 M39-24.3h7.6 M47.2-28.3l-0.4-0.4c-0.7-0.7-1.9-0.7-2.6,0l-2,2 M50.3-28.1L50-28.5c-0.7-0.7-1.9-0.7-2.6,0
	l-4.2,4.2"/>
<g>
	<g>
		<path class="st6" d="M127.1,73.8c-13.1,0-23.8-10.7-23.8-23.8c0-13.1,10.7-23.8,23.8-23.8s23.8,10.7,23.8,23.8
			C150.9,63.1,140.2,73.8,127.1,73.8z M127.1,27.9c-12.2,0-22.1,9.9-22.1,22.1c0,12.2,9.9,22.1,22.1,22.1s22.1-9.9,22.1-22.1
			C149.2,37.8,139.3,27.9,127.1,27.9z"/>
	</g>
	<path class="st25" d="M128.3,56.7c-0.4,0-0.8,0-1.2,0c-3.4,0-6.5-0.3-8.9-0.8c-1.3-0.3-2.3-0.6-3-1l0,5.3c0,0.2,0.6,0.8,3.2,1.4
		c2.3,0.5,5.4,0.8,8.7,0.8c0.6,0,1.1,0,1.7,0c-0.3-0.7-0.5-1.5-0.5-2.4V56.7z"/>
	<path class="st25" d="M133.9,51.7c0.8,0.4,2.7,1.3,5,1.4l0-5.1c-2.5,1.4-8.4,1.9-11.9,1.9c-3.5,0-9.4-0.4-11.9-1.8l0,5.3
		c0,0.2,0.6,0.8,3.2,1.4c2.3,0.5,5.4,0.8,8.7,0.8c0.4,0,0.8,0,1.2,0v-2.4C130.9,53.1,133,52.2,133.9,51.7z"/>
	<path class="st25" d="M118.3,42.2c2.3,0.5,5.4,0.8,8.7,0.8c3.3,0,6.4-0.3,8.7-0.8c2.6-0.6,3.2-1.2,3.2-1.4v0c0,0,0,0,0,0
		c0-0.2-0.6-0.8-3.2-1.4c-2.3-0.5-5.4-0.8-8.7-0.8c-7.7,0-11.9,1.5-11.9,2.3v0C115.1,41,115.7,41.6,118.3,42.2z"/>
	<path class="st25" d="M135.9,43.2c-2.4,0.5-5.6,0.9-8.9,0.9c-3.3,0-6.5-0.3-8.9-0.8c-1.3-0.3-2.3-0.6-3-1l0,4.4
		c0,0.8,4.2,2.2,11.9,2.2c7.7,0,11.9-1.5,11.9-2.3l0-4.4C138.2,42.6,137.2,42.9,135.9,43.2z"/>
	<path class="st26" d="M140.1,60.2l0-5.9c0-0.1-0.1-0.3-0.1-0.4c0.1-0.2,0.1-0.4,0.1-0.6l0-5.9c0-0.1-0.1-0.3-0.1-0.4
		c0.1-0.2,0.1-0.4,0.1-0.6l0-5.9c0,0,0,0,0,0c0-1.1-1.3-1.9-4.1-2.5c-2.4-0.5-5.5-0.8-8.9-0.8l0,0.6l0-0.6c-4.5,0-13,0.8-13,3.4
		c0,0,0,0,0,0l0,5.9c0,0.2,0.1,0.4,0.1,0.6c-0.1,0.1-0.1,0.2-0.1,0.4l0,5.9c0,0.2,0,0.4,0.1,0.6c-0.1,0.1-0.1,0.2-0.1,0.4l0,5.9
		c0,1.1,1.3,1.9,4.1,2.5c2.3,0.5,5.4,0.8,8.7,0.8c0.1,0,0.2,0,0.3,0c0.7,0,1.5,0,2.3-0.1c-0.2-0.3-0.4-0.7-0.6-1.1
		c-0.5,0-1.1,0-1.7,0c-3.3,0-6.4-0.3-8.7-0.8c-2.6-0.6-3.2-1.2-3.2-1.4l0-5.3c0.7,0.4,1.7,0.7,3,1c2.4,0.5,5.5,0.8,8.9,0.8
		c0.4,0,0.8,0,1.2,0v-1.1c-0.4,0-0.8,0-1.2,0c-3.3,0-6.4-0.3-8.7-0.8c-2.6-0.6-3.2-1.2-3.2-1.4l0-5.3c2.5,1.4,8.4,1.8,11.9,1.8
		c3.5,0,9.4-0.5,11.9-1.9l0,5.1c0.2,0,0.4,0,0.6,0V60c0,0.5-0.1,1-0.2,1.4C139.8,61,140.1,60.6,140.1,60.2z M115.1,40.8
		c0-0.8,4.2-2.2,11.9-2.3c3.3,0,6.4,0.3,8.7,0.8c2.6,0.6,3.2,1.2,3.2,1.4c0,0,0,0,0,0v0c0,0.2-0.6,0.8-3.2,1.4
		c-2.3,0.5-5.4,0.8-8.7,0.8c-3.3,0-6.4-0.3-8.7-0.8C115.7,41.6,115.1,41,115.1,40.8L115.1,40.8z M127,48.8c-7.7,0-11.9-1.4-11.9-2.2
		l0-4.4c0.7,0.4,1.7,0.7,3,1c2.4,0.5,5.6,0.8,8.9,0.8c3.4,0,6.5-0.3,8.9-0.9c1.3-0.3,2.3-0.6,3-1l0,4.4
		C138.9,47.3,134.7,48.8,127,48.8z"/>
	<path class="st8" d="M133.9,67.1c-1.2-0.5-5.6-2.7-5.6-7.1v-6.8c2.6-0.1,4.7-1,5.6-1.5c0.9,0.5,3,1.4,5.6,1.5V60
		C139.6,64.4,135.1,66.6,133.9,67.1z"/>
	<path class="st8" d="M136.3,62h-4.8v-3.5h4.8V62z M132.4,58.5v-1.4c0-0.8,0.7-1.5,1.5-1.5c0.8,0,1.5,0.7,1.5,1.5v1.4"/>
</g>
<g>
	<path class="st1" d="M20.9,99.9c-13.1,0-23.8,10.7-23.8,23.8s10.7,23.8,23.8,23.8c13.1,0,23.8-10.7,23.8-23.8S34,99.9,20.9,99.9z
		 M20.9,145.9c-12.2,0-22.1-9.9-22.1-22.1s9.9-22.1,22.1-22.1c12.2,0,22.1,9.9,22.1,22.1S33.1,145.9,20.9,145.9z"/>
	<path class="st1" d="M11.4,127.7c-0.3-0.1-0.6,0.1-0.7,0.4l-0.9,4.1c-1.7-2-2.8-4.3-3.2-6.9C6.1,121.7,7,118,9.1,115
		c2.2-3,5.4-4.9,9.1-5.5c1.8-0.3,3.7-0.2,5.5,0.2c0.3,0.1,0.6-0.1,0.7-0.4c0.1-0.3-0.1-0.6-0.4-0.7c-2-0.5-4-0.6-5.9-0.3
		c-4,0.6-7.4,2.7-9.8,6s-3.3,7.2-2.7,11.1c0.4,2.7,1.6,5.2,3.3,7.3L5,132c-0.3-0.1-0.6,0.1-0.7,0.4c-0.1,0.3,0.1,0.6,0.4,0.7
		l5.1,1.1c0,0,0.1,0,0.1,0c0.2,0,0.4-0.1,0.5-0.3c0.1-0.1,0.2-0.2,0.2-0.3l1.1-5.1C11.9,128.1,11.7,127.8,11.4,127.7z"/>
	<path class="st1" d="M36.6,113.9l-5.1-0.9c-0.3,0-0.5,0.1-0.6,0.3c-0.1,0.1-0.2,0.2-0.2,0.3l-1,5.1c-0.1,0.3,0.1,0.6,0.5,0.7
		c0.3,0.1,0.6-0.1,0.7-0.5l0.8-4.1c1.8,1.9,2.9,4.2,3.4,6.8c0.7,3.6-0.1,7.3-2.1,10.4c-2.1,3.1-5.2,5.1-8.9,5.8
		c-1.6,0.3-3.2,0.3-4.7,0.1l9.2-15.5c0.1-0.2,0.1-0.4,0-0.6c-0.1-0.2-0.3-0.3-0.5-0.3h-6.9l1.1-8.3c0-0.3-0.1-0.5-0.4-0.6
		c-0.3-0.1-0.5,0-0.7,0.2l-8.3,14.2c-0.1,0.2-0.1,0.4,0,0.6c0.1,0.2,0.3,0.3,0.5,0.3h5.8l-0.8,6.4c0,0.3,0.2,0.6,0.5,0.6
		c0.3,0,0.6-0.2,0.6-0.5l0.9-7c0-0.2,0-0.3-0.1-0.4c-0.1-0.1-0.3-0.2-0.4-0.2h-5.4l6.4-10.9l-0.8,6.2c0,0.2,0,0.3,0.1,0.4
		c0.1,0.1,0.3,0.2,0.4,0.2H27L18,138c0,0.1,0,0.1-0.1,0.2c0,0,0,0.1-0.1,0.1c-0.1,0.3,0.1,0.6,0.4,0.7c1,0.2,2.1,0.3,3.1,0.3
		c0.9,0,1.9-0.1,2.8-0.3c8.1-1.5,13.5-9.4,11.9-17.5c-0.5-2.7-1.7-5.2-3.5-7.2l3.8,0.7c0.3,0.1,0.6-0.1,0.7-0.5
		C37.1,114.2,36.9,114,36.6,113.9z"/>
</g>
<g>
	<path class="st1" d="M84.4,146.4c-13.1,0-23.8-10.7-23.8-23.8c0-13.1,10.7-23.8,23.8-23.8s23.8,10.7,23.8,23.8
		C108.3,135.8,97.6,146.4,84.4,146.4z M84.4,100.5c-12.2,0-22.1,9.9-22.1,22.1c0,12.2,9.9,22.1,22.1,22.1s22.1-9.9,22.1-22.1
		C106.6,110.4,96.6,100.5,84.4,100.5z"/>
</g>
<g>
	<path class="st1" d="M83.2,134.9c-1.1,0-2-0.9-2-1.9c0,0,0,0,0,0v-0.7h-6.2c-4.1,0-7.5-3.2-7.5-7.1c0-2.6,1.5-5,3.9-6.2
		c0-0.1,0-0.2,0-0.3c0-2.7,2.3-4.8,5.1-4.8c0.8,0,1.6,0.2,2.3,0.5c1.9-2.4,4.8-3.8,7.9-3.8c5.2,0,9.5,3.9,9.9,8.8
		c2.9,0.8,4.9,3.4,4.9,6.4c0,3.7-3.1,6.6-7,6.6l-6.5,0c-0.3,0-0.6-0.3-0.6-0.6V125c0-0.3,0.3-0.6,0.6-0.6h2.7l-5.9-5.4l-5.8,5.4h2.8
		c0.3,0,0.6,0.3,0.6,0.6v6.1h0.9c0,0,0.1,0,0.1,0c1,0.1,1.8,0.9,1.8,1.9C85.1,134,84.3,134.9,83.2,134.9z M82.3,133
		c0,0.4,0.4,0.8,0.9,0.8c0.5,0,0.9-0.4,0.9-0.8c0-0.4-0.4-0.8-0.9-0.8h-0.9L82.3,133C82.3,133,82.3,133,82.3,133z M88.5,131l6,0
		c3.2,0,5.8-2.5,5.8-5.5c0-2.5-1.8-4.7-4.4-5.3c-0.3,0-0.5-0.3-0.5-0.5c0,0,0,0,0,0c-0.1-4.5-4-8.1-8.8-8.1c-2.9,0-5.7,1.4-7.3,3.7
		c0,0.1-0.1,0.1-0.1,0.1c0,0,0,0,0,0s0,0,0,0h0c0,0,0,0,0,0c-0.1,0-0.1,0.1-0.2,0.1l0,0c0,0,0,0,0,0c-0.1,0-0.2,0-0.3,0c0,0,0,0,0,0
		l0,0c-0.1,0-0.1,0-0.2-0.1c-0.7-0.4-1.4-0.6-2.2-0.6c-2.2,0-3.9,1.7-3.9,3.7c0,0.2,0,0.4,0,0.6c0,0,0,0.1,0,0.1
		c0,0.1,0,0.2-0.1,0.2c0,0.1-0.1,0.1-0.2,0.2c0,0-0.1,0-0.1,0.1c-2.2,1-3.6,3.1-3.6,5.4c0,3.3,2.8,6,6.4,6h6.2v-5.5h-3.7
		c-0.2,0-0.4-0.1-0.5-0.4c-0.1-0.2,0-0.5,0.1-0.6l7.3-6.7c0.2-0.2,0.6-0.2,0.8,0l7.3,6.8c0.2,0.2,0.2,0.4,0.1,0.6
		c-0.1,0.2-0.3,0.4-0.5,0.4h-3.6V131z"/>
</g>
</svg>
