<?xml version="1.0" encoding="utf-8"?>
<!-- Generator: Adobe Illustrator 21.1.0, SVG Export Plug-In . SVG Version: 6.00 Build 0)  -->
<svg version="1.1" id="Layer_1" xmlns="http://www.w3.org/2000/svg" xmlns:xlink="http://www.w3.org/1999/xlink" x="0px" y="0px"
	 viewBox="0 0 47.6 47.6" style="enable-background:new 0 0 47.6 47.6;" xml:space="preserve">
<style type="text/css">
	.st0{fill:none;stroke:#662F8F;stroke-width:4;stroke-linecap:round;stroke-linejoin:round;stroke-miterlimit:10;}
	.st1{fill:#662F8F;}
	.st2{fill:none;stroke:#662F8F;stroke-width:2;stroke-linecap:round;stroke-linejoin:round;stroke-miterlimit:10;}
	.st3{fill:none;stroke:#FFFFFF;stroke-width:0.488;stroke-linecap:round;stroke-linejoin:round;stroke-miterlimit:10;}
	.st4{fill:none;stroke:#E73E51;stroke-width:1.6927;}
	.st5{fill:none;stroke:#E73E51;stroke-width:1.1285;stroke-linecap:round;stroke-linejoin:round;stroke-miterlimit:10;}
	.st6{fill:#E73E51;}
	
		.st7{clip-path:url(#SVGID_2_);fill:none;stroke:#E73E51;stroke-width:1.1285;stroke-linecap:round;stroke-linejoin:round;stroke-miterlimit:10;}
	.st8{fill:none;stroke:#EE4050;stroke-width:1.1285;stroke-linecap:round;stroke-linejoin:round;stroke-miterlimit:10;}
	.st9{fill:none;stroke:#FFFFFF;stroke-width:0.574;stroke-linecap:round;stroke-linejoin:round;stroke-miterlimit:10;}
	.st10{fill:none;stroke:#A491C4;stroke-width:0.5657;stroke-miterlimit:10;}
	.st11{fill:none;stroke:#F7F8F9;stroke-width:1.2708;stroke-miterlimit:10;}
	.st12{fill:url(#SVGID_3_);}
	.st13{fill:#9289C1;}
	.st14{fill:#F79F7C;}
	.st15{fill:#EF619B;}
	.st16{fill:#F28BB9;}
	.st17{fill:#FABEA9;}
	.st18{fill:#F37B8A;}
	.st19{fill:none;stroke:#633493;stroke-width:5.1599;stroke-linecap:round;stroke-linejoin:round;stroke-miterlimit:10;}
	.st20{fill:none;stroke:#FFFFFF;stroke-width:1.0098;stroke-linecap:round;stroke-linejoin:round;stroke-miterlimit:10;}
	.st21{fill:none;stroke:#662F8F;stroke-width:1.5111;stroke-linecap:round;stroke-linejoin:round;stroke-miterlimit:10;}
	.st22{fill:none;stroke:#FFFFFF;stroke-width:1.6611;stroke-linecap:round;stroke-linejoin:round;stroke-miterlimit:10;}
	.st23{fill:none;stroke:#662F8F;stroke-width:0.75;stroke-miterlimit:10;}
	.st24{fill:none;stroke:#E73E51;stroke-width:0.9998;stroke-linecap:round;stroke-linejoin:round;stroke-miterlimit:10;}
	.st25{fill:none;}
	.st26{fill:#EE4050;}
</style>
<g>
	<path class="st0" d="M-520.9-419.5c9.6-9.6,22.8-15.5,37.3-15.5"/>
	<path class="st0" d="M-506.5-405.1c5.9-5.9,14-9.5,23-9.5"/>
	<path class="st0" d="M-549.7-448.3c17.7-17.7,41.2-27.4,66.1-27.4c25,0,48.4,9.7,66.1,27.4"/>
	<path class="st0" d="M-431.9-433.9c-13.3-13.3-31.6-21.5-51.7-21.5c-20.2,0-38.5,8.2-51.7,21.5"/>
	<path class="st0" d="M-446.2-419.5c-9.6-9.6-22.8-15.5-37.3-15.5"/>
	<path class="st0" d="M-460.6-405.1c-5.9-5.9-14-9.5-23-9.5"/>
	<path class="st0" d="M-475-373.6c-2.2,2.2-5.2,3.5-8.6,3.5c-6.7,0-12.1-5.4-12.1-12.1s5.4-12.1,12.1-12.1c3.3,0,6.4,1.4,8.6,3.5"/>
	<path class="st0" d="M-431.9-433.9c4,4,4,10.4,0,14.4c-4,4-10.4,4-14.4,0"/>
	<path class="st0" d="M-506.5-405.1c-4,4-10.4,4-14.4,0c-4-4-4-10.4,0-14.4"/>
	<path class="st0" d="M-460.6-405.1c4,4,4,10.4,0,14.4c-4,4-10.4,4-14.4,0"/>
	<path class="st0" d="M-535.3-433.9c-4,4-10.4,4-14.4,0c-4-4-4-10.4,0-14.4"/>
</g>
<g>
	<path class="st1" d="M-337.8-485.4c-28.7,0-52,23.3-52,52s23.3,52,52,52s52-23.3,52-52S-309.2-485.4-337.8-485.4z M-337.8-385.1
		c-26.6,0-48.3-21.7-48.3-48.3s21.7-48.3,48.3-48.3s48.3,21.7,48.3,48.3S-311.2-385.1-337.8-385.1z"/>
	<path class="st1" d="M-301.3-439.2c-4.8-4.7-10.4-8.3-16.4-10.7c0-0.3,0.1-0.7,0.1-1c0-11.1-9-20.2-20.2-20.2s-20.2,9-20.2,20.2
		c0,0.6,0,1.1,0.1,1.7c-5.5,2.4-10.5,5.8-14.9,10.1c0,0-0.1,0.1-0.1,0.1c-1.2,1.2-1.8,2.8-1.8,4.5c0,1.7,0.7,3.4,1.9,4.6
		c2.6,2.5,6.7,2.5,9.3,0c0,0,0,0,0,0c3.2-3.1,6.8-5.6,10.8-7.4c2.3,2.5,5.2,4.5,8.5,5.5c-5,1.2-9.6,3.7-13.4,7.4
		c0,0-0.1,0.1-0.1,0.1c-1.3,1.2-1.9,2.9-1.9,4.6c0,1.7,0.7,3.4,1.9,4.6c2.6,2.5,6.7,2.5,9.3,0c0,0,0,0,0,0h0c3-2.9,7-4.5,11.3-4.5
		c4.3,0,8.3,1.6,11.3,4.5c0,0,0,0,0,0c0.8,0.8,1.2,1.8,1.2,2.8c0,1.1-0.4,2.1-1.2,2.8c-1.6,1.6-4.3,1.6-5.9,0c0,0-0.1-0.1-0.1-0.1
		c-1.4-1.3-3.3-2.1-5.3-2.1c-4.2,0-7.6,3.3-7.6,7.5c0,4.1,3.4,7.5,7.6,7.5c2,0,3.9-0.8,5.4-2.2c0.5-0.5,0.5-1.3,0-1.7
		c-0.5-0.5-1.3-0.5-1.7,0c-1,1-2.3,1.5-3.7,1.5c-2.8,0-5.2-2.2-5.2-5c0-2.8,2.3-5,5.2-5c1.4,0,2.7,0.5,3.7,1.5c0,0,0.1,0.1,0.1,0.1
		c2.6,2.4,6.7,2.4,9.2-0.1c1.3-1.2,1.9-2.9,1.9-4.6s-0.7-3.4-1.9-4.6c0,0,0,0,0,0c-3.5-3.4-8.1-5.2-13-5.2c-4.9,0-9.5,1.9-13,5.2
		c0,0,0,0,0,0c-1.6,1.6-4.3,1.6-5.9,0c-0.8-0.8-1.2-1.8-1.2-2.8c0-1,0.4-2,1.1-2.7c0,0,0.1-0.1,0.1-0.1c5-4.9,11.7-7.6,18.8-7.6
		c7.1,0,13.8,2.7,18.8,7.6c0,0,0,0,0,0c2.6,2.5,6.7,2.5,9.3,0c1.3-1.2,1.9-2.9,1.9-4.6c0-1.7-0.7-3.4-1.9-4.6c0,0,0,0,0,0
		c-3.6-3.5-7.7-6.2-12.1-8.1c1.5-2.2,2.5-4.8,3-7.5c5.5,2.3,10.6,5.7,15,9.9c0.5,0.5,1.3,0.5,1.7,0
		C-300.8-438-300.8-438.8-301.3-439.2z M-365.2-431.8C-365.2-431.8-365.2-431.8-365.2-431.8c-1.6,1.6-4.3,1.6-5.9,0
		c-0.8-0.8-1.2-1.8-1.2-2.8c0-1.1,0.4-2.1,1.2-2.8c0,0,0.1-0.1,0.1-0.1c4-3.9,8.5-6.9,13.5-9.2c0.6,2.7,1.7,5.2,3.3,7.4
		C-358.3-437.5-362-435-365.2-431.8z M-310.6-430C-310.6-430-310.6-430-310.6-430c0.8,0.8,1.2,1.8,1.2,2.8c0,1.1-0.4,2.1-1.2,2.8
		c-1.6,1.6-4.3,1.6-5.9,0c0,0,0,0,0,0c-4-3.9-9-6.5-14.4-7.7c3.3-1.2,6.1-3.2,8.4-5.8C-318.1-436.1-314.1-433.4-310.6-430z
		 M-337.8-433.3c-9.8,0-17.7-7.9-17.7-17.7c0-9.8,7.9-17.7,17.7-17.7s17.7,7.9,17.7,17.7C-320.1-441.2-328.1-433.3-337.8-433.3z"/>
	<path class="st1" d="M-345.5-452.3h-1.9l0.1-3.7h5.6v-1.5h-7.1l-0.2,6.6h2.9c2.5,0,3.4,1.1,3.4,2.5c0,1.4-1,2.5-2.8,2.5
		c-1.3,0-2.5-0.6-3.4-1.6l-1,1c1.1,1.3,2.6,2,4.4,2c2.4,0,4.5-1.5,4.5-4.2C-341-450.5-342.4-452.3-345.5-452.3z"/>
	<path class="st1" d="M-331.5-451.5v1.5h3.9c-0.3,2.5-1.9,4.1-4.5,4.1c-2.8,0-4.9-2.1-4.9-5.1c0-3,2.2-5.1,5-5.1
		c1.6,0,2.9,0.7,3.8,1.7l1.2-1.2c-1.2-1.3-3-2.1-5-2.1c-3.9,0-6.7,2.8-6.7,6.7c0,4.2,3.2,6.7,6.6,6.7c3.9,0,6.3-3,6.3-6.7
		c0-0.1,0-0.3,0-0.4H-331.5z"/>
</g>
<g>
	<line class="st2" x1="-206" y1="-399.7" x2="-206" y2="-391.1"/>
	<path class="st2" d="M-219.7-391.1c-2.8,0-5.2-2.3-5.2-5.2V-474c0-2.8,2.3-5.2,5.2-5.2h69.9c2.8,0,5.2,2.3,5.2,5.2v77.8
		c0,2.8-2.3,5.2-5.2,5.2H-206"/>
	<path class="st2" d="M-206-399.7h-5c-2.8,0-5.2-2.3-5.2-5.2v-60.4c0-2.8,2.3-5.2,5.2-5.2h10.1c2.8,0,5.2,2.3,5.2,5.2v60.4"/>
	<g>
		<g>
			<circle class="st2" cx="-184" cy="-449.9" r="3.8"/>
			<circle class="st2" cx="-170.1" cy="-449.9" r="3.8"/>
			<circle class="st2" cx="-156.2" cy="-449.9" r="3.8"/>
			<circle class="st2" cx="-184" cy="-436" r="3.8"/>
			<circle class="st2" cx="-170.1" cy="-436" r="3.8"/>
			<circle class="st2" cx="-156.2" cy="-436" r="3.8"/>
			<circle class="st2" cx="-184" cy="-422.1" r="3.8"/>
			<circle class="st2" cx="-170.1" cy="-422.1" r="3.8"/>
			<circle class="st2" cx="-156.2" cy="-422.1" r="3.8"/>
			<circle class="st2" cx="-184" cy="-408.2" r="3.8"/>
			<circle class="st2" cx="-170.1" cy="-408.2" r="3.8"/>
			<circle class="st2" cx="-156.2" cy="-408.2" r="3.8"/>
		</g>
		<line class="st2" x1="-187.8" y1="-465.9" x2="-152.4" y2="-465.9"/>
	</g>
</g>
<g>
	<path class="st3" d="M-288.6-287.3v-1c0-2.7-2.1-4.9-4.8-5c-2.8-0.1-5.1,2.2-5.1,4.9l0,3.8h10.9c0.7,0,1.3,0.6,1.3,1.3v8.6
		c0,0.7-0.6,1.3-1.3,1.3h-2.7c-0.5,0-1-0.4-1.1-0.9l-0.8-3.2v0c0.6-0.5,0.9-1.2,0.8-2.1c-0.1-1-1-1.7-1.9-1.9
		c-1.3-0.1-2.5,0.9-2.5,2.2c0,0.7,0.3,1.3,0.8,1.7h0c0,0-0.5,2-0.8,3.2c-0.1,0.5-0.6,0.9-1.1,0.9h-2.7c-0.7,0-1.3-0.6-1.3-1.3v-8.6"
		/>
</g>
<g>
	<circle class="st4" cx="-170.3" cy="-280" r="23"/>
	<path class="st5" d="M-193.6-280.1l23.2-0.1 M-170.4-280.2v-23.1V-280.2z M-158.7-280.2c0,6.4-5.2,11.6-11.6,11.6
		c-6.4,0-11.7-5.2-11.7-11.6c0-6.4,5.2-11.6,11.7-11.6C-163.9-291.8-158.7-286.6-158.7-280.2z M-153.1-280.2
		c0,9.5-7.7,17.3-17.3,17.3c-9.5,0-17.3-7.7-17.3-17.3c0-9.5,7.7-17.3,17.3-17.3C-160.8-297.4-153.1-289.7-153.1-280.2z"/>
	<path class="st6" d="M-186.1-285.5c1.2,0,2.2-1,2.2-2.2c0-1.2-1-2.2-2.2-2.2c-1.2,0-2.2,1-2.2,2.2
		C-188.3-286.4-187.3-285.5-186.1-285.5"/>
</g>
<g>
	<circle class="st4" cx="-228.8" cy="-279.6" r="23"/>
	<path class="st5" d="M-218-286.9l7.1,7.2 M-218-286.9l-7.1,10.3 M-232.1-272.5l7.1-4.2 M-232.1-272.5l-7.1-9.5 M-246.2-277l7.1-4.9
		"/>
	<path class="st6" d="M-241.3-282c0-1.2,1-2.1,2.1-2.1s2.1,1,2.1,2.1c0,1.2-1,2.1-2.1,2.1S-241.3-280.8-241.3-282"/>
	<path class="st6" d="M-234.2-272.5c0-1.2,1-2.1,2.1-2.1s2.1,1,2.1,2.1c0,1.2-1,2.1-2.1,2.1S-234.2-271.3-234.2-272.5"/>
	<path class="st6" d="M-227.2-276.6c0-1.2,1-2.1,2.1-2.1c1.2,0,2.1,1,2.1,2.1c0,1.2-1,2.1-2.1,2.1
		C-226.2-274.5-227.2-275.5-227.2-276.6"/>
	<path class="st6" d="M-220.1-286.9c0-1.2,1-2.1,2.1-2.1c1.2,0,2.1,1,2.1,2.1c0,1.2-1,2.1-2.1,2.1
		C-219.2-284.8-220.1-285.7-220.1-286.9"/>
	<path class="st6" d="M-213.2-279.8c0-1.2,1-2.1,2.1-2.1c1.2,0,2.1,1,2.1,2.1c0,1.2-1,2.1-2.1,2.1
		C-212.3-277.7-213.2-278.7-213.2-279.8"/>
	<path class="st6" d="M-248.1-277.2c0-1.2,1-2.1,2.1-2.1c1.2,0,2.1,1,2.1,2.1c0,1.2-1,2.1-2.1,2.1
		C-247.1-275.1-248.1-276-248.1-277.2"/>
</g>
<g>
	<circle class="st4" cx="-120.6" cy="-320.3" r="23"/>
	<g>
		<defs>
			<path id="SVGID_1_" d="M-144.4-320.5c0,12.4,9.6,22.6,21.8,23.5h3.6c11.7-0.9,21.1-10.4,21.8-22.2v-2.7
				c-0.7-12.4-11-22.2-23.6-22.2C-133.8-344.1-144.4-333.6-144.4-320.5"/>
		</defs>
		<clipPath id="SVGID_2_">
			<use xlink:href="#SVGID_1_"  style="overflow:visible;"/>
		</clipPath>
		<path class="st7" d="M-97.8-289h-12.1c-0.5,0-0.9-0.4-0.9-0.9v-5.2c0-0.5,0.4-0.9,0.9-0.9h12.1c0.5,0,0.9,0.4,0.9,0.9v5.2
			C-96.9-289.4-97.3-289-97.8-289z M-111.8-289h-12.1c-0.5,0-0.9-0.4-0.9-0.9v-5.2c0-0.5,0.4-0.9,0.9-0.9h12.1
			c0.5,0,0.9,0.4,0.9,0.9v5.2C-110.9-289.4-111.3-289-111.8-289z M-125.7-289h-12.1c-0.5,0-0.9-0.4-0.9-0.9v-5.2
			c0-0.5,0.4-0.9,0.9-0.9h12.1c0.5,0,0.9,0.4,0.9,0.9v5.2C-124.8-289.4-125.2-289-125.7-289z M-139.7-289h-12.1
			c-0.5,0-0.9-0.4-0.9-0.9v-5.2c0-0.5,0.4-0.9,0.9-0.9h12.1c0.5,0,0.9,0.4,0.9,0.9v5.2C-138.8-289.4-139.2-289-139.7-289z
			 M-90.5-296h-12.1c-0.5,0-0.9-0.4-0.9-0.9v-5.2c0-0.5,0.4-0.9,0.9-0.9h12.1c0.5,0,0.9,0.4,0.9,0.9v5.2
			C-89.6-296.5-90-296-90.5-296z M-104.5-296h-12.1c-0.5,0-0.9-0.4-0.9-0.9v-5.2c0-0.5,0.4-0.9,0.9-0.9h12.1c0.5,0,0.9,0.4,0.9,0.9
			v5.2C-103.6-296.5-104-296-104.5-296z M-118.4-296h-12.1c-0.5,0-0.9-0.4-0.9-0.9v-5.2c0-0.5,0.4-0.9,0.9-0.9h12.1
			c0.5,0,0.9,0.4,0.9,0.9v5.2C-117.5-296.5-117.9-296-118.4-296z M-132.4-296h-12.1c-0.5,0-0.9-0.4-0.9-0.9v-5.2
			c0-0.5,0.4-0.9,0.9-0.9h12.1c0.5,0,0.9,0.4,0.9,0.9v5.2C-131.5-296.5-131.9-296-132.4-296z M-97.8-303.2h-12.1
			c-0.5,0-0.9-0.4-0.9-0.9v-5.2c0-0.5,0.4-0.9,0.9-0.9h12.1c0.5,0,0.9,0.4,0.9,0.9v5.2C-96.9-303.6-97.3-303.2-97.8-303.2z
			 M-111.8-303.2h-12.1c-0.5,0-0.9-0.4-0.9-0.9v-5.2c0-0.5,0.4-0.9,0.9-0.9h12.1c0.5,0,0.9,0.4,0.9,0.9v5.2
			C-110.9-303.6-111.3-303.2-111.8-303.2z M-125.7-303.2h-12.1c-0.5,0-0.9-0.4-0.9-0.9v-5.2c0-0.5,0.4-0.9,0.9-0.9h12.1
			c0.5,0,0.9,0.4,0.9,0.9v5.2C-124.8-303.6-125.2-303.2-125.7-303.2z M-139.7-303.2h-12.1c-0.5,0-0.9-0.4-0.9-0.9v-5.2
			c0-0.5,0.4-0.9,0.9-0.9h12.1c0.5,0,0.9,0.4,0.9,0.9v5.2C-138.8-303.6-139.2-303.2-139.7-303.2z M-90.5-310.2h-12.1
			c-0.5,0-0.9-0.4-0.9-0.9v-5.2c0-0.5,0.4-0.9,0.9-0.9h12.1c0.5,0,0.9,0.4,0.9,0.9v5.2C-89.6-310.6-90-310.2-90.5-310.2z
			 M-104.5-310.2h-12.1c-0.5,0-0.9-0.4-0.9-0.9v-5.2c0-0.5,0.4-0.9,0.9-0.9h12.1c0.5,0,0.9,0.4,0.9,0.9v5.2
			C-103.6-310.6-104-310.2-104.5-310.2z M-118.4-310.2h-12.1c-0.5,0-0.9-0.4-0.9-0.9v-5.2c0-0.5,0.4-0.9,0.9-0.9h12.1
			c0.5,0,0.9,0.4,0.9,0.9v5.2C-117.5-310.6-117.9-310.2-118.4-310.2z M-132.4-310.2h-12.1c-0.5,0-0.9-0.4-0.9-0.9v-5.2
			c0-0.5,0.4-0.9,0.9-0.9h12.1c0.5,0,0.9,0.4,0.9,0.9v5.2C-131.5-310.6-131.9-310.2-132.4-310.2z M-97.8-317.3h-12.1
			c-0.5,0-0.9-0.4-0.9-0.9v-5.2c0-0.5,0.4-0.9,0.9-0.9h12.1c0.5,0,0.9,0.4,0.9,0.9v5.2C-96.9-317.8-97.3-317.3-97.8-317.3z
			 M-111.8-317.3h-12.1c-0.5,0-0.9-0.4-0.9-0.9v-5.2c0-0.5,0.4-0.9,0.9-0.9h12.1c0.5,0,0.9,0.4,0.9,0.9v5.2
			C-110.9-317.8-111.3-317.3-111.8-317.3z M-125.7-317.3h-12.1c-0.5,0-0.9-0.4-0.9-0.9v-5.2c0-0.5,0.4-0.9,0.9-0.9h12.1
			c0.5,0,0.9,0.4,0.9,0.9v5.2C-124.8-317.8-125.2-317.3-125.7-317.3z M-139.7-317.3h-12.1c-0.5,0-0.9-0.4-0.9-0.9v-5.2
			c0-0.5,0.4-0.9,0.9-0.9h12.1c0.5,0,0.9,0.4,0.9,0.9v5.2C-138.8-317.8-139.2-317.3-139.7-317.3z"/>
	</g>
</g>
<circle class="st4" cx="-58.7" cy="-294.9" r="23"/>
<path class="st8" d="M-58.6-285.7c-1.2-0.5-5.6-2.7-5.6-7.1v-6.8c2.6-0.1,4.7-1,5.6-1.5c0.9,0.5,3,1.4,5.6,1.5v6.8
	C-53-288.4-57.4-286.2-58.6-285.7z"/>
<path class="st8" d="M-56.2-290.8H-61v-3.5h4.8V-290.8z M-60.1-294.3v-1.4c0-0.8,0.7-1.5,1.5-1.5c0.8,0,1.5,0.7,1.5,1.5v1.4"/>
<path class="st8" d="M-45-301.8l0-1.4c0-0.5-0.4-0.9-0.9-0.9l-12.3,0.1l-3.6-3.6l-8.6,0c-1,0-1.9,0.9-1.9,1.9l0.1,22.7H-45V-301.8z"
	/>
<g>
	<circle class="st4" cx="7.5" cy="-290.5" r="23"/>
	<path class="st8" d="M17.9-281.7c0,1.8-1.5,3.3-3.3,3.3s-3.3-1.5-3.3-3.3s1.5-3.3,3.3-3.3S17.9-283.5,17.9-281.7z M13.9-282.6
		l0.8,2l1.5-3.9 M-1.2-285.6h9.1 M-1.2-288.4h14.7 M-1.2-291.2h14.7 M-1.2-294.1h14.7 M-1.2-296.9h9.9 M-1.2-299.7h9.9 M13.4-305.4
		h6.9v29.8H-4.9v-29.8H13.4z"/>
</g>
<circle class="st4" cx="70.2" cy="-286" r="23"/>
<path class="st8" d="M70.1-280.8v1.1 M70.1-291.6v7.2 M70.1-300.2L56.1-276H84L70.1-300.2z"/>
<circle class="st4" cx="143.8" cy="-285.7" r="23"/>
<path class="st8" d="M143.8-268.3c-2.4-1-11.4-5.4-11.4-14.4v-13.7c5.3-0.1,9.6-2,11.4-3c1.8,1,6,2.8,11.4,3v13.7
	C155.2-273.7,146.2-269.3,143.8-268.3z"/>
<path class="st8" d="M148.7-278.7h-9.8v-7.1h9.8V-278.7z M140.8-285.7v-2.8c0-1.6,1.3-3,3-3c1.6,0,3,1.3,3,3v2.8"/>
<g>
	<path class="st0" d="M269.6-307.7v-5.9c0-16.5-12.9-30.4-29.4-30.8c-17.1-0.5-31.1,13.2-31.1,30.2l0,23.2h67.2
		c4.2,0,7.7,3.5,7.7,7.7v53.1c0,4.2-3.5,7.7-7.7,7.7c0,0-10.2,0-16.8,0c-3.3,0-6.2-2.3-7-5.5l-4.8-19.9l0,0c3.6-2.9,5.8-7.6,5-12.7
		c-0.9-6-5.8-10.7-11.8-11.4c-8.2-0.9-15.1,5.5-15.1,13.5c0,4.3,2,8.2,5.2,10.6l0,0c0,0-3,12.4-4.8,19.9c-0.8,3.2-3.7,5.5-7,5.5
		h-16.8c-4.2,0-7.7-3.5-7.7-7.7v-53.1"/>
</g>
<g>
	<path class="st9" d="M145.3-218.6c1.7,0.6,3.7,0.2,5-1.1c1.4-1.4,1.7-3.3,1.1-5l-2.4,2.4c-0.3,0.3-0.8,0.3-1.1,0l-1.8-1.8
		c-0.3-0.3-0.3-0.8,0-1.1l2.4-2.4c-1.7-0.6-3.7-0.2-5,1.1c-1.4,1.4-1.7,3.3-1.1,5l-7.4,7.4c-1.7-0.6-3.7-0.2-5,1.1
		c-1.4,1.4-1.7,3.3-1.1,5l2.4-2.4c0.3-0.3,0.8-0.3,1.1,0l1.8,1.8c0.3,0.3,0.3,0.8,0,1.1l-2.4,2.4c1.7,0.6,3.7,0.2,5-1.1
		c1.4-1.4,1.7-3.3,1.1-5l2.2-2.2"/>
	<path class="st9" d="M140.1-213.4l-5.8-6.2c-1-1-2.7-1-3.7,0c-0.9,0.9-1,2.4-0.2,3.4l-2,1.3c0,0-3.2-4.8,0.5-8.5
		c1.3-1.3,2.5-2.5,3.6-3.6c0.3,0.1,0.7,0.1,1,0.2c0.3,0.1,0.6-0.2,0.5-0.5l-0.2-1l1.7-1.7l4.6,4.6l-1.6,1.6c-0.5-0.5-1.3-0.5-1.7,0
		c-0.5,0.5-0.5,1.3,0,1.7l12.8,11.9c0.1,0.1,0.2,0.2,0.2,0.2c0.7,0.8,0.7,2,0.1,2.9c-0.9,1.1-2.5,1.2-3.5,0.3c0,0-0.1-0.1-0.1-0.1
		l-4.2-4.4"/>
</g>
<g>
	<path class="st10" d="M460.9,99.4c-16.8,29.7-59.2,67.7-114.4,99.6c-81.9,47.3-161,63.4-176.8,36c-7.4-12.7,0.3-32.6,18.8-55"/>
	<path class="st10" d="M407.8,52.8c29.3-5.1,50.9-1.9,58.3,11c2.6,4.5,3.3,10,2.3,16.1"/>
	<circle class="st10" cx="465.5" cy="90" r="10.5"/>
	<circle class="st10" cx="314.1" cy="121.6" r="132"/>
</g>
<image style="overflow:visible;" width="1600" height="700" xlink:href="../Dropbox (Muuaaa)/Muuaaa Team Folder/Graphic Design_Gabriel/Neptuno/02 Design/images/slide-22.jpg"  transform="matrix(0.4158 0 0 0.4158 24.0029 -393.0882)">
</image>
<image style="overflow:visible;" width="1078" height="516" xlink:href="datacenter-google-1078x516.jpg"  transform="matrix(1 0 0 1 150.3281 -1034.0596)">
</image>
<g>
	<g>
		<g>
			<path class="st11" d="M1044.6,68.3c7.8-13.2,12.3-28.7,12.3-45.2c0-49.1-39.8-88.9-88.9-88.9c-49.1,0-88.9,39.8-88.9,88.9
				c0,16,4.2,30.9,11.6,43.9"/>
			<path class="st11" d="M900.9,81.3c16.3,18.8,40.3,30.7,67.2,30.7c26.8,0,50.9-11.9,67.2-30.7"/>
			<rect x="895.5" y="78.1" class="st11" width="45.9" height="3.2"/>
			<g>
				<rect x="890.8" y="63" class="st11" width="55.3" height="15.1"/>
				<line class="st11" x1="895.3" y1="67.2" x2="895.3" y2="73.8"/>
				<line class="st11" x1="898.8" y1="67.2" x2="898.8" y2="73.8"/>
				<line class="st11" x1="902.3" y1="67.2" x2="902.3" y2="73.8"/>
				<line class="st11" x1="905.8" y1="67.2" x2="905.8" y2="73.8"/>
				<line class="st11" x1="909.2" y1="67.2" x2="909.2" y2="73.8"/>
				<line class="st11" x1="912.7" y1="67.2" x2="912.7" y2="73.8"/>
				<circle class="st11" cx="939.4" cy="70.5" r="2.3"/>
				<circle class="st11" cx="931.4" cy="70.5" r="2.3"/>
				<circle class="st11" cx="923.4" cy="70.5" r="2.3"/>
			</g>
			<path class="st11" d="M900.5,63V43.4c0-1.2,1-2.2,2.2-2.2l0,0c1.2,0,2.2,1,2.2,2.2V63"/>
			<path class="st11" d="M894.6,31c2.1-2.1,5-3.4,8.1-3.4"/>
			<path class="st11" d="M896.9,34.2c1.5-1.5,3.6-2.4,5.9-2.4"/>
			<path class="st11" d="M899.1,37.3c0.9-0.9,2.2-1.5,3.6-1.5"/>
			<path class="st11" d="M910.9,31c-2.1-2.1-5-3.4-8.1-3.4"/>
			<path class="st11" d="M908.7,34.2c-1.5-1.5-3.6-2.4-5.9-2.4"/>
			<path class="st11" d="M906.4,37.3c-0.9-0.9-2.2-1.5-3.6-1.5"/>
			<path class="st11" d="M931.8,63V43.4c0-1.2,1-2.2,2.2-2.2l0,0c1.2,0,2.2,1,2.2,2.2V63"/>
			<path class="st11" d="M925.9,31c2.1-2.1,5-3.4,8.1-3.4"/>
			<path class="st11" d="M928.2,34.2c1.5-1.5,3.6-2.4,5.9-2.4"/>
			<path class="st11" d="M930.4,37.3c0.9-0.9,2.2-1.5,3.6-1.5"/>
			<path class="st11" d="M942.2,31c-2.1-2.1-5-3.4-8.1-3.4"/>
			<path class="st11" d="M940,34.2c-1.5-1.5-3.6-2.4-5.9-2.4"/>
			<path class="st11" d="M937.7,37.3c-0.9-0.9-2.2-1.5-3.6-1.5"/>
			<rect x="952.4" y="-27.7" class="st11" width="42.5" height="105.8"/>
			<rect x="958" y="-22.2" class="st11" width="31.4" height="8.2"/>
			<rect x="958" y="-14" class="st11" width="31.4" height="8.2"/>
			<rect x="958" y="-5.9" class="st11" width="31.4" height="8.2"/>
			<rect x="958" y="2.3" class="st11" width="31.4" height="8.2"/>
			<rect x="958" y="10.5" class="st11" width="31.4" height="8.2"/>
			<rect x="958" y="18.6" class="st11" width="31.4" height="8.2"/>
			<rect x="958" y="44.9" class="st11" width="31.4" height="23.2"/>
			<circle class="st11" cx="973.4" cy="56.5" r="2.8"/>
			<g>
				<rect x="958" y="33.8" class="st11" width="18.6" height="4.1"/>
				<rect x="985.3" y="33.8" class="st11" width="4.1" height="4.1"/>
			</g>
			<line class="st11" x1="970.6" y1="56.5" x2="958" y2="56.5"/>
			<line class="st11" x1="976.2" y1="56.5" x2="988.8" y2="56.5"/>
			<rect x="952.4" y="78.1" class="st11" width="42.5" height="3.2"/>
			<circle class="st11" cx="1024.1" cy="50.5" r="11.7"/>
			<circle class="st11" cx="1024.1" cy="50.5" r="6.4"/>
			<circle class="st11" cx="1024.1" cy="50.5" r="2.6"/>
			<line class="st11" x1="1024.1" y1="62.2" x2="1024.1" y2="68.3"/>
			<g>
				<rect x="1001.3" y="68.3" class="st11" width="44.1" height="9.8"/>
				<line class="st11" x1="1034.7" y1="73.2" x2="1012" y2="73.2"/>
			</g>
			<rect x="1005" y="78.1" class="st11" width="36.7" height="3.2"/>
		</g>
	</g>
</g>
<g>
	<linearGradient id="SVGID_3_" gradientUnits="userSpaceOnUse" x1="1106.047" y1="-98.4863" x2="1228.2848" y2="-98.4863">
		<stop  offset="0" style="stop-color:#C558A0"/>
		<stop  offset="0.5945" style="stop-color:#7F3E93"/>
		<stop  offset="1" style="stop-color:#532E8B"/>
	</linearGradient>
	<path class="st12" d="M1197-120.6l31.3,17.6l-61.4,34.6L1106-103l30.8-17.5C1155.5-131.1,1178.3-131.2,1197-120.6z"/>
	<path class="st13" d="M1106-103v3.6l59.9,34.7c0.4,0.2,0.8,0.2,1.1,0l61.2-34.7v-3.7l-61.4,34.6L1106-103z"/>
	<path class="st14" d="M1191.8-151.3l36.4,20.5l-61.4,34.6l-60.9-34.6l36-20.4C1157.5-160,1176.4-160,1191.8-151.3z"/>
	<path class="st15" d="M1193.5-176.3l34.8,19.6l-61.4,34.6l-60.9-34.6l34.3-19.5C1156.8-185.5,1177-185.5,1193.5-176.3z"/>
	<path class="st16" d="M1106-156.7l0.1,3.6l59.7,34.7c0.4,0.2,0.8,0.2,1.2,0l61.2-34.7v-3.6l-61.4,34.6L1106-156.7z"/>
	<path class="st17" d="M1106-130.8l0.1,3.6l59.7,34.7c0.4,0.2,0.9,0.2,1.3,0l61.1-34.7v-3.6l-61.4,34.6L1106-130.8z"/>
</g>
<g>
	<g>
		<path class="st18" d="M1647.5-195l-76.2,129.5c-1.5,2.5,0.3,5.7,3.3,5.7h61.4c0.7,0,1.3,0.6,1.2,1.4l-13.6,101.2
			c-0.4,3.3,4,4.9,5.7,2l94.1-155.8c1.4-2.3-0.3-5.2-2.9-5.2H1646c-0.7,0-1.3-0.6-1.2-1.3l8-75.7
			C1653.2-196.4,1649.1-197.7,1647.5-195z"/>
	</g>
	<g>
		<g>
			<path class="st1" d="M1507.9-91.7c-28.5-17-50.1-44.3-59.4-76.2c-9.1-31-6.3-65.2,7.9-94.2c28.1-57.4,95.2-86.9,156.5-68.2
				c35.2,10.7,64.3,36.3,80.3,69.4c2,4.1,8.2,0.5,6.2-3.6c-14.9-30.8-40.8-55.3-72.4-68.3c-31.7-13-68.2-13.7-100.3-1.8
				c-29.8,11.1-55.3,32.3-71.4,59.7c-17.1,29-22.9,63.8-16.6,96.8c7.4,38.7,31.9,72.6,65.7,92.7
				C1508.3-83.2,1511.9-89.3,1507.9-91.7L1507.9-91.7z"/>
		</g>
	</g>
	<g>
		<g>
			<path class="st1" d="M1697.2-259.4c47.3-13.1,98.5,12.1,115.3,58.7c15.6,43.4-2.9,92.9-43.1,115.3c-25.3,14.1-55.7,15.3-82.5,4.6
				c-4.3-1.7-6.1,5.2-1.9,6.9c49.2,19.8,107.2-2.1,130.2-50.1c21.5-44.9,6.9-99.8-33.9-128.2c-25-17.4-56.8-22.2-86-14.1
				C1690.9-265.1,1692.8-258.1,1697.2-259.4L1697.2-259.4z"/>
		</g>
	</g>
	<g>
		<g>
			<path class="st1" d="M1689.1-75.6c9.8-16.3,19.7-32.6,29.5-48.9c1.4-2.3-0.4-5.4-3.1-5.4c-27.2,0-54.3,0-81.5,0
				c1.2,1.2,2.4,2.4,3.6,3.6c3.8-28.3,7.6-56.6,11.3-84.9c0.6-4.1,1.1-8.2,1.7-12.3c0.5-3.7-5-4.6-6.7-1.8
				c-10.1,17.3-20.1,34.5-30.2,51.8c-16.1,27.5-32.2,55.1-48.3,82.6c-3.7,6.4-7.5,12.8-11.2,19.2c-1.4,2.3,0.4,5.4,3.1,5.4
				c23,0,46.1,0,69.1,0c-1.2-1.2-2.4-2.4-3.6-3.6c-4.6,34.3-9.2,68.6-13.8,102.9c-0.6,4.8-1.3,9.6-1.9,14.4c-0.5,3.7,5,4.6,6.7,1.8
				c15.8-26.3,31.7-52.5,47.5-78.8c2.3-3.8,4.5-7.5,6.8-11.3c2.4-4-3.8-7.6-6.2-3.6c-15.8,26.3-31.7,52.5-47.5,78.8
				c-2.3,3.8-4.5,7.5-6.8,11.3c2.2,0.6,4.4,1.2,6.7,1.8c4.6-34.3,9.2-68.6,13.8-102.9c0.6-4.8,1.3-9.6,1.9-14.4
				c0.3-1.9-1.8-3.6-3.6-3.6c-23,0-46.1,0-69.1,0c1,1.8,2.1,3.6,3.1,5.4c10.1-17.3,20.1-34.5,30.2-51.8
				c16.1-27.5,32.2-55.1,48.3-82.6c3.7-6.4,7.5-12.8,11.2-19.2c-2.2-0.6-4.4-1.2-6.7-1.8c-3.8,28.3-7.6,56.6-11.3,84.9
				c-0.6,4.1-1.1,8.2-1.7,12.3c-0.3,1.9,1.8,3.6,3.6,3.6c27.2,0,54.3,0,81.5,0c-1-1.8-2.1-3.6-3.1-5.4
				c-9.8,16.3-19.7,32.6-29.5,48.9C1680.5-75.3,1686.7-71.7,1689.1-75.6L1689.1-75.6z"/>
		</g>
	</g>
</g>
<g>
	<g>
		<path class="st18" d="M2578.5-102.8h-73.2c-5.1,0-9.3,4.2-9.3,9.3v51.7c0,5.1,4.2,9.3,9.3,9.3h73.2c5.1,0,9.3-4.2,9.3-9.3v-51.7
			C2587.8-98.6,2583.6-102.8,2578.5-102.8z M2553.7-48.6c0.3,1.2-0.6,2.3-1.8,2.3h-20.1c-1.2,0-2.1-1.1-1.8-2.3l4.5-18.8
			c-2.8-2.2-4.7-5.6-4.7-9.5c0-7.5,6.8-13.4,14.6-11.8c4.7,1,8.4,4.8,9.2,9.5c0.9,4.8-1.1,9.1-4.5,11.8L2553.7-48.6z"/>
	</g>
</g>
<g>
	<path class="st18" d="M2653.4-254.3l-53.6,10.6c-0.6,0.1-1.3-0.1-1.7-0.6l-27.2-30.3c-1-1.1-0.4-2.8,1-3.1l73.9-14.6
		c1-0.2,2,0.5,2.2,1.5l6.9,34.3C2655.1-255.5,2654.5-254.5,2653.4-254.3z"/>
</g>
<g>
	<path class="st18" d="M2419.2-254.3l53.6,10.6c0.6,0.1,1.3-0.1,1.7-0.6l27.2-30.3c1-1.1,0.4-2.8-1-3.1l-73.9-14.6
		c-1-0.2-2,0.5-2.2,1.5l-6.9,34.3C2417.5-255.5,2418.2-254.5,2419.2-254.3z"/>
</g>
<g>
	<g>
		<path class="st18" d="M2625.9-185.7c-49.5,0-85.9-23.3-85.9-23.3s-36.4,23.3-85.9,23.3h-8.2V-75c0,83.8,94.1,116.3,94.1,116.3
			s94.1-32.4,94.1-116.3v-110.7H2625.9z M2621.3-75c0,63.9-64.1,95.2-81.3,102.4c-17.2-7.2-81.3-38.5-81.3-102.4v-97.9
			c38.1-1,68.2-14.5,81.3-21.4c13,6.9,43.1,20.3,81.3,21.4V-75z"/>
	</g>
</g>
<circle class="st19" cx="2443.7" cy="-229.3" r="8.3"/>
<line class="st19" x1="2443.7" y1="-237.6" x2="2443.7" y2="-254.3"/>
<line class="st19" x1="2435.4" y1="-229.3" x2="2364.4" y2="-229.3"/>
<line class="st19" x1="2428.6" y1="-286.2" x2="2452.1" y2="-281.5"/>
<polyline class="st19" points="2492.2,-273.6 2501.2,-271.8 2497.7,-254.6 2478.5,-258.4 "/>
<polygon class="st19" points="2413.6,-260.2 2470.1,-249 2500.2,-282.6 2421.3,-298.2 "/>
<circle class="st19" cx="2628.9" cy="-229.3" r="8.3"/>
<path class="st19" d="M2628.9-237.6v-16.7V-237.6z"/>
<path class="st19" d="M2637.2-229.3h71H2637.2z"/>
<line class="st19" x1="2644" y1="-286.2" x2="2620.5" y2="-281.5"/>
<polygon class="st19" points="2580.4,-273.6 2571.4,-271.8 2574.9,-254.6 2594.1,-258.4 "/>
<polygon class="st19" points="2659,-260.2 2602.5,-249 2572.4,-282.6 2651.3,-298.2 "/>
<path class="st19" d="M2607.9-13.6c63.4-27.6,107.7-90.9,107.7-164.5c0-99-80.3-179.3-179.3-179.3S2357-277.1,2357-178.1
	c0,73.6,44.3,136.8,107.7,164.5"/>
<path class="st19" d="M2536.3,37.6c0,0,94.1-32.4,94.1-116.3v-110.7h-8.2c-49.5,0-85.9-23.3-85.9-23.3s-36.4,23.3-85.9,23.3h-8.2
	v110.7C2442.2,5.1,2536.3,37.6,2536.3,37.6z"/>
<path class="st19" d="M2536.3,23.8c-17.2-7.2-81.3-38.5-81.3-102.4v-97.9c38.1-1,68.2-14.5,81.3-21.4c13,6.9,43.1,20.3,81.3,21.4
	v97.9C2617.6-14.8,2553.5,16.5,2536.3,23.8z"/>
<path class="st19" d="M2572.9-38.1h-73.2c-5.1,0-9.3-4.2-9.3-9.3v-51.7c0-5.1,4.2-9.3,9.3-9.3h73.2c5.1,0,9.3,4.2,9.3,9.3v51.7
	C2582.2-42.2,2578-38.1,2572.9-38.1z"/>
<path class="st19" d="M2548.1-54.2l-4.5-18.8c3.4-2.6,5.4-7,4.5-11.8c-0.9-4.7-4.6-8.5-9.2-9.5c-7.8-1.6-14.6,4.3-14.6,11.8
	c0,3.9,1.9,7.3,4.7,9.5l-4.5,18.8c-0.3,1.2,0.6,2.3,1.8,2.3h20.1C2547.5-51.9,2548.4-53,2548.1-54.2z"/>
<path class="st19" d="M2567.3-108.4c0,0,0-23.8,0-23.8c0-17.1-13.9-31-31-31c-17.1,0-31,13.9-31,31v23.8H2567.3z"/>
<path class="st19" d="M3029.9-13.6c63.4-27.6,107.7-90.9,107.7-164.5c0-99-80.3-179.3-179.3-179.3S2779-277.1,2779-178.1
	c0,73.6,44.3,136.8,107.7,164.5"/>
<g>
	<path class="st19" d="M3006.6-188.8c15,5.4,32.4,2.1,44.4-9.9s15.3-29.4,9.9-44.4l-21.3,21.3c-2.7,2.7-7,2.7-9.7,0l-15.9-15.9
		c-2.7-2.7-2.7-7,0-9.7l21.3-21.3c-15-5.4-32.4-2.1-44.4,9.9c-12,12-15.3,29.4-9.9,44.4l-65,65c-15-5.4-32.4-2.1-44.4,9.9
		s-15.3,29.4-9.9,44.4l21.3-21.3c2.7-2.7,7-2.7,9.7,0l15.9,15.9c2.7,2.7,2.7,7,0,9.7l-21.3,21.3c15,5.4,32.4,2.1,44.4-9.9
		s15.3-29.4,9.9-44.4l19.2-19.2"/>
	<path class="st19" d="M2960.8-142.9l-50.9-54.6c-8.9-8.9-23.4-8.9-32.4,0c-8.2,8.2-8.9,21.2-1.9,30.2l-17.9,11.2
		c0,0-28.2-42.3,4-74.5c11.2-11.2,22.2-22.2,31.5-31.5c3,0.5,6.3,1.1,9.1,1.5c2.8,0.5,5.2-1.9,4.7-4.7l-1.5-9.1l14.6-14.6l40.7,40.7
		l-14.4,14.4c-4.2-4.2-11.1-4.2-15.4,0s-4.2,11.1,0,15.4l112.7,105.1c0.8,0.7,1.5,1.4,2.2,2.2c6.1,7.1,6.5,17.9,0.8,25.4
		c-7.6,10.1-22.1,10.9-30.7,2.2c-0.3-0.3-0.7-0.7-1-1.1l-36.5-39.2"/>
</g>
<g>
	<path class="st19" d="M3426.8-110.9l-19.2,19.2c5.4,15,2.1,32.4-9.9,44.4s-29.4,15.3-44.4,9.9l21.3-21.3c2.7-2.7,2.7-7,0-9.7
		l-15.9-15.9c-2.7-2.7-7-2.7-9.7,0L3327.8-63c-5.4-15-2.1-32.4,9.9-44.4s29.4-15.3,44.4-9.9l65-65c-5.4-15-2.1-32.4,9.9-44.4
		s29.4-15.3,44.4-9.9l-21.3,21.3c-2.7,2.7-2.7,7,0,9.7l15.9,15.9c2.7,2.7,7,2.7,9.7,0l21.3-21.3c5.4,15,2.1,32.4-9.9,44.4
		s-29.4,15.3-44.4,9.9"/>
	<path class="st19" d="M3426.8-110.9l-50.9-54.6c-8.9-8.9-23.4-8.9-32.4,0c-8.2,8.2-8.9,21.2-1.9,30.2l-17.9,11.2
		c0,0-28.2-42.3,4-74.5c11.2-11.2,22.2-22.2,31.5-31.5c3,0.5,6.3,1.1,9.1,1.5c2.8,0.5,5.2-1.9,4.7-4.7l-1.5-9.1l14.6-14.6l40.7,40.7
		l-14.4,14.4c-4.2-4.2-11.1-4.2-15.4,0s-4.2,11.1,0,15.4l112.7,105.1c0.8,0.7,1.5,1.4,2.2,2.2c6.1,7.1,6.5,17.9,0.8,25.4
		c-7.6,10.1-22.1,10.9-30.7,2.2c-0.3-0.3-0.7-0.7-1-1.1L3444.5-92l-0.7,81.4c-64.4,25.3-133,9.1-185.1-42.9c-70-70-70-183.6,0-253.6
		c70-70,183.6-70,253.6,0c52,52,65.4,128.1,40.1,192.5"/>
</g>
<g>
	<path class="st20" d="M-160.3-149.1v-1.3c0-0.5-0.4-0.9-0.9-0.9H-173l-3.5-3.5h-8.3c-1,0-1.8,0.8-1.8,1.8v21.8l5.5-15
		c0.1-0.4,0.5-0.6,0.9-0.6h21.7c0.6,0,1.1,0.6,0.9,1.2l-5,13.8c-0.1,0.4-0.5,0.6-0.9,0.6h-19.9"/>
</g>
<g>
	<path class="st21" d="M-232.5-135.7c-5.1-3-8.6-8.6-8.6-15c0-9.6,7.8-17.5,17.5-17.5c7,0,13,4.1,15.8,9.9"/>
	<path class="st21" d="M-207.9-158.2c1.1-0.3,2.3-0.5,3.5-0.5c7,0,12.7,5.7,12.7,12.7s-5.7,12.7-12.7,12.7c-1.7,0-3.4-0.3-4.9-1"/>
	<polyline class="st21" points="-209.3,-134.2 -205.4,-140.6 -216,-140.6 -214.3,-153.1 -225.9,-133.3 -217,-133.3 -219,-118.1 
		-212,-129.7 	"/>
</g>
<g>
	<path class="st22" d="M-135.7-143c-6.9,0-12.5-5.6-12.5-12.5c0-5,2.9-9.3,7.1-11.3"/>
	<path class="st22" d="M-141.2-166.8c-0.1-0.4-0.1-0.8-0.1-1.2c0-4.5,3.6-8.1,8.1-8.1c1.7,0,3.2,0.5,4.5,1.4"/>
	<path class="st22" d="M-128.6-174.8c3-4.6,8.2-7.6,14.1-7.6c9.2,0,16.7,7.4,16.9,16.5"/>
	<path class="st22" d="M-97.6-165.9c5.1,1.2,8.9,5.8,8.9,11.3c0,6.4-5.2,11.6-11.6,11.6"/>
	<path class="st22" d="M-129.1-143c0-5.9,4.7-10.6,10.6-10.6s10.6,4.7,10.6,10.6c0,5.9-4.7,10.6-10.6,10.6"/>
	<line class="st22" x1="-135.7" y1="-143" x2="-129.1" y2="-143"/>
	<path class="st22" d="M-126.5-143c1.4,0,2.6,1.2,2.6,2.6c0,1.4-1.2,2.6-2.6,2.6c-1.4,0-2.6-1.2-2.6-2.6"/>
	<line class="st22" x1="-129.1" y1="-143" x2="-129.1" y2="-140.4"/>
	<line class="st22" x1="-126.5" y1="-143" x2="-129.1" y2="-143"/>
	<line class="st22" x1="-120.4" y1="-132.4" x2="-118" y2="-129.5"/>
	<line class="st22" x1="-120.4" y1="-132.4" x2="-118" y2="-135.3"/>
</g>
<g>
	<path class="st23" d="M-182.7-99.8c-0.2-1.5,0.4-2.3,0.4-2.3c0.7-0.7,2.4-2.4,2.4-2.4l3.9,3.9l-2.2,2.4c0,0,0.8,1.6,2.7,3.5
		c1.9,1.9,3.5,2.7,3.5,2.7l2.4-2.2l3.9,3.9"/>
	<path class="st23" d="M-181.5-107.2c2.2-4.8,7.1-8.2,12.7-8.2c7.7,0,14,6.3,14,14s-6.3,14-14,14c-0.4,0-0.7,0-1.1,0"/>
	<g>
		<line class="st23" x1="-162.2" y1="-109.2" x2="-166.7" y2="-96.9"/>
		<polyline class="st23" points="-162,-102.3 -158.4,-102.3 -160.8,-96.9 		"/>
		<g>
			<polyline class="st23" points="-167.5,-103.7 -167.5,-109.2 -170.2,-105.2 -166.5,-105.2 			"/>
			<path class="st23" d="M-171.5-103.7h-3.3l2.6-2.9c0.3-0.3,0.4-0.6,0.4-1c0-0.8-0.7-1.5-1.5-1.5s-1.5,0.7-1.5,1.5"/>
		</g>
	</g>
	<line class="st23" x1="-181.5" y1="-107.2" x2="-182.4" y2="-109.3"/>
	<line class="st23" x1="-181.5" y1="-107.2" x2="-179.2" y2="-107.6"/>
	<path class="st23" d="M-169.9-87.4c-6.7-0.5-12.1-5.8-12.8-12.4"/>
</g>
<circle class="st4" cx="-33.4" cy="-207" r="23"/>
<path class="st8" d="M-34.9-194.7h-0.5 M-32.5-194.7h-0.5 M-21.6-192.2h-23.7c-1,0-1.7-0.8-1.7-1.7v-1.6c0-1,0.8-1.7,1.7-1.7h23.7
	c1,0,1.7,0.8,1.7,1.7v1.6C-19.8-192.9-20.6-192.2-21.6-192.2z M-34.9-199.8h-0.5 M-32.5-199.8h-0.5 M-34.9-204.9h-0.5 M-32.5-204.9
	h-0.5 M-34.9-209.9h-0.5 M-32.5-209.9h-0.5 M-34.9-215h-0.5 M-32.5-215h-0.5 M-21.6-197.2h-23.7c-1,0-1.7-0.8-1.7-1.7v-1.6
	c0-1,0.8-1.7,1.7-1.7h23.7c1,0,1.7,0.8,1.7,1.7v1.6C-19.8-198-20.6-197.2-21.6-197.2z M-20.5-217.2l-5.3-4.2
	c-0.3-0.3-0.7-0.4-1.1-0.4h-12.9c-0.4,0-0.8,0.1-1.1,0.4l-5.3,4.2 M-21.6-212.5h-23.7c-1,0-1.7-0.8-1.7-1.7v-1.6
	c0-1,0.8-1.7,1.7-1.7h23.7c1,0,1.7,0.8,1.7,1.7v1.6C-19.8-213.3-20.6-212.5-21.6-212.5z M-21.6-212.5h-23.7c-1,0-1.7,0.8-1.7,1.7
	v1.6c0,1,0.8,1.7,1.7,1.7h23.7c1,0,1.7-0.8,1.7-1.7v-1.6C-19.8-211.7-20.6-212.5-21.6-212.5z M-21.6-202.3h-23.7
	c-1,0-1.7-0.8-1.7-1.7v-1.6c0-1,0.8-1.7,1.7-1.7h23.7c1,0,1.7,0.8,1.7,1.7v1.6C-19.8-203.1-20.6-202.3-21.6-202.3z"/>
<circle class="st4" cx="-107.7" cy="-216.1" r="23"/>
<path class="st24" d="M-97-227.8c0-0.4,0.3-0.8,0.8-0.8c0.4,0,0.8,0.3,0.8,0.8s-0.3,0.8-0.8,0.8C-96.7-227-97-227.4-97-227.8z
	 M-100.5-230.5c2.2-0.4,3.7-0.1,4.3,0.8c0.2,0.3,0.2,0.7,0.2,1.2 M-96.6-227.1c-1.2,2.2-4.4,5-8.4,7.3c-6,3.5-11.9,4.7-13,2.6
	c-0.5-0.9,0-2.4,1.4-4.1 M-97.7-223.8c0,5.3-4.3,9.6-9.6,9.6c-5.3,0-9.6-4.3-9.6-9.6c0-5.3,4.3-9.6,9.6-9.6
	C-102-233.4-97.7-229.1-97.7-223.8z M-114.5-199l-5.4-5.4c-0.2-0.2-0.2-0.4,0-0.6l1.7-1.7c0.2-0.2,0.4-0.2,0.6,0l5.4,5.4
	c0.2,0.2,0.2,0.4,0,0.6l-1.7,1.7C-114.1-198.8-114.3-198.8-114.5-199z M-112.5-201.8l8.7-2.1c0.7-0.2,1.4-0.5,1.9-1.1l5.9-5.9
	c0.2-0.2,0.2-0.5,0-0.7c-0.7-0.7-1.9-0.7-2.6,0l-4,4 M-117-206.1l2.6-2.6c0.7-0.7,1.8-1.2,2.8-1.2h6.3c0.3,0,0.5,0.2,0.5,0.5
	c0,1-0.8,1.8-1.8,1.8 M-110.1-207.5h7.6 M-101.9-211.5l-0.4-0.4c-0.7-0.7-1.9-0.7-2.6,0l-2,2 M-98.7-211.3l-0.4-0.4
	c-0.7-0.7-1.9-0.7-2.6,0l-4.2,4.2"/>
<g>
	<g>
		<path class="st6" d="M-22-109.4c-13.1,0-23.8-10.7-23.8-23.8c0-13.1,10.7-23.8,23.8-23.8s23.8,10.7,23.8,23.8
			C1.8-120.1-8.9-109.4-22-109.4z M-22-155.4c-12.2,0-22.1,9.9-22.1,22.1c0,12.2,9.9,22.1,22.1,22.1S0.1-121,0.1-133.2
			C0.1-145.4-9.8-155.4-22-155.4z"/>
	</g>
	<path class="st25" d="M-20.8-126.5c-0.4,0-0.8,0-1.2,0c-3.4,0-6.5-0.3-8.9-0.8c-1.3-0.3-2.3-0.6-3-1l0,5.3c0,0.2,0.6,0.8,3.2,1.4
		c2.3,0.5,5.4,0.8,8.7,0.8c0.6,0,1.1,0,1.7,0c-0.3-0.7-0.5-1.5-0.5-2.4V-126.5z"/>
	<path class="st25" d="M-15.2-131.5c0.8,0.4,2.7,1.3,5,1.4l0-5.1c-2.5,1.4-8.4,1.9-11.9,1.9c-3.5,0-9.4-0.4-11.9-1.8l0,5.3
		c0,0.2,0.6,0.8,3.2,1.4c2.3,0.5,5.4,0.8,8.7,0.8c0.4,0,0.8,0,1.2,0v-2.4C-18.2-130.1-16.1-131-15.2-131.5z"/>
	<path class="st25" d="M-30.8-141c2.3,0.5,5.4,0.8,8.7,0.8c3.3,0,6.4-0.3,8.7-0.8c2.6-0.6,3.2-1.2,3.2-1.4v0c0,0,0,0,0,0
		c0-0.2-0.6-0.8-3.2-1.4c-2.3-0.5-5.4-0.8-8.7-0.8c-7.7,0-11.9,1.5-11.9,2.3v0C-34-142.2-33.4-141.6-30.8-141z"/>
	<path class="st25" d="M-13.1-140c-2.4,0.5-5.6,0.9-8.9,0.9c-3.3,0-6.5-0.3-8.9-0.8c-1.3-0.3-2.3-0.6-3-1l0,4.4
		c0,0.8,4.2,2.2,11.9,2.2c7.7,0,11.9-1.5,11.9-2.3l0-4.4C-10.9-140.6-11.8-140.3-13.1-140z"/>
	<path class="st26" d="M-9-123l0-5.9c0-0.1-0.1-0.3-0.1-0.4c0.1-0.2,0.1-0.4,0.1-0.6l0-5.9c0-0.1-0.1-0.3-0.1-0.4
		c0.1-0.2,0.1-0.4,0.1-0.6l0-5.9c0,0,0,0,0,0c0-1.1-1.3-1.9-4.1-2.5c-2.4-0.5-5.5-0.8-8.9-0.8l0,0.6l0-0.6c-4.5,0-13,0.8-13,3.4
		c0,0,0,0,0,0l0,5.9c0,0.2,0.1,0.4,0.1,0.6c-0.1,0.1-0.1,0.2-0.1,0.4l0,5.9c0,0.2,0,0.4,0.1,0.6c-0.1,0.1-0.1,0.2-0.1,0.4l0,5.9
		c0,1.1,1.3,1.9,4.1,2.5c2.3,0.5,5.4,0.8,8.7,0.8c0.1,0,0.2,0,0.3,0c0.7,0,1.5,0,2.3-0.1c-0.2-0.3-0.4-0.7-0.6-1.1
		c-0.5,0-1.1,0-1.7,0c-3.3,0-6.4-0.3-8.7-0.8c-2.6-0.6-3.2-1.2-3.2-1.4l0-5.3c0.7,0.4,1.7,0.7,3,1c2.4,0.5,5.5,0.8,8.9,0.8
		c0.4,0,0.8,0,1.2,0v-1.1c-0.4,0-0.8,0-1.2,0c-3.3,0-6.4-0.3-8.7-0.8c-2.6-0.6-3.2-1.2-3.2-1.4l0-5.3c2.5,1.4,8.4,1.8,11.9,1.8
		c3.5,0,9.4-0.5,11.9-1.9l0,5.1c0.2,0,0.4,0,0.6,0v6.8c0,0.5-0.1,1-0.2,1.4C-9.2-122.2-9-122.6-9-123z M-34-142.4
		c0-0.8,4.2-2.2,11.9-2.3c3.3,0,6.4,0.3,8.7,0.8c2.6,0.6,3.2,1.2,3.2,1.4c0,0,0,0,0,0v0c0,0.2-0.6,0.8-3.2,1.4
		c-2.3,0.5-5.4,0.8-8.7,0.8c-3.3,0-6.4-0.3-8.7-0.8C-33.4-141.6-34-142.2-34-142.4L-34-142.4z M-22-134.4c-7.7,0-11.9-1.4-11.9-2.2
		l0-4.4c0.7,0.4,1.7,0.7,3,1c2.4,0.5,5.6,0.8,8.9,0.8c3.4,0,6.5-0.3,8.9-0.9c1.3-0.3,2.3-0.6,3-1l0,4.4
		C-10.2-135.9-14.4-134.4-22-134.4z"/>
	<path class="st8" d="M-15.2-116.1c-1.2-0.5-5.6-2.7-5.6-7.1v-6.8c2.6-0.1,4.7-1,5.6-1.5c0.9,0.5,3,1.4,5.6,1.5v6.8
		C-9.5-118.8-14-116.6-15.2-116.1z"/>
	<path class="st8" d="M-12.7-121.3h-4.8v-3.5h4.8V-121.3z M-16.7-124.8v-1.4c0-0.8,0.7-1.5,1.5-1.5c0.8,0,1.5,0.7,1.5,1.5v1.4"/>
</g>
<g>
	<path class="st1" d="M-128.2-83.3c-13.1,0-23.8,10.7-23.8,23.8s10.7,23.8,23.8,23.8c13.1,0,23.8-10.7,23.8-23.8
		S-115.1-83.3-128.2-83.3z M-128.2-37.4c-12.2,0-22.1-9.9-22.1-22.1s9.9-22.1,22.1-22.1c12.2,0,22.1,9.9,22.1,22.1
		S-116-37.4-128.2-37.4z"/>
	<path class="st1" d="M-137.7-55.5c-0.3-0.1-0.6,0.1-0.7,0.4l-0.9,4.1c-1.7-2-2.8-4.3-3.2-6.9c-0.6-3.7,0.3-7.3,2.5-10.3
		c2.2-3,5.4-4.9,9.1-5.5c1.8-0.3,3.7-0.2,5.5,0.2c0.3,0.1,0.6-0.1,0.7-0.4c0.1-0.3-0.1-0.6-0.4-0.7c-2-0.5-4-0.6-5.9-0.3
		c-4,0.6-7.4,2.7-9.8,6s-3.3,7.2-2.7,11.1c0.4,2.7,1.6,5.2,3.3,7.3l-3.8-0.8c-0.3-0.1-0.6,0.1-0.7,0.4c-0.1,0.3,0.1,0.6,0.4,0.7
		l5.1,1.1c0,0,0.1,0,0.1,0c0.2,0,0.4-0.1,0.5-0.3c0.1-0.1,0.2-0.2,0.2-0.3l1.1-5.1C-137.2-55.1-137.4-55.4-137.7-55.5z"/>
	<path class="st1" d="M-112.5-69.3l-5.1-0.9c-0.3,0-0.5,0.1-0.6,0.3c-0.1,0.1-0.2,0.2-0.2,0.3l-1,5.1c-0.1,0.3,0.1,0.6,0.5,0.7
		c0.3,0.1,0.6-0.1,0.7-0.5l0.8-4.1c1.8,1.9,2.9,4.2,3.4,6.8c0.7,3.6-0.1,7.3-2.1,10.4c-2.1,3.1-5.2,5.1-8.9,5.8
		c-1.6,0.3-3.2,0.3-4.7,0.1l9.2-15.5c0.1-0.2,0.1-0.4,0-0.6c-0.1-0.2-0.3-0.3-0.5-0.3h-6.9l1.1-8.3c0-0.3-0.1-0.5-0.4-0.6
		c-0.3-0.1-0.5,0-0.7,0.2l-8.3,14.2c-0.1,0.2-0.1,0.4,0,0.6c0.1,0.2,0.3,0.3,0.5,0.3h5.8l-0.8,6.4c0,0.3,0.2,0.6,0.5,0.6
		c0.3,0,0.6-0.2,0.6-0.5l0.9-7c0-0.2,0-0.3-0.1-0.4c-0.1-0.1-0.3-0.2-0.4-0.2h-5.4l6.4-10.9l-0.8,6.2c0,0.2,0,0.3,0.1,0.4
		c0.1,0.1,0.3,0.2,0.4,0.2h6.5l-9.1,15.3c0,0.1,0,0.1-0.1,0.2c0,0,0,0.1-0.1,0.1c-0.1,0.3,0.1,0.6,0.4,0.7c1,0.2,2.1,0.3,3.1,0.3
		c0.9,0,1.9-0.1,2.8-0.3c8.1-1.5,13.5-9.4,11.9-17.5c-0.5-2.7-1.7-5.2-3.5-7.2l3.8,0.7c0.3,0.1,0.6-0.1,0.7-0.5
		C-112-69-112.2-69.3-112.5-69.3z"/>
</g>
<g>
	<path class="st1" d="M-64.6-36.8c-13.1,0-23.8-10.7-23.8-23.8c0-13.1,10.7-23.8,23.8-23.8s23.8,10.7,23.8,23.8
		C-40.8-47.5-51.5-36.8-64.6-36.8z M-64.6-82.7c-12.2,0-22.1,9.9-22.1,22.1c0,12.2,9.9,22.1,22.1,22.1s22.1-9.9,22.1-22.1
		C-42.5-72.8-52.4-82.7-64.6-82.7z"/>
</g>
<g>
	<path class="st1" d="M-65.9-48.4c-1.1,0-2-0.9-2-1.9c0,0,0,0,0,0v-0.7h-6.2c-4.1,0-7.5-3.2-7.5-7.1c0-2.6,1.5-5,3.9-6.2
		c0-0.1,0-0.2,0-0.3c0-2.7,2.3-4.8,5.1-4.8c0.8,0,1.6,0.2,2.3,0.5c1.9-2.4,4.8-3.8,7.9-3.8c5.2,0,9.5,3.9,9.9,8.8
		c2.9,0.8,4.9,3.4,4.9,6.4c0,3.7-3.1,6.6-7,6.6l-6.5,0c-0.3,0-0.6-0.3-0.6-0.6v-6.6c0-0.3,0.3-0.6,0.6-0.6h2.7l-5.9-5.4l-5.8,5.4
		h2.8c0.3,0,0.6,0.3,0.6,0.6v6.1h0.9c0,0,0.1,0,0.1,0c1,0.1,1.8,0.9,1.8,1.9C-63.9-49.2-64.8-48.4-65.9-48.4z M-66.8-50.2
		c0,0.4,0.4,0.8,0.9,0.8c0.5,0,0.9-0.4,0.9-0.8c0-0.4-0.4-0.8-0.9-0.8h-0.9L-66.8-50.2C-66.8-50.3-66.8-50.3-66.8-50.2z M-60.6-52.2
		l6,0c3.2,0,5.8-2.5,5.8-5.5c0-2.5-1.8-4.7-4.4-5.3c-0.3,0-0.5-0.3-0.5-0.5c0,0,0,0,0,0c-0.1-4.5-4-8.1-8.8-8.1
		c-2.9,0-5.7,1.4-7.3,3.7c0,0.1-0.1,0.1-0.1,0.1c0,0,0,0,0,0s0,0,0,0h0c0,0,0,0,0,0c-0.1,0-0.1,0.1-0.2,0.1l0,0c0,0,0,0,0,0
		c-0.1,0-0.2,0-0.3,0c0,0,0,0,0,0l0,0c-0.1,0-0.1,0-0.2-0.1c-0.7-0.4-1.4-0.6-2.2-0.6c-2.2,0-3.9,1.7-3.9,3.7c0,0.2,0,0.4,0,0.6
		c0,0,0,0.1,0,0.1c0,0.1,0,0.2-0.1,0.2c0,0.1-0.1,0.1-0.2,0.2c0,0-0.1,0-0.1,0.1c-2.2,1-3.6,3.1-3.6,5.4c0,3.3,2.8,6,6.4,6h6.2v-5.5
		h-3.7c-0.2,0-0.4-0.1-0.5-0.4c-0.1-0.2,0-0.5,0.1-0.6l7.3-6.7c0.2-0.2,0.6-0.2,0.8,0l7.3,6.8c0.2,0.2,0.2,0.4,0.1,0.6
		c-0.1,0.2-0.3,0.4-0.5,0.4h-3.6V-52.2z"/>
</g>
<g>
	<path class="st1" d="M9.9-22.8c-13.1,0-23.8-10.7-23.8-23.8c0-13.1,10.7-23.8,23.8-23.8c13.1,0,23.8,10.7,23.8,23.8
		C33.7-33.5,23-22.8,9.9-22.8z M9.9-68.7c-12.2,0-22.1,9.9-22.1,22.1c0,12.2,9.9,22.1,22.1,22.1c12.2,0,22.1-9.9,22.1-22.1
		C32-58.8,22.1-68.7,9.9-68.7z"/>
</g>
<g>
	<path class="st1" d="M20.7-34.3C20.6-34.3,20.6-34.4,20.7-34.3l-21,0c-4.4,0-8-3.6-8-8c0-2.9,1.6-5.6,4.2-7c0-0.1,0-0.3,0-0.4
		c0-3,2.4-5.4,5.4-5.4c0.9,0,1.8,0.2,2.5,0.6c2-2.7,5.1-4.3,8.5-4.3c5.6,0,10.2,4.4,10.6,9.9c3.1,0.9,5.3,3.8,5.3,7.1
		C28.1-37.7,24.8-34.3,20.7-34.3z M-0.4-35.5h21c0,0,0,0,0.1,0c3.5,0,6.3-2.9,6.3-6.3c0-3.5-2.8-6.3-6.3-6.3c-0.3,0-0.6-0.3-0.6-0.6
		s0.3-0.6,0.6-0.6c0.3,0,0.7,0,1,0.1c-0.5-4.8-4.5-8.6-9.4-8.6c-3,0-5.8,1.4-7.6,3.8c0.6,0.5,1.1,1.1,1.4,1.8c0.1,0.3,0,0.6-0.3,0.8
		c-0.3,0.1-0.6,0-0.8-0.3c-0.7-1.5-2.2-2.4-3.8-2.4c-2.4,0-4.3,1.9-4.3,4.3c0,0.2,0,0.4,0,0.6c0,0,0,0.1,0,0.1c0,0.1,0,0.2-0.1,0.2
		c0,0.1-0.1,0.1-0.2,0.2c0,0-0.1,0-0.1,0.1c-2.4,1.1-3.9,3.6-3.9,6.2C-7.2-38.6-4.2-35.5-0.4-35.5z M14.3-39H6.6
		C6.3-39,6-39.2,6-39.5v-5.6c0-0.3,0.3-0.6,0.6-0.6h0.9v-1.6c0-1.6,1.3-2.9,2.9-2.9c1.6,0,2.9,1.3,2.9,2.9v1.6h1
		c0.3,0,0.6,0.3,0.6,0.6v5.6C14.9-39.2,14.6-39,14.3-39z M7.1-40.1h6.6v-4.5H7.1V-40.1z M8.6-45.7h3.6v-1.6c0-1-0.8-1.8-1.8-1.8
		c-1,0-1.8,0.8-1.8,1.8V-45.7z"/>
</g>
<g>
	<path class="st1" d="M73.7-20c-13.1,0-23.8-10.7-23.8-23.8c0-13.1,10.7-23.8,23.8-23.8c13.1,0,23.8,10.7,23.8,23.8
		C97.6-30.7,86.9-20,73.7-20z M73.7-65.9c-12.2,0-22.1,9.9-22.1,22.1c0,12.2,9.9,22.1,22.1,22.1c12.2,0,22.1-9.9,22.1-22.1
		C95.9-56,85.9-65.9,73.7-65.9z"/>
</g>
<g>
	<path class="st1" d="M84.5-31.5C84.5-31.5,84.5-31.5,84.5-31.5l-21,0c-4.4,0-8-3.6-8-8c0-2.9,1.6-5.6,4.2-7c0-0.1,0-0.3,0-0.4
		c0-3,2.4-5.4,5.4-5.4c0.9,0,1.8,0.2,2.5,0.6c2-2.7,5.1-4.3,8.5-4.3c5.6,0,10.2,4.4,10.6,9.9c3.1,0.9,5.3,3.8,5.3,7.1
		C92-34.9,88.6-31.5,84.5-31.5z M63.5-32.7h21c0,0,0,0,0.1,0c3.5,0,6.3-2.9,6.3-6.3c0-3.5-2.8-6.3-6.3-6.3c-0.3,0-0.6-0.3-0.6-0.6
		s0.3-0.6,0.6-0.6c0.3,0,0.7,0,1,0.1c-0.5-4.8-4.5-8.6-9.4-8.6c-3,0-5.8,1.4-7.6,3.8c0.6,0.5,1.1,1.1,1.4,1.8c0.1,0.3,0,0.6-0.3,0.8
		c-0.3,0.1-0.6,0-0.8-0.3c-0.7-1.5-2.2-2.4-3.8-2.4c-2.4,0-4.3,1.9-4.3,4.3c0,0.2,0,0.4,0,0.6c0,0,0,0.1,0,0.1c0,0.1,0,0.2-0.1,0.2
		c0,0.1-0.1,0.1-0.2,0.2c0,0-0.1,0-0.1,0.1c-2.4,1.1-3.9,3.6-3.9,6.2C56.6-35.8,59.7-32.7,63.5-32.7z M78.8-36.9c-0.1,0-0.3,0-0.4,0
		c-2.5-0.2-4.5-2.3-4.5-4.9c0-2.7,2.2-4.9,4.9-4.9s4.9,2.2,4.9,4.9c0,2.6-2,4.7-4.5,4.9C79.1-36.9,78.9-36.9,78.8-36.9z M78.7-38
		c0.1,0,0.2,0,0.3,0c0.4-0.2,1-1.3,1.1-3.2h-2.5C77.7-39.3,78.3-38.2,78.7-38z M75.1-41.2c0.2,1.2,0.9,2.2,1.9,2.7
		c-0.3-0.8-0.5-1.7-0.6-2.7H75.1z M81.2-41.2c-0.1,1-0.2,2-0.6,2.7c1-0.6,1.7-1.6,1.9-2.7H81.2z M81.2-42.4h1.4
		c-0.2-1.2-0.9-2.2-1.9-2.8C81-44.3,81.2-43.4,81.2-42.4z M77.6-42.4h2.5c-0.1-2.1-0.9-3.2-1.3-3.2S77.7-44.5,77.6-42.4z M75.1-42.4
		h1.4c0.1-1,0.2-2,0.6-2.8C76-44.6,75.3-43.6,75.1-42.4z M71.2-37.2h-6.2c-0.3,0-0.6-0.3-0.6-0.6v-4.5c0-0.3,0.3-0.6,0.6-0.6h0.6
		V-44c0-1.3,1.1-2.4,2.4-2.4c1.4,0,2.4,1.1,2.4,2.4v1.2h0.7c0.3,0,0.6,0.3,0.6,0.6v4.5C71.8-37.4,71.5-37.2,71.2-37.2z M65.6-38.3h5
		v-3.3h-5V-38.3z M66.8-42.8h2.6V-44c0-0.7-0.6-1.3-1.3-1.3c-0.7,0-1.3,0.6-1.3,1.3V-42.8z"/>
</g>
<g>
	<path class="st1" d="M165.5-20.2c-13.1,0-23.8-10.7-23.8-23.8c0-13.1,10.7-23.8,23.8-23.8c13.1,0,23.8,10.7,23.8,23.8
		C189.3-30.9,178.7-20.2,165.5-20.2z M165.5-66.1c-12.2,0-22.1,9.9-22.1,22.1c0,12.2,9.9,22.1,22.1,22.1c12.2,0,22.1-9.9,22.1-22.1
		C187.6-56.2,177.7-66.1,165.5-66.1z"/>
</g>
<g>
	<path class="st1" d="M176.4-32.5C176.4-32.5,176.4-32.5,176.4-32.5l-21,0c-4.4,0-8-3.6-8-8c0-2.9,1.6-5.6,4.2-7c0-0.1,0-0.3,0-0.4
		c0-3,2.4-5.4,5.4-5.4c0.9,0,1.8,0.2,2.5,0.6c2-2.7,5.1-4.3,8.5-4.3c5.6,0,10.2,4.4,10.6,9.9c3.1,0.9,5.3,3.8,5.3,7.1
		C183.9-35.8,180.5-32.5,176.4-32.5z M155.4-33.6h21c0,0,0,0,0.1,0c3.5,0,6.3-2.9,6.3-6.3c0-3.5-2.8-6.3-6.3-6.3
		c-0.3,0-0.6-0.3-0.6-0.6s0.3-0.6,0.6-0.6c0.3,0,0.7,0,1,0.1c-0.5-4.8-4.5-8.6-9.4-8.6c-3,0-5.8,1.4-7.6,3.8
		c0.6,0.5,1.1,1.1,1.4,1.8c0.1,0.3,0,0.6-0.3,0.8c-0.3,0.1-0.6,0-0.8-0.3c-0.7-1.5-2.2-2.4-3.8-2.4c-2.4,0-4.3,1.9-4.3,4.3
		c0,0.2,0,0.4,0,0.6c0,0,0,0.1,0,0.1c0,0.1,0,0.2-0.1,0.2c0,0.1-0.1,0.1-0.2,0.2c0,0-0.1,0-0.1,0.1c-2.4,1.1-3.9,3.6-3.9,6.2
		C148.5-36.7,151.6-33.6,155.4-33.6z M172.3-34.8c0,0-0.1,0-0.1,0l-8.7-1.7c0,0-0.1,0-0.1,0l-6.8-1.3c-0.3-0.1-0.5-0.3-0.5-0.6v-8.2
		c0-0.3,0.2-0.5,0.4-0.6l15.6-3.3c0.2,0,0.3,0,0.5,0.1c0.1,0.1,0.2,0.3,0.2,0.4v14.5c0,0.2-0.1,0.3-0.2,0.4
		C172.6-34.8,172.5-34.8,172.3-34.8z M164.1-37.5l7.6,1.5v-6.1h-7.6V-37.5z M157.3-38.8l5.7,1.1v-4.4h-5.7V-38.8z M164.1-43.2h7.6
		v-6l-7.6,1.6V-43.2z M157.3-43.2h5.7v-4.1l-5.7,1.2V-43.2z"/>
</g>
<g>
	<path class="st1" d="M23.8,47.6C10.7,47.6,0,36.9,0,23.8C0,10.7,10.7,0,23.8,0c13.1,0,23.8,10.7,23.8,23.8
		C47.6,36.9,36.9,47.6,23.8,47.6z M23.8,1.7c-12.2,0-22.1,9.9-22.1,22.1c0,12.2,9.9,22.1,22.1,22.1c12.2,0,22.1-9.9,22.1-22.1
		C45.9,11.6,36,1.7,23.8,1.7z"/>
</g>
<g>
	<path class="st1" d="M26.9,39.4c-0.1,0-0.1,0-0.2,0l-16.5-6.3c0,0-0.1,0-0.1-0.1C10,33,9.9,33,9.9,32.9c0,0,0,0,0,0l0,0
		c0-0.1-0.1-0.1-0.1-0.2c0,0,0,0,0,0s0,0,0,0c0,0,0-0.1,0-0.1c0,0,0,0,0,0l0.1-17.7c0-0.2,0.1-0.4,0.4-0.5l16.5-6.1
		c0.1,0,0.2,0,0.3,0l8.9,2.5c0.2,0.1,0.4,0.3,0.4,0.5v25.2c0,0.3-0.2,0.5-0.4,0.5L27,39.4C27,39.4,26.9,39.4,26.9,39.4z M15.8,34
		l11.1,4.2l8.3-2.1V11.7l-8.3-2.3L11,15.2l-0.1,16.5l4.7-1.9V16.1c0-0.3,0.2-0.5,0.4-0.5l10.7-2.9c0.2,0,0.4,0,0.5,0.1
		c0.1,0.1,0.2,0.3,0.2,0.4v22.1c0,0.2-0.1,0.3-0.2,0.4c-0.1,0.1-0.3,0.2-0.5,0.1L15.8,34z M12.4,32.3l13.9,2.3V13.9l-9.6,2.6v13.8
		c0,0.2-0.1,0.4-0.4,0.5L12.4,32.3z"/>
</g>
</svg>
