<?xml version="1.0" encoding="utf-8"?>
<!-- Generator: Adobe Illustrator 21.1.0, SVG Export Plug-In . SVG Version: 6.00 Build 0)  -->
<svg version="1.1" id="Layer_1" xmlns="http://www.w3.org/2000/svg" xmlns:xlink="http://www.w3.org/1999/xlink" x="0px" y="0px"
	 viewBox="0 0 47.6 47.6" style="enable-background:new 0 0 47.6 47.6;" xml:space="preserve">
<style type="text/css">
	.st0{fill:none;stroke:#662F8F;stroke-width:4;stroke-linecap:round;stroke-linejoin:round;stroke-miterlimit:10;}
	.st1{fill:#662F8F;}
	.st2{fill:none;stroke:#662F8F;stroke-width:2;stroke-linecap:round;stroke-linejoin:round;stroke-miterlimit:10;}
	.st3{fill:none;stroke:#FFFFFF;stroke-width:0.488;stroke-linecap:round;stroke-linejoin:round;stroke-miterlimit:10;}
	.st4{fill:none;stroke:#E73E51;stroke-width:1.6927;}
	.st5{fill:none;stroke:#E73E51;stroke-width:1.1285;stroke-linecap:round;stroke-linejoin:round;stroke-miterlimit:10;}
	.st6{fill:#E73E51;}
	
		.st7{clip-path:url(#SVGID_2_);fill:none;stroke:#E73E51;stroke-width:1.1285;stroke-linecap:round;stroke-linejoin:round;stroke-miterlimit:10;}
	.st8{fill:none;stroke:#EE4050;stroke-width:1.1285;stroke-linecap:round;stroke-linejoin:round;stroke-miterlimit:10;}
</style>
<g>
	<path class="st0" d="M-504.6-105.2c9.6-9.6,22.8-15.5,37.3-15.5"/>
	<path class="st0" d="M-490.3-90.8c5.9-5.9,14-9.5,23-9.5"/>
	<path class="st0" d="M-533.4-134c17.7-17.7,41.2-27.4,66.1-27.4c25,0,48.4,9.7,66.1,27.4"/>
	<path class="st0" d="M-415.6-119.6c-13.3-13.3-31.6-21.5-51.7-21.5c-20.2,0-38.5,8.2-51.7,21.5"/>
	<path class="st0" d="M-430-105.2c-9.6-9.6-22.8-15.5-37.3-15.5"/>
	<path class="st0" d="M-444.3-90.8c-5.9-5.9-14-9.5-23-9.5"/>
	<path class="st0" d="M-458.7-59.3c-2.2,2.2-5.2,3.5-8.6,3.5c-6.7,0-12.1-5.4-12.1-12.1S-474-80-467.3-80c3.3,0,6.4,1.4,8.6,3.5"/>
	<path class="st0" d="M-415.6-119.6c4,4,4,10.4,0,14.4s-10.4,4-14.4,0"/>
	<path class="st0" d="M-490.3-90.8c-4,4-10.4,4-14.4,0c-4-4-4-10.4,0-14.4"/>
	<path class="st0" d="M-444.3-90.8c4,4,4,10.4,0,14.4c-4,4-10.4,4-14.4,0"/>
	<path class="st0" d="M-519-119.6c-4,4-10.4,4-14.4,0s-4-10.4,0-14.4"/>
</g>
<g>
	<path class="st1" d="M-321.5-171.1c-28.7,0-52,23.3-52,52s23.3,52,52,52s52-23.3,52-52S-292.9-171.1-321.5-171.1z M-321.5-70.8
		c-26.6,0-48.3-21.7-48.3-48.3s21.7-48.3,48.3-48.3s48.3,21.7,48.3,48.3S-294.9-70.8-321.5-70.8z"/>
	<path class="st1" d="M-285-125c-4.8-4.7-10.4-8.3-16.4-10.7c0-0.3,0.1-0.7,0.1-1c0-11.1-9-20.2-20.2-20.2s-20.2,9-20.2,20.2
		c0,0.6,0,1.1,0.1,1.7c-5.5,2.4-10.5,5.8-14.9,10.1c0,0-0.1,0.1-0.1,0.1c-1.2,1.2-1.8,2.8-1.8,4.5c0,1.7,0.7,3.4,1.9,4.6
		c2.6,2.5,6.7,2.5,9.3,0c0,0,0,0,0,0c3.2-3.1,6.8-5.6,10.8-7.4c2.3,2.5,5.2,4.5,8.5,5.5c-5,1.2-9.6,3.7-13.4,7.4
		c0,0-0.1,0.1-0.1,0.1c-1.3,1.2-1.9,2.9-1.9,4.6c0,1.7,0.7,3.4,1.9,4.6c2.6,2.5,6.7,2.5,9.3,0c0,0,0,0,0,0h0c3-2.9,7-4.5,11.3-4.5
		c4.3,0,8.3,1.6,11.3,4.5c0,0,0,0,0,0c0.8,0.8,1.2,1.8,1.2,2.8c0,1.1-0.4,2.1-1.2,2.8c-1.6,1.6-4.3,1.6-5.9,0c0,0-0.1-0.1-0.1-0.1
		c-1.4-1.3-3.3-2.1-5.3-2.1c-4.2,0-7.6,3.3-7.6,7.5c0,4.1,3.4,7.5,7.6,7.5c2,0,3.9-0.8,5.4-2.2c0.5-0.5,0.5-1.3,0-1.7
		c-0.5-0.5-1.3-0.5-1.7,0c-1,1-2.3,1.5-3.7,1.5c-2.8,0-5.2-2.2-5.2-5c0-2.8,2.3-5,5.2-5c1.4,0,2.7,0.5,3.7,1.5c0,0,0.1,0.1,0.1,0.1
		c2.6,2.4,6.7,2.4,9.2-0.1c1.3-1.2,1.9-2.9,1.9-4.6s-0.7-3.4-1.9-4.6c0,0,0,0,0,0c-3.5-3.4-8.1-5.2-13-5.2c-4.9,0-9.5,1.9-13,5.2
		c0,0,0,0,0,0c-1.6,1.6-4.3,1.6-5.9,0c-0.8-0.8-1.2-1.8-1.2-2.8c0-1,0.4-2,1.1-2.7c0,0,0.1-0.1,0.1-0.1c5-4.9,11.7-7.6,18.8-7.6
		c7.1,0,13.8,2.7,18.8,7.6c0,0,0,0,0,0c2.6,2.5,6.7,2.5,9.3,0c1.3-1.2,1.9-2.9,1.9-4.6c0-1.7-0.7-3.4-1.9-4.6c0,0,0,0,0,0
		c-3.6-3.5-7.7-6.2-12.1-8.1c1.5-2.2,2.5-4.8,3-7.5c5.5,2.3,10.6,5.7,15,9.9c0.5,0.5,1.3,0.5,1.7,0
		C-284.5-123.7-284.5-124.5-285-125z M-348.9-117.5C-348.9-117.5-348.9-117.5-348.9-117.5c-1.6,1.6-4.3,1.6-5.9,0
		c-0.8-0.8-1.2-1.8-1.2-2.8c0-1.1,0.4-2.1,1.2-2.8c0,0,0.1-0.1,0.1-0.1c4-3.9,8.5-6.9,13.5-9.2c0.6,2.7,1.7,5.2,3.3,7.4
		C-342-123.2-345.7-120.7-348.9-117.5z M-294.3-115.8C-294.3-115.8-294.3-115.8-294.3-115.8c0.8,0.8,1.2,1.8,1.2,2.8
		c0,1.1-0.4,2.1-1.2,2.8c-1.6,1.6-4.3,1.6-5.9,0c0,0,0,0,0,0c-4-3.9-9-6.5-14.4-7.7c3.3-1.2,6.1-3.2,8.4-5.8
		C-301.8-121.8-297.8-119.2-294.3-115.8z M-321.5-119c-9.8,0-17.7-7.9-17.7-17.7c0-9.8,7.9-17.7,17.7-17.7s17.7,7.9,17.7,17.7
		C-303.8-127-311.8-119-321.5-119z"/>
	<path class="st1" d="M-329.2-138h-1.9l0.1-3.7h5.6v-1.5h-7.1l-0.2,6.6h2.9c2.5,0,3.4,1.1,3.4,2.5c0,1.4-1,2.5-2.8,2.5
		c-1.3,0-2.5-0.6-3.4-1.6l-1,1c1.1,1.3,2.6,2,4.4,2c2.4,0,4.5-1.5,4.5-4.2C-324.7-136.3-326.1-138-329.2-138z"/>
	<path class="st1" d="M-315.2-137.2v1.5h3.9c-0.3,2.5-1.9,4.1-4.5,4.1c-2.8,0-4.9-2.1-4.9-5.1c0-3,2.2-5.1,5-5.1
		c1.6,0,2.9,0.7,3.8,1.7l1.2-1.2c-1.2-1.3-3-2.1-5-2.1c-3.9,0-6.7,2.8-6.7,6.7c0,4.2,3.2,6.7,6.6,6.7c3.9,0,6.3-3,6.3-6.7
		c0-0.1,0-0.3,0-0.4H-315.2z"/>
</g>
<g>
	<line class="st2" x1="-189.7" y1="-85.5" x2="-189.7" y2="-76.8"/>
	<path class="st2" d="M-203.4-76.8c-2.8,0-5.2-2.3-5.2-5.2v-77.8c0-2.8,2.3-5.2,5.2-5.2h69.9c2.8,0,5.2,2.3,5.2,5.2V-82
		c0,2.8-2.3,5.2-5.2,5.2h-56.2"/>
	<path class="st2" d="M-189.7-85.5h-5c-2.8,0-5.2-2.3-5.2-5.2v-60.4c0-2.8,2.3-5.2,5.2-5.2h10.1c2.8,0,5.2,2.3,5.2,5.2v60.4"/>
	<g>
		<g>
			<circle class="st2" cx="-167.7" cy="-135.6" r="3.8"/>
			<circle class="st2" cx="-153.8" cy="-135.6" r="3.8"/>
			<circle class="st2" cx="-139.9" cy="-135.6" r="3.8"/>
			<circle class="st2" cx="-167.7" cy="-121.7" r="3.8"/>
			<circle class="st2" cx="-153.8" cy="-121.7" r="3.8"/>
			<circle class="st2" cx="-139.9" cy="-121.7" r="3.8"/>
			<circle class="st2" cx="-167.7" cy="-107.8" r="3.8"/>
			<circle class="st2" cx="-153.8" cy="-107.8" r="3.8"/>
			<circle class="st2" cx="-139.9" cy="-107.8" r="3.8"/>
			<circle class="st2" cx="-167.7" cy="-93.9" r="3.8"/>
			<circle class="st2" cx="-153.8" cy="-93.9" r="3.8"/>
			<circle class="st2" cx="-139.9" cy="-93.9" r="3.8"/>
		</g>
		<line class="st2" x1="-171.5" y1="-151.6" x2="-136.1" y2="-151.6"/>
	</g>
</g>
<g>
	<path class="st3" d="M-272.3,27v-1c0-2.7-2.1-4.9-4.8-5c-2.8-0.1-5.1,2.2-5.1,4.9l0,3.8h10.9c0.7,0,1.3,0.6,1.3,1.3v8.6
		c0,0.7-0.6,1.3-1.3,1.3h-2.7c-0.5,0-1-0.4-1.1-0.9l-0.8-3.2v0c0.6-0.5,0.9-1.2,0.8-2.1c-0.1-1-1-1.7-1.9-1.9
		c-1.3-0.1-2.5,0.9-2.5,2.2c0,0.7,0.3,1.3,0.8,1.7h0c0,0-0.5,2-0.8,3.2c-0.1,0.5-0.6,0.9-1.1,0.9h-2.7c-0.7,0-1.3-0.6-1.3-1.3v-8.6"
		/>
</g>
<g>
	<circle class="st4" cx="-154" cy="34.2" r="23"/>
	<path class="st5" d="M-177.3,34.2l23.2-0.1 M-154.1,34.1V11V34.1z M-142.4,34.1c0,6.4-5.2,11.6-11.6,11.6
		c-6.4,0-11.7-5.2-11.7-11.6c0-6.4,5.2-11.6,11.7-11.6C-147.6,22.4-142.4,27.6-142.4,34.1z M-136.8,34.1c0,9.5-7.7,17.3-17.3,17.3
		c-9.5,0-17.3-7.7-17.3-17.3c0-9.5,7.7-17.3,17.3-17.3C-144.6,16.8-136.8,24.5-136.8,34.1z"/>
	<path class="st6" d="M-169.8,28.8c1.2,0,2.2-1,2.2-2.2c0-1.2-1-2.2-2.2-2.2c-1.2,0-2.2,1-2.2,2.2C-172,27.8-171,28.8-169.8,28.8"/>
</g>
<g>
	<circle class="st4" cx="-212.5" cy="34.7" r="23"/>
	<path class="st5" d="M-201.7,27.3l7.1,7.2 M-201.7,27.3l-7.1,10.3 M-215.8,41.8l7.1-4.2 M-215.8,41.8l-7.1-9.5 M-229.9,37.2
		l7.1-4.9"/>
	<path class="st6" d="M-225,32.3c0-1.2,1-2.1,2.1-2.1s2.1,1,2.1,2.1c0,1.2-1,2.1-2.1,2.1S-225,33.5-225,32.3"/>
	<path class="st6" d="M-217.9,41.8c0-1.2,1-2.1,2.1-2.1s2.1,1,2.1,2.1c0,1.2-1,2.1-2.1,2.1S-217.9,43-217.9,41.8"/>
	<path class="st6" d="M-210.9,37.6c0-1.2,1-2.1,2.1-2.1c1.2,0,2.1,1,2.1,2.1c0,1.2-1,2.1-2.1,2.1C-209.9,39.8-210.9,38.8-210.9,37.6
		"/>
	<path class="st6" d="M-203.8,27.3c0-1.2,1-2.1,2.1-2.1c1.2,0,2.1,1,2.1,2.1c0,1.2-1,2.1-2.1,2.1C-202.9,29.5-203.8,28.5-203.8,27.3
		"/>
	<path class="st6" d="M-196.9,34.4c0-1.2,1-2.1,2.1-2.1c1.2,0,2.1,1,2.1,2.1c0,1.2-1,2.1-2.1,2.1C-196,36.5-196.9,35.6-196.9,34.4"
		/>
	<path class="st6" d="M-231.8,37.1c0-1.2,1-2.1,2.1-2.1c1.2,0,2.1,1,2.1,2.1c0,1.2-1,2.1-2.1,2.1C-230.8,39.2-231.8,38.2-231.8,37.1
		"/>
</g>
<g>
	<circle class="st4" cx="-104.3" cy="-6" r="23"/>
	<g>
		<defs>
			<path id="SVGID_1_" d="M-128.1-6.3c0,12.4,9.6,22.6,21.8,23.5h3.6C-91,16.4-81.6,6.9-81-4.9v-2.7c-0.7-12.4-11-22.2-23.6-22.2
				C-117.5-29.9-128.1-19.3-128.1-6.3"/>
		</defs>
		<clipPath id="SVGID_2_">
			<use xlink:href="#SVGID_1_"  style="overflow:visible;"/>
		</clipPath>
		<path class="st7" d="M-81.5,25.3h-12.1c-0.5,0-0.9-0.4-0.9-0.9v-5.2c0-0.5,0.4-0.9,0.9-0.9h12.1c0.5,0,0.9,0.4,0.9,0.9v5.2
			C-80.6,24.9-81,25.3-81.5,25.3z M-95.5,25.3h-12.1c-0.5,0-0.9-0.4-0.9-0.9v-5.2c0-0.5,0.4-0.9,0.9-0.9h12.1c0.5,0,0.9,0.4,0.9,0.9
			v5.2C-94.6,24.9-95,25.3-95.5,25.3z M-109.4,25.3h-12.1c-0.5,0-0.9-0.4-0.9-0.9v-5.2c0-0.5,0.4-0.9,0.9-0.9h12.1
			c0.5,0,0.9,0.4,0.9,0.9v5.2C-108.5,24.9-108.9,25.3-109.4,25.3z M-123.4,25.3h-12.1c-0.5,0-0.9-0.4-0.9-0.9v-5.2
			c0-0.5,0.4-0.9,0.9-0.9h12.1c0.5,0,0.9,0.4,0.9,0.9v5.2C-122.5,24.9-122.9,25.3-123.4,25.3z M-74.3,18.2h-12.1
			c-0.5,0-0.9-0.4-0.9-0.9v-5.2c0-0.5,0.4-0.9,0.9-0.9h12.1c0.5,0,0.9,0.4,0.9,0.9v5.2C-73.3,17.8-73.7,18.2-74.3,18.2z M-88.2,18.2
			h-12.1c-0.5,0-0.9-0.4-0.9-0.9v-5.2c0-0.5,0.4-0.9,0.9-0.9h12.1c0.5,0,0.9,0.4,0.9,0.9v5.2C-87.3,17.8-87.7,18.2-88.2,18.2z
			 M-102.1,18.2h-12.1c-0.5,0-0.9-0.4-0.9-0.9v-5.2c0-0.5,0.4-0.9,0.9-0.9h12.1c0.5,0,0.9,0.4,0.9,0.9v5.2
			C-101.2,17.8-101.6,18.2-102.1,18.2z M-116.1,18.2h-12.1c-0.5,0-0.9-0.4-0.9-0.9v-5.2c0-0.5,0.4-0.9,0.9-0.9h12.1
			c0.5,0,0.9,0.4,0.9,0.9v5.2C-115.2,17.8-115.6,18.2-116.1,18.2z M-81.5,11.1h-12.1c-0.5,0-0.9-0.4-0.9-0.9V5
			c0-0.5,0.4-0.9,0.9-0.9h12.1c0.5,0,0.9,0.4,0.9,0.9v5.2C-80.6,10.7-81,11.1-81.5,11.1z M-95.5,11.1h-12.1c-0.5,0-0.9-0.4-0.9-0.9
			V5c0-0.5,0.4-0.9,0.9-0.9h12.1c0.5,0,0.9,0.4,0.9,0.9v5.2C-94.6,10.7-95,11.1-95.5,11.1z M-109.4,11.1h-12.1
			c-0.5,0-0.9-0.4-0.9-0.9V5c0-0.5,0.4-0.9,0.9-0.9h12.1c0.5,0,0.9,0.4,0.9,0.9v5.2C-108.5,10.7-108.9,11.1-109.4,11.1z
			 M-123.4,11.1h-12.1c-0.5,0-0.9-0.4-0.9-0.9V5c0-0.5,0.4-0.9,0.9-0.9h12.1c0.5,0,0.9,0.4,0.9,0.9v5.2
			C-122.5,10.7-122.9,11.1-123.4,11.1z M-74.3,4h-12.1c-0.5,0-0.9-0.4-0.9-0.9v-5.2c0-0.5,0.4-0.9,0.9-0.9h12.1
			c0.5,0,0.9,0.4,0.9,0.9v5.2C-73.3,3.6-73.7,4-74.3,4z M-88.2,4h-12.1c-0.5,0-0.9-0.4-0.9-0.9v-5.2c0-0.5,0.4-0.9,0.9-0.9h12.1
			c0.5,0,0.9,0.4,0.9,0.9v5.2C-87.3,3.6-87.7,4-88.2,4z M-102.1,4h-12.1c-0.5,0-0.9-0.4-0.9-0.9v-5.2c0-0.5,0.4-0.9,0.9-0.9h12.1
			c0.5,0,0.9,0.4,0.9,0.9v5.2C-101.2,3.6-101.6,4-102.1,4z M-116.1,4h-12.1c-0.5,0-0.9-0.4-0.9-0.9v-5.2c0-0.5,0.4-0.9,0.9-0.9h12.1
			c0.5,0,0.9,0.4,0.9,0.9v5.2C-115.2,3.6-115.6,4-116.1,4z M-81.5-3.1h-12.1c-0.5,0-0.9-0.4-0.9-0.9v-5.2c0-0.5,0.4-0.9,0.9-0.9
			h12.1c0.5,0,0.9,0.4,0.9,0.9V-4C-80.6-3.5-81-3.1-81.5-3.1z M-95.5-3.1h-12.1c-0.5,0-0.9-0.4-0.9-0.9v-5.2c0-0.5,0.4-0.9,0.9-0.9
			h12.1c0.5,0,0.9,0.4,0.9,0.9V-4C-94.6-3.5-95-3.1-95.5-3.1z M-109.4-3.1h-12.1c-0.5,0-0.9-0.4-0.9-0.9v-5.2c0-0.5,0.4-0.9,0.9-0.9
			h12.1c0.5,0,0.9,0.4,0.9,0.9V-4C-108.5-3.5-108.9-3.1-109.4-3.1z M-123.4-3.1h-12.1c-0.5,0-0.9-0.4-0.9-0.9v-5.2
			c0-0.5,0.4-0.9,0.9-0.9h12.1c0.5,0,0.9,0.4,0.9,0.9V-4C-122.5-3.5-122.9-3.1-123.4-3.1z"/>
	</g>
</g>
<circle class="st4" cx="-42.4" cy="19.4" r="23"/>
<path class="st8" d="M-42.3,28.6c-1.2-0.5-5.6-2.7-5.6-7.1v-6.8c2.6-0.1,4.7-1,5.6-1.5c0.9,0.5,3,1.4,5.6,1.5v6.8
	C-36.7,25.9-41.1,28.1-42.3,28.6z"/>
<path class="st8" d="M-39.9,23.5h-4.8V20h4.8V23.5z M-43.8,20v-1.4c0-0.8,0.7-1.5,1.5-1.5c0.8,0,1.5,0.7,1.5,1.5V20"/>
<path class="st8" d="M-28.7,12.5l0-1.4c0-0.5-0.4-0.9-0.9-0.9l-12.3,0.1l-3.6-3.6l-8.6,0c-1,0-1.9,0.9-1.9,1.9l0.1,22.7h27.2V12.5z"
	/>
<g>
	<circle class="st4" cx="23.8" cy="23.8" r="23"/>
	<path class="st8" d="M34.2,32.6c0,1.8-1.5,3.3-3.3,3.3s-3.3-1.5-3.3-3.3c0-1.8,1.5-3.3,3.3-3.3S34.2,30.7,34.2,32.6z M30.2,31.7
		l0.8,2l1.5-3.9 M15.1,28.7h9.1 M15.1,25.8h14.7 M15.1,23h14.7 M15.1,20.2h14.7 M15.1,17.4h9.9 M15.1,14.5h9.9 M29.7,8.9h6.9v29.8
		H11.4V8.9H29.7z"/>
</g>
</svg>
