<?xml version="1.0" encoding="utf-8"?>
<!-- Generator: Adobe Illustrator 21.1.0, SVG Export Plug-In . SVG Version: 6.00 Build 0)  -->
<svg version="1.1" id="Layer_1" xmlns="http://www.w3.org/2000/svg" xmlns:xlink="http://www.w3.org/1999/xlink" x="0px" y="0px"
	 viewBox="0 0 259.9 240.1" style="enable-background:new 0 0 259.9 240.1;" xml:space="preserve">
<style type="text/css">
	.st0{fill:#F98298;}
	.st1{fill:none;stroke:#662D91;stroke-width:1.8586;stroke-linecap:round;stroke-linejoin:round;stroke-miterlimit:10;}
</style>
<g>
	<circle class="st0" cx="128" cy="114.3" r="101.5"/>
	<circle class="st1" cx="124.6" cy="110.9" r="101.5"/>
	<path class="st1" d="M238.1,75.8c-13,23-45.9,52.5-88.7,77.2c-63.5,36.6-124.9,49.1-137.1,27.9c-5.7-9.9,0.2-25.3,14.6-42.7"/>
	<path class="st1" d="M196.9,39.6c22.7-4,39.4-1.5,45.2,8.5c2,3.5,2.6,7.7,1.8,12.5"/>
	<path class="st1" d="M46.9,90.9C51.2,74,60.9,59.2,74.1,48.6"/>
	<g>
		<path class="st1" d="M227.3,168.2c0,2.5-2,4.6-4.6,4.6"/>
		<path class="st1" d="M227.3,168.2c0,2.5,2,4.6,4.6,4.6"/>
		<path class="st1" d="M227.3,177.3c0-2.5-2-4.6-4.6-4.6"/>
		<path class="st1" d="M227.3,177.3c0-2.5,2-4.6,4.6-4.6"/>
	</g>
	<circle class="st1" cx="241.7" cy="68.5" r="8.1"/>
	<circle class="st1" cx="165.5" cy="226.5" r="4.2"/>
</g>
</svg>
