<?xml version="1.0" encoding="utf-8"?>
<!-- Generator: Adobe Illustrator 21.1.0, SVG Export Plug-In . SVG Version: 6.00 Build 0)  -->
<svg version="1.1" id="Layer_1" xmlns="http://www.w3.org/2000/svg" xmlns:xlink="http://www.w3.org/1999/xlink" x="0px" y="0px"
	 viewBox="0 0 131.1 109.8" style="enable-background:new 0 0 131.1 109.8;" xml:space="preserve">
<style type="text/css">
	.st0{fill:none;stroke:#FFFFFF;stroke-width:3.0903;stroke-linecap:round;stroke-linejoin:round;stroke-miterlimit:10;}
</style>
<g>
	<path class="st0" d="M61.4,90.4c-17.8-1.7-31.7-16.7-31.7-34.9c0-2.9,0.4-5.8,1-8.5"/>
	<path class="st0" d="M96.3,40c2.3,4.7,3.6,9.9,3.6,15.4c0,17.3-12.5,31.6-29,34.5"/>
	<path class="st0" d="M34.9,37.2c6.2-10.1,17.3-16.8,29.9-16.8c9.2,0,17.6,3.6,23.9,9.4"/>
	<path class="st0" d="M96.3,40.1c13.9,1.1,23.2,4.3,23.7,8.9c0.8,7.8-23.3,16.8-54,20.1c-30.6,3.3-56.2-0.4-57-8.1
		c-0.5-4.7,8.1-9.8,21.7-13.9"/>
	<path class="st0" d="M34.9,37.2c-6.6-12.4-8.9-22-5.2-25C35.8,7.4,56.4,23,75.5,47.1s29.8,47.6,23.6,52.5
		c-2.8,2.2-8.7,0.2-16.1-5.1"/>
	<path class="st0" d="M61.4,90.4c-8.2,11.7-15.8,18.3-20.1,16.4c-7.1-3.2-2.6-28.6,10.2-56.7s28.9-48.2,36-44.9
		c4.2,1.9,4.4,11.5,1.2,24.7"/>
</g>
</svg>
