<?xml version="1.0" encoding="utf-8"?>
<!-- Generator: Adobe Illustrator 21.1.0, SVG Export Plug-In . SVG Version: 6.00 Build 0)  -->
<svg version="1.1" id="Layer_1" xmlns="http://www.w3.org/2000/svg" xmlns:xlink="http://www.w3.org/1999/xlink" x="0px" y="0px"
	 viewBox="0 0 47.6 47.6" style="enable-background:new 0 0 47.6 47.6;" xml:space="preserve">
<style type="text/css">
	.st0{fill:none;stroke:#662F8F;stroke-width:4;stroke-linecap:round;stroke-linejoin:round;stroke-miterlimit:10;}
	.st1{fill:#662F8F;}
	.st2{fill:none;stroke:#662F8F;stroke-width:2;stroke-linecap:round;stroke-linejoin:round;stroke-miterlimit:10;}
	.st3{fill:none;stroke:#FFFFFF;stroke-width:0.488;stroke-linecap:round;stroke-linejoin:round;stroke-miterlimit:10;}
	.st4{fill:none;stroke:#E73E51;stroke-width:1.6927;}
	.st5{fill:none;stroke:#E73E51;stroke-width:1.1285;stroke-linecap:round;stroke-linejoin:round;stroke-miterlimit:10;}
	.st6{fill:#E73E51;}
	
		.st7{clip-path:url(#SVGID_2_);fill:none;stroke:#E73E51;stroke-width:1.1285;stroke-linecap:round;stroke-linejoin:round;stroke-miterlimit:10;}
	.st8{fill:none;stroke:#EE4050;stroke-width:1.1285;stroke-linecap:round;stroke-linejoin:round;stroke-miterlimit:10;}
	.st9{fill:none;stroke:#FFFFFF;stroke-width:0.574;stroke-linecap:round;stroke-linejoin:round;stroke-miterlimit:10;}
	.st10{fill:none;stroke:#A491C4;stroke-width:0.5657;stroke-miterlimit:10;}
	.st11{fill:none;stroke:#F7F8F9;stroke-width:1.2708;stroke-miterlimit:10;}
	.st12{fill:url(#SVGID_3_);}
	.st13{fill:#9289C1;}
	.st14{fill:#F79F7C;}
	.st15{fill:#EF619B;}
	.st16{fill:#F28BB9;}
	.st17{fill:#FABEA9;}
	.st18{fill:#F37B8A;}
	.st19{fill:none;stroke:#633493;stroke-width:5.1599;stroke-linecap:round;stroke-linejoin:round;stroke-miterlimit:10;}
	.st20{fill:none;stroke:#FFFFFF;stroke-width:1.0098;stroke-linecap:round;stroke-linejoin:round;stroke-miterlimit:10;}
	.st21{fill:none;stroke:#662F8F;stroke-width:1.5111;stroke-linecap:round;stroke-linejoin:round;stroke-miterlimit:10;}
	.st22{fill:none;stroke:#FFFFFF;stroke-width:1.6611;stroke-linecap:round;stroke-linejoin:round;stroke-miterlimit:10;}
	.st23{fill:none;stroke:#662F8F;stroke-width:0.75;stroke-miterlimit:10;}
	.st24{fill:none;stroke:#E73E51;stroke-width:0.9998;stroke-linecap:round;stroke-linejoin:round;stroke-miterlimit:10;}
	.st25{fill:none;}
	.st26{fill:#EE4050;}
</style>
<g>
	<path class="st0" d="M-507-349.1c9.6-9.6,22.8-15.5,37.3-15.5"/>
	<path class="st0" d="M-492.6-334.7c5.9-5.9,14-9.5,23-9.5"/>
	<path class="st0" d="M-535.8-377.8c17.7-17.7,41.2-27.4,66.1-27.4c25,0,48.4,9.7,66.1,27.4"/>
	<path class="st0" d="M-417.9-363.4c-13.3-13.3-31.6-21.5-51.7-21.5c-20.2,0-38.5,8.2-51.7,21.5"/>
	<path class="st0" d="M-432.3-349.1c-9.6-9.6-22.8-15.5-37.3-15.5"/>
	<path class="st0" d="M-446.7-334.7c-5.9-5.9-14-9.5-23-9.5"/>
	<path class="st0" d="M-461.1-303.2c-2.2,2.2-5.2,3.5-8.6,3.5c-6.7,0-12.1-5.4-12.1-12.1s5.4-12.1,12.1-12.1c3.3,0,6.4,1.4,8.6,3.5"
		/>
	<path class="st0" d="M-417.9-363.4c4,4,4,10.4,0,14.4c-4,4-10.4,4-14.4,0"/>
	<path class="st0" d="M-492.6-334.7c-4,4-10.4,4-14.4,0c-4-4-4-10.4,0-14.4"/>
	<path class="st0" d="M-446.7-334.7c4,4,4,10.4,0,14.4c-4,4-10.4,4-14.4,0"/>
	<path class="st0" d="M-521.4-363.4c-4,4-10.4,4-14.4,0c-4-4-4-10.4,0-14.4"/>
</g>
<g>
	<path class="st1" d="M-323.9-415c-28.7,0-52,23.3-52,52s23.3,52,52,52s52-23.3,52-52S-295.2-415-323.9-415z M-323.9-314.6
		c-26.6,0-48.3-21.7-48.3-48.3s21.7-48.3,48.3-48.3s48.3,21.7,48.3,48.3S-297.2-314.6-323.9-314.6z"/>
	<path class="st1" d="M-287.3-368.8c-4.8-4.7-10.4-8.3-16.4-10.7c0-0.3,0.1-0.7,0.1-1c0-11.1-9-20.2-20.2-20.2s-20.2,9-20.2,20.2
		c0,0.6,0,1.1,0.1,1.7c-5.5,2.4-10.5,5.8-14.9,10.1c0,0-0.1,0.1-0.1,0.1c-1.2,1.2-1.8,2.8-1.8,4.5c0,1.7,0.7,3.4,1.9,4.6
		c2.6,2.5,6.7,2.5,9.3,0c0,0,0,0,0,0c3.2-3.1,6.8-5.6,10.8-7.4c2.3,2.5,5.2,4.5,8.5,5.5c-5,1.2-9.6,3.7-13.4,7.4
		c0,0-0.1,0.1-0.1,0.1c-1.3,1.2-1.9,2.9-1.9,4.6c0,1.7,0.7,3.4,1.9,4.6c2.6,2.5,6.7,2.5,9.3,0c0,0,0,0,0,0h0c3-2.9,7-4.5,11.3-4.5
		c4.3,0,8.3,1.6,11.3,4.5c0,0,0,0,0,0c0.8,0.8,1.2,1.8,1.2,2.8c0,1.1-0.4,2.1-1.2,2.8c-1.6,1.6-4.3,1.6-5.9,0c0,0-0.1-0.1-0.1-0.1
		c-1.4-1.3-3.3-2.1-5.3-2.1c-4.2,0-7.6,3.3-7.6,7.5c0,4.1,3.4,7.5,7.6,7.5c2,0,3.9-0.8,5.4-2.2c0.5-0.5,0.5-1.3,0-1.7
		c-0.5-0.5-1.3-0.5-1.7,0c-1,1-2.3,1.5-3.7,1.5c-2.8,0-5.2-2.2-5.2-5c0-2.8,2.3-5,5.2-5c1.4,0,2.7,0.5,3.7,1.5c0,0,0.1,0.1,0.1,0.1
		c2.6,2.4,6.7,2.4,9.2-0.1c1.3-1.2,1.9-2.9,1.9-4.6s-0.7-3.4-1.9-4.6c0,0,0,0,0,0c-3.5-3.4-8.1-5.2-13-5.2c-4.9,0-9.5,1.9-13,5.2
		c0,0,0,0,0,0c-1.6,1.6-4.3,1.6-5.9,0c-0.8-0.8-1.2-1.8-1.2-2.8c0-1,0.4-2,1.1-2.7c0,0,0.1-0.1,0.1-0.1c5-4.9,11.7-7.6,18.8-7.6
		c7.1,0,13.8,2.7,18.8,7.6c0,0,0,0,0,0c2.6,2.5,6.7,2.5,9.3,0c1.3-1.2,1.9-2.9,1.9-4.6c0-1.7-0.7-3.4-1.9-4.6c0,0,0,0,0,0
		c-3.6-3.5-7.7-6.2-12.1-8.1c1.5-2.2,2.5-4.8,3-7.5c5.5,2.3,10.6,5.7,15,9.9c0.5,0.5,1.3,0.5,1.7,0
		C-286.8-367.6-286.8-368.3-287.3-368.8z M-351.3-361.4C-351.3-361.4-351.3-361.4-351.3-361.4c-1.6,1.6-4.3,1.6-5.9,0
		c-0.8-0.8-1.2-1.8-1.2-2.8c0-1.1,0.4-2.1,1.2-2.8c0,0,0.1-0.1,0.1-0.1c4-3.9,8.5-6.9,13.5-9.2c0.6,2.7,1.7,5.2,3.3,7.4
		C-344.3-367.1-348-364.5-351.3-361.4z M-296.7-359.6C-296.7-359.6-296.7-359.6-296.7-359.6c0.8,0.8,1.2,1.8,1.2,2.8
		c0,1.1-0.4,2.1-1.2,2.8c-1.6,1.6-4.3,1.6-5.9,0c0,0,0,0,0,0c-4-3.9-9-6.5-14.4-7.7c3.3-1.2,6.1-3.2,8.4-5.8
		C-304.2-365.7-300.1-363-296.7-359.6z M-323.9-362.9c-9.8,0-17.7-7.9-17.7-17.7c0-9.8,7.9-17.7,17.7-17.7s17.7,7.9,17.7,17.7
		C-306.2-370.8-314.1-362.9-323.9-362.9z"/>
	<path class="st1" d="M-331.5-381.9h-1.9l0.1-3.7h5.6v-1.5h-7.1l-0.2,6.6h2.9c2.5,0,3.4,1.1,3.4,2.5c0,1.4-1,2.5-2.8,2.5
		c-1.3,0-2.5-0.6-3.4-1.6l-1,1c1.1,1.3,2.6,2,4.4,2c2.4,0,4.5-1.5,4.5-4.2C-327-380.1-328.5-381.9-331.5-381.9z"/>
	<path class="st1" d="M-317.5-381v1.5h3.9c-0.3,2.5-1.9,4.1-4.5,4.1c-2.8,0-4.9-2.1-4.9-5.1c0-3,2.2-5.1,5-5.1
		c1.6,0,2.9,0.7,3.8,1.7l1.2-1.2c-1.2-1.3-3-2.1-5-2.1c-3.9,0-6.7,2.8-6.7,6.7c0,4.2,3.2,6.7,6.6,6.7c3.9,0,6.3-3,6.3-6.7
		c0-0.1,0-0.3,0-0.4H-317.5z"/>
</g>
<g>
	<line class="st2" x1="-192" y1="-329.3" x2="-192" y2="-320.6"/>
	<path class="st2" d="M-205.7-320.6c-2.8,0-5.2-2.3-5.2-5.2v-77.8c0-2.8,2.3-5.2,5.2-5.2h69.9c2.8,0,5.2,2.3,5.2,5.2v77.8
		c0,2.8-2.3,5.2-5.2,5.2H-192"/>
	<path class="st2" d="M-192-329.3h-5c-2.8,0-5.2-2.3-5.2-5.2v-60.4c0-2.8,2.3-5.2,5.2-5.2h10.1c2.8,0,5.2,2.3,5.2,5.2v60.4"/>
	<g>
		<g>
			<circle class="st2" cx="-170" cy="-379.5" r="3.8"/>
			<circle class="st2" cx="-156.1" cy="-379.5" r="3.8"/>
			<circle class="st2" cx="-142.2" cy="-379.5" r="3.8"/>
			<circle class="st2" cx="-170" cy="-365.6" r="3.8"/>
			<circle class="st2" cx="-156.1" cy="-365.6" r="3.8"/>
			<circle class="st2" cx="-142.2" cy="-365.6" r="3.8"/>
			<circle class="st2" cx="-170" cy="-351.7" r="3.8"/>
			<circle class="st2" cx="-156.1" cy="-351.7" r="3.8"/>
			<circle class="st2" cx="-142.2" cy="-351.7" r="3.8"/>
			<circle class="st2" cx="-170" cy="-337.8" r="3.8"/>
			<circle class="st2" cx="-156.1" cy="-337.8" r="3.8"/>
			<circle class="st2" cx="-142.2" cy="-337.8" r="3.8"/>
		</g>
		<line class="st2" x1="-173.8" y1="-395.4" x2="-138.5" y2="-395.4"/>
	</g>
</g>
<g>
	<path class="st3" d="M-274.6-216.9v-1c0-2.7-2.1-4.9-4.8-5c-2.8-0.1-5.1,2.2-5.1,4.9l0,3.8h10.9c0.7,0,1.3,0.6,1.3,1.3v8.6
		c0,0.7-0.6,1.3-1.3,1.3h-2.7c-0.5,0-1-0.4-1.1-0.9l-0.8-3.2v0c0.6-0.5,0.9-1.2,0.8-2.1c-0.1-1-1-1.7-1.9-1.9
		c-1.3-0.1-2.5,0.9-2.5,2.2c0,0.7,0.3,1.3,0.8,1.7h0c0,0-0.5,2-0.8,3.2c-0.1,0.5-0.6,0.9-1.1,0.9h-2.7c-0.7,0-1.3-0.6-1.3-1.3v-8.6"
		/>
</g>
<g>
	<circle class="st4" cx="-156.4" cy="-209.6" r="23"/>
	<path class="st5" d="M-179.6-209.6l23.2-0.1 M-156.4-209.8v-23.1V-209.8z M-144.8-209.8c0,6.4-5.2,11.6-11.6,11.6
		c-6.4,0-11.7-5.2-11.7-11.6c0-6.4,5.2-11.6,11.7-11.6C-150-221.4-144.8-216.2-144.8-209.8z M-139.2-209.8c0,9.5-7.7,17.3-17.3,17.3
		c-9.5,0-17.3-7.7-17.3-17.3c0-9.5,7.7-17.3,17.3-17.3C-146.9-227-139.2-219.3-139.2-209.8z"/>
	<path class="st6" d="M-172.1-215c1.2,0,2.2-1,2.2-2.2c0-1.2-1-2.2-2.2-2.2c-1.2,0-2.2,1-2.2,2.2C-174.3-216-173.3-215-172.1-215"/>
</g>
<g>
	<circle class="st4" cx="-214.8" cy="-209.2" r="23"/>
	<path class="st5" d="M-204-216.5l7.1,7.2 M-204-216.5l-7.1,10.3 M-218.1-202l7.1-4.2 M-218.1-202l-7.1-9.5 M-232.2-206.6l7.1-4.9"
		/>
	<path class="st6" d="M-227.3-211.5c0-1.2,1-2.1,2.1-2.1s2.1,1,2.1,2.1c0,1.2-1,2.1-2.1,2.1S-227.3-210.4-227.3-211.5"/>
	<path class="st6" d="M-220.3-202c0-1.2,1-2.1,2.1-2.1s2.1,1,2.1,2.1c0,1.2-1,2.1-2.1,2.1S-220.3-200.9-220.3-202"/>
	<path class="st6" d="M-213.2-206.2c0-1.2,1-2.1,2.1-2.1c1.2,0,2.1,1,2.1,2.1c0,1.2-1,2.1-2.1,2.1
		C-212.3-204.1-213.2-205-213.2-206.2"/>
	<path class="st6" d="M-206.2-216.5c0-1.2,1-2.1,2.1-2.1c1.2,0,2.1,1,2.1,2.1c0,1.2-1,2.1-2.1,2.1
		C-205.2-214.4-206.2-215.3-206.2-216.5"/>
	<path class="st6" d="M-199.3-209.4c0-1.2,1-2.1,2.1-2.1c1.2,0,2.1,1,2.1,2.1c0,1.2-1,2.1-2.1,2.1
		C-198.3-207.3-199.3-208.3-199.3-209.4"/>
	<path class="st6" d="M-234.1-206.8c0-1.2,1-2.1,2.1-2.1c1.2,0,2.1,1,2.1,2.1c0,1.2-1,2.1-2.1,2.1
		C-233.2-204.7-234.1-205.6-234.1-206.8"/>
</g>
<g>
	<circle class="st4" cx="-106.6" cy="-249.9" r="23"/>
	<g>
		<defs>
			<path id="SVGID_1_" d="M-130.5-250.1c0,12.4,9.6,22.6,21.8,23.5h3.6c11.7-0.9,21.1-10.4,21.8-22.2v-2.7
				c-0.7-12.4-11-22.2-23.6-22.2C-119.9-273.7-130.5-263.1-130.5-250.1"/>
		</defs>
		<clipPath id="SVGID_2_">
			<use xlink:href="#SVGID_1_"  style="overflow:visible;"/>
		</clipPath>
		<path class="st7" d="M-83.9-218.6H-96c-0.5,0-0.9-0.4-0.9-0.9v-5.2c0-0.5,0.4-0.9,0.9-0.9h12.1c0.5,0,0.9,0.4,0.9,0.9v5.2
			C-82.9-219-83.3-218.6-83.9-218.6z M-97.9-218.6H-110c-0.5,0-0.9-0.4-0.9-0.9v-5.2c0-0.5,0.4-0.9,0.9-0.9h12.1
			c0.5,0,0.9,0.4,0.9,0.9v5.2C-96.9-219-97.3-218.6-97.9-218.6z M-111.7-218.6h-12.1c-0.5,0-0.9-0.4-0.9-0.9v-5.2
			c0-0.5,0.4-0.9,0.9-0.9h12.1c0.5,0,0.9,0.4,0.9,0.9v5.2C-110.8-219-111.2-218.6-111.7-218.6z M-125.7-218.6h-12.1
			c-0.5,0-0.9-0.4-0.9-0.9v-5.2c0-0.5,0.4-0.9,0.9-0.9h12.1c0.5,0,0.9,0.4,0.9,0.9v5.2C-124.8-219-125.2-218.6-125.7-218.6z
			 M-76.6-225.6h-12.1c-0.5,0-0.9-0.4-0.9-0.9v-5.2c0-0.5,0.4-0.9,0.9-0.9h12.1c0.5,0,0.9,0.4,0.9,0.9v5.2
			C-75.7-226-76.1-225.6-76.6-225.6z M-90.6-225.6h-12.1c-0.5,0-0.9-0.4-0.9-0.9v-5.2c0-0.5,0.4-0.9,0.9-0.9h12.1
			c0.5,0,0.9,0.4,0.9,0.9v5.2C-89.7-226-90.1-225.6-90.6-225.6z M-104.5-225.6h-12.1c-0.5,0-0.9-0.4-0.9-0.9v-5.2
			c0-0.5,0.4-0.9,0.9-0.9h12.1c0.5,0,0.9,0.4,0.9,0.9v5.2C-103.6-226-104-225.6-104.5-225.6z M-118.5-225.6h-12.1
			c-0.5,0-0.9-0.4-0.9-0.9v-5.2c0-0.5,0.4-0.9,0.9-0.9h12.1c0.5,0,0.9,0.4,0.9,0.9v5.2C-117.5-226-118-225.6-118.5-225.6z
			 M-83.9-232.7H-96c-0.5,0-0.9-0.4-0.9-0.9v-5.2c0-0.5,0.4-0.9,0.9-0.9h12.1c0.5,0,0.9,0.4,0.9,0.9v5.2
			C-82.9-233.2-83.3-232.7-83.9-232.7z M-97.9-232.7H-110c-0.5,0-0.9-0.4-0.9-0.9v-5.2c0-0.5,0.4-0.9,0.9-0.9h12.1
			c0.5,0,0.9,0.4,0.9,0.9v5.2C-96.9-233.2-97.3-232.7-97.9-232.7z M-111.7-232.7h-12.1c-0.5,0-0.9-0.4-0.9-0.9v-5.2
			c0-0.5,0.4-0.9,0.9-0.9h12.1c0.5,0,0.9,0.4,0.9,0.9v5.2C-110.8-233.2-111.2-232.7-111.7-232.7z M-125.7-232.7h-12.1
			c-0.5,0-0.9-0.4-0.9-0.9v-5.2c0-0.5,0.4-0.9,0.9-0.9h12.1c0.5,0,0.9,0.4,0.9,0.9v5.2C-124.8-233.2-125.2-232.7-125.7-232.7z
			 M-76.6-239.8h-12.1c-0.5,0-0.9-0.4-0.9-0.9v-5.2c0-0.5,0.4-0.9,0.9-0.9h12.1c0.5,0,0.9,0.4,0.9,0.9v5.2
			C-75.7-240.2-76.1-239.8-76.6-239.8z M-90.6-239.8h-12.1c-0.5,0-0.9-0.4-0.9-0.9v-5.2c0-0.5,0.4-0.9,0.9-0.9h12.1
			c0.5,0,0.9,0.4,0.9,0.9v5.2C-89.7-240.2-90.1-239.8-90.6-239.8z M-104.5-239.8h-12.1c-0.5,0-0.9-0.4-0.9-0.9v-5.2
			c0-0.5,0.4-0.9,0.9-0.9h12.1c0.5,0,0.9,0.4,0.9,0.9v5.2C-103.6-240.2-104-239.8-104.5-239.8z M-118.5-239.8h-12.1
			c-0.5,0-0.9-0.4-0.9-0.9v-5.2c0-0.5,0.4-0.9,0.9-0.9h12.1c0.5,0,0.9,0.4,0.9,0.9v5.2C-117.5-240.2-118-239.8-118.5-239.8z
			 M-83.9-246.9H-96c-0.5,0-0.9-0.4-0.9-0.9v-5.2c0-0.5,0.4-0.9,0.9-0.9h12.1c0.5,0,0.9,0.4,0.9,0.9v5.2
			C-82.9-247.3-83.3-246.9-83.9-246.9z M-97.9-246.9H-110c-0.5,0-0.9-0.4-0.9-0.9v-5.2c0-0.5,0.4-0.9,0.9-0.9h12.1
			c0.5,0,0.9,0.4,0.9,0.9v5.2C-96.9-247.3-97.3-246.9-97.9-246.9z M-111.7-246.9h-12.1c-0.5,0-0.9-0.4-0.9-0.9v-5.2
			c0-0.5,0.4-0.9,0.9-0.9h12.1c0.5,0,0.9,0.4,0.9,0.9v5.2C-110.8-247.3-111.2-246.9-111.7-246.9z M-125.7-246.9h-12.1
			c-0.5,0-0.9-0.4-0.9-0.9v-5.2c0-0.5,0.4-0.9,0.9-0.9h12.1c0.5,0,0.9,0.4,0.9,0.9v5.2C-124.8-247.3-125.2-246.9-125.7-246.9z"/>
	</g>
</g>
<circle class="st4" cx="-44.8" cy="-224.5" r="23"/>
<path class="st8" d="M-44.7-215.3c-1.2-0.5-5.6-2.7-5.6-7.1v-6.8c2.6-0.1,4.7-1,5.6-1.5c0.9,0.5,3,1.4,5.6,1.5v6.8
	C-39-217.9-43.5-215.8-44.7-215.3z"/>
<path class="st8" d="M-42.3-220.4h-4.8v-3.5h4.8V-220.4z M-46.2-223.9v-1.4c0-0.8,0.7-1.5,1.5-1.5c0.8,0,1.5,0.7,1.5,1.5v1.4"/>
<path class="st8" d="M-31-231.4l0-1.4c0-0.5-0.4-0.9-0.9-0.9l-12.3,0.1l-3.6-3.6l-8.6,0c-1,0-1.9,0.9-1.9,1.9l0.1,22.7H-31V-231.4z"
	/>
<g>
	<circle class="st4" cx="21.5" cy="-220" r="23"/>
	<path class="st8" d="M31.9-211.3c0,1.8-1.5,3.3-3.3,3.3s-3.3-1.5-3.3-3.3c0-1.8,1.5-3.3,3.3-3.3S31.9-213.1,31.9-211.3z
		 M27.8-212.2l0.8,2l1.5-3.9 M12.7-215.2h9.1 M12.7-218h14.7 M12.7-220.8h14.7 M12.7-223.7h14.7 M12.7-226.5h9.9 M12.7-229.3h9.9
		 M27.3-235h6.9v29.8H9V-235H27.3z"/>
</g>
<circle class="st4" cx="84.2" cy="-215.6" r="23"/>
<path class="st8" d="M84-210.4v1.1 M84-221.2v7.2 M84-229.7l-13.9,24.2H98L84-229.7z"/>
<circle class="st4" cx="157.8" cy="-215.3" r="23"/>
<path class="st8" d="M157.8-197.9c-2.4-1-11.4-5.4-11.4-14.4V-226c5.3-0.1,9.6-2,11.4-3c1.8,1,6,2.8,11.4,3v13.7
	C169.1-203.3,160.2-198.9,157.8-197.9z"/>
<path class="st8" d="M162.6-208.2h-9.8v-7.1h9.8V-208.2z M154.7-215.3v-2.8c0-1.6,1.3-3,3-3c1.6,0,3,1.3,3,3v2.8"/>
<g>
	<path class="st0" d="M283.6-237.3v-5.9c0-16.5-12.9-30.4-29.4-30.8c-17.1-0.5-31.1,13.2-31.1,30.2l0,23.2h67.2
		c4.2,0,7.7,3.5,7.7,7.7v53.1c0,4.2-3.5,7.7-7.7,7.7c0,0-10.2,0-16.8,0c-3.3,0-6.2-2.3-7-5.5l-4.8-19.9l0,0c3.6-2.9,5.8-7.6,5-12.7
		c-0.9-6-5.8-10.7-11.8-11.4c-8.2-0.9-15.1,5.5-15.1,13.5c0,4.3,2,8.2,5.2,10.6l0,0c0,0-3,12.4-4.8,19.9c-0.8,3.2-3.7,5.5-7,5.5
		h-16.8c-4.2,0-7.7-3.5-7.7-7.7V-213"/>
</g>
<g>
	<path class="st9" d="M159.2-148.2c1.7,0.6,3.7,0.2,5-1.1c1.4-1.4,1.7-3.3,1.1-5L163-152c-0.3,0.3-0.8,0.3-1.1,0l-1.8-1.8
		c-0.3-0.3-0.3-0.8,0-1.1l2.4-2.4c-1.7-0.6-3.7-0.2-5,1.1c-1.4,1.4-1.7,3.3-1.1,5l-7.4,7.4c-1.7-0.6-3.7-0.2-5,1.1
		c-1.4,1.4-1.7,3.3-1.1,5l2.4-2.4c0.3-0.3,0.8-0.3,1.1,0l1.8,1.8c0.3,0.3,0.3,0.8,0,1.1l-2.4,2.4c1.7,0.6,3.7,0.2,5-1.1
		c1.4-1.4,1.7-3.3,1.1-5l2.2-2.2"/>
	<path class="st9" d="M154-143l-5.8-6.2c-1-1-2.7-1-3.7,0c-0.9,0.9-1,2.4-0.2,3.4l-2,1.3c0,0-3.2-4.8,0.5-8.5
		c1.3-1.3,2.5-2.5,3.6-3.6c0.3,0.1,0.7,0.1,1,0.2c0.3,0.1,0.6-0.2,0.5-0.5l-0.2-1l1.7-1.7l4.6,4.6l-1.6,1.6c-0.5-0.5-1.3-0.5-1.7,0
		c-0.5,0.5-0.5,1.3,0,1.7l12.8,11.9c0.1,0.1,0.2,0.2,0.2,0.2c0.7,0.8,0.7,2,0.1,2.9c-0.9,1.1-2.5,1.2-3.5,0.3c0,0-0.1-0.1-0.1-0.1
		l-4.2-4.4"/>
</g>
<g>
	<path class="st10" d="M474.9,169.8c-16.8,29.7-59.2,67.7-114.4,99.6c-81.9,47.3-161,63.4-176.8,36c-7.4-12.7,0.3-32.6,18.8-55"/>
	<path class="st10" d="M421.7,123.2c29.3-5.1,50.9-1.9,58.3,11c2.6,4.5,3.3,10,2.3,16.1"/>
	<circle class="st10" cx="479.5" cy="160.4" r="10.5"/>
	<circle class="st10" cx="328.1" cy="192" r="132"/>
</g>
<image style="overflow:visible;" width="1600" height="700" xlink:href="../Dropbox (Muuaaa)/Muuaaa Team Folder/Graphic Design_Gabriel/Neptuno/02 Design/images/slide-22.jpg"  transform="matrix(0.4158 0 0 0.4158 37.9492 -322.6712)">
</image>
<image style="overflow:visible;" width="1078" height="516" xlink:href="datacenter-google-1078x516.jpg"  transform="matrix(1 0 0 1 164.2744 -963.6426)">
</image>
<g>
	<g>
		<g>
			<path class="st11" d="M1058.5,138.7c7.8-13.2,12.3-28.7,12.3-45.2c0-49.1-39.8-88.9-88.9-88.9c-49.1,0-88.9,39.8-88.9,88.9
				c0,16,4.2,30.9,11.6,43.9"/>
			<path class="st11" d="M914.8,151.7c16.3,18.8,40.3,30.7,67.2,30.7c26.8,0,50.9-11.9,67.2-30.7"/>
			<rect x="909.4" y="148.5" class="st11" width="45.9" height="3.2"/>
			<g>
				<rect x="904.7" y="133.4" class="st11" width="55.3" height="15.1"/>
				<line class="st11" x1="909.3" y1="137.6" x2="909.3" y2="144.2"/>
				<line class="st11" x1="912.8" y1="137.6" x2="912.8" y2="144.2"/>
				<line class="st11" x1="916.2" y1="137.6" x2="916.2" y2="144.2"/>
				<line class="st11" x1="919.7" y1="137.6" x2="919.7" y2="144.2"/>
				<line class="st11" x1="923.2" y1="137.6" x2="923.2" y2="144.2"/>
				<line class="st11" x1="926.7" y1="137.6" x2="926.7" y2="144.2"/>
				<circle class="st11" cx="953.4" cy="140.9" r="2.3"/>
				<circle class="st11" cx="945.4" cy="140.9" r="2.3"/>
				<circle class="st11" cx="937.3" cy="140.9" r="2.3"/>
			</g>
			<path class="st11" d="M914.5,133.4v-19.6c0-1.2,1-2.2,2.2-2.2l0,0c1.2,0,2.2,1,2.2,2.2v19.6"/>
			<path class="st11" d="M908.6,101.4c2.1-2.1,5-3.4,8.1-3.4"/>
			<path class="st11" d="M910.8,104.6c1.5-1.5,3.6-2.4,5.9-2.4"/>
			<path class="st11" d="M913.1,107.8c0.9-0.9,2.2-1.5,3.6-1.5"/>
			<path class="st11" d="M924.8,101.4c-2.1-2.1-5-3.4-8.1-3.4"/>
			<path class="st11" d="M922.6,104.6c-1.5-1.5-3.6-2.4-5.9-2.4"/>
			<path class="st11" d="M920.4,107.8c-0.9-0.9-2.2-1.5-3.6-1.5"/>
			<path class="st11" d="M945.8,133.4v-19.6c0-1.2,1-2.2,2.2-2.2l0,0c1.2,0,2.2,1,2.2,2.2v19.6"/>
			<path class="st11" d="M939.9,101.4c2.1-2.1,5-3.4,8.1-3.4"/>
			<path class="st11" d="M942.1,104.6c1.5-1.5,3.6-2.4,5.9-2.4"/>
			<path class="st11" d="M944.4,107.8c0.9-0.9,2.2-1.5,3.6-1.5"/>
			<path class="st11" d="M956.1,101.4c-2.1-2.1-5-3.4-8.1-3.4"/>
			<path class="st11" d="M953.9,104.6c-1.5-1.5-3.6-2.4-5.9-2.4"/>
			<path class="st11" d="M951.7,107.8c-0.9-0.9-2.2-1.5-3.6-1.5"/>
			<rect x="966.3" y="42.7" class="st11" width="42.5" height="105.8"/>
			<rect x="971.9" y="48.2" class="st11" width="31.4" height="8.2"/>
			<rect x="971.9" y="56.4" class="st11" width="31.4" height="8.2"/>
			<rect x="971.9" y="64.6" class="st11" width="31.4" height="8.2"/>
			<rect x="971.9" y="72.7" class="st11" width="31.4" height="8.2"/>
			<rect x="971.9" y="80.9" class="st11" width="31.4" height="8.2"/>
			<rect x="971.9" y="89" class="st11" width="31.4" height="8.2"/>
			<rect x="971.9" y="115.3" class="st11" width="31.4" height="23.2"/>
			<circle class="st11" cx="987.3" cy="126.9" r="2.8"/>
			<g>
				<rect x="971.9" y="104.2" class="st11" width="18.6" height="4.1"/>
				<rect x="999.2" y="104.2" class="st11" width="4.1" height="4.1"/>
			</g>
			<line class="st11" x1="984.5" y1="126.9" x2="971.9" y2="126.9"/>
			<line class="st11" x1="990.2" y1="126.9" x2="1002.8" y2="126.9"/>
			<rect x="966.3" y="148.5" class="st11" width="42.5" height="3.2"/>
			<circle class="st11" cx="1038.1" cy="120.9" r="11.7"/>
			<circle class="st11" cx="1038.1" cy="120.9" r="6.4"/>
			<circle class="st11" cx="1038.1" cy="120.9" r="2.6"/>
			<line class="st11" x1="1038.1" y1="132.6" x2="1038.1" y2="138.7"/>
			<g>
				<rect x="1015.2" y="138.7" class="st11" width="44.1" height="9.8"/>
				<line class="st11" x1="1048.6" y1="143.6" x2="1025.9" y2="143.6"/>
			</g>
			<rect x="1018.9" y="148.5" class="st11" width="36.7" height="3.2"/>
		</g>
	</g>
</g>
<g>
	<linearGradient id="SVGID_3_" gradientUnits="userSpaceOnUse" x1="1119.9933" y1="-28.0693" x2="1242.2311" y2="-28.0693">
		<stop  offset="0" style="stop-color:#C558A0"/>
		<stop  offset="0.5945" style="stop-color:#7F3E93"/>
		<stop  offset="1" style="stop-color:#532E8B"/>
	</linearGradient>
	<path class="st12" d="M1211-50.2l31.3,17.6l-61.4,34.6L1120-32.6l30.8-17.5C1169.5-60.7,1192.3-60.7,1211-50.2z"/>
	<path class="st13" d="M1120-32.6v3.6l59.9,34.7c0.4,0.2,0.8,0.2,1.1,0l61.2-34.7v-3.7l-61.4,34.6L1120-32.6z"/>
	<path class="st14" d="M1205.8-80.9l36.4,20.5l-61.4,34.6L1120-60.4l36-20.4C1171.4-89.6,1190.3-89.6,1205.8-80.9z"/>
	<path class="st15" d="M1207.4-105.8l34.8,19.6l-61.4,34.6L1120-86.3l34.3-19.5C1170.8-115.1,1190.9-115.1,1207.4-105.8z"/>
	<path class="st16" d="M1120-86.3l0.1,3.6l59.7,34.7c0.4,0.2,0.8,0.2,1.2,0l61.2-34.7v-3.6l-61.4,34.6L1120-86.3z"/>
	<path class="st17" d="M1120-60.4l0.1,3.6l59.7,34.7c0.4,0.2,0.9,0.2,1.3,0l61.1-34.7v-3.6l-61.4,34.6L1120-60.4z"/>
</g>
<g>
	<g>
		<path class="st18" d="M1661.4-124.6L1585.3,4.8c-1.5,2.5,0.3,5.7,3.3,5.7h61.4c0.7,0,1.3,0.6,1.2,1.4l-13.6,101.2
			c-0.4,3.3,4,4.9,5.7,2l94.1-155.8c1.4-2.3-0.3-5.2-2.9-5.2h-74.4c-0.7,0-1.3-0.6-1.2-1.3l8-75.7
			C1667.1-125.9,1663-127.3,1661.4-124.6z"/>
	</g>
	<g>
		<g>
			<path class="st1" d="M1521.9-21.3c-28.5-17-50.1-44.3-59.4-76.2c-9.1-31-6.3-65.2,7.9-94.2c28.1-57.4,95.2-86.9,156.5-68.2
				c35.2,10.7,64.3,36.3,80.3,69.4c2,4.1,8.2,0.5,6.2-3.6c-14.9-30.8-40.8-55.3-72.4-68.3c-31.7-13-68.2-13.7-100.3-1.8
				c-29.8,11.1-55.3,32.3-71.4,59.7c-17.1,29-22.9,63.8-16.6,96.8c7.4,38.7,31.9,72.6,65.7,92.7
				C1522.2-12.7,1525.8-18.9,1521.9-21.3L1521.9-21.3z"/>
		</g>
	</g>
	<g>
		<g>
			<path class="st1" d="M1711.2-189c47.3-13.1,98.5,12.1,115.3,58.7c15.6,43.4-2.9,92.9-43.1,115.3c-25.3,14.1-55.7,15.3-82.5,4.6
				c-4.3-1.7-6.1,5.2-1.9,6.9c49.2,19.8,107.2-2.1,130.2-50.1c21.5-44.9,6.9-99.8-33.9-128.2c-25-17.4-56.8-22.2-86-14.1
				C1704.8-194.6,1706.7-187.7,1711.2-189L1711.2-189z"/>
		</g>
	</g>
	<g>
		<g>
			<path class="st1" d="M1703-5.2c9.8-16.3,19.7-32.6,29.5-48.9c1.4-2.3-0.4-5.4-3.1-5.4c-27.2,0-54.3,0-81.5,0
				c1.2,1.2,2.4,2.4,3.6,3.6c3.8-28.3,7.6-56.6,11.3-84.9c0.6-4.1,1.1-8.2,1.7-12.3c0.5-3.7-5-4.6-6.7-1.8
				c-10.1,17.3-20.1,34.5-30.2,51.8c-16.1,27.5-32.2,55.1-48.3,82.6c-3.7,6.4-7.5,12.8-11.2,19.2c-1.4,2.3,0.4,5.4,3.1,5.4
				c23,0,46.1,0,69.1,0c-1.2-1.2-2.4-2.4-3.6-3.6c-4.6,34.3-9.2,68.6-13.8,102.9c-0.6,4.8-1.3,9.6-1.9,14.4c-0.5,3.7,5,4.6,6.7,1.8
				c15.8-26.3,31.7-52.5,47.5-78.8c2.3-3.8,4.5-7.5,6.8-11.3c2.4-4-3.8-7.6-6.2-3.6c-15.8,26.3-31.7,52.5-47.5,78.8
				c-2.3,3.8-4.5,7.5-6.8,11.3c2.2,0.6,4.4,1.2,6.7,1.8c4.6-34.3,9.2-68.6,13.8-102.9c0.6-4.8,1.3-9.6,1.9-14.4
				c0.3-1.9-1.8-3.6-3.6-3.6c-23,0-46.1,0-69.1,0c1,1.8,2.1,3.6,3.1,5.4c10.1-17.3,20.1-34.5,30.2-51.8
				c16.1-27.5,32.2-55.1,48.3-82.6c3.7-6.4,7.5-12.8,11.2-19.2c-2.2-0.6-4.4-1.2-6.7-1.8c-3.8,28.3-7.6,56.6-11.3,84.9
				c-0.6,4.1-1.1,8.2-1.7,12.3c-0.3,1.9,1.8,3.6,3.6,3.6c27.2,0,54.3,0,81.5,0c-1-1.8-2.1-3.6-3.1-5.4
				c-9.8,16.3-19.7,32.6-29.5,48.9C1694.4-4.9,1700.6-1.3,1703-5.2L1703-5.2z"/>
		</g>
	</g>
</g>
<g>
	<g>
		<path class="st18" d="M2592.4-32.4h-73.2c-5.1,0-9.3,4.2-9.3,9.3v51.7c0,5.1,4.2,9.3,9.3,9.3h73.2c5.1,0,9.3-4.2,9.3-9.3v-51.7
			C2601.7-28.2,2597.5-32.4,2592.4-32.4z M2567.7,21.8c0.3,1.2-0.6,2.3-1.8,2.3h-20.1c-1.2,0-2.1-1.1-1.8-2.3l4.5-18.8
			c-2.8-2.2-4.7-5.6-4.7-9.5c0-7.5,6.8-13.4,14.6-11.8c4.7,1,8.4,4.8,9.2,9.5c0.9,4.8-1.1,9.1-4.5,11.8L2567.7,21.8z"/>
	</g>
</g>
<g>
	<path class="st18" d="M2667.4-183.9l-53.6,10.6c-0.6,0.1-1.3-0.1-1.7-0.6l-27.2-30.3c-1-1.1-0.4-2.8,1-3.1l73.9-14.6
		c1-0.2,2,0.5,2.2,1.5l6.9,34.3C2669.1-185,2668.4-184.1,2667.4-183.9z"/>
</g>
<g>
	<path class="st18" d="M2433.1-183.9l53.6,10.6c0.6,0.1,1.3-0.1,1.7-0.6l27.2-30.3c1-1.1,0.4-2.8-1-3.1l-73.9-14.6
		c-1-0.2-2,0.5-2.2,1.5l-6.9,34.3C2431.4-185,2432.1-184.1,2433.1-183.9z"/>
</g>
<g>
	<g>
		<path class="st18" d="M2639.9-115.2c-49.5,0-85.9-23.3-85.9-23.3s-36.4,23.3-85.9,23.3h-8.2V-4.6c0,83.8,94.1,116.3,94.1,116.3
			s94.1-32.4,94.1-116.3v-110.7H2639.9z M2635.2-4.6c0,63.9-64.1,95.2-81.3,102.4c-17.2-7.2-81.3-38.5-81.3-102.4v-97.9
			c38.1-1,68.2-14.5,81.3-21.4c13,6.9,43.1,20.3,81.3,21.4V-4.6z"/>
	</g>
</g>
<circle class="st19" cx="2457.7" cy="-158.8" r="8.3"/>
<line class="st19" x1="2457.7" y1="-167.2" x2="2457.7" y2="-183.8"/>
<line class="st19" x1="2449.3" y1="-158.8" x2="2378.4" y2="-158.8"/>
<line class="st19" x1="2442.5" y1="-215.8" x2="2466" y2="-211.1"/>
<polyline class="st19" points="2506.1,-203.2 2515.1,-201.4 2511.7,-184.2 2492.5,-188 "/>
<polygon class="st19" points="2427.6,-189.8 2484.1,-178.6 2514.2,-212.2 2435.2,-227.8 "/>
<circle class="st19" cx="2642.8" cy="-158.8" r="8.3"/>
<path class="st19" d="M2642.8-167.2v-16.7V-167.2z"/>
<path class="st19" d="M2651.2-158.8h71H2651.2z"/>
<line class="st19" x1="2658" y1="-215.8" x2="2634.5" y2="-211.1"/>
<polygon class="st19" points="2594.4,-203.2 2585.4,-201.4 2588.9,-184.2 2608,-188 "/>
<polygon class="st19" points="2672.9,-189.8 2616.5,-178.6 2586.3,-212.2 2665.3,-227.8 "/>
<path class="st19" d="M2621.8,56.8c63.4-27.6,107.7-90.9,107.7-164.5c0-99-80.3-179.3-179.3-179.3s-179.3,80.3-179.3,179.3
	c0,73.6,44.3,136.8,107.7,164.5"/>
<path class="st19" d="M2550.3,108c0,0,94.1-32.4,94.1-116.3v-110.7h-8.2c-49.5,0-85.9-23.3-85.9-23.3s-36.4,23.3-85.9,23.3h-8.2
	V-8.3C2456.1,75.6,2550.3,108,2550.3,108z"/>
<path class="st19" d="M2550.3,94.2C2533,86.9,2469,55.7,2469-8.3v-97.9c38.1-1,68.2-14.5,81.3-21.4c13,6.9,43.1,20.3,81.3,21.4v97.9
	C2631.5,55.7,2567.5,86.9,2550.3,94.2z"/>
<path class="st19" d="M2586.8,32.3h-73.2c-5.1,0-9.3-4.2-9.3-9.3v-51.7c0-5.1,4.2-9.3,9.3-9.3h73.2c5.1,0,9.3,4.2,9.3,9.3v51.7
	C2596.1,28.2,2592,32.3,2586.8,32.3z"/>
<path class="st19" d="M2562.1,16.2l-4.5-18.8c3.4-2.6,5.4-7,4.5-11.8c-0.9-4.7-4.6-8.5-9.2-9.5c-7.8-1.6-14.6,4.3-14.6,11.8
	c0,3.9,1.9,7.3,4.7,9.5l-4.5,18.8c-0.3,1.2,0.6,2.3,1.8,2.3h20.1C2561.5,18.5,2562.4,17.4,2562.1,16.2z"/>
<path class="st19" d="M2581.3-38c0,0,0-23.8,0-23.8c0-17.1-13.9-31-31-31c-17.1,0-31,13.9-31,31V-38H2581.3z"/>
<path class="st19" d="M3043.8,56.8c63.4-27.6,107.7-90.9,107.7-164.5c0-99-80.3-179.3-179.3-179.3s-179.3,80.3-179.3,179.3
	c0,73.6,44.3,136.8,107.7,164.5"/>
<g>
	<path class="st19" d="M3020.6-118.3c15,5.4,32.4,2.1,44.4-9.9s15.3-29.4,9.9-44.4l-21.3,21.3c-2.7,2.7-7,2.7-9.7,0l-15.9-15.9
		c-2.7-2.7-2.7-7,0-9.7l21.3-21.3c-15-5.4-32.4-2.1-44.4,9.9s-15.3,29.4-9.9,44.4l-65,65c-15-5.4-32.4-2.1-44.4,9.9
		s-15.3,29.4-9.9,44.4l21.3-21.3c2.7-2.7,7-2.7,9.7,0l15.9,15.9c2.7,2.7,2.7,7,0,9.7L2901.3,1c15,5.4,32.4,2.1,44.4-9.9
		s15.3-29.4,9.9-44.4l19.2-19.2"/>
	<path class="st19" d="M2974.7-72.5l-50.9-54.6c-8.9-8.9-23.4-8.9-32.4,0c-8.2,8.2-8.9,21.2-1.9,30.2l-17.9,11.2
		c0,0-28.2-42.3,4-74.5c11.2-11.2,22.2-22.2,31.5-31.5c3,0.5,6.3,1.1,9.1,1.5c2.8,0.5,5.2-1.9,4.7-4.7l-1.5-9.1l14.6-14.6l40.7,40.7
		l-14.4,14.4c-4.2-4.2-11.1-4.2-15.4,0s-4.2,11.1,0,15.4l112.7,105.1c0.8,0.7,1.5,1.4,2.2,2.2c6.1,7.1,6.5,17.9,0.8,25.4
		c-7.6,10.1-22.1,10.9-30.7,2.2c-0.3-0.3-0.7-0.7-1-1.1l-36.5-39.2"/>
</g>
<g>
	<path class="st19" d="M3440.7-40.5l-19.2,19.2c5.4,15,2.1,32.4-9.9,44.4s-29.4,15.3-44.4,9.9l21.3-21.3c2.7-2.7,2.7-7,0-9.7
		l-15.9-15.9c-2.7-2.7-7-2.7-9.7,0l-21.3,21.3c-5.4-15-2.1-32.4,9.9-44.4s29.4-15.3,44.4-9.9l65-65c-5.4-15-2.1-32.4,9.9-44.4
		s29.4-15.3,44.4-9.9l-21.3,21.3c-2.7,2.7-2.7,7,0,9.7l15.9,15.9c2.7,2.7,7,2.7,9.7,0l21.3-21.3c5.4,15,2.1,32.4-9.9,44.4
		s-29.4,15.3-44.4,9.9"/>
	<path class="st19" d="M3440.7-40.5l-50.9-54.6c-8.9-8.9-23.4-8.9-32.4,0c-8.2,8.2-8.9,21.2-1.9,30.2l-17.9,11.2
		c0,0-28.2-42.3,4-74.5c11.2-11.2,22.2-22.2,31.5-31.5c3,0.5,6.3,1.1,9.1,1.5c2.8,0.5,5.2-1.9,4.7-4.7l-1.5-9.1l14.6-14.6l40.7,40.7
		l-14.4,14.4c-4.2-4.2-11.1-4.2-15.4,0s-4.2,11.1,0,15.4l112.7,105.1c0.8,0.7,1.5,1.4,2.2,2.2c6.1,7.1,6.5,17.9,0.8,25.4
		c-7.6,10.1-22.1,10.9-30.7,2.2c-0.3-0.3-0.7-0.7-1-1.1l-36.5-39.2l-0.7,81.4c-64.4,25.3-133,9.1-185.1-42.9
		c-70-70-70-183.6,0-253.6c70-70,183.6-70,253.6,0c52,52,65.4,128.1,40.1,192.5"/>
</g>
<g>
	<path class="st20" d="M-146.3-78.7V-80c0-0.5-0.4-0.9-0.9-0.9h-11.8l-3.5-3.5h-8.3c-1,0-1.8,0.8-1.8,1.8v21.8l5.5-15
		c0.1-0.4,0.5-0.6,0.9-0.6h21.7c0.6,0,1.1,0.6,0.9,1.2l-5,13.8c-0.1,0.4-0.5,0.6-0.9,0.6h-19.9"/>
</g>
<g>
	<path class="st21" d="M-218.6-65.3c-5.1-3-8.6-8.6-8.6-15c0-9.6,7.8-17.5,17.5-17.5c7,0,13,4.1,15.8,9.9"/>
	<path class="st21" d="M-194-87.8c1.1-0.3,2.3-0.5,3.5-0.5c7,0,12.7,5.7,12.7,12.7s-5.7,12.7-12.7,12.7c-1.7,0-3.4-0.3-4.9-1"/>
	<polyline class="st21" points="-195.3,-63.8 -191.5,-70.1 -202,-70.1 -200.4,-82.7 -212,-62.8 -203,-62.8 -205,-47.7 -198,-59.3 	
		"/>
</g>
<g>
	<path class="st22" d="M-121.8-72.6c-6.9,0-12.5-5.6-12.5-12.5c0-5,2.9-9.3,7.1-11.3"/>
	<path class="st22" d="M-127.2-96.4c-0.1-0.4-0.1-0.8-0.1-1.2c0-4.5,3.6-8.1,8.1-8.1c1.7,0,3.2,0.5,4.5,1.4"/>
	<path class="st22" d="M-114.6-104.4c3-4.6,8.2-7.6,14.1-7.6c9.2,0,16.7,7.4,16.9,16.5"/>
	<path class="st22" d="M-83.6-95.5c5.1,1.2,8.9,5.8,8.9,11.3c0,6.4-5.2,11.6-11.6,11.6"/>
	<path class="st22" d="M-115.1-72.5c0-5.9,4.7-10.6,10.6-10.6s10.6,4.7,10.6,10.6s-4.7,10.6-10.6,10.6"/>
	<line class="st22" x1="-121.8" y1="-72.6" x2="-115.1" y2="-72.6"/>
	<path class="st22" d="M-112.5-72.6c1.4,0,2.6,1.2,2.6,2.6s-1.2,2.6-2.6,2.6c-1.4,0-2.6-1.2-2.6-2.6"/>
	<line class="st22" x1="-115.1" y1="-72.5" x2="-115.1" y2="-70"/>
	<line class="st22" x1="-112.5" y1="-72.6" x2="-115.1" y2="-72.6"/>
	<line class="st22" x1="-106.5" y1="-62" x2="-104.1" y2="-59.1"/>
	<line class="st22" x1="-106.5" y1="-62" x2="-104.1" y2="-64.9"/>
</g>
<g>
	<path class="st23" d="M-168.8-29.4c-0.2-1.5,0.4-2.3,0.4-2.3c0.7-0.7,2.4-2.4,2.4-2.4l3.9,3.9l-2.2,2.4c0,0,0.8,1.6,2.7,3.5
		c1.9,1.9,3.5,2.7,3.5,2.7l2.4-2.2l3.9,3.9"/>
	<path class="st23" d="M-167.6-36.7c2.2-4.8,7.1-8.2,12.7-8.2c7.7,0,14,6.3,14,14s-6.3,14-14,14c-0.4,0-0.7,0-1.1,0"/>
	<g>
		<line class="st23" x1="-148.2" y1="-38.7" x2="-152.7" y2="-26.5"/>
		<polyline class="st23" points="-148,-31.9 -144.5,-31.9 -146.9,-26.5 		"/>
		<g>
			<polyline class="st23" points="-153.5,-33.3 -153.5,-38.7 -156.3,-34.8 -152.6,-34.8 			"/>
			<path class="st23" d="M-157.6-33.3h-3.3l2.6-2.9c0.3-0.3,0.4-0.6,0.4-1c0-0.8-0.7-1.5-1.5-1.5s-1.5,0.7-1.5,1.5"/>
		</g>
	</g>
	<line class="st23" x1="-167.6" y1="-36.7" x2="-168.4" y2="-38.9"/>
	<line class="st23" x1="-167.6" y1="-36.7" x2="-165.3" y2="-37.2"/>
	<path class="st23" d="M-156-17c-6.7-0.5-12.1-5.8-12.8-12.4"/>
</g>
<circle class="st4" cx="-19.5" cy="-136.6" r="23"/>
<path class="st8" d="M-20.9-124.3h-0.5 M-18.6-124.3h-0.5 M-7.6-121.7h-23.7c-1,0-1.7-0.8-1.7-1.7v-1.6c0-1,0.8-1.7,1.7-1.7h23.7
	c1,0,1.7,0.8,1.7,1.7v1.6C-5.9-122.5-6.7-121.7-7.6-121.7z M-20.9-129.4h-0.5 M-18.6-129.4h-0.5 M-20.9-134.4h-0.5 M-18.6-134.4
	h-0.5 M-20.9-139.5h-0.5 M-18.6-139.5h-0.5 M-20.9-144.6h-0.5 M-18.6-144.6h-0.5 M-7.6-126.8h-23.7c-1,0-1.7-0.8-1.7-1.7v-1.6
	c0-1,0.8-1.7,1.7-1.7h23.7c1,0,1.7,0.8,1.7,1.7v1.6C-5.9-127.6-6.7-126.8-7.6-126.8z M-6.6-146.8l-5.3-4.2c-0.3-0.3-0.7-0.4-1.1-0.4
	H-26c-0.4,0-0.8,0.1-1.1,0.4l-5.3,4.2 M-7.6-142.1h-23.7c-1,0-1.7-0.8-1.7-1.7v-1.6c0-1,0.8-1.7,1.7-1.7h23.7c1,0,1.7,0.8,1.7,1.7
	v1.6C-5.9-142.9-6.7-142.1-7.6-142.1z M-7.6-142.1h-23.7c-1,0-1.7,0.8-1.7,1.7v1.6c0,1,0.8,1.7,1.7,1.7h23.7c1,0,1.7-0.8,1.7-1.7
	v-1.6C-5.9-141.3-6.7-142.1-7.6-142.1z M-7.6-131.9h-23.7c-1,0-1.7-0.8-1.7-1.7v-1.6c0-1,0.8-1.7,1.7-1.7h23.7c1,0,1.7,0.8,1.7,1.7
	v1.6C-5.9-132.7-6.7-131.9-7.6-131.9z"/>
<circle class="st4" cx="-93.8" cy="-145.7" r="23"/>
<path class="st24" d="M-83-157.4c0-0.4,0.3-0.8,0.8-0.8c0.4,0,0.8,0.3,0.8,0.8s-0.3,0.8-0.8,0.8C-82.7-156.6-83-157-83-157.4z
	 M-86.5-160.1c2.2-0.4,3.7-0.1,4.3,0.8c0.2,0.3,0.2,0.7,0.2,1.2 M-82.6-156.7c-1.2,2.2-4.4,5-8.4,7.3c-6,3.5-11.9,4.7-13,2.6
	c-0.5-0.9,0-2.4,1.4-4.1 M-83.8-153.4c0,5.3-4.3,9.6-9.6,9.6c-5.3,0-9.6-4.3-9.6-9.6c0-5.3,4.3-9.6,9.6-9.6
	C-88.1-163-83.8-158.7-83.8-153.4z M-100.6-128.5l-5.4-5.4c-0.2-0.2-0.2-0.4,0-0.6l1.7-1.7c0.2-0.2,0.4-0.2,0.6,0l5.4,5.4
	c0.2,0.2,0.2,0.4,0,0.6l-1.7,1.7C-100.1-128.4-100.4-128.4-100.6-128.5z M-98.5-131.4l8.7-2.1c0.7-0.2,1.4-0.5,1.9-1.1l5.9-5.9
	c0.2-0.2,0.2-0.5,0-0.7c-0.7-0.7-1.9-0.7-2.6,0l-4,4 M-103.1-135.7l2.6-2.6c0.7-0.7,1.8-1.2,2.8-1.2h6.3c0.3,0,0.5,0.2,0.5,0.5
	c0,1-0.8,1.8-1.8,1.8 M-96.2-137.1h7.6 M-88-141.1l-0.4-0.4c-0.7-0.7-1.9-0.7-2.6,0l-2,2 M-84.8-140.9l-0.4-0.4
	c-0.7-0.7-1.9-0.7-2.6,0l-4.2,4.2"/>
<g>
	<g>
		<path class="st6" d="M-8.1-39c-13.1,0-23.8-10.7-23.8-23.8c0-13.1,10.7-23.8,23.8-23.8S15.7-76,15.7-62.8C15.7-49.7,5-39-8.1-39z
			 M-8.1-84.9c-12.2,0-22.1,9.9-22.1,22.1c0,12.2,9.9,22.1,22.1,22.1S14-50.6,14-62.8C14-75,4.1-84.9-8.1-84.9z"/>
	</g>
	<path class="st25" d="M-6.9-56.1c-0.4,0-0.8,0-1.2,0c-3.4,0-6.5-0.3-8.9-0.8c-1.3-0.3-2.3-0.6-3-1l0,5.3c0,0.2,0.6,0.8,3.2,1.4
		c2.3,0.5,5.4,0.8,8.7,0.8c0.6,0,1.1,0,1.7,0c-0.3-0.7-0.5-1.5-0.5-2.4V-56.1z"/>
	<path class="st25" d="M-1.2-61.1c0.8,0.4,2.7,1.3,5,1.4l0-5.1c-2.5,1.4-8.4,1.9-11.9,1.9c-3.5,0-9.4-0.4-11.9-1.8l0,5.3
		c0,0.2,0.6,0.8,3.2,1.4c2.3,0.5,5.4,0.8,8.7,0.8c0.4,0,0.8,0,1.2,0v-2.4C-4.2-59.7-2.1-60.6-1.2-61.1z"/>
	<path class="st25" d="M-16.8-70.6c2.3,0.5,5.4,0.8,8.7,0.8c3.3,0,6.4-0.3,8.7-0.8c2.6-0.6,3.2-1.2,3.2-1.4v0c0,0,0,0,0,0
		c0-0.2-0.6-0.8-3.2-1.4c-2.3-0.5-5.4-0.8-8.7-0.8c-7.7,0-11.9,1.5-11.9,2.3v0C-20-71.8-19.4-71.2-16.8-70.6z"/>
	<path class="st25" d="M0.8-69.6c-2.4,0.5-5.6,0.9-8.9,0.9c-3.3,0-6.5-0.3-8.9-0.8c-1.3-0.3-2.3-0.6-3-1l0,4.4
		c0,0.8,4.2,2.2,11.9,2.2c7.7,0,11.9-1.5,11.9-2.3l0-4.4C3.1-70.2,2.1-69.9,0.8-69.6z"/>
	<path class="st26" d="M5-52.6l0-5.9c0-0.1-0.1-0.3-0.1-0.4c0.1-0.2,0.1-0.4,0.1-0.6l0-5.9c0-0.1-0.1-0.3-0.1-0.4
		c0.1-0.2,0.1-0.4,0.1-0.6l0-5.9c0,0,0,0,0,0c0-1.1-1.3-1.9-4.1-2.5c-2.4-0.5-5.5-0.8-8.9-0.8l0,0.6l0-0.6c-4.5,0-13,0.8-13,3.4
		c0,0,0,0,0,0l0,5.9c0,0.2,0.1,0.4,0.1,0.6c-0.1,0.1-0.1,0.2-0.1,0.4l0,5.9c0,0.2,0,0.4,0.1,0.6c-0.1,0.1-0.1,0.2-0.1,0.4l0,5.9
		c0,1.1,1.3,1.9,4.1,2.5c2.3,0.5,5.4,0.8,8.7,0.8c0.1,0,0.2,0,0.3,0c0.7,0,1.5,0,2.3-0.1C-6-49.6-6.2-50-6.4-50.4
		c-0.5,0-1.1,0-1.7,0c-3.3,0-6.4-0.3-8.7-0.8c-2.6-0.6-3.2-1.2-3.2-1.4l0-5.3c0.7,0.4,1.7,0.7,3,1c2.4,0.5,5.5,0.8,8.9,0.8
		c0.4,0,0.8,0,1.2,0v-1.1c-0.4,0-0.8,0-1.2,0c-3.3,0-6.4-0.3-8.7-0.8c-2.6-0.6-3.2-1.2-3.2-1.4l0-5.3c2.5,1.4,8.4,1.8,11.9,1.8
		c3.5,0,9.4-0.5,11.9-1.9l0,5.1c0.2,0,0.4,0,0.6,0v6.8c0,0.5-0.1,1-0.2,1.4C4.7-51.8,5-52.2,5-52.6z M-20-72c0-0.8,4.2-2.2,11.9-2.3
		c3.3,0,6.4,0.3,8.7,0.8c2.6,0.6,3.2,1.2,3.2,1.4c0,0,0,0,0,0v0c0,0.2-0.6,0.8-3.2,1.4c-2.3,0.5-5.4,0.8-8.7,0.8
		c-3.3,0-6.4-0.3-8.7-0.8C-19.4-71.2-20-71.8-20-72L-20-72z M-8.1-64c-7.7,0-11.9-1.4-11.9-2.2l0-4.4c0.7,0.4,1.7,0.7,3,1
		c2.4,0.5,5.6,0.8,8.9,0.8c3.4,0,6.5-0.3,8.9-0.9c1.3-0.3,2.3-0.6,3-1l0,4.4C3.8-65.5-0.4-64-8.1-64z"/>
	<path class="st8" d="M-1.2-45.7c-1.2-0.5-5.6-2.7-5.6-7.1v-6.8c2.6-0.1,4.7-1,5.6-1.5c0.9,0.5,3,1.4,5.6,1.5v6.8
		C4.4-48.4,0-46.2-1.2-45.7z"/>
	<path class="st8" d="M1.2-50.8h-4.8v-3.5h4.8V-50.8z M-2.7-54.3v-1.4c0-0.8,0.7-1.5,1.5-1.5c0.8,0,1.5,0.7,1.5,1.5v1.4"/>
</g>
<g>
	<path class="st1" d="M-114.3-12.9c-13.1,0-23.8,10.7-23.8,23.8s10.7,23.8,23.8,23.8c13.1,0,23.8-10.7,23.8-23.8
		S-101.1-12.9-114.3-12.9z M-114.3,33.1c-12.2,0-22.1-9.9-22.1-22.1s9.9-22.1,22.1-22.1c12.2,0,22.1,9.9,22.1,22.1
		S-102.1,33.1-114.3,33.1z"/>
	<path class="st1" d="M-123.7,14.9c-0.3-0.1-0.6,0.1-0.7,0.4l-0.9,4.1c-1.7-2-2.8-4.3-3.2-6.9c-0.6-3.7,0.3-7.3,2.5-10.3
		c2.2-3,5.4-4.9,9.1-5.5c1.8-0.3,3.7-0.2,5.5,0.2c0.3,0.1,0.6-0.1,0.7-0.4c0.1-0.3-0.1-0.6-0.4-0.7c-2-0.5-4-0.6-5.9-0.3
		c-4,0.6-7.4,2.7-9.8,6s-3.3,7.2-2.7,11.1c0.4,2.7,1.6,5.2,3.3,7.3l-3.8-0.8c-0.3-0.1-0.6,0.1-0.7,0.4c-0.1,0.3,0.1,0.6,0.4,0.7
		l5.1,1.1c0,0,0.1,0,0.1,0c0.2,0,0.4-0.1,0.5-0.3c0.1-0.1,0.2-0.2,0.2-0.3l1.1-5.1C-123.2,15.3-123.4,15-123.7,14.9z"/>
	<path class="st1" d="M-98.5,1.1l-5.1-0.9c-0.3,0-0.5,0.1-0.6,0.3c-0.1,0.1-0.2,0.2-0.2,0.3l-1,5.1c-0.1,0.3,0.1,0.6,0.5,0.7
		c0.3,0.1,0.6-0.1,0.7-0.5l0.8-4.1c1.8,1.9,2.9,4.2,3.4,6.8c0.7,3.6-0.1,7.3-2.1,10.4c-2.1,3.1-5.2,5.1-8.9,5.8
		c-1.6,0.3-3.2,0.3-4.7,0.1l9.2-15.5c0.1-0.2,0.1-0.4,0-0.6c-0.1-0.2-0.3-0.3-0.5-0.3h-6.9l1.1-8.3c0-0.3-0.1-0.5-0.4-0.6
		c-0.3-0.1-0.5,0-0.7,0.2l-8.3,14.2c-0.1,0.2-0.1,0.4,0,0.6c0.1,0.2,0.3,0.3,0.5,0.3h5.8l-0.8,6.4c0,0.3,0.2,0.6,0.5,0.6
		c0.3,0,0.6-0.2,0.6-0.5l0.9-7c0-0.2,0-0.3-0.1-0.4c-0.1-0.1-0.3-0.2-0.4-0.2h-5.4l6.4-10.9l-0.8,6.2c0,0.2,0,0.3,0.1,0.4
		c0.1,0.1,0.3,0.2,0.4,0.2h6.5l-9.1,15.3c0,0.1,0,0.1-0.1,0.2c0,0,0,0.1-0.1,0.1c-0.1,0.3,0.1,0.6,0.4,0.7c1,0.2,2.1,0.3,3.1,0.3
		c0.9,0,1.9-0.1,2.8-0.3c8.1-1.5,13.5-9.4,11.9-17.5c-0.5-2.7-1.7-5.2-3.5-7.2l3.8,0.7c0.3,0.1,0.6-0.1,0.7-0.5
		C-98,1.4-98.2,1.1-98.5,1.1z"/>
</g>
<g>
	<path class="st1" d="M-50.7,33.6c-13.1,0-23.8-10.7-23.8-23.8C-74.5-3.3-63.8-14-50.7-14S-26.9-3.3-26.9,9.8
		C-26.9,23-37.6,33.6-50.7,33.6z M-50.7-12.3c-12.2,0-22.1,9.9-22.1,22.1c0,12.2,9.9,22.1,22.1,22.1S-28.6,22-28.6,9.8
		C-28.6-2.4-38.5-12.3-50.7-12.3z"/>
</g>
<g>
	<path class="st1" d="M-52,22.1c-1.1,0-2-0.9-2-1.9c0,0,0,0,0,0v-0.7h-6.2c-4.1,0-7.5-3.2-7.5-7.1c0-2.6,1.5-5,3.9-6.2
		c0-0.1,0-0.2,0-0.3c0-2.7,2.3-4.8,5.1-4.8c0.8,0,1.6,0.2,2.3,0.5c1.9-2.4,4.8-3.8,7.9-3.8c5.2,0,9.5,3.9,9.9,8.8
		c2.9,0.8,4.9,3.4,4.9,6.4c0,3.7-3.1,6.6-7,6.6l-6.5,0c-0.3,0-0.6-0.3-0.6-0.6v-6.6c0-0.3,0.3-0.6,0.6-0.6h2.7l-5.9-5.4l-5.8,5.4
		h2.8c0.3,0,0.6,0.3,0.6,0.6v6.1h0.9c0,0,0.1,0,0.1,0c1,0.1,1.8,0.9,1.8,1.9C-50,21.2-50.9,22.1-52,22.1z M-52.8,20.2
		c0,0.4,0.4,0.8,0.9,0.8c0.5,0,0.9-0.4,0.9-0.8c0-0.4-0.4-0.8-0.9-0.8h-0.9L-52.8,20.2C-52.8,20.1-52.8,20.2-52.8,20.2z M-46.6,18.2
		l6,0c3.2,0,5.8-2.5,5.8-5.5c0-2.5-1.8-4.7-4.4-5.3c-0.3,0-0.5-0.3-0.5-0.5c0,0,0,0,0,0c-0.1-4.5-4-8.1-8.8-8.1
		c-2.9,0-5.7,1.4-7.3,3.7c0,0.1-0.1,0.1-0.1,0.1c0,0,0,0,0,0s0,0,0,0h0c0,0,0,0,0,0c-0.1,0-0.1,0.1-0.2,0.1l0,0c0,0,0,0,0,0
		c-0.1,0-0.2,0-0.3,0c0,0,0,0,0,0l0,0c-0.1,0-0.1,0-0.2-0.1C-57.2,2.2-58,2-58.8,2c-2.2,0-3.9,1.7-3.9,3.7c0,0.2,0,0.4,0,0.6
		c0,0,0,0.1,0,0.1c0,0.1,0,0.2-0.1,0.2c0,0.1-0.1,0.1-0.2,0.2c0,0-0.1,0-0.1,0.1c-2.2,1-3.6,3.1-3.6,5.4c0,3.3,2.8,6,6.4,6h6.2v-5.5
		h-3.7c-0.2,0-0.4-0.1-0.5-0.4c-0.1-0.2,0-0.5,0.1-0.6l7.3-6.7c0.2-0.2,0.6-0.2,0.8,0l7.3,6.8c0.2,0.2,0.2,0.4,0.1,0.6
		c-0.1,0.2-0.3,0.4-0.5,0.4h-3.6V18.2z"/>
</g>
<g>
	<path class="st1" d="M23.8,47.6C10.7,47.6,0,36.9,0,23.8C0,10.7,10.7,0,23.8,0c13.1,0,23.8,10.7,23.8,23.8
		C47.6,36.9,36.9,47.6,23.8,47.6z M23.8,1.7c-12.2,0-22.1,9.9-22.1,22.1c0,12.2,9.9,22.1,22.1,22.1c12.2,0,22.1-9.9,22.1-22.1
		C45.9,11.6,36,1.7,23.8,1.7z"/>
</g>
<g>
	<path class="st1" d="M34.6,36.1C34.6,36.1,34.6,36.1,34.6,36.1l-21,0c-4.4,0-8-3.6-8-8c0-2.9,1.6-5.6,4.2-7c0-0.1,0-0.3,0-0.4
		c0-3,2.4-5.4,5.4-5.4c0.9,0,1.8,0.2,2.5,0.6c2-2.7,5.1-4.3,8.5-4.3c5.6,0,10.2,4.4,10.6,9.9c3.1,0.9,5.3,3.8,5.3,7.1
		C42,32.7,38.7,36.1,34.6,36.1z M13.6,34.9h21c0,0,0,0,0.1,0c3.5,0,6.3-2.9,6.3-6.3c0-3.5-2.8-6.3-6.3-6.3c-0.3,0-0.6-0.3-0.6-0.6
		s0.3-0.6,0.6-0.6c0.3,0,0.7,0,1,0.1c-0.5-4.8-4.5-8.6-9.4-8.6c-3,0-5.8,1.4-7.6,3.8c0.6,0.5,1.1,1.1,1.4,1.8c0.1,0.3,0,0.6-0.3,0.8
		c-0.3,0.1-0.6,0-0.8-0.3c-0.7-1.5-2.2-2.4-3.8-2.4c-2.4,0-4.3,1.9-4.3,4.3c0,0.2,0,0.4,0,0.6c0,0,0,0.1,0,0.1c0,0.1,0,0.2-0.1,0.2
		c0,0.1-0.1,0.1-0.2,0.2c0,0-0.1,0-0.1,0.1c-2.4,1.1-3.9,3.6-3.9,6.2C6.7,31.9,9.8,34.9,13.6,34.9z M28.3,31.5h-7.7
		c-0.3,0-0.6-0.3-0.6-0.6v-5.6c0-0.3,0.3-0.6,0.6-0.6h0.9v-1.6c0-1.6,1.3-2.9,2.9-2.9c1.6,0,2.9,1.3,2.9,2.9v1.6h1
		c0.3,0,0.6,0.3,0.6,0.6v5.6C28.8,31.2,28.6,31.5,28.3,31.5z M21.1,30.3h6.6v-4.5h-6.6V30.3z M22.6,24.7h3.6v-1.6
		c0-1-0.8-1.8-1.8-1.8c-1,0-1.8,0.8-1.8,1.8V24.7z"/>
</g>
</svg>
