<?xml version="1.0" encoding="utf-8"?>
<!-- Generator: Adobe Illustrator 21.1.0, SVG Export Plug-In . SVG Version: 6.00 Build 0)  -->
<svg version="1.1" id="Layer_1" xmlns="http://www.w3.org/2000/svg" xmlns:xlink="http://www.w3.org/1999/xlink" x="0px" y="0px"
	 viewBox="0 0 47.6 47.6" style="enable-background:new 0 0 47.6 47.6;" xml:space="preserve">
<style type="text/css">
	.st0{fill:none;stroke:#662F8F;stroke-width:4;stroke-linecap:round;stroke-linejoin:round;stroke-miterlimit:10;}
	.st1{fill:#662F8F;}
	.st2{fill:none;stroke:#662F8F;stroke-width:2;stroke-linecap:round;stroke-linejoin:round;stroke-miterlimit:10;}
	.st3{fill:none;stroke:#FFFFFF;stroke-width:0.488;stroke-linecap:round;stroke-linejoin:round;stroke-miterlimit:10;}
	.st4{fill:none;stroke:#E73E51;stroke-width:1.6927;}
	.st5{fill:none;stroke:#E73E51;stroke-width:1.1285;stroke-linecap:round;stroke-linejoin:round;stroke-miterlimit:10;}
	.st6{fill:#E73E51;}
	
		.st7{clip-path:url(#SVGID_2_);fill:none;stroke:#E73E51;stroke-width:1.1285;stroke-linecap:round;stroke-linejoin:round;stroke-miterlimit:10;}
	.st8{fill:none;stroke:#EE4050;stroke-width:1.1285;stroke-linecap:round;stroke-linejoin:round;stroke-miterlimit:10;}
</style>
<g>
	<path class="st0" d="M-567.4-109.6c9.6-9.6,22.8-15.5,37.3-15.5"/>
	<path class="st0" d="M-553-95.3c5.9-5.9,14-9.5,23-9.5"/>
	<path class="st0" d="M-596.2-138.4c17.7-17.7,41.2-27.4,66.1-27.4c25,0,48.4,9.7,66.1,27.4"/>
	<path class="st0" d="M-478.3-124c-13.3-13.3-31.6-21.5-51.7-21.5c-20.2,0-38.5,8.2-51.7,21.5"/>
	<path class="st0" d="M-492.7-109.6c-9.6-9.6-22.8-15.5-37.3-15.5"/>
	<path class="st0" d="M-507.1-95.3c-5.9-5.9-14-9.5-23-9.5"/>
	<path class="st0" d="M-521.5-63.7c-2.2,2.2-5.2,3.5-8.6,3.5c-6.7,0-12.1-5.4-12.1-12.1s5.4-12.1,12.1-12.1c3.3,0,6.4,1.4,8.6,3.5"
		/>
	<path class="st0" d="M-478.3-124c4,4,4,10.4,0,14.4c-4,4-10.4,4-14.4,0"/>
	<path class="st0" d="M-553-95.3c-4,4-10.4,4-14.4,0s-4-10.4,0-14.4"/>
	<path class="st0" d="M-507.1-95.3c4,4,4,10.4,0,14.4c-4,4-10.4,4-14.4,0"/>
	<path class="st0" d="M-581.8-124c-4,4-10.4,4-14.4,0s-4-10.4,0-14.4"/>
</g>
<g>
	<path class="st1" d="M-384.3-175.5c-28.7,0-52,23.3-52,52s23.3,52,52,52s52-23.3,52-52S-355.6-175.5-384.3-175.5z M-384.3-75.2
		c-26.6,0-48.3-21.7-48.3-48.3s21.7-48.3,48.3-48.3s48.3,21.7,48.3,48.3S-357.6-75.2-384.3-75.2z"/>
	<path class="st1" d="M-347.7-129.4c-4.8-4.7-10.4-8.3-16.4-10.7c0-0.3,0.1-0.7,0.1-1c0-11.1-9-20.2-20.2-20.2s-20.2,9-20.2,20.2
		c0,0.6,0,1.1,0.1,1.7c-5.5,2.4-10.5,5.8-14.9,10.1c0,0-0.1,0.1-0.1,0.1c-1.2,1.2-1.8,2.8-1.8,4.5c0,1.7,0.7,3.4,1.9,4.6
		c2.6,2.5,6.7,2.5,9.3,0c0,0,0,0,0,0c3.2-3.1,6.8-5.6,10.8-7.4c2.3,2.5,5.2,4.5,8.5,5.5c-5,1.2-9.6,3.7-13.4,7.4
		c0,0-0.1,0.1-0.1,0.1c-1.3,1.2-1.9,2.9-1.9,4.6c0,1.7,0.7,3.4,1.9,4.6c2.6,2.5,6.7,2.5,9.3,0c0,0,0,0,0,0h0c3-2.9,7-4.5,11.3-4.5
		c4.3,0,8.3,1.6,11.3,4.5c0,0,0,0,0,0c0.8,0.8,1.2,1.8,1.2,2.8c0,1.1-0.4,2.1-1.2,2.8c-1.6,1.6-4.3,1.6-5.9,0c0,0-0.1-0.1-0.1-0.1
		c-1.4-1.3-3.3-2.1-5.3-2.1c-4.2,0-7.6,3.3-7.6,7.5c0,4.1,3.4,7.5,7.6,7.5c2,0,3.9-0.8,5.4-2.2c0.5-0.5,0.5-1.3,0-1.7
		c-0.5-0.5-1.3-0.5-1.7,0c-1,1-2.3,1.5-3.7,1.5c-2.8,0-5.2-2.2-5.2-5c0-2.8,2.3-5,5.2-5c1.4,0,2.7,0.5,3.7,1.5c0,0,0.1,0.1,0.1,0.1
		c2.6,2.4,6.7,2.4,9.2-0.1c1.3-1.2,1.9-2.9,1.9-4.6s-0.7-3.4-1.9-4.6c0,0,0,0,0,0c-3.5-3.4-8.1-5.2-13-5.2c-4.9,0-9.5,1.9-13,5.2
		c0,0,0,0,0,0c-1.6,1.6-4.3,1.6-5.9,0c-0.8-0.8-1.2-1.8-1.2-2.8c0-1,0.4-2,1.1-2.7c0,0,0.1-0.1,0.1-0.1c5-4.9,11.7-7.6,18.8-7.6
		c7.1,0,13.8,2.7,18.8,7.6c0,0,0,0,0,0c2.6,2.5,6.7,2.5,9.3,0c1.3-1.2,1.9-2.9,1.9-4.6c0-1.7-0.7-3.4-1.9-4.6c0,0,0,0,0,0
		c-3.6-3.5-7.7-6.2-12.1-8.1c1.5-2.2,2.5-4.8,3-7.5c5.5,2.3,10.6,5.7,15,9.9c0.5,0.5,1.3,0.5,1.7,0
		C-347.2-128.1-347.2-128.9-347.7-129.4z M-411.6-122C-411.6-122-411.6-122-411.6-122c-1.6,1.6-4.3,1.6-5.9,0
		c-0.8-0.8-1.2-1.8-1.2-2.8c0-1.1,0.4-2.1,1.2-2.8c0,0,0.1-0.1,0.1-0.1c4-3.9,8.5-6.9,13.5-9.2c0.6,2.7,1.7,5.2,3.3,7.4
		C-404.7-127.7-408.4-125.1-411.6-122z M-357-120.2C-357-120.2-357-120.2-357-120.2c0.8,0.8,1.2,1.8,1.2,2.8c0,1.1-0.4,2.1-1.2,2.8
		c-1.6,1.6-4.3,1.6-5.9,0c0,0,0,0,0,0c-4-3.9-9-6.5-14.4-7.7c3.3-1.2,6.1-3.2,8.4-5.8C-364.6-126.2-360.5-123.6-357-120.2z
		 M-384.3-123.5c-9.8,0-17.7-7.9-17.7-17.7c0-9.8,7.9-17.7,17.7-17.7s17.7,7.9,17.7,17.7C-366.6-131.4-374.5-123.5-384.3-123.5z"/>
	<path class="st1" d="M-391.9-142.5h-1.9l0.1-3.7h5.6v-1.5h-7.1l-0.2,6.6h2.9c2.5,0,3.4,1.1,3.4,2.5c0,1.4-1,2.5-2.8,2.5
		c-1.3,0-2.5-0.6-3.4-1.6l-1,1c1.1,1.3,2.6,2,4.4,2c2.4,0,4.5-1.5,4.5-4.2C-387.4-140.7-388.9-142.5-391.9-142.5z"/>
	<path class="st1" d="M-377.9-141.6v1.5h3.9c-0.3,2.5-1.9,4.1-4.5,4.1c-2.8,0-4.9-2.1-4.9-5.1c0-3,2.2-5.1,5-5.1
		c1.6,0,2.9,0.7,3.8,1.7l1.2-1.2c-1.2-1.3-3-2.1-5-2.1c-3.9,0-6.7,2.8-6.7,6.7c0,4.2,3.2,6.7,6.6,6.7c3.9,0,6.3-3,6.3-6.7
		c0-0.1,0-0.3,0-0.4H-377.9z"/>
</g>
<g>
	<line class="st2" x1="-252.4" y1="-89.9" x2="-252.4" y2="-81.2"/>
	<path class="st2" d="M-266.1-81.2c-2.8,0-5.2-2.3-5.2-5.2v-77.8c0-2.8,2.3-5.2,5.2-5.2h69.9c2.8,0,5.2,2.3,5.2,5.2v77.8
		c0,2.8-2.3,5.2-5.2,5.2h-56.2"/>
	<path class="st2" d="M-252.4-89.9h-5c-2.8,0-5.2-2.3-5.2-5.2v-60.4c0-2.8,2.3-5.2,5.2-5.2h10.1c2.8,0,5.2,2.3,5.2,5.2v60.4"/>
	<g>
		<g>
			<circle class="st2" cx="-230.4" cy="-140" r="3.8"/>
			<circle class="st2" cx="-216.5" cy="-140" r="3.8"/>
			<circle class="st2" cx="-202.6" cy="-140" r="3.8"/>
			<circle class="st2" cx="-230.4" cy="-126.1" r="3.8"/>
			<circle class="st2" cx="-216.5" cy="-126.1" r="3.8"/>
			<circle class="st2" cx="-202.6" cy="-126.1" r="3.8"/>
			<circle class="st2" cx="-230.4" cy="-112.2" r="3.8"/>
			<circle class="st2" cx="-216.5" cy="-112.2" r="3.8"/>
			<circle class="st2" cx="-202.6" cy="-112.2" r="3.8"/>
			<circle class="st2" cx="-230.4" cy="-98.4" r="3.8"/>
			<circle class="st2" cx="-216.5" cy="-98.4" r="3.8"/>
			<circle class="st2" cx="-202.6" cy="-98.4" r="3.8"/>
		</g>
		<line class="st2" x1="-234.2" y1="-156" x2="-198.8" y2="-156"/>
	</g>
</g>
<g>
	<path class="st3" d="M-335,22.5v-1c0-2.7-2.1-4.9-4.8-5c-2.8-0.1-5.1,2.2-5.1,4.9l0,3.8h10.9c0.7,0,1.3,0.6,1.3,1.3v8.6
		c0,0.7-0.6,1.3-1.3,1.3h-2.7c-0.5,0-1-0.4-1.1-0.9l-0.8-3.2v0c0.6-0.5,0.9-1.2,0.8-2.1c-0.1-1-1-1.7-1.9-1.9
		c-1.3-0.1-2.5,0.9-2.5,2.2c0,0.7,0.3,1.3,0.8,1.7h0c0,0-0.5,2-0.8,3.2c-0.1,0.5-0.6,0.9-1.1,0.9h-2.7c-0.7,0-1.3-0.6-1.3-1.3v-8.6"
		/>
</g>
<g>
	<circle class="st4" cx="-216.8" cy="29.8" r="23"/>
	<path class="st5" d="M-240,29.8l23.2-0.1 M-216.8,29.7V6.6V29.7z M-205.2,29.7c0,6.4-5.2,11.6-11.6,11.6c-6.4,0-11.7-5.2-11.7-11.6
		c0-6.4,5.2-11.6,11.7-11.6C-210.4,18-205.2,23.2-205.2,29.7z M-199.5,29.7c0,9.5-7.7,17.3-17.3,17.3c-9.5,0-17.3-7.7-17.3-17.3
		c0-9.5,7.7-17.3,17.3-17.3C-207.3,12.4-199.5,20.1-199.5,29.7z"/>
	<path class="st6" d="M-232.5,24.4c1.2,0,2.2-1,2.2-2.2c0-1.2-1-2.2-2.2-2.2c-1.2,0-2.2,1-2.2,2.2
		C-234.7,23.4-233.7,24.4-232.5,24.4"/>
</g>
<g>
	<circle class="st4" cx="-275.2" cy="30.2" r="23"/>
	<path class="st5" d="M-264.4,22.9l7.1,7.2 M-264.4,22.9l-7.1,10.3 M-278.5,37.4l7.1-4.2 M-278.5,37.4l-7.1-9.5 M-292.6,32.8
		l7.1-4.9"/>
	<path class="st6" d="M-287.7,27.9c0-1.2,1-2.1,2.1-2.1c1.2,0,2.1,1,2.1,2.1c0,1.2-1,2.1-2.1,2.1C-286.7,30-287.7,29-287.7,27.9"/>
	<path class="st6" d="M-280.6,37.4c0-1.2,1-2.1,2.1-2.1c1.2,0,2.1,1,2.1,2.1c0,1.2-1,2.1-2.1,2.1C-279.7,39.5-280.6,38.6-280.6,37.4
		"/>
	<path class="st6" d="M-273.6,33.2c0-1.2,1-2.1,2.1-2.1c1.2,0,2.1,1,2.1,2.1c0,1.2-1,2.1-2.1,2.1C-272.6,35.3-273.6,34.4-273.6,33.2
		"/>
	<path class="st6" d="M-266.5,22.9c0-1.2,1-2.1,2.1-2.1c1.2,0,2.1,1,2.1,2.1c0,1.2-1,2.1-2.1,2.1C-265.6,25-266.5,24.1-266.5,22.9"
		/>
	<path class="st6" d="M-259.6,30c0-1.2,1-2.1,2.1-2.1c1.2,0,2.1,1,2.1,2.1c0,1.2-1,2.1-2.1,2.1C-258.7,32.1-259.6,31.2-259.6,30"/>
	<path class="st6" d="M-294.5,32.6c0-1.2,1-2.1,2.1-2.1c1.2,0,2.1,1,2.1,2.1c0,1.2-1,2.1-2.1,2.1C-293.5,34.8-294.5,33.8-294.5,32.6
		"/>
</g>
<g>
	<circle class="st4" cx="-167" cy="-10.5" r="23"/>
	<g>
		<defs>
			<path id="SVGID_1_" d="M-190.8-10.7c0,12.4,9.6,22.6,21.8,23.5h3.6c11.7-0.9,21.1-10.4,21.8-22.2v-2.7
				c-0.7-12.4-11-22.2-23.6-22.2C-180.3-34.3-190.8-23.7-190.8-10.7"/>
		</defs>
		<clipPath id="SVGID_2_">
			<use xlink:href="#SVGID_1_"  style="overflow:visible;"/>
		</clipPath>
		<path class="st7" d="M-144.2,20.9h-12.1c-0.5,0-0.9-0.4-0.9-0.9v-5.2c0-0.5,0.4-0.9,0.9-0.9h12.1c0.5,0,0.9,0.4,0.9,0.9v5.2
			C-143.3,20.4-143.7,20.9-144.2,20.9z M-158.2,20.9h-12.1c-0.5,0-0.9-0.4-0.9-0.9v-5.2c0-0.5,0.4-0.9,0.9-0.9h12.1
			c0.5,0,0.9,0.4,0.9,0.9v5.2C-157.3,20.4-157.7,20.9-158.2,20.9z M-172.1,20.9h-12.1c-0.5,0-0.9-0.4-0.9-0.9v-5.2
			c0-0.5,0.4-0.9,0.9-0.9h12.1c0.5,0,0.9,0.4,0.9,0.9v5.2C-171.2,20.4-171.6,20.9-172.1,20.9z M-186.1,20.9h-12.1
			c-0.5,0-0.9-0.4-0.9-0.9v-5.2c0-0.5,0.4-0.9,0.9-0.9h12.1c0.5,0,0.9,0.4,0.9,0.9v5.2C-185.2,20.4-185.6,20.9-186.1,20.9z
			 M-137,13.8h-12.1c-0.5,0-0.9-0.4-0.9-0.9V7.7c0-0.5,0.4-0.9,0.9-0.9h12.1c0.5,0,0.9,0.4,0.9,0.9v5.2
			C-136,13.4-136.5,13.8-137,13.8z M-151,13.8h-12.1c-0.5,0-0.9-0.4-0.9-0.9V7.7c0-0.5,0.4-0.9,0.9-0.9h12.1c0.5,0,0.9,0.4,0.9,0.9
			v5.2C-150,13.4-150.5,13.8-151,13.8z M-164.9,13.8H-177c-0.5,0-0.9-0.4-0.9-0.9V7.7c0-0.5,0.4-0.9,0.9-0.9h12.1
			c0.5,0,0.9,0.4,0.9,0.9v5.2C-163.9,13.4-164.4,13.8-164.9,13.8z M-178.9,13.8H-191c-0.5,0-0.9-0.4-0.9-0.9V7.7
			c0-0.5,0.4-0.9,0.9-0.9h12.1c0.5,0,0.9,0.4,0.9,0.9v5.2C-177.9,13.4-178.3,13.8-178.9,13.8z M-144.2,6.7h-12.1
			c-0.5,0-0.9-0.4-0.9-0.9V0.5c0-0.5,0.4-0.9,0.9-0.9h12.1c0.5,0,0.9,0.4,0.9,0.9v5.2C-143.3,6.3-143.7,6.7-144.2,6.7z M-158.2,6.7
			h-12.1c-0.5,0-0.9-0.4-0.9-0.9V0.5c0-0.5,0.4-0.9,0.9-0.9h12.1c0.5,0,0.9,0.4,0.9,0.9v5.2C-157.3,6.3-157.7,6.7-158.2,6.7z
			 M-172.1,6.7h-12.1c-0.5,0-0.9-0.4-0.9-0.9V0.5c0-0.5,0.4-0.9,0.9-0.9h12.1c0.5,0,0.9,0.4,0.9,0.9v5.2
			C-171.2,6.3-171.6,6.7-172.1,6.7z M-186.1,6.7h-12.1c-0.5,0-0.9-0.4-0.9-0.9V0.5c0-0.5,0.4-0.9,0.9-0.9h12.1
			c0.5,0,0.9,0.4,0.9,0.9v5.2C-185.2,6.3-185.6,6.7-186.1,6.7z M-137-0.4h-12.1c-0.5,0-0.9-0.4-0.9-0.9v-5.2c0-0.5,0.4-0.9,0.9-0.9
			h12.1c0.5,0,0.9,0.4,0.9,0.9v5.2C-136-0.8-136.5-0.4-137-0.4z M-151-0.4h-12.1c-0.5,0-0.9-0.4-0.9-0.9v-5.2c0-0.5,0.4-0.9,0.9-0.9
			h12.1c0.5,0,0.9,0.4,0.9,0.9v5.2C-150-0.8-150.5-0.4-151-0.4z M-164.9-0.4H-177c-0.5,0-0.9-0.4-0.9-0.9v-5.2
			c0-0.5,0.4-0.9,0.9-0.9h12.1c0.5,0,0.9,0.4,0.9,0.9v5.2C-163.9-0.8-164.4-0.4-164.9-0.4z M-178.9-0.4H-191c-0.5,0-0.9-0.4-0.9-0.9
			v-5.2c0-0.5,0.4-0.9,0.9-0.9h12.1c0.5,0,0.9,0.4,0.9,0.9v5.2C-177.9-0.8-178.3-0.4-178.9-0.4z M-144.2-7.5h-12.1
			c-0.5,0-0.9-0.4-0.9-0.9v-5.2c0-0.5,0.4-0.9,0.9-0.9h12.1c0.5,0,0.9,0.4,0.9,0.9v5.2C-143.3-7.9-143.7-7.5-144.2-7.5z M-158.2-7.5
			h-12.1c-0.5,0-0.9-0.4-0.9-0.9v-5.2c0-0.5,0.4-0.9,0.9-0.9h12.1c0.5,0,0.9,0.4,0.9,0.9v5.2C-157.3-7.9-157.7-7.5-158.2-7.5z
			 M-172.1-7.5h-12.1c-0.5,0-0.9-0.4-0.9-0.9v-5.2c0-0.5,0.4-0.9,0.9-0.9h12.1c0.5,0,0.9,0.4,0.9,0.9v5.2
			C-171.2-7.9-171.6-7.5-172.1-7.5z M-186.1-7.5h-12.1c-0.5,0-0.9-0.4-0.9-0.9v-5.2c0-0.5,0.4-0.9,0.9-0.9h12.1
			c0.5,0,0.9,0.4,0.9,0.9v5.2C-185.2-7.9-185.6-7.5-186.1-7.5z"/>
	</g>
</g>
<circle class="st4" cx="-105.2" cy="15" r="23"/>
<path class="st8" d="M-105.1,24.1c-1.2-0.5-5.6-2.7-5.6-7.1v-6.8c2.6-0.1,4.7-1,5.6-1.5c0.9,0.5,3,1.4,5.6,1.5V17
	C-99.4,21.5-103.9,23.6-105.1,24.1z"/>
<path class="st8" d="M-102.6,19h-4.8v-3.5h4.8V19z M-106.5,15.5v-1.4c0-0.8,0.7-1.5,1.5-1.5c0.8,0,1.5,0.7,1.5,1.5v1.4"/>
<path class="st8" d="M-91.4,8.1l0-1.4c0-0.5-0.4-0.9-0.9-0.9l-12.3,0.1l-3.6-3.6l-8.6,0c-1,0-1.9,0.9-1.9,1.9l0.1,22.7h27.2V8.1z"/>
<g>
	<circle class="st4" cx="-38.9" cy="19.4" r="23"/>
	<path class="st8" d="M-28.5,28.1c0,1.8-1.5,3.3-3.3,3.3c-1.8,0-3.3-1.5-3.3-3.3c0-1.8,1.5-3.3,3.3-3.3
		C-30,24.8-28.5,26.3-28.5,28.1z M-32.5,27.2l0.8,2l1.5-3.9 M-47.7,24.2h9.1 M-47.7,21.4H-33 M-47.7,18.6H-33 M-47.7,15.8H-33
		 M-47.7,12.9h9.9 M-47.7,10.1h9.9 M-33.1,4.4h6.9v29.8h-25.2V4.4H-33.1z"/>
</g>
<circle class="st4" cx="23.8" cy="23.8" r="23"/>
<path class="st8" d="M23.6,29v1.1 M23.6,18.2v7.2 M23.6,9.7L9.7,33.8h27.9L23.6,9.7z"/>
</svg>
