<?xml version="1.0" encoding="utf-8"?>
<!-- Generator: Adobe Illustrator 21.1.0, SVG Export Plug-In . SVG Version: 6.00 Build 0)  -->
<svg version="1.1" id="Layer_1" xmlns="http://www.w3.org/2000/svg" xmlns:xlink="http://www.w3.org/1999/xlink" x="0px" y="0px"
	 viewBox="0 0 462 440" style="enable-background:new 0 0 462 440;" xml:space="preserve">
<style type="text/css">
	.st0{fill:none;stroke:#FFFFFF;stroke-width:12.3436;stroke-linecap:round;stroke-linejoin:round;stroke-miterlimit:10;}
</style>
<g>
	<path class="st0" d="M126.2,333.6"/>
	<path class="st0" d="M231.1,14.7c0,0-66.9,71.7-66.9,214.4v80.8l-30.9,30.9c0,0,0-25.3,0-55.9c0-34.5,28-62.5,62.5-62.5v194l0,0
		C111.7,400,48.2,325.9,48.2,236.9c0-71.3,40.8-133,100.3-163.2"/>
	<path class="st0" d="M231.1,14.7c0,0,66.9,71.7,66.9,214.4v80.8l30.9,30.9c0,0,0-25.3,0-55.9c0-34.5-28-62.5-62.5-62.5v194l0,0
		C350.5,400,414,325.9,414,236.9c0-71.3-40.8-133-100.3-163.2"/>
	<circle class="st0" cx="231.1" cy="148" r="22.1"/>
</g>
</svg>
