<?xml version="1.0" encoding="utf-8"?>
<!-- Generator: Adobe Illustrator 21.1.0, SVG Export Plug-In . SVG Version: 6.00 Build 0)  -->
<svg version="1.1" id="Layer_1" xmlns="http://www.w3.org/2000/svg" xmlns:xlink="http://www.w3.org/1999/xlink" x="0px" y="0px"
	 viewBox="0 0 47.6 47.6" style="enable-background:new 0 0 47.6 47.6;" xml:space="preserve">
<style type="text/css">
	.st0{fill:none;stroke:#662F8F;stroke-width:4;stroke-linecap:round;stroke-linejoin:round;stroke-miterlimit:10;}
	.st1{fill:#662F8F;}
	.st2{fill:none;stroke:#662F8F;stroke-width:2;stroke-linecap:round;stroke-linejoin:round;stroke-miterlimit:10;}
	.st3{fill:none;stroke:#FFFFFF;stroke-width:0.488;stroke-linecap:round;stroke-linejoin:round;stroke-miterlimit:10;}
	.st4{fill:none;stroke:#E73E51;stroke-width:1.6927;}
	.st5{fill:none;stroke:#E73E51;stroke-width:1.1285;stroke-linecap:round;stroke-linejoin:round;stroke-miterlimit:10;}
	.st6{fill:#E73E51;}
	
		.st7{clip-path:url(#SVGID_2_);fill:none;stroke:#E73E51;stroke-width:1.1285;stroke-linecap:round;stroke-linejoin:round;stroke-miterlimit:10;}
	.st8{fill:none;stroke:#EE4050;stroke-width:1.1285;stroke-linecap:round;stroke-linejoin:round;stroke-miterlimit:10;}
</style>
<g>
	<path class="st0" d="M-640.9-109.9c9.6-9.6,22.8-15.5,37.3-15.5"/>
	<path class="st0" d="M-626.5-95.5c5.9-5.9,14-9.5,23-9.5"/>
	<path class="st0" d="M-669.7-138.7c17.7-17.7,41.2-27.4,66.1-27.4c25,0,48.4,9.7,66.1,27.4"/>
	<path class="st0" d="M-551.8-124.3c-13.3-13.3-31.6-21.5-51.7-21.5s-38.5,8.2-51.7,21.5"/>
	<path class="st0" d="M-566.2-109.9c-9.6-9.6-22.8-15.5-37.3-15.5"/>
	<path class="st0" d="M-580.6-95.5c-5.9-5.9-14-9.5-23-9.5"/>
	<path class="st0" d="M-595-64c-2.2,2.2-5.2,3.5-8.6,3.5c-6.7,0-12.1-5.4-12.1-12.1s5.4-12.1,12.1-12.1c3.3,0,6.4,1.4,8.6,3.5"/>
	<path class="st0" d="M-551.8-124.3c4,4,4,10.4,0,14.4c-4,4-10.4,4-14.4,0"/>
	<path class="st0" d="M-626.5-95.5c-4,4-10.4,4-14.4,0s-4-10.4,0-14.4"/>
	<path class="st0" d="M-580.6-95.5c4,4,4,10.4,0,14.4c-4,4-10.4,4-14.4,0"/>
	<path class="st0" d="M-655.3-124.3c-4,4-10.4,4-14.4,0c-4-4-4-10.4,0-14.4"/>
</g>
<g>
	<path class="st1" d="M-457.8-175.8c-28.7,0-52,23.3-52,52s23.3,52,52,52s52-23.3,52-52S-429.1-175.8-457.8-175.8z M-457.8-75.5
		c-26.6,0-48.3-21.7-48.3-48.3s21.7-48.3,48.3-48.3s48.3,21.7,48.3,48.3S-431.2-75.5-457.8-75.5z"/>
	<path class="st1" d="M-421.3-129.7c-4.8-4.7-10.4-8.3-16.4-10.7c0-0.3,0.1-0.7,0.1-1c0-11.1-9-20.2-20.2-20.2s-20.2,9-20.2,20.2
		c0,0.6,0,1.1,0.1,1.7c-5.5,2.4-10.5,5.8-14.9,10.1c0,0-0.1,0.1-0.1,0.1c-1.2,1.2-1.8,2.8-1.8,4.5c0,1.7,0.7,3.4,1.9,4.6
		c2.6,2.5,6.7,2.5,9.3,0c0,0,0,0,0,0c3.2-3.1,6.8-5.6,10.8-7.4c2.3,2.5,5.2,4.5,8.5,5.5c-5,1.2-9.6,3.7-13.4,7.4
		c0,0-0.1,0.1-0.1,0.1c-1.3,1.2-1.9,2.9-1.9,4.6c0,1.7,0.7,3.4,1.9,4.6c2.6,2.5,6.7,2.5,9.3,0c0,0,0,0,0,0h0c3-2.9,7-4.5,11.3-4.5
		c4.3,0,8.3,1.6,11.3,4.5c0,0,0,0,0,0c0.8,0.8,1.2,1.8,1.2,2.8c0,1.1-0.4,2.1-1.2,2.8c-1.6,1.6-4.3,1.6-5.9,0c0,0-0.1-0.1-0.1-0.1
		c-1.4-1.3-3.3-2.1-5.3-2.1c-4.2,0-7.6,3.3-7.6,7.5c0,4.1,3.4,7.5,7.6,7.5c2,0,3.9-0.8,5.4-2.2c0.5-0.5,0.5-1.3,0-1.7
		c-0.5-0.5-1.3-0.5-1.7,0c-1,1-2.3,1.5-3.7,1.5c-2.8,0-5.2-2.2-5.2-5c0-2.8,2.3-5,5.2-5c1.4,0,2.7,0.5,3.7,1.5c0,0,0.1,0.1,0.1,0.1
		c2.6,2.4,6.7,2.4,9.2-0.1c1.3-1.2,1.9-2.9,1.9-4.6s-0.7-3.4-1.9-4.6c0,0,0,0,0,0c-3.5-3.4-8.1-5.2-13-5.2c-4.9,0-9.5,1.9-13,5.2
		c0,0,0,0,0,0c-1.6,1.6-4.3,1.6-5.9,0c-0.8-0.8-1.2-1.8-1.2-2.8c0-1,0.4-2,1.1-2.7c0,0,0.1-0.1,0.1-0.1c5-4.9,11.7-7.6,18.8-7.6
		c7.1,0,13.8,2.7,18.8,7.6c0,0,0,0,0,0c2.6,2.5,6.7,2.5,9.3,0c1.3-1.2,1.9-2.9,1.9-4.6c0-1.7-0.7-3.4-1.9-4.6c0,0,0,0,0,0
		c-3.6-3.5-7.7-6.2-12.1-8.1c1.5-2.2,2.5-4.8,3-7.5c5.5,2.3,10.6,5.7,15,9.9c0.5,0.5,1.3,0.5,1.7,0
		C-420.8-128.4-420.8-129.2-421.3-129.7z M-485.2-122.3C-485.2-122.3-485.2-122.3-485.2-122.3c-1.6,1.6-4.3,1.6-5.9,0
		c-0.8-0.8-1.2-1.8-1.2-2.8c0-1.1,0.4-2.1,1.2-2.8c0,0,0.1-0.1,0.1-0.1c4-3.9,8.5-6.9,13.5-9.2c0.6,2.7,1.7,5.2,3.3,7.4
		C-478.3-128-482-125.4-485.2-122.3z M-430.6-120.5C-430.6-120.5-430.6-120.5-430.6-120.5c0.8,0.8,1.2,1.8,1.2,2.8
		c0,1.1-0.4,2.1-1.2,2.8c-1.6,1.6-4.3,1.6-5.9,0c0,0,0,0,0,0c-4-3.9-9-6.5-14.4-7.7c3.3-1.2,6.1-3.2,8.4-5.8
		C-438.1-126.5-434.1-123.9-430.6-120.5z M-457.8-123.8c-9.8,0-17.7-7.9-17.7-17.7c0-9.8,7.9-17.7,17.7-17.7s17.7,7.9,17.7,17.7
		C-440.1-131.7-448.1-123.8-457.8-123.8z"/>
	<path class="st1" d="M-465.5-142.8h-1.9l0.1-3.7h5.6v-1.5h-7.1l-0.2,6.6h2.9c2.5,0,3.4,1.1,3.4,2.5c0,1.4-1,2.5-2.8,2.5
		c-1.3,0-2.5-0.6-3.4-1.6l-1,1c1.1,1.3,2.6,2,4.4,2c2.4,0,4.5-1.5,4.5-4.2C-461-141-462.4-142.8-465.5-142.8z"/>
	<path class="st1" d="M-451.5-141.9v1.5h3.9c-0.3,2.5-1.9,4.1-4.5,4.1c-2.8,0-4.9-2.1-4.9-5.1c0-3,2.2-5.1,5-5.1
		c1.6,0,2.9,0.7,3.8,1.7l1.2-1.2c-1.2-1.3-3-2.1-5-2.1c-3.9,0-6.7,2.8-6.7,6.7c0,4.2,3.2,6.7,6.6,6.7c3.9,0,6.3-3,6.3-6.7
		c0-0.1,0-0.3,0-0.4H-451.5z"/>
</g>
<g>
	<line class="st2" x1="-325.9" y1="-90.2" x2="-325.9" y2="-81.5"/>
	<path class="st2" d="M-339.7-81.5c-2.8,0-5.2-2.3-5.2-5.2v-77.8c0-2.8,2.3-5.2,5.2-5.2h69.9c2.8,0,5.2,2.3,5.2,5.2v77.8
		c0,2.8-2.3,5.2-5.2,5.2h-56.2"/>
	<path class="st2" d="M-325.9-90.2h-5c-2.8,0-5.2-2.3-5.2-5.2v-60.4c0-2.8,2.3-5.2,5.2-5.2h10.1c2.8,0,5.2,2.3,5.2,5.2v60.4"/>
	<g>
		<g>
			<circle class="st2" cx="-304" cy="-140.3" r="3.8"/>
			<circle class="st2" cx="-290.1" cy="-140.3" r="3.8"/>
			<circle class="st2" cx="-276.2" cy="-140.3" r="3.8"/>
			<circle class="st2" cx="-304" cy="-126.4" r="3.8"/>
			<circle class="st2" cx="-290.1" cy="-126.4" r="3.8"/>
			<circle class="st2" cx="-276.2" cy="-126.4" r="3.8"/>
			<circle class="st2" cx="-304" cy="-112.5" r="3.8"/>
			<circle class="st2" cx="-290.1" cy="-112.5" r="3.8"/>
			<circle class="st2" cx="-276.2" cy="-112.5" r="3.8"/>
			<circle class="st2" cx="-304" cy="-98.6" r="3.8"/>
			<circle class="st2" cx="-290.1" cy="-98.6" r="3.8"/>
			<circle class="st2" cx="-276.2" cy="-98.6" r="3.8"/>
		</g>
		<line class="st2" x1="-307.7" y1="-156.3" x2="-272.4" y2="-156.3"/>
	</g>
</g>
<g>
	<path class="st3" d="M-408.6,22.2v-1c0-2.7-2.1-4.9-4.8-5c-2.8-0.1-5.1,2.2-5.1,4.9l0,3.8h10.9c0.7,0,1.3,0.6,1.3,1.3v8.6
		c0,0.7-0.6,1.3-1.3,1.3h-2.7c-0.5,0-1-0.4-1.1-0.9l-0.8-3.2v0c0.6-0.5,0.9-1.2,0.8-2.1c-0.1-1-1-1.7-1.9-1.9
		c-1.3-0.1-2.5,0.9-2.5,2.2c0,0.7,0.3,1.3,0.8,1.7h0c0,0-0.5,2-0.8,3.2c-0.1,0.5-0.6,0.9-1.1,0.9h-2.7c-0.7,0-1.3-0.6-1.3-1.3v-8.6"
		/>
</g>
<g>
	<circle class="st4" cx="-290.3" cy="29.5" r="23"/>
	<path class="st5" d="M-313.6,29.5l23.2-0.1 M-290.4,29.4V6.3V29.4z M-278.7,29.4c0,6.4-5.2,11.6-11.6,11.6
		c-6.4,0-11.7-5.2-11.7-11.6c0-6.4,5.2-11.6,11.7-11.6C-283.9,17.7-278.7,22.9-278.7,29.4z M-273.1,29.4c0,9.5-7.7,17.3-17.3,17.3
		c-9.5,0-17.3-7.7-17.3-17.3c0-9.5,7.7-17.3,17.3-17.3C-280.8,12.1-273.1,19.8-273.1,29.4z"/>
	<path class="st6" d="M-306.1,24.1c1.2,0,2.2-1,2.2-2.2c0-1.2-1-2.2-2.2-2.2c-1.2,0-2.2,1-2.2,2.2
		C-308.3,23.1-307.3,24.1-306.1,24.1"/>
</g>
<g>
	<circle class="st4" cx="-348.8" cy="30" r="23"/>
	<path class="st5" d="M-338,22.6l7.1,7.2 M-338,22.6l-7.1,10.3 M-352.1,37.1l7.1-4.2 M-352.1,37.1l-7.1-9.5 M-366.2,32.5l7.1-4.9"/>
	<path class="st6" d="M-361.3,27.6c0-1.2,1-2.1,2.1-2.1s2.1,1,2.1,2.1c0,1.2-1,2.1-2.1,2.1S-361.3,28.8-361.3,27.6"/>
	<path class="st6" d="M-354.2,37.1c0-1.2,1-2.1,2.1-2.1s2.1,1,2.1,2.1c0,1.2-1,2.1-2.1,2.1S-354.2,38.3-354.2,37.1"/>
	<path class="st6" d="M-347.2,32.9c0-1.2,1-2.1,2.1-2.1c1.2,0,2.1,1,2.1,2.1c0,1.2-1,2.1-2.1,2.1C-346.2,35-347.2,34.1-347.2,32.9"
		/>
	<path class="st6" d="M-340.1,22.6c0-1.2,1-2.1,2.1-2.1c1.2,0,2.1,1,2.1,2.1c0,1.2-1,2.1-2.1,2.1C-339.2,24.7-340.1,23.8-340.1,22.6
		"/>
	<path class="st6" d="M-333.2,29.7c0-1.2,1-2.1,2.1-2.1c1.2,0,2.1,1,2.1,2.1c0,1.2-1,2.1-2.1,2.1C-332.3,31.8-333.2,30.9-333.2,29.7
		"/>
	<path class="st6" d="M-368,32.3c0-1.2,1-2.1,2.1-2.1c1.2,0,2.1,1,2.1,2.1c0,1.2-1,2.1-2.1,2.1C-367.1,34.5-368,33.5-368,32.3"/>
</g>
<g>
	<circle class="st4" cx="-240.6" cy="-10.8" r="23"/>
	<g>
		<defs>
			<path id="SVGID_1_" d="M-264.4-11c0,12.4,9.6,22.6,21.8,23.5h3.6c11.7-0.9,21.1-10.4,21.8-22.2v-2.7c-0.7-12.4-11-22.2-23.6-22.2
				C-253.8-34.6-264.4-24-264.4-11"/>
		</defs>
		<clipPath id="SVGID_2_">
			<use xlink:href="#SVGID_1_"  style="overflow:visible;"/>
		</clipPath>
		<path class="st7" d="M-217.8,20.6h-12.1c-0.5,0-0.9-0.4-0.9-0.9v-5.2c0-0.5,0.4-0.9,0.9-0.9h12.1c0.5,0,0.9,0.4,0.9,0.9v5.2
			C-216.9,20.1-217.3,20.6-217.8,20.6z M-231.8,20.6h-12.1c-0.5,0-0.9-0.4-0.9-0.9v-5.2c0-0.5,0.4-0.9,0.9-0.9h12.1
			c0.5,0,0.9,0.4,0.9,0.9v5.2C-230.9,20.1-231.3,20.6-231.8,20.6z M-245.7,20.6h-12.1c-0.5,0-0.9-0.4-0.9-0.9v-5.2
			c0-0.5,0.4-0.9,0.9-0.9h12.1c0.5,0,0.9,0.4,0.9,0.9v5.2C-244.8,20.1-245.2,20.6-245.7,20.6z M-259.7,20.6h-12.1
			c-0.5,0-0.9-0.4-0.9-0.9v-5.2c0-0.5,0.4-0.9,0.9-0.9h12.1c0.5,0,0.9,0.4,0.9,0.9v5.2C-258.8,20.1-259.2,20.6-259.7,20.6z
			 M-210.5,13.5h-12.1c-0.5,0-0.9-0.4-0.9-0.9V7.4c0-0.5,0.4-0.9,0.9-0.9h12.1c0.5,0,0.9,0.4,0.9,0.9v5.2
			C-209.6,13.1-210,13.5-210.5,13.5z M-224.5,13.5h-12.1c-0.5,0-0.9-0.4-0.9-0.9V7.4c0-0.5,0.4-0.9,0.9-0.9h12.1
			c0.5,0,0.9,0.4,0.9,0.9v5.2C-223.6,13.1-224,13.5-224.5,13.5z M-238.4,13.5h-12.1c-0.5,0-0.9-0.4-0.9-0.9V7.4
			c0-0.5,0.4-0.9,0.9-0.9h12.1c0.5,0,0.9,0.4,0.9,0.9v5.2C-237.5,13.1-237.9,13.5-238.4,13.5z M-252.4,13.5h-12.1
			c-0.5,0-0.9-0.4-0.9-0.9V7.4c0-0.5,0.4-0.9,0.9-0.9h12.1c0.5,0,0.9,0.4,0.9,0.9v5.2C-251.5,13.1-251.9,13.5-252.4,13.5z
			 M-217.8,6.4h-12.1c-0.5,0-0.9-0.4-0.9-0.9V0.3c0-0.5,0.4-0.9,0.9-0.9h12.1c0.5,0,0.9,0.4,0.9,0.9v5.2
			C-216.9,6-217.3,6.4-217.8,6.4z M-231.8,6.4h-12.1c-0.5,0-0.9-0.4-0.9-0.9V0.3c0-0.5,0.4-0.9,0.9-0.9h12.1c0.5,0,0.9,0.4,0.9,0.9
			v5.2C-230.9,6-231.3,6.4-231.8,6.4z M-245.7,6.4h-12.1c-0.5,0-0.9-0.4-0.9-0.9V0.3c0-0.5,0.4-0.9,0.9-0.9h12.1
			c0.5,0,0.9,0.4,0.9,0.9v5.2C-244.8,6-245.2,6.4-245.7,6.4z M-259.7,6.4h-12.1c-0.5,0-0.9-0.4-0.9-0.9V0.3c0-0.5,0.4-0.9,0.9-0.9
			h12.1c0.5,0,0.9,0.4,0.9,0.9v5.2C-258.8,6-259.2,6.4-259.7,6.4z M-210.5-0.7h-12.1c-0.5,0-0.9-0.4-0.9-0.9v-5.2
			c0-0.5,0.4-0.9,0.9-0.9h12.1c0.5,0,0.9,0.4,0.9,0.9v5.2C-209.6-1.1-210-0.7-210.5-0.7z M-224.5-0.7h-12.1c-0.5,0-0.9-0.4-0.9-0.9
			v-5.2c0-0.5,0.4-0.9,0.9-0.9h12.1c0.5,0,0.9,0.4,0.9,0.9v5.2C-223.6-1.1-224-0.7-224.5-0.7z M-238.4-0.7h-12.1
			c-0.5,0-0.9-0.4-0.9-0.9v-5.2c0-0.5,0.4-0.9,0.9-0.9h12.1c0.5,0,0.9,0.4,0.9,0.9v5.2C-237.5-1.1-237.9-0.7-238.4-0.7z M-252.4-0.7
			h-12.1c-0.5,0-0.9-0.4-0.9-0.9v-5.2c0-0.5,0.4-0.9,0.9-0.9h12.1c0.5,0,0.9,0.4,0.9,0.9v5.2C-251.5-1.1-251.9-0.7-252.4-0.7z
			 M-217.8-7.8h-12.1c-0.5,0-0.9-0.4-0.9-0.9v-5.2c0-0.5,0.4-0.9,0.9-0.9h12.1c0.5,0,0.9,0.4,0.9,0.9v5.2
			C-216.9-8.2-217.3-7.8-217.8-7.8z M-231.8-7.8h-12.1c-0.5,0-0.9-0.4-0.9-0.9v-5.2c0-0.5,0.4-0.9,0.9-0.9h12.1
			c0.5,0,0.9,0.4,0.9,0.9v5.2C-230.9-8.2-231.3-7.8-231.8-7.8z M-245.7-7.8h-12.1c-0.5,0-0.9-0.4-0.9-0.9v-5.2
			c0-0.5,0.4-0.9,0.9-0.9h12.1c0.5,0,0.9,0.4,0.9,0.9v5.2C-244.8-8.2-245.2-7.8-245.7-7.8z M-259.7-7.8h-12.1
			c-0.5,0-0.9-0.4-0.9-0.9v-5.2c0-0.5,0.4-0.9,0.9-0.9h12.1c0.5,0,0.9,0.4,0.9,0.9v5.2C-258.8-8.2-259.2-7.8-259.7-7.8z"/>
	</g>
</g>
<circle class="st4" cx="-178.7" cy="14.7" r="23"/>
<path class="st8" d="M-178.6,23.8c-1.2-0.5-5.6-2.7-5.6-7.1V10c2.6-0.1,4.7-1,5.6-1.5c0.9,0.5,3,1.4,5.6,1.5v6.8
	C-173,21.2-177.4,23.3-178.6,23.8z"/>
<path class="st8" d="M-176.2,18.7h-4.8v-3.5h4.8V18.7z M-180.1,15.2v-1.4c0-0.8,0.7-1.5,1.5-1.5c0.8,0,1.5,0.7,1.5,1.5v1.4"/>
<path class="st8" d="M-165,7.8l0-1.4c0-0.5-0.4-0.9-0.9-0.9l-12.3,0.1l-3.6-3.6l-8.6,0c-1,0-1.9,0.9-1.9,1.9l0.1,22.7h27.2V7.8z"/>
<g>
	<circle class="st4" cx="-112.5" cy="19.1" r="23"/>
	<path class="st8" d="M-102,27.8c0,1.8-1.5,3.3-3.3,3.3c-1.8,0-3.3-1.5-3.3-3.3c0-1.8,1.5-3.3,3.3-3.3C-103.5,24.5-102,26-102,27.8z
		 M-106.1,26.9l0.8,2l1.5-3.9 M-121.2,24h9.1 M-121.2,21.1h14.7 M-121.2,18.3h14.7 M-121.2,15.5h14.7 M-121.2,12.6h9.9 M-121.2,9.8
		h9.9 M-106.6,4.1h6.9v29.8h-25.2V4.1H-106.6z"/>
</g>
<circle class="st4" cx="-49.8" cy="23.5" r="23"/>
<path class="st8" d="M-49.9,28.7v1.1 M-49.9,17.9v7.2 M-49.9,9.4l-13.9,24.2H-36L-49.9,9.4z"/>
<circle class="st4" cx="23.8" cy="23.8" r="23"/>
<path class="st8" d="M23.8,41.2c-2.4-1-11.4-5.4-11.4-14.4V13.1c5.3-0.1,9.6-2,11.4-3c1.8,1,6,2.8,11.4,3v13.7
	C35.2,35.8,26.2,40.2,23.8,41.2z"/>
<path class="st8" d="M28.7,30.9h-9.8v-7.1h9.8V30.9z M20.8,23.8V21c0-1.6,1.3-3,3-3c1.6,0,3,1.3,3,3v2.8"/>
</svg>
