<?xml version="1.0" encoding="utf-8"?>
<!-- Generator: Adobe Illustrator 21.1.0, SVG Export Plug-In . SVG Version: 6.00 Build 0)  -->
<svg version="1.1" id="Layer_1" xmlns="http://www.w3.org/2000/svg" xmlns:xlink="http://www.w3.org/1999/xlink" x="0px" y="0px"
	 viewBox="0 0 47.6 47.6" style="enable-background:new 0 0 47.6 47.6;" xml:space="preserve">
<style type="text/css">
	.st0{fill:none;stroke:#E73E51;stroke-width:1.6927;}
	.st1{fill:#EE4050;}
	.st2{fill:none;stroke:#EE4050;stroke-width:1.1285;stroke-linecap:round;stroke-linejoin:round;stroke-miterlimit:10;}
</style>
<circle class="st0" cx="23.8" cy="23.8" r="23"/>
<path class="st1" d="M17.3,28c-0.9-0.9-1.6-2.1-1.7-3.4c-0.1-1.3,0.4-2.8,1.7-4.1c0.3-0.3,0.5-0.5,0.6-0.7c0-0.2,0.1-0.4-0.2-0.9
	l-3-4.1c-0.4-0.4-0.5-0.4-0.8-0.3c-0.3,0.1-0.7,0.4-1.1,0.8c-2.4,2.5-3.1,4.7-2.8,6.9c0.4,2.2,2,4.7,4.7,7.6
	c1.1,1.2,2.3,2.5,3.3,3.5c2.7,2.8,5,4.5,7.2,4.9c2.1,0.4,4.1-0.4,6.5-2.9c0.4-0.4,0.7-0.8,0.8-1.1c0.1-0.3,0.1-0.5-0.3-0.9l-3.9-3.1
	c-0.5-0.3-0.7-0.3-0.9-0.2c-0.1,0.1-0.3,0.2-0.6,0.6c-1.2,1.4-2.6,2-3.9,1.8c-1.3-0.1-2.4-0.9-3.3-1.8 M20.6,29.5
	c0.7,0.8,1.6,1.3,2.4,1.4c0.8,0.1,1.7-0.2,2.7-1.4c0.3-0.4,0.6-0.8,1.2-1c0.6-0.2,1.2-0.1,2,0.3c1.4,1.1,2.8,2.2,4.2,3.4
	c0.6,0.7,0.8,1.6,0.6,2.3c-0.2,0.7-0.7,1.2-1.1,1.7c-2.3,2.5-5,3.8-7.7,3.3c-2.6-0.5-5.1-2.4-7.9-5.3c-1.2-1.3-2.1-2.2-3.3-3.5
	c-2.8-2.9-4.6-5.6-5-8.3c-0.5-3.4,1.2-6.1,3.2-8.2c0.4-0.4,0.9-0.9,1.6-1.1c0.7-0.2,1.5,0,2.2,0.6c1.1,1.4,2.1,2.9,3.2,4.4
	c0.4,0.8,0.5,1.5,0.3,2.1c-0.2,0.6-0.6,1-0.9,1.3c-1.1,1-1.4,2-1.3,2.9c0.1,0.9,0.6,1.8,1.3,2.6"/>
<path class="st2" d="M31.6,10.8v15.3 M34,12.7v11.5 M29.1,12.7v11.5 M24.4,16v4.8 M38.5,16v4.8 M36.2,14.6v7.6 M26.7,14.6v7.6"/>
</svg>
