<?xml version="1.0" encoding="utf-8"?>
<!-- Generator: Adobe Illustrator 21.1.0, SVG Export Plug-In . SVG Version: 6.00 Build 0)  -->
<svg version="1.1" id="Layer_1" xmlns="http://www.w3.org/2000/svg" xmlns:xlink="http://www.w3.org/1999/xlink" x="0px" y="0px"
	 viewBox="0 0 52.2 15.1" style="enable-background:new 0 0 52.2 15.1;" xml:space="preserve">
<style type="text/css">
	.st0{fill:#FFFFFF;}
</style>
<g id="b5r0dH.tif_3_">
	<g>
		<path class="st0" d="M-1.2,30.9c0,2.4,0,4.9,0,7.3c0,0.1,0,0.2,0,0.3c-2.6,0-5.1,0-7.6,0c0-2.5,0-5.1,0-7.6
			C-6.3,30.9-3.7,30.9-1.2,30.9z"/>
		<path class="st0" d="M7.2,30.9c0,2.4,0,4.9,0,7.3c0,0.1,0,0.2,0,0.3c-2.5,0-5.1,0-7.6,0c0-2.5,0-5.1,0-7.6
			C2.1,30.9,4.7,30.9,7.2,30.9z"/>
		<path class="st0" d="M-8.8,39.3c2.5,0,5.1,0,7.6,0c0,2.5,0,5.1,0,7.6c-2.5,0-5.1,0-7.6,0C-8.8,44.4-8.8,41.8-8.8,39.3z"/>
		<path class="st0" d="M7.2,46.9c-2.5,0-5.1,0-7.6,0c0-2.5,0-5.1,0-7.6c2.5,0,5,0,7.6,0C7.2,41.8,7.2,44.4,7.2,46.9z"/>
		<path class="st0" d="M13.5,36.1c0,2.5,0,5.1,0,7.6c-0.5,0-1,0-1.4,0c0,0-0.1-0.1-0.1-0.1c0,0,0-0.1,0-0.2c0-3,0-6,0-9.1
			c0-0.1,0-0.2,0-0.3c0.2,0,0.4,0,0.5,0c0.5,0,1.1,0,1.6,0c0.1,0,0.2,0,0.3,0.2c0.9,2.3,1.8,4.7,2.7,7c0,0,0,0.1,0,0.1
			c0.3-0.7,0.6-1.4,0.8-2.2c0.7-1.6,1.3-3.2,2-4.8c0.1-0.2,0.1-0.2,0.3-0.2c0.7,0,1.3,0,2,0c0,3.2,0,6.4,0,9.6c-0.5,0-1,0-1.5,0
			c0,0-0.1-0.1-0.1-0.1c0-0.1,0-0.1,0-0.2c0-1.9,0-3.9,0-5.8c0-0.5,0-1.1,0.1-1.5c-1,2.4-2,4.9-3,7.4c-0.1,0.1-0.1,0.2-0.3,0.2
			c-0.2,0-0.5,0-0.7,0c-0.1,0-0.2-0.1-0.2-0.1c-0.9-2.3-1.9-4.5-2.8-6.8C13.7,36.5,13.6,36.3,13.5,36.1z"/>
		<path class="st0" d="M64.5,34.7c0,0.7,0,1.4,0,2.1c0.5,0,1.1,0,1.6,0c0,0.5,0,0.9,0,1.3c-0.5,0-1.1,0-1.6,0c0,0.1,0,0.1,0,0.2
			c0,1.1,0,2.1,0,3.2c0,0.9,0.6,1.3,1.5,0.8c0,0,0.1,0,0.1-0.1c0,0.1,0,0.1,0,0.2c0,0.3,0,0.5,0,0.8c0,0.4,0,0.5-0.4,0.5
			c-0.4,0.1-0.8,0.1-1.2,0.1c-1-0.1-1.6-0.8-1.6-1.8c0-1.2,0-2.4,0-3.6c0-0.1,0-0.2,0-0.3c-0.8,0-1.6,0-2.4,0c0,1.8,0,3.7,0,5.5
			c-0.6,0-1.1,0-1.7,0c0-1.8,0-3.7,0-5.5c-0.4,0-0.7,0-1.1,0c0-0.5,0-0.9,0-1.3c0.4,0,0.7,0,1.1,0c0-0.1,0-0.2,0-0.3
			c0-0.4,0-0.9,0.1-1.3c0.3-1.1,1.3-1.9,2.5-1.8c0.2,0,0.5,0.1,0.7,0.1c0.1,0,0.1,0.1,0.1,0.1c0,0.4,0,0.9,0,1.3
			c-0.2-0.1-0.4-0.1-0.7-0.1c-0.6-0.1-1.1,0.3-1.1,1c0,0.3,0,0.7,0,1c0.1,0,0.1,0,0.2,0c0.7,0,1.3,0,2,0c0.2,0,0.2,0,0.2-0.2
			c0-0.4,0-0.8,0-1.1c0-0.1,0-0.2,0.2-0.3C63.5,35.1,64,34.9,64.5,34.7z"/>
		<path class="st0" d="M53.9,43.9c-0.9,0-1.8-0.2-2.4-0.9c-0.6-0.6-0.9-1.3-1-2.1c-0.1-0.8,0-1.5,0.3-2.2c0.5-1.2,1.4-1.8,2.6-2
			c0.6-0.1,1.2-0.1,1.8,0.1c1.1,0.3,1.8,0.9,2.2,2c0.3,1,0.3,1.9,0,2.9c-0.4,1.3-1.6,2.1-3,2.2C54.2,43.9,54.1,43.9,53.9,43.9z
			 M52.1,40.3C52.1,40.3,52.1,40.3,52.1,40.3c0.1,0.1,0.1,0.2,0.1,0.3c0.1,1.2,0.7,2.1,2.1,1.9c0.7-0.1,1.2-0.4,1.4-1.1
			c0.2-0.7,0.2-1.4,0-2.1c-0.2-0.7-0.8-1.2-1.5-1.2c-0.9,0-1.6,0.3-1.8,1.1C52.2,39.4,52.2,39.9,52.1,40.3z"/>
		<path class="st0" d="M40.8,43.9c-0.7,0-1.3-0.1-1.9-0.5c-0.9-0.6-1.4-1.4-1.5-2.5c-0.1-0.7,0-1.4,0.2-2.1c0.5-1.2,1.4-1.9,2.7-2.1
			c0.6-0.1,1.2-0.1,1.8,0.1c1.1,0.3,1.8,1,2.1,2c0.3,1.1,0.3,2.2-0.2,3.3c-0.5,1-1.3,1.5-2.4,1.7C41.3,43.8,41.1,43.8,40.8,43.9z
			 M42.7,40.2c0-0.2,0-0.5-0.1-0.7c-0.1-0.9-0.8-1.5-1.6-1.5c-1,0-1.7,0.4-2,1.4c-0.1,0.4-0.1,0.9-0.1,1.3c0.1,1.3,1.1,2.1,2.4,1.8
			c0.4-0.1,0.8-0.4,1-0.8C42.7,41.2,42.7,40.7,42.7,40.2z"/>
		<path class="st0" d="M45.2,41.9c0.5,0.3,0.9,0.6,1.5,0.6c0.3,0,0.7,0,1,0c0.2,0,0.4-0.2,0.5-0.5c0-0.3,0-0.5-0.2-0.7
			c-0.3-0.2-0.6-0.3-0.9-0.5c-0.2-0.1-0.5-0.2-0.7-0.4c-1.3-0.7-1.3-2.6-0.1-3.4c0.7-0.4,1.4-0.5,2.2-0.5c0.3,0,0.7,0.1,1,0.2
			c0.1,0,0.2,0.1,0.2,0.3c0,0.4,0,0.8,0,1.3c-0.1,0-0.1-0.1-0.2-0.1c-0.5-0.3-1-0.4-1.6-0.4c-0.4,0-0.7,0.2-0.8,0.5
			c-0.1,0.4,0.1,0.6,0.4,0.8c0.3,0.2,0.7,0.3,1.1,0.5c0.5,0.2,1,0.5,1.3,1.1c0.4,0.9,0.1,2-0.8,2.5c-0.7,0.4-1.5,0.5-2.3,0.4
			c-0.4,0-0.8-0.2-1.2-0.3c-0.1,0-0.2-0.1-0.2-0.3C45.2,42.8,45.2,42.4,45.2,41.9z"/>
		<path class="st0" d="M32.1,41.9c0,0.4,0,0.9,0,1.4c0,0.1-0.1,0.1-0.1,0.2c-0.4,0.1-0.8,0.3-1.2,0.4c-1.1,0.1-2.1,0-3-0.8
			c-0.6-0.5-0.9-1.2-1-1.9c-0.1-0.9,0-1.8,0.4-2.6c0.5-1,1.4-1.6,2.6-1.8c0.7-0.1,1.4,0,2.1,0.2c0.2,0.1,0.3,0.2,0.3,0.4
			c0,0.4,0,0.9,0,1.3c-0.1-0.1-0.2-0.1-0.2-0.1c-0.5-0.4-1.1-0.5-1.8-0.4c-1,0.2-1.7,0.9-1.7,1.9c0,0.5,0,0.9,0.2,1.3
			c0.4,1,1.4,1.4,2.5,1.1C31.3,42.3,31.7,42.1,32.1,41.9z"/>
		<path class="st0" d="M34.9,43.7c-0.6,0-1.1,0-1.6,0c0-2.3,0-4.6,0-6.9c0.5,0,1.1,0,1.6,0c0,0.3,0,0.7,0,1.1
			c0.1-0.2,0.2-0.4,0.4-0.6c0.4-0.6,1.2-0.8,1.9-0.6c0.1,0,0.1,0.1,0.1,0.2c0,0.5,0,1,0,1.5c-0.2-0.1-0.5-0.2-0.7-0.2
			c-0.6-0.1-1.1,0.1-1.4,0.7c-0.2,0.4-0.3,0.8-0.3,1.2c0,1.1,0,2.2,0,3.3C34.9,43.5,34.9,43.6,34.9,43.7z"/>
		<path class="st0" d="M23.9,36.8c0.5,0,1.1,0,1.6,0c0,0.1,0,0.2,0,0.2c0,2.1,0,4.3,0,6.4c0,0.2,0,0.3-0.2,0.3c-0.5,0-0.9,0-1.4,0
			C23.9,41.4,23.9,39.1,23.9,36.8z"/>
		<path class="st0" d="M24.8,35.8c-0.6,0-1-0.4-1-0.9c0-0.5,0.4-0.9,1-1c0.6,0,1,0.4,1,0.9C25.8,35.4,25.3,35.8,24.8,35.8z"/>
	</g>
</g>
<g id="yJhEgH.tif_1_">
	<g>
		<path class="st0" d="M85.2,40c0.1-0.4,0.2-0.8,0.3-1.1c0.3-1.1,1.2-2.4,2.1-3.1c0.1,0.3,0,0.6-0.2,0.8c-0.7,0.9-1.1,1.9-1.2,3
			c-0.2,2,0.8,3.5,2.8,4.3c1.2,0.5,2.4,0.6,3.7,0.7c3.7,0.1,7.3-0.6,10.6-2.3c0,0,0.1,0,0.2-0.1c0,0.5,0,1,0,1.5
			c0,0.1-0.1,0.2-0.2,0.3c-2,1-4.2,1.6-6.4,1.9c-1.7,0.2-3.5,0.3-5.2,0.1c-1.8-0.2-3.5-0.7-4.9-1.9c-0.8-0.8-1.3-1.7-1.5-2.9
			c0-0.1,0-0.2-0.1-0.2C85.2,40.5,85.2,40.2,85.2,40z"/>
		<path class="st0" d="M103.9,41.2c0-0.4,0-0.7,0-1c0-0.1,0.1-0.2,0.2-0.3c0.4-0.4,0.9-0.7,1.2-1.2c1.3-1.8,0.8-4-1.1-5.2
			c-1.1-0.7-2.3-0.9-3.5-1.1c-3.6-0.3-7,0.5-10.2,1.9c-0.1,0.1-0.2,0.1-0.4,0.2c0,0-0.1,0-0.1,0c-0.1-0.3,0-0.4,0.2-0.5
			c2.1-1.2,4.4-1.9,6.7-2.3c2.1-0.3,4.2-0.3,6.2,0.4c1.1,0.3,2.2,0.9,3,1.8c1.4,1.7,1.3,4.2-0.4,6c-0.4,0.5-1,0.8-1.5,1.2
			C104.3,41.1,104.1,41.1,103.9,41.2z"/>
		<path class="st0" d="M101.4,39.4c-1,0-1.9,0-2.9,0c0,0.4,0.1,0.7,0.5,0.8c0.5,0.3,1.1,0.1,1.5-0.3c0.2,0.2,0.5,0.4,0.7,0.7
			c-0.7,0.7-1.5,0.8-2.3,0.7c-0.8-0.2-1.3-0.7-1.5-1.5c-0.1-0.6-0.1-1.2,0.1-1.8c0.3-0.9,1.2-1.4,2.2-1.2c0.8,0.1,1.5,0.8,1.6,1.7
			C101.3,38.7,101.3,39,101.4,39.4z M100.1,38.5c0-0.5-0.3-0.8-0.7-0.8c-0.5,0-0.8,0.3-0.9,0.8C99.1,38.5,99.6,38.5,100.1,38.5z"/>
		<path class="st0" d="M91.7,37.7c0,1.2,0,2.3,0,3.5c-0.4,0-0.7,0-1.1,0c0-1.5,0-2.9,0-4.4c0.9,0,1.8,0,2.7,0c0.5,0,0.9,0.5,0.9,1.1
			c0,1.1,0,2.2,0,3.3c-0.4,0-0.7,0-1.1,0c0-0.2,0-0.3,0-0.5c0-0.8,0-1.7,0-2.5c0-0.3-0.1-0.5-0.5-0.5C92.3,37.7,92.1,37.7,91.7,37.7
			z"/>
		<path class="st0" d="M97.1,40.3c0,0.3,0,0.6,0,0.9c-0.4,0-0.8,0-1.2-0.1c-0.4-0.1-0.7-0.4-0.7-0.8c0-1.6,0-3.1,0-4.7
			c0.3,0,0.7,0,1.1,0c0,0.4,0,0.8,0,1.2c0.3,0,0.5,0,0.8,0c0,0.3,0,0.6,0,0.9c-0.3,0-0.5,0-0.8,0c0,0.7,0,1.4,0,2.1
			c0,0.1,0.2,0.3,0.4,0.4C96.7,40.3,96.9,40.3,97.1,40.3z"/>
		<path class="st0" d="M103.1,41.1c-0.6,0-1-0.4-1.1-0.9c0-1.8,0-3.5,0-5.3c0.4,0,0.7,0,1.1,0C103.1,37,103.1,39,103.1,41.1z"/>
		<path class="st0" d="M88.5,36.8c0.4,0,0.7,0,1.1,0c0,1.5,0,2.9,0,4.4c-0.6,0-1.1-0.3-1.1-0.8c0-1.1,0-2.3-0.1-3.4
			C88.5,36.9,88.5,36.9,88.5,36.8z"/>
		<path class="st0" d="M88.5,35.1c0.4,0,0.7,0,1.1,0c0,0.4,0,0.7,0,1.1c-0.4,0-0.7,0-1.1,0C88.5,35.8,88.5,35.5,88.5,35.1z"/>
		<path class="st0" d="M104.2,35.9c-0.1-0.2-0.3-0.4-0.3-0.5c0-0.2,0.3-0.3,0.4-0.4c0.2,0.2,0.4,0.3,0.4,0.5c0,0.2-0.2,0.3-0.3,0.5
			C104.4,35.9,104.3,35.9,104.2,35.9z"/>
	</g>
</g>
<g id="_x31_NoHuo.tif_3_">
	<g>
		<path class="st0" d="M13,3.5c0,0.3,0,0.5,0,0.8c-0.1,0-0.2,0-0.4,0c0,0.1,0,0.2,0,0.4c-0.1,0-0.2,0-0.4,0c1.2,1.5,1.6,3.2,1.1,5.1
			C13,11.1,12.2,12.2,11,13c-2.3,1.6-5.6,1.3-7.5-0.8c-2-2.1-2-5.4-0.2-7.6c1.8-2.2,5.3-2.9,8-0.8c0,0,0,0,0,0
			c0-0.3,0.1-0.3,0.4-0.3c0.1,0,0.3,0,0.4,0c0-0.1,0-0.2,0-0.4c-0.1,0-0.2,0-0.4,0c0-0.1,0-0.2,0-0.4c0.1,0,0.2,0,0.4,0
			c0,0.1,0,0.2,0,0.4c0.1,0,0.3,0,0.4,0l0,0c0,0.1,0,0.3,0,0.4c-0.1,0-0.3,0-0.4,0c0,0.1,0,0.3,0,0.4c0.1,0,0.2,0,0.4,0
			c0-0.1,0-0.2,0-0.4C12.7,3.5,12.8,3.5,13,3.5L13,3.5z M9.8,5c-1.4-0.9-3.7-0.8-5,0.8C3.5,7.3,3.6,9.7,5,11.1
			c1.4,1.4,3.7,1.5,5.3,0.2c1.5-1.3,1.8-3.6,0.8-5.1c-0.2,0-0.3,0-0.5,0.1c0,0.1,0,0.2,0,0.4c-0.1,0-0.3,0-0.4,0
			c0.1,0.3-0.1,0.5-0.3,0.7C9.3,7.9,9,8.6,8.8,9.3c-0.1,0.3-0.1,0.6-0.2,0.9c-0.1,0.3-0.3,0.5-0.6,0.5c-0.2,0-0.5-0.1-0.6-0.4
			c-0.1-0.2-0.2-0.5-0.3-0.7C6.7,8.7,6.2,7.9,5.5,7.2C5.4,7.1,5.4,7,5.3,6.9c-0.1-0.2-0.2-0.3,0-0.5c0.1-0.2,0.3-0.1,0.5,0
			c0.5,0.2,0.9,0.5,1.3,1c0.2,0.3,0.4,0.6,0.7,1c0-0.1,0.1-0.1,0.1-0.2c0.3-0.8,0.8-1.6,1.3-2.3c0.2-0.2,0.3-0.5,0.7-0.4
			C9.8,5.3,9.8,5.1,9.8,5z"/>
		<path class="st0" d="M28.4,11.3c0-0.5,0-0.9,0-1.4c0-0.4,0-0.9,0-1.3c0-0.5-0.3-0.6-0.7-0.4c-0.2,0.1-0.4,0.3-0.3,0.5
			c0,0.8,0,1.5,0,2.3c0,0.1,0,0.2,0,0.3c-0.4,0-0.8,0-1.2,0c0-0.1,0-0.2,0-0.3c0-0.8,0-1.6,0-2.4c0-0.2,0-0.5-0.3-0.5
			c-0.2-0.1-0.7,0.1-0.8,0.3c0,0.1,0,0.1,0,0.2c0,0.8,0,1.6,0,2.4c0,0.1,0,0.2,0,0.3c-0.4,0-0.8,0-1.2,0c0-1.4,0-2.7,0-4.1
			c0.2,0,0.4,0,0.6,0c0.1,0,0.1,0.1,0.1,0.1c0.1,0.1,0.1,0.3,0.2,0.5C25.2,7.4,25.5,7.1,26,7c0.5-0.1,0.9,0.1,1.2,0.6
			c0.1-0.1,0.2-0.2,0.3-0.3c0.2-0.1,0.4-0.3,0.6-0.3c0.8-0.2,1.4,0.2,1.5,1.1c0.1,0.8,0,1.6,0,2.5c0,0.2,0,0.4,0,0.6
			C29.2,11.3,28.8,11.3,28.4,11.3z"/>
		<path class="st0" d="M14.7,10.8c0.2-0.3,0.4-0.6,0.5-0.8c0.4,0.1,0.7,0.3,1.1,0.4c0.3,0.1,0.6,0,0.9,0c0.2,0,0.4-0.2,0.4-0.4
			c0-0.3-0.1-0.5-0.3-0.6c-0.3-0.1-0.6-0.2-0.9-0.4c-0.3-0.1-0.7-0.3-1-0.5c-0.8-0.6-0.8-1.9,0-2.5C16,5.6,16.5,5.6,17,5.6
			c0.6,0,1.1,0.1,1.6,0.4c-0.1,0.3-0.3,0.6-0.4,0.8c-0.5-0.1-0.9-0.1-1.3-0.2c-0.1,0-0.2,0-0.3,0c-0.2,0-0.4,0.2-0.4,0.4
			c0,0.2,0.1,0.4,0.3,0.5c0.3,0.1,0.6,0.2,0.9,0.3c0.3,0.1,0.5,0.2,0.8,0.3c0.7,0.4,0.9,1.1,0.8,1.7c-0.1,0.7-0.5,1.2-1.2,1.4
			C16.6,11.5,15.7,11.4,14.7,10.8z"/>
		<path class="st0" d="M46.2,9.6c-0.9,0-1.7,0-2.5,0c0,0.5,0.3,0.8,0.7,0.8c0.3,0,0.6-0.1,0.9-0.2c0.1,0,0.2-0.1,0.3-0.1
			c0.2,0.3,0.3,0.5,0.5,0.8c-0.2,0.2-0.5,0.4-0.8,0.5c-0.5,0.1-0.9,0.2-1.4,0.1c-0.8-0.2-1.4-0.8-1.5-1.7c0-0.5,0-0.9,0.2-1.3
			c0.3-0.8,1-1.3,1.9-1.2c0.9,0.1,1.4,0.6,1.6,1.5C46.1,8.8,46.1,9.2,46.2,9.6z M43.7,8.8c0.4,0,0.8,0,1.2,0c0-0.6-0.2-0.9-0.6-0.9
			C43.9,7.9,43.7,8.2,43.7,8.8z"/>
		<path class="st0" d="M32.9,10.8c-0.5,0.4-1,0.6-1.6,0.5c-0.5-0.1-0.9-0.5-1-1c-0.1-0.5,0.1-1,0.6-1.2c0.4-0.2,0.9-0.3,1.3-0.4
			c0.1,0,0.2,0,0.3-0.1C32.7,8.2,32.5,8,32.1,8c-0.4,0-0.8,0.2-1.2,0.2c-0.1-0.2-0.2-0.5-0.4-0.7c0.6-0.4,1.3-0.5,2-0.4
			c0.7,0.1,1.1,0.5,1.3,1.1c0,0.1,0,0.3,0,0.4c0,0.8,0,1.7,0,2.5c0,0,0,0.1,0,0.2c-0.2,0-0.4,0-0.7,0c-0.1,0-0.1-0.1-0.1-0.1
			C33,11.1,33,11,32.9,10.8z M32.6,9.4c-0.3,0.1-0.6,0.2-0.8,0.3c-0.2,0.1-0.3,0.3-0.2,0.6c0.1,0.2,0.2,0.3,0.5,0.2
			c0.1,0,0.3-0.1,0.4-0.2c0.1,0,0.1-0.1,0.1-0.2C32.6,9.9,32.6,9.6,32.6,9.4z"/>
		<path class="st0" d="M19.3,7.1c0.4,0,0.8,0,1.2,0c0.1,0,0.1,0.1,0.2,0.2c0.2,0.8,0.4,1.7,0.7,2.5c0,0.1,0,0.1,0.1,0.2
			c0.2-1,0.4-1.8,0.6-2.7c0-0.2,0.1-0.2,0.3-0.2c0.3,0,0.6,0,0.9,0c0,0.1,0,0.1,0,0.2c-0.4,1.4-0.8,2.7-1.2,4.1
			c-0.2,0.6-0.6,1.1-1.2,1.3c-0.4,0.1-0.8,0-1.2,0c0-0.3,0.1-0.5,0.1-0.8c0,0,0.1-0.1,0.2-0.1c0.2,0,0.5,0,0.7-0.1
			c0.3-0.1,0.4-0.3,0.3-0.6c-0.4-1.3-0.9-2.5-1.3-3.8C19.4,7.3,19.4,7.2,19.3,7.1z"/>
		<path class="st0" d="M36,11.3c-0.4,0-0.8,0-1.2,0c0-1.4,0-2.7,0-4.1c0.2,0,0.4,0,0.7,0c0,0,0.1,0.1,0.1,0.1
			c0.1,0.1,0.1,0.3,0.2,0.5c0.1-0.1,0.2-0.2,0.2-0.3c0.4-0.4,0.8-0.5,1.4-0.5c0.5,0.1,0.9,0.4,0.9,1.1c0,1,0,2.1,0,3.1
			c-0.4,0-0.8,0-1.2,0c0-0.1,0-0.2,0-0.3c0-0.8,0-1.6,0-2.4c0-0.2,0-0.5-0.3-0.6c-0.2-0.1-0.7,0.1-0.8,0.3c0,0.1,0,0.2,0,0.2
			c0,0.8,0,1.6,0,2.4C36,11.1,36,11.1,36,11.3z"/>
		<path class="st0" d="M39,8c0-0.3,0-0.6,0-0.8c0.2,0,0.4,0,0.6,0c0.1-0.4,0.1-0.8,0.2-1.2c0.3,0,0.6,0,1,0c0,0.4,0,0.8,0,1.2
			c0.3,0,0.6,0,0.9,0c0,0.3,0,0.5,0,0.8c-0.3,0-0.6,0-0.9,0c0,0.5,0,0.9,0,1.3c0,0.2,0,0.4,0,0.6c0,0.4,0.1,0.5,0.5,0.5
			c0.1,0,0.2,0,0.3,0c0,0.3,0.1,0.5,0.1,0.8c-0.6,0.2-1.2,0.3-1.7,0c-0.4-0.2-0.5-0.6-0.5-1c0-0.6,0-1.3,0-1.9c0-0.1,0-0.2,0-0.3
			C39.4,8,39.3,8,39,8z"/>
		<path class="st0" d="M50.1,7.5c-0.2,0.3-0.4,0.5-0.5,0.7C49.3,8.2,49,8.1,48.8,8c-0.3,0-0.5,0.1-0.6,0.4c-0.2,0.5-0.2,0.9,0,1.4
			c0.1,0.4,0.5,0.6,1,0.4c0.2-0.1,0.3-0.2,0.5-0.2c0.2,0.2,0.4,0.5,0.6,0.7c-0.5,0.5-1.1,0.6-1.7,0.6c-1.2-0.1-1.9-1.1-1.7-2.4
			c0-0.2,0.1-0.4,0.1-0.6C47.3,7,49.1,6.6,50.1,7.5z"/>
		<path class="st0" d="M14.2,1.4c0,0.2,0,0.3,0,0.5l0,0c-0.1,0-0.2,0-0.4,0c0,0.1,0,0.3,0,0.4c-0.1,0-0.3,0-0.4,0c0,0.1,0,0.3,0,0.4
			l0,0c-0.1,0-0.3,0-0.4,0c0,0.1,0,0.3,0,0.4l0,0c-0.1,0-0.3,0-0.4,0l0,0c0-0.3,0-0.5,0-0.8c0.1,0,0.2,0,0.4,0c0-0.1,0-0.2,0-0.4
			c0.3,0,0.5,0,0.8,0c0-0.2,0-0.3,0-0.4C13.9,1.5,14.1,1.4,14.2,1.4L14.2,1.4z"/>
		<path class="st0" d="M13.4,3c0,0.1,0,0.3,0,0.4c-0.2,0-0.3,0-0.4,0l0,0c0-0.1,0-0.3,0-0.4l0,0C13.1,3.1,13.3,3.1,13.4,3L13.4,3z"
			/>
		<path class="st0" d="M13.4,2.7c0.1,0,0.3,0,0.4,0c0,0.1,0,0.3,0,0.4c-0.1,0-0.3,0-0.4,0l0,0C13.4,2.9,13.4,2.8,13.4,2.7L13.4,2.7z
			"/>
		<path class="st0" d="M14.2,1.9c0.1,0,0.3,0,0.4,0c0,0.1,0,0.3,0,0.4c-0.1,0-0.2,0-0.4,0C14.2,2.1,14.2,2,14.2,1.9
			C14.2,1.9,14.2,1.9,14.2,1.9z"/>
		<path class="st0" d="M14.2,1.4c0-0.1,0-0.2,0-0.3c0.1,0,0.2,0,0.4,0c0,0.1,0,0.2,0,0.4C14.4,1.5,14.3,1.4,14.2,1.4
			C14.2,1.4,14.2,1.4,14.2,1.4z"/>
	</g>
</g>
</svg>
