<?xml version="1.0" encoding="utf-8"?>
<!-- Generator: Adobe Illustrator 21.1.0, SVG Export Plug-In . SVG Version: 6.00 Build 0)  -->
<svg version="1.1" id="Layer_1" xmlns="http://www.w3.org/2000/svg" xmlns:xlink="http://www.w3.org/1999/xlink" x="0px" y="0px"
	 viewBox="0 0 236.9 259.9" style="enable-background:new 0 0 236.9 259.9;" xml:space="preserve">
<style type="text/css">
	.st0{fill:none;stroke:#662F8F;stroke-width:3.7249;stroke-linecap:round;stroke-linejoin:round;stroke-miterlimit:10;}
</style>
<g>
	<line class="st0" x1="56.8" y1="232.8" x2="56.8" y2="258"/>
	<path class="st0" d="M16.9,258c-8.3,0-15-6.8-15-15V16.9c0-8.3,6.8-15,15-15H220c8.3,0,15,6.8,15,15V243c0,8.3-6.8,15-15,15H56.8"
		/>
	<path class="st0" d="M56.8,232.8H42.1c-8.3,0-15-6.8-15-15V42.1c0-8.3,6.8-15,15-15h29.3c8.3,0,15,6.8,15,15v175.6"/>
	<g>
		<g>
			<circle class="st0" cx="120.6" cy="87.1" r="11"/>
			<circle class="st0" cx="161" cy="87.1" r="11"/>
			<circle class="st0" cx="201.4" cy="87.1" r="11"/>
			<circle class="st0" cx="120.6" cy="127.5" r="11"/>
			<circle class="st0" cx="161" cy="127.5" r="11"/>
			<circle class="st0" cx="201.4" cy="127.5" r="11"/>
			<circle class="st0" cx="120.6" cy="167.9" r="11"/>
			<circle class="st0" cx="161" cy="167.9" r="11"/>
			<circle class="st0" cx="201.4" cy="167.9" r="11"/>
			<circle class="st0" cx="120.6" cy="208.3" r="11"/>
			<circle class="st0" cx="161" cy="208.3" r="11"/>
			<circle class="st0" cx="201.4" cy="208.3" r="11"/>
		</g>
		<line class="st0" x1="109.7" y1="40.7" x2="212.4" y2="40.7"/>
	</g>
</g>
</svg>
