<?xml version="1.0" encoding="utf-8"?>
<!-- Generator: Adobe Illustrator 21.1.0, SVG Export Plug-In . SVG Version: 6.00 Build 0)  -->
<svg version="1.1" id="Layer_1" xmlns="http://www.w3.org/2000/svg" xmlns:xlink="http://www.w3.org/1999/xlink" x="0px" y="0px"
	 viewBox="0 0 47.6 47.6" style="enable-background:new 0 0 47.6 47.6;" xml:space="preserve">
<style type="text/css">
	.st0{fill:none;stroke:#E73E51;stroke-width:1.6927;}
	.st1{fill:none;stroke:#E73E51;stroke-width:1.1285;stroke-linecap:round;stroke-linejoin:round;stroke-miterlimit:10;}
	.st2{fill:none;stroke:#EE4050;stroke-width:1.1285;stroke-linecap:round;stroke-linejoin:round;stroke-miterlimit:10;}
</style>
<g>
	<circle class="st0" cx="-31.8" cy="23.2" r="23"/>
	<path class="st1" d="M-16.8,32.1c0,1.5-1.2,2.7-2.8,2.7c-1.5,0-2.8-1.2-2.8-2.7c0-1.5,1.2-2.7,2.8-2.7
		C-18.1,29.4-16.8,30.6-16.8,32.1z M-28.7,32.1c0,1.5-1.2,2.7-2.8,2.7c-1.5,0-2.8-1.2-2.8-2.7c0-1.5,1.3-2.7,2.8-2.7
		C-30,29.4-28.7,30.6-28.7,32.1z M-40.8,32.1c0,1.5-1.3,2.7-2.8,2.7c-1.5,0-2.8-1.2-2.8-2.7c0-1.5,1.3-2.7,2.8-2.7
		C-42,29.4-40.8,30.6-40.8,32.1z M-31.6,29.4V24 M-43.6,29.4v-3.5h12h12v3.5 M-29.1,14.9c0,1.3-1.1,2.4-2.5,2.4
		c-1.4,0-2.5-1.1-2.5-2.4c0-1.3,1.1-2.4,2.5-2.4C-30.2,12.4-29.1,13.5-29.1,14.9z M-27.2,14.7c0,2.4-4.4,9.3-4.4,9.3S-36,17-36,14.7
		c0-2.4,2-4.3,4.4-4.3S-27.2,12.3-27.2,14.7z"/>
</g>
<g>
	<circle class="st0" cx="23.8" cy="23.8" r="23"/>
	<path class="st2" d="M25.6,17.5l9.9,10.9 M22,17.5l-9.9,10.9 M23.8,18.2v9.4 M34.7,30.4c0-1.5,1.2-2.8,2.7-2.8
		c1.5,0,2.7,1.2,2.7,2.8c0,1.5-1.2,2.8-2.7,2.8C35.9,33.2,34.7,32,34.7,30.4z M7.5,30.4c0-1.5,1.2-2.8,2.7-2.8
		c1.5,0,2.7,1.2,2.7,2.8c0,1.5-1.2,2.8-2.7,2.8C8.7,33.2,7.5,32,7.5,30.4z M21.1,30.4c0-1.5,1.2-2.8,2.7-2.8s2.7,1.2,2.7,2.8
		c0,1.5-1.2,2.8-2.7,2.8S21.1,32,21.1,30.4z M21.1,15.5c0-1.5,1.2-2.8,2.7-2.8s2.7,1.2,2.7,2.8c0,1.5-1.2,2.8-2.7,2.8
		S21.1,17,21.1,15.5z"/>
</g>
</svg>
