<?xml version="1.0" encoding="utf-8"?>
<!-- Generator: Adobe Illustrator 21.1.0, SVG Export Plug-In . SVG Version: 6.00 Build 0)  -->
<svg version="1.1" id="Layer_1" xmlns="http://www.w3.org/2000/svg" xmlns:xlink="http://www.w3.org/1999/xlink" x="0px" y="0px"
	 viewBox="0 0 47.6 47.6" style="enable-background:new 0 0 47.6 47.6;" xml:space="preserve">
<style type="text/css">
	.st0{fill:none;stroke:#662F8F;stroke-width:4;stroke-linecap:round;stroke-linejoin:round;stroke-miterlimit:10;}
	.st1{fill:#662F8F;}
	.st2{fill:none;stroke:#662F8F;stroke-width:2;stroke-linecap:round;stroke-linejoin:round;stroke-miterlimit:10;}
	.st3{fill:none;stroke:#FFFFFF;stroke-width:0.488;stroke-linecap:round;stroke-linejoin:round;stroke-miterlimit:10;}
	.st4{fill:none;stroke:#E73E51;stroke-width:1.6927;}
	.st5{fill:none;stroke:#E73E51;stroke-width:1.1285;stroke-linecap:round;stroke-linejoin:round;stroke-miterlimit:10;}
	.st6{fill:#E73E51;}
	
		.st7{clip-path:url(#SVGID_2_);fill:none;stroke:#E73E51;stroke-width:1.1285;stroke-linecap:round;stroke-linejoin:round;stroke-miterlimit:10;}
	.st8{fill:none;stroke:#EE4050;stroke-width:1.1285;stroke-linecap:round;stroke-linejoin:round;stroke-miterlimit:10;}
</style>
<g>
	<path class="st0" d="M-438.4-100.8c9.6-9.6,22.8-15.5,37.3-15.5"/>
	<path class="st0" d="M-424-86.4c5.9-5.9,14-9.5,23-9.5"/>
	<path class="st0" d="M-467.2-129.6C-449.5-147.3-426-157-401-157c25,0,48.4,9.7,66.1,27.4"/>
	<path class="st0" d="M-349.3-115.2c-13.3-13.3-31.6-21.5-51.7-21.5c-20.2,0-38.5,8.2-51.7,21.5"/>
	<path class="st0" d="M-363.7-100.8c-9.6-9.6-22.8-15.5-37.3-15.5"/>
	<path class="st0" d="M-378.1-86.4c-5.9-5.9-14-9.5-23-9.5"/>
	<path class="st0" d="M-392.5-54.9c-2.2,2.2-5.2,3.5-8.6,3.5c-6.7,0-12.1-5.4-12.1-12.1s5.4-12.1,12.1-12.1c3.3,0,6.4,1.4,8.6,3.5"
		/>
	<path class="st0" d="M-349.3-115.2c4,4,4,10.4,0,14.4s-10.4,4-14.4,0"/>
	<path class="st0" d="M-424-86.4c-4,4-10.4,4-14.4,0s-4-10.4,0-14.4"/>
	<path class="st0" d="M-378.1-86.4c4,4,4,10.4,0,14.4c-4,4-10.4,4-14.4,0"/>
	<path class="st0" d="M-452.8-115.2c-4,4-10.4,4-14.4,0c-4-4-4-10.4,0-14.4"/>
</g>
<g>
	<path class="st1" d="M-255.3-166.7c-28.7,0-52,23.3-52,52s23.3,52,52,52s52-23.3,52-52S-226.6-166.7-255.3-166.7z M-255.3-66.4
		c-26.6,0-48.3-21.7-48.3-48.3s21.7-48.3,48.3-48.3s48.3,21.7,48.3,48.3S-228.6-66.4-255.3-66.4z"/>
	<path class="st1" d="M-218.7-120.5c-4.8-4.7-10.4-8.3-16.4-10.7c0-0.3,0.1-0.7,0.1-1c0-11.1-9-20.2-20.2-20.2s-20.2,9-20.2,20.2
		c0,0.6,0,1.1,0.1,1.7c-5.5,2.4-10.5,5.8-14.9,10.1c0,0-0.1,0.1-0.1,0.1c-1.2,1.2-1.8,2.8-1.8,4.5c0,1.7,0.7,3.4,1.9,4.6
		c2.6,2.5,6.7,2.5,9.3,0c0,0,0,0,0,0c3.2-3.1,6.8-5.6,10.8-7.4c2.3,2.5,5.2,4.5,8.5,5.5c-5,1.2-9.6,3.7-13.4,7.4
		c0,0-0.1,0.1-0.1,0.1c-1.3,1.2-1.9,2.9-1.9,4.6c0,1.7,0.7,3.4,1.9,4.6c2.6,2.5,6.7,2.5,9.3,0c0,0,0,0,0,0h0c3-2.9,7-4.5,11.3-4.5
		c4.3,0,8.3,1.6,11.3,4.5c0,0,0,0,0,0c0.8,0.8,1.2,1.8,1.2,2.8c0,1.1-0.4,2.1-1.2,2.8c-1.6,1.6-4.3,1.6-5.9,0c0,0-0.1-0.1-0.1-0.1
		c-1.4-1.3-3.3-2.1-5.3-2.1c-4.2,0-7.6,3.3-7.6,7.5c0,4.1,3.4,7.5,7.6,7.5c2,0,3.9-0.8,5.4-2.2c0.5-0.5,0.5-1.3,0-1.7
		c-0.5-0.5-1.3-0.5-1.7,0c-1,1-2.3,1.5-3.7,1.5c-2.8,0-5.2-2.2-5.2-5c0-2.8,2.3-5,5.2-5c1.4,0,2.7,0.5,3.7,1.5c0,0,0.1,0.1,0.1,0.1
		c2.6,2.4,6.7,2.4,9.2-0.1c1.3-1.2,1.9-2.9,1.9-4.6s-0.7-3.4-1.9-4.6c0,0,0,0,0,0c-3.5-3.4-8.1-5.2-13-5.2c-4.9,0-9.5,1.9-13,5.2
		c0,0,0,0,0,0c-1.6,1.6-4.3,1.6-5.9,0c-0.8-0.8-1.2-1.8-1.2-2.8c0-1,0.4-2,1.1-2.7c0,0,0.1-0.1,0.1-0.1c5-4.9,11.7-7.6,18.8-7.6
		c7.1,0,13.8,2.7,18.8,7.6c0,0,0,0,0,0c2.6,2.5,6.7,2.5,9.3,0c1.3-1.2,1.9-2.9,1.9-4.6c0-1.7-0.7-3.4-1.9-4.6c0,0,0,0,0,0
		c-3.6-3.5-7.7-6.2-12.1-8.1c1.5-2.2,2.5-4.8,3-7.5c5.5,2.3,10.6,5.7,15,9.9c0.5,0.5,1.3,0.5,1.7,0
		C-218.2-119.3-218.2-120.1-218.7-120.5z M-282.7-113.1C-282.7-113.1-282.7-113.1-282.7-113.1c-1.6,1.6-4.3,1.6-5.9,0
		c-0.8-0.8-1.2-1.8-1.2-2.8c0-1.1,0.4-2.1,1.2-2.8c0,0,0.1-0.1,0.1-0.1c4-3.9,8.5-6.9,13.5-9.2c0.6,2.7,1.7,5.2,3.3,7.4
		C-275.7-118.8-279.4-116.3-282.7-113.1z M-228.1-111.3C-228.1-111.3-228.1-111.3-228.1-111.3c0.8,0.8,1.2,1.8,1.2,2.8
		c0,1.1-0.4,2.1-1.2,2.8c-1.6,1.6-4.3,1.6-5.9,0c0,0,0,0,0,0c-4-3.9-9-6.5-14.4-7.7c3.3-1.2,6.1-3.2,8.4-5.8
		C-235.6-117.4-231.5-114.7-228.1-111.3z M-255.3-114.6c-9.8,0-17.7-7.9-17.7-17.7c0-9.8,7.9-17.7,17.7-17.7s17.7,7.9,17.7,17.7
		C-237.6-122.5-245.5-114.6-255.3-114.6z"/>
	<path class="st1" d="M-262.9-133.6h-1.9l0.1-3.7h5.6v-1.5h-7.1l-0.2,6.6h2.9c2.5,0,3.4,1.1,3.4,2.5c0,1.4-1,2.5-2.8,2.5
		c-1.3,0-2.5-0.6-3.4-1.6l-1,1c1.1,1.3,2.6,2,4.4,2c2.4,0,4.5-1.5,4.5-4.2C-258.4-131.9-259.9-133.6-262.9-133.6z"/>
	<path class="st1" d="M-248.9-132.8v1.5h3.9c-0.3,2.5-1.9,4.1-4.5,4.1c-2.8,0-4.9-2.1-4.9-5.1c0-3,2.2-5.1,5-5.1
		c1.6,0,2.9,0.7,3.8,1.7l1.2-1.2c-1.2-1.3-3-2.1-5-2.1c-3.9,0-6.7,2.8-6.7,6.7c0,4.2,3.2,6.7,6.6,6.7c3.9,0,6.3-3,6.3-6.7
		c0-0.1,0-0.3,0-0.4H-248.9z"/>
</g>
<g>
	<line class="st2" x1="-123.4" y1="-81" x2="-123.4" y2="-72.4"/>
	<path class="st2" d="M-137.1-72.4c-2.8,0-5.2-2.3-5.2-5.2v-77.8c0-2.8,2.3-5.2,5.2-5.2h69.9c2.8,0,5.2,2.3,5.2,5.2v77.8
		c0,2.8-2.3,5.2-5.2,5.2h-56.2"/>
	<path class="st2" d="M-123.4-81h-5c-2.8,0-5.2-2.3-5.2-5.2v-60.4c0-2.8,2.3-5.2,5.2-5.2h10.1c2.8,0,5.2,2.3,5.2,5.2v60.4"/>
	<g>
		<g>
			<circle class="st2" cx="-101.4" cy="-131.2" r="3.8"/>
			<circle class="st2" cx="-87.5" cy="-131.2" r="3.8"/>
			<circle class="st2" cx="-73.6" cy="-131.2" r="3.8"/>
			<circle class="st2" cx="-101.4" cy="-117.3" r="3.8"/>
			<circle class="st2" cx="-87.5" cy="-117.3" r="3.8"/>
			<circle class="st2" cx="-73.6" cy="-117.3" r="3.8"/>
			<circle class="st2" cx="-101.4" cy="-103.4" r="3.8"/>
			<circle class="st2" cx="-87.5" cy="-103.4" r="3.8"/>
			<circle class="st2" cx="-73.6" cy="-103.4" r="3.8"/>
			<circle class="st2" cx="-101.4" cy="-89.5" r="3.8"/>
			<circle class="st2" cx="-87.5" cy="-89.5" r="3.8"/>
			<circle class="st2" cx="-73.6" cy="-89.5" r="3.8"/>
		</g>
		<line class="st2" x1="-105.2" y1="-147.2" x2="-69.9" y2="-147.2"/>
	</g>
</g>
<g>
	<path class="st3" d="M-206,31.4v-1c0-2.7-2.1-4.9-4.8-5c-2.8-0.1-5.1,2.2-5.1,4.9l0,3.8h10.9c0.7,0,1.3,0.6,1.3,1.3V44
		c0,0.7-0.6,1.3-1.3,1.3h-2.7c-0.5,0-1-0.4-1.1-0.9l-0.8-3.2v0c0.6-0.5,0.9-1.2,0.8-2.1c-0.1-1-1-1.7-1.9-1.9
		c-1.3-0.1-2.5,0.9-2.5,2.2c0,0.7,0.3,1.3,0.8,1.7h0c0,0-0.5,2-0.8,3.2c-0.1,0.5-0.6,0.9-1.1,0.9h-2.7c-0.7,0-1.3-0.6-1.3-1.3v-8.6"
		/>
</g>
<g>
	<circle class="st4" cx="-87.8" cy="38.7" r="23"/>
	<path class="st5" d="M-111,38.6l23.2-0.1 M-87.8,38.5V15.4V38.5z M-76.2,38.5c0,6.4-5.2,11.6-11.6,11.6c-6.4,0-11.7-5.2-11.7-11.6
		c0-6.4,5.2-11.6,11.7-11.6C-81.4,26.9-76.2,32.1-76.2,38.5z M-70.6,38.5c0,9.5-7.7,17.3-17.3,17.3c-9.5,0-17.3-7.7-17.3-17.3
		c0-9.5,7.7-17.3,17.3-17.3C-78.3,21.3-70.6,29-70.6,38.5z"/>
	<path class="st6" d="M-103.5,33.2c1.2,0,2.2-1,2.2-2.2c0-1.2-1-2.2-2.2-2.2c-1.2,0-2.2,1-2.2,2.2
		C-105.7,32.3-104.7,33.2-103.5,33.2"/>
</g>
<g>
	<circle class="st4" cx="-146.2" cy="39.1" r="23"/>
	<path class="st5" d="M-135.4,31.8l7.1,7.2 M-135.4,31.8l-7.1,10.3 M-149.5,46.2l7.1-4.2 M-149.5,46.2l-7.1-9.5 M-163.7,41.7
		l7.1-4.9"/>
	<path class="st6" d="M-158.7,36.7c0-1.2,1-2.1,2.1-2.1s2.1,1,2.1,2.1c0,1.2-1,2.1-2.1,2.1S-158.7,37.9-158.7,36.7"/>
	<path class="st6" d="M-151.7,46.2c0-1.2,1-2.1,2.1-2.1s2.1,1,2.1,2.1c0,1.2-1,2.1-2.1,2.1S-151.7,47.4-151.7,46.2"/>
	<path class="st6" d="M-144.6,42.1c0-1.2,1-2.1,2.1-2.1s2.1,1,2.1,2.1c0,1.2-1,2.1-2.1,2.1S-144.6,43.2-144.6,42.1"/>
	<path class="st6" d="M-137.6,31.8c0-1.2,1-2.1,2.1-2.1c1.2,0,2.1,1,2.1,2.1c0,1.2-1,2.1-2.1,2.1C-136.6,33.9-137.6,32.9-137.6,31.8
		"/>
	<path class="st6" d="M-130.7,38.9c0-1.2,1-2.1,2.1-2.1c1.2,0,2.1,1,2.1,2.1c0,1.2-1,2.1-2.1,2.1C-129.7,41-130.7,40-130.7,38.9"/>
	<path class="st6" d="M-165.5,41.5c0-1.2,1-2.1,2.1-2.1c1.2,0,2.1,1,2.1,2.1c0,1.2-1,2.1-2.1,2.1C-164.6,43.6-165.5,42.7-165.5,41.5
		"/>
</g>
<g>
	<circle class="st4" cx="-38" cy="-1.6" r="23"/>
	<g>
		<defs>
			<path id="SVGID_1_" d="M-61.9-1.8c0,12.4,9.6,22.6,21.8,23.5h3.6c11.7-0.9,21.1-10.4,21.8-22.2v-2.7c-0.7-12.4-11-22.2-23.6-22.2
				C-51.3-25.4-61.9-14.9-61.9-1.8"/>
		</defs>
		<clipPath id="SVGID_2_">
			<use xlink:href="#SVGID_1_"  style="overflow:visible;"/>
		</clipPath>
		<path class="st7" d="M-15.3,29.7h-12.1c-0.5,0-0.9-0.4-0.9-0.9v-5.2c0-0.5,0.4-0.9,0.9-0.9h12.1c0.5,0,0.9,0.4,0.9,0.9v5.2
			C-14.3,29.3-14.8,29.7-15.3,29.7z M-29.3,29.7h-12.1c-0.5,0-0.9-0.4-0.9-0.9v-5.2c0-0.5,0.4-0.9,0.9-0.9h12.1
			c0.5,0,0.9,0.4,0.9,0.9v5.2C-28.3,29.3-28.7,29.7-29.3,29.7z M-43.1,29.7h-12.1c-0.5,0-0.9-0.4-0.9-0.9v-5.2
			c0-0.5,0.4-0.9,0.9-0.9h12.1c0.5,0,0.9,0.4,0.9,0.9v5.2C-42.2,29.3-42.6,29.7-43.1,29.7z M-57.1,29.7h-12.1
			c-0.5,0-0.9-0.4-0.9-0.9v-5.2c0-0.5,0.4-0.9,0.9-0.9h12.1c0.5,0,0.9,0.4,0.9,0.9v5.2C-56.2,29.3-56.6,29.7-57.1,29.7z M-8,22.7
			h-12.1c-0.5,0-0.9-0.4-0.9-0.9v-5.2c0-0.5,0.4-0.9,0.9-0.9H-8c0.5,0,0.9,0.4,0.9,0.9v5.2C-7.1,22.2-7.5,22.7-8,22.7z M-22,22.7
			h-12.1c-0.5,0-0.9-0.4-0.9-0.9v-5.2c0-0.5,0.4-0.9,0.9-0.9H-22c0.5,0,0.9,0.4,0.9,0.9v5.2C-21.1,22.2-21.5,22.7-22,22.7z
			 M-35.9,22.7H-48c-0.5,0-0.9-0.4-0.9-0.9v-5.2c0-0.5,0.4-0.9,0.9-0.9h12.1c0.5,0,0.9,0.4,0.9,0.9v5.2
			C-35,22.2-35.4,22.7-35.9,22.7z M-49.9,22.7H-62c-0.5,0-0.9-0.4-0.9-0.9v-5.2c0-0.5,0.4-0.9,0.9-0.9h12.1c0.5,0,0.9,0.4,0.9,0.9
			v5.2C-49,22.2-49.4,22.7-49.9,22.7z M-15.3,15.5h-12.1c-0.5,0-0.9-0.4-0.9-0.9V9.4c0-0.5,0.4-0.9,0.9-0.9h12.1
			c0.5,0,0.9,0.4,0.9,0.9v5.2C-14.3,15.1-14.8,15.5-15.3,15.5z M-29.3,15.5h-12.1c-0.5,0-0.9-0.4-0.9-0.9V9.4c0-0.5,0.4-0.9,0.9-0.9
			h12.1c0.5,0,0.9,0.4,0.9,0.9v5.2C-28.3,15.1-28.7,15.5-29.3,15.5z M-43.1,15.5h-12.1c-0.5,0-0.9-0.4-0.9-0.9V9.4
			c0-0.5,0.4-0.9,0.9-0.9h12.1c0.5,0,0.9,0.4,0.9,0.9v5.2C-42.2,15.1-42.6,15.5-43.1,15.5z M-57.1,15.5h-12.1
			c-0.5,0-0.9-0.4-0.9-0.9V9.4c0-0.5,0.4-0.9,0.9-0.9h12.1c0.5,0,0.9,0.4,0.9,0.9v5.2C-56.2,15.1-56.6,15.5-57.1,15.5z M-8,8.5
			h-12.1c-0.5,0-0.9-0.4-0.9-0.9V2.3c0-0.5,0.4-0.9,0.9-0.9H-8c0.5,0,0.9,0.4,0.9,0.9v5.2C-7.1,8.1-7.5,8.5-8,8.5z M-22,8.5h-12.1
			c-0.5,0-0.9-0.4-0.9-0.9V2.3c0-0.5,0.4-0.9,0.9-0.9H-22c0.5,0,0.9,0.4,0.9,0.9v5.2C-21.1,8.1-21.5,8.5-22,8.5z M-35.9,8.5H-48
			c-0.5,0-0.9-0.4-0.9-0.9V2.3c0-0.5,0.4-0.9,0.9-0.9h12.1c0.5,0,0.9,0.4,0.9,0.9v5.2C-35,8.1-35.4,8.5-35.9,8.5z M-49.9,8.5H-62
			c-0.5,0-0.9-0.4-0.9-0.9V2.3c0-0.5,0.4-0.9,0.9-0.9h12.1c0.5,0,0.9,0.4,0.9,0.9v5.2C-49,8.1-49.4,8.5-49.9,8.5z M-15.3,1.4h-12.1
			c-0.5,0-0.9-0.4-0.9-0.9v-5.2c0-0.5,0.4-0.9,0.9-0.9h12.1c0.5,0,0.9,0.4,0.9,0.9v5.2C-14.3,0.9-14.8,1.4-15.3,1.4z M-29.3,1.4
			h-12.1c-0.5,0-0.9-0.4-0.9-0.9v-5.2c0-0.5,0.4-0.9,0.9-0.9h12.1c0.5,0,0.9,0.4,0.9,0.9v5.2C-28.3,0.9-28.7,1.4-29.3,1.4z
			 M-43.1,1.4h-12.1c-0.5,0-0.9-0.4-0.9-0.9v-5.2c0-0.5,0.4-0.9,0.9-0.9h12.1c0.5,0,0.9,0.4,0.9,0.9v5.2
			C-42.2,0.9-42.6,1.4-43.1,1.4z M-57.1,1.4h-12.1c-0.5,0-0.9-0.4-0.9-0.9v-5.2c0-0.5,0.4-0.9,0.9-0.9h12.1c0.5,0,0.9,0.4,0.9,0.9
			v5.2C-56.2,0.9-56.6,1.4-57.1,1.4z"/>
	</g>
</g>
<circle class="st4" cx="23.8" cy="23.8" r="23"/>
<path class="st8" d="M23.9,33c-1.2-0.5-5.6-2.7-5.6-7.1v-6.8c2.6-0.1,4.7-1,5.6-1.5c0.9,0.5,3,1.4,5.6,1.5v6.8
	C29.6,30.3,25.1,32.5,23.9,33z"/>
<path class="st8" d="M26.3,27.9h-4.8v-3.5h4.8V27.9z M22.4,24.4V23c0-0.8,0.7-1.5,1.5-1.5c0.8,0,1.5,0.7,1.5,1.5v1.4"/>
<path class="st8" d="M37.6,16.9l0-1.4c0-0.5-0.4-0.9-0.9-0.9l-12.3,0.1l-3.6-3.6l-8.6,0c-1,0-1.9,0.9-1.9,1.9l0.1,22.7h27.2V16.9z"
	/>
</svg>
