<?xml version="1.0" encoding="utf-8"?>
<!-- Generator: Adobe Illustrator 21.1.0, SVG Export Plug-In . SVG Version: 6.00 Build 0)  -->
<svg version="1.1" id="Layer_1" xmlns="http://www.w3.org/2000/svg" xmlns:xlink="http://www.w3.org/1999/xlink" x="0px" y="0px"
	 viewBox="0 0 82.2 90.1" style="enable-background:new 0 0 82.2 90.1;" xml:space="preserve">
<style type="text/css">
	.st0{fill:none;stroke:#662F8F;stroke-width:4;stroke-linecap:round;stroke-linejoin:round;stroke-miterlimit:10;}
	.st1{fill:#662F8F;}
	.st2{fill:none;stroke:#662F8F;stroke-width:2;stroke-linecap:round;stroke-linejoin:round;stroke-miterlimit:10;}
</style>
<g>
	<path class="st0" d="M-96.1-55.3c9.6-9.6,22.8-15.5,37.3-15.5"/>
	<path class="st0" d="M-81.7-40.9c5.9-5.9,14-9.5,23-9.5"/>
	<path class="st0" d="M-124.9-84.1c17.7-17.7,41.2-27.4,66.1-27.4c25,0,48.4,9.7,66.1,27.4"/>
	<path class="st0" d="M-7-69.7c-13.3-13.3-31.6-21.5-51.7-21.5s-38.5,8.2-51.7,21.5"/>
	<path class="st0" d="M-21.4-55.3c-9.6-9.6-22.8-15.5-37.3-15.5"/>
	<path class="st0" d="M-35.8-40.9c-5.9-5.9-14-9.5-23-9.5"/>
	<path class="st0" d="M-50.2-9.4c-2.2,2.2-5.2,3.5-8.6,3.5c-6.7,0-12.1-5.4-12.1-12.1S-65.4-30-58.7-30c3.3,0,6.4,1.4,8.6,3.5"/>
	<path class="st0" d="M-7-69.7c4,4,4,10.4,0,14.4s-10.4,4-14.4,0"/>
	<path class="st0" d="M-81.7-40.9c-4,4-10.4,4-14.4,0s-4-10.4,0-14.4"/>
	<path class="st0" d="M-35.8-40.9c4,4,4,10.4,0,14.4s-10.4,4-14.4,0"/>
	<path class="st0" d="M-110.5-69.7c-4,4-10.4,4-14.4,0c-4-4-4-10.4,0-14.4"/>
</g>
<g>
	<path class="st1" d="M256-91.2c-28.7,0-52,23.3-52,52s23.3,52,52,52s52-23.3,52-52S284.7-91.2,256-91.2z M256,9.2
		c-26.6,0-48.3-21.7-48.3-48.3s21.7-48.3,48.3-48.3s48.3,21.7,48.3,48.3S282.7,9.2,256,9.2z"/>
	<path class="st1" d="M292.6-45c-4.8-4.7-10.4-8.3-16.4-10.7c0-0.3,0.1-0.7,0.1-1c0-11.1-9-20.2-20.2-20.2s-20.2,9-20.2,20.2
		c0,0.6,0,1.1,0.1,1.7c-5.5,2.4-10.5,5.8-14.9,10.1c0,0-0.1,0.1-0.1,0.1c-1.2,1.2-1.8,2.8-1.8,4.5c0,1.7,0.7,3.4,1.9,4.6
		c2.6,2.5,6.7,2.5,9.3,0c0,0,0,0,0,0c3.2-3.1,6.8-5.6,10.8-7.4c2.3,2.5,5.2,4.5,8.5,5.5c-5,1.2-9.6,3.7-13.4,7.4
		c0,0-0.1,0.1-0.1,0.1c-1.3,1.2-1.9,2.9-1.9,4.6c0,1.7,0.7,3.4,1.9,4.6c2.6,2.5,6.7,2.5,9.3,0c0,0,0,0,0,0h0c3-2.9,7-4.5,11.3-4.5
		c4.3,0,8.3,1.6,11.3,4.5c0,0,0,0,0,0c0.8,0.8,1.2,1.8,1.2,2.8c0,1.1-0.4,2.1-1.2,2.8c-1.6,1.6-4.3,1.6-5.9,0c0,0-0.1-0.1-0.1-0.1
		c-1.4-1.3-3.3-2.1-5.3-2.1c-4.2,0-7.6,3.3-7.6,7.5c0,4.1,3.4,7.5,7.6,7.5c2,0,3.9-0.8,5.4-2.2c0.5-0.5,0.5-1.3,0-1.7
		c-0.5-0.5-1.3-0.5-1.7,0c-1,1-2.3,1.5-3.7,1.5c-2.8,0-5.2-2.2-5.2-5c0-2.8,2.3-5,5.2-5c1.4,0,2.7,0.5,3.7,1.5c0,0,0.1,0.1,0.1,0.1
		c2.6,2.4,6.7,2.4,9.2-0.1c1.3-1.2,1.9-2.9,1.9-4.6s-0.7-3.4-1.9-4.6c0,0,0,0,0,0c-3.5-3.4-8.1-5.2-13-5.2c-4.9,0-9.5,1.9-13,5.2
		c0,0,0,0,0,0c-1.6,1.6-4.3,1.6-5.9,0c-0.8-0.8-1.2-1.8-1.2-2.8c0-1,0.4-2,1.1-2.7c0,0,0.1-0.1,0.1-0.1c5-4.9,11.7-7.6,18.8-7.6
		c7.1,0,13.8,2.7,18.8,7.6c0,0,0,0,0,0c2.6,2.5,6.7,2.5,9.3,0c1.3-1.2,1.9-2.9,1.9-4.6c0-1.7-0.7-3.4-1.9-4.6c0,0,0,0,0,0
		c-3.6-3.5-7.7-6.2-12.1-8.1c1.5-2.2,2.5-4.8,3-7.5c5.5,2.3,10.6,5.7,15,9.9c0.5,0.5,1.3,0.5,1.7,0C293.1-43.8,293.1-44.5,292.6-45z
		 M228.6-37.6C228.6-37.6,228.6-37.6,228.6-37.6c-1.6,1.6-4.3,1.6-5.9,0c-0.8-0.8-1.2-1.8-1.2-2.8c0-1.1,0.4-2.1,1.2-2.8
		c0,0,0.1-0.1,0.1-0.1c4-3.9,8.5-6.9,13.5-9.2c0.6,2.7,1.7,5.2,3.3,7.4C235.6-43.3,231.9-40.8,228.6-37.6z M283.2-35.8
		C283.2-35.8,283.2-35.8,283.2-35.8c0.8,0.8,1.2,1.8,1.2,2.8c0,1.1-0.4,2.1-1.2,2.8c-1.6,1.6-4.3,1.6-5.9,0c0,0,0,0,0,0
		c-4-3.9-9-6.5-14.4-7.7c3.3-1.2,6.1-3.2,8.4-5.8C275.7-41.9,279.8-39.2,283.2-35.8z M256-39.1c-9.8,0-17.7-7.9-17.7-17.7
		c0-9.8,7.9-17.7,17.7-17.7s17.7,7.9,17.7,17.7C273.7-47,265.8-39.1,256-39.1z"/>
	<path class="st1" d="M248.4-58.1h-1.9l0.1-3.7h5.6v-1.5h-7.1l-0.2,6.6h2.9c2.5,0,3.4,1.1,3.4,2.5c0,1.4-1,2.5-2.8,2.5
		c-1.3,0-2.5-0.6-3.4-1.6l-1,1c1.1,1.3,2.6,2,4.4,2c2.4,0,4.5-1.5,4.5-4.2C252.9-56.3,251.4-58.1,248.4-58.1z"/>
	<path class="st1" d="M262.4-57.3v1.5h3.9c-0.3,2.5-1.9,4.1-4.5,4.1c-2.8,0-4.9-2.1-4.9-5.1c0-3,2.2-5.1,5-5.1
		c1.6,0,2.9,0.7,3.8,1.7l1.2-1.2c-1.2-1.3-3-2.1-5-2.1c-3.9,0-6.7,2.8-6.7,6.7c0,4.2,3.2,6.7,6.6,6.7c3.9,0,6.3-3,6.3-6.7
		c0-0.1,0-0.3,0-0.4H262.4z"/>
</g>
<g>
	<line class="st2" x1="19.9" y1="80.5" x2="19.9" y2="89.1"/>
	<path class="st2" d="M6.2,89.1C3.3,89.1,1,86.8,1,84V6.2C1,3.3,3.3,1,6.2,1H76c2.8,0,5.2,2.3,5.2,5.2V84c0,2.8-2.3,5.2-5.2,5.2
		H19.9"/>
	<path class="st2" d="M19.9,80.5h-5c-2.8,0-5.2-2.3-5.2-5.2V14.9c0-2.8,2.3-5.2,5.2-5.2h10.1c2.8,0,5.2,2.3,5.2,5.2v60.4"/>
	<g>
		<g>
			<circle class="st2" cx="41.9" cy="30.3" r="3.8"/>
			<circle class="st2" cx="55.8" cy="30.3" r="3.8"/>
			<circle class="st2" cx="69.7" cy="30.3" r="3.8"/>
			<circle class="st2" cx="41.9" cy="44.2" r="3.8"/>
			<circle class="st2" cx="55.8" cy="44.2" r="3.8"/>
			<circle class="st2" cx="69.7" cy="44.2" r="3.8"/>
			<circle class="st2" cx="41.9" cy="58.1" r="3.8"/>
			<circle class="st2" cx="55.8" cy="58.1" r="3.8"/>
			<circle class="st2" cx="69.7" cy="58.1" r="3.8"/>
			<circle class="st2" cx="41.9" cy="72" r="3.8"/>
			<circle class="st2" cx="55.8" cy="72" r="3.8"/>
			<circle class="st2" cx="69.7" cy="72" r="3.8"/>
		</g>
		<line class="st2" x1="38.1" y1="14.4" x2="73.4" y2="14.4"/>
	</g>
</g>
</svg>
