<?xml version="1.0" encoding="utf-8"?>
<!-- Generator: Adobe Illustrator 21.1.0, SVG Export Plug-In . SVG Version: 6.00 Build 0)  -->
<svg version="1.1" id="Layer_1" xmlns="http://www.w3.org/2000/svg" xmlns:xlink="http://www.w3.org/1999/xlink" x="0px" y="0px"
	 viewBox="0 0 314.9 247.5" style="enable-background:new 0 0 314.9 247.5;" xml:space="preserve">
<style type="text/css">
	.st0{fill:none;stroke:#FFFFFF;stroke-width:6.8333;stroke-linecap:round;stroke-linejoin:round;stroke-miterlimit:10;}
</style>
<g>
	<path class="st0" d="M75.8,131.5c21.8-21.8,51.9-35.3,85.1-35.3"/>
	<path class="st0" d="M108.5,164.2c13.4-13.4,31.9-21.7,52.3-21.7"/>
	<path class="st0" d="M10.2,65.9C50.5,25.6,104,3.4,160.8,3.4c56.9,0,110.4,22.2,150.6,62.5"/>
	<path class="st0" d="M278.7,98.7c-30.2-30.2-71.9-48.9-117.8-48.9S73.2,68.5,43,98.7"/>
	<path class="st0" d="M245.9,131.5c-21.8-21.8-51.9-35.3-85.1-35.3"/>
	<path class="st0" d="M213.1,164.2c-13.4-13.4-31.9-21.7-52.3-21.7"/>
	<path class="st0" d="M180.3,236c-5,5-11.9,8.1-19.5,8.1c-15.2,0-27.6-12.4-27.6-27.6s12.4-27.6,27.6-27.6c7.6,0,14.5,3.1,19.5,8.1"
		/>
	<path class="st0" d="M278.7,98.7c9.1,9.1,9.1,23.7,0,32.8s-23.7,9.1-32.8,0"/>
	<path class="st0" d="M108.5,164.2c-9.1,9.1-23.7,9.1-32.8,0s-9.1-23.7,0-32.8"/>
	<path class="st0" d="M213.1,164.2c9.1,9.1,9.1,23.7,0,32.8c-9.1,9.1-23.7,9.1-32.8,0"/>
	<path class="st0" d="M43,98.7c-9.1,9.1-23.7,9.1-32.8,0s-9.1-23.7,0-32.8"/>
</g>
</svg>
