<?xml version="1.0" encoding="utf-8"?>
<!-- Generator: Adobe Illustrator 21.1.0, SVG Export Plug-In . SVG Version: 6.00 Build 0)  -->
<svg version="1.1" id="Layer_1" xmlns="http://www.w3.org/2000/svg" xmlns:xlink="http://www.w3.org/1999/xlink" x="0px" y="0px"
	 viewBox="0 0 47.6 47.6" style="enable-background:new 0 0 47.6 47.6;" xml:space="preserve">
<style type="text/css">
	.st0{fill:none;stroke:#662F8F;stroke-width:4;stroke-linecap:round;stroke-linejoin:round;stroke-miterlimit:10;}
	.st1{fill:#662F8F;}
	.st2{fill:none;stroke:#662F8F;stroke-width:2;stroke-linecap:round;stroke-linejoin:round;stroke-miterlimit:10;}
	.st3{fill:none;stroke:#FFFFFF;stroke-width:0.488;stroke-linecap:round;stroke-linejoin:round;stroke-miterlimit:10;}
	.st4{fill:none;stroke:#E73E51;stroke-width:1.6927;}
	.st5{fill:none;stroke:#E73E51;stroke-width:1.1285;stroke-linecap:round;stroke-linejoin:round;stroke-miterlimit:10;}
	.st6{fill:#E73E51;}
	
		.st7{clip-path:url(#SVGID_2_);fill:none;stroke:#E73E51;stroke-width:1.1285;stroke-linecap:round;stroke-linejoin:round;stroke-miterlimit:10;}
	.st8{fill:none;stroke:#EE4050;stroke-width:1.1285;stroke-linecap:round;stroke-linejoin:round;stroke-miterlimit:10;}
	.st9{fill:none;stroke:#FFFFFF;stroke-width:0.574;stroke-linecap:round;stroke-linejoin:round;stroke-miterlimit:10;}
	.st10{fill:none;stroke:#A491C4;stroke-width:0.5657;stroke-miterlimit:10;}
	.st11{fill:none;stroke:#F7F8F9;stroke-width:1.2708;stroke-miterlimit:10;}
	.st12{fill:url(#SVGID_3_);}
	.st13{fill:#9289C1;}
	.st14{fill:#F79F7C;}
	.st15{fill:#EF619B;}
	.st16{fill:#F28BB9;}
	.st17{fill:#FABEA9;}
	.st18{fill:#F37B8A;}
	.st19{fill:none;stroke:#633493;stroke-width:5.1599;stroke-linecap:round;stroke-linejoin:round;stroke-miterlimit:10;}
	.st20{fill:none;stroke:#FFFFFF;stroke-width:1.0098;stroke-linecap:round;stroke-linejoin:round;stroke-miterlimit:10;}
	.st21{fill:none;stroke:#662F8F;stroke-width:1.5111;stroke-linecap:round;stroke-linejoin:round;stroke-miterlimit:10;}
	.st22{fill:none;stroke:#662F8F;stroke-width:1.6611;stroke-linecap:round;stroke-linejoin:round;stroke-miterlimit:10;}
	.st23{fill:none;stroke:#662F8F;stroke-width:0.75;stroke-miterlimit:10;}
	.st24{fill:none;stroke:#E73E51;stroke-width:0.9998;stroke-linecap:round;stroke-linejoin:round;stroke-miterlimit:10;}
	.st25{fill:none;}
	.st26{fill:#EE4050;}
</style>
<g>
	<path class="st0" d="M-368.9-336.2c9.6-9.6,22.8-15.5,37.3-15.5"/>
	<path class="st0" d="M-354.5-321.8c5.9-5.9,14-9.5,23-9.5"/>
	<path class="st0" d="M-397.7-365c17.7-17.7,41.2-27.4,66.1-27.4c25,0,48.4,9.7,66.1,27.4"/>
	<path class="st0" d="M-279.8-350.6c-13.3-13.3-31.6-21.5-51.7-21.5c-20.2,0-38.5,8.2-51.7,21.5"/>
	<path class="st0" d="M-294.2-336.2c-9.6-9.6-22.8-15.5-37.3-15.5"/>
	<path class="st0" d="M-308.6-321.8c-5.9-5.9-14-9.5-23-9.5"/>
	<path class="st0" d="M-323-290.3c-2.2,2.2-5.2,3.5-8.6,3.5c-6.7,0-12.1-5.4-12.1-12.1s5.4-12.1,12.1-12.1c3.3,0,6.4,1.4,8.6,3.5"/>
	<path class="st0" d="M-279.8-350.6c4,4,4,10.4,0,14.4c-4,4-10.4,4-14.4,0"/>
	<path class="st0" d="M-354.5-321.8c-4,4-10.4,4-14.4,0c-4-4-4-10.4,0-14.4"/>
	<path class="st0" d="M-308.6-321.8c4,4,4,10.4,0,14.4c-4,4-10.4,4-14.4,0"/>
	<path class="st0" d="M-383.3-350.6c-4,4-10.4,4-14.4,0c-4-4-4-10.4,0-14.4"/>
</g>
<g>
	<path class="st1" d="M-185.8-402.1c-28.7,0-52,23.3-52,52s23.3,52,52,52s52-23.3,52-52S-157.1-402.1-185.8-402.1z M-185.8-301.8
		c-26.6,0-48.3-21.7-48.3-48.3s21.7-48.3,48.3-48.3s48.3,21.7,48.3,48.3S-159.2-301.8-185.8-301.8z"/>
	<path class="st1" d="M-149.3-355.9c-4.8-4.7-10.4-8.3-16.4-10.7c0-0.3,0.1-0.7,0.1-1c0-11.1-9-20.2-20.2-20.2s-20.2,9-20.2,20.2
		c0,0.6,0,1.1,0.1,1.7c-5.5,2.4-10.5,5.8-14.9,10.1c0,0-0.1,0.1-0.1,0.1c-1.2,1.2-1.8,2.8-1.8,4.5c0,1.7,0.7,3.4,1.9,4.6
		c2.6,2.5,6.7,2.5,9.3,0c0,0,0,0,0,0c3.2-3.1,6.8-5.6,10.8-7.4c2.3,2.5,5.2,4.5,8.5,5.5c-5,1.2-9.6,3.7-13.4,7.4
		c0,0-0.1,0.1-0.1,0.1c-1.3,1.2-1.9,2.9-1.9,4.6c0,1.7,0.7,3.4,1.9,4.6c2.6,2.5,6.7,2.5,9.3,0c0,0,0,0,0,0h0c3-2.9,7-4.5,11.3-4.5
		c4.3,0,8.3,1.6,11.3,4.5c0,0,0,0,0,0c0.8,0.8,1.2,1.8,1.2,2.8c0,1.1-0.4,2.1-1.2,2.8c-1.6,1.6-4.3,1.6-5.9,0c0,0-0.1-0.1-0.1-0.1
		c-1.4-1.3-3.3-2.1-5.3-2.1c-4.2,0-7.6,3.3-7.6,7.5c0,4.1,3.4,7.5,7.6,7.5c2,0,3.9-0.8,5.4-2.2c0.5-0.5,0.5-1.3,0-1.7
		c-0.5-0.5-1.3-0.5-1.7,0c-1,1-2.3,1.5-3.7,1.5c-2.8,0-5.2-2.2-5.2-5c0-2.8,2.3-5,5.2-5c1.4,0,2.7,0.5,3.7,1.5c0,0,0.1,0.1,0.1,0.1
		c2.6,2.4,6.7,2.4,9.2-0.1c1.3-1.2,1.9-2.9,1.9-4.6s-0.7-3.4-1.9-4.6c0,0,0,0,0,0c-3.5-3.4-8.1-5.2-13-5.2c-4.9,0-9.5,1.9-13,5.2
		c0,0,0,0,0,0c-1.6,1.6-4.3,1.6-5.9,0c-0.8-0.8-1.2-1.8-1.2-2.8c0-1,0.4-2,1.1-2.7c0,0,0.1-0.1,0.1-0.1c5-4.9,11.7-7.6,18.8-7.6
		c7.1,0,13.8,2.7,18.8,7.6c0,0,0,0,0,0c2.6,2.5,6.7,2.5,9.3,0c1.3-1.2,1.9-2.9,1.9-4.6c0-1.7-0.7-3.4-1.9-4.6c0,0,0,0,0,0
		c-3.6-3.5-7.7-6.2-12.1-8.1c1.5-2.2,2.5-4.8,3-7.5c5.5,2.3,10.6,5.7,15,9.9c0.5,0.5,1.3,0.5,1.7,0
		C-148.8-354.7-148.8-355.5-149.3-355.9z M-213.2-348.5C-213.2-348.5-213.2-348.5-213.2-348.5c-1.6,1.6-4.3,1.6-5.9,0
		c-0.8-0.8-1.2-1.8-1.2-2.8c0-1.1,0.4-2.1,1.2-2.8c0,0,0.1-0.1,0.1-0.1c4-3.9,8.5-6.9,13.5-9.2c0.6,2.7,1.7,5.2,3.3,7.4
		C-206.3-354.2-210-351.7-213.2-348.5z M-158.6-346.8C-158.6-346.8-158.6-346.8-158.6-346.8c0.8,0.8,1.2,1.8,1.2,2.8
		c0,1.1-0.4,2.1-1.2,2.8c-1.6,1.6-4.3,1.6-5.9,0c0,0,0,0,0,0c-4-3.9-9-6.5-14.4-7.7c3.3-1.2,6.1-3.2,8.4-5.8
		C-166.1-352.8-162.1-350.2-158.6-346.8z M-185.8-350c-9.8,0-17.7-7.9-17.7-17.7c0-9.8,7.9-17.7,17.7-17.7s17.7,7.9,17.7,17.7
		C-168.1-357.9-176.1-350-185.8-350z"/>
	<path class="st1" d="M-193.5-369h-1.9l0.1-3.7h5.6v-1.5h-7.1l-0.2,6.6h2.9c2.5,0,3.4,1.1,3.4,2.5c0,1.4-1,2.5-2.8,2.5
		c-1.3,0-2.5-0.6-3.4-1.6l-1,1c1.1,1.3,2.6,2,4.4,2c2.4,0,4.5-1.5,4.5-4.2C-188.9-367.3-190.4-369-193.5-369z"/>
	<path class="st1" d="M-179.5-368.2v1.5h3.9c-0.3,2.5-1.9,4.1-4.5,4.1c-2.8,0-4.9-2.1-4.9-5.1c0-3,2.2-5.1,5-5.1
		c1.6,0,2.9,0.7,3.8,1.7l1.2-1.2c-1.2-1.3-3-2.1-5-2.1c-3.9,0-6.7,2.8-6.7,6.7c0,4.2,3.2,6.7,6.6,6.7c3.9,0,6.3-3,6.3-6.7
		c0-0.1,0-0.3,0-0.4H-179.5z"/>
</g>
<g>
	<line class="st2" x1="-53.9" y1="-316.5" x2="-53.9" y2="-307.8"/>
	<path class="st2" d="M-67.7-307.8c-2.8,0-5.2-2.3-5.2-5.2v-77.8c0-2.8,2.3-5.2,5.2-5.2H2.2c2.8,0,5.2,2.3,5.2,5.2v77.8
		c0,2.8-2.3,5.2-5.2,5.2h-56.2"/>
	<path class="st2" d="M-53.9-316.5h-5c-2.8,0-5.2-2.3-5.2-5.2v-60.4c0-2.8,2.3-5.2,5.2-5.2h10.1c2.8,0,5.2,2.3,5.2,5.2v60.4"/>
	<g>
		<g>
			<circle class="st2" cx="-32" cy="-366.6" r="3.8"/>
			<circle class="st2" cx="-18.1" cy="-366.6" r="3.8"/>
			<circle class="st2" cx="-4.2" cy="-366.6" r="3.8"/>
			<circle class="st2" cx="-32" cy="-352.7" r="3.8"/>
			<circle class="st2" cx="-18.1" cy="-352.7" r="3.8"/>
			<circle class="st2" cx="-4.2" cy="-352.7" r="3.8"/>
			<circle class="st2" cx="-32" cy="-338.8" r="3.8"/>
			<circle class="st2" cx="-18.1" cy="-338.8" r="3.8"/>
			<circle class="st2" cx="-4.2" cy="-338.8" r="3.8"/>
			<circle class="st2" cx="-32" cy="-324.9" r="3.8"/>
			<circle class="st2" cx="-18.1" cy="-324.9" r="3.8"/>
			<circle class="st2" cx="-4.2" cy="-324.9" r="3.8"/>
		</g>
		<line class="st2" x1="-35.7" y1="-382.6" x2="-0.4" y2="-382.6"/>
	</g>
</g>
<g>
	<path class="st3" d="M-136.6-204v-1c0-2.7-2.1-4.9-4.8-5c-2.8-0.1-5.1,2.2-5.1,4.9l0,3.8h10.9c0.7,0,1.3,0.6,1.3,1.3v8.6
		c0,0.7-0.6,1.3-1.3,1.3h-2.7c-0.5,0-1-0.4-1.1-0.9l-0.8-3.2v0c0.6-0.5,0.9-1.2,0.8-2.1c-0.1-1-1-1.7-1.9-1.9
		c-1.3-0.1-2.5,0.9-2.5,2.2c0,0.7,0.3,1.3,0.8,1.7h0c0,0-0.5,2-0.8,3.2c-0.1,0.5-0.6,0.9-1.1,0.9h-2.7c-0.7,0-1.3-0.6-1.3-1.3v-8.6"
		/>
</g>
<g>
	<circle class="st4" cx="-18.3" cy="-196.7" r="23"/>
	<path class="st5" d="M-41.5-196.8l23.2-0.1 M-18.4-196.9V-220V-196.9z M-6.7-196.9c0,6.4-5.2,11.6-11.6,11.6
		c-6.4,0-11.7-5.2-11.7-11.6c0-6.4,5.2-11.6,11.7-11.6C-11.9-208.5-6.7-203.3-6.7-196.9z M-1.1-196.9c0,9.5-7.7,17.3-17.3,17.3
		c-9.5,0-17.3-7.7-17.3-17.3c0-9.5,7.7-17.3,17.3-17.3C-8.8-214.2-1.1-206.4-1.1-196.9z"/>
	<path class="st6" d="M-34-202.2c1.2,0,2.2-1,2.2-2.2c0-1.2-1-2.2-2.2-2.2c-1.2,0-2.2,1-2.2,2.2C-36.2-203.2-35.3-202.2-34-202.2"/>
</g>
<g>
	<circle class="st4" cx="-76.7" cy="-196.3" r="23"/>
	<path class="st5" d="M-66-203.6l7.1,7.2 M-66-203.6l-7.1,10.3 M-80.1-189.2l7.1-4.2 M-80.1-189.2l-7.1-9.5 M-94.2-193.7l7.1-4.9"/>
	<path class="st6" d="M-89.2-198.7c0-1.2,1-2.1,2.1-2.1s2.1,1,2.1,2.1c0,1.2-1,2.1-2.1,2.1S-89.2-197.5-89.2-198.7"/>
	<path class="st6" d="M-82.2-189.2c0-1.2,1-2.1,2.1-2.1c1.2,0,2.1,1,2.1,2.1c0,1.2-1,2.1-2.1,2.1C-81.2-187-82.2-188-82.2-189.2"/>
	<path class="st6" d="M-75.1-193.4c0-1.2,1-2.1,2.1-2.1c1.2,0,2.1,1,2.1,2.1c0,1.2-1,2.1-2.1,2.1C-74.2-191.2-75.1-192.2-75.1-193.4
		"/>
	<path class="st6" d="M-68.1-203.6c0-1.2,1-2.1,2.1-2.1c1.2,0,2.1,1,2.1,2.1c0,1.2-1,2.1-2.1,2.1C-67.1-201.5-68.1-202.5-68.1-203.6
		"/>
	<path class="st6" d="M-61.2-196.6c0-1.2,1-2.1,2.1-2.1s2.1,1,2.1,2.1c0,1.2-1,2.1-2.1,2.1S-61.2-195.4-61.2-196.6"/>
	<path class="st6" d="M-96-193.9c0-1.2,1-2.1,2.1-2.1c1.2,0,2.1,1,2.1,2.1c0,1.2-1,2.1-2.1,2.1C-95.1-191.8-96-192.8-96-193.9"/>
</g>
<g>
	<circle class="st4" cx="31.4" cy="-237" r="23"/>
	<g>
		<defs>
			<path id="SVGID_1_" d="M7.6-237.2c0,12.4,9.6,22.6,21.8,23.5H33c11.7-0.9,21.1-10.4,21.8-22.2v-2.7c-0.7-12.4-11-22.2-23.6-22.2
				C18.2-260.8,7.6-250.3,7.6-237.2"/>
		</defs>
		<clipPath id="SVGID_2_">
			<use xlink:href="#SVGID_1_"  style="overflow:visible;"/>
		</clipPath>
		<path class="st7" d="M54.2-205.7H42.1c-0.5,0-0.9-0.4-0.9-0.9v-5.2c0-0.5,0.4-0.9,0.9-0.9h12.1c0.5,0,0.9,0.4,0.9,0.9v5.2
			C55.1-206.1,54.7-205.7,54.2-205.7z M40.2-205.7H28.1c-0.5,0-0.9-0.4-0.9-0.9v-5.2c0-0.5,0.4-0.9,0.9-0.9h12.1
			c0.5,0,0.9,0.4,0.9,0.9v5.2C41.1-206.1,40.7-205.7,40.2-205.7z M26.3-205.7H14.2c-0.5,0-0.9-0.4-0.9-0.9v-5.2
			c0-0.5,0.4-0.9,0.9-0.9h12.1c0.5,0,0.9,0.4,0.9,0.9v5.2C27.3-206.1,26.8-205.7,26.3-205.7z M12.3-205.7H0.2
			c-0.5,0-0.9-0.4-0.9-0.9v-5.2c0-0.5,0.4-0.9,0.9-0.9h12.1c0.5,0,0.9,0.4,0.9,0.9v5.2C13.3-206.1,12.8-205.7,12.3-205.7z
			 M61.5-212.8H49.3c-0.5,0-0.9-0.4-0.9-0.9v-5.2c0-0.5,0.4-0.9,0.9-0.9h12.1c0.5,0,0.9,0.4,0.9,0.9v5.2
			C62.4-213.2,62-212.8,61.5-212.8z M47.5-212.8H35.3c-0.5,0-0.9-0.4-0.9-0.9v-5.2c0-0.5,0.4-0.9,0.9-0.9h12.1
			c0.5,0,0.9,0.4,0.9,0.9v5.2C48.4-213.2,48-212.8,47.5-212.8z M33.6-212.8H21.5c-0.5,0-0.9-0.4-0.9-0.9v-5.2c0-0.5,0.4-0.9,0.9-0.9
			h12.1c0.5,0,0.9,0.4,0.9,0.9v5.2C34.5-213.2,34.1-212.8,33.6-212.8z M19.6-212.8H7.5c-0.5,0-0.9-0.4-0.9-0.9v-5.2
			c0-0.5,0.4-0.9,0.9-0.9h12.1c0.5,0,0.9,0.4,0.9,0.9v5.2C20.5-213.2,20.1-212.8,19.6-212.8z M54.2-219.9H42.1
			c-0.5,0-0.9-0.4-0.9-0.9v-5.2c0-0.5,0.4-0.9,0.9-0.9h12.1c0.5,0,0.9,0.4,0.9,0.9v5.2C55.1-220.3,54.7-219.9,54.2-219.9z
			 M40.2-219.9H28.1c-0.5,0-0.9-0.4-0.9-0.9v-5.2c0-0.5,0.4-0.9,0.9-0.9h12.1c0.5,0,0.9,0.4,0.9,0.9v5.2
			C41.1-220.3,40.7-219.9,40.2-219.9z M26.3-219.9H14.2c-0.5,0-0.9-0.4-0.9-0.9v-5.2c0-0.5,0.4-0.9,0.9-0.9h12.1
			c0.5,0,0.9,0.4,0.9,0.9v5.2C27.3-220.3,26.8-219.9,26.3-219.9z M12.3-219.9H0.2c-0.5,0-0.9-0.4-0.9-0.9v-5.2
			c0-0.5,0.4-0.9,0.9-0.9h12.1c0.5,0,0.9,0.4,0.9,0.9v5.2C13.3-220.3,12.8-219.9,12.3-219.9z M61.5-226.9H49.3
			c-0.5,0-0.9-0.4-0.9-0.9v-5.2c0-0.5,0.4-0.9,0.9-0.9h12.1c0.5,0,0.9,0.4,0.9,0.9v5.2C62.4-227.4,62-226.9,61.5-226.9z M47.5-226.9
			H35.3c-0.5,0-0.9-0.4-0.9-0.9v-5.2c0-0.5,0.4-0.9,0.9-0.9h12.1c0.5,0,0.9,0.4,0.9,0.9v5.2C48.4-227.4,48-226.9,47.5-226.9z
			 M33.6-226.9H21.5c-0.5,0-0.9-0.4-0.9-0.9v-5.2c0-0.5,0.4-0.9,0.9-0.9h12.1c0.5,0,0.9,0.4,0.9,0.9v5.2
			C34.5-227.4,34.1-226.9,33.6-226.9z M19.6-226.9H7.5c-0.5,0-0.9-0.4-0.9-0.9v-5.2c0-0.5,0.4-0.9,0.9-0.9h12.1
			c0.5,0,0.9,0.4,0.9,0.9v5.2C20.5-227.4,20.1-226.9,19.6-226.9z M54.2-234.1H42.1c-0.5,0-0.9-0.4-0.9-0.9v-5.2
			c0-0.5,0.4-0.9,0.9-0.9h12.1c0.5,0,0.9,0.4,0.9,0.9v5.2C55.1-234.5,54.7-234.1,54.2-234.1z M40.2-234.1H28.1
			c-0.5,0-0.9-0.4-0.9-0.9v-5.2c0-0.5,0.4-0.9,0.9-0.9h12.1c0.5,0,0.9,0.4,0.9,0.9v5.2C41.1-234.5,40.7-234.1,40.2-234.1z
			 M26.3-234.1H14.2c-0.5,0-0.9-0.4-0.9-0.9v-5.2c0-0.5,0.4-0.9,0.9-0.9h12.1c0.5,0,0.9,0.4,0.9,0.9v5.2
			C27.3-234.5,26.8-234.1,26.3-234.1z M12.3-234.1H0.2c-0.5,0-0.9-0.4-0.9-0.9v-5.2c0-0.5,0.4-0.9,0.9-0.9h12.1
			c0.5,0,0.9,0.4,0.9,0.9v5.2C13.3-234.5,12.8-234.1,12.3-234.1z"/>
	</g>
</g>
<circle class="st4" cx="93.3" cy="-211.6" r="23"/>
<path class="st8" d="M93.4-202.4c-1.2-0.5-5.6-2.7-5.6-7.1v-6.8c2.6-0.1,4.7-1,5.6-1.5c0.9,0.5,3,1.4,5.6,1.5v6.8
	C99-205.1,94.6-202.9,93.4-202.4z"/>
<path class="st8" d="M95.8-207.5H91v-3.5h4.8V-207.5z M91.9-211v-1.4c0-0.8,0.7-1.5,1.5-1.5c0.8,0,1.5,0.7,1.5,1.5v1.4"/>
<path class="st8" d="M107-218.5l0-1.4c0-0.5-0.4-0.9-0.9-0.9l-12.3,0.1l-3.6-3.6l-8.6,0c-1,0-1.9,0.9-1.9,1.9l0.1,22.7H107V-218.5z"
	/>
<g>
	<circle class="st4" cx="159.5" cy="-207.2" r="23"/>
	<path class="st8" d="M170-198.4c0,1.8-1.5,3.3-3.3,3.3s-3.3-1.5-3.3-3.3c0-1.8,1.5-3.3,3.3-3.3S170-200.2,170-198.4z M165.9-199.3
		l0.8,2l1.5-3.9 M150.8-202.3h9.1 M150.8-205.1h14.7 M150.8-208h14.7 M150.8-210.8h14.7 M150.8-213.6h9.9 M150.8-216.5h9.9
		 M165.4-222.1h6.9v29.8h-25.2v-29.8H165.4z"/>
</g>
<circle class="st4" cx="222.3" cy="-202.7" r="23"/>
<path class="st8" d="M222.1-197.6v1.1 M222.1-208.3v7.2 M222.1-216.9l-13.9,24.2H236L222.1-216.9z"/>
<circle class="st4" cx="295.8" cy="-202.4" r="23"/>
<path class="st8" d="M295.8-185c-2.4-1-11.4-5.4-11.4-14.4v-13.7c5.3-0.1,9.6-2,11.4-3c1.8,1,6,2.8,11.4,3v13.7
	C307.2-190.4,298.2-186.1,295.8-185z"/>
<path class="st8" d="M300.7-195.4h-9.8v-7.1h9.8V-195.4z M292.8-202.4v-2.8c0-1.6,1.3-3,3-3c1.6,0,3,1.3,3,3v2.8"/>
<g>
	<path class="st0" d="M421.7-224.5v-5.9c0-16.5-12.9-30.4-29.4-30.8c-17.1-0.5-31.1,13.2-31.1,30.2l0,23.2h67.2
		c4.2,0,7.7,3.5,7.7,7.7v53.1c0,4.2-3.5,7.7-7.7,7.7c0,0-10.2,0-16.8,0c-3.3,0-6.2-2.3-7-5.5l-4.8-19.9l0,0c3.6-2.9,5.8-7.6,5-12.7
		c-0.9-6-5.8-10.7-11.8-11.4c-8.2-0.9-15.1,5.5-15.1,13.5c0,4.3,2,8.2,5.2,10.6l0,0c0,0-3,12.4-4.8,19.9c-0.8,3.2-3.7,5.5-7,5.5
		h-16.8c-4.2,0-7.7-3.5-7.7-7.7v-53.1"/>
</g>
<g>
	<path class="st9" d="M297.3-135.4c1.7,0.6,3.7,0.2,5-1.1c1.4-1.4,1.7-3.3,1.1-5l-2.4,2.4c-0.3,0.3-0.8,0.3-1.1,0l-1.8-1.8
		c-0.3-0.3-0.3-0.8,0-1.1l2.4-2.4c-1.7-0.6-3.7-0.2-5,1.1c-1.4,1.4-1.7,3.3-1.1,5l-7.4,7.4c-1.7-0.6-3.7-0.2-5,1.1
		c-1.4,1.4-1.7,3.3-1.1,5l2.4-2.4c0.3-0.3,0.8-0.3,1.1,0l1.8,1.8c0.3,0.3,0.3,0.8,0,1.1l-2.4,2.4c1.7,0.6,3.7,0.2,5-1.1
		c1.4-1.4,1.7-3.3,1.1-5l2.2-2.2"/>
	<path class="st9" d="M292.1-130.2l-5.8-6.2c-1-1-2.7-1-3.7,0c-0.9,0.9-1,2.4-0.2,3.4l-2,1.3c0,0-3.2-4.8,0.5-8.5
		c1.3-1.3,2.5-2.5,3.6-3.6c0.3,0.1,0.7,0.1,1,0.2c0.3,0.1,0.6-0.2,0.5-0.5l-0.2-1l1.7-1.7l4.6,4.6l-1.6,1.6c-0.5-0.5-1.3-0.5-1.7,0
		c-0.5,0.5-0.5,1.3,0,1.7l12.8,11.9c0.1,0.1,0.2,0.2,0.2,0.2c0.7,0.8,0.7,2,0.1,2.9c-0.9,1.1-2.5,1.2-3.5,0.3c0,0-0.1-0.1-0.1-0.1
		l-4.2-4.4"/>
</g>
<g>
	<path class="st10" d="M613,182.7c-16.8,29.7-59.2,67.7-114.4,99.6c-81.9,47.3-161,63.4-176.8,36c-7.4-12.7,0.3-32.6,18.8-55"/>
	<path class="st10" d="M559.8,136.1c29.3-5.1,50.9-1.9,58.3,11c2.6,4.5,3.3,10,2.3,16.1"/>
	<circle class="st10" cx="617.6" cy="173.3" r="10.5"/>
	<circle class="st10" cx="466.1" cy="204.8" r="132"/>
</g>
<image style="overflow:visible;" width="1600" height="700" xlink:href="../Dropbox (Muuaaa)/Muuaaa Team Folder/Graphic Design_Gabriel/Neptuno/02 Design/images/slide-22.jpg"  transform="matrix(0.4158 0 0 0.4158 176.0205 -309.804)">
</image>
<image style="overflow:visible;" width="1078" height="516" xlink:href="datacenter-google-1078x516.jpg"  transform="matrix(1 0 0 1 302.3457 -950.7754)">
</image>
<g>
	<g>
		<g>
			<path class="st11" d="M1196.6,151.6c7.8-13.2,12.3-28.7,12.3-45.2c0-49.1-39.8-88.9-88.9-88.9c-49.1,0-88.9,39.8-88.9,88.9
				c0,16,4.2,30.9,11.6,43.9"/>
			<path class="st11" d="M1052.9,164.6c16.3,18.8,40.3,30.7,67.2,30.7c26.8,0,50.9-11.9,67.2-30.7"/>
			<rect x="1047.5" y="161.3" class="st11" width="45.9" height="3.2"/>
			<g>
				<rect x="1042.8" y="146.2" class="st11" width="55.3" height="15.1"/>
				<line class="st11" x1="1047.4" y1="150.5" x2="1047.4" y2="157.1"/>
				<line class="st11" x1="1050.8" y1="150.5" x2="1050.8" y2="157.1"/>
				<line class="st11" x1="1054.3" y1="150.5" x2="1054.3" y2="157.1"/>
				<line class="st11" x1="1057.8" y1="150.5" x2="1057.8" y2="157.1"/>
				<line class="st11" x1="1061.3" y1="150.5" x2="1061.3" y2="157.1"/>
				<line class="st11" x1="1064.7" y1="150.5" x2="1064.7" y2="157.1"/>
				<circle class="st11" cx="1091.4" cy="153.8" r="2.3"/>
				<circle class="st11" cx="1083.4" cy="153.8" r="2.3"/>
				<circle class="st11" cx="1075.4" cy="153.8" r="2.3"/>
			</g>
			<path class="st11" d="M1052.6,146.2v-19.6c0-1.2,1-2.2,2.2-2.2l0,0c1.2,0,2.2,1,2.2,2.2v19.6"/>
			<path class="st11" d="M1046.7,114.3c2.1-2.1,5-3.4,8.1-3.4"/>
			<path class="st11" d="M1048.9,117.5c1.5-1.5,3.6-2.4,5.9-2.4"/>
			<path class="st11" d="M1051.1,120.6c0.9-0.9,2.2-1.5,3.6-1.5"/>
			<path class="st11" d="M1062.9,114.3c-2.1-2.1-5-3.4-8.1-3.4"/>
			<path class="st11" d="M1060.7,117.5c-1.5-1.5-3.6-2.4-5.9-2.4"/>
			<path class="st11" d="M1058.4,120.6c-0.9-0.9-2.2-1.5-3.6-1.5"/>
			<path class="st11" d="M1083.9,146.2v-19.6c0-1.2,1-2.2,2.2-2.2h0c1.2,0,2.2,1,2.2,2.2v19.6"/>
			<path class="st11" d="M1078,114.3c2.1-2.1,5-3.4,8.1-3.4"/>
			<path class="st11" d="M1080.2,117.5c1.5-1.5,3.6-2.4,5.9-2.4"/>
			<path class="st11" d="M1082.4,120.6c0.9-0.9,2.2-1.5,3.6-1.5"/>
			<path class="st11" d="M1094.2,114.3c-2.1-2.1-5-3.4-8.1-3.4"/>
			<path class="st11" d="M1092,117.5c-1.5-1.5-3.6-2.4-5.9-2.4"/>
			<path class="st11" d="M1089.7,120.6c-0.9-0.9-2.2-1.5-3.6-1.5"/>
			<rect x="1104.4" y="55.6" class="st11" width="42.5" height="105.8"/>
			<rect x="1110" y="61.1" class="st11" width="31.4" height="8.2"/>
			<rect x="1110" y="69.3" class="st11" width="31.4" height="8.2"/>
			<rect x="1110" y="77.4" class="st11" width="31.4" height="8.2"/>
			<rect x="1110" y="85.6" class="st11" width="31.4" height="8.2"/>
			<rect x="1110" y="93.7" class="st11" width="31.4" height="8.2"/>
			<rect x="1110" y="101.9" class="st11" width="31.4" height="8.2"/>
			<rect x="1110" y="128.2" class="st11" width="31.4" height="23.2"/>
			<circle class="st11" cx="1125.4" cy="139.8" r="2.8"/>
			<g>
				<rect x="1110" y="117.1" class="st11" width="18.6" height="4.1"/>
				<rect x="1137.3" y="117.1" class="st11" width="4.1" height="4.1"/>
			</g>
			<line class="st11" x1="1122.6" y1="139.8" x2="1110" y2="139.8"/>
			<line class="st11" x1="1128.2" y1="139.8" x2="1140.8" y2="139.8"/>
			<rect x="1104.4" y="161.3" class="st11" width="42.5" height="3.2"/>
			<circle class="st11" cx="1176.1" cy="133.8" r="11.7"/>
			<circle class="st11" cx="1176.1" cy="133.8" r="6.4"/>
			<circle class="st11" cx="1176.1" cy="133.8" r="2.6"/>
			<line class="st11" x1="1176.1" y1="145.5" x2="1176.1" y2="151.6"/>
			<g>
				<rect x="1153.3" y="151.6" class="st11" width="44.1" height="9.8"/>
				<line class="st11" x1="1186.7" y1="156.5" x2="1164" y2="156.5"/>
			</g>
			<rect x="1157" y="161.3" class="st11" width="36.7" height="3.2"/>
		</g>
	</g>
</g>
<g>
	<linearGradient id="SVGID_3_" gradientUnits="userSpaceOnUse" x1="1258.0646" y1="-15.2021" x2="1380.3024" y2="-15.2021">
		<stop  offset="0" style="stop-color:#C558A0"/>
		<stop  offset="0.5945" style="stop-color:#7F3E93"/>
		<stop  offset="1" style="stop-color:#532E8B"/>
	</linearGradient>
	<path class="st12" d="M1349-37.4l31.3,17.6l-61.4,34.6l-60.9-34.6l30.8-17.5C1307.5-47.8,1330.3-47.9,1349-37.4z"/>
	<path class="st13" d="M1258.1-19.7v3.6l59.9,34.7c0.4,0.2,0.8,0.2,1.1,0l61.2-34.7v-3.7l-61.4,34.6L1258.1-19.7z"/>
	<path class="st14" d="M1343.9-68l36.4,20.5l-61.4,34.6l-60.9-34.6l36-20.4C1309.5-76.7,1328.4-76.7,1343.9-68z"/>
	<path class="st15" d="M1345.5-93l34.8,19.6l-61.4,34.6l-60.9-34.6l34.3-19.5C1308.9-102.2,1329-102.3,1345.5-93z"/>
	<path class="st16" d="M1258.1-73.4l0.1,3.6l59.7,34.7c0.4,0.2,0.8,0.2,1.2,0l61.2-34.7v-3.6l-61.4,34.6L1258.1-73.4z"/>
	<path class="st17" d="M1258.1-47.5l0.1,3.6l59.7,34.7c0.4,0.2,0.9,0.2,1.3,0l61.1-34.7v-3.6l-61.4,34.6L1258.1-47.5z"/>
</g>
<g>
	<g>
		<path class="st18" d="M1799.5-111.7l-76.2,129.5c-1.5,2.5,0.3,5.7,3.3,5.7h61.4c0.7,0,1.3,0.6,1.2,1.4L1775.5,126
			c-0.4,3.3,4,4.9,5.7,2l94.1-155.8c1.4-2.3-0.3-5.2-2.9-5.2H1798c-0.7,0-1.3-0.6-1.2-1.3l8-75.7
			C1805.2-113.1,1801.1-114.4,1799.5-111.7z"/>
	</g>
	<g>
		<g>
			<path class="st1" d="M1660-8.4c-28.5-17-50.1-44.3-59.4-76.2c-9.1-31-6.3-65.2,7.9-94.2c28.1-57.4,95.2-86.9,156.5-68.2
				c35.2,10.7,64.3,36.3,80.3,69.4c2,4.1,8.2,0.5,6.2-3.6c-14.9-30.8-40.8-55.3-72.4-68.3c-31.7-13-68.2-13.7-100.3-1.8
				c-29.8,11.1-55.3,32.3-71.4,59.7c-17.1,29-22.9,63.8-16.6,96.8c7.4,38.7,31.9,72.6,65.7,92.7C1660.3,0.1,1663.9-6.1,1660-8.4
				L1660-8.4z"/>
		</g>
	</g>
	<g>
		<g>
			<path class="st1" d="M1849.2-176.1c47.3-13.1,98.5,12.1,115.3,58.7c15.6,43.4-2.9,92.9-43.1,115.3c-25.3,14.1-55.7,15.3-82.5,4.6
				c-4.3-1.7-6.1,5.2-1.9,6.9c49.2,19.8,107.2-2.1,130.2-50.1c21.5-44.9,6.9-99.8-33.9-128.2c-25-17.4-56.8-22.2-86-14.1
				C1842.9-181.8,1844.8-174.9,1849.2-176.1L1849.2-176.1z"/>
		</g>
	</g>
	<g>
		<g>
			<path class="st1" d="M1841.1,7.7c9.8-16.3,19.7-32.6,29.5-48.9c1.4-2.3-0.4-5.4-3.1-5.4c-27.2,0-54.3,0-81.5,0
				c1.2,1.2,2.4,2.4,3.6,3.6c3.8-28.3,7.6-56.6,11.3-84.9c0.6-4.1,1.1-8.2,1.7-12.3c0.5-3.7-5-4.6-6.7-1.8
				c-10.1,17.3-20.1,34.5-30.2,51.8c-16.1,27.5-32.2,55.1-48.3,82.6c-3.7,6.4-7.5,12.8-11.2,19.2c-1.4,2.3,0.4,5.4,3.1,5.4
				c23,0,46.1,0,69.1,0c-1.2-1.2-2.4-2.4-3.6-3.6c-4.6,34.3-9.2,68.6-13.8,102.9c-0.6,4.8-1.3,9.6-1.9,14.4c-0.5,3.7,5,4.6,6.7,1.8
				c15.8-26.3,31.7-52.5,47.5-78.8c2.3-3.8,4.5-7.5,6.8-11.3c2.4-4-3.8-7.6-6.2-3.6c-15.8,26.3-31.7,52.5-47.5,78.8
				c-2.3,3.8-4.5,7.5-6.8,11.3c2.2,0.6,4.4,1.2,6.7,1.8c4.6-34.3,9.2-68.6,13.8-102.9c0.6-4.8,1.3-9.6,1.9-14.4
				c0.3-1.9-1.8-3.6-3.6-3.6c-23,0-46.1,0-69.1,0c1,1.8,2.1,3.6,3.1,5.4c10.1-17.3,20.1-34.5,30.2-51.8
				c16.1-27.5,32.2-55.1,48.3-82.6c3.7-6.4,7.5-12.8,11.2-19.2c-2.2-0.6-4.4-1.2-6.7-1.8c-3.8,28.3-7.6,56.6-11.3,84.9
				c-0.6,4.1-1.1,8.2-1.7,12.3c-0.3,1.9,1.8,3.6,3.6,3.6c27.2,0,54.3,0,81.5,0c-1-1.8-2.1-3.6-3.1-5.4
				c-9.8,16.3-19.7,32.6-29.5,48.9C1832.5,8,1838.7,11.6,1841.1,7.7L1841.1,7.7z"/>
		</g>
	</g>
</g>
<g>
	<g>
		<path class="st18" d="M2730.5-19.5h-73.2c-5.1,0-9.3,4.2-9.3,9.3v51.7c0,5.1,4.2,9.3,9.3,9.3h73.2c5.1,0,9.3-4.2,9.3-9.3v-51.7
			C2739.8-15.3,2735.6-19.5,2730.5-19.5z M2705.7,34.7c0.3,1.2-0.6,2.3-1.8,2.3h-20.1c-1.2,0-2.1-1.1-1.8-2.3l4.5-18.8
			c-2.8-2.2-4.7-5.6-4.7-9.5c0-7.5,6.8-13.4,14.6-11.8c4.7,1,8.4,4.8,9.2,9.5c0.9,4.8-1.1,9.1-4.5,11.8L2705.7,34.7z"/>
	</g>
</g>
<g>
	<path class="st18" d="M2805.5-171l-53.6,10.6c-0.6,0.1-1.3-0.1-1.7-0.6l-27.2-30.3c-1-1.1-0.4-2.8,1-3.1l73.9-14.6
		c1-0.2,2,0.5,2.2,1.5l6.9,34.3C2807.1-172.2,2806.5-171.2,2805.5-171z"/>
</g>
<g>
	<path class="st18" d="M2571.2-171l53.6,10.6c0.6,0.1,1.3-0.1,1.7-0.6l27.2-30.3c1-1.1,0.4-2.8-1-3.1l-73.9-14.6
		c-1-0.2-2,0.5-2.2,1.5l-6.9,34.3C2569.5-172.2,2570.2-171.2,2571.2-171z"/>
</g>
<g>
	<g>
		<path class="st18" d="M2778-102.4c-49.5,0-85.9-23.3-85.9-23.3s-36.4,23.3-85.9,23.3h-8.2V8.3c0,83.8,94.1,116.3,94.1,116.3
			s94.1-32.4,94.1-116.3v-110.7H2778z M2773.3,8.3c0,63.9-64.1,95.2-81.3,102.4c-17.2-7.2-81.3-38.5-81.3-102.4v-97.9
			c38.1-1,68.2-14.5,81.3-21.4c13,6.9,43.1,20.3,81.3,21.4V8.3z"/>
	</g>
</g>
<circle class="st19" cx="2595.8" cy="-146" r="8.3"/>
<line class="st19" x1="2595.8" y1="-154.3" x2="2595.8" y2="-171"/>
<line class="st19" x1="2587.4" y1="-146" x2="2516.4" y2="-146"/>
<line class="st19" x1="2580.6" y1="-202.9" x2="2604.1" y2="-198.3"/>
<polyline class="st19" points="2644.2,-190.3 2653.2,-188.6 2649.7,-171.3 2630.5,-175.1 "/>
<polygon class="st19" points="2565.6,-176.9 2622.1,-165.8 2652.3,-199.3 2573.3,-214.9 "/>
<circle class="st19" cx="2780.9" cy="-146" r="8.3"/>
<path class="st19" d="M2780.9-154.3V-171V-154.3z"/>
<path class="st19" d="M2789.2-146h71H2789.2z"/>
<line class="st19" x1="2796" y1="-202.9" x2="2772.6" y2="-198.3"/>
<polygon class="st19" points="2732.4,-190.3 2723.4,-188.6 2726.9,-171.3 2746.1,-175.1 "/>
<polygon class="st19" points="2811,-176.9 2754.5,-165.8 2724.4,-199.3 2803.3,-214.9 "/>
<path class="st19" d="M2759.9,69.7c63.4-27.6,107.7-90.9,107.7-164.5c0-99-80.3-179.3-179.3-179.3S2509-193.8,2509-94.8
	c0,73.6,44.3,136.8,107.7,164.5"/>
<path class="st19" d="M2688.3,120.9c0,0,94.1-32.4,94.1-116.3v-110.7h-8.2c-49.5,0-85.9-23.3-85.9-23.3s-36.4,23.3-85.9,23.3h-8.2
	V4.6C2594.2,88.4,2688.3,120.9,2688.3,120.9z"/>
<path class="st19" d="M2688.3,107c-17.2-7.2-81.3-38.5-81.3-102.4v-97.9c38.1-1,68.2-14.5,81.3-21.4c13,6.9,43.1,20.3,81.3,21.4V4.6
	C2769.6,68.5,2705.5,99.8,2688.3,107z"/>
<path class="st19" d="M2724.9,45.2h-73.2c-5.1,0-9.3-4.2-9.3-9.3v-51.7c0-5.1,4.2-9.3,9.3-9.3h73.2c5.1,0,9.3,4.2,9.3,9.3v51.7
	C2734.2,41,2730,45.2,2724.9,45.2z"/>
<path class="st19" d="M2700.2,29.1l-4.5-18.8c3.4-2.6,5.4-7,4.5-11.8c-0.9-4.7-4.6-8.5-9.2-9.5c-7.8-1.6-14.6,4.3-14.6,11.8
	c0,3.9,1.9,7.3,4.7,9.5l-4.5,18.8c-0.3,1.2,0.6,2.3,1.8,2.3h20.1C2699.6,31.4,2700.4,30.2,2700.2,29.1z"/>
<path class="st19" d="M2719.3-25.1c0,0,0-23.8,0-23.8c0-17.1-13.9-31-31-31c-17.1,0-31,13.9-31,31v23.8H2719.3z"/>
<path class="st19" d="M3181.9,69.7c63.4-27.6,107.7-90.9,107.7-164.5c0-99-80.3-179.3-179.3-179.3S2931-193.8,2931-94.8
	c0,73.6,44.3,136.8,107.7,164.5"/>
<g>
	<path class="st19" d="M3158.6-105.5c15,5.4,32.4,2.1,44.4-9.9s15.3-29.4,9.9-44.4l-21.3,21.3c-2.7,2.7-7,2.7-9.7,0l-15.9-15.9
		c-2.7-2.7-2.7-7,0-9.7l21.3-21.3c-15-5.4-32.4-2.1-44.4,9.9s-15.3,29.4-9.9,44.4l-65,65c-15-5.4-32.4-2.1-44.4,9.9
		s-15.3,29.4-9.9,44.4l21.3-21.3c2.7-2.7,7-2.7,9.7,0l15.9,15.9c2.7,2.7,2.7,7,0,9.7l-21.3,21.3c15,5.4,32.4,2.1,44.4-9.9
		s15.3-29.4,9.9-44.4l19.2-19.2"/>
	<path class="st19" d="M3112.8-59.7l-50.9-54.6c-8.9-8.9-23.4-8.9-32.4,0c-8.2,8.2-8.9,21.2-1.9,30.2l-17.9,11.2
		c0,0-28.2-42.3,4-74.5c11.2-11.2,22.2-22.2,31.5-31.5c3,0.5,6.3,1.1,9.1,1.5c2.8,0.5,5.2-1.9,4.7-4.7l-1.5-9.1l14.6-14.6l40.7,40.7
		l-14.4,14.4c-4.2-4.2-11.1-4.2-15.4,0s-4.2,11.1,0,15.4l112.7,105.1c0.8,0.7,1.5,1.4,2.2,2.2c6.1,7.1,6.5,17.9,0.8,25.4
		c-7.6,10.1-22.1,10.9-30.7,2.2c-0.3-0.3-0.7-0.7-1-1.1l-36.5-39.2"/>
</g>
<g>
	<path class="st19" d="M3578.8-27.6l-19.2,19.2c5.4,15,2.1,32.4-9.9,44.4s-29.4,15.3-44.4,9.9l21.3-21.3c2.7-2.7,2.7-7,0-9.7
		L3510.7-1c-2.7-2.7-7-2.7-9.7,0l-21.3,21.3c-5.4-15-2.1-32.4,9.9-44.4s29.4-15.3,44.4-9.9l65-65c-5.4-15-2.1-32.4,9.9-44.4
		s29.4-15.3,44.4-9.9l-21.3,21.3c-2.7,2.7-2.7,7,0,9.7l15.9,15.9c2.7,2.7,7,2.7,9.7,0l21.3-21.3c5.4,15,2.1,32.4-9.9,44.4
		s-29.4,15.3-44.4,9.9"/>
	<path class="st19" d="M3578.8-27.7l-50.9-54.6c-8.9-8.9-23.4-8.9-32.4,0c-8.2,8.2-8.9,21.2-1.9,30.2l-17.9,11.2
		c0,0-28.2-42.3,4-74.5c11.2-11.2,22.2-22.2,31.5-31.5c3,0.5,6.3,1.1,9.1,1.5c2.8,0.5,5.2-1.9,4.7-4.7l-1.5-9.1l14.6-14.6l40.7,40.7
		l-14.4,14.4c-4.2-4.2-11.1-4.2-15.4,0c-4.2,4.2-4.2,11.1,0,15.4L3661.8,1.8c0.8,0.7,1.5,1.4,2.2,2.2c6.1,7.1,6.5,17.9,0.8,25.4
		c-7.6,10.1-22.1,10.9-30.7,2.2c-0.3-0.3-0.7-0.7-1-1.1l-36.5-39.2l-0.7,81.4c-64.4,25.3-133,9.1-185.1-42.9
		c-70-70-70-183.6,0-253.6c70-70,183.6-70,253.6,0c52,52,65.4,128.1,40.1,192.5"/>
</g>
<g>
	<path class="st20" d="M-8.3-65.9v-1.3c0-0.5-0.4-0.9-0.9-0.9H-21l-3.5-3.5h-8.3c-1,0-1.8,0.8-1.8,1.8v21.8l5.5-15
		c0.1-0.4,0.5-0.6,0.9-0.6h21.7c0.6,0,1.1,0.6,0.9,1.2l-5,13.8c-0.1,0.4-0.5,0.6-0.9,0.6h-19.9"/>
</g>
<g>
	<path class="st21" d="M-80.5-52.4c-5.1-3-8.6-8.6-8.6-15c0-9.6,7.8-17.5,17.5-17.5c7,0,13,4.1,15.8,9.9"/>
	<path class="st21" d="M-55.9-74.9c1.1-0.3,2.3-0.5,3.5-0.5c7,0,12.7,5.7,12.7,12.7S-45.4-50-52.4-50c-1.7,0-3.4-0.3-4.9-1"/>
	<polyline class="st21" points="-57.2,-50.9 -53.4,-57.3 -64,-57.3 -62.3,-69.9 -73.9,-50 -64.9,-50 -67,-34.8 -59.9,-46.5 	"/>
</g>
<g>
	<path class="st22" d="M16.3-59.7c-6.9,0-12.5-5.6-12.5-12.5c0-5,2.9-9.3,7.1-11.3"/>
	<path class="st22" d="M10.8-83.5c-0.1-0.4-0.1-0.8-0.1-1.2c0-4.5,3.6-8.1,8.1-8.1c1.7,0,3.2,0.5,4.5,1.4"/>
	<path class="st22" d="M23.4-91.5c3-4.6,8.2-7.6,14.1-7.6c9.2,0,16.7,7.4,16.9,16.5"/>
	<path class="st22" d="M54.4-82.6c5.1,1.2,8.9,5.8,8.9,11.3c0,6.4-5.2,11.6-11.6,11.6"/>
	<path class="st22" d="M23-59.7c0-5.9,4.7-10.6,10.6-10.6s10.6,4.7,10.6,10.6s-4.7,10.6-10.6,10.6"/>
	<line class="st22" x1="16.3" y1="-59.7" x2="23" y2="-59.7"/>
	<path class="st22" d="M25.5-59.7c1.4,0,2.6,1.2,2.6,2.6s-1.2,2.6-2.6,2.6S23-55.7,23-57.1"/>
	<line class="st22" x1="23" y1="-59.7" x2="23" y2="-57.1"/>
	<line class="st22" x1="25.5" y1="-59.7" x2="23" y2="-59.7"/>
	<line class="st22" x1="31.6" y1="-49.1" x2="34" y2="-46.2"/>
	<line class="st22" x1="31.6" y1="-49.1" x2="34" y2="-52"/>
</g>
<g>
	<path class="st23" d="M-30.7-16.5c-0.2-1.5,0.4-2.3,0.4-2.3c0.7-0.7,2.4-2.4,2.4-2.4l3.9,3.9l-2.2,2.4c0,0,0.8,1.6,2.7,3.5
		s3.5,2.7,3.5,2.7l2.4-2.2l3.9,3.9"/>
	<path class="st23" d="M-29.5-23.9c2.2-4.8,7.1-8.2,12.7-8.2c7.7,0,14,6.3,14,14s-6.3,14-14,14c-0.4,0-0.7,0-1.1,0"/>
	<g>
		<line class="st23" x1="-10.2" y1="-25.9" x2="-14.7" y2="-13.6"/>
		<polyline class="st23" points="-9.9,-19 -6.4,-19 -8.8,-13.6 		"/>
		<g>
			<polyline class="st23" points="-15.4,-20.4 -15.4,-25.9 -18.2,-21.9 -14.5,-21.9 			"/>
			<path class="st23" d="M-19.5-20.4h-3.3l2.6-2.9c0.3-0.3,0.4-0.6,0.4-1c0-0.8-0.7-1.5-1.5-1.5c-0.8,0-1.5,0.7-1.5,1.5"/>
		</g>
	</g>
	<line class="st23" x1="-29.5" y1="-23.9" x2="-30.4" y2="-26.1"/>
	<line class="st23" x1="-29.5" y1="-23.9" x2="-27.2" y2="-24.3"/>
	<path class="st23" d="M-17.9-4.1C-24.6-4.6-30-9.9-30.7-16.5"/>
</g>
<circle class="st4" cx="118.6" cy="-123.7" r="23"/>
<path class="st8" d="M117.2-111.4h-0.5 M119.5-111.4H119 M130.4-108.9h-23.7c-1,0-1.7-0.8-1.7-1.7v-1.6c0-1,0.8-1.7,1.7-1.7h23.7
	c1,0,1.7,0.8,1.7,1.7v1.6C132.2-109.7,131.4-108.9,130.4-108.9z M117.2-116.5h-0.5 M119.5-116.5H119 M117.2-121.6h-0.5 M119.5-121.6
	H119 M117.2-126.7h-0.5 M119.5-126.7H119 M117.2-131.7h-0.5 M119.5-131.7H119 M130.4-114h-23.7c-1,0-1.7-0.8-1.7-1.7v-1.6
	c0-1,0.8-1.7,1.7-1.7h23.7c1,0,1.7,0.8,1.7,1.7v1.6C132.2-114.7,131.4-114,130.4-114z M131.5-133.9l-5.3-4.2
	c-0.3-0.3-0.7-0.4-1.1-0.4h-12.9c-0.4,0-0.8,0.1-1.1,0.4l-5.3,4.2 M130.4-129.2h-23.7c-1,0-1.7-0.8-1.7-1.7v-1.6
	c0-1,0.8-1.7,1.7-1.7h23.7c1,0,1.7,0.8,1.7,1.7v1.6C132.2-130,131.4-129.2,130.4-129.2z M130.4-129.2h-23.7c-1,0-1.7,0.8-1.7,1.7
	v1.6c0,1,0.8,1.7,1.7,1.7h23.7c1,0,1.7-0.8,1.7-1.7v-1.6C132.2-128.4,131.4-129.2,130.4-129.2z M130.4-119h-23.7
	c-1,0-1.7-0.8-1.7-1.7v-1.6c0-1,0.8-1.7,1.7-1.7h23.7c1,0,1.7,0.8,1.7,1.7v1.6C132.2-119.8,131.4-119,130.4-119z"/>
<circle class="st4" cx="44.3" cy="-132.8" r="23"/>
<path class="st24" d="M55-144.5c0-0.4,0.3-0.8,0.8-0.8c0.4,0,0.8,0.3,0.8,0.8s-0.3,0.8-0.8,0.8C55.4-143.8,55-144.1,55-144.5z
	 M51.5-147.3c2.2-0.4,3.7-0.1,4.3,0.8c0.2,0.3,0.2,0.7,0.2,1.2 M55.5-143.8c-1.2,2.2-4.4,5-8.4,7.3c-6,3.5-11.9,4.7-13,2.6
	c-0.5-0.9,0-2.4,1.4-4.1 M54.3-140.5c0,5.3-4.3,9.6-9.6,9.6c-5.3,0-9.6-4.3-9.6-9.6c0-5.3,4.3-9.6,9.6-9.6
	C50-150.1,54.3-145.8,54.3-140.5z M37.5-115.7l-5.4-5.4c-0.2-0.2-0.2-0.4,0-0.6l1.7-1.7c0.2-0.2,0.4-0.2,0.6,0l5.4,5.4
	c0.2,0.2,0.2,0.4,0,0.6l-1.7,1.7C37.9-115.5,37.7-115.5,37.5-115.7z M39.6-118.5l8.7-2.1c0.7-0.2,1.4-0.5,1.9-1.1l5.9-5.9
	c0.2-0.2,0.2-0.5,0-0.7c-0.7-0.7-1.9-0.7-2.6,0l-4,4 M35-122.8l2.6-2.6c0.7-0.7,1.8-1.2,2.8-1.2h6.3c0.3,0,0.5,0.2,0.5,0.5
	c0,1-0.8,1.8-1.8,1.8 M41.9-124.2h7.6 M50.1-128.2l-0.4-0.4c-0.7-0.7-1.9-0.7-2.6,0l-2,2 M53.3-128l-0.4-0.4c-0.7-0.7-1.9-0.7-2.6,0
	l-4.2,4.2"/>
<g>
	<g>
		<path class="st6" d="M130-26.1c-13.1,0-23.8-10.7-23.8-23.8c0-13.1,10.7-23.8,23.8-23.8s23.8,10.7,23.8,23.8
			C153.8-36.8,143.1-26.1,130-26.1z M130-72.1c-12.2,0-22.1,9.9-22.1,22.1c0,12.2,9.9,22.1,22.1,22.1s22.1-9.9,22.1-22.1
			C152.1-62.2,142.2-72.1,130-72.1z"/>
	</g>
	<path class="st25" d="M131.2-43.2c-0.4,0-0.8,0-1.2,0c-3.4,0-6.5-0.3-8.9-0.8c-1.3-0.3-2.3-0.6-3-1l0,5.3c0,0.2,0.6,0.8,3.2,1.4
		c2.3,0.5,5.4,0.8,8.7,0.8c0.6,0,1.1,0,1.7,0c-0.3-0.7-0.5-1.5-0.5-2.4V-43.2z"/>
	<path class="st25" d="M136.9-48.2c0.8,0.4,2.7,1.3,5,1.4l0-5.1c-2.5,1.4-8.4,1.9-11.9,1.9c-3.5,0-9.4-0.4-11.9-1.8l0,5.3
		c0,0.2,0.6,0.8,3.2,1.4c2.3,0.5,5.4,0.8,8.7,0.8c0.4,0,0.8,0,1.2,0v-2.4C133.9-46.8,136-47.8,136.9-48.2z"/>
	<path class="st25" d="M121.3-57.7c2.3,0.5,5.4,0.8,8.7,0.8c3.3,0,6.4-0.3,8.7-0.8c2.6-0.6,3.2-1.2,3.2-1.4v0c0,0,0,0,0,0
		c0-0.2-0.6-0.8-3.2-1.4c-2.3-0.5-5.4-0.8-8.7-0.8c-7.7,0-11.9,1.5-11.9,2.3v0C118-59,118.6-58.3,121.3-57.7z"/>
	<path class="st25" d="M138.9-56.7c-2.4,0.5-5.6,0.9-8.9,0.9c-3.3,0-6.5-0.3-8.9-0.8c-1.3-0.3-2.3-0.6-3-1l0,4.4
		c0,0.8,4.2,2.2,11.9,2.2c7.7,0,11.9-1.5,11.9-2.3l0-4.4C141.2-57.3,140.2-57,138.9-56.7z"/>
	<path class="st26" d="M143-39.8l0-5.9c0-0.1-0.1-0.3-0.1-0.4c0.1-0.2,0.1-0.4,0.1-0.6l0-5.9c0-0.1-0.1-0.3-0.1-0.4
		c0.1-0.2,0.1-0.4,0.1-0.6l0-5.9c0,0,0,0,0,0c0-1.1-1.3-1.9-4.1-2.5c-2.4-0.5-5.5-0.8-8.9-0.8l0,0.6l0-0.6c-4.5,0-13,0.8-13,3.4
		c0,0,0,0,0,0l0,5.9c0,0.2,0.1,0.4,0.1,0.6c-0.1,0.1-0.1,0.2-0.1,0.4l0,5.9c0,0.2,0,0.4,0.1,0.6c-0.1,0.1-0.1,0.2-0.1,0.4l0,5.9
		c0,1.1,1.3,1.9,4.1,2.5c2.3,0.5,5.4,0.8,8.7,0.8c0.1,0,0.2,0,0.3,0c0.7,0,1.5,0,2.3-0.1c-0.2-0.3-0.4-0.7-0.6-1.1
		c-0.5,0-1.1,0-1.7,0c-3.3,0-6.4-0.3-8.7-0.8c-2.6-0.6-3.2-1.2-3.2-1.4l0-5.3c0.7,0.4,1.7,0.7,3,1c2.4,0.5,5.5,0.8,8.9,0.8
		c0.4,0,0.8,0,1.2,0v-1.1c-0.4,0-0.8,0-1.2,0c-3.3,0-6.4-0.3-8.7-0.8c-2.6-0.6-3.2-1.2-3.2-1.4l0-5.3c2.5,1.4,8.4,1.8,11.9,1.8
		c3.5,0,9.4-0.5,11.9-1.9l0,5.1c0.2,0,0.4,0,0.6,0v6.8c0,0.5-0.1,1-0.2,1.4C142.8-38.9,143-39.3,143-39.8z M118-59.1
		c0-0.8,4.2-2.2,11.9-2.3c3.3,0,6.4,0.3,8.7,0.8c2.6,0.6,3.2,1.2,3.2,1.4c0,0,0,0,0,0v0c0,0.2-0.6,0.8-3.2,1.4
		c-2.3,0.5-5.4,0.8-8.7,0.8c-3.3,0-6.4-0.3-8.7-0.8C118.6-58.3,118-59,118-59.1L118-59.1z M130-51.1c-7.7,0-11.9-1.4-11.9-2.2l0-4.4
		c0.7,0.4,1.7,0.7,3,1c2.4,0.5,5.6,0.8,8.9,0.8c3.4,0,6.5-0.3,8.9-0.9c1.3-0.3,2.3-0.6,3-1l0,4.4C141.9-52.6,137.7-51.1,130-51.1z"
		/>
	<path class="st8" d="M136.9-32.8c-1.2-0.5-5.6-2.7-5.6-7.1v-6.8c2.6-0.1,4.7-1,5.6-1.5c0.9,0.5,3,1.4,5.6,1.5v6.8
		C142.5-35.5,138.1-33.4,136.9-32.8z"/>
	<path class="st8" d="M139.3-38h-4.8v-3.5h4.8V-38z M135.4-41.5v-1.4c0-0.8,0.7-1.5,1.5-1.5c0.8,0,1.5,0.7,1.5,1.5v1.4"/>
</g>
<g>
	<path class="st1" d="M23.8,0C10.7,0,0,10.7,0,23.8s10.7,23.8,23.8,23.8c13.1,0,23.8-10.7,23.8-23.8S36.9,0,23.8,0z M23.8,45.9
		C11.6,45.9,1.7,36,1.7,23.8S11.6,1.7,23.8,1.7c12.2,0,22.1,9.9,22.1,22.1S36,45.9,23.8,45.9z"/>
	<path class="st1" d="M14.4,27.8c-0.3-0.1-0.6,0.1-0.7,0.4l-0.9,4.1c-1.7-2-2.8-4.3-3.2-6.9c-0.6-3.7,0.3-7.3,2.5-10.3
		c2.2-3,5.4-4.9,9.1-5.5c1.8-0.3,3.7-0.2,5.5,0.2c0.3,0.1,0.6-0.1,0.7-0.4c0.1-0.3-0.1-0.6-0.4-0.7c-2-0.5-4-0.6-5.9-0.3
		c-4,0.6-7.4,2.7-9.8,6s-3.3,7.2-2.7,11.1c0.4,2.7,1.6,5.2,3.3,7.3L8,32c-0.3-0.1-0.6,0.1-0.7,0.4c-0.1,0.3,0.1,0.6,0.4,0.7l5.1,1.1
		c0,0,0.1,0,0.1,0c0.2,0,0.4-0.1,0.5-0.3c0.1-0.1,0.2-0.2,0.2-0.3l1.1-5.1C14.8,28.2,14.7,27.9,14.4,27.8z"/>
	<path class="st1" d="M39.5,14l-5.1-0.9c-0.3,0-0.5,0.1-0.6,0.3c-0.1,0.1-0.2,0.2-0.2,0.3l-1,5.1c-0.1,0.3,0.1,0.6,0.5,0.7
		c0.3,0.1,0.6-0.1,0.7-0.5l0.8-4.1c1.8,1.9,2.9,4.2,3.4,6.8c0.7,3.6-0.1,7.3-2.1,10.4c-2.1,3.1-5.2,5.1-8.9,5.8
		c-1.6,0.3-3.2,0.3-4.7,0.1l9.2-15.5c0.1-0.2,0.1-0.4,0-0.6c-0.1-0.2-0.3-0.3-0.5-0.3h-6.9l1.1-8.3c0-0.3-0.1-0.5-0.4-0.6
		c-0.3-0.1-0.5,0-0.7,0.2l-8.3,14.2c-0.1,0.2-0.1,0.4,0,0.6c0.1,0.2,0.3,0.3,0.5,0.3h5.8l-0.8,6.4c0,0.3,0.2,0.6,0.5,0.6
		c0.3,0,0.6-0.2,0.6-0.5l0.9-7c0-0.2,0-0.3-0.1-0.4c-0.1-0.1-0.3-0.2-0.4-0.2h-5.4L23.7,16l-0.8,6.2c0,0.2,0,0.3,0.1,0.4
		c0.1,0.1,0.3,0.2,0.4,0.2H30l-9.1,15.3c0,0.1,0,0.1-0.1,0.2c0,0,0,0.1-0.1,0.1c-0.1,0.3,0.1,0.6,0.4,0.7c1,0.2,2.1,0.3,3.1,0.3
		c0.9,0,1.9-0.1,2.8-0.3c8.1-1.5,13.5-9.4,11.9-17.5c-0.5-2.7-1.7-5.2-3.5-7.2l3.8,0.7c0.3,0.1,0.6-0.1,0.7-0.5
		C40,14.3,39.8,14,39.5,14z"/>
</g>
</svg>
